<?xml version="1.0" encoding="UTF-8" standalone="no"?>
<!DOCTYPE svg PUBLIC "-//W3C//DTD SVG 1.1//EN"
 "http://www.w3.org/Graphics/SVG/1.1/DTD/svg11.dtd">
<!-- Generated by graphviz version 2.43.0 (0)
 -->
<!-- Title: Network/TransportLayer/ASocket.hpp Pages: 1 -->
<svg width="1029pt" height="368pt"
 viewBox="0.00 0.00 1028.50 368.00" xmlns="http://www.w3.org/2000/svg" xmlns:xlink="http://www.w3.org/1999/xlink">
<g id="graph0" class="graph" transform="scale(1 1) rotate(0) translate(4 364)">
<title>Network/TransportLayer/ASocket.hpp</title>
<!-- Node1 -->
<g id="Node000001" class="node">
<title>Node1</title>
<g id="a_Node000001"><a xlink:title=" ">
<polygon fill="#999999" stroke="#666666" points="405,-360 272,-360 272,-330 405,-330 405,-360"/>
<text text-anchor="start" x="280" y="-348" font-family="Helvetica,sans-Serif" font-size="10.00">Network/TransportLayer</text>
<text text-anchor="middle" x="338.5" y="-337" font-family="Helvetica,sans-Serif" font-size="10.00">/ASocket.hpp</text>
</a>
</g>
</g>
<!-- Node2 -->
<g id="Node000002" class="node">
<title>Node2</title>
<g id="a_Node000002"><a xlink:href="ASocket_8cpp.html" target="_top" xlink:title=" ">
<polygon fill="white" stroke="#666666" points="133,-294 0,-294 0,-264 133,-264 133,-294"/>
<text text-anchor="start" x="8" y="-282" font-family="Helvetica,sans-Serif" font-size="10.00">Network/TransportLayer</text>
<text text-anchor="middle" x="66.5" y="-271" font-family="Helvetica,sans-Serif" font-size="10.00">/ASocket.cpp</text>
</a>
</g>
</g>
<!-- Node1&#45;&gt;Node2 -->
<g id="edge1_Node000001_Node000002" class="edge">
<title>Node1&#45;&gt;Node2</title>
<g id="a_edge1_Node000001_Node000002"><a xlink:title=" ">
<path fill="none" stroke="#63b8ff" d="M269.01,-327.65C224.81,-317.25 168.18,-303.93 126.05,-294.01"/>
<polygon fill="#63b8ff" stroke="#63b8ff" points="268.27,-331.07 278.81,-329.95 269.88,-324.26 268.27,-331.07"/>
</a>
</g>
</g>
<!-- Node3 -->
<g id="Node000003" class="node">
<title>Node3</title>
<g id="a_Node000003"><a xlink:href="TCPSocket_8hpp.html" target="_top" xlink:title=" ">
<polygon fill="white" stroke="#666666" points="284,-294 151,-294 151,-264 284,-264 284,-294"/>
<text text-anchor="start" x="159" y="-282" font-family="Helvetica,sans-Serif" font-size="10.00">Network/TransportLayer</text>
<text text-anchor="middle" x="217.5" y="-271" font-family="Helvetica,sans-Serif" font-size="10.00">/TCP/TCPSocket.hpp</text>
</a>
</g>
</g>
<!-- Node1&#45;&gt;Node3 -->
<g id="edge2_Node000001_Node000003" class="edge">
<title>Node1&#45;&gt;Node3</title>
<g id="a_edge2_Node000001_Node000003"><a xlink:title=" ">
<path fill="none" stroke="#63b8ff" d="M303.03,-325.24C284.15,-315.25 261.32,-303.18 243.99,-294.01"/>
<polygon fill="#63b8ff" stroke="#63b8ff" points="301.47,-328.37 311.95,-329.95 304.74,-322.19 301.47,-328.37"/>
</a>
</g>
</g>
<!-- Node8 -->
<g id="Node000008" class="node">
<title>Node8</title>
<g id="a_Node000008"><a xlink:href="UDPSocket_8hpp.html" target="_top" xlink:title=" ">
<polygon fill="white" stroke="#666666" points="481,-294 348,-294 348,-264 481,-264 481,-294"/>
<text text-anchor="start" x="356" y="-282" font-family="Helvetica,sans-Serif" font-size="10.00">Network/TransportLayer</text>
<text text-anchor="middle" x="414.5" y="-271" font-family="Helvetica,sans-Serif" font-size="10.00">/UDP/UDPSocket.hpp</text>
</a>
</g>
</g>
<!-- Node1&#45;&gt;Node8 -->
<g id="edge7_Node000001_Node000008" class="edge">
<title>Node1&#45;&gt;Node8</title>
<g id="a_edge7_Node000001_Node000008"><a xlink:title=" ">
<path fill="none" stroke="#63b8ff" d="M363.2,-323.2C374.48,-313.7 387.55,-302.69 397.68,-294.16"/>
<polygon fill="#63b8ff" stroke="#63b8ff" points="360.76,-320.68 355.37,-329.8 365.27,-326.03 360.76,-320.68"/>
</a>
</g>
</g>
<!-- Node21 -->
<g id="Node000021" class="node">
<title>Node21</title>
<g id="a_Node000021"><a xlink:href="UnixSocket_8hpp.html" target="_top" xlink:title=" ">
<polygon fill="white" stroke="#666666" points="782,-294 649,-294 649,-264 782,-264 782,-294"/>
<text text-anchor="start" x="657" y="-282" font-family="Helvetica,sans-Serif" font-size="10.00">Network/TransportLayer</text>
<text text-anchor="middle" x="715.5" y="-271" font-family="Helvetica,sans-Serif" font-size="10.00">/UNIX/UnixSocket.hpp</text>
</a>
</g>
</g>
<!-- Node1&#45;&gt;Node21 -->
<g id="edge26_Node000001_Node000021" class="edge">
<title>Node1&#45;&gt;Node21</title>
<g id="a_edge26_Node000001_Node000021"><a xlink:title=" ">
<path fill="none" stroke="#63b8ff" d="M414.94,-331.02C483.64,-319.36 583.53,-302.4 649,-291.29"/>
<polygon fill="#63b8ff" stroke="#63b8ff" points="414.31,-327.58 405.03,-332.71 415.48,-334.48 414.31,-327.58"/>
</a>
</g>
</g>
<!-- Node4 -->
<g id="Node000004" class="node">
<title>Node4</title>
<g id="a_Node000004"><a xlink:href="TCPServer_8hpp.html" target="_top" xlink:title=" ">
<polygon fill="white" stroke="#666666" points="232,-162 99,-162 99,-132 232,-132 232,-162"/>
<text text-anchor="start" x="107" y="-150" font-family="Helvetica,sans-Serif" font-size="10.00">Network/TransportLayer</text>
<text text-anchor="middle" x="165.5" y="-139" font-family="Helvetica,sans-Serif" font-size="10.00">/TCP/TCPServer.hpp</text>
</a>
</g>
</g>
<!-- Node3&#45;&gt;Node4 -->
<g id="edge3_Node000003_Node000004" class="edge">
<title>Node3&#45;&gt;Node4</title>
<g id="a_edge3_Node000003_Node000004"><a xlink:title=" ">
<path fill="none" stroke="#63b8ff" d="M204.55,-255.05C200.1,-246.68 195.29,-237.05 191.5,-228 182.07,-205.51 173.88,-178.32 169.32,-162.13"/>
<polygon fill="#63b8ff" stroke="#63b8ff" points="201.49,-256.75 209.35,-263.86 207.64,-253.4 201.49,-256.75"/>
</a>
</g>
</g>
<!-- Node7 -->
<g id="Node000007" class="node">
<title>Node7</title>
<g id="a_Node000007"><a xlink:href="TCPSocket_8cpp.html" target="_top" xlink:title=" ">
<polygon fill="white" stroke="#666666" points="144,-228 11,-228 11,-198 144,-198 144,-228"/>
<text text-anchor="start" x="19" y="-216" font-family="Helvetica,sans-Serif" font-size="10.00">Network/TransportLayer</text>
<text text-anchor="middle" x="77.5" y="-205" font-family="Helvetica,sans-Serif" font-size="10.00">/TCP/TCPSocket.cpp</text>
</a>
</g>
</g>
<!-- Node3&#45;&gt;Node7 -->
<g id="edge6_Node000003_Node000007" class="edge">
<title>Node3&#45;&gt;Node7</title>
<g id="a_edge6_Node000003_Node000007"><a xlink:title=" ">
<path fill="none" stroke="#63b8ff" d="M177.65,-259.78C155.58,-249.69 128.56,-237.34 108.15,-228.01"/>
<polygon fill="#63b8ff" stroke="#63b8ff" points="176.23,-262.98 186.78,-263.95 179.14,-256.61 176.23,-262.98"/>
</a>
</g>
</g>
<!-- Node5 -->
<g id="Node000005" class="node">
<title>Node5</title>
<g id="a_Node000005"><a xlink:href="server_8cpp.html" target="_top" xlink:title=" ">
<polygon fill="white" stroke="#666666" points="344,-96 185,-96 185,-66 344,-66 344,-96"/>
<text text-anchor="start" x="193" y="-84" font-family="Helvetica,sans-Serif" font-size="10.00">/home/loic/EPITECH</text>
<text text-anchor="middle" x="264.5" y="-73" font-family="Helvetica,sans-Serif" font-size="10.00">/rtype/Mystic&#45;Type/server.cpp</text>
</a>
</g>
</g>
<!-- Node4&#45;&gt;Node5 -->
<g id="edge4_Node000004_Node000005" class="edge">
<title>Node4&#45;&gt;Node5</title>
<g id="a_edge4_Node000004_Node000005"><a xlink:title=" ">
<path fill="none" stroke="#63b8ff" d="M195.97,-126.3C211.04,-116.56 228.89,-105.02 242.59,-96.16"/>
<polygon fill="#63b8ff" stroke="#63b8ff" points="193.97,-123.43 187.47,-131.8 197.77,-129.31 193.97,-123.43"/>
</a>
</g>
</g>
<!-- Node6 -->
<g id="Node000006" class="node">
<title>Node6</title>
<g id="a_Node000006"><a xlink:href="TCPServer_8cpp.html" target="_top" xlink:title=" ">
<polygon fill="white" stroke="#666666" points="167,-96 34,-96 34,-66 167,-66 167,-96"/>
<text text-anchor="start" x="42" y="-84" font-family="Helvetica,sans-Serif" font-size="10.00">Network/TransportLayer</text>
<text text-anchor="middle" x="100.5" y="-73" font-family="Helvetica,sans-Serif" font-size="10.00">/TCP/TCPServer.cpp</text>
</a>
</g>
</g>
<!-- Node4&#45;&gt;Node6 -->
<g id="edge5_Node000004_Node000006" class="edge">
<title>Node4&#45;&gt;Node6</title>
<g id="a_edge5_Node000004_Node000006"><a xlink:title=" ">
<path fill="none" stroke="#63b8ff" d="M143.81,-124.65C134.29,-115.27 123.38,-104.53 114.89,-96.16"/>
<polygon fill="#63b8ff" stroke="#63b8ff" points="141.49,-127.27 151.07,-131.8 146.4,-122.29 141.49,-127.27"/>
</a>
</g>
</g>
<!-- Node9 -->
<g id="Node000009" class="node">
<title>Node9</title>
<g id="a_Node000009"><a xlink:href="NetworkClient_8hpp.html" target="_top" xlink:title=" ">
<polygon fill="white" stroke="#666666" points="782,-222.5 599,-222.5 599,-203.5 782,-203.5 782,-222.5"/>
<text text-anchor="middle" x="690.5" y="-210.5" font-family="Helvetica,sans-Serif" font-size="10.00">Network/Client/NetworkClient.hpp</text>
</a>
</g>
</g>
<!-- Node8&#45;&gt;Node9 -->
<g id="edge8_Node000008_Node000009" class="edge">
<title>Node8&#45;&gt;Node9</title>
<g id="a_edge8_Node000008_Node000009"><a xlink:title=" ">
<path fill="none" stroke="#63b8ff" d="M484.9,-261.68C538.74,-249.19 610.81,-232.48 653.77,-222.52"/>
<polygon fill="#63b8ff" stroke="#63b8ff" points="484.02,-258.29 475.07,-263.95 485.6,-265.11 484.02,-258.29"/>
</a>
</g>
</g>
<!-- Node15 -->
<g id="Node000015" class="node">
<title>Node15</title>
<g id="a_Node000015"><a xlink:href="UDPGameServer_8hpp.html" target="_top" xlink:title=" ">
<polygon fill="white" stroke="#666666" points="578.5,-162 432.5,-162 432.5,-132 578.5,-132 578.5,-162"/>
<text text-anchor="start" x="440.5" y="-150" font-family="Helvetica,sans-Serif" font-size="10.00">Network/TransportLayer</text>
<text text-anchor="middle" x="505.5" y="-139" font-family="Helvetica,sans-Serif" font-size="10.00">/UDP/UDPGameServer.hpp</text>
</a>
</g>
</g>
<!-- Node8&#45;&gt;Node15 -->
<g id="edge15_Node000008_Node000015" class="edge">
<title>Node8&#45;&gt;Node15</title>
<g id="a_edge15_Node000008_Node000015"><a xlink:title=" ">
<path fill="none" stroke="#63b8ff" d="M452.34,-258.53C464.53,-250.57 477.06,-240.31 485.5,-228 499.26,-207.93 503.57,-179.24 504.91,-162.22"/>
<polygon fill="#63b8ff" stroke="#63b8ff" points="450.27,-255.7 443.59,-263.92 453.94,-261.66 450.27,-255.7"/>
</a>
</g>
</g>
<!-- Node18 -->
<g id="Node000018" class="node">
<title>Node18</title>
<g id="a_Node000018"><a xlink:href="UDPSocket_8cpp.html" target="_top" xlink:title=" ">
<polygon fill="white" stroke="#666666" points="334,-228 201,-228 201,-198 334,-198 334,-228"/>
<text text-anchor="start" x="209" y="-216" font-family="Helvetica,sans-Serif" font-size="10.00">Network/TransportLayer</text>
<text text-anchor="middle" x="267.5" y="-205" font-family="Helvetica,sans-Serif" font-size="10.00">/UDP/UDPSocket.cpp</text>
</a>
</g>
</g>
<!-- Node8&#45;&gt;Node18 -->
<g id="edge19_Node000008_Node000018" class="edge">
<title>Node8&#45;&gt;Node18</title>
<g id="a_edge19_Node000008_Node000018"><a xlink:title=" ">
<path fill="none" stroke="#63b8ff" d="M372.97,-259.92C349.74,-249.8 321.21,-237.38 299.68,-228.01"/>
<polygon fill="#63b8ff" stroke="#63b8ff" points="371.67,-263.17 382.24,-263.95 374.47,-256.75 371.67,-263.17"/>
</a>
</g>
</g>
<!-- Node19 -->
<g id="Node000019" class="node">
<title>Node19</title>
<g id="a_Node000019"><a xlink:href="IpcChannel_8hpp.html" target="_top" xlink:title=" ">
<polygon fill="white" stroke="#666666" points="477,-222.5 352,-222.5 352,-203.5 477,-203.5 477,-222.5"/>
<text text-anchor="middle" x="414.5" y="-210.5" font-family="Helvetica,sans-Serif" font-size="10.00">server/IpcChannel.hpp</text>
</a>
</g>
</g>
<!-- Node8&#45;&gt;Node19 -->
<g id="edge20_Node000008_Node000019" class="edge">
<title>Node8&#45;&gt;Node19</title>
<g id="a_edge20_Node000008_Node000019"><a xlink:title=" ">
<path fill="none" stroke="#63b8ff" d="M414.5,-253.6C414.5,-242.8 414.5,-230.78 414.5,-222.84"/>
<polygon fill="#63b8ff" stroke="#63b8ff" points="411,-253.8 414.5,-263.8 418,-253.8 411,-253.8"/>
</a>
</g>
</g>
<!-- Node10 -->
<g id="Node000010" class="node">
<title>Node10</title>
<g id="a_Node000010"><a xlink:href="NetworkClient_8cpp.html" target="_top" xlink:title=" ">
<polygon fill="white" stroke="#666666" points="946.5,-156.5 764.5,-156.5 764.5,-137.5 946.5,-137.5 946.5,-156.5"/>
<text text-anchor="middle" x="855.5" y="-144.5" font-family="Helvetica,sans-Serif" font-size="10.00">Network/Client/NetworkClient.cpp</text>
</a>
</g>
</g>
<!-- Node9&#45;&gt;Node10 -->
<g id="edge9_Node000009_Node000010" class="edge">
<title>Node9&#45;&gt;Node10</title>
<g id="a_edge9_Node000009_Node000010"><a xlink:title=" ">
<path fill="none" stroke="#63b8ff" d="M722.27,-199.68C754.88,-187.03 804.76,-167.68 833.34,-156.6"/>
<polygon fill="#63b8ff" stroke="#63b8ff" points="720.81,-196.49 712.75,-203.37 723.34,-203.02 720.81,-196.49"/>
</a>
</g>
</g>
<!-- Node11 -->
<g id="Node000011" class="node">
<title>Node11</title>
<g id="a_Node000011"><a xlink:href="GraphicClient_8hpp.html" target="_top" xlink:title=" ">
<polygon fill="white" stroke="#666666" points="940,-96 805,-96 805,-66 940,-66 940,-96"/>
<text text-anchor="start" x="813" y="-84" font-family="Helvetica,sans-Serif" font-size="10.00">graphical&#45;client/Graphic</text>
<text text-anchor="middle" x="872.5" y="-73" font-family="Helvetica,sans-Serif" font-size="10.00">Client/GraphicClient.hpp</text>
</a>
</g>
</g>
<!-- Node9&#45;&gt;Node11 -->
<g id="edge10_Node000009_Node000011" class="edge">
<title>Node9&#45;&gt;Node11</title>
<g id="a_edge10_Node000009_Node000011"><a xlink:title=" ">
<path fill="none" stroke="#63b8ff" d="M755.26,-201.89C831.62,-189.66 949.07,-169.75 955.5,-162 976.32,-136.89 936.98,-111.32 905.65,-96.06"/>
<polygon fill="#63b8ff" stroke="#63b8ff" points="754.56,-198.46 745.24,-203.49 755.66,-205.37 754.56,-198.46"/>
</a>
</g>
</g>
<!-- Node14 -->
<g id="Node000014" class="node">
<title>Node14</title>
<g id="a_Node000014"><a xlink:href="System_8hpp.html" target="_top" xlink:title=" ">
<polygon fill="white" stroke="#666666" points="746.5,-162 634.5,-162 634.5,-132 746.5,-132 746.5,-162"/>
<text text-anchor="start" x="642.5" y="-150" font-family="Helvetica,sans-Serif" font-size="10.00">graphical&#45;client/ecs</text>
<text text-anchor="middle" x="690.5" y="-139" font-family="Helvetica,sans-Serif" font-size="10.00">/System.hpp</text>
</a>
</g>
</g>
<!-- Node9&#45;&gt;Node14 -->
<g id="edge13_Node000009_Node000014" class="edge">
<title>Node9&#45;&gt;Node14</title>
<g id="a_edge13_Node000009_Node000014"><a xlink:title=" ">
<path fill="none" stroke="#63b8ff" d="M690.5,-193.35C690.5,-183.47 690.5,-171.51 690.5,-162.36"/>
<polygon fill="#63b8ff" stroke="#63b8ff" points="687,-193.37 690.5,-203.37 694,-193.37 687,-193.37"/>
</a>
</g>
</g>
<!-- Node12 -->
<g id="Node000012" class="node">
<title>Node12</title>
<g id="a_Node000012"><a xlink:href="client_8cpp.html" target="_top" xlink:title=" ">
<polygon fill="white" stroke="#666666" points="868.5,-30 712.5,-30 712.5,0 868.5,0 868.5,-30"/>
<text text-anchor="start" x="720.5" y="-18" font-family="Helvetica,sans-Serif" font-size="10.00">/home/loic/EPITECH</text>
<text text-anchor="middle" x="790.5" y="-7" font-family="Helvetica,sans-Serif" font-size="10.00">/rtype/Mystic&#45;Type/client.cpp</text>
</a>
</g>
</g>
<!-- Node11&#45;&gt;Node12 -->
<g id="edge11_Node000011_Node000012" class="edge">
<title>Node11&#45;&gt;Node12</title>
<g id="a_edge11_Node000011_Node000012"><a xlink:title=" ">
<path fill="none" stroke="#63b8ff" d="M846.21,-59.48C833.95,-49.91 819.68,-38.77 808.65,-30.16"/>
<polygon fill="#63b8ff" stroke="#63b8ff" points="844.26,-62.4 854.3,-65.8 848.57,-56.88 844.26,-62.4"/>
</a>
</g>
</g>
<!-- Node13 -->
<g id="Node000013" class="node">
<title>Node13</title>
<g id="a_Node000013"><a xlink:href="GraphicClient_8cpp.html" target="_top" xlink:title=" ">
<polygon fill="white" stroke="#666666" points="1020.5,-30 886.5,-30 886.5,0 1020.5,0 1020.5,-30"/>
<text text-anchor="start" x="894.5" y="-18" font-family="Helvetica,sans-Serif" font-size="10.00">graphical&#45;client/Graphic</text>
<text text-anchor="middle" x="953.5" y="-7" font-family="Helvetica,sans-Serif" font-size="10.00">Client/GraphicClient.cpp</text>
</a>
</g>
</g>
<!-- Node11&#45;&gt;Node13 -->
<g id="edge12_Node000011_Node000013" class="edge">
<title>Node11&#45;&gt;Node13</title>
<g id="a_edge12_Node000011_Node000013"><a xlink:title=" ">
<path fill="none" stroke="#63b8ff" d="M898.47,-59.48C910.58,-49.91 924.68,-38.77 935.57,-30.16"/>
<polygon fill="#63b8ff" stroke="#63b8ff" points="896.15,-56.85 890.48,-65.8 900.49,-62.34 896.15,-56.85"/>
</a>
</g>
</g>
<!-- Node14&#45;&gt;Node11 -->
<g id="edge14_Node000014_Node000011" class="edge">
<title>Node14&#45;&gt;Node11</title>
<g id="a_edge14_Node000014_Node000011"><a xlink:title=" ">
<path fill="none" stroke="#63b8ff" d="M740.01,-128.59C769.11,-118.36 805.41,-105.59 832.65,-96.01"/>
<polygon fill="#63b8ff" stroke="#63b8ff" points="738.71,-125.34 730.44,-131.95 741.04,-131.94 738.71,-125.34"/>
</a>
</g>
</g>
<!-- Node15&#45;&gt;Node5 -->
<g id="edge17_Node000015_Node000005" class="edge">
<title>Node15&#45;&gt;Node5</title>
<g id="a_edge17_Node000015_Node000005"><a xlink:title=" ">
<path fill="none" stroke="#63b8ff" d="M442.94,-129.39C403.92,-119.03 354.28,-105.84 317.27,-96.01"/>
<polygon fill="#63b8ff" stroke="#63b8ff" points="442.05,-132.77 452.61,-131.95 443.84,-126.01 442.05,-132.77"/>
</a>
</g>
</g>
<!-- Node16 -->
<g id="Node000016" class="node">
<title>Node16</title>
<g id="a_Node000016"><a xlink:href="game_8cpp.html" target="_top" xlink:title=" ">
<polygon fill="white" stroke="#666666" points="685,-96 528,-96 528,-66 685,-66 685,-96"/>
<text text-anchor="start" x="536" y="-84" font-family="Helvetica,sans-Serif" font-size="10.00">/home/loic/EPITECH</text>
<text text-anchor="middle" x="606.5" y="-73" font-family="Helvetica,sans-Serif" font-size="10.00">/rtype/Mystic&#45;Type/game.cpp</text>
</a>
</g>
</g>
<!-- Node15&#45;&gt;Node16 -->
<g id="edge16_Node000015_Node000016" class="edge">
<title>Node15&#45;&gt;Node16</title>
<g id="a_edge16_Node000015_Node000016"><a xlink:title=" ">
<path fill="none" stroke="#63b8ff" d="M536.59,-126.3C551.96,-116.56 570.17,-105.02 584.15,-96.16"/>
<polygon fill="#63b8ff" stroke="#63b8ff" points="534.49,-123.49 527.92,-131.8 538.24,-129.4 534.49,-123.49"/>
</a>
</g>
</g>
<!-- Node17 -->
<g id="Node000017" class="node">
<title>Node17</title>
<g id="a_Node000017"><a xlink:href="UDPGameServer_8cpp.html" target="_top" xlink:title=" ">
<polygon fill="white" stroke="#666666" points="510,-96 365,-96 365,-66 510,-66 510,-96"/>
<text text-anchor="start" x="373" y="-84" font-family="Helvetica,sans-Serif" font-size="10.00">Network/TransportLayer</text>
<text text-anchor="middle" x="437.5" y="-73" font-family="Helvetica,sans-Serif" font-size="10.00">/UDP/UDPGameServer.cpp</text>
</a>
</g>
</g>
<!-- Node15&#45;&gt;Node17 -->
<g id="edge18_Node000015_Node000017" class="edge">
<title>Node15&#45;&gt;Node17</title>
<g id="a_edge18_Node000015_Node000017"><a xlink:title=" ">
<path fill="none" stroke="#63b8ff" d="M483.11,-124.92C473.08,-115.49 461.52,-104.61 452.55,-96.16"/>
<polygon fill="#63b8ff" stroke="#63b8ff" points="480.73,-127.49 490.41,-131.8 485.53,-122.39 480.73,-127.49"/>
</a>
</g>
</g>
<!-- Node19&#45;&gt;Node4 -->
<g id="edge23_Node000019_Node000004" class="edge">
<title>Node19&#45;&gt;Node4</title>
<g id="a_edge23_Node000019_Node000004"><a xlink:title=" ">
<path fill="none" stroke="#63b8ff" d="M371.27,-200.89C329.31,-190.1 265.5,-173.7 220.07,-162.02"/>
<polygon fill="#63b8ff" stroke="#63b8ff" points="370.62,-204.34 381.18,-203.44 372.36,-197.56 370.62,-204.34"/>
</a>
</g>
</g>
<!-- Node19&#45;&gt;Node5 -->
<g id="edge22_Node000019_Node000005" class="edge">
<title>Node19&#45;&gt;Node5</title>
<g id="a_edge22_Node000019_Node000005"><a xlink:title=" ">
<path fill="none" stroke="#63b8ff" d="M370.25,-200.7C335.69,-190.98 291.56,-176.3 279.5,-162 263.83,-143.42 262.44,-113.69 263.22,-96.19"/>
<polygon fill="#63b8ff" stroke="#63b8ff" points="369.6,-204.15 380.17,-203.43 371.46,-197.4 369.6,-204.15"/>
</a>
</g>
</g>
<!-- Node19&#45;&gt;Node15 -->
<g id="edge24_Node000019_Node000015" class="edge">
<title>Node19&#45;&gt;Node15</title>
<g id="a_edge24_Node000019_Node000015"><a xlink:title=" ">
<path fill="none" stroke="#63b8ff" d="M434.95,-197.62C450.03,-187.01 470.44,-172.66 485.43,-162.12"/>
<polygon fill="#63b8ff" stroke="#63b8ff" points="432.94,-194.75 426.77,-203.37 436.97,-200.48 432.94,-194.75"/>
</a>
</g>
</g>
<!-- Node19&#45;&gt;Node16 -->
<g id="edge21_Node000019_Node000016" class="edge">
<title>Node19&#45;&gt;Node16</title>
<g id="a_edge21_Node000019_Node000016"><a xlink:title=" ">
<path fill="none" stroke="#63b8ff" d="M487.46,-207.61C522.2,-201.78 561.69,-189.09 587.5,-162 604.54,-144.12 607.22,-113.87 607.18,-96.14"/>
<polygon fill="#63b8ff" stroke="#63b8ff" points="486.69,-204.19 477.33,-209.14 487.74,-211.11 486.69,-204.19"/>
</a>
</g>
</g>
<!-- Node20 -->
<g id="Node000020" class="node">
<title>Node20</title>
<g id="a_Node000020"><a xlink:href="IpcChannel_8cpp.html" target="_top" xlink:title=" ">
<polygon fill="white" stroke="#666666" points="414,-156.5 289,-156.5 289,-137.5 414,-137.5 414,-156.5"/>
<text text-anchor="middle" x="351.5" y="-144.5" font-family="Helvetica,sans-Serif" font-size="10.00">server/IpcChannel.cpp</text>
</a>
</g>
</g>
<!-- Node19&#45;&gt;Node20 -->
<g id="edge25_Node000019_Node000020" class="edge">
<title>Node19&#45;&gt;Node20</title>
<g id="a_edge25_Node000019_Node000020"><a xlink:title=" ">
<path fill="none" stroke="#63b8ff" d="M398.73,-195.98C386.56,-183.62 370.19,-166.99 360.27,-156.91"/>
<polygon fill="#63b8ff" stroke="#63b8ff" points="396.49,-198.7 406,-203.37 401.48,-193.79 396.49,-198.7"/>
</a>
</g>
</g>
<!-- Node22 -->
<g id="Node000022" class="node">
<title>Node22</title>
<g id="a_Node000022"><a xlink:href="UnixSocket_8cpp.html" target="_top" xlink:title=" ">
<polygon fill="white" stroke="#666666" points="933,-228 800,-228 800,-198 933,-198 933,-228"/>
<text text-anchor="start" x="808" y="-216" font-family="Helvetica,sans-Serif" font-size="10.00">Network/TransportLayer</text>
<text text-anchor="middle" x="866.5" y="-205" font-family="Helvetica,sans-Serif" font-size="10.00">/UNIX/UnixSocket.cpp</text>
</a>
</g>
</g>
<!-- Node21&#45;&gt;Node22 -->
<g id="edge27_Node000021_Node000022" class="edge">
<title>Node21&#45;&gt;Node22</title>
<g id="a_edge27_Node000021_Node000022"><a xlink:title=" ">
<path fill="none" stroke="#63b8ff" d="M758.16,-259.92C782.03,-249.8 811.33,-237.38 833.44,-228.01"/>
<polygon fill="#63b8ff" stroke="#63b8ff" points="756.48,-256.83 748.64,-263.95 759.21,-263.28 756.48,-256.83"/>
</a>
</g>
</g>
</g>
</svg>
