<?xml version="1.0" encoding="UTF-8" standalone="no"?>
<!DOCTYPE svg PUBLIC "-//W3C//DTD SVG 1.1//EN"
 "http://www.w3.org/Graphics/SVG/1.1/DTD/svg11.dtd">
<!-- Generated by graphviz version 2.43.0 (0)
 -->
<!-- Title: server/ChildProcessManager.hpp Pages: 1 -->
<svg width="442pt" height="159pt"
 viewBox="0.00 0.00 442.00 159.00" xmlns="http://www.w3.org/2000/svg" xmlns:xlink="http://www.w3.org/1999/xlink">
<g id="graph0" class="graph" transform="scale(1 1) rotate(0) translate(4 155)">
<title>server/ChildProcessManager.hpp</title>
<!-- Node1 -->
<g id="Node000001" class="node">
<title>Node1</title>
<g id="a_Node000001"><a xlink:title=" ">
<polygon fill="#999999" stroke="#666666" points="262.5,-151 86.5,-151 86.5,-132 262.5,-132 262.5,-151"/>
<text text-anchor="middle" x="174.5" y="-139" font-family="Helvetica,sans-Serif" font-size="10.00">server/ChildProcessManager.hpp</text>
</a>
</g>
</g>
<!-- Node2 -->
<g id="Node000002" class="node">
<title>Node2</title>
<g id="a_Node000002"><a xlink:href="server_8cpp.html" target="_top" xlink:title=" ">
<polygon fill="white" stroke="#666666" points="159,-30 0,-30 0,0 159,0 159,-30"/>
<text text-anchor="start" x="8" y="-18" font-family="Helvetica,sans-Serif" font-size="10.00">/home/loic/EPITECH</text>
<text text-anchor="middle" x="79.5" y="-7" font-family="Helvetica,sans-Serif" font-size="10.00">/rtype/Mystic&#45;Type/server.cpp</text>
</a>
</g>
</g>
<!-- Node1&#45;&gt;Node2 -->
<g id="edge1_Node000001_Node000002" class="edge">
<title>Node1&#45;&gt;Node2</title>
<g id="a_edge1_Node000001_Node000002"><a xlink:title=" ">
<path fill="none" stroke="#63b8ff" d="M141.03,-127.71C126.28,-120.48 109.96,-110.04 99.5,-96 84.88,-76.37 80.87,-47.27 79.81,-30.11"/>
<polygon fill="#63b8ff" stroke="#63b8ff" points="139.86,-131.02 150.41,-131.99 142.77,-124.65 139.86,-131.02"/>
</a>
</g>
</g>
<!-- Node3 -->
<g id="Node000003" class="node">
<title>Node3</title>
<g id="a_Node000003"><a xlink:href="TCPServer_8hpp.html" target="_top" xlink:title=" ">
<polygon fill="white" stroke="#666666" points="241,-96 108,-96 108,-66 241,-66 241,-96"/>
<text text-anchor="start" x="116" y="-84" font-family="Helvetica,sans-Serif" font-size="10.00">Network/TransportLayer</text>
<text text-anchor="middle" x="174.5" y="-73" font-family="Helvetica,sans-Serif" font-size="10.00">/TCP/TCPServer.hpp</text>
</a>
</g>
</g>
<!-- Node1&#45;&gt;Node3 -->
<g id="edge2_Node000001_Node000003" class="edge">
<title>Node1&#45;&gt;Node3</title>
<g id="a_edge2_Node000001_Node000003"><a xlink:title=" ">
<path fill="none" stroke="#63b8ff" d="M174.5,-121.65C174.5,-113.36 174.5,-103.78 174.5,-96.11"/>
<polygon fill="#63b8ff" stroke="#63b8ff" points="171,-121.87 174.5,-131.87 178,-121.87 171,-121.87"/>
</a>
</g>
</g>
<!-- Node5 -->
<g id="Node000005" class="node">
<title>Node5</title>
<g id="a_Node000005"><a xlink:href="ChildProcessManager_8cpp.html" target="_top" xlink:title=" ">
<polygon fill="white" stroke="#666666" points="434,-90.5 259,-90.5 259,-71.5 434,-71.5 434,-90.5"/>
<text text-anchor="middle" x="346.5" y="-78.5" font-family="Helvetica,sans-Serif" font-size="10.00">server/ChildProcessManager.cpp</text>
</a>
</g>
</g>
<!-- Node1&#45;&gt;Node5 -->
<g id="edge5_Node000001_Node000005" class="edge">
<title>Node1&#45;&gt;Node5</title>
<g id="a_edge5_Node000001_Node000005"><a xlink:title=" ">
<path fill="none" stroke="#63b8ff" d="M209.28,-128.67C242.54,-117.36 291.89,-100.57 321.46,-90.52"/>
<polygon fill="#63b8ff" stroke="#63b8ff" points="207.85,-125.46 199.51,-131.99 210.1,-132.09 207.85,-125.46"/>
</a>
</g>
</g>
<!-- Node3&#45;&gt;Node2 -->
<g id="edge3_Node000003_Node000002" class="edge">
<title>Node3&#45;&gt;Node2</title>
<g id="a_edge3_Node000003_Node000002"><a xlink:title=" ">
<path fill="none" stroke="#63b8ff" d="M144.85,-60.03C130.48,-50.34 113.55,-38.94 100.52,-30.16"/>
<polygon fill="#63b8ff" stroke="#63b8ff" points="143.17,-63.11 153.42,-65.8 147.08,-57.31 143.17,-63.11"/>
</a>
</g>
</g>
<!-- Node4 -->
<g id="Node000004" class="node">
<title>Node4</title>
<g id="a_Node000004"><a xlink:href="TCPServer_8cpp.html" target="_top" xlink:title=" ">
<polygon fill="white" stroke="#666666" points="310,-30 177,-30 177,0 310,0 310,-30"/>
<text text-anchor="start" x="185" y="-18" font-family="Helvetica,sans-Serif" font-size="10.00">Network/TransportLayer</text>
<text text-anchor="middle" x="243.5" y="-7" font-family="Helvetica,sans-Serif" font-size="10.00">/TCP/TCPServer.cpp</text>
</a>
</g>
</g>
<!-- Node3&#45;&gt;Node4 -->
<g id="edge4_Node000003_Node000004" class="edge">
<title>Node3&#45;&gt;Node4</title>
<g id="a_edge4_Node000003_Node000004"><a xlink:title=" ">
<path fill="none" stroke="#63b8ff" d="M197.22,-58.92C207.4,-49.49 219.13,-38.61 228.23,-30.16"/>
<polygon fill="#63b8ff" stroke="#63b8ff" points="194.76,-56.43 189.81,-65.8 199.53,-61.56 194.76,-56.43"/>
</a>
</g>
</g>
</g>
</svg>
