<?xml version="1.0" encoding="UTF-8" standalone="no"?>
<!DOCTYPE svg PUBLIC "-//W3C//DTD SVG 1.1//EN"
 "http://www.w3.org/Graphics/SVG/1.1/DTD/svg11.dtd">
<!-- Generated by graphviz version 2.43.0 (0)
 -->
<!-- Title: TCPServer::receivePacket Pages: 1 -->
<svg width="651pt" height="64pt"
 viewBox="0.00 0.00 651.00 64.00" xmlns="http://www.w3.org/2000/svg" xmlns:xlink="http://www.w3.org/1999/xlink">
<g id="graph0" class="graph" transform="scale(1 1) rotate(0) translate(4 60)">
<title>TCPServer::receivePacket</title>
<!-- Node1 -->
<g id="Node000001" class="node">
<title>Node1</title>
<g id="a_Node000001"><a xlink:title="Receive and parse a packet from a client socket.">
<polygon fill="#999999" stroke="#666666" points="140,-37 0,-37 0,-18 140,-18 140,-37"/>
<text text-anchor="middle" x="70" y="-25" font-family="Helvetica,sans-Serif" font-size="10.00">TCPServer::receivePacket</text>
</a>
</g>
</g>
<!-- Node2 -->
<g id="Node000002" class="node">
<title>Node2</title>
<g id="a_Node000002"><a xlink:href="namespaceProtocol.html#ad768525ca5f0324a5f414440e67679b6" target="_top" xlink:title="Append newly read bytes then attempt extraction.">
<polygon fill="white" stroke="#666666" points="313,-56 176,-56 176,-37 313,-37 313,-56"/>
<text text-anchor="middle" x="244.5" y="-44" font-family="Helvetica,sans-Serif" font-size="10.00">Protocol::consumeChunk</text>
</a>
</g>
</g>
<!-- Node1&#45;&gt;Node2 -->
<g id="edge1_Node000001_Node000002" class="edge">
<title>Node1&#45;&gt;Node2</title>
<g id="a_edge1_Node000001_Node000002"><a xlink:title=" ">
<path fill="none" stroke="#63b8ff" d="M140.17,-35.12C148.59,-36.05 157.24,-37 165.77,-37.94"/>
<polygon fill="#63b8ff" stroke="#63b8ff" points="165.4,-41.42 175.72,-39.03 166.16,-34.46 165.4,-41.42"/>
</a>
</g>
</g>
<!-- Node5 -->
<g id="Node000005" class="node">
<title>Node5</title>
<g id="a_Node000005"><a xlink:href="classTCPServer.html#a00011973e407cab03dde7c74a4c65949" target="_top" xlink:title="Read raw bytes from a socket fd.">
<polygon fill="white" stroke="#666666" points="297.5,-19 191.5,-19 191.5,0 297.5,0 297.5,-19"/>
<text text-anchor="middle" x="244.5" y="-7" font-family="Helvetica,sans-Serif" font-size="10.00">TCPServer::readFd</text>
</a>
</g>
</g>
<!-- Node1&#45;&gt;Node5 -->
<g id="edge4_Node000001_Node000005" class="edge">
<title>Node1&#45;&gt;Node5</title>
<g id="a_edge4_Node000001_Node000005"><a xlink:title=" ">
<path fill="none" stroke="#63b8ff" d="M140.17,-20.28C153.76,-18.86 167.95,-17.38 181.3,-15.99"/>
<polygon fill="#63b8ff" stroke="#63b8ff" points="181.73,-19.46 191.32,-14.95 181.01,-12.5 181.73,-19.46"/>
</a>
</g>
</g>
<!-- Node3 -->
<g id="Node000003" class="node">
<title>Node3</title>
<g id="a_Node000003"><a xlink:href="namespaceProtocol.html#a10005c44787f8de2a0e42d395aff8baa" target="_top" xlink:title="Try to extract a complete packet from an accumulated stream buffer.">
<polygon fill="white" stroke="#666666" points="500,-56 349,-56 349,-37 500,-37 500,-56"/>
<text text-anchor="middle" x="424.5" y="-44" font-family="Helvetica,sans-Serif" font-size="10.00">Protocol::extractFromBuffer</text>
</a>
</g>
</g>
<!-- Node2&#45;&gt;Node3 -->
<g id="edge2_Node000002_Node000003" class="edge">
<title>Node2&#45;&gt;Node3</title>
<g id="a_edge2_Node000002_Node000003"><a xlink:title=" ">
<path fill="none" stroke="#63b8ff" d="M313.05,-46.5C321.46,-46.5 330.14,-46.5 338.77,-46.5"/>
<polygon fill="#63b8ff" stroke="#63b8ff" points="338.86,-50 348.86,-46.5 338.86,-43 338.86,-50"/>
</a>
</g>
</g>
<!-- Node4 -->
<g id="Node000004" class="node">
<title>Node4</title>
<g id="a_Node000004"><a xlink:href="classPacket.html#abfcd427a2ca434ac71592334517638fb" target="_top" xlink:title="Deserialize a packet from a raw byte buffer.">
<polygon fill="white" stroke="#666666" points="643,-56 536,-56 536,-37 643,-37 643,-56"/>
<text text-anchor="middle" x="589.5" y="-44" font-family="Helvetica,sans-Serif" font-size="10.00">Packet::deserialize</text>
</a>
</g>
</g>
<!-- Node3&#45;&gt;Node4 -->
<g id="edge3_Node000003_Node000004" class="edge">
<title>Node3&#45;&gt;Node4</title>
<g id="a_edge3_Node000003_Node000004"><a xlink:title=" ">
<path fill="none" stroke="#63b8ff" d="M500.32,-46.5C508.68,-46.5 517.13,-46.5 525.32,-46.5"/>
<polygon fill="#63b8ff" stroke="#63b8ff" points="525.53,-50 535.53,-46.5 525.53,-43 525.53,-50"/>
</a>
</g>
</g>
</g>
</svg>
