<?xml version="1.0" encoding="UTF-8" standalone="no"?>
<!DOCTYPE svg PUBLIC "-//W3C//DTD SVG 1.1//EN"
 "http://www.w3.org/Graphics/SVG/1.1/DTD/svg11.dtd">
<!-- Generated by graphviz version 2.43.0 (0)
 -->
<!-- Title: UDPGameServer::UDPGameServer Pages: 1 -->
<svg width="574pt" height="150pt"
 viewBox="0.00 0.00 574.00 149.50" xmlns="http://www.w3.org/2000/svg" xmlns:xlink="http://www.w3.org/1999/xlink">
<g id="graph0" class="graph" transform="scale(1 1) rotate(0) translate(4 145.5)">
<title>UDPGameServer::UDPGameServer</title>
<!-- Node1 -->
<g id="Node000001" class="node">
<title>Node1</title>
<g id="a_Node000001"><a xlink:title=" ">
<polygon fill="#999999" stroke="#666666" points="186,-74 0,-74 0,-55 186,-55 186,-74"/>
<text text-anchor="middle" x="93" y="-62" font-family="Helvetica,sans-Serif" font-size="10.00">UDPGameServer::UDPGameServer</text>
</a>
</g>
</g>
<!-- Node2 -->
<g id="Node000002" class="node">
<title>Node2</title>
<g id="a_Node000002"><a xlink:href="classNetwork_1_1TransportLayer_1_1UDPSocket.html#a4972fa36f907bdcdae38d7d551f34e8b" target="_top" xlink:title="Bind the UDP socket to a port/address.">
<polygon fill="white" stroke="#666666" points="376,-141.5 240,-141.5 240,-111.5 376,-111.5 376,-141.5"/>
<text text-anchor="start" x="248" y="-129.5" font-family="Helvetica,sans-Serif" font-size="10.00">Network::TransportLayer</text>
<text text-anchor="middle" x="308" y="-118.5" font-family="Helvetica,sans-Serif" font-size="10.00">::UDPSocket::bindTo</text>
</a>
</g>
</g>
<!-- Node1&#45;&gt;Node2 -->
<g id="edge1_Node000001_Node000002" class="edge">
<title>Node1&#45;&gt;Node2</title>
<g id="a_edge1_Node000001_Node000002"><a xlink:title=" ">
<path fill="none" stroke="#63b8ff" d="M125.79,-74.07C151.67,-81.82 189.16,-92.99 222,-102.5 228.89,-104.49 236.09,-106.56 243.27,-108.61"/>
<polygon fill="#63b8ff" stroke="#63b8ff" points="242.43,-112.01 253.01,-111.37 244.35,-105.27 242.43,-112.01"/>
</a>
</g>
</g>
<!-- Node4 -->
<g id="Node000004" class="node">
<title>Node4</title>
<g id="a_Node000004"><a xlink:href="classUDPGameServer.html#ae610b7c128c3b70e06f3fc1b5a3ecdc5" target="_top" xlink:title=" ">
<polygon fill="white" stroke="#666666" points="381.5,-93 234.5,-93 234.5,-74 381.5,-74 381.5,-93"/>
<text text-anchor="middle" x="308" y="-81" font-family="Helvetica,sans-Serif" font-size="10.00">UDPGameServer::logPrefix</text>
</a>
</g>
</g>
<!-- Node1&#45;&gt;Node4 -->
<g id="edge3_Node000001_Node000004" class="edge">
<title>Node1&#45;&gt;Node4</title>
<g id="a_edge3_Node000001_Node000004"><a xlink:title=" ">
<path fill="none" stroke="#63b8ff" d="M186.19,-72.72C198.75,-73.84 211.58,-74.99 223.96,-76.09"/>
<polygon fill="#63b8ff" stroke="#63b8ff" points="223.98,-79.61 234.25,-77.01 224.6,-72.64 223.98,-79.61"/>
</a>
</g>
</g>
<!-- Node5 -->
<g id="Node000005" class="node">
<title>Node5</title>
<g id="a_Node000005"><a xlink:href="classGameWorld.html#a163fb2fed54650ebba995df1e64c39db" target="_top" xlink:title="Prefix used in log output.">
<polygon fill="white" stroke="#666666" points="378,-56 238,-56 238,-37 378,-37 378,-56"/>
<text text-anchor="middle" x="308" y="-44" font-family="Helvetica,sans-Serif" font-size="10.00">GameWorld::setLogPrefix</text>
</a>
</g>
</g>
<!-- Node1&#45;&gt;Node5 -->
<g id="edge4_Node000001_Node000005" class="edge">
<title>Node1&#45;&gt;Node5</title>
<g id="a_edge4_Node000001_Node000005"><a xlink:title=" ">
<path fill="none" stroke="#63b8ff" d="M186.19,-56.71C199.98,-55.54 214.11,-54.35 227.61,-53.21"/>
<polygon fill="#63b8ff" stroke="#63b8ff" points="228.13,-56.68 237.8,-52.35 227.54,-49.7 228.13,-56.68"/>
</a>
</g>
</g>
<!-- Node6 -->
<g id="Node000006" class="node">
<title>Node6</title>
<g id="a_Node000006"><a xlink:href="classSessionManager.html#aa54fb04918bcd7d31bcdfe2ce2ee6545" target="_top" xlink:title="Set callback invoked when a session is removed.">
<polygon fill="white" stroke="#666666" points="394,-19 222,-19 222,0 394,0 394,-19"/>
<text text-anchor="middle" x="308" y="-7" font-family="Helvetica,sans-Serif" font-size="10.00">SessionManager::setOnRemove</text>
</a>
</g>
</g>
<!-- Node1&#45;&gt;Node6 -->
<g id="edge5_Node000001_Node000006" class="edge">
<title>Node1&#45;&gt;Node6</title>
<g id="a_edge5_Node000001_Node000006"><a xlink:title=" ">
<path fill="none" stroke="#63b8ff" d="M125.96,-54.99C151.78,-47.44 189.1,-36.8 222,-28.5 231.79,-26.03 242.25,-23.56 252.37,-21.25"/>
<polygon fill="#63b8ff" stroke="#63b8ff" points="253.35,-24.62 262.34,-19.01 251.81,-17.79 253.35,-24.62"/>
</a>
</g>
</g>
<!-- Node3 -->
<g id="Node000003" class="node">
<title>Node3</title>
<g id="a_Node000003"><a xlink:href="classNetwork_1_1TransportLayer_1_1ASocket.html#a65fa2f6ba45358b7a7776d14b0111756" target="_top" xlink:title="Bind the socket to a specific address and port.">
<polygon fill="white" stroke="#666666" points="566,-141.5 430,-141.5 430,-111.5 566,-111.5 566,-141.5"/>
<text text-anchor="start" x="438" y="-129.5" font-family="Helvetica,sans-Serif" font-size="10.00">Network::TransportLayer</text>
<text text-anchor="middle" x="498" y="-118.5" font-family="Helvetica,sans-Serif" font-size="10.00">::ASocket::bindSock</text>
</a>
</g>
</g>
<!-- Node2&#45;&gt;Node3 -->
<g id="edge2_Node000002_Node000003" class="edge">
<title>Node2&#45;&gt;Node3</title>
<g id="a_edge2_Node000002_Node000003"><a xlink:title=" ">
<path fill="none" stroke="#63b8ff" d="M376.08,-126.5C390.16,-126.5 405.13,-126.5 419.56,-126.5"/>
<polygon fill="#63b8ff" stroke="#63b8ff" points="419.95,-130 429.95,-126.5 419.95,-123 419.95,-130"/>
</a>
</g>
</g>
</g>
</svg>
