<?xml version="1.0" encoding="UTF-8" standalone="no"?>
<!DOCTYPE svg PUBLIC "-//W3C//DTD SVG 1.1//EN"
 "http://www.w3.org/Graphics/SVG/1.1/DTD/svg11.dtd">
<!-- Generated by graphviz version 2.43.0 (0)
 -->
<!-- Title: RectangleRenderSystem::update Pages: 1 -->
<svg width="510pt" height="64pt"
 viewBox="0.00 0.00 510.00 64.00" xmlns="http://www.w3.org/2000/svg" xmlns:xlink="http://www.w3.org/1999/xlink">
<g id="graph0" class="graph" transform="scale(1 1) rotate(0) translate(4 60)">
<title>RectangleRenderSystem::update</title>
<!-- Node1 -->
<g id="Node000001" class="node">
<title>Node1</title>
<g id="a_Node000001"><a xlink:title="Renders a rectangle entity to the screen.">
<polygon fill="#999999" stroke="#666666" points="137,-42.5 0,-42.5 0,-12.5 137,-12.5 137,-42.5"/>
<text text-anchor="start" x="8" y="-30.5" font-family="Helvetica,sans-Serif" font-size="10.00">RectangleRenderSystem</text>
<text text-anchor="middle" x="68.5" y="-19.5" font-family="Helvetica,sans-Serif" font-size="10.00">::update</text>
</a>
</g>
</g>
<!-- Node2 -->
<g id="Node000002" class="node">
<title>Node2</title>
<g id="a_Node000002"><a xlink:href="classECS.html#ab25123ea5b19ee74c4e120eb6d808a48" target="_top" xlink:title="Retrieves a component from an entity.">
<polygon fill="white" stroke="#666666" points="294.5,-56 181.5,-56 181.5,-37 294.5,-37 294.5,-56"/>
<text text-anchor="middle" x="238" y="-44" font-family="Helvetica,sans-Serif" font-size="10.00">ECS::getComponent</text>
</a>
</g>
</g>
<!-- Node1&#45;&gt;Node2 -->
<g id="edge1_Node000001_Node000002" class="edge">
<title>Node1&#45;&gt;Node2</title>
<g id="a_edge1_Node000001_Node000002"><a xlink:title=" ">
<path fill="none" stroke="#63b8ff" d="M137.15,-35.17C148.41,-36.45 160.07,-37.77 171.29,-39.05"/>
<polygon fill="#63b8ff" stroke="#63b8ff" points="171.1,-42.55 181.43,-40.2 171.89,-35.59 171.1,-42.55"/>
</a>
</g>
</g>
<!-- Node4 -->
<g id="Node000004" class="node">
<title>Node4</title>
<g id="a_Node000004"><a xlink:href="classRaylib_1_1Draw.html#ac711ababd202454476d1127d61f8a837" target="_top" xlink:title="Draws a filled rectangle.">
<polygon fill="white" stroke="#666666" points="303,-19 173,-19 173,0 303,0 303,-19"/>
<text text-anchor="middle" x="238" y="-7" font-family="Helvetica,sans-Serif" font-size="10.00">Raylib::Draw::rectangle</text>
</a>
</g>
</g>
<!-- Node1&#45;&gt;Node4 -->
<g id="edge3_Node000001_Node000004" class="edge">
<title>Node1&#45;&gt;Node4</title>
<g id="a_edge3_Node000001_Node000004"><a xlink:title=" ">
<path fill="none" stroke="#63b8ff" d="M137.15,-20.23C145.63,-19.32 154.34,-18.38 162.92,-17.46"/>
<polygon fill="#63b8ff" stroke="#63b8ff" points="163.33,-20.94 172.9,-16.39 162.58,-13.98 163.33,-20.94"/>
</a>
</g>
</g>
<!-- Node3 -->
<g id="Node000003" class="node">
<title>Node3</title>
<g id="a_Node000003"><a xlink:href="classECS.html#aacd3f4c4db77a1e5ff41711297ec6602" target="_top" xlink:title="Gets the type index for a component type.">
<polygon fill="white" stroke="#666666" points="502,-56 339,-56 339,-37 502,-37 502,-56"/>
<text text-anchor="middle" x="420.5" y="-44" font-family="Helvetica,sans-Serif" font-size="10.00">ECS::getComponentTypeIndex</text>
</a>
</g>
</g>
<!-- Node2&#45;&gt;Node3 -->
<g id="edge2_Node000002_Node000003" class="edge">
<title>Node2&#45;&gt;Node3</title>
<g id="a_edge2_Node000002_Node000003"><a xlink:title=" ">
<path fill="none" stroke="#63b8ff" d="M294.63,-46.5C305.44,-46.5 317.04,-46.5 328.65,-46.5"/>
<polygon fill="#63b8ff" stroke="#63b8ff" points="328.84,-50 338.84,-46.5 328.84,-43 328.84,-50"/>
</a>
</g>
</g>
</g>
</svg>
