<?xml version="1.0" encoding="UTF-8" standalone="no"?>
<!DOCTYPE svg PUBLIC "-//W3C//DTD SVG 1.1//EN"
 "http://www.w3.org/Graphics/SVG/1.1/DTD/svg11.dtd">
<!-- Generated by graphviz version 2.43.0 (0)
 -->
<!-- Title: GraphicClient::render Pages: 1 -->
<svg width="778pt" height="543pt"
 viewBox="0.00 0.00 778.00 542.50" xmlns="http://www.w3.org/2000/svg" xmlns:xlink="http://www.w3.org/1999/xlink">
<g id="graph0" class="graph" transform="scale(1 1) rotate(0) translate(4 538.5)">
<title>GraphicClient::render</title>
<!-- Node1 -->
<g id="Node000001" class="node">
<title>Node1</title>
<g id="a_Node000001"><a xlink:title="Renders the entire game scene.">
<polygon fill="#999999" stroke="#666666" points="120,-293.5 0,-293.5 0,-274.5 120,-274.5 120,-293.5"/>
<text text-anchor="middle" x="60" y="-281.5" font-family="Helvetica,sans-Serif" font-size="10.00">GraphicClient::render</text>
</a>
</g>
</g>
<!-- Node2 -->
<g id="Node000002" class="node">
<title>Node2</title>
<g id="a_Node000002"><a xlink:href="classRaylib_1_1Window.html#a0d93c896921575743b097baa6d66a6b4" target="_top" xlink:title="Begins drawing frame.">
<polygon fill="white" stroke="#666666" points="338.5,-534.5 173.5,-534.5 173.5,-515.5 338.5,-515.5 338.5,-534.5"/>
<text text-anchor="middle" x="256" y="-522.5" font-family="Helvetica,sans-Serif" font-size="10.00">Raylib::Window::beginDrawing</text>
</a>
</g>
</g>
<!-- Node1&#45;&gt;Node2 -->
<g id="edge1_Node000001_Node000002" class="edge">
<title>Node1&#45;&gt;Node2</title>
<g id="a_edge1_Node000001_Node000002"><a xlink:title=" ">
<path fill="none" stroke="#63b8ff" d="M61.97,-293.98C66,-329.41 84.65,-450.01 156,-507 158.59,-509.07 161.35,-510.93 164.22,-512.61"/>
<polygon fill="#63b8ff" stroke="#63b8ff" points="162.67,-515.75 173.18,-517.08 165.8,-509.48 162.67,-515.75"/>
</a>
</g>
</g>
<!-- Node3 -->
<g id="Node000003" class="node">
<title>Node3</title>
<g id="a_Node000003"><a xlink:href="classGraphicClient.html#ab72f007713bd3d5074c566a425c0d9b1" target="_top" xlink:title="Draws the game area background with animations.">
<polygon fill="white" stroke="#666666" points="356,-497.5 156,-497.5 156,-478.5 356,-478.5 356,-497.5"/>
<text text-anchor="middle" x="256" y="-485.5" font-family="Helvetica,sans-Serif" font-size="10.00">GraphicClient::drawGameBackground</text>
</a>
</g>
</g>
<!-- Node1&#45;&gt;Node3 -->
<g id="edge2_Node000001_Node000003" class="edge">
<title>Node1&#45;&gt;Node3</title>
<g id="a_edge2_Node000001_Node000003"><a xlink:title=" ">
<path fill="none" stroke="#63b8ff" d="M62.8,-293.64C69.18,-324.84 93.72,-423.71 156,-470 157.82,-471.35 159.72,-472.62 161.67,-473.8"/>
<polygon fill="#63b8ff" stroke="#63b8ff" points="160.07,-476.91 170.56,-478.43 163.31,-470.71 160.07,-476.91"/>
</a>
</g>
</g>
<!-- Node6 -->
<g id="Node000006" class="node">
<title>Node6</title>
<g id="a_Node000006"><a xlink:href="classRaylib_1_1Window.html#a9692f845607bfbb28fb4e889ea0d3b37" target="_top" xlink:title="Ends drawing frame and displays it.">
<polygon fill="white" stroke="#666666" points="334,-460.5 178,-460.5 178,-441.5 334,-441.5 334,-460.5"/>
<text text-anchor="middle" x="256" y="-448.5" font-family="Helvetica,sans-Serif" font-size="10.00">Raylib::Window::endDrawing</text>
</a>
</g>
</g>
<!-- Node1&#45;&gt;Node6 -->
<g id="edge5_Node000001_Node000006" class="edge">
<title>Node1&#45;&gt;Node6</title>
<g id="a_edge5_Node000001_Node000006"><a xlink:title=" ">
<path fill="none" stroke="#63b8ff" d="M64.05,-293.61C73.14,-320.56 102.78,-397.25 156,-433 159.86,-435.59 163.98,-437.84 168.27,-439.78"/>
<polygon fill="#63b8ff" stroke="#63b8ff" points="167.32,-443.17 177.91,-443.58 169.89,-436.66 167.32,-443.17"/>
</a>
</g>
</g>
<!-- Node7 -->
<g id="Node000007" class="node">
<title>Node7</title>
<g id="a_Node000007"><a xlink:href="classNetworkClient.html#a9f92ea1a77f00b2867ebc37b6581d507" target="_top" xlink:title="Get current lobby code.">
<polygon fill="white" stroke="#666666" points="337,-423.5 175,-423.5 175,-404.5 337,-404.5 337,-423.5"/>
<text text-anchor="middle" x="256" y="-411.5" font-family="Helvetica,sans-Serif" font-size="10.00">NetworkClient::getLobbyCode</text>
</a>
</g>
</g>
<!-- Node1&#45;&gt;Node7 -->
<g id="edge6_Node000001_Node000007" class="edge">
<title>Node1&#45;&gt;Node7</title>
<g id="a_edge6_Node000001_Node000007"><a xlink:title=" ">
<path fill="none" stroke="#63b8ff" d="M66.12,-293.74C78.36,-315.94 111.62,-370.38 156,-396 159.04,-397.76 162.22,-399.35 165.49,-400.79"/>
<polygon fill="#63b8ff" stroke="#63b8ff" points="164.32,-404.09 174.91,-404.47 166.87,-397.57 164.32,-404.09"/>
</a>
</g>
</g>
<!-- Node8 -->
<g id="Node000008" class="node">
<title>Node8</title>
<g id="a_Node000008"><a xlink:href="classNetworkClient.html#a3a848ca2af9ba2a3008e33ecc39a3622" target="_top" xlink:title="Get server&#45;assigned player id.">
<polygon fill="white" stroke="#666666" points="330,-386.5 182,-386.5 182,-367.5 330,-367.5 330,-386.5"/>
<text text-anchor="middle" x="256" y="-374.5" font-family="Helvetica,sans-Serif" font-size="10.00">NetworkClient::getPlayerId</text>
</a>
</g>
</g>
<!-- Node1&#45;&gt;Node8 -->
<g id="edge7_Node000001_Node000008" class="edge">
<title>Node1&#45;&gt;Node8</title>
<g id="a_edge7_Node000001_Node000008"><a xlink:title=" ">
<path fill="none" stroke="#63b8ff" d="M69.93,-293.62C85.64,-309.92 119.99,-342.74 156,-359 161.08,-361.29 166.42,-363.29 171.89,-365.04"/>
<polygon fill="#63b8ff" stroke="#63b8ff" points="171.26,-368.5 181.84,-367.91 173.21,-361.77 171.26,-368.5"/>
</a>
</g>
</g>
<!-- Node9 -->
<g id="Node000009" class="node">
<title>Node9</title>
<g id="a_Node000009"><a xlink:href="classNetworkClient.html#a9b4492241691163874e561440a379c3e" target="_top" xlink:title="Estimated snapshot loss percentage.">
<polygon fill="white" stroke="#666666" points="338,-349.5 174,-349.5 174,-330.5 338,-330.5 338,-349.5"/>
<text text-anchor="middle" x="256" y="-337.5" font-family="Helvetica,sans-Serif" font-size="10.00">NetworkClient::getUdpLossPct</text>
</a>
</g>
</g>
<!-- Node1&#45;&gt;Node9 -->
<g id="edge8_Node000001_Node000009" class="edge">
<title>Node1&#45;&gt;Node9</title>
<g id="a_edge8_Node000001_Node000009"><a xlink:title=" ">
<path fill="none" stroke="#63b8ff" d="M81.34,-293.52C100.3,-302.06 129.54,-314.39 156,-322 164.29,-324.39 173.07,-326.52 181.84,-328.42"/>
<polygon fill="#63b8ff" stroke="#63b8ff" points="181.21,-331.86 191.71,-330.45 182.63,-325 181.21,-331.86"/>
</a>
</g>
</g>
<!-- Node10 -->
<g id="Node000010" class="node">
<title>Node10</title>
<g id="a_Node000010"><a xlink:href="classNetworkClient.html#aa2de4fb4f6154441c96a7620ae3fb982" target="_top" xlink:title="Last measured UDP RTT in ms.">
<polygon fill="white" stroke="#666666" points="337.5,-312.5 174.5,-312.5 174.5,-293.5 337.5,-293.5 337.5,-312.5"/>
<text text-anchor="middle" x="256" y="-300.5" font-family="Helvetica,sans-Serif" font-size="10.00">NetworkClient::getUdpPingMs</text>
</a>
</g>
</g>
<!-- Node1&#45;&gt;Node10 -->
<g id="edge9_Node000001_Node000010" class="edge">
<title>Node1&#45;&gt;Node10</title>
<g id="a_edge9_Node000001_Node000010"><a xlink:title=" ">
<path fill="none" stroke="#63b8ff" d="M120.26,-289.8C134.11,-291.16 149.18,-292.64 164.06,-294.09"/>
<polygon fill="#63b8ff" stroke="#63b8ff" points="164.02,-297.61 174.31,-295.1 164.7,-290.64 164.02,-297.61"/>
</a>
</g>
</g>
<!-- Node11 -->
<g id="Node000011" class="node">
<title>Node11</title>
<g id="a_Node000011"><a xlink:href="classNetworkClient.html#a14ed76e74eea78d36e9009129f641f79" target="_top" xlink:title="Get current UDP receive rate in Kbps.">
<polygon fill="white" stroke="#666666" points="338,-275.5 174,-275.5 174,-256.5 338,-256.5 338,-275.5"/>
<text text-anchor="middle" x="256" y="-263.5" font-family="Helvetica,sans-Serif" font-size="10.00">NetworkClient::getUdpRxKbps</text>
</a>
</g>
</g>
<!-- Node1&#45;&gt;Node11 -->
<g id="edge10_Node000001_Node000011" class="edge">
<title>Node1&#45;&gt;Node11</title>
<g id="a_edge10_Node000001_Node000011"><a xlink:title=" ">
<path fill="none" stroke="#63b8ff" d="M120.26,-278.5C134.02,-277.22 148.98,-275.84 163.77,-274.46"/>
<polygon fill="#63b8ff" stroke="#63b8ff" points="164.32,-277.93 173.96,-273.52 163.68,-270.96 164.32,-277.93"/>
</a>
</g>
</g>
<!-- Node14 -->
<g id="Node000014" class="node">
<title>Node14</title>
<g id="a_Node000014"><a xlink:href="classNetworkClient.html#ad5c06bb19f3f5959f30bc383d89cb6e4" target="_top" xlink:title="Get current UDP transmit rate in Kbps.">
<polygon fill="white" stroke="#666666" points="338,-238.5 174,-238.5 174,-219.5 338,-219.5 338,-238.5"/>
<text text-anchor="middle" x="256" y="-226.5" font-family="Helvetica,sans-Serif" font-size="10.00">NetworkClient::getUdpTxKbps</text>
</a>
</g>
</g>
<!-- Node1&#45;&gt;Node14 -->
<g id="edge13_Node000001_Node000014" class="edge">
<title>Node1&#45;&gt;Node14</title>
<g id="a_edge13_Node000001_Node000014"><a xlink:title=" ">
<path fill="none" stroke="#63b8ff" d="M82.9,-274.46C101.93,-266.48 130.37,-255.26 156,-248 165.66,-245.26 175.97,-242.8 186.14,-240.62"/>
<polygon fill="#63b8ff" stroke="#63b8ff" points="187.15,-243.99 196.24,-238.54 185.74,-237.13 187.15,-243.99"/>
</a>
</g>
</g>
<!-- Node15 -->
<g id="Node000015" class="node">
<title>Node15</title>
<g id="a_Node000015"><a xlink:href="classGameState.html#adbedaec4367fbf2705065e66a8909ce5" target="_top" xlink:title="Return a snapshot list of current players.">
<polygon fill="white" stroke="#666666" points="320,-201.5 192,-201.5 192,-182.5 320,-182.5 320,-201.5"/>
<text text-anchor="middle" x="256" y="-189.5" font-family="Helvetica,sans-Serif" font-size="10.00">GameState::listPlayers</text>
</a>
</g>
</g>
<!-- Node1&#45;&gt;Node15 -->
<g id="edge16_Node000001_Node000015" class="edge">
<title>Node1&#45;&gt;Node15</title>
<g id="a_edge16_Node000001_Node000015"><a xlink:title=" ">
<path fill="none" stroke="#63b8ff" d="M70.25,-274.42C86.18,-258.55 120.52,-226.95 156,-211 164.21,-207.31 173.11,-204.34 182.1,-201.94"/>
<polygon fill="#63b8ff" stroke="#63b8ff" points="182.97,-205.33 191.85,-199.56 181.31,-198.53 182.97,-205.33"/>
</a>
</g>
</g>
<!-- Node16 -->
<g id="Node000016" class="node">
<title>Node16</title>
<g id="a_Node000016"><a xlink:href="classSpriteRenderSystem.html#aaaf180675dc11ac4aab058fb44ab762a" target="_top" xlink:title="Sets the sprite scaling factors.">
<polygon fill="white" stroke="#666666" points="314,-164 198,-164 198,-134 314,-134 314,-164"/>
<text text-anchor="start" x="206" y="-152" font-family="Helvetica,sans-Serif" font-size="10.00">SpriteRenderSystem</text>
<text text-anchor="middle" x="256" y="-141" font-family="Helvetica,sans-Serif" font-size="10.00">::setScale</text>
</a>
</g>
</g>
<!-- Node1&#45;&gt;Node16 -->
<g id="edge17_Node000001_Node000016" class="edge">
<title>Node1&#45;&gt;Node16</title>
<g id="a_edge17_Node000001_Node000016"><a xlink:title=" ">
<path fill="none" stroke="#63b8ff" d="M66.48,-274.32C79.23,-252.73 113.05,-200.5 156,-174 165.74,-167.99 176.87,-163.42 188.06,-159.95"/>
<polygon fill="#63b8ff" stroke="#63b8ff" points="189.22,-163.26 197.88,-157.17 187.31,-156.52 189.22,-163.26"/>
</a>
</g>
</g>
<!-- Node17 -->
<g id="Node000017" class="node">
<title>Node17</title>
<g id="a_Node000017"><a xlink:href="classRaylib_1_1Draw.html#adf84c6a40cd571fbbdeacf2868ab192e" target="_top" xlink:title="Draws text on screen.">
<polygon fill="white" stroke="#666666" points="308,-115.5 204,-115.5 204,-96.5 308,-96.5 308,-115.5"/>
<text text-anchor="middle" x="256" y="-103.5" font-family="Helvetica,sans-Serif" font-size="10.00">Raylib::Draw::text</text>
</a>
</g>
</g>
<!-- Node1&#45;&gt;Node17 -->
<g id="edge18_Node000001_Node000017" class="edge">
<title>Node1&#45;&gt;Node17</title>
<g id="a_edge18_Node000001_Node000017"><a xlink:title=" ">
<path fill="none" stroke="#63b8ff" d="M63.74,-274.2C72.2,-245.91 100.69,-163.74 156,-125 167.08,-117.24 180.5,-112.43 193.83,-109.51"/>
<polygon fill="#63b8ff" stroke="#63b8ff" points="194.77,-112.89 203.96,-107.61 193.49,-106.01 194.77,-112.89"/>
</a>
</g>
</g>
<!-- Node18 -->
<g id="Node000018" class="node">
<title>Node18</title>
<g id="a_Node000018"><a xlink:href="classRectangleRenderSystem.html#a92f6643f7bbedda7d15c6ea55f7407d1" target="_top" xlink:title="Renders a rectangle entity to the screen.">
<polygon fill="white" stroke="#666666" points="324.5,-30 187.5,-30 187.5,0 324.5,0 324.5,-30"/>
<text text-anchor="start" x="195.5" y="-18" font-family="Helvetica,sans-Serif" font-size="10.00">RectangleRenderSystem</text>
<text text-anchor="middle" x="256" y="-7" font-family="Helvetica,sans-Serif" font-size="10.00">::update</text>
</a>
</g>
</g>
<!-- Node1&#45;&gt;Node18 -->
<g id="edge19_Node000001_Node000018" class="edge">
<title>Node1&#45;&gt;Node18</title>
<g id="a_edge19_Node000001_Node000018"><a xlink:title=" ">
<path fill="none" stroke="#63b8ff" d="M61.67,-274.25C64.75,-237.33 80.85,-104.83 156,-39 162.41,-33.39 169.91,-29.04 177.86,-25.67"/>
<polygon fill="#63b8ff" stroke="#63b8ff" points="179.2,-28.91 187.37,-22.16 176.78,-22.34 179.2,-28.91"/>
</a>
</g>
</g>
<!-- Node22 -->
<g id="Node000022" class="node">
<title>Node22</title>
<g id="a_Node000022"><a xlink:href="classSpriteRenderSystem.html#a439243229880829d70b83b895b500495" target="_top" xlink:title="Updates and renders an animated sprite entity.">
<polygon fill="white" stroke="#666666" points="314,-78 198,-78 198,-48 314,-48 314,-78"/>
<text text-anchor="start" x="206" y="-66" font-family="Helvetica,sans-Serif" font-size="10.00">SpriteRenderSystem</text>
<text text-anchor="middle" x="256" y="-55" font-family="Helvetica,sans-Serif" font-size="10.00">::update</text>
</a>
</g>
</g>
<!-- Node1&#45;&gt;Node22 -->
<g id="edge23_Node000001_Node000022" class="edge">
<title>Node1&#45;&gt;Node22</title>
<g id="a_edge23_Node000001_Node000022"><a xlink:title=" ">
<path fill="none" stroke="#63b8ff" d="M62.68,-274.48C68.8,-242.69 92.96,-139.34 156,-88 165.29,-80.44 176.57,-75.12 188.15,-71.4"/>
<polygon fill="#63b8ff" stroke="#63b8ff" points="189.24,-74.73 197.91,-68.63 187.33,-67.99 189.24,-74.73"/>
</a>
</g>
</g>
<!-- Node4 -->
<g id="Node000004" class="node">
<title>Node4</title>
<g id="a_Node000004"><a xlink:href="classRaylib_1_1Window.html#ab5db70ee0a095180020beaa8f134247d" target="_top" xlink:title="Clears background with specified color.">
<polygon fill="white" stroke="#666666" points="571,-515.5 392,-515.5 392,-496.5 571,-496.5 571,-515.5"/>
<text text-anchor="middle" x="481.5" y="-503.5" font-family="Helvetica,sans-Serif" font-size="10.00">Raylib::Window::clearBackground</text>
</a>
</g>
</g>
<!-- Node3&#45;&gt;Node4 -->
<g id="edge3_Node000003_Node000004" class="edge">
<title>Node3&#45;&gt;Node4</title>
<g id="a_edge3_Node000003_Node000004"><a xlink:title=" ">
<path fill="none" stroke="#63b8ff" d="M356.01,-495.97C364.57,-496.66 373.23,-497.36 381.79,-498.05"/>
<polygon fill="#63b8ff" stroke="#63b8ff" points="381.52,-501.54 391.77,-498.85 382.09,-494.56 381.52,-501.54"/>
</a>
</g>
</g>
<!-- Node5 -->
<g id="Node000005" class="node">
<title>Node5</title>
<g id="a_Node000005"><a xlink:href="classRaylib_1_1Draw.html#a1a91623bcea0592d00ae0264d81acd52" target="_top" xlink:title="Draws a rectangle outline.">
<polygon fill="white" stroke="#666666" points="559,-478.5 404,-478.5 404,-459.5 559,-459.5 559,-478.5"/>
<text text-anchor="middle" x="481.5" y="-466.5" font-family="Helvetica,sans-Serif" font-size="10.00">Raylib::Draw::rectangleLines</text>
</a>
</g>
</g>
<!-- Node3&#45;&gt;Node5 -->
<g id="edge4_Node000003_Node000005" class="edge">
<title>Node3&#45;&gt;Node5</title>
<g id="a_edge4_Node000003_Node000005"><a xlink:title=" ">
<path fill="none" stroke="#63b8ff" d="M356.01,-479.58C368.5,-478.52 381.22,-477.44 393.51,-476.4"/>
<polygon fill="#63b8ff" stroke="#63b8ff" points="394.05,-479.86 403.72,-475.53 393.46,-472.89 394.05,-479.86"/>
</a>
</g>
</g>
<!-- Node12 -->
<g id="Node000012" class="node">
<title>Node12</title>
<g id="a_Node000012"><a xlink:href="classNetworkClient.html#aaf60f1216a17b46ad12539625a1022c2" target="_top" xlink:title=" ">
<polygon fill="white" stroke="#666666" points="545,-278.5 418,-278.5 418,-259.5 545,-259.5 545,-278.5"/>
<text text-anchor="middle" x="481.5" y="-266.5" font-family="Helvetica,sans-Serif" font-size="10.00">NetworkClient::nowMs</text>
</a>
</g>
</g>
<!-- Node11&#45;&gt;Node12 -->
<g id="edge11_Node000011_Node000012" class="edge">
<title>Node11&#45;&gt;Node12</title>
<g id="a_edge11_Node000011_Node000012"><a xlink:title=" ">
<path fill="none" stroke="#63b8ff" d="M338,-267.09C360.86,-267.39 385.58,-267.73 407.91,-268.03"/>
<polygon fill="#63b8ff" stroke="#63b8ff" points="407.94,-271.53 417.99,-268.16 408.04,-264.53 407.94,-271.53"/>
</a>
</g>
</g>
<!-- Node13 -->
<g id="Node000013" class="node">
<title>Node13</title>
<g id="a_Node000013"><a xlink:href="classNetworkClient.html#a36892dcdc8c2523b27947a347ea16022" target="_top" xlink:title=" ">
<polygon fill="white" stroke="#666666" points="554.5,-241 408.5,-241 408.5,-211 554.5,-211 554.5,-241"/>
<text text-anchor="start" x="416.5" y="-229" font-family="Helvetica,sans-Serif" font-size="10.00">NetworkClient::updateUdp</text>
<text text-anchor="middle" x="481.5" y="-218" font-family="Helvetica,sans-Serif" font-size="10.00">Rates</text>
</a>
</g>
</g>
<!-- Node11&#45;&gt;Node13 -->
<g id="edge12_Node000011_Node000013" class="edge">
<title>Node11&#45;&gt;Node13</title>
<g id="a_edge12_Node000011_Node000013"><a xlink:title=" ">
<path fill="none" stroke="#63b8ff" d="M310.25,-256.47C336.58,-251.76 368.95,-245.96 398.37,-240.7"/>
<polygon fill="#63b8ff" stroke="#63b8ff" points="398.99,-244.14 408.22,-238.94 397.76,-237.25 398.99,-244.14"/>
</a>
</g>
</g>
<!-- Node14&#45;&gt;Node12 -->
<g id="edge14_Node000014_Node000012" class="edge">
<title>Node14&#45;&gt;Node12</title>
<g id="a_edge14_Node000014_Node000012"><a xlink:title=" ">
<path fill="none" stroke="#63b8ff" d="M310.25,-238.53C342.31,-244.27 383.32,-251.61 417.05,-257.64"/>
<polygon fill="#63b8ff" stroke="#63b8ff" points="416.81,-261.16 427.27,-259.47 418.04,-254.27 416.81,-261.16"/>
</a>
</g>
</g>
<!-- Node14&#45;&gt;Node13 -->
<g id="edge15_Node000014_Node000013" class="edge">
<title>Node14&#45;&gt;Node13</title>
<g id="a_edge15_Node000014_Node000013"><a xlink:title=" ">
<path fill="none" stroke="#63b8ff" d="M338,-227.91C357.58,-227.65 378.52,-227.37 398.15,-227.11"/>
<polygon fill="#63b8ff" stroke="#63b8ff" points="398.34,-230.6 408.29,-226.97 398.24,-223.6 398.34,-230.6"/>
</a>
</g>
</g>
<!-- Node19 -->
<g id="Node000019" class="node">
<title>Node19</title>
<g id="a_Node000019"><a xlink:href="classECS.html#ab25123ea5b19ee74c4e120eb6d808a48" target="_top" xlink:title="Retrieves a component from an entity.">
<polygon fill="white" stroke="#666666" points="538,-67.5 425,-67.5 425,-48.5 538,-48.5 538,-67.5"/>
<text text-anchor="middle" x="481.5" y="-55.5" font-family="Helvetica,sans-Serif" font-size="10.00">ECS::getComponent</text>
</a>
</g>
</g>
<!-- Node18&#45;&gt;Node19 -->
<g id="edge20_Node000018_Node000019" class="edge">
<title>Node18&#45;&gt;Node19</title>
<g id="a_edge20_Node000018_Node000019"><a xlink:title=" ">
<path fill="none" stroke="#63b8ff" d="M324.66,-28.02C355.24,-33.9 391.05,-40.79 420.63,-46.48"/>
<polygon fill="#63b8ff" stroke="#63b8ff" points="420.33,-49.99 430.81,-48.44 421.65,-43.11 420.33,-49.99"/>
</a>
</g>
</g>
<!-- Node21 -->
<g id="Node000021" class="node">
<title>Node21</title>
<g id="a_Node000021"><a xlink:href="classRaylib_1_1Draw.html#ac711ababd202454476d1127d61f8a837" target="_top" xlink:title="Draws a filled rectangle.">
<polygon fill="white" stroke="#666666" points="546.5,-24.5 416.5,-24.5 416.5,-5.5 546.5,-5.5 546.5,-24.5"/>
<text text-anchor="middle" x="481.5" y="-12.5" font-family="Helvetica,sans-Serif" font-size="10.00">Raylib::Draw::rectangle</text>
</a>
</g>
</g>
<!-- Node18&#45;&gt;Node21 -->
<g id="edge22_Node000018_Node000021" class="edge">
<title>Node18&#45;&gt;Node21</title>
<g id="a_edge22_Node000018_Node000021"><a xlink:title=" ">
<path fill="none" stroke="#63b8ff" d="M324.66,-15C350.3,-15 379.62,-15 405.86,-15"/>
<polygon fill="#63b8ff" stroke="#63b8ff" points="406.13,-18.5 416.13,-15 406.13,-11.5 406.13,-18.5"/>
</a>
</g>
</g>
<!-- Node20 -->
<g id="Node000020" class="node">
<title>Node20</title>
<g id="a_Node000020"><a xlink:href="classECS.html#aacd3f4c4db77a1e5ff41711297ec6602" target="_top" xlink:title="Gets the type index for a component type.">
<polygon fill="white" stroke="#666666" points="770,-67.5 607,-67.5 607,-48.5 770,-48.5 770,-67.5"/>
<text text-anchor="middle" x="688.5" y="-55.5" font-family="Helvetica,sans-Serif" font-size="10.00">ECS::getComponentTypeIndex</text>
</a>
</g>
</g>
<!-- Node19&#45;&gt;Node20 -->
<g id="edge21_Node000019_Node000020" class="edge">
<title>Node19&#45;&gt;Node20</title>
<g id="a_edge21_Node000019_Node000020"><a xlink:title=" ">
<path fill="none" stroke="#63b8ff" d="M538.25,-58C556.3,-58 576.82,-58 596.74,-58"/>
<polygon fill="#63b8ff" stroke="#63b8ff" points="596.76,-61.5 606.76,-58 596.76,-54.5 596.76,-61.5"/>
</a>
</g>
</g>
<!-- Node22&#45;&gt;Node19 -->
<g id="edge24_Node000022_Node000019" class="edge">
<title>Node22&#45;&gt;Node19</title>
<g id="a_edge24_Node000022_Node000019"><a xlink:title=" ">
<path fill="none" stroke="#63b8ff" d="M314.27,-61.72C344.96,-61.03 382.91,-60.18 414.8,-59.47"/>
<polygon fill="#63b8ff" stroke="#63b8ff" points="415.01,-62.97 424.93,-59.24 414.85,-55.97 415.01,-62.97"/>
</a>
</g>
</g>
</g>
</svg>
