<?xml version="1.0" encoding="UTF-8" standalone="no"?>
<!DOCTYPE svg PUBLIC "-//W3C//DTD SVG 1.1//EN"
 "http://www.w3.org/Graphics/SVG/1.1/DTD/svg11.dtd">
<!-- Generated by graphviz version 2.43.0 (0)
 -->
<!-- Title: GraphicClient::syncBullets Pages: 1 -->
<svg width="688pt" height="102pt"
 viewBox="0.00 0.00 688.00 102.00" xmlns="http://www.w3.org/2000/svg" xmlns:xlink="http://www.w3.org/1999/xlink">
<g id="graph0" class="graph" transform="scale(1 1) rotate(0) translate(4 98)">
<title>GraphicClient::syncBullets</title>
<!-- Node1 -->
<g id="Node000001" class="node">
<title>Node1</title>
<g id="a_Node000001"><a xlink:title="Synchronizes bullet entities with server state.">
<polygon fill="#999999" stroke="#666666" points="145,-40 0,-40 0,-21 145,-21 145,-40"/>
<text text-anchor="middle" x="72.5" y="-28" font-family="Helvetica,sans-Serif" font-size="10.00">GraphicClient::syncBullets</text>
</a>
</g>
</g>
<!-- Node2 -->
<g id="Node000002" class="node">
<title>Node2</title>
<g id="a_Node000002"><a xlink:href="classGraphicClient.html#a31bdd83222945e28b307b03b32135288" target="_top" xlink:title="Creates a bullet entity at specified position.">
<polygon fill="white" stroke="#666666" points="329,-67.5 181,-67.5 181,-37.5 329,-37.5 329,-67.5"/>
<text text-anchor="start" x="189" y="-55.5" font-family="Helvetica,sans-Serif" font-size="10.00">GraphicClient::createBullet</text>
<text text-anchor="middle" x="255" y="-44.5" font-family="Helvetica,sans-Serif" font-size="10.00">Entity</text>
</a>
</g>
</g>
<!-- Node1&#45;&gt;Node2 -->
<g id="edge1_Node000001_Node000002" class="edge">
<title>Node1&#45;&gt;Node2</title>
<g id="a_edge1_Node000001_Node000002"><a xlink:title=" ">
<path fill="none" stroke="#63b8ff" d="M145.1,-39.23C153.52,-40.25 162.16,-41.31 170.72,-42.35"/>
<polygon fill="#63b8ff" stroke="#63b8ff" points="170.36,-45.83 180.71,-43.57 171.21,-38.88 170.36,-45.83"/>
</a>
</g>
</g>
<!-- Node7 -->
<g id="Node000007" class="node">
<title>Node7</title>
<g id="a_Node000007"><a xlink:href="classECS.html#ab25123ea5b19ee74c4e120eb6d808a48" target="_top" xlink:title="Retrieves a component from an entity.">
<polygon fill="white" stroke="#666666" points="311.5,-19 198.5,-19 198.5,0 311.5,0 311.5,-19"/>
<text text-anchor="middle" x="255" y="-7" font-family="Helvetica,sans-Serif" font-size="10.00">ECS::getComponent</text>
</a>
</g>
</g>
<!-- Node1&#45;&gt;Node7 -->
<g id="edge6_Node000001_Node000007" class="edge">
<title>Node1&#45;&gt;Node7</title>
<g id="a_edge6_Node000001_Node000007"><a xlink:title=" ">
<path fill="none" stroke="#63b8ff" d="M145.1,-22.17C159.35,-20.51 174.26,-18.78 188.31,-17.14"/>
<polygon fill="#63b8ff" stroke="#63b8ff" points="188.83,-20.61 198.36,-15.97 188.02,-13.65 188.83,-20.61"/>
</a>
</g>
</g>
<!-- Node3 -->
<g id="Node000003" class="node">
<title>Node3</title>
<g id="a_Node000003"><a xlink:href="classECS.html#a4fbe0d70b0934255d301ced9df6287e7" target="_top" xlink:title="Adds a component to an entity.">
<polygon fill="white" stroke="#666666" points="481,-94 365,-94 365,-75 481,-75 481,-94"/>
<text text-anchor="middle" x="423" y="-82" font-family="Helvetica,sans-Serif" font-size="10.00">ECS::addComponent</text>
</a>
</g>
</g>
<!-- Node2&#45;&gt;Node3 -->
<g id="edge2_Node000002_Node000003" class="edge">
<title>Node2&#45;&gt;Node3</title>
<g id="a_edge2_Node000002_Node000003"><a xlink:title=" ">
<path fill="none" stroke="#63b8ff" d="M329.29,-66.63C340.35,-68.76 351.64,-70.94 362.37,-73"/>
<polygon fill="#63b8ff" stroke="#63b8ff" points="361.97,-76.49 372.45,-74.95 363.29,-69.62 361.97,-76.49"/>
</a>
</g>
</g>
<!-- Node6 -->
<g id="Node000006" class="node">
<title>Node6</title>
<g id="a_Node000006"><a xlink:href="classECS.html#a41b876f3725cbb04aac3f2edd95522c6" target="_top" xlink:title="Creates a new entity.">
<polygon fill="white" stroke="#666666" points="473.5,-57 372.5,-57 372.5,-38 473.5,-38 473.5,-57"/>
<text text-anchor="middle" x="423" y="-45" font-family="Helvetica,sans-Serif" font-size="10.00">ECS::createEntity</text>
</a>
</g>
</g>
<!-- Node2&#45;&gt;Node6 -->
<g id="edge5_Node000002_Node000006" class="edge">
<title>Node2&#45;&gt;Node6</title>
<g id="a_edge5_Node000002_Node000006"><a xlink:title=" ">
<path fill="none" stroke="#63b8ff" d="M329.29,-50.29C340.35,-49.96 351.64,-49.62 362.37,-49.3"/>
<polygon fill="#63b8ff" stroke="#63b8ff" points="362.56,-52.79 372.45,-48.99 362.35,-45.8 362.56,-52.79"/>
</a>
</g>
</g>
<!-- Node4 -->
<g id="Node000004" class="node">
<title>Node4</title>
<g id="a_Node000004"><a xlink:href="classComponentArray.html#a37f484a9d2b6716e2facff9eabe1bb64" target="_top" xlink:title="Adds or updates a component for an entity.">
<polygon fill="white" stroke="#666666" points="659.5,-94 537.5,-94 537.5,-75 659.5,-75 659.5,-94"/>
<text text-anchor="middle" x="598.5" y="-82" font-family="Helvetica,sans-Serif" font-size="10.00">ComponentArray::add</text>
</a>
</g>
</g>
<!-- Node3&#45;&gt;Node4 -->
<g id="edge3_Node000003_Node000004" class="edge">
<title>Node3&#45;&gt;Node4</title>
<g id="a_edge3_Node000003_Node000004"><a xlink:title=" ">
<path fill="none" stroke="#63b8ff" d="M481.29,-84.5C495.89,-84.5 511.75,-84.5 526.92,-84.5"/>
<polygon fill="#63b8ff" stroke="#63b8ff" points="527.29,-88 537.29,-84.5 527.29,-81 527.29,-88"/>
</a>
</g>
</g>
<!-- Node5 -->
<g id="Node000005" class="node">
<title>Node5</title>
<g id="a_Node000005"><a xlink:href="classECS.html#aacd3f4c4db77a1e5ff41711297ec6602" target="_top" xlink:title="Gets the type index for a component type.">
<polygon fill="white" stroke="#666666" points="680,-38 517,-38 517,-19 680,-19 680,-38"/>
<text text-anchor="middle" x="598.5" y="-26" font-family="Helvetica,sans-Serif" font-size="10.00">ECS::getComponentTypeIndex</text>
</a>
</g>
</g>
<!-- Node3&#45;&gt;Node5 -->
<g id="edge4_Node000003_Node000005" class="edge">
<title>Node3&#45;&gt;Node5</title>
<g id="a_edge4_Node000003_Node000005"><a xlink:title=" ">
<path fill="none" stroke="#63b8ff" d="M454.49,-74.93C463.07,-72.22 472.4,-69.26 481,-66.5 506.94,-58.17 536.08,-48.67 558.72,-41.25"/>
<polygon fill="#63b8ff" stroke="#63b8ff" points="559.91,-44.54 568.32,-38.1 557.73,-37.89 559.91,-44.54"/>
</a>
</g>
</g>
<!-- Node7&#45;&gt;Node5 -->
<g id="edge7_Node000007_Node000005" class="edge">
<title>Node7&#45;&gt;Node5</title>
<g id="a_edge7_Node000007_Node000005"><a xlink:title=" ">
<path fill="none" stroke="#63b8ff" d="M311.63,-12.59C364.35,-15.53 444.49,-19.99 506.52,-23.44"/>
<polygon fill="#63b8ff" stroke="#63b8ff" points="506.52,-26.94 516.7,-24 506.91,-19.95 506.52,-26.94"/>
</a>
</g>
</g>
</g>
</svg>
