<?xml version="1.0" encoding="UTF-8" standalone="no"?>
<!DOCTYPE svg PUBLIC "-//W3C//DTD SVG 1.1//EN"
 "http://www.w3.org/Graphics/SVG/1.1/DTD/svg11.dtd">
<!-- Generated by graphviz version 2.43.0 (0)
 -->
<!-- Title: GraphicClient::selectMainMenu Pages: 1 -->
<svg width="586pt" height="495pt"
 viewBox="0.00 0.00 586.00 494.50" xmlns="http://www.w3.org/2000/svg" xmlns:xlink="http://www.w3.org/1999/xlink">
<g id="graph0" class="graph" transform="scale(1 1) rotate(0) translate(4 490.5)">
<title>GraphicClient::selectMainMenu</title>
<!-- Node1 -->
<g id="Node000001" class="node">
<title>Node1</title>
<g id="a_Node000001"><a xlink:title="Shows main menu with server connection options.">
<polygon fill="#999999" stroke="#666666" points="169,-219.5 0,-219.5 0,-200.5 169,-200.5 169,-219.5"/>
<text text-anchor="middle" x="84.5" y="-207.5" font-family="Helvetica,sans-Serif" font-size="10.00">GraphicClient::selectMainMenu</text>
</a>
</g>
</g>
<!-- Node2 -->
<g id="Node000002" class="node">
<title>Node2</title>
<g id="a_Node000002"><a xlink:href="classRaylib_1_1Window.html#a0d93c896921575743b097baa6d66a6b4" target="_top" xlink:title="Begins drawing frame.">
<polygon fill="white" stroke="#666666" points="571,-486.5 406,-486.5 406,-467.5 571,-467.5 571,-486.5"/>
<text text-anchor="middle" x="488.5" y="-474.5" font-family="Helvetica,sans-Serif" font-size="10.00">Raylib::Window::beginDrawing</text>
</a>
</g>
</g>
<!-- Node1&#45;&gt;Node2 -->
<g id="edge1_Node000001_Node000002" class="edge">
<title>Node1&#45;&gt;Node2</title>
<g id="a_edge1_Node000001_Node000002"><a xlink:title=" ">
<path fill="none" stroke="#63b8ff" d="M88.62,-219.89C99.24,-251.95 137.16,-353.83 205,-405 259.91,-446.42 336.12,-464.15 395.55,-471.68"/>
<polygon fill="#63b8ff" stroke="#63b8ff" points="395.35,-475.18 405.69,-472.88 396.18,-468.22 395.35,-475.18"/>
</a>
</g>
</g>
<!-- Node3 -->
<g id="Node000003" class="node">
<title>Node3</title>
<g id="a_Node000003"><a xlink:href="classRaylib_1_1Window.html#ab5db70ee0a095180020beaa8f134247d" target="_top" xlink:title="Clears background with specified color.">
<polygon fill="white" stroke="#666666" points="578,-449.5 399,-449.5 399,-430.5 578,-430.5 578,-449.5"/>
<text text-anchor="middle" x="488.5" y="-437.5" font-family="Helvetica,sans-Serif" font-size="10.00">Raylib::Window::clearBackground</text>
</a>
</g>
</g>
<!-- Node1&#45;&gt;Node3 -->
<g id="edge2_Node000001_Node000003" class="edge">
<title>Node1&#45;&gt;Node3</title>
<g id="a_edge2_Node000001_Node000003"><a xlink:title=" ">
<path fill="none" stroke="#63b8ff" d="M90.49,-219.78C104.63,-246.53 147.73,-321.57 205,-361 259.62,-398.61 331.77,-418.4 389.48,-428.76"/>
<polygon fill="#63b8ff" stroke="#63b8ff" points="388.89,-432.21 399.34,-430.47 390.09,-425.32 388.89,-432.21"/>
</a>
</g>
</g>
<!-- Node4 -->
<g id="Node000004" class="node">
<title>Node4</title>
<g id="a_Node000004"><a xlink:href="classRaylib_1_1Window.html#a9692f845607bfbb28fb4e889ea0d3b37" target="_top" xlink:title="Ends drawing frame and displays it.">
<polygon fill="white" stroke="#666666" points="566.5,-412.5 410.5,-412.5 410.5,-393.5 566.5,-393.5 566.5,-412.5"/>
<text text-anchor="middle" x="488.5" y="-400.5" font-family="Helvetica,sans-Serif" font-size="10.00">Raylib::Window::endDrawing</text>
</a>
</g>
</g>
<!-- Node1&#45;&gt;Node4 -->
<g id="edge3_Node000001_Node000004" class="edge">
<title>Node1&#45;&gt;Node4</title>
<g id="a_edge3_Node000001_Node000004"><a xlink:title=" ">
<path fill="none" stroke="#63b8ff" d="M93.81,-219.67C112,-240.28 157.53,-288.95 205,-317 271.86,-356.51 358.51,-379.37 418.12,-391.46"/>
<polygon fill="#63b8ff" stroke="#63b8ff" points="417.7,-394.94 428.19,-393.45 419.06,-388.07 417.7,-394.94"/>
</a>
</g>
</g>
<!-- Node5 -->
<g id="Node000005" class="node">
<title>Node5</title>
<g id="a_Node000005"><a xlink:href="classRaylib_1_1Window.html#a8a6eedeecb648b4c1527681a42727e15" target="_top" xlink:title="Gets time delta since last frame.">
<polygon fill="white" stroke="#666666" points="573,-375.5 404,-375.5 404,-356.5 573,-356.5 573,-375.5"/>
<text text-anchor="middle" x="488.5" y="-363.5" font-family="Helvetica,sans-Serif" font-size="10.00">Raylib::Window::getFrameTime</text>
</a>
</g>
</g>
<!-- Node1&#45;&gt;Node5 -->
<g id="edge4_Node000001_Node000005" class="edge">
<title>Node1&#45;&gt;Node5</title>
<g id="a_edge4_Node000001_Node000005"><a xlink:title=" ">
<path fill="none" stroke="#63b8ff" d="M103.3,-219.62C150.26,-244.59 281.9,-312.02 399,-348 406.38,-350.27 414.19,-352.33 421.99,-354.18"/>
<polygon fill="#63b8ff" stroke="#63b8ff" points="421.32,-357.61 431.85,-356.41 422.87,-350.79 421.32,-357.61"/>
</a>
</g>
</g>
<!-- Node6 -->
<g id="Node000006" class="node">
<title>Node6</title>
<g id="a_Node000006"><a xlink:href="classRaylib_1_1Input.html#a77b20ab7de1540d7cc5c18f71b137a12" target="_top" xlink:title="Checks if a key was just pressed this frame.">
<polygon fill="white" stroke="#666666" points="563,-215.5 414,-215.5 414,-196.5 563,-196.5 563,-215.5"/>
<text text-anchor="middle" x="488.5" y="-203.5" font-family="Helvetica,sans-Serif" font-size="10.00">Raylib::Input::isKeyPressed</text>
</a>
</g>
</g>
<!-- Node1&#45;&gt;Node6 -->
<g id="edge5_Node000001_Node000006" class="edge">
<title>Node1&#45;&gt;Node6</title>
<g id="a_edge5_Node000001_Node000006"><a xlink:title=" ">
<path fill="none" stroke="#63b8ff" d="M169.28,-209.17C238.01,-208.48 334.84,-207.52 403.6,-206.83"/>
<polygon fill="#63b8ff" stroke="#63b8ff" points="403.99,-210.33 413.96,-206.73 403.92,-203.33 403.99,-210.33"/>
</a>
</g>
</g>
<!-- Node7 -->
<g id="Node000007" class="node">
<title>Node7</title>
<g id="a_Node000007"><a xlink:href="classRaylib_1_1Draw.html#ac711ababd202454476d1127d61f8a837" target="_top" xlink:title="Draws a filled rectangle.">
<polygon fill="white" stroke="#666666" points="553.5,-178.5 423.5,-178.5 423.5,-159.5 553.5,-159.5 553.5,-178.5"/>
<text text-anchor="middle" x="488.5" y="-166.5" font-family="Helvetica,sans-Serif" font-size="10.00">Raylib::Draw::rectangle</text>
</a>
</g>
</g>
<!-- Node1&#45;&gt;Node7 -->
<g id="edge6_Node000001_Node000007" class="edge">
<title>Node1&#45;&gt;Node7</title>
<g id="a_edge6_Node000001_Node000007"><a xlink:title=" ">
<path fill="none" stroke="#63b8ff" d="M169.28,-201.45C241.18,-194.12 343.84,-183.65 412.94,-176.6"/>
<polygon fill="#63b8ff" stroke="#63b8ff" points="413.71,-180.04 423.3,-175.55 413,-173.08 413.71,-180.04"/>
</a>
</g>
</g>
<!-- Node8 -->
<g id="Node000008" class="node">
<title>Node8</title>
<g id="a_Node000008"><a xlink:href="classRaylib_1_1Draw.html#a1a91623bcea0592d00ae0264d81acd52" target="_top" xlink:title="Draws a rectangle outline.">
<polygon fill="white" stroke="#666666" points="566,-141.5 411,-141.5 411,-122.5 566,-122.5 566,-141.5"/>
<text text-anchor="middle" x="488.5" y="-129.5" font-family="Helvetica,sans-Serif" font-size="10.00">Raylib::Draw::rectangleLines</text>
</a>
</g>
</g>
<!-- Node1&#45;&gt;Node8 -->
<g id="edge7_Node000001_Node000008" class="edge">
<title>Node1&#45;&gt;Node8</title>
<g id="a_edge7_Node000001_Node000008"><a xlink:title=" ">
<path fill="none" stroke="#63b8ff" d="M117.49,-200.5C141.44,-193.61 175.08,-184.43 205,-178 272.49,-163.51 349.91,-151.2 406.62,-142.97"/>
<polygon fill="#63b8ff" stroke="#63b8ff" points="407.2,-146.42 416.6,-141.53 406.21,-139.49 407.2,-146.42"/>
</a>
</g>
</g>
<!-- Node9 -->
<g id="Node000009" class="node">
<title>Node9</title>
<g id="a_Node000009"><a xlink:href="classGraphicClient.html#a349a93e6b861365d4aaa7d7cea0d9ccf" target="_top" xlink:title="Shows controls settings menu for key remapping.">
<polygon fill="white" stroke="#666666" points="363,-257.5 205,-257.5 205,-238.5 363,-238.5 363,-257.5"/>
<text text-anchor="middle" x="284" y="-245.5" font-family="Helvetica,sans-Serif" font-size="10.00">GraphicClient::selectSettings</text>
</a>
</g>
</g>
<!-- Node1&#45;&gt;Node9 -->
<g id="edge8_Node000001_Node000009" class="edge">
<title>Node1&#45;&gt;Node9</title>
<g id="a_edge8_Node000001_Node000009"><a xlink:title=" ">
<path fill="none" stroke="#63b8ff" d="M135.08,-219.54C161.85,-224.69 195.08,-231.08 223.26,-236.51"/>
<polygon fill="#63b8ff" stroke="#63b8ff" points="222.92,-240 233.4,-238.46 224.24,-233.13 222.92,-240"/>
</a>
</g>
</g>
<!-- Node13 -->
<g id="Node000013" class="node">
<title>Node13</title>
<g id="a_Node000013"><a xlink:href="classRaylib_1_1Window.html#ac0d6cca8b53645743f06c2e453624938" target="_top" xlink:title="Checks if window should close.">
<polygon fill="white" stroke="#666666" points="567,-104.5 410,-104.5 410,-85.5 567,-85.5 567,-104.5"/>
<text text-anchor="middle" x="488.5" y="-92.5" font-family="Helvetica,sans-Serif" font-size="10.00">Raylib::Window::shouldClose</text>
</a>
</g>
</g>
<!-- Node1&#45;&gt;Node13 -->
<g id="edge21_Node000001_Node000013" class="edge">
<title>Node1&#45;&gt;Node13</title>
<g id="a_edge21_Node000001_Node000013"><a xlink:title=" ">
<path fill="none" stroke="#63b8ff" d="M99.9,-200.35C121.69,-186.2 164.77,-160.01 205,-146 268.27,-123.96 342.99,-111.01 399.69,-103.67"/>
<polygon fill="#63b8ff" stroke="#63b8ff" points="400.21,-107.13 409.7,-102.41 399.34,-100.19 400.21,-107.13"/>
</a>
</g>
</g>
<!-- Node14 -->
<g id="Node000014" class="node">
<title>Node14</title>
<g id="a_Node000014"><a xlink:href="classRaylib_1_1Draw.html#adf84c6a40cd571fbbdeacf2868ab192e" target="_top" xlink:title="Draws text on screen.">
<polygon fill="white" stroke="#666666" points="540.5,-67.5 436.5,-67.5 436.5,-48.5 540.5,-48.5 540.5,-67.5"/>
<text text-anchor="middle" x="488.5" y="-55.5" font-family="Helvetica,sans-Serif" font-size="10.00">Raylib::Draw::text</text>
</a>
</g>
</g>
<!-- Node1&#45;&gt;Node14 -->
<g id="edge22_Node000001_Node000014" class="edge">
<title>Node1&#45;&gt;Node14</title>
<g id="a_edge22_Node000001_Node000014"><a xlink:title=" ">
<path fill="none" stroke="#63b8ff" d="M93.25,-200.2C110.68,-178.94 155.34,-128.55 205,-105 275.88,-71.38 366.7,-61.35 425.95,-58.6"/>
<polygon fill="#63b8ff" stroke="#63b8ff" points="426.42,-62.08 436.27,-58.18 426.14,-55.09 426.42,-62.08"/>
</a>
</g>
</g>
<!-- Node15 -->
<g id="Node000015" class="node">
<title>Node15</title>
<g id="a_Node000015"><a xlink:href="classNetworkClient.html#acb108e50dae9dda5b2cef508db1dd582" target="_top" xlink:title="Update remote server address for TCP and UDP.">
<polygon fill="white" stroke="#666666" points="363,-30 205,-30 205,0 363,0 363,-30"/>
<text text-anchor="start" x="213" y="-18" font-family="Helvetica,sans-Serif" font-size="10.00">NetworkClient::updateServer</text>
<text text-anchor="middle" x="284" y="-7" font-family="Helvetica,sans-Serif" font-size="10.00">Address</text>
</a>
</g>
</g>
<!-- Node1&#45;&gt;Node15 -->
<g id="edge23_Node000001_Node000015" class="edge">
<title>Node1&#45;&gt;Node15</title>
<g id="a_edge23_Node000001_Node000015"><a xlink:title=" ">
<path fill="none" stroke="#63b8ff" d="M89.94,-200.23C103.28,-171.95 145.7,-89.21 205,-44 209.71,-40.41 214.91,-37.22 220.33,-34.41"/>
<polygon fill="#63b8ff" stroke="#63b8ff" points="222.06,-37.46 229.6,-30.01 219.06,-31.13 222.06,-37.46"/>
</a>
</g>
</g>
<!-- Node9&#45;&gt;Node2 -->
<g id="edge9_Node000009_Node000002" class="edge">
<title>Node9&#45;&gt;Node2</title>
<g id="a_edge9_Node000009_Node000002"><a xlink:title=" ">
<path fill="none" stroke="#63b8ff" d="M287.19,-257.92C295.27,-292.05 326.76,-405.43 399,-459 400.84,-460.37 402.76,-461.63 404.75,-462.81"/>
<polygon fill="#63b8ff" stroke="#63b8ff" points="403.3,-466 413.8,-467.42 406.48,-459.76 403.3,-466"/>
</a>
</g>
</g>
<!-- Node9&#45;&gt;Node3 -->
<g id="edge10_Node000009_Node000003" class="edge">
<title>Node9&#45;&gt;Node3</title>
<g id="a_edge10_Node000009_Node000003"><a xlink:title=" ">
<path fill="none" stroke="#63b8ff" d="M288.33,-257.85C299.03,-287.9 335.63,-379.04 399,-422 401.16,-423.46 403.41,-424.81 405.73,-426.05"/>
<polygon fill="#63b8ff" stroke="#63b8ff" points="404.45,-429.32 415,-430.34 407.4,-422.97 404.45,-429.32"/>
</a>
</g>
</g>
<!-- Node9&#45;&gt;Node4 -->
<g id="edge11_Node000009_Node000004" class="edge">
<title>Node9&#45;&gt;Node4</title>
<g id="a_edge11_Node000009_Node000004"><a xlink:title=" ">
<path fill="none" stroke="#63b8ff" d="M289.89,-257.52C303.42,-282.85 344.02,-352.14 399,-385 401.83,-386.69 404.78,-388.22 407.83,-389.61"/>
<polygon fill="#63b8ff" stroke="#63b8ff" points="406.63,-392.9 417.21,-393.38 409.24,-386.41 406.63,-392.9"/>
</a>
</g>
</g>
<!-- Node9&#45;&gt;Node5 -->
<g id="edge12_Node000009_Node000005" class="edge">
<title>Node9&#45;&gt;Node5</title>
<g id="a_edge12_Node000009_Node000005"><a xlink:title=" ">
<path fill="none" stroke="#63b8ff" d="M298.15,-257.56C314.04,-269.31 341.32,-290.13 363,-310 380.15,-325.72 378.66,-336.71 399,-348 402.28,-349.82 405.71,-351.45 409.25,-352.93"/>
<polygon fill="#63b8ff" stroke="#63b8ff" points="408.22,-356.28 418.82,-356.45 410.64,-349.71 408.22,-356.28"/>
</a>
</g>
</g>
<!-- Node9&#45;&gt;Node6 -->
<g id="edge14_Node000009_Node000006" class="edge">
<title>Node9&#45;&gt;Node6</title>
<g id="a_edge14_Node000009_Node000006"><a xlink:title=" ">
<path fill="none" stroke="#63b8ff" d="M330.95,-238.47C360.75,-232.29 399.77,-224.2 431.39,-217.64"/>
<polygon fill="#63b8ff" stroke="#63b8ff" points="432.3,-221.02 441.38,-215.57 430.88,-214.17 432.3,-221.02"/>
</a>
</g>
</g>
<!-- Node9&#45;&gt;Node7 -->
<g id="edge16_Node000009_Node000007" class="edge">
<title>Node9&#45;&gt;Node7</title>
<g id="a_edge16_Node000009_Node000007"><a xlink:title=" ">
<path fill="none" stroke="#63b8ff" d="M299.88,-238.46C321.08,-225.28 361.58,-201.58 399,-188 406.27,-185.36 414.02,-183.04 421.79,-181"/>
<polygon fill="#63b8ff" stroke="#63b8ff" points="422.74,-184.37 431.61,-178.57 421.06,-177.57 422.74,-184.37"/>
</a>
</g>
</g>
<!-- Node9&#45;&gt;Node8 -->
<g id="edge17_Node000009_Node000008" class="edge">
<title>Node9&#45;&gt;Node8</title>
<g id="a_edge17_Node000009_Node000008"><a xlink:title=" ">
<path fill="none" stroke="#63b8ff" d="M293.32,-238.23C310.76,-218.42 353.32,-173.53 399,-151 403.93,-148.57 409.17,-146.44 414.54,-144.59"/>
<polygon fill="#63b8ff" stroke="#63b8ff" points="415.8,-147.86 424.3,-141.54 413.71,-141.18 415.8,-147.86"/>
</a>
</g>
</g>
<!-- Node10 -->
<g id="Node000010" class="node">
<title>Node10</title>
<g id="a_Node000010"><a xlink:href="classInputSystem.html#ac4da6a8e14e4907b0c7882e1297fea3a" target="_top" xlink:title="Retrieves the current key binding for an action.">
<polygon fill="white" stroke="#666666" points="547.5,-338.5 429.5,-338.5 429.5,-319.5 547.5,-319.5 547.5,-338.5"/>
<text text-anchor="middle" x="488.5" y="-326.5" font-family="Helvetica,sans-Serif" font-size="10.00">InputSystem::getKey</text>
</a>
</g>
</g>
<!-- Node9&#45;&gt;Node10 -->
<g id="edge13_Node000009_Node000010" class="edge">
<title>Node9&#45;&gt;Node10</title>
<g id="a_edge13_Node000009_Node000010"><a xlink:title=" ">
<path fill="none" stroke="#63b8ff" d="M299.47,-257.65C320.52,-271.26 361.18,-295.99 399,-310 406.07,-312.62 413.6,-314.92 421.16,-316.94"/>
<polygon fill="#63b8ff" stroke="#63b8ff" points="420.55,-320.39 431.1,-319.43 422.25,-313.6 420.55,-320.39"/>
</a>
</g>
</g>
<!-- Node11 -->
<g id="Node000011" class="node">
<title>Node11</title>
<g id="a_Node000011"><a xlink:href="classGraphicClient.html#a8afc36976fbd0ff4c0e8e3a3acb53989" target="_top" xlink:title="Converts keyboard key code to human&#45;readable string.">
<polygon fill="white" stroke="#666666" points="564.5,-301 412.5,-301 412.5,-271 564.5,-271 564.5,-301"/>
<text text-anchor="start" x="420.5" y="-289" font-family="Helvetica,sans-Serif" font-size="10.00">GraphicClient::keyboardKey</text>
<text text-anchor="middle" x="488.5" y="-278" font-family="Helvetica,sans-Serif" font-size="10.00">ToString</text>
</a>
</g>
</g>
<!-- Node9&#45;&gt;Node11 -->
<g id="edge15_Node000009_Node000011" class="edge">
<title>Node9&#45;&gt;Node11</title>
<g id="a_edge15_Node000009_Node000011"><a xlink:title=" ">
<path fill="none" stroke="#63b8ff" d="M335.84,-257.54C355.94,-261.31 379.61,-265.75 402.19,-269.99"/>
<polygon fill="#63b8ff" stroke="#63b8ff" points="401.65,-273.45 412.13,-271.86 402.94,-266.57 401.65,-273.45"/>
</a>
</g>
</g>
<!-- Node12 -->
<g id="Node000012" class="node">
<title>Node12</title>
<g id="a_Node000012"><a xlink:href="classInputSystem.html#ab584f9708fa5b2c909a96a698980f682" target="_top" xlink:title="Sets a custom key binding for a specific action.">
<polygon fill="white" stroke="#666666" points="547,-252.5 430,-252.5 430,-233.5 547,-233.5 547,-252.5"/>
<text text-anchor="middle" x="488.5" y="-240.5" font-family="Helvetica,sans-Serif" font-size="10.00">InputSystem::setKey</text>
</a>
</g>
</g>
<!-- Node9&#45;&gt;Node12 -->
<g id="edge18_Node000009_Node000012" class="edge">
<title>Node9&#45;&gt;Node12</title>
<g id="a_edge18_Node000009_Node000012"><a xlink:title=" ">
<path fill="none" stroke="#63b8ff" d="M363,-246.07C381.72,-245.61 401.55,-245.12 419.76,-244.67"/>
<polygon fill="#63b8ff" stroke="#63b8ff" points="420.06,-248.17 429.98,-244.42 419.89,-241.17 420.06,-248.17"/>
</a>
</g>
</g>
<!-- Node9&#45;&gt;Node13 -->
<g id="edge19_Node000009_Node000013" class="edge">
<title>Node9&#45;&gt;Node13</title>
<g id="a_edge19_Node000009_Node000013"><a xlink:title=" ">
<path fill="none" stroke="#63b8ff" d="M290.17,-238.36C304.08,-213.38 344.99,-146.28 399,-114 402.64,-111.82 406.5,-109.89 410.49,-108.19"/>
<polygon fill="#63b8ff" stroke="#63b8ff" points="411.88,-111.4 419.99,-104.58 409.4,-104.86 411.88,-111.4"/>
</a>
</g>
</g>
<!-- Node9&#45;&gt;Node14 -->
<g id="edge20_Node000009_Node000014" class="edge">
<title>Node9&#45;&gt;Node14</title>
<g id="a_edge20_Node000009_Node000014"><a xlink:title=" ">
<path fill="none" stroke="#63b8ff" d="M288.36,-238.27C299.17,-208.55 336.02,-118.45 399,-76 407.11,-70.54 416.51,-66.67 426.1,-63.94"/>
<polygon fill="#63b8ff" stroke="#63b8ff" points="427.24,-67.26 436.12,-61.49 425.58,-60.46 427.24,-67.26"/>
</a>
</g>
</g>
</g>
</svg>
