<?xml version="1.0" encoding="UTF-8" standalone="no"?>
<!DOCTYPE svg PUBLIC "-//W3C//DTD SVG 1.1//EN"
 "http://www.w3.org/Graphics/SVG/1.1/DTD/svg11.dtd">
<!-- Generated by graphviz version 2.43.0 (0)
 -->
<!-- Title: Raylib::Draw::rectangle Pages: 1 -->
<svg width="930pt" height="170pt"
 viewBox="0.00 0.00 930.00 169.50" xmlns="http://www.w3.org/2000/svg" xmlns:xlink="http://www.w3.org/1999/xlink">
<g id="graph0" class="graph" transform="scale(1 1) rotate(0) translate(4 165.5)">
<title>Raylib::Draw::rectangle</title>
<!-- Node1 -->
<g id="Node000001" class="node">
<title>Node1</title>
<g id="a_Node000001"><a xlink:title="Draws a filled rectangle.">
<polygon fill="#999999" stroke="#666666" points="922,-104.5 792,-104.5 792,-85.5 922,-85.5 922,-104.5"/>
<text text-anchor="middle" x="857" y="-92.5" font-family="Helvetica,sans-Serif" font-size="10.00">Raylib::Draw::rectangle</text>
</a>
</g>
</g>
<!-- Node2 -->
<g id="Node000002" class="node">
<title>Node2</title>
<g id="a_Node000002"><a xlink:href="classGraphicClient.html#a70229e3e019e7b315f06c9ad74f23be5" target="_top" xlink:title="Shows lobby selection menu.">
<polygon fill="white" stroke="#666666" points="551,-161.5 404,-161.5 404,-142.5 551,-142.5 551,-161.5"/>
<text text-anchor="middle" x="477.5" y="-149.5" font-family="Helvetica,sans-Serif" font-size="10.00">GraphicClient::selectLobby</text>
</a>
</g>
</g>
<!-- Node1&#45;&gt;Node2 -->
<g id="edge1_Node000001_Node000002" class="edge">
<title>Node1&#45;&gt;Node2</title>
<g id="a_edge1_Node000001_Node000002"><a xlink:title=" ">
<path fill="none" stroke="#63b8ff" d="M824.3,-108.45C804.93,-116.08 779.45,-125.05 756,-130 687.43,-144.46 607.51,-149.6 551.1,-151.34"/>
<polygon fill="#63b8ff" stroke="#63b8ff" points="825.86,-111.6 833.84,-104.62 823.25,-105.1 825.86,-111.6"/>
</a>
</g>
</g>
<!-- Node6 -->
<g id="Node000006" class="node">
<title>Node6</title>
<g id="a_Node000006"><a xlink:href="classGraphicClient.html#a2d663515d7165fbe3533e038b5b2e916" target="_top" xlink:title="Shows main menu with server connection options.">
<polygon fill="white" stroke="#666666" points="562,-105.5 393,-105.5 393,-86.5 562,-86.5 562,-105.5"/>
<text text-anchor="middle" x="477.5" y="-93.5" font-family="Helvetica,sans-Serif" font-size="10.00">GraphicClient::selectMainMenu</text>
</a>
</g>
</g>
<!-- Node1&#45;&gt;Node6 -->
<g id="edge5_Node000001_Node000006" class="edge">
<title>Node1&#45;&gt;Node6</title>
<g id="a_edge5_Node000001_Node000006"><a xlink:title=" ">
<path fill="none" stroke="#63b8ff" d="M805.33,-106.54C789.61,-109.6 772.16,-112.48 756,-114 686.09,-120.58 668.03,-119.24 598,-114 575.72,-112.33 551.29,-108.94 530.37,-105.54"/>
<polygon fill="#63b8ff" stroke="#63b8ff" points="806.27,-109.92 815.38,-104.51 804.88,-103.06 806.27,-109.92"/>
</a>
</g>
</g>
<!-- Node7 -->
<g id="Node000007" class="node">
<title>Node7</title>
<g id="a_Node000007"><a xlink:href="classGraphicClient.html#a14824911dd4c90d0f459ed532aec0dd7" target="_top" xlink:title="Shows pseudo/username input menu.">
<polygon fill="white" stroke="#666666" points="753.5,-67.5 600.5,-67.5 600.5,-48.5 753.5,-48.5 753.5,-67.5"/>
<text text-anchor="middle" x="677" y="-55.5" font-family="Helvetica,sans-Serif" font-size="10.00">GraphicClient::selectPseudo</text>
</a>
</g>
</g>
<!-- Node1&#45;&gt;Node7 -->
<g id="edge7_Node000001_Node000007" class="edge">
<title>Node1&#45;&gt;Node7</title>
<g id="a_edge7_Node000001_Node000007"><a xlink:title=" ">
<path fill="none" stroke="#63b8ff" d="M800.27,-83.42C775.75,-78.32 747.28,-72.4 723.99,-67.56"/>
<polygon fill="#63b8ff" stroke="#63b8ff" points="799.66,-86.86 810.16,-85.47 801.08,-80.01 799.66,-86.86"/>
</a>
</g>
</g>
<!-- Node8 -->
<g id="Node000008" class="node">
<title>Node8</title>
<g id="a_Node000008"><a xlink:href="classGraphicClient.html#a349a93e6b861365d4aaa7d7cea0d9ccf" target="_top" xlink:title="Shows controls settings menu for key remapping.">
<polygon fill="white" stroke="#666666" points="756,-104.5 598,-104.5 598,-85.5 756,-85.5 756,-104.5"/>
<text text-anchor="middle" x="677" y="-92.5" font-family="Helvetica,sans-Serif" font-size="10.00">GraphicClient::selectSettings</text>
</a>
</g>
</g>
<!-- Node1&#45;&gt;Node8 -->
<g id="edge9_Node000001_Node000008" class="edge">
<title>Node1&#45;&gt;Node8</title>
<g id="a_edge9_Node000001_Node000008"><a xlink:title=" ">
<path fill="none" stroke="#63b8ff" d="M781.74,-95C773.25,-95 764.57,-95 756.03,-95"/>
<polygon fill="#63b8ff" stroke="#63b8ff" points="781.99,-98.5 791.99,-95 781.99,-91.5 781.99,-98.5"/>
</a>
</g>
</g>
<!-- Node9 -->
<g id="Node000009" class="node">
<title>Node9</title>
<g id="a_Node000009"><a xlink:href="classRectangleRenderSystem.html#a92f6643f7bbedda7d15c6ea55f7407d1" target="_top" xlink:title="Renders a rectangle entity to the screen.">
<polygon fill="white" stroke="#666666" points="745.5,-30 608.5,-30 608.5,0 745.5,0 745.5,-30"/>
<text text-anchor="start" x="616.5" y="-18" font-family="Helvetica,sans-Serif" font-size="10.00">RectangleRenderSystem</text>
<text text-anchor="middle" x="677" y="-7" font-family="Helvetica,sans-Serif" font-size="10.00">::update</text>
</a>
</g>
</g>
<!-- Node1&#45;&gt;Node9 -->
<g id="edge11_Node000001_Node000009" class="edge">
<title>Node1&#45;&gt;Node9</title>
<g id="a_edge11_Node000001_Node000009"><a xlink:title=" ">
<path fill="none" stroke="#63b8ff" d="M832.62,-80.03C812.8,-67.8 783.32,-50.7 756,-39 748.45,-35.77 740.31,-32.77 732.25,-30.06"/>
<polygon fill="#63b8ff" stroke="#63b8ff" points="830.93,-83.1 841.26,-85.43 834.63,-77.16 830.93,-83.1"/>
</a>
</g>
</g>
<!-- Node3 -->
<g id="Node000003" class="node">
<title>Node3</title>
<g id="a_Node000003"><a xlink:href="classGraphicClient.html#a4b416d0d2b3f07134ce30afb0c60adbe" target="_top" xlink:title="Initializes the client (connects to server, shows menus).">
<polygon fill="white" stroke="#666666" points="339,-86.5 235,-86.5 235,-67.5 339,-67.5 339,-86.5"/>
<text text-anchor="middle" x="287" y="-74.5" font-family="Helvetica,sans-Serif" font-size="10.00">GraphicClient::init</text>
</a>
</g>
</g>
<!-- Node2&#45;&gt;Node3 -->
<g id="edge2_Node000002_Node000003" class="edge">
<title>Node2&#45;&gt;Node3</title>
<g id="a_edge2_Node000002_Node000003"><a xlink:title=" ">
<path fill="none" stroke="#63b8ff" d="M442.73,-138.57C405.15,-123.61 345.34,-99.81 312.16,-86.61"/>
<polygon fill="#63b8ff" stroke="#63b8ff" points="441.66,-141.9 452.24,-142.35 444.25,-135.4 441.66,-141.9"/>
</a>
</g>
</g>
<!-- Node4 -->
<g id="Node000004" class="node">
<title>Node4</title>
<g id="a_Node000004"><a xlink:href="classGraphicClient.html#ad39a5f1d7ec30752f8d412d6925ef109" target="_top" xlink:title="Main application loop.">
<polygon fill="white" stroke="#666666" points="181,-67.5 77,-67.5 77,-48.5 181,-48.5 181,-67.5"/>
<text text-anchor="middle" x="129" y="-55.5" font-family="Helvetica,sans-Serif" font-size="10.00">GraphicClient::run</text>
</a>
</g>
</g>
<!-- Node3&#45;&gt;Node4 -->
<g id="edge3_Node000003_Node000004" class="edge">
<title>Node3&#45;&gt;Node4</title>
<g id="a_edge3_Node000003_Node000004"><a xlink:title=" ">
<path fill="none" stroke="#63b8ff" d="M224.62,-69.52C210.24,-67.77 195.07,-65.93 181.19,-64.24"/>
<polygon fill="#63b8ff" stroke="#63b8ff" points="224.57,-73.04 234.92,-70.78 225.42,-66.1 224.57,-73.04"/>
</a>
</g>
</g>
<!-- Node5 -->
<g id="Node000005" class="node">
<title>Node5</title>
<g id="a_Node000005"><a xlink:href="client_8cpp.html#ae66f6b31b5ad750f1fe042a706a4e3d4" target="_top" xlink:title=" ">
<polygon fill="white" stroke="#666666" points="41,-67.5 0,-67.5 0,-48.5 41,-48.5 41,-67.5"/>
<text text-anchor="middle" x="20.5" y="-55.5" font-family="Helvetica,sans-Serif" font-size="10.00">main</text>
</a>
</g>
</g>
<!-- Node4&#45;&gt;Node5 -->
<g id="edge4_Node000004_Node000005" class="edge">
<title>Node4&#45;&gt;Node5</title>
<g id="a_edge4_Node000004_Node000005"><a xlink:title=" ">
<path fill="none" stroke="#63b8ff" d="M66.83,-58C57.58,-58 48.66,-58 41.22,-58"/>
<polygon fill="#63b8ff" stroke="#63b8ff" points="66.93,-61.5 76.93,-58 66.93,-54.5 66.93,-61.5"/>
</a>
</g>
</g>
<!-- Node6&#45;&gt;Node3 -->
<g id="edge6_Node000006_Node000003" class="edge">
<title>Node6&#45;&gt;Node3</title>
<g id="a_edge6_Node000006_Node000003"><a xlink:title=" ">
<path fill="none" stroke="#63b8ff" d="M382.66,-86.54C367.69,-85.03 352.7,-83.52 339.22,-82.16"/>
<polygon fill="#63b8ff" stroke="#63b8ff" points="382.7,-90.06 393,-87.58 383.4,-83.1 382.7,-90.06"/>
</a>
</g>
</g>
<!-- Node7&#45;&gt;Node3 -->
<g id="edge8_Node000007_Node000003" class="edge">
<title>Node7&#45;&gt;Node3</title>
<g id="a_edge8_Node000007_Node000003"><a xlink:title=" ">
<path fill="none" stroke="#63b8ff" d="M590.12,-62.21C513.2,-65.97 402.97,-71.37 339.11,-74.5"/>
<polygon fill="#63b8ff" stroke="#63b8ff" points="590.45,-65.69 600.27,-61.71 590.11,-58.7 590.45,-65.69"/>
</a>
</g>
</g>
<!-- Node8&#45;&gt;Node6 -->
<g id="edge10_Node000008_Node000006" class="edge">
<title>Node8&#45;&gt;Node6</title>
<g id="a_edge10_Node000008_Node000006"><a xlink:title=" ">
<path fill="none" stroke="#63b8ff" d="M587.67,-95.45C579.18,-95.49 570.6,-95.53 562.16,-95.58"/>
<polygon fill="#63b8ff" stroke="#63b8ff" points="587.96,-98.95 597.94,-95.4 587.93,-91.95 587.96,-98.95"/>
</a>
</g>
</g>
<!-- Node10 -->
<g id="Node000010" class="node">
<title>Node10</title>
<g id="a_Node000010"><a xlink:href="classGraphicClient.html#ab0acd8f5b8996cc62295831d7af1cf59" target="_top" xlink:title="Renders the entire game scene.">
<polygon fill="white" stroke="#666666" points="537.5,-27.5 417.5,-27.5 417.5,-8.5 537.5,-8.5 537.5,-27.5"/>
<text text-anchor="middle" x="477.5" y="-15.5" font-family="Helvetica,sans-Serif" font-size="10.00">GraphicClient::render</text>
</a>
</g>
</g>
<!-- Node9&#45;&gt;Node10 -->
<g id="edge12_Node000009_Node000010" class="edge">
<title>Node9&#45;&gt;Node10</title>
<g id="a_edge12_Node000009_Node000010"><a xlink:title=" ">
<path fill="none" stroke="#63b8ff" d="M598.19,-16.18C578,-16.49 556.58,-16.81 537.53,-17.1"/>
<polygon fill="#63b8ff" stroke="#63b8ff" points="598.36,-19.68 608.31,-16.03 598.26,-12.68 598.36,-19.68"/>
</a>
</g>
</g>
<!-- Node11 -->
<g id="Node000011" class="node">
<title>Node11</title>
<g id="a_Node000011"><a xlink:href="classGraphicClient.html#a5cb5c37142e62f04824cc6e21dd199b2" target="_top" xlink:title="Main game loop iteration.">
<polygon fill="white" stroke="#666666" points="357,-49.5 217,-49.5 217,-30.5 357,-30.5 357,-49.5"/>
<text text-anchor="middle" x="287" y="-37.5" font-family="Helvetica,sans-Serif" font-size="10.00">GraphicClient::gameLoop</text>
</a>
</g>
</g>
<!-- Node10&#45;&gt;Node11 -->
<g id="edge13_Node000010_Node000011" class="edge">
<title>Node10&#45;&gt;Node11</title>
<g id="a_edge13_Node000010_Node000011"><a xlink:title=" ">
<path fill="none" stroke="#63b8ff" d="M407.34,-26.07C390.97,-27.98 373.51,-30.02 357.14,-31.93"/>
<polygon fill="#63b8ff" stroke="#63b8ff" points="407.85,-29.54 417.37,-24.9 407.04,-22.58 407.85,-29.54"/>
</a>
</g>
</g>
<!-- Node11&#45;&gt;Node4 -->
<g id="edge14_Node000011_Node000004" class="edge">
<title>Node11&#45;&gt;Node4</title>
<g id="a_edge14_Node000011_Node000004"><a xlink:title=" ">
<path fill="none" stroke="#63b8ff" d="M206.6,-49.16C198.02,-50.15 189.46,-51.14 181.33,-52.08"/>
<polygon fill="#63b8ff" stroke="#63b8ff" points="207.13,-52.62 216.67,-48 206.33,-45.67 207.13,-52.62"/>
</a>
</g>
</g>
</g>
</svg>
