<?xml version="1.0" encoding="UTF-8" standalone="no"?>
<!DOCTYPE svg PUBLIC "-//W3C//DTD SVG 1.1//EN"
 "http://www.w3.org/Graphics/SVG/1.1/DTD/svg11.dtd">
<!-- Generated by graphviz version 2.43.0 (0)
 -->
<!-- Title: SessionManager::resetCounter Pages: 1 -->
<svg width="367pt" height="64pt"
 viewBox="0.00 0.00 367.00 64.00" xmlns="http://www.w3.org/2000/svg" xmlns:xlink="http://www.w3.org/1999/xlink">
<g id="graph0" class="graph" transform="scale(1 1) rotate(0) translate(4 60)">
<title>SessionManager::resetCounter</title>
<!-- Node1 -->
<g id="Node000001" class="node">
<title>Node1</title>
<g id="a_Node000001"><a xlink:title=" ">
<polygon fill="#999999" stroke="#666666" points="359,-37 193,-37 193,-18 359,-18 359,-37"/>
<text text-anchor="middle" x="276" y="-25" font-family="Helvetica,sans-Serif" font-size="10.00">SessionManager::resetCounter</text>
</a>
</g>
</g>
<!-- Node2 -->
<g id="Node000002" class="node">
<title>Node2</title>
<g id="a_Node000002"><a xlink:href="classSessionManager.html#a42975fcc09128c293815d29f3d72c5b7" target="_top" xlink:title="Rate&#45;limit input packets per second.">
<polygon fill="white" stroke="#666666" points="155.5,-56 1.5,-56 1.5,-37 155.5,-37 155.5,-56"/>
<text text-anchor="middle" x="78.5" y="-44" font-family="Helvetica,sans-Serif" font-size="10.00">SessionManager::allowInput</text>
</a>
</g>
</g>
<!-- Node1&#45;&gt;Node2 -->
<g id="edge1_Node000001_Node000002" class="edge">
<title>Node1&#45;&gt;Node2</title>
<g id="a_edge1_Node000001_Node000002"><a xlink:title=" ">
<path fill="none" stroke="#63b8ff" d="M182.77,-36.46C173.71,-37.34 164.6,-38.23 155.74,-39.09"/>
<polygon fill="#63b8ff" stroke="#63b8ff" points="183.33,-39.93 192.94,-35.48 182.65,-32.96 183.33,-39.93"/>
</a>
</g>
</g>
<!-- Node3 -->
<g id="Node000003" class="node">
<title>Node3</title>
<g id="a_Node000003"><a xlink:href="classSessionManager.html#a3b6210717467960e603c7308ead2a23a" target="_top" xlink:title="Rate&#45;limit shoot packets per second.">
<polygon fill="white" stroke="#666666" points="157,-19 0,-19 0,0 157,0 157,-19"/>
<text text-anchor="middle" x="78.5" y="-7" font-family="Helvetica,sans-Serif" font-size="10.00">SessionManager::allowShoot</text>
</a>
</g>
</g>
<!-- Node1&#45;&gt;Node3 -->
<g id="edge2_Node000001_Node000003" class="edge">
<title>Node1&#45;&gt;Node3</title>
<g id="a_edge2_Node000001_Node000003"><a xlink:title=" ">
<path fill="none" stroke="#63b8ff" d="M182.92,-19.02C174.35,-18.23 165.71,-17.44 157.29,-16.66"/>
<polygon fill="#63b8ff" stroke="#63b8ff" points="182.66,-22.51 192.94,-19.94 183.3,-15.54 182.66,-22.51"/>
</a>
</g>
</g>
</g>
</svg>
