<?xml version="1.0" encoding="UTF-8" standalone="no"?>
<!DOCTYPE svg PUBLIC "-//W3C//DTD SVG 1.1//EN"
 "http://www.w3.org/Graphics/SVG/1.1/DTD/svg11.dtd">
<!-- Generated by graphviz version 2.43.0 (0)
 -->
<!-- Title: Network::TransportLayer::ASocket::sockState Pages: 1 -->
<svg width="752pt" height="134pt"
 viewBox="0.00 0.00 752.00 134.00" xmlns="http://www.w3.org/2000/svg" xmlns:xlink="http://www.w3.org/1999/xlink">
<g id="graph0" class="graph" transform="scale(1 1) rotate(0) translate(4 130)">
<title>Network::TransportLayer::ASocket::sockState</title>
<!-- Node1 -->
<g id="Node000001" class="node">
<title>Node1</title>
<g id="a_Node000001"><a xlink:title="Check the socket state for read, write, or exception.">
<polygon fill="#999999" stroke="#666666" points="744,-78 608,-78 608,-48 744,-48 744,-78"/>
<text text-anchor="start" x="616" y="-66" font-family="Helvetica,sans-Serif" font-size="10.00">Network::TransportLayer</text>
<text text-anchor="middle" x="676" y="-55" font-family="Helvetica,sans-Serif" font-size="10.00">::ASocket::sockState</text>
</a>
</g>
</g>
<!-- Node2 -->
<g id="Node000002" class="node">
<title>Node2</title>
<g id="a_Node000002"><a xlink:href="classNetwork_1_1TransportLayer_1_1ASocket.html#a34da0184468795bb34afb8e7008a1ed3" target="_top" xlink:title="Read bytes from the socket.">
<polygon fill="white" stroke="#666666" points="572,-126 436,-126 436,-96 572,-96 572,-126"/>
<text text-anchor="start" x="444" y="-114" font-family="Helvetica,sans-Serif" font-size="10.00">Network::TransportLayer</text>
<text text-anchor="middle" x="504" y="-103" font-family="Helvetica,sans-Serif" font-size="10.00">::ASocket::readByte</text>
</a>
</g>
</g>
<!-- Node1&#45;&gt;Node2 -->
<g id="edge1_Node000001_Node000002" class="edge">
<title>Node1&#45;&gt;Node2</title>
<g id="a_edge1_Node000001_Node000002"><a xlink:title=" ">
<path fill="none" stroke="#63b8ff" d="M612,-80.79C594.29,-85.79 575.21,-91.18 558.13,-96"/>
<polygon fill="#63b8ff" stroke="#63b8ff" points="613,-84.14 621.68,-78.06 611.1,-77.4 613,-84.14"/>
</a>
</g>
</g>
<!-- Node3 -->
<g id="Node000003" class="node">
<title>Node3</title>
<g id="a_Node000003"><a xlink:href="classNetwork_1_1TransportLayer_1_1UDPSocket.html#a34b53ce1224f81fc6809a24412854294" target="_top" xlink:title="Read bytes from the UDP socket.">
<polygon fill="white" stroke="#666666" points="572,-78 436,-78 436,-48 572,-48 572,-78"/>
<text text-anchor="start" x="444" y="-66" font-family="Helvetica,sans-Serif" font-size="10.00">Network::TransportLayer</text>
<text text-anchor="middle" x="504" y="-55" font-family="Helvetica,sans-Serif" font-size="10.00">::UDPSocket::readByte</text>
</a>
</g>
</g>
<!-- Node1&#45;&gt;Node3 -->
<g id="edge2_Node000001_Node000003" class="edge">
<title>Node1&#45;&gt;Node3</title>
<g id="a_edge2_Node000001_Node000003"><a xlink:title=" ">
<path fill="none" stroke="#63b8ff" d="M597.58,-63C589.12,-63 580.57,-63 572.26,-63"/>
<polygon fill="#63b8ff" stroke="#63b8ff" points="597.81,-66.5 607.81,-63 597.81,-59.5 597.81,-66.5"/>
</a>
</g>
</g>
<!-- Node7 -->
<g id="Node000007" class="node">
<title>Node7</title>
<g id="a_Node000007"><a xlink:href="classNetwork_1_1TransportLayer_1_1ASocket.html#ab5fcc3d62999cde65373dc40a1592943" target="_top" xlink:title="Write bytes to the socket.">
<polygon fill="white" stroke="#666666" points="572,-30 436,-30 436,0 572,0 572,-30"/>
<text text-anchor="start" x="444" y="-18" font-family="Helvetica,sans-Serif" font-size="10.00">Network::TransportLayer</text>
<text text-anchor="middle" x="504" y="-7" font-family="Helvetica,sans-Serif" font-size="10.00">::ASocket::writeByte</text>
</a>
</g>
</g>
<!-- Node1&#45;&gt;Node7 -->
<g id="edge6_Node000001_Node000007" class="edge">
<title>Node1&#45;&gt;Node7</title>
<g id="a_edge6_Node000001_Node000007"><a xlink:title=" ">
<path fill="none" stroke="#63b8ff" d="M612,-45.21C594.29,-40.21 575.21,-34.82 558.13,-30"/>
<polygon fill="#63b8ff" stroke="#63b8ff" points="611.1,-48.6 621.68,-47.94 613,-41.86 611.1,-48.6"/>
</a>
</g>
</g>
<!-- Node4 -->
<g id="Node000004" class="node">
<title>Node4</title>
<g id="a_Node000004"><a xlink:href="classUDPGameServer.html#a7f3a37004641222f4d30d55614f05029" target="_top" xlink:title="Thread loop to read incoming UDP packets without blocking the simulation tick.">
<polygon fill="white" stroke="#666666" points="400,-72.5 233,-72.5 233,-53.5 400,-53.5 400,-72.5"/>
<text text-anchor="middle" x="316.5" y="-60.5" font-family="Helvetica,sans-Serif" font-size="10.00">UDPGameServer::networkLoop</text>
</a>
</g>
</g>
<!-- Node3&#45;&gt;Node4 -->
<g id="edge3_Node000003_Node000004" class="edge">
<title>Node3&#45;&gt;Node4</title>
<g id="a_edge3_Node000003_Node000004"><a xlink:title=" ">
<path fill="none" stroke="#63b8ff" d="M425.57,-63C417.13,-63 408.51,-63 400,-63"/>
<polygon fill="#63b8ff" stroke="#63b8ff" points="425.77,-66.5 435.77,-63 425.77,-59.5 425.77,-66.5"/>
</a>
</g>
</g>
<!-- Node5 -->
<g id="Node000005" class="node">
<title>Node5</title>
<g id="a_Node000005"><a xlink:href="classUDPGameServer.html#a476a4f2e8bb0833c788761298eb4a72b" target="_top" xlink:title="Start the main server loop (blocking).">
<polygon fill="white" stroke="#666666" points="197,-72.5 77,-72.5 77,-53.5 197,-53.5 197,-72.5"/>
<text text-anchor="middle" x="137" y="-60.5" font-family="Helvetica,sans-Serif" font-size="10.00">UDPGameServer::run</text>
</a>
</g>
</g>
<!-- Node4&#45;&gt;Node5 -->
<g id="edge4_Node000004_Node000005" class="edge">
<title>Node4&#45;&gt;Node5</title>
<g id="a_edge4_Node000004_Node000005"><a xlink:title=" ">
<path fill="none" stroke="#63b8ff" d="M222.73,-63C214,-63 205.32,-63 197.04,-63"/>
<polygon fill="#63b8ff" stroke="#63b8ff" points="222.99,-66.5 232.99,-63 222.99,-59.5 222.99,-66.5"/>
</a>
</g>
</g>
<!-- Node6 -->
<g id="Node000006" class="node">
<title>Node6</title>
<g id="a_Node000006"><a xlink:href="game_8cpp.html#a3c04138a5bfe5d72780bb7e82a18e627" target="_top" xlink:title=" ">
<polygon fill="white" stroke="#666666" points="41,-72.5 0,-72.5 0,-53.5 41,-53.5 41,-72.5"/>
<text text-anchor="middle" x="20.5" y="-60.5" font-family="Helvetica,sans-Serif" font-size="10.00">main</text>
</a>
</g>
</g>
<!-- Node5&#45;&gt;Node6 -->
<g id="edge5_Node000005_Node000006" class="edge">
<title>Node5&#45;&gt;Node6</title>
<g id="a_edge5_Node000005_Node000006"><a xlink:title=" ">
<path fill="none" stroke="#63b8ff" d="M66.55,-63C57.28,-63 48.46,-63 41.12,-63"/>
<polygon fill="#63b8ff" stroke="#63b8ff" points="66.74,-66.5 76.74,-63 66.74,-59.5 66.74,-66.5"/>
</a>
</g>
</g>
</g>
</svg>
