<?xml version="1.0" encoding="UTF-8" standalone="no"?>
<!DOCTYPE svg PUBLIC "-//W3C//DTD SVG 1.1//EN"
 "http://www.w3.org/Graphics/SVG/1.1/DTD/svg11.dtd">
<!-- Generated by graphviz version 2.43.0 (0)
 -->
<!-- Title: Network::TransportLayer::ASocket::closeSocket Pages: 1 -->
<svg width="316pt" height="76pt"
 viewBox="0.00 0.00 316.00 75.50" xmlns="http://www.w3.org/2000/svg" xmlns:xlink="http://www.w3.org/1999/xlink">
<g id="graph0" class="graph" transform="scale(1 1) rotate(0) translate(4 71.5)">
<title>Network::TransportLayer::ASocket::closeSocket</title>
<!-- Node1 -->
<g id="Node000001" class="node">
<title>Node1</title>
<g id="a_Node000001"><a xlink:title="Close the socket.">
<polygon fill="#999999" stroke="#666666" points="308,-45.5 172,-45.5 172,-15.5 308,-15.5 308,-45.5"/>
<text text-anchor="start" x="180" y="-33.5" font-family="Helvetica,sans-Serif" font-size="10.00">Network::TransportLayer</text>
<text text-anchor="middle" x="240" y="-22.5" font-family="Helvetica,sans-Serif" font-size="10.00">::ASocket::closeSocket</text>
</a>
</g>
</g>
<!-- Node2 -->
<g id="Node000002" class="node">
<title>Node2</title>
<g id="a_Node000002"><a xlink:href="classNetwork_1_1TransportLayer_1_1ASocket.html#ae7ed622b5397311c5fa1126d2bab57d8" target="_top" xlink:title="Destroy the ASocket object.">
<polygon fill="white" stroke="#666666" points="136,-67.5 0,-67.5 0,-37.5 136,-37.5 136,-67.5"/>
<text text-anchor="start" x="8" y="-55.5" font-family="Helvetica,sans-Serif" font-size="10.00">Network::TransportLayer</text>
<text text-anchor="middle" x="68" y="-44.5" font-family="Helvetica,sans-Serif" font-size="10.00">::ASocket::~ASocket</text>
</a>
</g>
</g>
<!-- Node1&#45;&gt;Node2 -->
<g id="edge1_Node000001_Node000002" class="edge">
<title>Node1&#45;&gt;Node2</title>
<g id="a_edge1_Node000001_Node000002"><a xlink:title=" ">
<path fill="none" stroke="#63b8ff" d="M161.85,-40.48C153.31,-41.59 144.66,-42.71 136.26,-43.8"/>
<polygon fill="#63b8ff" stroke="#63b8ff" points="162.34,-43.95 171.81,-39.19 161.44,-37.01 162.34,-43.95"/>
</a>
</g>
</g>
<!-- Node3 -->
<g id="Node000003" class="node">
<title>Node3</title>
<g id="a_Node000003"><a xlink:href="classTCPServer.html#abc497ac52355e53986a6a1bd1acb9581" target="_top" xlink:title="Destroy the TCPServer, closing the listening socket.">
<polygon fill="white" stroke="#666666" points="133,-19 3,-19 3,0 133,0 133,-19"/>
<text text-anchor="middle" x="68" y="-7" font-family="Helvetica,sans-Serif" font-size="10.00">TCPServer::~TCPServer</text>
</a>
</g>
</g>
<!-- Node1&#45;&gt;Node3 -->
<g id="edge2_Node000001_Node000003" class="edge">
<title>Node1&#45;&gt;Node3</title>
<g id="a_edge2_Node000001_Node000003"><a xlink:title=" ">
<path fill="none" stroke="#63b8ff" d="M161.58,-20.94C152.09,-19.76 142.47,-18.58 133.21,-17.43"/>
<polygon fill="#63b8ff" stroke="#63b8ff" points="161.46,-24.45 171.81,-22.2 162.32,-17.5 161.46,-24.45"/>
</a>
</g>
</g>
</g>
</svg>
