<?xml version="1.0" encoding="UTF-8" standalone="no"?>
<!DOCTYPE svg PUBLIC "-//W3C//DTD SVG 1.1//EN"
 "http://www.w3.org/Graphics/SVG/1.1/DTD/svg11.dtd">
<!-- Generated by graphviz version 2.43.0 (0)
 -->
<!-- Title: UDPGameServer::networkLoop Pages: 1 -->
<svg width="537pt" height="162pt"
 viewBox="0.00 0.00 537.00 161.50" xmlns="http://www.w3.org/2000/svg" xmlns:xlink="http://www.w3.org/1999/xlink">
<g id="graph0" class="graph" transform="scale(1 1) rotate(0) translate(4 157.5)">
<title>UDPGameServer::networkLoop</title>
<!-- Node1 -->
<g id="Node000001" class="node">
<title>Node1</title>
<g id="a_Node000001"><a xlink:title="Thread loop to read incoming UDP packets without blocking the simulation tick.">
<polygon fill="#999999" stroke="#666666" points="167,-88.5 0,-88.5 0,-69.5 167,-69.5 167,-88.5"/>
<text text-anchor="middle" x="83.5" y="-76.5" font-family="Helvetica,sans-Serif" font-size="10.00">UDPGameServer::networkLoop</text>
</a>
</g>
</g>
<!-- Node2 -->
<g id="Node000002" class="node">
<title>Node2</title>
<g id="a_Node000002"><a xlink:href="classPacket.html#abfcd427a2ca434ac71592334517638fb" target="_top" xlink:title="Deserialize a packet from a raw byte buffer.">
<polygon fill="white" stroke="#666666" points="333.5,-153.5 226.5,-153.5 226.5,-134.5 333.5,-134.5 333.5,-153.5"/>
<text text-anchor="middle" x="280" y="-141.5" font-family="Helvetica,sans-Serif" font-size="10.00">Packet::deserialize</text>
</a>
</g>
</g>
<!-- Node1&#45;&gt;Node2 -->
<g id="edge1_Node000001_Node000002" class="edge">
<title>Node1&#45;&gt;Node2</title>
<g id="a_edge1_Node000001_Node000002"><a xlink:title=" ">
<path fill="none" stroke="#63b8ff" d="M106.92,-88.67C130.52,-98.63 168.93,-114.17 203,-125 210.74,-127.46 219.01,-129.81 227.13,-131.96"/>
<polygon fill="#63b8ff" stroke="#63b8ff" points="226.37,-135.37 236.92,-134.48 228.11,-128.6 226.37,-135.37"/>
</a>
</g>
</g>
<!-- Node3 -->
<g id="Node000003" class="node">
<title>Node3</title>
<g id="a_Node000003"><a xlink:href="classNetwork_1_1TransportLayer_1_1UDPSocket.html#a429dc0b0e539ab051d785b7145e42bf7" target="_top" xlink:title="Get the sender address of the last received packet.">
<polygon fill="white" stroke="#666666" points="357,-116 203,-116 203,-86 357,-86 357,-116"/>
<text text-anchor="start" x="211" y="-104" font-family="Helvetica,sans-Serif" font-size="10.00">Network::TransportLayer</text>
<text text-anchor="middle" x="280" y="-93" font-family="Helvetica,sans-Serif" font-size="10.00">::UDPSocket::getSenderAddr</text>
</a>
</g>
</g>
<!-- Node1&#45;&gt;Node3 -->
<g id="edge2_Node000001_Node000003" class="edge">
<title>Node1&#45;&gt;Node3</title>
<g id="a_edge2_Node000001_Node000003"><a xlink:title=" ">
<path fill="none" stroke="#63b8ff" d="M167.27,-88.36C175.65,-89.31 184.17,-90.27 192.59,-91.23"/>
<polygon fill="#63b8ff" stroke="#63b8ff" points="192.46,-94.73 202.79,-92.38 193.24,-87.78 192.46,-94.73"/>
</a>
</g>
</g>
<!-- Node4 -->
<g id="Node000004" class="node">
<title>Node4</title>
<g id="a_Node000004"><a xlink:href="classUDPGameServer.html#ae610b7c128c3b70e06f3fc1b5a3ecdc5" target="_top" xlink:title=" ">
<polygon fill="white" stroke="#666666" points="353.5,-67.5 206.5,-67.5 206.5,-48.5 353.5,-48.5 353.5,-67.5"/>
<text text-anchor="middle" x="280" y="-55.5" font-family="Helvetica,sans-Serif" font-size="10.00">UDPGameServer::logPrefix</text>
</a>
</g>
</g>
<!-- Node1&#45;&gt;Node4 -->
<g id="edge3_Node000001_Node000004" class="edge">
<title>Node1&#45;&gt;Node4</title>
<g id="a_edge3_Node000001_Node000004"><a xlink:title=" ">
<path fill="none" stroke="#63b8ff" d="M167.27,-70.06C176.94,-69.02 186.8,-67.95 196.47,-66.91"/>
<polygon fill="#63b8ff" stroke="#63b8ff" points="196.88,-70.39 206.45,-65.83 196.13,-63.43 196.88,-70.39"/>
</a>
</g>
</g>
<!-- Node5 -->
<g id="Node000005" class="node">
<title>Node5</title>
<g id="a_Node000005"><a xlink:href="classNetwork_1_1TransportLayer_1_1UDPSocket.html#a34b53ce1224f81fc6809a24412854294" target="_top" xlink:title="Read bytes from the UDP socket.">
<polygon fill="white" stroke="#666666" points="348,-30 212,-30 212,0 348,0 348,-30"/>
<text text-anchor="start" x="220" y="-18" font-family="Helvetica,sans-Serif" font-size="10.00">Network::TransportLayer</text>
<text text-anchor="middle" x="280" y="-7" font-family="Helvetica,sans-Serif" font-size="10.00">::UDPSocket::readByte</text>
</a>
</g>
</g>
<!-- Node1&#45;&gt;Node5 -->
<g id="edge4_Node000001_Node000005" class="edge">
<title>Node1&#45;&gt;Node5</title>
<g id="a_edge4_Node000001_Node000005"><a xlink:title=" ">
<path fill="none" stroke="#63b8ff" d="M113.62,-69.42C142.58,-59.89 187.75,-45.03 223.57,-33.24"/>
<polygon fill="#63b8ff" stroke="#63b8ff" points="224.99,-36.46 233.4,-30 222.81,-29.81 224.99,-36.46"/>
</a>
</g>
</g>
<!-- Node6 -->
<g id="Node000006" class="node">
<title>Node6</title>
<g id="a_Node000006"><a xlink:href="classNetwork_1_1TransportLayer_1_1ASocket.html#a50cace88b622aa442d901434ecc33bd8" target="_top" xlink:title="Check the socket state for read, write, or exception.">
<polygon fill="white" stroke="#666666" points="529,-30 393,-30 393,0 529,0 529,-30"/>
<text text-anchor="start" x="401" y="-18" font-family="Helvetica,sans-Serif" font-size="10.00">Network::TransportLayer</text>
<text text-anchor="middle" x="461" y="-7" font-family="Helvetica,sans-Serif" font-size="10.00">::ASocket::sockState</text>
</a>
</g>
</g>
<!-- Node5&#45;&gt;Node6 -->
<g id="edge5_Node000005_Node000006" class="edge">
<title>Node5&#45;&gt;Node6</title>
<g id="a_edge5_Node000005_Node000006"><a xlink:title=" ">
<path fill="none" stroke="#63b8ff" d="M348.16,-15C359.44,-15 371.23,-15 382.74,-15"/>
<polygon fill="#63b8ff" stroke="#63b8ff" points="382.76,-18.5 392.76,-15 382.76,-11.5 382.76,-18.5"/>
</a>
</g>
</g>
</g>
</svg>
