<?xml version="1.0" encoding="UTF-8" standalone="no"?>
<!DOCTYPE svg PUBLIC "-//W3C//DTD SVG 1.1//EN"
 "http://www.w3.org/Graphics/SVG/1.1/DTD/svg11.dtd">
<!-- Generated by graphviz version 2.43.0 (0)
 -->
<!-- Title: NetworkClient::sendInput Pages: 1 -->
<svg width="533pt" height="113pt"
 viewBox="0.00 0.00 533.00 112.50" xmlns="http://www.w3.org/2000/svg" xmlns:xlink="http://www.w3.org/1999/xlink">
<g id="graph0" class="graph" transform="scale(1 1) rotate(0) translate(4 108.5)">
<title>NetworkClient::sendInput</title>
<!-- Node1 -->
<g id="Node000001" class="node">
<title>Node1</title>
<g id="a_Node000001"><a xlink:title="Send player input over UDP.">
<polygon fill="#999999" stroke="#666666" points="140,-67.5 0,-67.5 0,-48.5 140,-48.5 140,-67.5"/>
<text text-anchor="middle" x="70" y="-55.5" font-family="Helvetica,sans-Serif" font-size="10.00">NetworkClient::sendInput</text>
</a>
</g>
</g>
<!-- Node2 -->
<g id="Node000002" class="node">
<title>Node2</title>
<g id="a_Node000002"><a xlink:href="classNetworkClient.html#a6c612ab362cc3e4ea8c94ebc2cddc4e6" target="_top" xlink:title=" ">
<polygon fill="white" stroke="#666666" points="343,-67.5 176,-67.5 176,-48.5 343,-48.5 343,-67.5"/>
<text text-anchor="middle" x="259.5" y="-55.5" font-family="Helvetica,sans-Serif" font-size="10.00">NetworkClient::sendPacketUdp</text>
</a>
</g>
</g>
<!-- Node1&#45;&gt;Node2 -->
<g id="edge1_Node000001_Node000002" class="edge">
<title>Node1&#45;&gt;Node2</title>
<g id="a_edge1_Node000001_Node000002"><a xlink:title=" ">
<path fill="none" stroke="#63b8ff" d="M140.02,-58C148.42,-58 157.12,-58 165.8,-58"/>
<polygon fill="#63b8ff" stroke="#63b8ff" points="165.96,-61.5 175.96,-58 165.96,-54.5 165.96,-61.5"/>
</a>
</g>
</g>
<!-- Node3 -->
<g id="Node000003" class="node">
<title>Node3</title>
<g id="a_Node000003"><a xlink:href="classNetworkClient.html#aaf60f1216a17b46ad12539625a1022c2" target="_top" xlink:title=" ">
<polygon fill="white" stroke="#666666" points="515.5,-104.5 388.5,-104.5 388.5,-85.5 515.5,-85.5 515.5,-104.5"/>
<text text-anchor="middle" x="452" y="-92.5" font-family="Helvetica,sans-Serif" font-size="10.00">NetworkClient::nowMs</text>
</a>
</g>
</g>
<!-- Node2&#45;&gt;Node3 -->
<g id="edge2_Node000002_Node000003" class="edge">
<title>Node2&#45;&gt;Node3</title>
<g id="a_edge2_Node000002_Node000003"><a xlink:title=" ">
<path fill="none" stroke="#63b8ff" d="M309.56,-67.53C334.68,-72.41 365.46,-78.39 391.88,-83.52"/>
<polygon fill="#63b8ff" stroke="#63b8ff" points="391.29,-86.97 401.78,-85.44 392.63,-80.1 391.29,-86.97"/>
</a>
</g>
</g>
<!-- Node4 -->
<g id="Node000004" class="node">
<title>Node4</title>
<g id="a_Node000004"><a xlink:href="classPacket.html#aa88c2d28796644c8a1d6137996502ca8" target="_top" xlink:title="Serialize the packet to a byte buffer ready to send.">
<polygon fill="white" stroke="#666666" points="499.5,-67.5 404.5,-67.5 404.5,-48.5 499.5,-48.5 499.5,-67.5"/>
<text text-anchor="middle" x="452" y="-55.5" font-family="Helvetica,sans-Serif" font-size="10.00">Packet::serialize</text>
</a>
</g>
</g>
<!-- Node2&#45;&gt;Node4 -->
<g id="edge3_Node000002_Node000004" class="edge">
<title>Node2&#45;&gt;Node4</title>
<g id="a_edge3_Node000002_Node000004"><a xlink:title=" ">
<path fill="none" stroke="#63b8ff" d="M343.22,-58C360.44,-58 378.21,-58 394.23,-58"/>
<polygon fill="#63b8ff" stroke="#63b8ff" points="394.49,-61.5 404.49,-58 394.49,-54.5 394.49,-61.5"/>
</a>
</g>
</g>
<!-- Node5 -->
<g id="Node000005" class="node">
<title>Node5</title>
<g id="a_Node000005"><a xlink:href="classNetworkClient.html#a36892dcdc8c2523b27947a347ea16022" target="_top" xlink:title=" ">
<polygon fill="white" stroke="#666666" points="525,-30 379,-30 379,0 525,0 525,-30"/>
<text text-anchor="start" x="387" y="-18" font-family="Helvetica,sans-Serif" font-size="10.00">NetworkClient::updateUdp</text>
<text text-anchor="middle" x="452" y="-7" font-family="Helvetica,sans-Serif" font-size="10.00">Rates</text>
</a>
</g>
</g>
<!-- Node2&#45;&gt;Node5 -->
<g id="edge4_Node000002_Node000005" class="edge">
<title>Node2&#45;&gt;Node5</title>
<g id="a_edge4_Node000002_Node000005"><a xlink:title=" ">
<path fill="none" stroke="#63b8ff" d="M302.78,-48.46C323.88,-43.69 350.06,-37.78 374.52,-32.26"/>
<polygon fill="#63b8ff" stroke="#63b8ff" points="375.53,-35.62 384.52,-30.01 373.99,-28.79 375.53,-35.62"/>
</a>
</g>
</g>
</g>
</svg>
