<?xml version="1.0" encoding="UTF-8" standalone="no"?>
<!DOCTYPE svg PUBLIC "-//W3C//DTD SVG 1.1//EN"
 "http://www.w3.org/Graphics/SVG/1.1/DTD/svg11.dtd">
<!-- Generated by graphviz version 2.43.0 (0)
 -->
<!-- Title: TCPServer::checkHeartbeat Pages: 1 -->
<svg width="1427pt" height="202pt"
 viewBox="0.00 0.00 1427.00 201.67" xmlns="http://www.w3.org/2000/svg" xmlns:xlink="http://www.w3.org/1999/xlink">
<g id="graph0" class="graph" transform="scale(1 1) rotate(0) translate(4 197.67)">
<title>TCPServer::checkHeartbeat</title>
<!-- Node1 -->
<g id="Node000001" class="node">
<title>Node1</title>
<g id="a_Node000001"><a xlink:title="Disconnect clients whose heartbeat timed out.">
<polygon fill="#999999" stroke="#666666" points="149,-111 0,-111 0,-92 149,-92 149,-111"/>
<text text-anchor="middle" x="74.5" y="-99" font-family="Helvetica,sans-Serif" font-size="10.00">TCPServer::checkHeartbeat</text>
</a>
</g>
</g>
<!-- Node2 -->
<g id="Node000002" class="node">
<title>Node2</title>
<g id="a_Node000002"><a xlink:href="classTCPServer.html#afb22938cbabd280ec30b3ffab25aeb56" target="_top" xlink:title=" ">
<polygon fill="white" stroke="#666666" points="948,-187 788,-187 788,-168 948,-168 948,-187"/>
<text text-anchor="middle" x="868" y="-175" font-family="Helvetica,sans-Serif" font-size="10.00">TCPServer::broadcastToLobby</text>
</a>
</g>
</g>
<!-- Node1&#45;&gt;Node2 -->
<g id="edge1_Node000001_Node000002" class="edge">
<title>Node1&#45;&gt;Node2</title>
<g id="a_edge1_Node000001_Node000002"><a xlink:title=" ">
<path fill="none" stroke="#63b8ff" d="M90.7,-111.2C111.19,-123.68 149.22,-144.77 185,-153.5 392.53,-204.12 646.04,-195.34 777.81,-185.72"/>
<polygon fill="#63b8ff" stroke="#63b8ff" points="778.15,-189.21 787.86,-184.97 777.62,-182.23 778.15,-189.21"/>
</a>
</g>
</g>
<!-- Node3 -->
<g id="Node000003" class="node">
<title>Node3</title>
<g id="a_Node000003"><a xlink:href="classTCPServer.html#a9a65a3923e77e48c5f0019b45af8fcb5" target="_top" xlink:title="Send a packet to a specific client fd.">
<polygon fill="white" stroke="#666666" points="1119.5,-149 992.5,-149 992.5,-130 1119.5,-130 1119.5,-149"/>
<text text-anchor="middle" x="1056" y="-137" font-family="Helvetica,sans-Serif" font-size="10.00">TCPServer::sendPacket</text>
</a>
</g>
</g>
<!-- Node1&#45;&gt;Node3 -->
<g id="edge19_Node000001_Node000003" class="edge">
<title>Node1&#45;&gt;Node3</title>
<g id="a_edge19_Node000001_Node000003"><a xlink:title=" ">
<path fill="none" stroke="#63b8ff" d="M124.13,-111.05C143.06,-114.47 164.98,-118.08 185,-120.5 307.07,-135.25 338.04,-139.5 461,-139.5 461,-139.5 461,-139.5 667,-139.5 776.75,-139.5 903.97,-139.5 981.96,-139.5"/>
<polygon fill="#63b8ff" stroke="#63b8ff" points="982.17,-143 992.17,-139.5 982.17,-136 982.17,-143"/>
</a>
</g>
</g>
<!-- Node8 -->
<g id="Node000008" class="node">
<title>Node8</title>
<g id="a_Node000008"><a xlink:href="classTCPServer.html#a6d824f4302f15bbd2c7c8b754d1a51dd" target="_top" xlink:title="Get current time in milliseconds.">
<polygon fill="white" stroke="#666666" points="339,-111 190,-111 190,-92 339,-92 339,-111"/>
<text text-anchor="middle" x="264.5" y="-99" font-family="Helvetica,sans-Serif" font-size="10.00">TCPServer::getCurrentTime</text>
</a>
</g>
</g>
<!-- Node1&#45;&gt;Node8 -->
<g id="edge7_Node000001_Node000008" class="edge">
<title>Node1&#45;&gt;Node8</title>
<g id="a_edge7_Node000001_Node000008"><a xlink:title=" ">
<path fill="none" stroke="#63b8ff" d="M149.26,-101.5C159.29,-101.5 169.65,-101.5 179.83,-101.5"/>
<polygon fill="#63b8ff" stroke="#63b8ff" points="179.95,-105 189.95,-101.5 179.95,-98 179.95,-105"/>
</a>
</g>
</g>
<!-- Node9 -->
<g id="Node000009" class="node">
<title>Node9</title>
<g id="a_Node000009"><a xlink:href="classTCPServer.html#a35b89efbda16dd8af6b7ff45b6da036d" target="_top" xlink:title="Build a packet carrying a string payload.">
<polygon fill="white" stroke="#666666" points="344,-74 185,-74 185,-55 344,-55 344,-74"/>
<text text-anchor="middle" x="264.5" y="-62" font-family="Helvetica,sans-Serif" font-size="10.00">TCPServer::makeStringPacket</text>
</a>
</g>
</g>
<!-- Node1&#45;&gt;Node9 -->
<g id="edge8_Node000001_Node000009" class="edge">
<title>Node1&#45;&gt;Node9</title>
<g id="a_edge8_Node000001_Node000009"><a xlink:title=" ">
<path fill="none" stroke="#63b8ff" d="M123.91,-91.97C148.6,-87.11 178.82,-81.17 204.81,-76.05"/>
<polygon fill="#63b8ff" stroke="#63b8ff" points="205.79,-79.43 214.92,-74.06 204.44,-72.56 205.79,-79.43"/>
</a>
</g>
</g>
<!-- Node10 -->
<g id="Node000010" class="node">
<title>Node10</title>
<g id="a_Node000010"><a xlink:href="classTCPServer.html#a435ec8dcd340e15f964ce3c0748c7305" target="_top" xlink:title="Reset client fields and close its socket.">
<polygon fill="white" stroke="#666666" points="327,-37 202,-37 202,-18 327,-18 327,-37"/>
<text text-anchor="middle" x="264.5" y="-25" font-family="Helvetica,sans-Serif" font-size="10.00">TCPServer::resetClient</text>
</a>
</g>
</g>
<!-- Node1&#45;&gt;Node10 -->
<g id="edge9_Node000001_Node000010" class="edge">
<title>Node1&#45;&gt;Node10</title>
<g id="a_edge9_Node000001_Node000010"><a xlink:title=" ">
<path fill="none" stroke="#63b8ff" d="M91.67,-91.9C112.59,-79.83 150.45,-59.17 185,-46.5 191.88,-43.98 199.22,-41.69 206.55,-39.66"/>
<polygon fill="#63b8ff" stroke="#63b8ff" points="207.71,-42.97 216.49,-37.03 205.92,-36.2 207.71,-42.97"/>
</a>
</g>
</g>
<!-- Node2&#45;&gt;Node3 -->
<g id="edge2_Node000002_Node000003" class="edge">
<title>Node2&#45;&gt;Node3</title>
<g id="a_edge2_Node000002_Node000003"><a xlink:title=" ">
<path fill="none" stroke="#63b8ff" d="M915.94,-167.91C941.03,-162.78 972.12,-156.43 998.53,-151.04"/>
<polygon fill="#63b8ff" stroke="#63b8ff" points="999.3,-154.45 1008.4,-149.02 997.9,-147.59 999.3,-154.45"/>
</a>
</g>
</g>
<!-- Node4 -->
<g id="Node000004" class="node">
<title>Node4</title>
<g id="a_Node000004"><a xlink:href="namespaceProtocol.html#a668bdeed219432868fca095e1b2f2667" target="_top" xlink:title="Build a TCP framed buffer (2 bytes length + serialized packet).">
<polygon fill="white" stroke="#666666" points="1272.5,-167 1165.5,-167 1165.5,-148 1272.5,-148 1272.5,-167"/>
<text text-anchor="middle" x="1219" y="-155" font-family="Helvetica,sans-Serif" font-size="10.00">Protocol::frameTcp</text>
</a>
</g>
</g>
<!-- Node3&#45;&gt;Node4 -->
<g id="edge3_Node000003_Node000004" class="edge">
<title>Node3&#45;&gt;Node4</title>
<g id="a_edge3_Node000003_Node000004"><a xlink:title=" ">
<path fill="none" stroke="#63b8ff" d="M1119.71,-146.51C1131.39,-147.82 1143.59,-149.18 1155.27,-150.49"/>
<polygon fill="#63b8ff" stroke="#63b8ff" points="1155.04,-153.98 1165.37,-151.62 1155.82,-147.03 1155.04,-153.98"/>
</a>
</g>
</g>
<!-- Node6 -->
<g id="Node000006" class="node">
<title>Node6</title>
<g id="a_Node000006"><a xlink:href="classTCPServer.html#a79e20e1d2821e399fe47dd1055341d5e" target="_top" xlink:title="Ensure the full buffer is written to the socket.">
<polygon fill="white" stroke="#666666" points="1274,-130 1164,-130 1164,-111 1274,-111 1274,-130"/>
<text text-anchor="middle" x="1219" y="-118" font-family="Helvetica,sans-Serif" font-size="10.00">TCPServer::writeAll</text>
</a>
</g>
</g>
<!-- Node3&#45;&gt;Node6 -->
<g id="edge5_Node000003_Node000006" class="edge">
<title>Node3&#45;&gt;Node6</title>
<g id="a_edge5_Node000003_Node000006"><a xlink:title=" ">
<path fill="none" stroke="#63b8ff" d="M1119.71,-132.1C1130.86,-130.78 1142.5,-129.41 1153.69,-128.09"/>
<polygon fill="#63b8ff" stroke="#63b8ff" points="1154.31,-131.54 1163.83,-126.89 1153.49,-124.59 1154.31,-131.54"/>
</a>
</g>
</g>
<!-- Node5 -->
<g id="Node000005" class="node">
<title>Node5</title>
<g id="a_Node000005"><a xlink:href="classPacket.html#aa88c2d28796644c8a1d6137996502ca8" target="_top" xlink:title="Serialize the packet to a byte buffer ready to send.">
<polygon fill="white" stroke="#666666" points="1412,-167 1317,-167 1317,-148 1412,-148 1412,-167"/>
<text text-anchor="middle" x="1364.5" y="-155" font-family="Helvetica,sans-Serif" font-size="10.00">Packet::serialize</text>
</a>
</g>
</g>
<!-- Node4&#45;&gt;Node5 -->
<g id="edge4_Node000004_Node000005" class="edge">
<title>Node4&#45;&gt;Node5</title>
<g id="a_edge4_Node000004_Node000005"><a xlink:title=" ">
<path fill="none" stroke="#63b8ff" d="M1272.62,-157.5C1283.64,-157.5 1295.32,-157.5 1306.49,-157.5"/>
<polygon fill="#63b8ff" stroke="#63b8ff" points="1306.58,-161 1316.58,-157.5 1306.58,-154 1306.58,-161"/>
</a>
</g>
</g>
<!-- Node7 -->
<g id="Node000007" class="node">
<title>Node7</title>
<g id="a_Node000007"><a xlink:href="classTCPServer.html#a5b1988f8a542c2d39f3d3556264e71b2" target="_top" xlink:title="Write raw bytes to a socket fd.">
<polygon fill="white" stroke="#666666" points="1419,-130 1310,-130 1310,-111 1419,-111 1419,-130"/>
<text text-anchor="middle" x="1364.5" y="-118" font-family="Helvetica,sans-Serif" font-size="10.00">TCPServer::writeFd</text>
</a>
</g>
</g>
<!-- Node6&#45;&gt;Node7 -->
<g id="edge6_Node000006_Node000007" class="edge">
<title>Node6&#45;&gt;Node7</title>
<g id="a_edge6_Node000006_Node000007"><a xlink:title=" ">
<path fill="none" stroke="#63b8ff" d="M1274.25,-120.5C1282.49,-120.5 1291.06,-120.5 1299.48,-120.5"/>
<polygon fill="#63b8ff" stroke="#63b8ff" points="1299.65,-124 1309.65,-120.5 1299.65,-117 1299.65,-124"/>
</a>
</g>
</g>
<!-- Node11 -->
<g id="Node000011" class="node">
<title>Node11</title>
<g id="a_Node000011"><a xlink:href="classTCPServer.html#aa6089a11e438f73bfc614c44f86e5d75" target="_top" xlink:title="Close and invalidate a file descriptor.">
<polygon fill="white" stroke="#666666" points="517,-93 407,-93 407,-74 517,-74 517,-93"/>
<text text-anchor="middle" x="462" y="-81" font-family="Helvetica,sans-Serif" font-size="10.00">TCPServer::closeFd</text>
</a>
</g>
</g>
<!-- Node10&#45;&gt;Node11 -->
<g id="edge10_Node000010_Node000011" class="edge">
<title>Node10&#45;&gt;Node11</title>
<g id="a_edge10_Node000010_Node000011"><a xlink:title=" ">
<path fill="none" stroke="#63b8ff" d="M313.4,-37.09C323.64,-39.69 334.29,-42.83 344,-46.5 360.92,-52.9 363.02,-59.26 380,-65.5 385.95,-67.68 392.24,-69.65 398.58,-71.41"/>
<polygon fill="#63b8ff" stroke="#63b8ff" points="398,-74.87 408.55,-74 399.76,-68.09 398,-74.87"/>
</a>
</g>
</g>
<!-- Node13 -->
<g id="Node000013" class="node">
<title>Node13</title>
<g id="a_Node000013"><a xlink:href="classSessionManager.html#a8916c4ee701635dd8b2ee525331efb0b" target="_top" xlink:title="Remove a session by player id.">
<polygon fill="white" stroke="#666666" points="543,-56 381,-56 381,-37 543,-37 543,-56"/>
<text text-anchor="middle" x="462" y="-44" font-family="Helvetica,sans-Serif" font-size="10.00">SessionManager::removeById</text>
</a>
</g>
</g>
<!-- Node10&#45;&gt;Node13 -->
<g id="edge12_Node000010_Node000013" class="edge">
<title>Node10&#45;&gt;Node13</title>
<g id="a_edge12_Node000010_Node000013"><a xlink:title=" ">
<path fill="none" stroke="#63b8ff" d="M327.09,-33.49C340.91,-34.83 355.86,-36.28 370.58,-37.71"/>
<polygon fill="#63b8ff" stroke="#63b8ff" points="370.43,-41.21 380.72,-38.7 371.11,-34.25 370.43,-41.21"/>
</a>
</g>
</g>
<!-- Node14 -->
<g id="Node000014" class="node">
<title>Node14</title>
<g id="a_Node000014"><a xlink:href="classTCPServer.html#a508cc3d7023b0cfe9abed2e3166b1682" target="_top" xlink:title="Remove a client from its current lobby.">
<polygon fill="white" stroke="#666666" points="544,-19 380,-19 380,0 544,0 544,-19"/>
<text text-anchor="middle" x="462" y="-7" font-family="Helvetica,sans-Serif" font-size="10.00">TCPServer::removeFromLobby</text>
</a>
</g>
</g>
<!-- Node10&#45;&gt;Node14 -->
<g id="edge13_Node000010_Node000014" class="edge">
<title>Node10&#45;&gt;Node14</title>
<g id="a_edge13_Node000010_Node000014"><a xlink:title=" ">
<path fill="none" stroke="#63b8ff" d="M327.09,-21.83C340.51,-20.59 354.99,-19.26 369.29,-17.94"/>
<polygon fill="#63b8ff" stroke="#63b8ff" points="370.02,-21.39 379.66,-16.99 369.38,-14.42 370.02,-21.39"/>
</a>
</g>
</g>
<!-- Node12 -->
<g id="Node000012" class="node">
<title>Node12</title>
<g id="a_Node000012"><a xlink:href="classTCPServer.html#a2595c03eed6bf37e098e619e6751a3d4" target="_top" xlink:title="Close a raw fd without resetting the caller&#39;s variable.">
<polygon fill="white" stroke="#666666" points="731.5,-93 600.5,-93 600.5,-74 731.5,-74 731.5,-93"/>
<text text-anchor="middle" x="666" y="-81" font-family="Helvetica,sans-Serif" font-size="10.00">TCPServer::closeFdRaw</text>
</a>
</g>
</g>
<!-- Node11&#45;&gt;Node12 -->
<g id="edge11_Node000011_Node000012" class="edge">
<title>Node11&#45;&gt;Node12</title>
<g id="a_edge11_Node000011_Node000012"><a xlink:title=" ">
<path fill="none" stroke="#63b8ff" d="M517.13,-83.5C539.53,-83.5 565.87,-83.5 590.07,-83.5"/>
<polygon fill="#63b8ff" stroke="#63b8ff" points="590.29,-87 600.29,-83.5 590.29,-80 590.29,-87"/>
</a>
</g>
</g>
<!-- Node15 -->
<g id="Node000015" class="node">
<title>Node15</title>
<g id="a_Node000015"><a xlink:href="classTCPServer.html#a8d2dcfc8d8337ff577a101c4aee6aac5" target="_top" xlink:title="Resend the player list to all members of a lobby.">
<polygon fill="white" stroke="#666666" points="734,-56 598,-56 598,-37 734,-37 734,-56"/>
<text text-anchor="middle" x="666" y="-44" font-family="Helvetica,sans-Serif" font-size="10.00">TCPServer::refreshLobby</text>
</a>
</g>
</g>
<!-- Node14&#45;&gt;Node15 -->
<g id="edge14_Node000014_Node000015" class="edge">
<title>Node14&#45;&gt;Node15</title>
<g id="a_edge14_Node000014_Node000015"><a xlink:title=" ">
<path fill="none" stroke="#63b8ff" d="M515.02,-19.03C541.78,-23.93 574.58,-29.94 602.69,-35.09"/>
<polygon fill="#63b8ff" stroke="#63b8ff" points="602.34,-38.58 612.81,-36.94 603.6,-31.7 602.34,-38.58"/>
</a>
</g>
</g>
<!-- Node18 -->
<g id="Node000018" class="node">
<title>Node18</title>
<g id="a_Node000018"><a xlink:href="classSessionManager.html#a8023cf136e039298b1e2ba5fe7cb224b" target="_top" xlink:title="Store the lobby code for a player.">
<polygon fill="white" stroke="#666666" points="752,-19 580,-19 580,0 752,0 752,-19"/>
<text text-anchor="middle" x="666" y="-7" font-family="Helvetica,sans-Serif" font-size="10.00">SessionManager::setLobbyCode</text>
</a>
</g>
</g>
<!-- Node14&#45;&gt;Node18 -->
<g id="edge18_Node000014_Node000018" class="edge">
<title>Node14&#45;&gt;Node18</title>
<g id="a_edge18_Node000014_Node000018"><a xlink:title=" ">
<path fill="none" stroke="#63b8ff" d="M544.29,-9.5C552.72,-9.5 561.34,-9.5 569.91,-9.5"/>
<polygon fill="#63b8ff" stroke="#63b8ff" points="569.92,-13 579.92,-9.5 569.92,-6 569.92,-13"/>
</a>
</g>
</g>
<!-- Node16 -->
<g id="Node000016" class="node">
<title>Node16</title>
<g id="a_Node000016"><a xlink:href="classTCPServer.html#aa87b20fb76f60c19df36f39ef3621b05" target="_top" xlink:title="Send the current player list to a single client.">
<polygon fill="white" stroke="#666666" points="939.5,-86.5 796.5,-86.5 796.5,-56.5 939.5,-56.5 939.5,-86.5"/>
<text text-anchor="start" x="804.5" y="-74.5" font-family="Helvetica,sans-Serif" font-size="10.00">TCPServer::sendPlayerList</text>
<text text-anchor="middle" x="868" y="-63.5" font-family="Helvetica,sans-Serif" font-size="10.00">ToClient</text>
</a>
</g>
</g>
<!-- Node15&#45;&gt;Node16 -->
<g id="edge15_Node000015_Node000016" class="edge">
<title>Node15&#45;&gt;Node16</title>
<g id="a_edge15_Node000015_Node000016"><a xlink:title=" ">
<path fill="none" stroke="#63b8ff" d="M734.15,-54.89C750.85,-56.98 768.92,-59.24 786.2,-61.4"/>
<polygon fill="#63b8ff" stroke="#63b8ff" points="785.9,-64.89 796.26,-62.66 786.77,-57.94 785.9,-64.89"/>
</a>
</g>
</g>
<!-- Node16&#45;&gt;Node3 -->
<g id="edge17_Node000016_Node000003" class="edge">
<title>Node16&#45;&gt;Node3</title>
<g id="a_edge17_Node000016_Node000003"><a xlink:title=" ">
<path fill="none" stroke="#63b8ff" d="M910.28,-86.59C942.92,-98.53 988.03,-115.02 1019.17,-126.4"/>
<polygon fill="#63b8ff" stroke="#63b8ff" points="1018.16,-129.76 1028.75,-129.9 1020.56,-123.18 1018.16,-129.76"/>
</a>
</g>
</g>
<!-- Node17 -->
<g id="Node000017" class="node">
<title>Node17</title>
<g id="a_Node000017"><a xlink:href="classTCPServer.html#a196ba30f88f890e9acf0ef1a21a74c71" target="_top" xlink:title="Build the packet containing the list of connected players.">
<polygon fill="white" stroke="#666666" points="1128,-86.5 984,-86.5 984,-56.5 1128,-56.5 1128,-86.5"/>
<text text-anchor="start" x="992" y="-74.5" font-family="Helvetica,sans-Serif" font-size="10.00">TCPServer::buildPlayerList</text>
<text text-anchor="middle" x="1056" y="-63.5" font-family="Helvetica,sans-Serif" font-size="10.00">Packet</text>
</a>
</g>
</g>
<!-- Node16&#45;&gt;Node17 -->
<g id="edge16_Node000016_Node000017" class="edge">
<title>Node16&#45;&gt;Node17</title>
<g id="a_edge16_Node000016_Node000017"><a xlink:title=" ">
<path fill="none" stroke="#63b8ff" d="M939.58,-71.5C950.68,-71.5 962.22,-71.5 973.54,-71.5"/>
<polygon fill="#63b8ff" stroke="#63b8ff" points="973.85,-75 983.85,-71.5 973.85,-68 973.85,-75"/>
</a>
</g>
</g>
</g>
</svg>
