<?xml version="1.0" encoding="UTF-8" standalone="no"?>
<!DOCTYPE svg PUBLIC "-//W3C//DTD SVG 1.1//EN"
 "http://www.w3.org/Graphics/SVG/1.1/DTD/svg11.dtd">
<!-- Generated by graphviz version 2.43.0 (0)
 -->
<!-- Title: TCPServer::~TCPServer Pages: 1 -->
<svg width="1368pt" height="133pt"
 viewBox="0.00 0.00 1368.00 132.50" xmlns="http://www.w3.org/2000/svg" xmlns:xlink="http://www.w3.org/1999/xlink">
<g id="graph0" class="graph" transform="scale(1 1) rotate(0) translate(4 128.5)">
<title>TCPServer::~TCPServer</title>
<!-- Node1 -->
<g id="Node000001" class="node">
<title>Node1</title>
<g id="a_Node000001"><a xlink:title="Destroy the TCPServer, closing the listening socket.">
<polygon fill="#999999" stroke="#666666" points="130,-97 0,-97 0,-78 130,-78 130,-97"/>
<text text-anchor="middle" x="65" y="-85" font-family="Helvetica,sans-Serif" font-size="10.00">TCPServer::~TCPServer</text>
</a>
</g>
</g>
<!-- Node2 -->
<g id="Node000002" class="node">
<title>Node2</title>
<g id="a_Node000002"><a xlink:href="classNetwork_1_1TransportLayer_1_1ASocket.html#afb543d4b49e71b180cfe2259c8c5093b" target="_top" xlink:title="Close the socket.">
<polygon fill="white" stroke="#666666" points="302,-124.5 166,-124.5 166,-94.5 302,-94.5 302,-124.5"/>
<text text-anchor="start" x="174" y="-112.5" font-family="Helvetica,sans-Serif" font-size="10.00">Network::TransportLayer</text>
<text text-anchor="middle" x="234" y="-101.5" font-family="Helvetica,sans-Serif" font-size="10.00">::ASocket::closeSocket</text>
</a>
</g>
</g>
<!-- Node1&#45;&gt;Node2 -->
<g id="edge1_Node000001_Node000002" class="edge">
<title>Node1&#45;&gt;Node2</title>
<g id="a_edge1_Node000001_Node000002"><a xlink:title=" ">
<path fill="none" stroke="#63b8ff" d="M130.09,-95.94C138.49,-97.05 147.16,-98.19 155.74,-99.32"/>
<polygon fill="#63b8ff" stroke="#63b8ff" points="155.39,-102.81 165.76,-100.64 156.3,-95.87 155.39,-102.81"/>
</a>
</g>
</g>
<!-- Node3 -->
<g id="Node000003" class="node">
<title>Node3</title>
<g id="a_Node000003"><a xlink:href="classTCPServer.html#a435ec8dcd340e15f964ce3c0748c7305" target="_top" xlink:title="Reset client fields and close its socket.">
<polygon fill="white" stroke="#666666" points="296.5,-76 171.5,-76 171.5,-57 296.5,-57 296.5,-76"/>
<text text-anchor="middle" x="234" y="-64" font-family="Helvetica,sans-Serif" font-size="10.00">TCPServer::resetClient</text>
</a>
</g>
</g>
<!-- Node1&#45;&gt;Node3 -->
<g id="edge2_Node000001_Node000003" class="edge">
<title>Node1&#45;&gt;Node3</title>
<g id="a_edge2_Node000001_Node000003"><a xlink:title=" ">
<path fill="none" stroke="#63b8ff" d="M130.09,-79.44C140.23,-78.17 150.78,-76.84 161.08,-75.54"/>
<polygon fill="#63b8ff" stroke="#63b8ff" points="161.8,-78.98 171.28,-74.26 160.92,-72.04 161.8,-78.98"/>
</a>
</g>
</g>
<!-- Node4 -->
<g id="Node000004" class="node">
<title>Node4</title>
<g id="a_Node000004"><a xlink:href="classTCPServer.html#aa6089a11e438f73bfc614c44f86e5d75" target="_top" xlink:title="Close and invalidate a file descriptor.">
<polygon fill="white" stroke="#666666" points="475,-113 365,-113 365,-94 475,-94 475,-113"/>
<text text-anchor="middle" x="420" y="-101" font-family="Helvetica,sans-Serif" font-size="10.00">TCPServer::closeFd</text>
</a>
</g>
</g>
<!-- Node3&#45;&gt;Node4 -->
<g id="edge3_Node000003_Node000004" class="edge">
<title>Node3&#45;&gt;Node4</title>
<g id="a_edge3_Node000003_Node000004"><a xlink:title=" ">
<path fill="none" stroke="#63b8ff" d="M282.38,-76.03C306.54,-80.89 336.12,-86.83 361.56,-91.95"/>
<polygon fill="#63b8ff" stroke="#63b8ff" points="360.96,-95.4 371.46,-93.94 362.34,-88.54 360.96,-95.4"/>
</a>
</g>
</g>
<!-- Node6 -->
<g id="Node000006" class="node">
<title>Node6</title>
<g id="a_Node000006"><a xlink:href="classSessionManager.html#a8916c4ee701635dd8b2ee525331efb0b" target="_top" xlink:title="Remove a session by player id.">
<polygon fill="white" stroke="#666666" points="501,-76 339,-76 339,-57 501,-57 501,-76"/>
<text text-anchor="middle" x="420" y="-64" font-family="Helvetica,sans-Serif" font-size="10.00">SessionManager::removeById</text>
</a>
</g>
</g>
<!-- Node3&#45;&gt;Node6 -->
<g id="edge5_Node000003_Node000006" class="edge">
<title>Node3&#45;&gt;Node6</title>
<g id="a_edge5_Node000003_Node000006"><a xlink:title=" ">
<path fill="none" stroke="#63b8ff" d="M296.53,-66.5C306.92,-66.5 317.91,-66.5 328.86,-66.5"/>
<polygon fill="#63b8ff" stroke="#63b8ff" points="328.88,-70 338.88,-66.5 328.88,-63 328.88,-70"/>
</a>
</g>
</g>
<!-- Node7 -->
<g id="Node000007" class="node">
<title>Node7</title>
<g id="a_Node000007"><a xlink:href="classTCPServer.html#a508cc3d7023b0cfe9abed2e3166b1682" target="_top" xlink:title="Remove a client from its current lobby.">
<polygon fill="white" stroke="#666666" points="502,-39 338,-39 338,-20 502,-20 502,-39"/>
<text text-anchor="middle" x="420" y="-27" font-family="Helvetica,sans-Serif" font-size="10.00">TCPServer::removeFromLobby</text>
</a>
</g>
</g>
<!-- Node3&#45;&gt;Node7 -->
<g id="edge6_Node000003_Node000007" class="edge">
<title>Node3&#45;&gt;Node7</title>
<g id="a_edge6_Node000003_Node000007"><a xlink:title=" ">
<path fill="none" stroke="#63b8ff" d="M282.38,-56.97C306.54,-52.11 336.12,-46.17 361.56,-41.05"/>
<polygon fill="#63b8ff" stroke="#63b8ff" points="362.34,-44.46 371.46,-39.06 360.96,-37.6 362.34,-44.46"/>
</a>
</g>
</g>
<!-- Node5 -->
<g id="Node000005" class="node">
<title>Node5</title>
<g id="a_Node000005"><a xlink:href="classTCPServer.html#a2595c03eed6bf37e098e619e6751a3d4" target="_top" xlink:title="Close a raw fd without resetting the caller&#39;s variable.">
<polygon fill="white" stroke="#666666" points="689.5,-113 558.5,-113 558.5,-94 689.5,-94 689.5,-113"/>
<text text-anchor="middle" x="624" y="-101" font-family="Helvetica,sans-Serif" font-size="10.00">TCPServer::closeFdRaw</text>
</a>
</g>
</g>
<!-- Node4&#45;&gt;Node5 -->
<g id="edge4_Node000004_Node000005" class="edge">
<title>Node4&#45;&gt;Node5</title>
<g id="a_edge4_Node000004_Node000005"><a xlink:title=" ">
<path fill="none" stroke="#63b8ff" d="M475.13,-103.5C497.53,-103.5 523.87,-103.5 548.07,-103.5"/>
<polygon fill="#63b8ff" stroke="#63b8ff" points="548.29,-107 558.29,-103.5 548.29,-100 548.29,-107"/>
</a>
</g>
</g>
<!-- Node8 -->
<g id="Node000008" class="node">
<title>Node8</title>
<g id="a_Node000008"><a xlink:href="classTCPServer.html#a8d2dcfc8d8337ff577a101c4aee6aac5" target="_top" xlink:title="Resend the player list to all members of a lobby.">
<polygon fill="white" stroke="#666666" points="692,-58 556,-58 556,-39 692,-39 692,-58"/>
<text text-anchor="middle" x="624" y="-46" font-family="Helvetica,sans-Serif" font-size="10.00">TCPServer::refreshLobby</text>
</a>
</g>
</g>
<!-- Node7&#45;&gt;Node8 -->
<g id="edge7_Node000007_Node000008" class="edge">
<title>Node7&#45;&gt;Node8</title>
<g id="a_edge7_Node000007_Node000008"><a xlink:title=" ">
<path fill="none" stroke="#63b8ff" d="M502.29,-37.15C516.58,-38.49 531.42,-39.89 545.6,-41.22"/>
<polygon fill="#63b8ff" stroke="#63b8ff" points="545.51,-44.73 555.79,-42.18 546.16,-37.76 545.51,-44.73"/>
</a>
</g>
</g>
<!-- Node16 -->
<g id="Node000016" class="node">
<title>Node16</title>
<g id="a_Node000016"><a xlink:href="classSessionManager.html#a8023cf136e039298b1e2ba5fe7cb224b" target="_top" xlink:title="Store the lobby code for a player.">
<polygon fill="white" stroke="#666666" points="710,-21 538,-21 538,-2 710,-2 710,-21"/>
<text text-anchor="middle" x="624" y="-9" font-family="Helvetica,sans-Serif" font-size="10.00">SessionManager::setLobbyCode</text>
</a>
</g>
</g>
<!-- Node7&#45;&gt;Node16 -->
<g id="edge15_Node000007_Node000016" class="edge">
<title>Node7&#45;&gt;Node16</title>
<g id="a_edge15_Node000007_Node000016"><a xlink:title=" ">
<path fill="none" stroke="#63b8ff" d="M502.29,-22.26C510.72,-21.51 519.34,-20.74 527.91,-19.97"/>
<polygon fill="#63b8ff" stroke="#63b8ff" points="528.27,-23.46 537.92,-19.08 527.65,-16.48 528.27,-23.46"/>
</a>
</g>
</g>
<!-- Node9 -->
<g id="Node000009" class="node">
<title>Node9</title>
<g id="a_Node000009"><a xlink:href="classTCPServer.html#aa87b20fb76f60c19df36f39ef3621b05" target="_top" xlink:title="Send the current player list to a single client.">
<polygon fill="white" stroke="#666666" points="889,-63.5 746,-63.5 746,-33.5 889,-33.5 889,-63.5"/>
<text text-anchor="start" x="754" y="-51.5" font-family="Helvetica,sans-Serif" font-size="10.00">TCPServer::sendPlayerList</text>
<text text-anchor="middle" x="817.5" y="-40.5" font-family="Helvetica,sans-Serif" font-size="10.00">ToClient</text>
</a>
</g>
</g>
<!-- Node8&#45;&gt;Node9 -->
<g id="edge8_Node000008_Node000009" class="edge">
<title>Node8&#45;&gt;Node9</title>
<g id="a_edge8_Node000008_Node000009"><a xlink:title=" ">
<path fill="none" stroke="#63b8ff" d="M692.25,-48.5C706.21,-48.5 721.06,-48.5 735.46,-48.5"/>
<polygon fill="#63b8ff" stroke="#63b8ff" points="735.84,-52 745.84,-48.5 735.84,-45 735.84,-52"/>
</a>
</g>
</g>
<!-- Node10 -->
<g id="Node000010" class="node">
<title>Node10</title>
<g id="a_Node000010"><a xlink:href="classTCPServer.html#a196ba30f88f890e9acf0ef1a21a74c71" target="_top" xlink:title="Build the packet containing the list of connected players.">
<polygon fill="white" stroke="#666666" points="1069,-85.5 925,-85.5 925,-55.5 1069,-55.5 1069,-85.5"/>
<text text-anchor="start" x="933" y="-73.5" font-family="Helvetica,sans-Serif" font-size="10.00">TCPServer::buildPlayerList</text>
<text text-anchor="middle" x="997" y="-62.5" font-family="Helvetica,sans-Serif" font-size="10.00">Packet</text>
</a>
</g>
</g>
<!-- Node9&#45;&gt;Node10 -->
<g id="edge9_Node000009_Node000010" class="edge">
<title>Node9&#45;&gt;Node10</title>
<g id="a_edge9_Node000009_Node000010"><a xlink:title=" ">
<path fill="none" stroke="#63b8ff" d="M889.16,-57.26C897.57,-58.3 906.2,-59.37 914.75,-60.43"/>
<polygon fill="#63b8ff" stroke="#63b8ff" points="914.36,-63.91 924.71,-61.66 915.22,-56.96 914.36,-63.91"/>
</a>
</g>
</g>
<!-- Node11 -->
<g id="Node000011" class="node">
<title>Node11</title>
<g id="a_Node000011"><a xlink:href="classTCPServer.html#a9a65a3923e77e48c5f0019b45af8fcb5" target="_top" xlink:title="Send a packet to a specific client fd.">
<polygon fill="white" stroke="#666666" points="1060.5,-37 933.5,-37 933.5,-18 1060.5,-18 1060.5,-37"/>
<text text-anchor="middle" x="997" y="-25" font-family="Helvetica,sans-Serif" font-size="10.00">TCPServer::sendPacket</text>
</a>
</g>
</g>
<!-- Node9&#45;&gt;Node11 -->
<g id="edge10_Node000009_Node000011" class="edge">
<title>Node9&#45;&gt;Node11</title>
<g id="a_edge10_Node000009_Node000011"><a xlink:title=" ">
<path fill="none" stroke="#63b8ff" d="M889.16,-40.14C900.34,-38.82 911.92,-37.45 923.14,-36.12"/>
<polygon fill="#63b8ff" stroke="#63b8ff" points="923.81,-39.57 933.33,-34.91 922.99,-32.61 923.81,-39.57"/>
</a>
</g>
</g>
<!-- Node12 -->
<g id="Node000012" class="node">
<title>Node12</title>
<g id="a_Node000012"><a xlink:href="namespaceProtocol.html#a668bdeed219432868fca095e1b2f2667" target="_top" xlink:title="Build a TCP framed buffer (2 bytes length + serialized packet).">
<polygon fill="white" stroke="#666666" points="1213.5,-56 1106.5,-56 1106.5,-37 1213.5,-37 1213.5,-56"/>
<text text-anchor="middle" x="1160" y="-44" font-family="Helvetica,sans-Serif" font-size="10.00">Protocol::frameTcp</text>
</a>
</g>
</g>
<!-- Node11&#45;&gt;Node12 -->
<g id="edge11_Node000011_Node000012" class="edge">
<title>Node11&#45;&gt;Node12</title>
<g id="a_edge11_Node000011_Node000012"><a xlink:title=" ">
<path fill="none" stroke="#63b8ff" d="M1060.71,-34.9C1072.39,-36.28 1084.59,-37.72 1096.27,-39.1"/>
<polygon fill="#63b8ff" stroke="#63b8ff" points="1096.03,-42.59 1106.37,-40.29 1096.85,-35.64 1096.03,-42.59"/>
</a>
</g>
</g>
<!-- Node14 -->
<g id="Node000014" class="node">
<title>Node14</title>
<g id="a_Node000014"><a xlink:href="classTCPServer.html#a79e20e1d2821e399fe47dd1055341d5e" target="_top" xlink:title="Ensure the full buffer is written to the socket.">
<polygon fill="white" stroke="#666666" points="1215,-19 1105,-19 1105,0 1215,0 1215,-19"/>
<text text-anchor="middle" x="1160" y="-7" font-family="Helvetica,sans-Serif" font-size="10.00">TCPServer::writeAll</text>
</a>
</g>
</g>
<!-- Node11&#45;&gt;Node14 -->
<g id="edge13_Node000011_Node000014" class="edge">
<title>Node11&#45;&gt;Node14</title>
<g id="a_edge13_Node000011_Node000014"><a xlink:title=" ">
<path fill="none" stroke="#63b8ff" d="M1060.71,-20.49C1071.86,-19.24 1083.5,-17.94 1094.69,-16.69"/>
<polygon fill="#63b8ff" stroke="#63b8ff" points="1095.28,-20.15 1104.83,-15.56 1094.5,-13.19 1095.28,-20.15"/>
</a>
</g>
</g>
<!-- Node13 -->
<g id="Node000013" class="node">
<title>Node13</title>
<g id="a_Node000013"><a xlink:href="classPacket.html#aa88c2d28796644c8a1d6137996502ca8" target="_top" xlink:title="Serialize the packet to a byte buffer ready to send.">
<polygon fill="white" stroke="#666666" points="1353,-56 1258,-56 1258,-37 1353,-37 1353,-56"/>
<text text-anchor="middle" x="1305.5" y="-44" font-family="Helvetica,sans-Serif" font-size="10.00">Packet::serialize</text>
</a>
</g>
</g>
<!-- Node12&#45;&gt;Node13 -->
<g id="edge12_Node000012_Node000013" class="edge">
<title>Node12&#45;&gt;Node13</title>
<g id="a_edge12_Node000012_Node000013"><a xlink:title=" ">
<path fill="none" stroke="#63b8ff" d="M1213.62,-46.5C1224.64,-46.5 1236.32,-46.5 1247.49,-46.5"/>
<polygon fill="#63b8ff" stroke="#63b8ff" points="1247.58,-50 1257.58,-46.5 1247.58,-43 1247.58,-50"/>
</a>
</g>
</g>
<!-- Node15 -->
<g id="Node000015" class="node">
<title>Node15</title>
<g id="a_Node000015"><a xlink:href="classTCPServer.html#a5b1988f8a542c2d39f3d3556264e71b2" target="_top" xlink:title="Write raw bytes to a socket fd.">
<polygon fill="white" stroke="#666666" points="1360,-19 1251,-19 1251,0 1360,0 1360,-19"/>
<text text-anchor="middle" x="1305.5" y="-7" font-family="Helvetica,sans-Serif" font-size="10.00">TCPServer::writeFd</text>
</a>
</g>
</g>
<!-- Node14&#45;&gt;Node15 -->
<g id="edge14_Node000014_Node000015" class="edge">
<title>Node14&#45;&gt;Node15</title>
<g id="a_edge14_Node000014_Node000015"><a xlink:title=" ">
<path fill="none" stroke="#63b8ff" d="M1215.25,-9.5C1223.49,-9.5 1232.06,-9.5 1240.48,-9.5"/>
<polygon fill="#63b8ff" stroke="#63b8ff" points="1240.65,-13 1250.65,-9.5 1240.65,-6 1240.65,-13"/>
</a>
</g>
</g>
</g>
</svg>
