<?xml version="1.0" encoding="UTF-8" standalone="no"?>
<!DOCTYPE svg PUBLIC "-//W3C//DTD SVG 1.1//EN"
 "http://www.w3.org/Graphics/SVG/1.1/DTD/svg11.dtd">
<!-- Generated by graphviz version 2.43.0 (0)
 -->
<!-- Title: TCPServer::makeStringPacket Pages: 1 -->
<svg width="577pt" height="138pt"
 viewBox="0.00 0.00 577.00 138.00" xmlns="http://www.w3.org/2000/svg" xmlns:xlink="http://www.w3.org/1999/xlink">
<g id="graph0" class="graph" transform="scale(1 1) rotate(0) translate(4 134)">
<title>TCPServer::makeStringPacket</title>
<!-- Node1 -->
<g id="Node000001" class="node">
<title>Node1</title>
<g id="a_Node000001"><a xlink:title="Build a packet carrying a string payload.">
<polygon fill="#999999" stroke="#666666" points="569,-74 410,-74 410,-55 569,-55 569,-74"/>
<text text-anchor="middle" x="489.5" y="-62" font-family="Helvetica,sans-Serif" font-size="10.00">TCPServer::makeStringPacket</text>
</a>
</g>
</g>
<!-- Node2 -->
<g id="Node000002" class="node">
<title>Node2</title>
<g id="a_Node000002"><a xlink:href="classTCPServer.html#ae0e94f8d712b3c9028fe674100d649b9" target="_top" xlink:title="Accept incoming connection and register a new client slot.">
<polygon fill="white" stroke="#666666" points="365,-130 210,-130 210,-111 365,-111 365,-130"/>
<text text-anchor="middle" x="287.5" y="-118" font-family="Helvetica,sans-Serif" font-size="10.00">TCPServer::acceptNewClient</text>
</a>
</g>
</g>
<!-- Node1&#45;&gt;Node2 -->
<g id="edge1_Node000001_Node000002" class="edge">
<title>Node1&#45;&gt;Node2</title>
<g id="a_edge1_Node000001_Node000002"><a xlink:title=" ">
<path fill="none" stroke="#63b8ff" d="M452.92,-77.46C430.48,-85.35 400.77,-95.26 374,-102.5 362.58,-105.59 350.18,-108.46 338.46,-110.97"/>
<polygon fill="#63b8ff" stroke="#63b8ff" points="454.12,-80.75 462.38,-74.11 451.78,-74.15 454.12,-80.75"/>
</a>
</g>
</g>
<!-- Node5 -->
<g id="Node000005" class="node">
<title>Node5</title>
<g id="a_Node000005"><a xlink:href="classTCPServer.html#a867c0e233f62e2d8f181ae99dbcca0a0" target="_top" xlink:title="Disconnect clients whose heartbeat timed out.">
<polygon fill="white" stroke="#666666" points="362,-93 213,-93 213,-74 362,-74 362,-93"/>
<text text-anchor="middle" x="287.5" y="-81" font-family="Helvetica,sans-Serif" font-size="10.00">TCPServer::checkHeartbeat</text>
</a>
</g>
</g>
<!-- Node1&#45;&gt;Node5 -->
<g id="edge4_Node000001_Node000005" class="edge">
<title>Node1&#45;&gt;Node5</title>
<g id="a_edge4_Node000001_Node000005"><a xlink:title=" ">
<path fill="none" stroke="#63b8ff" d="M399.77,-72.93C387.25,-74.12 374.49,-75.33 362.29,-76.49"/>
<polygon fill="#63b8ff" stroke="#63b8ff" points="400.12,-76.41 409.74,-71.98 399.46,-69.44 400.12,-76.41"/>
</a>
</g>
</g>
<!-- Node6 -->
<g id="Node000006" class="node">
<title>Node6</title>
<g id="a_Node000006"><a xlink:href="classTCPServer.html#ada05a61182a782b4d3326fabd26a19bf" target="_top" xlink:title="Read and handle data for a single client.">
<polygon fill="white" stroke="#666666" points="368,-56 207,-56 207,-37 368,-37 368,-56"/>
<text text-anchor="middle" x="287.5" y="-44" font-family="Helvetica,sans-Serif" font-size="10.00">TCPServer::processClientData</text>
</a>
</g>
</g>
<!-- Node1&#45;&gt;Node6 -->
<g id="edge6_Node000001_Node000006" class="edge">
<title>Node1&#45;&gt;Node6</title>
<g id="a_edge6_Node000001_Node000006"><a xlink:title=" ">
<path fill="none" stroke="#63b8ff" d="M399.73,-56.51C389.22,-55.56 378.54,-54.6 368.17,-53.67"/>
<polygon fill="#63b8ff" stroke="#63b8ff" points="399.47,-60 409.74,-57.41 400.1,-53.03 399.47,-60"/>
</a>
</g>
</g>
<!-- Node7 -->
<g id="Node000007" class="node">
<title>Node7</title>
<g id="a_Node000007"><a xlink:href="classTCPServer.html#a2a03b7479e884f287b5a88df03eeb17b" target="_top" xlink:title=" ">
<polygon fill="white" stroke="#666666" points="374,-19 201,-19 201,0 374,0 374,-19"/>
<text text-anchor="middle" x="287.5" y="-7" font-family="Helvetica,sans-Serif" font-size="10.00">TCPServer::processIpcMessages</text>
</a>
</g>
</g>
<!-- Node1&#45;&gt;Node7 -->
<g id="edge8_Node000001_Node000007" class="edge">
<title>Node1&#45;&gt;Node7</title>
<g id="a_edge8_Node000001_Node000007"><a xlink:title=" ">
<path fill="none" stroke="#63b8ff" d="M450.75,-51.73C428.54,-44.45 399.83,-35.42 374,-28.5 361.37,-25.12 347.57,-21.86 334.82,-19.03"/>
<polygon fill="#63b8ff" stroke="#63b8ff" points="449.87,-55.13 460.46,-54.94 452.07,-48.48 449.87,-55.13"/>
</a>
</g>
</g>
<!-- Node3 -->
<g id="Node000003" class="node">
<title>Node3</title>
<g id="a_Node000003"><a xlink:href="classTCPServer.html#a4e6d2ef05b71c4ecbd0518fc7215ece3" target="_top" xlink:title="Run the main accept/receive loop (blocking).">
<polygon fill="white" stroke="#666666" points="165,-74 77,-74 77,-55 165,-55 165,-74"/>
<text text-anchor="middle" x="121" y="-62" font-family="Helvetica,sans-Serif" font-size="10.00">TCPServer::run</text>
</a>
</g>
</g>
<!-- Node2&#45;&gt;Node3 -->
<g id="edge2_Node000002_Node000003" class="edge">
<title>Node2&#45;&gt;Node3</title>
<g id="a_edge2_Node000002_Node000003"><a xlink:title=" ">
<path fill="none" stroke="#63b8ff" d="M221.17,-108.46C214.3,-106.68 207.46,-104.7 201,-102.5 178.67,-94.9 154.42,-82.57 138.76,-74.03"/>
<polygon fill="#63b8ff" stroke="#63b8ff" points="220.69,-111.94 231.24,-110.91 222.35,-105.14 220.69,-111.94"/>
</a>
</g>
</g>
<!-- Node4 -->
<g id="Node000004" class="node">
<title>Node4</title>
<g id="a_Node000004"><a xlink:href="server_8cpp.html#ae66f6b31b5ad750f1fe042a706a4e3d4" target="_top" xlink:title=" ">
<polygon fill="white" stroke="#666666" points="41,-74 0,-74 0,-55 41,-55 41,-74"/>
<text text-anchor="middle" x="20.5" y="-62" font-family="Helvetica,sans-Serif" font-size="10.00">main</text>
</a>
</g>
</g>
<!-- Node3&#45;&gt;Node4 -->
<g id="edge3_Node000003_Node000004" class="edge">
<title>Node3&#45;&gt;Node4</title>
<g id="a_edge3_Node000003_Node000004"><a xlink:title=" ">
<path fill="none" stroke="#63b8ff" d="M66.57,-64.5C57.52,-64.5 48.67,-64.5 41.23,-64.5"/>
<polygon fill="#63b8ff" stroke="#63b8ff" points="66.8,-68 76.8,-64.5 66.8,-61 66.8,-68"/>
</a>
</g>
</g>
<!-- Node5&#45;&gt;Node3 -->
<g id="edge5_Node000005_Node000003" class="edge">
<title>Node5&#45;&gt;Node3</title>
<g id="a_edge5_Node000005_Node000003"><a xlink:title=" ">
<path fill="none" stroke="#63b8ff" d="M202.97,-73.85C189.96,-72.35 176.98,-70.85 165.36,-69.51"/>
<polygon fill="#63b8ff" stroke="#63b8ff" points="202.57,-77.33 212.91,-75 203.38,-70.38 202.57,-77.33"/>
</a>
</g>
</g>
<!-- Node6&#45;&gt;Node3 -->
<g id="edge7_Node000006_Node000003" class="edge">
<title>Node6&#45;&gt;Node3</title>
<g id="a_edge7_Node000006_Node000003"><a xlink:title=" ">
<path fill="none" stroke="#63b8ff" d="M196.65,-56.33C185.78,-57.52 175.09,-58.69 165.35,-59.76"/>
<polygon fill="#63b8ff" stroke="#63b8ff" points="197.1,-59.8 206.66,-55.24 196.34,-52.84 197.1,-59.8"/>
</a>
</g>
</g>
<!-- Node7&#45;&gt;Node3 -->
<g id="edge9_Node000007_Node000003" class="edge">
<title>Node7&#45;&gt;Node3</title>
<g id="a_edge9_Node000007_Node000003"><a xlink:title=" ">
<path fill="none" stroke="#63b8ff" d="M225.64,-21.38C217.28,-23.49 208.88,-25.86 201,-28.5 179.42,-35.73 155.81,-46.95 140.08,-54.95"/>
<polygon fill="#63b8ff" stroke="#63b8ff" points="226.48,-24.77 235.39,-19.03 224.84,-17.97 226.48,-24.77"/>
</a>
</g>
</g>
</g>
</svg>
