<?xml version="1.0" encoding="UTF-8" standalone="no"?>
<!DOCTYPE svg PUBLIC "-//W3C//DTD SVG 1.1//EN"
 "http://www.w3.org/Graphics/SVG/1.1/DTD/svg11.dtd">
<!-- Generated by graphviz version 2.43.0 (0)
 -->
<!-- Title: UDPGameServer Pages: 1 -->
<svg width="349pt" height="238pt"
 viewBox="0.00 0.00 348.50 238.00" xmlns="http://www.w3.org/2000/svg" xmlns:xlink="http://www.w3.org/1999/xlink">
<g id="graph0" class="graph" transform="scale(1 1) rotate(0) translate(4 234)">
<title>UDPGameServer</title>
<!-- Node1 -->
<g id="Node000001" class="node">
<title>Node1</title>
<g id="a_Node000001"><a xlink:title="Simple UDP authoritative game server that manages players and snapshots.">
<polygon fill="#999999" stroke="#666666" points="252,-19 154,-19 154,0 252,0 252,-19"/>
<text text-anchor="middle" x="203" y="-7" font-family="Helvetica,sans-Serif" font-size="10.00">UDPGameServer</text>
</a>
</g>
</g>
<!-- Node2 -->
<g id="Node000002" class="node">
<title>Node2</title>
<g id="a_Node000002"><a xlink:href="classNetwork_1_1TransportLayer_1_1UDPSocket.html" target="_top" xlink:title="UDP Socket class inheriting from ASocket.">
<polygon fill="white" stroke="#666666" points="136,-96 0,-96 0,-66 136,-66 136,-96"/>
<text text-anchor="start" x="8" y="-84" font-family="Helvetica,sans-Serif" font-size="10.00">Network::TransportLayer</text>
<text text-anchor="middle" x="68" y="-73" font-family="Helvetica,sans-Serif" font-size="10.00">::UDPSocket</text>
</a>
</g>
</g>
<!-- Node2&#45;&gt;Node1 -->
<g id="edge1_Node000001_Node000002" class="edge">
<title>Node2&#45;&gt;Node1</title>
<g id="a_edge1_Node000001_Node000002"><a xlink:title=" ">
<path fill="none" stroke="#9a32cd" stroke-dasharray="5,2" d="M104.37,-61.28C131.05,-47.54 166.03,-29.53 186.36,-19.07"/>
<polygon fill="#9a32cd" stroke="#9a32cd" points="102.61,-58.25 95.32,-65.94 105.81,-64.47 102.61,-58.25"/>
</a>
</g>
<text text-anchor="middle" x="168" y="-40" font-family="Helvetica,sans-Serif" font-size="10.00" fill="grey"> _socket</text>
</g>
<!-- Node3 -->
<g id="Node000003" class="node">
<title>Node3</title>
<g id="a_Node000003"><a xlink:href="classNetwork_1_1TransportLayer_1_1ASocket.html" target="_top" xlink:title=" ">
<polygon fill="white" stroke="#666666" points="136,-163 0,-163 0,-133 136,-133 136,-163"/>
<text text-anchor="start" x="8" y="-151" font-family="Helvetica,sans-Serif" font-size="10.00">Network::TransportLayer</text>
<text text-anchor="middle" x="68" y="-140" font-family="Helvetica,sans-Serif" font-size="10.00">::ASocket</text>
</a>
</g>
</g>
<!-- Node3&#45;&gt;Node2 -->
<g id="edge2_Node000002_Node000003" class="edge">
<title>Node3&#45;&gt;Node2</title>
<g id="a_edge2_Node000002_Node000003"><a xlink:title=" ">
<path fill="none" stroke="#63b8ff" d="M68,-122.61C68,-113.65 68,-103.82 68,-96.08"/>
<polygon fill="#63b8ff" stroke="#63b8ff" points="64.5,-122.9 68,-132.9 71.5,-122.9 64.5,-122.9"/>
</a>
</g>
</g>
<!-- Node4 -->
<g id="Node000004" class="node">
<title>Node4</title>
<g id="a_Node000004"><a xlink:href="classNetwork_1_1TransportLayer_1_1ISocket.html" target="_top" xlink:title="Interface for socket operations.">
<polygon fill="white" stroke="#666666" points="136,-230 0,-230 0,-200 136,-200 136,-230"/>
<text text-anchor="start" x="8" y="-218" font-family="Helvetica,sans-Serif" font-size="10.00">Network::TransportLayer</text>
<text text-anchor="middle" x="68" y="-207" font-family="Helvetica,sans-Serif" font-size="10.00">::ISocket</text>
</a>
</g>
</g>
<!-- Node4&#45;&gt;Node3 -->
<g id="edge3_Node000003_Node000004" class="edge">
<title>Node4&#45;&gt;Node3</title>
<g id="a_edge3_Node000003_Node000004"><a xlink:title=" ">
<path fill="none" stroke="#63b8ff" d="M68,-189.61C68,-180.65 68,-170.82 68,-163.08"/>
<polygon fill="#63b8ff" stroke="#63b8ff" points="64.5,-189.9 68,-199.9 71.5,-189.9 64.5,-189.9"/>
</a>
</g>
</g>
<!-- Node5 -->
<g id="Node000005" class="node">
<title>Node5</title>
<g id="a_Node000005"><a xlink:href="classSessionManager.html" target="_top" xlink:title="Tracks client sessions across TCP and UDP, and enforces simple rate limits.">
<polygon fill="white" stroke="#666666" points="251.5,-90.5 154.5,-90.5 154.5,-71.5 251.5,-71.5 251.5,-90.5"/>
<text text-anchor="middle" x="203" y="-78.5" font-family="Helvetica,sans-Serif" font-size="10.00">SessionManager</text>
</a>
</g>
</g>
<!-- Node5&#45;&gt;Node1 -->
<g id="edge4_Node000001_Node000005" class="edge">
<title>Node5&#45;&gt;Node1</title>
<g id="a_edge4_Node000001_Node000005"><a xlink:title=" ">
<path fill="none" stroke="#9a32cd" stroke-dasharray="5,2" d="M203,-61.21C203,-47.5 203,-29.55 203,-19.09"/>
<polygon fill="#9a32cd" stroke="#9a32cd" points="199.5,-61.48 203,-71.48 206.5,-61.48 199.5,-61.48"/>
</a>
</g>
<text text-anchor="middle" x="228.5" y="-40" font-family="Helvetica,sans-Serif" font-size="10.00" fill="grey"> _sessions</text>
</g>
<!-- Node6 -->
<g id="Node000006" class="node">
<title>Node6</title>
<g id="a_Node000006"><a xlink:href="classIpcChannel.html" target="_top" xlink:title="Small IPC helper based on a UNIX datagram socket (SOCK_DGRAM).">
<polygon fill="white" stroke="#666666" points="340.5,-90.5 269.5,-90.5 269.5,-71.5 340.5,-71.5 340.5,-90.5"/>
<text text-anchor="middle" x="305" y="-78.5" font-family="Helvetica,sans-Serif" font-size="10.00">IpcChannel</text>
</a>
</g>
</g>
<!-- Node6&#45;&gt;Node1 -->
<g id="edge5_Node000001_Node000006" class="edge">
<title>Node6&#45;&gt;Node1</title>
<g id="a_edge5_Node000001_Node000006"><a xlink:title=" ">
<path fill="none" stroke="#9a32cd" stroke-dasharray="5,2" d="M289.79,-63.95C281.03,-55.28 269.5,-44.78 258,-37 247.55,-29.93 234.94,-23.71 224.42,-19.07"/>
<polygon fill="#9a32cd" stroke="#9a32cd" points="287.47,-66.59 296.97,-71.27 292.47,-61.68 287.47,-66.59"/>
</a>
</g>
<text text-anchor="middle" x="282.5" y="-40" font-family="Helvetica,sans-Serif" font-size="10.00" fill="grey"> _ipc</text>
</g>
</g>
</svg>
