<?xml version="1.0" encoding="UTF-8" standalone="no"?>
<!DOCTYPE svg PUBLIC "-//W3C//DTD SVG 1.1//EN"
 "http://www.w3.org/Graphics/SVG/1.1/DTD/svg11.dtd">
<!-- Generated by graphviz version 2.43.0 (0)
 -->
<!-- Title: NetworkClient::getEvents Pages: 1 -->
<svg width="745pt" height="91pt"
 viewBox="0.00 0.00 745.00 90.73" xmlns="http://www.w3.org/2000/svg" xmlns:xlink="http://www.w3.org/1999/xlink">
<g id="graph0" class="graph" transform="scale(1 1) rotate(0) translate(4 86.73)">
<title>NetworkClient::getEvents</title>
<!-- Node1 -->
<g id="Node000001" class="node">
<title>Node1</title>
<g id="a_Node000001"><a xlink:title="Get pending network events.">
<polygon fill="#999999" stroke="#666666" points="737,-62 596,-62 596,-43 737,-43 737,-62"/>
<text text-anchor="middle" x="666.5" y="-50" font-family="Helvetica,sans-Serif" font-size="10.00">NetworkClient::getEvents</text>
</a>
</g>
</g>
<!-- Node2 -->
<g id="Node000002" class="node">
<title>Node2</title>
<g id="a_Node000002"><a xlink:href="classGraphicClient.html#a5cb5c37142e62f04824cc6e21dd199b2" target="_top" xlink:title="Main game loop iteration.">
<polygon fill="white" stroke="#666666" points="357,-62 217,-62 217,-43 357,-43 357,-62"/>
<text text-anchor="middle" x="287" y="-50" font-family="Helvetica,sans-Serif" font-size="10.00">GraphicClient::gameLoop</text>
</a>
</g>
</g>
<!-- Node1&#45;&gt;Node2 -->
<g id="edge1_Node000001_Node000002" class="edge">
<title>Node1&#45;&gt;Node2</title>
<g id="a_edge1_Node000001_Node000002"><a xlink:title=" ">
<path fill="none" stroke="#63b8ff" d="M622.27,-64.63C603.32,-69.35 580.73,-74.17 560,-76.5 486.24,-84.78 466.75,-84.82 393,-76.5 368.66,-73.75 341.73,-67.53 321.24,-62.11"/>
<polygon fill="#63b8ff" stroke="#63b8ff" points="623.28,-67.99 632.09,-62.11 621.54,-61.21 623.28,-67.99"/>
</a>
</g>
</g>
<!-- Node5 -->
<g id="Node000005" class="node">
<title>Node5</title>
<g id="a_Node000005"><a xlink:href="classGraphicClient.html#a1fa2cfd0c71b32b0b1f0e0675a2e1cb2" target="_top" xlink:title="Processes network events and updates game state.">
<polygon fill="white" stroke="#666666" points="560,-67.5 393,-67.5 393,-37.5 560,-37.5 560,-67.5"/>
<text text-anchor="start" x="401" y="-55.5" font-family="Helvetica,sans-Serif" font-size="10.00">GraphicClient::processNetwork</text>
<text text-anchor="middle" x="476.5" y="-44.5" font-family="Helvetica,sans-Serif" font-size="10.00">Events</text>
</a>
</g>
</g>
<!-- Node1&#45;&gt;Node5 -->
<g id="edge4_Node000001_Node000005" class="edge">
<title>Node1&#45;&gt;Node5</title>
<g id="a_edge4_Node000001_Node000005"><a xlink:title=" ">
<path fill="none" stroke="#63b8ff" d="M585.59,-52.5C577.17,-52.5 568.6,-52.5 560.15,-52.5"/>
<polygon fill="#63b8ff" stroke="#63b8ff" points="585.76,-56 595.76,-52.5 585.76,-49 585.76,-56"/>
</a>
</g>
</g>
<!-- Node6 -->
<g id="Node000006" class="node">
<title>Node6</title>
<g id="a_Node000006"><a xlink:href="classGraphicClient.html#a70229e3e019e7b315f06c9ad74f23be5" target="_top" xlink:title="Shows lobby selection menu.">
<polygon fill="white" stroke="#666666" points="550,-19 403,-19 403,0 550,0 550,-19"/>
<text text-anchor="middle" x="476.5" y="-7" font-family="Helvetica,sans-Serif" font-size="10.00">GraphicClient::selectLobby</text>
</a>
</g>
</g>
<!-- Node1&#45;&gt;Node6 -->
<g id="edge6_Node000001_Node000006" class="edge">
<title>Node1&#45;&gt;Node6</title>
<g id="a_edge6_Node000001_Node000006"><a xlink:title=" ">
<path fill="none" stroke="#63b8ff" d="M613.96,-40.71C584.13,-33.89 547.07,-25.41 519.11,-19.02"/>
<polygon fill="#63b8ff" stroke="#63b8ff" points="613.25,-44.14 623.78,-42.96 614.81,-37.32 613.25,-44.14"/>
</a>
</g>
</g>
<!-- Node3 -->
<g id="Node000003" class="node">
<title>Node3</title>
<g id="a_Node000003"><a xlink:href="classGraphicClient.html#ad39a5f1d7ec30752f8d412d6925ef109" target="_top" xlink:title="Main application loop.">
<polygon fill="white" stroke="#666666" points="181,-40 77,-40 77,-21 181,-21 181,-40"/>
<text text-anchor="middle" x="129" y="-28" font-family="Helvetica,sans-Serif" font-size="10.00">GraphicClient::run</text>
</a>
</g>
</g>
<!-- Node2&#45;&gt;Node3 -->
<g id="edge2_Node000002_Node000003" class="edge">
<title>Node2&#45;&gt;Node3</title>
<g id="a_edge2_Node000002_Node000003"><a xlink:title=" ">
<path fill="none" stroke="#63b8ff" d="M208.46,-41.56C199.19,-40.26 189.91,-38.95 181.15,-37.71"/>
<polygon fill="#63b8ff" stroke="#63b8ff" points="208.09,-45.05 218.48,-42.98 209.07,-38.12 208.09,-45.05"/>
</a>
</g>
</g>
<!-- Node4 -->
<g id="Node000004" class="node">
<title>Node4</title>
<g id="a_Node000004"><a xlink:href="client_8cpp.html#ae66f6b31b5ad750f1fe042a706a4e3d4" target="_top" xlink:title=" ">
<polygon fill="white" stroke="#666666" points="41,-40 0,-40 0,-21 41,-21 41,-40"/>
<text text-anchor="middle" x="20.5" y="-28" font-family="Helvetica,sans-Serif" font-size="10.00">main</text>
</a>
</g>
</g>
<!-- Node3&#45;&gt;Node4 -->
<g id="edge3_Node000003_Node000004" class="edge">
<title>Node3&#45;&gt;Node4</title>
<g id="a_edge3_Node000003_Node000004"><a xlink:title=" ">
<path fill="none" stroke="#63b8ff" d="M66.83,-30.5C57.58,-30.5 48.66,-30.5 41.22,-30.5"/>
<polygon fill="#63b8ff" stroke="#63b8ff" points="66.93,-34 76.93,-30.5 66.93,-27 66.93,-34"/>
</a>
</g>
</g>
<!-- Node5&#45;&gt;Node2 -->
<g id="edge5_Node000005_Node000002" class="edge">
<title>Node5&#45;&gt;Node2</title>
<g id="a_edge5_Node000005_Node000002"><a xlink:title=" ">
<path fill="none" stroke="#63b8ff" d="M382.83,-52.5C374.16,-52.5 365.48,-52.5 357.08,-52.5"/>
<polygon fill="#63b8ff" stroke="#63b8ff" points="382.99,-56 392.99,-52.5 382.99,-49 382.99,-56"/>
</a>
</g>
</g>
<!-- Node7 -->
<g id="Node000007" class="node">
<title>Node7</title>
<g id="a_Node000007"><a xlink:href="classGraphicClient.html#a4b416d0d2b3f07134ce30afb0c60adbe" target="_top" xlink:title="Initializes the client (connects to server, shows menus).">
<polygon fill="white" stroke="#666666" points="339,-22 235,-22 235,-3 339,-3 339,-22"/>
<text text-anchor="middle" x="287" y="-10" font-family="Helvetica,sans-Serif" font-size="10.00">GraphicClient::init</text>
</a>
</g>
</g>
<!-- Node6&#45;&gt;Node7 -->
<g id="edge7_Node000006_Node000007" class="edge">
<title>Node6&#45;&gt;Node7</title>
<g id="a_edge7_Node000006_Node000007"><a xlink:title=" ">
<path fill="none" stroke="#63b8ff" d="M392.71,-10.82C374.51,-11.12 355.76,-11.42 339.24,-11.68"/>
<polygon fill="#63b8ff" stroke="#63b8ff" points="392.8,-14.32 402.74,-10.66 392.68,-7.32 392.8,-14.32"/>
</a>
</g>
</g>
<!-- Node7&#45;&gt;Node3 -->
<g id="edge8_Node000007_Node000003" class="edge">
<title>Node7&#45;&gt;Node3</title>
<g id="a_edge8_Node000007_Node000003"><a xlink:title=" ">
<path fill="none" stroke="#63b8ff" d="M224.62,-19.58C210.24,-21.24 195.07,-22.99 181.19,-24.59"/>
<polygon fill="#63b8ff" stroke="#63b8ff" points="225.39,-23.02 234.92,-18.39 224.58,-16.06 225.39,-23.02"/>
</a>
</g>
</g>
</g>
</svg>
