<?xml version="1.0" encoding="UTF-8" standalone="no"?>
<!DOCTYPE svg PUBLIC "-//W3C//DTD SVG 1.1//EN"
 "http://www.w3.org/Graphics/SVG/1.1/DTD/svg11.dtd">
<!-- Generated by graphviz version 2.43.0 (0)
 -->
<!-- Title: Network::TransportLayer::ASocket Pages: 1 -->
<svg width="488pt" height="134pt"
 viewBox="0.00 0.00 488.00 134.00" xmlns="http://www.w3.org/2000/svg" xmlns:xlink="http://www.w3.org/1999/xlink">
<g id="graph0" class="graph" transform="scale(1 1) rotate(0) translate(4 130)">
<title>Network::TransportLayer::ASocket</title>
<!-- Node1 -->
<g id="Node000001" class="node">
<title>Node1</title>
<g id="a_Node000001"><a xlink:title=" ">
<polygon fill="#999999" stroke="#666666" points="308,-78 172,-78 172,-48 308,-48 308,-78"/>
<text text-anchor="start" x="180" y="-66" font-family="Helvetica,sans-Serif" font-size="10.00">Network::TransportLayer</text>
<text text-anchor="middle" x="240" y="-55" font-family="Helvetica,sans-Serif" font-size="10.00">::ASocket</text>
</a>
</g>
</g>
<!-- Node3 -->
<g id="Node000003" class="node">
<title>Node3</title>
<g id="a_Node000003"><a xlink:href="classNetwork_1_1TransportLayer_1_1TCPSocket.html" target="_top" xlink:title="TCP socket wrapper providing connect/accept helpers.">
<polygon fill="white" stroke="#666666" points="480,-126 344,-126 344,-96 480,-96 480,-126"/>
<text text-anchor="start" x="352" y="-114" font-family="Helvetica,sans-Serif" font-size="10.00">Network::TransportLayer</text>
<text text-anchor="middle" x="412" y="-103" font-family="Helvetica,sans-Serif" font-size="10.00">::TCPSocket</text>
</a>
</g>
</g>
<!-- Node1&#45;&gt;Node3 -->
<g id="edge2_Node000001_Node000003" class="edge">
<title>Node1&#45;&gt;Node3</title>
<g id="a_edge2_Node000001_Node000003"><a xlink:title=" ">
<path fill="none" stroke="#63b8ff" d="M304,-80.79C321.71,-85.79 340.79,-91.18 357.87,-96"/>
<polygon fill="#63b8ff" stroke="#63b8ff" points="304.9,-77.4 294.32,-78.06 303,-84.14 304.9,-77.4"/>
</a>
</g>
</g>
<!-- Node4 -->
<g id="Node000004" class="node">
<title>Node4</title>
<g id="a_Node000004"><a xlink:href="classNetwork_1_1TransportLayer_1_1UDPSocket.html" target="_top" xlink:title="UDP Socket class inheriting from ASocket.">
<polygon fill="white" stroke="#666666" points="480,-78 344,-78 344,-48 480,-48 480,-78"/>
<text text-anchor="start" x="352" y="-66" font-family="Helvetica,sans-Serif" font-size="10.00">Network::TransportLayer</text>
<text text-anchor="middle" x="412" y="-55" font-family="Helvetica,sans-Serif" font-size="10.00">::UDPSocket</text>
</a>
</g>
</g>
<!-- Node1&#45;&gt;Node4 -->
<g id="edge3_Node000001_Node000004" class="edge">
<title>Node1&#45;&gt;Node4</title>
<g id="a_edge3_Node000001_Node000004"><a xlink:title=" ">
<path fill="none" stroke="#63b8ff" d="M318.42,-63C326.88,-63 335.43,-63 343.74,-63"/>
<polygon fill="#63b8ff" stroke="#63b8ff" points="318.19,-59.5 308.19,-63 318.19,-66.5 318.19,-59.5"/>
</a>
</g>
</g>
<!-- Node5 -->
<g id="Node000005" class="node">
<title>Node5</title>
<g id="a_Node000005"><a xlink:href="classNetwork_1_1TransportLayer_1_1UnixSocket.html" target="_top" xlink:title=" ">
<polygon fill="white" stroke="#666666" points="480,-30 344,-30 344,0 480,0 480,-30"/>
<text text-anchor="start" x="352" y="-18" font-family="Helvetica,sans-Serif" font-size="10.00">Network::TransportLayer</text>
<text text-anchor="middle" x="412" y="-7" font-family="Helvetica,sans-Serif" font-size="10.00">::UnixSocket</text>
</a>
</g>
</g>
<!-- Node1&#45;&gt;Node5 -->
<g id="edge4_Node000001_Node000005" class="edge">
<title>Node1&#45;&gt;Node5</title>
<g id="a_edge4_Node000001_Node000005"><a xlink:title=" ">
<path fill="none" stroke="#63b8ff" d="M304,-45.21C321.71,-40.21 340.79,-34.82 357.87,-30"/>
<polygon fill="#63b8ff" stroke="#63b8ff" points="303,-41.86 294.32,-47.94 304.9,-48.6 303,-41.86"/>
</a>
</g>
</g>
<!-- Node2 -->
<g id="Node000002" class="node">
<title>Node2</title>
<g id="a_Node000002"><a xlink:href="classNetwork_1_1TransportLayer_1_1ISocket.html" target="_top" xlink:title="Interface for socket operations.">
<polygon fill="white" stroke="#666666" points="136,-78 0,-78 0,-48 136,-48 136,-78"/>
<text text-anchor="start" x="8" y="-66" font-family="Helvetica,sans-Serif" font-size="10.00">Network::TransportLayer</text>
<text text-anchor="middle" x="68" y="-55" font-family="Helvetica,sans-Serif" font-size="10.00">::ISocket</text>
</a>
</g>
</g>
<!-- Node2&#45;&gt;Node1 -->
<g id="edge1_Node000001_Node000002" class="edge">
<title>Node2&#45;&gt;Node1</title>
<g id="a_edge1_Node000001_Node000002"><a xlink:title=" ">
<path fill="none" stroke="#63b8ff" d="M146.42,-63C154.88,-63 163.43,-63 171.74,-63"/>
<polygon fill="#63b8ff" stroke="#63b8ff" points="146.19,-59.5 136.19,-63 146.19,-66.5 146.19,-59.5"/>
</a>
</g>
</g>
</g>
</svg>
