<?xml version="1.0" encoding="UTF-8" standalone="no"?>
<!DOCTYPE svg PUBLIC "-//W3C//DTD SVG 1.1//EN"
 "http://www.w3.org/Graphics/SVG/1.1/DTD/svg11.dtd">
<!-- Generated by graphviz version 2.43.0 (0)
 -->
<!-- Title: TCPServer::processIpcMessages Pages: 1 -->
<svg width="1256pt" height="188pt"
 viewBox="0.00 0.00 1256.00 188.00" xmlns="http://www.w3.org/2000/svg" xmlns:xlink="http://www.w3.org/1999/xlink">
<g id="graph0" class="graph" transform="scale(1 1) rotate(0) translate(4 184)">
<title>TCPServer::processIpcMessages</title>
<!-- Node1 -->
<g id="Node000001" class="node">
<title>Node1</title>
<g id="a_Node000001"><a xlink:title=" ">
<polygon fill="#999999" stroke="#666666" points="173,-99 0,-99 0,-80 173,-80 173,-99"/>
<text text-anchor="middle" x="86.5" y="-87" font-family="Helvetica,sans-Serif" font-size="10.00">TCPServer::processIpcMessages</text>
</a>
</g>
</g>
<!-- Node2 -->
<g id="Node000002" class="node">
<title>Node2</title>
<g id="a_Node000002"><a xlink:href="classTCPServer.html#afb22938cbabd280ec30b3ffab25aeb56" target="_top" xlink:title=" ">
<polygon fill="white" stroke="#666666" points="777,-180 617,-180 617,-161 777,-161 777,-180"/>
<text text-anchor="middle" x="697" y="-168" font-family="Helvetica,sans-Serif" font-size="10.00">TCPServer::broadcastToLobby</text>
</a>
</g>
</g>
<!-- Node1&#45;&gt;Node2 -->
<g id="edge1_Node000001_Node000002" class="edge">
<title>Node1&#45;&gt;Node2</title>
<g id="a_edge1_Node000001_Node000002"><a xlink:title=" ">
<path fill="none" stroke="#63b8ff" d="M102.88,-99.13C125.25,-112.57 168.53,-136.43 209,-146.5 344.47,-180.22 507.5,-180.45 606.36,-176.35"/>
<polygon fill="#63b8ff" stroke="#63b8ff" points="606.78,-179.84 616.61,-175.9 606.47,-172.85 606.78,-179.84"/>
</a>
</g>
</g>
<!-- Node3 -->
<g id="Node000003" class="node">
<title>Node3</title>
<g id="a_Node000003"><a xlink:href="classTCPServer.html#a9a65a3923e77e48c5f0019b45af8fcb5" target="_top" xlink:title="Send a packet to a specific client fd.">
<polygon fill="white" stroke="#666666" points="948.5,-142 821.5,-142 821.5,-123 948.5,-123 948.5,-142"/>
<text text-anchor="middle" x="885" y="-130" font-family="Helvetica,sans-Serif" font-size="10.00">TCPServer::sendPacket</text>
</a>
</g>
</g>
<!-- Node1&#45;&gt;Node3 -->
<g id="edge15_Node000001_Node000003" class="edge">
<title>Node1&#45;&gt;Node3</title>
<g id="a_edge15_Node000001_Node000003"><a xlink:title=" ">
<path fill="none" stroke="#63b8ff" d="M126.91,-99.02C150.56,-104.29 181.33,-110.4 209,-113.5 427.14,-137.94 687.27,-136.79 811.28,-134.41"/>
<polygon fill="#63b8ff" stroke="#63b8ff" points="811.48,-137.91 821.41,-134.21 811.34,-130.91 811.48,-137.91"/>
</a>
</g>
</g>
<!-- Node8 -->
<g id="Node000008" class="node">
<title>Node8</title>
<g id="a_Node000008"><a xlink:href="classChildProcessManager.html#ad5e9300f230cd2aa806b8b2f91c40939" target="_top" xlink:title="Remove tracking info (does not kill).">
<polygon fill="white" stroke="#666666" points="352,-104.5 230,-104.5 230,-74.5 352,-74.5 352,-104.5"/>
<text text-anchor="start" x="238" y="-92.5" font-family="Helvetica,sans-Serif" font-size="10.00">ChildProcessManager</text>
<text text-anchor="middle" x="291" y="-81.5" font-family="Helvetica,sans-Serif" font-size="10.00">::forget</text>
</a>
</g>
</g>
<!-- Node1&#45;&gt;Node8 -->
<g id="edge7_Node000001_Node000008" class="edge">
<title>Node1&#45;&gt;Node8</title>
<g id="a_edge7_Node000001_Node000008"><a xlink:title=" ">
<path fill="none" stroke="#63b8ff" d="M173.08,-89.5C188.61,-89.5 204.64,-89.5 219.66,-89.5"/>
<polygon fill="#63b8ff" stroke="#63b8ff" points="219.88,-93 229.88,-89.5 219.88,-86 219.88,-93"/>
</a>
</g>
</g>
<!-- Node9 -->
<g id="Node000009" class="node">
<title>Node9</title>
<g id="a_Node000009"><a xlink:href="classTCPServer.html#a35b89efbda16dd8af6b7ff45b6da036d" target="_top" xlink:title="Build a packet carrying a string payload.">
<polygon fill="white" stroke="#666666" points="370.5,-56 211.5,-56 211.5,-37 370.5,-37 370.5,-56"/>
<text text-anchor="middle" x="291" y="-44" font-family="Helvetica,sans-Serif" font-size="10.00">TCPServer::makeStringPacket</text>
</a>
</g>
</g>
<!-- Node1&#45;&gt;Node9 -->
<g id="edge8_Node000001_Node000009" class="edge">
<title>Node1&#45;&gt;Node9</title>
<g id="a_edge8_Node000001_Node000009"><a xlink:title=" ">
<path fill="none" stroke="#63b8ff" d="M132.44,-79.96C162.72,-73.53 202.85,-65 235.04,-58.17"/>
<polygon fill="#63b8ff" stroke="#63b8ff" points="236.13,-61.52 245.18,-56.02 234.68,-54.67 236.13,-61.52"/>
</a>
</g>
</g>
<!-- Node10 -->
<g id="Node000010" class="node">
<title>Node10</title>
<g id="a_Node000010"><a xlink:href="classTCPServer.html#a508cc3d7023b0cfe9abed2e3166b1682" target="_top" xlink:title="Remove a client from its current lobby.">
<polygon fill="white" stroke="#666666" points="373,-19 209,-19 209,0 373,0 373,-19"/>
<text text-anchor="middle" x="291" y="-7" font-family="Helvetica,sans-Serif" font-size="10.00">TCPServer::removeFromLobby</text>
</a>
</g>
</g>
<!-- Node1&#45;&gt;Node10 -->
<g id="edge9_Node000001_Node000010" class="edge">
<title>Node1&#45;&gt;Node10</title>
<g id="a_edge9_Node000001_Node000010"><a xlink:title=" ">
<path fill="none" stroke="#63b8ff" d="M103.04,-79.94C125.6,-66.44 169.11,-41.85 209,-27.5 215.05,-25.32 221.45,-23.36 227.9,-21.6"/>
<polygon fill="#63b8ff" stroke="#63b8ff" points="229.21,-24.88 238.02,-19 227.47,-18.1 229.21,-24.88"/>
</a>
</g>
</g>
<!-- Node2&#45;&gt;Node3 -->
<g id="edge2_Node000002_Node000003" class="edge">
<title>Node2&#45;&gt;Node3</title>
<g id="a_edge2_Node000002_Node000003"><a xlink:title=" ">
<path fill="none" stroke="#63b8ff" d="M744.94,-160.91C770.03,-155.78 801.12,-149.43 827.53,-144.04"/>
<polygon fill="#63b8ff" stroke="#63b8ff" points="828.3,-147.45 837.4,-142.02 826.9,-140.59 828.3,-147.45"/>
</a>
</g>
</g>
<!-- Node4 -->
<g id="Node000004" class="node">
<title>Node4</title>
<g id="a_Node000004"><a xlink:href="namespaceProtocol.html#a668bdeed219432868fca095e1b2f2667" target="_top" xlink:title="Build a TCP framed buffer (2 bytes length + serialized packet).">
<polygon fill="white" stroke="#666666" points="1101.5,-160 994.5,-160 994.5,-141 1101.5,-141 1101.5,-160"/>
<text text-anchor="middle" x="1048" y="-148" font-family="Helvetica,sans-Serif" font-size="10.00">Protocol::frameTcp</text>
</a>
</g>
</g>
<!-- Node3&#45;&gt;Node4 -->
<g id="edge3_Node000003_Node000004" class="edge">
<title>Node3&#45;&gt;Node4</title>
<g id="a_edge3_Node000003_Node000004"><a xlink:title=" ">
<path fill="none" stroke="#63b8ff" d="M948.71,-139.51C960.39,-140.82 972.59,-142.18 984.27,-143.49"/>
<polygon fill="#63b8ff" stroke="#63b8ff" points="984.04,-146.98 994.37,-144.62 984.82,-140.03 984.04,-146.98"/>
</a>
</g>
</g>
<!-- Node6 -->
<g id="Node000006" class="node">
<title>Node6</title>
<g id="a_Node000006"><a xlink:href="classTCPServer.html#a79e20e1d2821e399fe47dd1055341d5e" target="_top" xlink:title="Ensure the full buffer is written to the socket.">
<polygon fill="white" stroke="#666666" points="1103,-123 993,-123 993,-104 1103,-104 1103,-123"/>
<text text-anchor="middle" x="1048" y="-111" font-family="Helvetica,sans-Serif" font-size="10.00">TCPServer::writeAll</text>
</a>
</g>
</g>
<!-- Node3&#45;&gt;Node6 -->
<g id="edge5_Node000003_Node000006" class="edge">
<title>Node3&#45;&gt;Node6</title>
<g id="a_edge5_Node000003_Node000006"><a xlink:title=" ">
<path fill="none" stroke="#63b8ff" d="M948.71,-125.1C959.86,-123.78 971.5,-122.41 982.69,-121.09"/>
<polygon fill="#63b8ff" stroke="#63b8ff" points="983.31,-124.54 992.83,-119.89 982.49,-117.59 983.31,-124.54"/>
</a>
</g>
</g>
<!-- Node5 -->
<g id="Node000005" class="node">
<title>Node5</title>
<g id="a_Node000005"><a xlink:href="classPacket.html#aa88c2d28796644c8a1d6137996502ca8" target="_top" xlink:title="Serialize the packet to a byte buffer ready to send.">
<polygon fill="white" stroke="#666666" points="1241,-160 1146,-160 1146,-141 1241,-141 1241,-160"/>
<text text-anchor="middle" x="1193.5" y="-148" font-family="Helvetica,sans-Serif" font-size="10.00">Packet::serialize</text>
</a>
</g>
</g>
<!-- Node4&#45;&gt;Node5 -->
<g id="edge4_Node000004_Node000005" class="edge">
<title>Node4&#45;&gt;Node5</title>
<g id="a_edge4_Node000004_Node000005"><a xlink:title=" ">
<path fill="none" stroke="#63b8ff" d="M1101.62,-150.5C1112.64,-150.5 1124.32,-150.5 1135.49,-150.5"/>
<polygon fill="#63b8ff" stroke="#63b8ff" points="1135.58,-154 1145.58,-150.5 1135.58,-147 1135.58,-154"/>
</a>
</g>
</g>
<!-- Node7 -->
<g id="Node000007" class="node">
<title>Node7</title>
<g id="a_Node000007"><a xlink:href="classTCPServer.html#a5b1988f8a542c2d39f3d3556264e71b2" target="_top" xlink:title="Write raw bytes to a socket fd.">
<polygon fill="white" stroke="#666666" points="1248,-123 1139,-123 1139,-104 1248,-104 1248,-123"/>
<text text-anchor="middle" x="1193.5" y="-111" font-family="Helvetica,sans-Serif" font-size="10.00">TCPServer::writeFd</text>
</a>
</g>
</g>
<!-- Node6&#45;&gt;Node7 -->
<g id="edge6_Node000006_Node000007" class="edge">
<title>Node6&#45;&gt;Node7</title>
<g id="a_edge6_Node000006_Node000007"><a xlink:title=" ">
<path fill="none" stroke="#63b8ff" d="M1103.25,-113.5C1111.49,-113.5 1120.06,-113.5 1128.48,-113.5"/>
<polygon fill="#63b8ff" stroke="#63b8ff" points="1128.65,-117 1138.65,-113.5 1128.65,-110 1128.65,-117"/>
</a>
</g>
</g>
<!-- Node11 -->
<g id="Node000011" class="node">
<title>Node11</title>
<g id="a_Node000011"><a xlink:href="classTCPServer.html#a8d2dcfc8d8337ff577a101c4aee6aac5" target="_top" xlink:title="Resend the player list to all members of a lobby.">
<polygon fill="white" stroke="#666666" points="563,-67 427,-67 427,-48 563,-48 563,-67"/>
<text text-anchor="middle" x="495" y="-55" font-family="Helvetica,sans-Serif" font-size="10.00">TCPServer::refreshLobby</text>
</a>
</g>
</g>
<!-- Node10&#45;&gt;Node11 -->
<g id="edge10_Node000010_Node000011" class="edge">
<title>Node10&#45;&gt;Node11</title>
<g id="a_edge10_Node000010_Node000011"><a xlink:title=" ">
<path fill="none" stroke="#63b8ff" d="M335.76,-19.02C347.84,-21.7 360.94,-24.67 373,-27.5 397.3,-33.21 424.26,-39.87 446.56,-45.45"/>
<polygon fill="#63b8ff" stroke="#63b8ff" points="445.9,-48.9 456.45,-47.94 447.6,-42.11 445.9,-48.9"/>
</a>
</g>
</g>
<!-- Node14 -->
<g id="Node000014" class="node">
<title>Node14</title>
<g id="a_Node000014"><a xlink:href="classSessionManager.html#a8023cf136e039298b1e2ba5fe7cb224b" target="_top" xlink:title="Store the lobby code for a player.">
<polygon fill="white" stroke="#666666" points="581,-19 409,-19 409,0 581,0 581,-19"/>
<text text-anchor="middle" x="495" y="-7" font-family="Helvetica,sans-Serif" font-size="10.00">SessionManager::setLobbyCode</text>
</a>
</g>
</g>
<!-- Node10&#45;&gt;Node14 -->
<g id="edge14_Node000010_Node000014" class="edge">
<title>Node10&#45;&gt;Node14</title>
<g id="a_edge14_Node000010_Node000014"><a xlink:title=" ">
<path fill="none" stroke="#63b8ff" d="M373.29,-9.5C381.72,-9.5 390.34,-9.5 398.91,-9.5"/>
<polygon fill="#63b8ff" stroke="#63b8ff" points="398.92,-13 408.92,-9.5 398.92,-6 398.92,-13"/>
</a>
</g>
</g>
<!-- Node12 -->
<g id="Node000012" class="node">
<title>Node12</title>
<g id="a_Node000012"><a xlink:href="classTCPServer.html#aa87b20fb76f60c19df36f39ef3621b05" target="_top" xlink:title="Send the current player list to a single client.">
<polygon fill="white" stroke="#666666" points="768.5,-93.5 625.5,-93.5 625.5,-63.5 768.5,-63.5 768.5,-93.5"/>
<text text-anchor="start" x="633.5" y="-81.5" font-family="Helvetica,sans-Serif" font-size="10.00">TCPServer::sendPlayerList</text>
<text text-anchor="middle" x="697" y="-70.5" font-family="Helvetica,sans-Serif" font-size="10.00">ToClient</text>
</a>
</g>
</g>
<!-- Node11&#45;&gt;Node12 -->
<g id="edge11_Node000011_Node000012" class="edge">
<title>Node11&#45;&gt;Node12</title>
<g id="a_edge11_Node000011_Node000012"><a xlink:title=" ">
<path fill="none" stroke="#63b8ff" d="M563.15,-64.55C579.85,-66.3 597.92,-68.2 615.2,-70.02"/>
<polygon fill="#63b8ff" stroke="#63b8ff" points="614.95,-73.51 625.26,-71.07 615.68,-66.55 614.95,-73.51"/>
</a>
</g>
</g>
<!-- Node12&#45;&gt;Node3 -->
<g id="edge13_Node000012_Node000003" class="edge">
<title>Node12&#45;&gt;Node3</title>
<g id="a_edge13_Node000012_Node000003"><a xlink:title=" ">
<path fill="none" stroke="#63b8ff" d="M749.81,-93.54C778.72,-101.94 814.29,-112.26 841.54,-120.17"/>
<polygon fill="#63b8ff" stroke="#63b8ff" points="840.6,-123.54 851.18,-122.97 842.55,-116.82 840.6,-123.54"/>
</a>
</g>
</g>
<!-- Node13 -->
<g id="Node000013" class="node">
<title>Node13</title>
<g id="a_Node000013"><a xlink:href="classTCPServer.html#a196ba30f88f890e9acf0ef1a21a74c71" target="_top" xlink:title="Build the packet containing the list of connected players.">
<polygon fill="white" stroke="#666666" points="957,-93.5 813,-93.5 813,-63.5 957,-63.5 957,-93.5"/>
<text text-anchor="start" x="821" y="-81.5" font-family="Helvetica,sans-Serif" font-size="10.00">TCPServer::buildPlayerList</text>
<text text-anchor="middle" x="885" y="-70.5" font-family="Helvetica,sans-Serif" font-size="10.00">Packet</text>
</a>
</g>
</g>
<!-- Node12&#45;&gt;Node13 -->
<g id="edge12_Node000012_Node000013" class="edge">
<title>Node12&#45;&gt;Node13</title>
<g id="a_edge12_Node000012_Node000013"><a xlink:title=" ">
<path fill="none" stroke="#63b8ff" d="M768.58,-78.5C779.68,-78.5 791.22,-78.5 802.54,-78.5"/>
<polygon fill="#63b8ff" stroke="#63b8ff" points="802.85,-82 812.85,-78.5 802.85,-75 802.85,-82"/>
</a>
</g>
</g>
</g>
</svg>
