<?xml version="1.0" encoding="UTF-8" standalone="no"?>
<!DOCTYPE svg PUBLIC "-//W3C//DTD SVG 1.1//EN"
 "http://www.w3.org/Graphics/SVG/1.1/DTD/svg11.dtd">
<!-- Generated by graphviz version 2.43.0 (0)
 -->
<!-- Title: TCPServer::handleLobbyPacket Pages: 1 -->
<svg width="1476pt" height="437pt"
 viewBox="0.00 0.00 1476.00 436.50" xmlns="http://www.w3.org/2000/svg" xmlns:xlink="http://www.w3.org/1999/xlink">
<g id="graph0" class="graph" transform="scale(1 1) rotate(0) translate(4 432.5)">
<title>TCPServer::handleLobbyPacket</title>
<!-- Node1 -->
<g id="Node000001" class="node">
<title>Node1</title>
<g id="a_Node000001"><a xlink:title="Handle lobby&#45;related packets for a client.">
<polygon fill="#999999" stroke="#666666" points="166,-132 0,-132 0,-113 166,-113 166,-132"/>
<text text-anchor="middle" x="83" y="-120" font-family="Helvetica,sans-Serif" font-size="10.00">TCPServer::handleLobbyPacket</text>
</a>
</g>
</g>
<!-- Node2 -->
<g id="Node000002" class="node">
<title>Node2</title>
<g id="a_Node000002"><a xlink:href="classTCPServer.html#a84035146c9257be5714850a1f46d0bfb" target="_top" xlink:title="Assign a client to a lobby (public or private).">
<polygon fill="white" stroke="#666666" points="353.5,-265 220.5,-265 220.5,-246 353.5,-246 353.5,-265"/>
<text text-anchor="middle" x="287" y="-253" font-family="Helvetica,sans-Serif" font-size="10.00">TCPServer::assignLobby</text>
</a>
</g>
</g>
<!-- Node1&#45;&gt;Node2 -->
<g id="edge1_Node000001_Node000002" class="edge">
<title>Node1&#45;&gt;Node2</title>
<g id="a_edge1_Node000001_Node000002"><a xlink:title=" ">
<path fill="none" stroke="#63b8ff" d="M95.23,-132.16C115.65,-149.47 160.59,-186.4 202,-212.5 219.15,-223.31 239.34,-233.71 255.63,-241.58"/>
<polygon fill="#63b8ff" stroke="#63b8ff" points="254.18,-244.77 264.72,-245.9 257.19,-238.44 254.18,-244.77"/>
</a>
</g>
</g>
<!-- Node9 -->
<g id="Node000009" class="node">
<title>Node9</title>
<g id="a_Node000009"><a xlink:href="classTCPServer.html#a8d2dcfc8d8337ff577a101c4aee6aac5" target="_top" xlink:title="Resend the player list to all members of a lobby.">
<polygon fill="white" stroke="#666666" points="770,-208 634,-208 634,-189 770,-189 770,-208"/>
<text text-anchor="middle" x="702" y="-196" font-family="Helvetica,sans-Serif" font-size="10.00">TCPServer::refreshLobby</text>
</a>
</g>
</g>
<!-- Node1&#45;&gt;Node9 -->
<g id="edge22_Node000001_Node000009" class="edge">
<title>Node1&#45;&gt;Node9</title>
<g id="a_edge22_Node000001_Node000009"><a xlink:title=" ">
<path fill="none" stroke="#63b8ff" d="M100.51,-132.12C122.73,-144.51 163.87,-165.51 202,-174.5 347.94,-208.91 524.34,-207.79 623.5,-203.44"/>
<polygon fill="#63b8ff" stroke="#63b8ff" points="623.91,-206.92 633.74,-202.96 623.58,-199.93 623.91,-206.92"/>
</a>
</g>
</g>
<!-- Node10 -->
<g id="Node000010" class="node">
<title>Node10</title>
<g id="a_Node000010"><a xlink:href="classTCPServer.html#aa87b20fb76f60c19df36f39ef3621b05" target="_top" xlink:title="Send the current player list to a single client.">
<polygon fill="white" stroke="#666666" points="982,-180.5 839,-180.5 839,-150.5 982,-150.5 982,-180.5"/>
<text text-anchor="start" x="847" y="-168.5" font-family="Helvetica,sans-Serif" font-size="10.00">TCPServer::sendPlayerList</text>
<text text-anchor="middle" x="910.5" y="-157.5" font-family="Helvetica,sans-Serif" font-size="10.00">ToClient</text>
</a>
</g>
</g>
<!-- Node1&#45;&gt;Node10 -->
<g id="edge24_Node000001_Node000010" class="edge">
<title>Node1&#45;&gt;Node10</title>
<g id="a_edge24_Node000001_Node000010"><a xlink:title=" ">
<path fill="none" stroke="#63b8ff" d="M156.62,-132.01C171.6,-133.72 187.3,-135.33 202,-136.5 428.55,-154.56 696.85,-161.66 828.46,-164.21"/>
<polygon fill="#63b8ff" stroke="#63b8ff" points="828.78,-167.72 838.85,-164.41 828.92,-160.72 828.78,-167.72"/>
</a>
</g>
</g>
<!-- Node12 -->
<g id="Node000012" class="node">
<title>Node12</title>
<g id="a_Node000012"><a xlink:href="classTCPServer.html#a9a65a3923e77e48c5f0019b45af8fcb5" target="_top" xlink:title="Send a packet to a specific client fd.">
<polygon fill="white" stroke="#666666" points="1168.5,-132 1041.5,-132 1041.5,-113 1168.5,-113 1168.5,-132"/>
<text text-anchor="middle" x="1105" y="-120" font-family="Helvetica,sans-Serif" font-size="10.00">TCPServer::sendPacket</text>
</a>
</g>
</g>
<!-- Node1&#45;&gt;Node12 -->
<g id="edge23_Node000001_Node000012" class="edge">
<title>Node1&#45;&gt;Node12</title>
<g id="a_edge23_Node000001_Node000012"><a xlink:title=" ">
<path fill="none" stroke="#63b8ff" d="M166.26,-122.5C248.85,-122.5 379.74,-122.5 493,-122.5 493,-122.5 493,-122.5 703,-122.5 817.83,-122.5 951.16,-122.5 1031.48,-122.5"/>
<polygon fill="#63b8ff" stroke="#63b8ff" points="1031.49,-126 1041.49,-122.5 1031.49,-119 1031.49,-126"/>
</a>
</g>
</g>
<!-- Node18 -->
<g id="Node000018" class="node">
<title>Node18</title>
<g id="a_Node000018"><a xlink:href="classTCPServer.html#aee3fb51b52375d68f548f60cc7005ef0" target="_top" xlink:title="Notify all clients of a newly connected player.">
<polygon fill="white" stroke="#666666" points="997,-94 824,-94 824,-75 997,-75 997,-94"/>
<text text-anchor="middle" x="910.5" y="-82" font-family="Helvetica,sans-Serif" font-size="10.00">TCPServer::broadcastNewPlayer</text>
</a>
</g>
</g>
<!-- Node1&#45;&gt;Node18 -->
<g id="edge18_Node000001_Node000018" class="edge">
<title>Node1&#45;&gt;Node18</title>
<g id="a_edge18_Node000001_Node000018"><a xlink:title=" ">
<path fill="none" stroke="#63b8ff" d="M155.98,-112.98C171.16,-111.25 187.09,-109.64 202,-108.5 420.27,-91.88 677.29,-86.77 813.49,-85.2"/>
<polygon fill="#63b8ff" stroke="#63b8ff" points="813.92,-88.69 823.88,-85.08 813.84,-81.69 813.92,-88.69"/>
</a>
</g>
</g>
<!-- Node19 -->
<g id="Node000019" class="node">
<title>Node19</title>
<g id="a_Node000019"><a xlink:href="classTCPServer.html#a063b685012f0cd7b069ad82dbffcb95f" target="_top" xlink:title="Generate a random lobby code (6 chars alnum).">
<polygon fill="white" stroke="#666666" points="372,-56 202,-56 202,-37 372,-37 372,-56"/>
<text text-anchor="middle" x="287" y="-44" font-family="Helvetica,sans-Serif" font-size="10.00">TCPServer::generateLobbyCode</text>
</a>
</g>
</g>
<!-- Node1&#45;&gt;Node19 -->
<g id="edge20_Node000001_Node000019" class="edge">
<title>Node1&#45;&gt;Node19</title>
<g id="a_edge20_Node000001_Node000019"><a xlink:title=" ">
<path fill="none" stroke="#63b8ff" d="M103.7,-112.82C126.86,-101.68 166.63,-83.28 202,-70.5 213.7,-66.27 226.53,-62.29 238.56,-58.83"/>
<polygon fill="#63b8ff" stroke="#63b8ff" points="239.76,-62.13 248.43,-56.05 237.86,-55.39 239.76,-62.13"/>
</a>
</g>
</g>
<!-- Node20 -->
<g id="Node000020" class="node">
<title>Node20</title>
<g id="a_Node000020"><a xlink:href="classTCPServer.html#ae45d63761257c84a68a96c24541c13e4" target="_top" xlink:title=" ">
<polygon fill="white" stroke="#666666" points="367,-19 207,-19 207,0 367,0 367,-19"/>
<text text-anchor="middle" x="287" y="-7" font-family="Helvetica,sans-Serif" font-size="10.00">TCPServer::makeLobbyPacket</text>
</a>
</g>
</g>
<!-- Node1&#45;&gt;Node20 -->
<g id="edge21_Node000001_Node000020" class="edge">
<title>Node1&#45;&gt;Node20</title>
<g id="a_edge21_Node000001_Node000020"><a xlink:title=" ">
<path fill="none" stroke="#63b8ff" d="M92.74,-112.94C111.01,-93.58 155.46,-49.66 202,-27.5 206.13,-25.54 210.47,-23.78 214.91,-22.22"/>
<polygon fill="#63b8ff" stroke="#63b8ff" points="216.3,-25.45 224.77,-19.09 214.18,-18.78 216.3,-25.45"/>
</a>
</g>
</g>
<!-- Node3 -->
<g id="Node000003" class="node">
<title>Node3</title>
<g id="a_Node000003"><a xlink:href="classTCPServer.html#a30203c2836aa52676f3e6205d8730943" target="_top" xlink:title=" ">
<polygon fill="white" stroke="#666666" points="580,-337 408,-337 408,-318 580,-318 580,-337"/>
<text text-anchor="middle" x="494" y="-325" font-family="Helvetica,sans-Serif" font-size="10.00">TCPServer::ensureLobbyProcess</text>
</a>
</g>
</g>
<!-- Node2&#45;&gt;Node3 -->
<g id="edge2_Node000002_Node000003" class="edge">
<title>Node2&#45;&gt;Node3</title>
<g id="a_edge2_Node000002_Node000003"><a xlink:title=" ">
<path fill="none" stroke="#63b8ff" d="M315.22,-265.06C351.44,-277.78 415.62,-300.32 456.15,-314.56"/>
<polygon fill="#63b8ff" stroke="#63b8ff" points="455.07,-317.89 465.66,-317.9 457.39,-311.28 455.07,-317.89"/>
</a>
</g>
</g>
<!-- Node8 -->
<g id="Node000008" class="node">
<title>Node8</title>
<g id="a_Node000008"><a xlink:href="classTCPServer.html#a508cc3d7023b0cfe9abed2e3166b1682" target="_top" xlink:title="Remove a client from its current lobby.">
<polygon fill="white" stroke="#666666" points="576,-246 412,-246 412,-227 576,-227 576,-246"/>
<text text-anchor="middle" x="494" y="-234" font-family="Helvetica,sans-Serif" font-size="10.00">TCPServer::removeFromLobby</text>
</a>
</g>
</g>
<!-- Node2&#45;&gt;Node8 -->
<g id="edge7_Node000002_Node000008" class="edge">
<title>Node2&#45;&gt;Node8</title>
<g id="a_edge7_Node000002_Node000008"><a xlink:title=" ">
<path fill="none" stroke="#63b8ff" d="M353.71,-249.41C369.03,-247.99 385.62,-246.45 401.83,-244.95"/>
<polygon fill="#63b8ff" stroke="#63b8ff" points="402.22,-248.43 411.85,-244.02 401.57,-241.46 402.22,-248.43"/>
</a>
</g>
</g>
<!-- Node17 -->
<g id="Node000017" class="node">
<title>Node17</title>
<g id="a_Node000017"><a xlink:href="classSessionManager.html#a8023cf136e039298b1e2ba5fe7cb224b" target="_top" xlink:title="Store the lobby code for a player.">
<polygon fill="white" stroke="#666666" points="788,-246 616,-246 616,-227 788,-227 788,-246"/>
<text text-anchor="middle" x="702" y="-234" font-family="Helvetica,sans-Serif" font-size="10.00">SessionManager::setLobbyCode</text>
</a>
</g>
</g>
<!-- Node2&#45;&gt;Node17 -->
<g id="edge17_Node000002_Node000017" class="edge">
<title>Node2&#45;&gt;Node17</title>
<g id="a_edge17_Node000002_Node000017"><a xlink:title=" ">
<path fill="none" stroke="#63b8ff" d="M353.64,-258.41C412.89,-260.35 502.42,-261.55 580,-255.5 600.22,-253.92 622.17,-250.88 641.75,-247.69"/>
<polygon fill="#63b8ff" stroke="#63b8ff" points="642.47,-251.12 651.75,-246.01 641.31,-244.21 642.47,-251.12"/>
</a>
</g>
</g>
<!-- Node4 -->
<g id="Node000004" class="node">
<title>Node4</title>
<g id="a_Node000004"><a xlink:href="classChildProcessManager.html#af9be1ce64da7e05952b231b22df221a0" target="_top" xlink:title=" ">
<polygon fill="white" stroke="#666666" points="763,-428.5 641,-428.5 641,-398.5 763,-398.5 763,-428.5"/>
<text text-anchor="start" x="649" y="-416.5" font-family="Helvetica,sans-Serif" font-size="10.00">ChildProcessManager</text>
<text text-anchor="middle" x="702" y="-405.5" font-family="Helvetica,sans-Serif" font-size="10.00">::activeCount</text>
</a>
</g>
</g>
<!-- Node3&#45;&gt;Node4 -->
<g id="edge3_Node000003_Node000004" class="edge">
<title>Node3&#45;&gt;Node4</title>
<g id="a_edge3_Node000003_Node000004"><a xlink:title=" ">
<path fill="none" stroke="#63b8ff" d="M511.35,-337.2C534.16,-350.43 577.11,-374.22 616,-389.5 621.17,-391.53 626.59,-393.47 632.07,-395.3"/>
<polygon fill="#63b8ff" stroke="#63b8ff" points="631.38,-398.75 641.97,-398.47 633.51,-392.09 631.38,-398.75"/>
</a>
</g>
</g>
<!-- Node5 -->
<g id="Node000005" class="node">
<title>Node5</title>
<g id="a_Node000005"><a xlink:href="classTCPServer.html#a25273652d6d80037ec5bcad8725bd269" target="_top" xlink:title=" ">
<polygon fill="white" stroke="#666666" points="767.5,-380 636.5,-380 636.5,-361 767.5,-361 767.5,-380"/>
<text text-anchor="middle" x="702" y="-368" font-family="Helvetica,sans-Serif" font-size="10.00">TCPServer::allocatePort</text>
</a>
</g>
</g>
<!-- Node3&#45;&gt;Node5 -->
<g id="edge4_Node000003_Node000005" class="edge">
<title>Node3&#45;&gt;Node5</title>
<g id="a_edge4_Node000003_Node000005"><a xlink:title=" ">
<path fill="none" stroke="#63b8ff" d="M540.72,-337.04C571.66,-343.5 612.7,-352.07 645.51,-358.92"/>
<polygon fill="#63b8ff" stroke="#63b8ff" points="644.91,-362.37 655.41,-360.98 646.34,-355.51 644.91,-362.37"/>
</a>
</g>
</g>
<!-- Node6 -->
<g id="Node000006" class="node">
<title>Node6</title>
<g id="a_Node000006"><a xlink:href="classChildProcessManager.html#a3b7c34be0f81b8a841d4ecd28a837bf6" target="_top" xlink:title=" ">
<polygon fill="white" stroke="#666666" points="763,-342.5 641,-342.5 641,-312.5 763,-312.5 763,-342.5"/>
<text text-anchor="start" x="649" y="-330.5" font-family="Helvetica,sans-Serif" font-size="10.00">ChildProcessManager</text>
<text text-anchor="middle" x="702" y="-319.5" font-family="Helvetica,sans-Serif" font-size="10.00">::maxCount</text>
</a>
</g>
</g>
<!-- Node3&#45;&gt;Node6 -->
<g id="edge5_Node000003_Node000006" class="edge">
<title>Node3&#45;&gt;Node6</title>
<g id="a_edge5_Node000003_Node000006"><a xlink:title=" ">
<path fill="none" stroke="#63b8ff" d="M580.28,-327.5C596.98,-327.5 614.33,-327.5 630.49,-327.5"/>
<polygon fill="#63b8ff" stroke="#63b8ff" points="630.92,-331 640.92,-327.5 630.92,-324 630.92,-331"/>
</a>
</g>
</g>
<!-- Node7 -->
<g id="Node000007" class="node">
<title>Node7</title>
<g id="a_Node000007"><a xlink:href="classChildProcessManager.html#a138e2d098e92a2c6d1ad7b35dadd6541" target="_top" xlink:title="Spawn a UDP game server process.">
<polygon fill="white" stroke="#666666" points="763,-294.5 641,-294.5 641,-264.5 763,-264.5 763,-294.5"/>
<text text-anchor="start" x="649" y="-282.5" font-family="Helvetica,sans-Serif" font-size="10.00">ChildProcessManager</text>
<text text-anchor="middle" x="702" y="-271.5" font-family="Helvetica,sans-Serif" font-size="10.00">::spawn</text>
</a>
</g>
</g>
<!-- Node3&#45;&gt;Node7 -->
<g id="edge6_Node000003_Node000007" class="edge">
<title>Node3&#45;&gt;Node7</title>
<g id="a_edge6_Node000003_Node000007"><a xlink:title=" ">
<path fill="none" stroke="#63b8ff" d="M536.19,-317.9C563.21,-311.61 599.23,-303.21 630.7,-295.88"/>
<polygon fill="#63b8ff" stroke="#63b8ff" points="631.8,-299.22 640.74,-293.54 630.21,-292.4 631.8,-299.22"/>
</a>
</g>
</g>
<!-- Node8&#45;&gt;Node9 -->
<g id="edge8_Node000008_Node000009" class="edge">
<title>Node8&#45;&gt;Node9</title>
<g id="a_edge8_Node000008_Node000009"><a xlink:title=" ">
<path fill="none" stroke="#63b8ff" d="M546.72,-226.96C574.76,-221.79 609.6,-215.36 639.08,-209.92"/>
<polygon fill="#63b8ff" stroke="#63b8ff" points="640.06,-213.3 649.26,-208.04 638.79,-206.42 640.06,-213.3"/>
</a>
</g>
</g>
<!-- Node8&#45;&gt;Node17 -->
<g id="edge16_Node000008_Node000017" class="edge">
<title>Node8&#45;&gt;Node17</title>
<g id="a_edge16_Node000008_Node000017"><a xlink:title=" ">
<path fill="none" stroke="#63b8ff" d="M576.12,-236.5C585.81,-236.5 595.78,-236.5 605.65,-236.5"/>
<polygon fill="#63b8ff" stroke="#63b8ff" points="605.89,-240 615.89,-236.5 605.89,-233 605.89,-240"/>
</a>
</g>
</g>
<!-- Node9&#45;&gt;Node10 -->
<g id="edge9_Node000009_Node000010" class="edge">
<title>Node9&#45;&gt;Node10</title>
<g id="a_edge9_Node000009_Node000010"><a xlink:title=" ">
<path fill="none" stroke="#63b8ff" d="M762.45,-189C783.12,-185.7 806.65,-181.94 828.75,-178.4"/>
<polygon fill="#63b8ff" stroke="#63b8ff" points="829.46,-181.84 838.78,-176.8 828.35,-174.92 829.46,-181.84"/>
</a>
</g>
</g>
<!-- Node11 -->
<g id="Node000011" class="node">
<title>Node11</title>
<g id="a_Node000011"><a xlink:href="classTCPServer.html#a196ba30f88f890e9acf0ef1a21a74c71" target="_top" xlink:title="Build the packet containing the list of connected players.">
<polygon fill="white" stroke="#666666" points="1177,-180.5 1033,-180.5 1033,-150.5 1177,-150.5 1177,-180.5"/>
<text text-anchor="start" x="1041" y="-168.5" font-family="Helvetica,sans-Serif" font-size="10.00">TCPServer::buildPlayerList</text>
<text text-anchor="middle" x="1105" y="-157.5" font-family="Helvetica,sans-Serif" font-size="10.00">Packet</text>
</a>
</g>
</g>
<!-- Node10&#45;&gt;Node11 -->
<g id="edge10_Node000010_Node000011" class="edge">
<title>Node10&#45;&gt;Node11</title>
<g id="a_edge10_Node000010_Node000011"><a xlink:title=" ">
<path fill="none" stroke="#63b8ff" d="M982.09,-165.5C995.25,-165.5 1009.11,-165.5 1022.58,-165.5"/>
<polygon fill="#63b8ff" stroke="#63b8ff" points="1022.78,-169 1032.78,-165.5 1022.78,-162 1022.78,-169"/>
</a>
</g>
</g>
<!-- Node10&#45;&gt;Node12 -->
<g id="edge11_Node000010_Node000012" class="edge">
<title>Node10&#45;&gt;Node12</title>
<g id="a_edge11_Node000010_Node000012"><a xlink:title=" ">
<path fill="none" stroke="#63b8ff" d="M978.83,-150.46C1002.61,-145.15 1029,-139.25 1051.39,-134.25"/>
<polygon fill="#63b8ff" stroke="#63b8ff" points="1052.37,-137.62 1061.37,-132.02 1050.85,-130.79 1052.37,-137.62"/>
</a>
</g>
</g>
<!-- Node13 -->
<g id="Node000013" class="node">
<title>Node13</title>
<g id="a_Node000013"><a xlink:href="namespaceProtocol.html#a668bdeed219432868fca095e1b2f2667" target="_top" xlink:title="Build a TCP framed buffer (2 bytes length + serialized packet).">
<polygon fill="white" stroke="#666666" points="1321.5,-151 1214.5,-151 1214.5,-132 1321.5,-132 1321.5,-151"/>
<text text-anchor="middle" x="1268" y="-139" font-family="Helvetica,sans-Serif" font-size="10.00">Protocol::frameTcp</text>
</a>
</g>
</g>
<!-- Node12&#45;&gt;Node13 -->
<g id="edge12_Node000012_Node000013" class="edge">
<title>Node12&#45;&gt;Node13</title>
<g id="a_edge12_Node000012_Node000013"><a xlink:title=" ">
<path fill="none" stroke="#63b8ff" d="M1168.71,-129.9C1180.39,-131.28 1192.59,-132.72 1204.27,-134.1"/>
<polygon fill="#63b8ff" stroke="#63b8ff" points="1204.03,-137.59 1214.37,-135.29 1204.85,-130.64 1204.03,-137.59"/>
</a>
</g>
</g>
<!-- Node15 -->
<g id="Node000015" class="node">
<title>Node15</title>
<g id="a_Node000015"><a xlink:href="classTCPServer.html#a79e20e1d2821e399fe47dd1055341d5e" target="_top" xlink:title="Ensure the full buffer is written to the socket.">
<polygon fill="white" stroke="#666666" points="1323,-114 1213,-114 1213,-95 1323,-95 1323,-114"/>
<text text-anchor="middle" x="1268" y="-102" font-family="Helvetica,sans-Serif" font-size="10.00">TCPServer::writeAll</text>
</a>
</g>
</g>
<!-- Node12&#45;&gt;Node15 -->
<g id="edge14_Node000012_Node000015" class="edge">
<title>Node12&#45;&gt;Node15</title>
<g id="a_edge14_Node000012_Node000015"><a xlink:title=" ">
<path fill="none" stroke="#63b8ff" d="M1168.71,-115.49C1179.86,-114.24 1191.5,-112.94 1202.69,-111.69"/>
<polygon fill="#63b8ff" stroke="#63b8ff" points="1203.28,-115.15 1212.83,-110.56 1202.5,-108.19 1203.28,-115.15"/>
</a>
</g>
</g>
<!-- Node14 -->
<g id="Node000014" class="node">
<title>Node14</title>
<g id="a_Node000014"><a xlink:href="classPacket.html#aa88c2d28796644c8a1d6137996502ca8" target="_top" xlink:title="Serialize the packet to a byte buffer ready to send.">
<polygon fill="white" stroke="#666666" points="1461,-151 1366,-151 1366,-132 1461,-132 1461,-151"/>
<text text-anchor="middle" x="1413.5" y="-139" font-family="Helvetica,sans-Serif" font-size="10.00">Packet::serialize</text>
</a>
</g>
</g>
<!-- Node13&#45;&gt;Node14 -->
<g id="edge13_Node000013_Node000014" class="edge">
<title>Node13&#45;&gt;Node14</title>
<g id="a_edge13_Node000013_Node000014"><a xlink:title=" ">
<path fill="none" stroke="#63b8ff" d="M1321.62,-141.5C1332.64,-141.5 1344.32,-141.5 1355.49,-141.5"/>
<polygon fill="#63b8ff" stroke="#63b8ff" points="1355.58,-145 1365.58,-141.5 1355.58,-138 1355.58,-145"/>
</a>
</g>
</g>
<!-- Node16 -->
<g id="Node000016" class="node">
<title>Node16</title>
<g id="a_Node000016"><a xlink:href="classTCPServer.html#a5b1988f8a542c2d39f3d3556264e71b2" target="_top" xlink:title="Write raw bytes to a socket fd.">
<polygon fill="white" stroke="#666666" points="1468,-114 1359,-114 1359,-95 1468,-95 1468,-114"/>
<text text-anchor="middle" x="1413.5" y="-102" font-family="Helvetica,sans-Serif" font-size="10.00">TCPServer::writeFd</text>
</a>
</g>
</g>
<!-- Node15&#45;&gt;Node16 -->
<g id="edge15_Node000015_Node000016" class="edge">
<title>Node15&#45;&gt;Node16</title>
<g id="a_edge15_Node000015_Node000016"><a xlink:title=" ">
<path fill="none" stroke="#63b8ff" d="M1323.25,-104.5C1331.49,-104.5 1340.06,-104.5 1348.48,-104.5"/>
<polygon fill="#63b8ff" stroke="#63b8ff" points="1348.65,-108 1358.65,-104.5 1348.65,-101 1348.65,-108"/>
</a>
</g>
</g>
<!-- Node18&#45;&gt;Node12 -->
<g id="edge19_Node000018_Node000012" class="edge">
<title>Node18&#45;&gt;Node12</title>
<g id="a_edge19_Node000018_Node000012"><a xlink:title=" ">
<path fill="none" stroke="#63b8ff" d="M960.08,-94.09C986.16,-99.24 1018.51,-105.62 1045.92,-111.03"/>
<polygon fill="#63b8ff" stroke="#63b8ff" points="1045.28,-114.48 1055.77,-112.98 1046.64,-107.61 1045.28,-114.48"/>
</a>
</g>
</g>
</g>
</svg>
