<?xml version="1.0" encoding="UTF-8" standalone="no"?>
<!DOCTYPE svg PUBLIC "-//W3C//DTD SVG 1.1//EN"
 "http://www.w3.org/Graphics/SVG/1.1/DTD/svg11.dtd">
<!-- Generated by graphviz version 2.43.0 (0)
 -->
<!-- Title: Raylib::Window::shouldClose Pages: 1 -->
<svg width="921pt" height="178pt"
 viewBox="0.00 0.00 921.00 178.00" xmlns="http://www.w3.org/2000/svg" xmlns:xlink="http://www.w3.org/1999/xlink">
<g id="graph0" class="graph" transform="scale(1 1) rotate(0) translate(4 174)">
<title>Raylib::Window::shouldClose</title>
<!-- Node1 -->
<g id="Node000001" class="node">
<title>Node1</title>
<g id="a_Node000001"><a xlink:title="Checks if window should close.">
<polygon fill="#999999" stroke="#666666" points="913,-94 756,-94 756,-75 913,-75 913,-94"/>
<text text-anchor="middle" x="834.5" y="-82" font-family="Helvetica,sans-Serif" font-size="10.00">Raylib::Window::shouldClose</text>
</a>
</g>
</g>
<!-- Node2 -->
<g id="Node000002" class="node">
<title>Node2</title>
<g id="a_Node000002"><a xlink:href="classGraphicClient.html#a5cb5c37142e62f04824cc6e21dd199b2" target="_top" xlink:title="Main game loop iteration.">
<polygon fill="white" stroke="#666666" points="511.5,-170 371.5,-170 371.5,-151 511.5,-151 511.5,-170"/>
<text text-anchor="middle" x="441.5" y="-158" font-family="Helvetica,sans-Serif" font-size="10.00">GraphicClient::gameLoop</text>
</a>
</g>
</g>
<!-- Node1&#45;&gt;Node2 -->
<g id="edge1_Node000001_Node000002" class="edge">
<title>Node1&#45;&gt;Node2</title>
<g id="a_edge1_Node000001_Node000002"><a xlink:title=" ">
<path fill="none" stroke="#63b8ff" d="M808.41,-99.05C786.01,-111.28 751.91,-128.08 720,-136.5 650.68,-154.79 568.59,-159.94 511.76,-161.04"/>
<polygon fill="#63b8ff" stroke="#63b8ff" points="810.22,-102.05 817.25,-94.13 806.81,-95.94 810.22,-102.05"/>
</a>
</g>
</g>
<!-- Node3 -->
<g id="Node000003" class="node">
<title>Node3</title>
<g id="a_Node000003"><a xlink:href="classGraphicClient.html#ad39a5f1d7ec30752f8d412d6925ef109" target="_top" xlink:title="Main application loop.">
<polygon fill="white" stroke="#666666" points="181,-132 77,-132 77,-113 181,-113 181,-132"/>
<text text-anchor="middle" x="129" y="-120" font-family="Helvetica,sans-Serif" font-size="10.00">GraphicClient::run</text>
</a>
</g>
</g>
<!-- Node1&#45;&gt;Node3 -->
<g id="edge4_Node000001_Node000003" class="edge">
<title>Node1&#45;&gt;Node3</title>
<g id="a_edge4_Node000001_Node000003"><a xlink:title=" ">
<path fill="none" stroke="#63b8ff" d="M745.86,-89.23C597.22,-97.26 300.27,-113.3 181.16,-119.74"/>
<polygon fill="#63b8ff" stroke="#63b8ff" points="746.07,-92.73 755.86,-88.69 745.69,-85.74 746.07,-92.73"/>
</a>
</g>
</g>
<!-- Node5 -->
<g id="Node000005" class="node">
<title>Node5</title>
<g id="a_Node000005"><a xlink:href="classGraphicClient.html#a2d663515d7165fbe3533e038b5b2e916" target="_top" xlink:title="Shows main menu with server connection options.">
<polygon fill="white" stroke="#666666" points="526,-76 357,-76 357,-57 526,-57 526,-76"/>
<text text-anchor="middle" x="441.5" y="-64" font-family="Helvetica,sans-Serif" font-size="10.00">GraphicClient::selectMainMenu</text>
</a>
</g>
</g>
<!-- Node1&#45;&gt;Node5 -->
<g id="edge5_Node000001_Node000005" class="edge">
<title>Node1&#45;&gt;Node5</title>
<g id="a_edge5_Node000001_Node000005"><a xlink:title=" ">
<path fill="none" stroke="#63b8ff" d="M745.46,-80.45C679.81,-77.42 590.72,-73.32 526.16,-70.35"/>
<polygon fill="#63b8ff" stroke="#63b8ff" points="745.63,-83.96 755.78,-80.92 745.96,-76.97 745.63,-83.96"/>
</a>
</g>
</g>
<!-- Node7 -->
<g id="Node000007" class="node">
<title>Node7</title>
<g id="a_Node000007"><a xlink:href="classGraphicClient.html#a14824911dd4c90d0f459ed532aec0dd7" target="_top" xlink:title="Shows pseudo/username input menu.">
<polygon fill="white" stroke="#666666" points="717.5,-19 564.5,-19 564.5,0 717.5,0 717.5,-19"/>
<text text-anchor="middle" x="641" y="-7" font-family="Helvetica,sans-Serif" font-size="10.00">GraphicClient::selectPseudo</text>
</a>
</g>
</g>
<!-- Node1&#45;&gt;Node7 -->
<g id="edge8_Node000001_Node000007" class="edge">
<title>Node1&#45;&gt;Node7</title>
<g id="a_edge8_Node000001_Node000007"><a xlink:title=" ">
<path fill="none" stroke="#63b8ff" d="M808.63,-69.83C786.14,-57.1 751.76,-38.95 720,-27.5 710.98,-24.25 701.15,-21.44 691.62,-19.07"/>
<polygon fill="#63b8ff" stroke="#63b8ff" points="807.09,-72.98 817.5,-74.92 810.57,-66.91 807.09,-72.98"/>
</a>
</g>
</g>
<!-- Node8 -->
<g id="Node000008" class="node">
<title>Node8</title>
<g id="a_Node000008"><a xlink:href="classGraphicClient.html#a349a93e6b861365d4aaa7d7cea0d9ccf" target="_top" xlink:title="Shows controls settings menu for key remapping.">
<polygon fill="white" stroke="#666666" points="720,-56 562,-56 562,-37 720,-37 720,-56"/>
<text text-anchor="middle" x="641" y="-44" font-family="Helvetica,sans-Serif" font-size="10.00">GraphicClient::selectSettings</text>
</a>
</g>
</g>
<!-- Node1&#45;&gt;Node8 -->
<g id="edge10_Node000001_Node000008" class="edge">
<title>Node1&#45;&gt;Node8</title>
<g id="a_edge10_Node000001_Node000008"><a xlink:title=" ">
<path fill="none" stroke="#63b8ff" d="M775.35,-72.96C748.04,-67.54 715.87,-61.16 689.98,-56.02"/>
<polygon fill="#63b8ff" stroke="#63b8ff" points="774.69,-76.4 785.18,-74.91 776.05,-69.53 774.69,-76.4"/>
</a>
</g>
</g>
<!-- Node2&#45;&gt;Node3 -->
<g id="edge2_Node000002_Node000003" class="edge">
<title>Node2&#45;&gt;Node3</title>
<g id="a_edge2_Node000002_Node000003"><a xlink:title=" ">
<path fill="none" stroke="#63b8ff" d="M361.34,-153.02C318.54,-148.72 264.8,-142.91 217,-136.5 205.48,-134.96 193.13,-133.09 181.46,-131.24"/>
<polygon fill="#63b8ff" stroke="#63b8ff" points="361.12,-156.52 371.42,-154.03 361.82,-149.55 361.12,-156.52"/>
</a>
</g>
</g>
<!-- Node4 -->
<g id="Node000004" class="node">
<title>Node4</title>
<g id="a_Node000004"><a xlink:href="client_8cpp.html#ae66f6b31b5ad750f1fe042a706a4e3d4" target="_top" xlink:title=" ">
<polygon fill="white" stroke="#666666" points="41,-132 0,-132 0,-113 41,-113 41,-132"/>
<text text-anchor="middle" x="20.5" y="-120" font-family="Helvetica,sans-Serif" font-size="10.00">main</text>
</a>
</g>
</g>
<!-- Node3&#45;&gt;Node4 -->
<g id="edge3_Node000003_Node000004" class="edge">
<title>Node3&#45;&gt;Node4</title>
<g id="a_edge3_Node000003_Node000004"><a xlink:title=" ">
<path fill="none" stroke="#63b8ff" d="M66.83,-122.5C57.58,-122.5 48.66,-122.5 41.22,-122.5"/>
<polygon fill="#63b8ff" stroke="#63b8ff" points="66.93,-126 76.93,-122.5 66.93,-119 66.93,-126"/>
</a>
</g>
</g>
<!-- Node6 -->
<g id="Node000006" class="node">
<title>Node6</title>
<g id="a_Node000006"><a xlink:href="classGraphicClient.html#a4b416d0d2b3f07134ce30afb0c60adbe" target="_top" xlink:title="Initializes the client (connects to server, shows menus).">
<polygon fill="white" stroke="#666666" points="321,-76 217,-76 217,-57 321,-57 321,-76"/>
<text text-anchor="middle" x="269" y="-64" font-family="Helvetica,sans-Serif" font-size="10.00">GraphicClient::init</text>
</a>
</g>
</g>
<!-- Node5&#45;&gt;Node6 -->
<g id="edge6_Node000005_Node000006" class="edge">
<title>Node5&#45;&gt;Node6</title>
<g id="a_edge6_Node000005_Node000006"><a xlink:title=" ">
<path fill="none" stroke="#63b8ff" d="M346.53,-66.5C337.85,-66.5 329.3,-66.5 321.23,-66.5"/>
<polygon fill="#63b8ff" stroke="#63b8ff" points="346.75,-70 356.75,-66.5 346.75,-63 346.75,-70"/>
</a>
</g>
</g>
<!-- Node6&#45;&gt;Node3 -->
<g id="edge7_Node000006_Node000003" class="edge">
<title>Node6&#45;&gt;Node3</title>
<g id="a_edge7_Node000006_Node000003"><a xlink:title=" ">
<path fill="none" stroke="#63b8ff" d="M234.78,-79.98C209.65,-90.18 175.76,-103.93 153.41,-113"/>
<polygon fill="#63b8ff" stroke="#63b8ff" points="236.33,-83.13 244.28,-76.13 233.69,-76.64 236.33,-83.13"/>
</a>
</g>
</g>
<!-- Node7&#45;&gt;Node6 -->
<g id="edge9_Node000007_Node000006" class="edge">
<title>Node7&#45;&gt;Node6</title>
<g id="a_edge9_Node000007_Node000006"><a xlink:title=" ">
<path fill="none" stroke="#63b8ff" d="M554.49,-19.77C498.23,-26.9 423.05,-37.13 357,-48.5 342.71,-50.96 327.19,-54.04 313.26,-56.95"/>
<polygon fill="#63b8ff" stroke="#63b8ff" points="554.93,-23.24 564.41,-18.52 554.05,-16.29 554.93,-23.24"/>
</a>
</g>
</g>
<!-- Node8&#45;&gt;Node5 -->
<g id="edge11_Node000008_Node000005" class="edge">
<title>Node8&#45;&gt;Node5</title>
<g id="a_edge11_Node000008_Node000005"><a xlink:title=" ">
<path fill="none" stroke="#63b8ff" d="M551.95,-55.42C543.37,-56.29 534.69,-57.16 526.16,-58.03"/>
<polygon fill="#63b8ff" stroke="#63b8ff" points="552.35,-58.89 561.94,-54.4 551.64,-51.93 552.35,-58.89"/>
</a>
</g>
</g>
</g>
</svg>
