<?xml version="1.0" encoding="UTF-8" standalone="no"?>
<!DOCTYPE svg PUBLIC "-//W3C//DTD SVG 1.1//EN"
 "http://www.w3.org/Graphics/SVG/1.1/DTD/svg11.dtd">
<!-- Generated by graphviz version 2.43.0 (0)
 -->
<!-- Title: NetworkClient::sendPacketUdp Pages: 1 -->
<svg width="1136pt" height="129pt"
 viewBox="0.00 0.00 1136.00 129.00" xmlns="http://www.w3.org/2000/svg" xmlns:xlink="http://www.w3.org/1999/xlink">
<g id="graph0" class="graph" transform="scale(1 1) rotate(0) translate(4 125)">
<title>NetworkClient::sendPacketUdp</title>
<!-- Node1 -->
<g id="Node000001" class="node">
<title>Node1</title>
<g id="a_Node000001"><a xlink:title=" ">
<polygon fill="#999999" stroke="#666666" points="1128,-70 961,-70 961,-51 1128,-51 1128,-70"/>
<text text-anchor="middle" x="1044.5" y="-58" font-family="Helvetica,sans-Serif" font-size="10.00">NetworkClient::sendPacketUdp</text>
</a>
</g>
</g>
<!-- Node2 -->
<g id="Node000002" class="node">
<title>Node2</title>
<g id="a_Node000002"><a xlink:href="classNetworkClient.html#aeb3772e8f3674783b14953ee27e1cd39" target="_top" xlink:title="Send UDP hello to register address/port on server.">
<polygon fill="white" stroke="#666666" points="554,-121 393,-121 393,-102 554,-102 554,-121"/>
<text text-anchor="middle" x="473.5" y="-109" font-family="Helvetica,sans-Serif" font-size="10.00">NetworkClient::sendHelloUdp</text>
</a>
</g>
</g>
<!-- Node1&#45;&gt;Node2 -->
<g id="edge1_Node000001_Node000002" class="edge">
<title>Node1&#45;&gt;Node2</title>
<g id="a_edge1_Node000001_Node000002"><a xlink:title=" ">
<path fill="none" stroke="#63b8ff" d="M1010.92,-73.69C987.46,-82.51 954.81,-93.4 925,-98.5 796.59,-120.49 644.65,-119.37 554.1,-115.91"/>
<polygon fill="#63b8ff" stroke="#63b8ff" points="1012.3,-76.91 1020.38,-70.06 1009.79,-70.38 1012.3,-76.91"/>
</a>
</g>
</g>
<!-- Node7 -->
<g id="Node000007" class="node">
<title>Node7</title>
<g id="a_Node000007"><a xlink:href="classNetworkClient.html#afdfce51c7dbb2e61f5e9280b15368915" target="_top" xlink:title="Send player input over UDP.">
<polygon fill="white" stroke="#666666" points="923.5,-89 783.5,-89 783.5,-70 923.5,-70 923.5,-89"/>
<text text-anchor="middle" x="853.5" y="-77" font-family="Helvetica,sans-Serif" font-size="10.00">NetworkClient::sendInput</text>
</a>
</g>
</g>
<!-- Node1&#45;&gt;Node7 -->
<g id="edge7_Node000001_Node000007" class="edge">
<title>Node1&#45;&gt;Node7</title>
<g id="a_edge7_Node000001_Node000007"><a xlink:title=" ">
<path fill="none" stroke="#63b8ff" d="M950.65,-69.83C941.56,-70.75 932.46,-71.66 923.67,-72.55"/>
<polygon fill="#63b8ff" stroke="#63b8ff" points="951.28,-73.29 960.88,-68.81 950.58,-66.32 951.28,-73.29"/>
</a>
</g>
</g>
<!-- Node10 -->
<g id="Node000010" class="node">
<title>Node10</title>
<g id="a_Node000010"><a xlink:href="classNetworkClient.html#a2773882369d758cbb23aa67b0dda78ed" target="_top" xlink:title="Send a shoot command over UDP.">
<polygon fill="white" stroke="#666666" points="925,-52 782,-52 782,-33 925,-33 925,-52"/>
<text text-anchor="middle" x="853.5" y="-40" font-family="Helvetica,sans-Serif" font-size="10.00">NetworkClient::sendShoot</text>
</a>
</g>
</g>
<!-- Node1&#45;&gt;Node10 -->
<g id="edge11_Node000001_Node000010" class="edge">
<title>Node1&#45;&gt;Node10</title>
<g id="a_edge11_Node000001_Node000010"><a xlink:title=" ">
<path fill="none" stroke="#63b8ff" d="M950.78,-51.67C942.15,-50.85 933.5,-50.02 925.12,-49.23"/>
<polygon fill="#63b8ff" stroke="#63b8ff" points="950.59,-55.17 960.88,-52.63 951.25,-48.2 950.59,-55.17"/>
</a>
</g>
</g>
<!-- Node11 -->
<g id="Node000011" class="node">
<title>Node11</title>
<g id="a_Node000011"><a xlink:href="classNetworkClient.html#ad087f54b86ec34f0be29053415ab7a46" target="_top" xlink:title="Send a UDP ping with client timestamp.">
<polygon fill="white" stroke="#666666" points="746,-19 590,-19 590,0 746,0 746,-19"/>
<text text-anchor="middle" x="668" y="-7" font-family="Helvetica,sans-Serif" font-size="10.00">NetworkClient::sendUdpPing</text>
</a>
</g>
</g>
<!-- Node1&#45;&gt;Node11 -->
<g id="edge13_Node000001_Node000011" class="edge">
<title>Node1&#45;&gt;Node11</title>
<g id="a_edge13_Node000001_Node000011"><a xlink:title=" ">
<path fill="none" stroke="#63b8ff" d="M1009.52,-47.42C986.13,-39.03 954.14,-28.76 925,-23.5 865.54,-12.76 797.15,-9.48 746.03,-8.76"/>
<polygon fill="#63b8ff" stroke="#63b8ff" points="1008.39,-50.73 1018.98,-50.88 1010.79,-44.16 1008.39,-50.73"/>
</a>
</g>
</g>
<!-- Node3 -->
<g id="Node000003" class="node">
<title>Node3</title>
<g id="a_Node000003"><a xlink:href="classGraphicClient.html#a5cb5c37142e62f04824cc6e21dd199b2" target="_top" xlink:title="Main game loop iteration.">
<polygon fill="white" stroke="#666666" points="357,-84 217,-84 217,-65 357,-65 357,-84"/>
<text text-anchor="middle" x="287" y="-72" font-family="Helvetica,sans-Serif" font-size="10.00">GraphicClient::gameLoop</text>
</a>
</g>
</g>
<!-- Node2&#45;&gt;Node3 -->
<g id="edge2_Node000002_Node000003" class="edge">
<title>Node2&#45;&gt;Node3</title>
<g id="a_edge2_Node000002_Node000003"><a xlink:title=" ">
<path fill="none" stroke="#63b8ff" d="M415.08,-99.98C389.58,-94.87 359.92,-88.92 335.67,-84.06"/>
<polygon fill="#63b8ff" stroke="#63b8ff" points="414.49,-103.44 424.99,-101.97 415.87,-96.57 414.49,-103.44"/>
</a>
</g>
</g>
<!-- Node6 -->
<g id="Node000006" class="node">
<title>Node6</title>
<g id="a_Node000006"><a xlink:href="classGraphicClient.html#a4b416d0d2b3f07134ce30afb0c60adbe" target="_top" xlink:title="Initializes the client (connects to server, shows menus).">
<polygon fill="white" stroke="#666666" points="339,-121 235,-121 235,-102 339,-102 339,-121"/>
<text text-anchor="middle" x="287" y="-109" font-family="Helvetica,sans-Serif" font-size="10.00">GraphicClient::init</text>
</a>
</g>
</g>
<!-- Node2&#45;&gt;Node6 -->
<g id="edge5_Node000002_Node000006" class="edge">
<title>Node2&#45;&gt;Node6</title>
<g id="a_edge5_Node000002_Node000006"><a xlink:title=" ">
<path fill="none" stroke="#63b8ff" d="M382.61,-111.5C367.67,-111.5 352.64,-111.5 339.11,-111.5"/>
<polygon fill="#63b8ff" stroke="#63b8ff" points="382.92,-115 392.92,-111.5 382.92,-108 382.92,-115"/>
</a>
</g>
</g>
<!-- Node4 -->
<g id="Node000004" class="node">
<title>Node4</title>
<g id="a_Node000004"><a xlink:href="classGraphicClient.html#ad39a5f1d7ec30752f8d412d6925ef109" target="_top" xlink:title="Main application loop.">
<polygon fill="white" stroke="#666666" points="181,-102 77,-102 77,-83 181,-83 181,-102"/>
<text text-anchor="middle" x="129" y="-90" font-family="Helvetica,sans-Serif" font-size="10.00">GraphicClient::run</text>
</a>
</g>
</g>
<!-- Node3&#45;&gt;Node4 -->
<g id="edge3_Node000003_Node000004" class="edge">
<title>Node3&#45;&gt;Node4</title>
<g id="a_edge3_Node000003_Node000004"><a xlink:title=" ">
<path fill="none" stroke="#63b8ff" d="M206.6,-83.66C198.02,-84.65 189.46,-85.64 181.33,-86.58"/>
<polygon fill="#63b8ff" stroke="#63b8ff" points="207.13,-87.12 216.67,-82.5 206.33,-80.17 207.13,-87.12"/>
</a>
</g>
</g>
<!-- Node5 -->
<g id="Node000005" class="node">
<title>Node5</title>
<g id="a_Node000005"><a xlink:href="client_8cpp.html#ae66f6b31b5ad750f1fe042a706a4e3d4" target="_top" xlink:title=" ">
<polygon fill="white" stroke="#666666" points="41,-102 0,-102 0,-83 41,-83 41,-102"/>
<text text-anchor="middle" x="20.5" y="-90" font-family="Helvetica,sans-Serif" font-size="10.00">main</text>
</a>
</g>
</g>
<!-- Node4&#45;&gt;Node5 -->
<g id="edge4_Node000004_Node000005" class="edge">
<title>Node4&#45;&gt;Node5</title>
<g id="a_edge4_Node000004_Node000005"><a xlink:title=" ">
<path fill="none" stroke="#63b8ff" d="M66.83,-92.5C57.58,-92.5 48.66,-92.5 41.22,-92.5"/>
<polygon fill="#63b8ff" stroke="#63b8ff" points="66.93,-96 76.93,-92.5 66.93,-89 66.93,-96"/>
</a>
</g>
</g>
<!-- Node6&#45;&gt;Node4 -->
<g id="edge6_Node000006_Node000004" class="edge">
<title>Node6&#45;&gt;Node4</title>
<g id="a_edge6_Node000006_Node000004"><a xlink:title=" ">
<path fill="none" stroke="#63b8ff" d="M224.62,-104.02C210.24,-102.27 195.07,-100.43 181.19,-98.74"/>
<polygon fill="#63b8ff" stroke="#63b8ff" points="224.57,-107.54 234.92,-105.28 225.42,-100.6 224.57,-107.54"/>
</a>
</g>
</g>
<!-- Node8 -->
<g id="Node000008" class="node">
<title>Node8</title>
<g id="a_Node000008"><a xlink:href="classInputSystem.html#af7ed09c6bfd5fba6af86af16de00d706" target="_top" xlink:title="Updates input state and sends player commands to the server.">
<polygon fill="white" stroke="#666666" points="727,-84 609,-84 609,-65 727,-65 727,-84"/>
<text text-anchor="middle" x="668" y="-72" font-family="Helvetica,sans-Serif" font-size="10.00">InputSystem::update</text>
</a>
</g>
</g>
<!-- Node7&#45;&gt;Node8 -->
<g id="edge8_Node000007_Node000008" class="edge">
<title>Node7&#45;&gt;Node8</title>
<g id="a_edge8_Node000007_Node000008"><a xlink:title=" ">
<path fill="none" stroke="#63b8ff" d="M773.31,-77.34C757.85,-76.92 741.89,-76.49 727.26,-76.09"/>
<polygon fill="#63b8ff" stroke="#63b8ff" points="773.3,-80.84 783.39,-77.62 773.49,-73.85 773.3,-80.84"/>
</a>
</g>
</g>
<!-- Node9 -->
<g id="Node000009" class="node">
<title>Node9</title>
<g id="a_Node000009"><a xlink:href="classGraphicClient.html#a50072266faf2e76ace99e16c4c7b208a" target="_top" xlink:title="Updates all game entities based on delta time.">
<polygon fill="white" stroke="#666666" points="553,-84 394,-84 394,-65 553,-65 553,-84"/>
<text text-anchor="middle" x="473.5" y="-72" font-family="Helvetica,sans-Serif" font-size="10.00">GraphicClient::updateEntities</text>
</a>
</g>
</g>
<!-- Node8&#45;&gt;Node9 -->
<g id="edge9_Node000008_Node000009" class="edge">
<title>Node8&#45;&gt;Node9</title>
<g id="a_edge9_Node000008_Node000009"><a xlink:title=" ">
<path fill="none" stroke="#63b8ff" d="M598.89,-74.5C584.05,-74.5 568.23,-74.5 553.03,-74.5"/>
<polygon fill="#63b8ff" stroke="#63b8ff" points="598.98,-78 608.98,-74.5 598.98,-71 598.98,-78"/>
</a>
</g>
</g>
<!-- Node9&#45;&gt;Node3 -->
<g id="edge10_Node000009_Node000003" class="edge">
<title>Node9&#45;&gt;Node3</title>
<g id="a_edge10_Node000009_Node000003"><a xlink:title=" ">
<path fill="none" stroke="#63b8ff" d="M383.87,-74.5C374.88,-74.5 365.85,-74.5 357.11,-74.5"/>
<polygon fill="#63b8ff" stroke="#63b8ff" points="383.99,-78 393.99,-74.5 383.99,-71 383.99,-78"/>
</a>
</g>
</g>
<!-- Node10&#45;&gt;Node8 -->
<g id="edge12_Node000010_Node000008" class="edge">
<title>Node10&#45;&gt;Node8</title>
<g id="a_edge12_Node000010_Node000008"><a xlink:title=" ">
<path fill="none" stroke="#63b8ff" d="M787.84,-53.78C766.87,-57.43 743.83,-61.45 723.67,-64.97"/>
<polygon fill="#63b8ff" stroke="#63b8ff" points="788.69,-57.18 797.94,-52.01 787.49,-50.28 788.69,-57.18"/>
</a>
</g>
</g>
<!-- Node11&#45;&gt;Node3 -->
<g id="edge14_Node000011_Node000003" class="edge">
<title>Node11&#45;&gt;Node3</title>
<g id="a_edge14_Node000011_Node000003"><a xlink:title=" ">
<path fill="none" stroke="#63b8ff" d="M601.51,-20.73C528.67,-33.22 412.27,-53.19 343.66,-64.95"/>
<polygon fill="#63b8ff" stroke="#63b8ff" points="602.22,-24.16 611.48,-19.02 601.04,-17.26 602.22,-24.16"/>
</a>
</g>
</g>
</g>
</svg>
