<?xml version="1.0" encoding="UTF-8" standalone="no"?>
<!DOCTYPE svg PUBLIC "-//W3C//DTD SVG 1.1//EN"
 "http://www.w3.org/Graphics/SVG/1.1/DTD/svg11.dtd">
<!-- Generated by graphviz version 2.43.0 (0)
 -->
<!-- Title: NetworkClient::readTcpPacket Pages: 1 -->
<svg width="853pt" height="76pt"
 viewBox="0.00 0.00 853.00 75.50" xmlns="http://www.w3.org/2000/svg" xmlns:xlink="http://www.w3.org/1999/xlink">
<g id="graph0" class="graph" transform="scale(1 1) rotate(0) translate(4 71.5)">
<title>NetworkClient::readTcpPacket</title>
<!-- Node1 -->
<g id="Node000001" class="node">
<title>Node1</title>
<g id="a_Node000001"><a xlink:title=" ">
<polygon fill="#999999" stroke="#666666" points="161,-45.5 0,-45.5 0,-26.5 161,-26.5 161,-45.5"/>
<text text-anchor="middle" x="80.5" y="-33.5" font-family="Helvetica,sans-Serif" font-size="10.00">NetworkClient::readTcpPacket</text>
</a>
</g>
</g>
<!-- Node2 -->
<g id="Node000002" class="node">
<title>Node2</title>
<g id="a_Node000002"><a xlink:href="classNetworkClient.html#a7f69f5c30fd349d670fae18598737b86" target="_top" xlink:title="Close TCP and UDP sockets and reset state.">
<polygon fill="white" stroke="#666666" points="342,-67.5 197,-67.5 197,-48.5 342,-48.5 342,-67.5"/>
<text text-anchor="middle" x="269.5" y="-55.5" font-family="Helvetica,sans-Serif" font-size="10.00">NetworkClient::disconnect</text>
</a>
</g>
</g>
<!-- Node1&#45;&gt;Node2 -->
<g id="edge1_Node000001_Node000002" class="edge">
<title>Node1&#45;&gt;Node2</title>
<g id="a_edge1_Node000001_Node000002"><a xlink:title=" ">
<path fill="none" stroke="#63b8ff" d="M161.08,-45.36C169.65,-46.37 178.38,-47.4 186.98,-48.41"/>
<polygon fill="#63b8ff" stroke="#63b8ff" points="186.65,-51.89 196.99,-49.59 187.47,-44.94 186.65,-51.89"/>
</a>
</g>
</g>
<!-- Node3 -->
<g id="Node000003" class="node">
<title>Node3</title>
<g id="a_Node000003"><a xlink:href="classNetworkClient.html#ab8fe1bfbcfc0f363bce00cb1dc2a2f88" target="_top" xlink:title=" ">
<polygon fill="white" stroke="#666666" points="341.5,-30 197.5,-30 197.5,0 341.5,0 341.5,-30"/>
<text text-anchor="start" x="205.5" y="-18" font-family="Helvetica,sans-Serif" font-size="10.00">NetworkClient::receiveTcp</text>
<text text-anchor="middle" x="269.5" y="-7" font-family="Helvetica,sans-Serif" font-size="10.00">Framed</text>
</a>
</g>
</g>
<!-- Node1&#45;&gt;Node3 -->
<g id="edge2_Node000001_Node000003" class="edge">
<title>Node1&#45;&gt;Node3</title>
<g id="a_edge2_Node000001_Node000003"><a xlink:title=" ">
<path fill="none" stroke="#63b8ff" d="M161.08,-27.06C169.72,-26.09 178.53,-25.1 187.19,-24.13"/>
<polygon fill="#63b8ff" stroke="#63b8ff" points="187.74,-27.59 197.28,-23 186.96,-20.64 187.74,-27.59"/>
</a>
</g>
</g>
<!-- Node4 -->
<g id="Node000004" class="node">
<title>Node4</title>
<g id="a_Node000004"><a xlink:href="namespaceProtocol.html#ad768525ca5f0324a5f414440e67679b6" target="_top" xlink:title="Append newly read bytes then attempt extraction.">
<polygon fill="white" stroke="#666666" points="515,-24.5 378,-24.5 378,-5.5 515,-5.5 515,-24.5"/>
<text text-anchor="middle" x="446.5" y="-12.5" font-family="Helvetica,sans-Serif" font-size="10.00">Protocol::consumeChunk</text>
</a>
</g>
</g>
<!-- Node3&#45;&gt;Node4 -->
<g id="edge3_Node000003_Node000004" class="edge">
<title>Node3&#45;&gt;Node4</title>
<g id="a_edge3_Node000003_Node000004"><a xlink:title=" ">
<path fill="none" stroke="#63b8ff" d="M341.68,-15C350.25,-15 359.04,-15 367.69,-15"/>
<polygon fill="#63b8ff" stroke="#63b8ff" points="367.78,-18.5 377.78,-15 367.78,-11.5 367.78,-18.5"/>
</a>
</g>
</g>
<!-- Node5 -->
<g id="Node000005" class="node">
<title>Node5</title>
<g id="a_Node000005"><a xlink:href="namespaceProtocol.html#a10005c44787f8de2a0e42d395aff8baa" target="_top" xlink:title="Try to extract a complete packet from an accumulated stream buffer.">
<polygon fill="white" stroke="#666666" points="702,-24.5 551,-24.5 551,-5.5 702,-5.5 702,-24.5"/>
<text text-anchor="middle" x="626.5" y="-12.5" font-family="Helvetica,sans-Serif" font-size="10.00">Protocol::extractFromBuffer</text>
</a>
</g>
</g>
<!-- Node4&#45;&gt;Node5 -->
<g id="edge4_Node000004_Node000005" class="edge">
<title>Node4&#45;&gt;Node5</title>
<g id="a_edge4_Node000004_Node000005"><a xlink:title=" ">
<path fill="none" stroke="#63b8ff" d="M515.05,-15C523.46,-15 532.14,-15 540.77,-15"/>
<polygon fill="#63b8ff" stroke="#63b8ff" points="540.86,-18.5 550.86,-15 540.86,-11.5 540.86,-18.5"/>
</a>
</g>
</g>
<!-- Node6 -->
<g id="Node000006" class="node">
<title>Node6</title>
<g id="a_Node000006"><a xlink:href="classPacket.html#abfcd427a2ca434ac71592334517638fb" target="_top" xlink:title="Deserialize a packet from a raw byte buffer.">
<polygon fill="white" stroke="#666666" points="845,-24.5 738,-24.5 738,-5.5 845,-5.5 845,-24.5"/>
<text text-anchor="middle" x="791.5" y="-12.5" font-family="Helvetica,sans-Serif" font-size="10.00">Packet::deserialize</text>
</a>
</g>
</g>
<!-- Node5&#45;&gt;Node6 -->
<g id="edge5_Node000005_Node000006" class="edge">
<title>Node5&#45;&gt;Node6</title>
<g id="a_edge5_Node000005_Node000006"><a xlink:title=" ">
<path fill="none" stroke="#63b8ff" d="M702.32,-15C710.68,-15 719.13,-15 727.32,-15"/>
<polygon fill="#63b8ff" stroke="#63b8ff" points="727.53,-18.5 737.53,-15 727.53,-11.5 727.53,-18.5"/>
</a>
</g>
</g>
</g>
</svg>
