<?xml version="1.0" encoding="UTF-8" standalone="no"?>
<!DOCTYPE svg PUBLIC "-//W3C//DTD SVG 1.1//EN"
 "http://www.w3.org/Graphics/SVG/1.1/DTD/svg11.dtd">
<!-- Generated by graphviz version 2.43.0 (0)
 -->
<!-- Title: InputSystem::update Pages: 1 -->
<svg width="696pt" height="169pt"
 viewBox="0.00 0.00 696.00 168.50" xmlns="http://www.w3.org/2000/svg" xmlns:xlink="http://www.w3.org/1999/xlink">
<g id="graph0" class="graph" transform="scale(1 1) rotate(0) translate(4 164.5)">
<title>InputSystem::update</title>
<!-- Node1 -->
<g id="Node000001" class="node">
<title>Node1</title>
<g id="a_Node000001"><a xlink:title="Updates input state and sends player commands to the server.">
<polygon fill="#999999" stroke="#666666" points="118,-104.5 0,-104.5 0,-85.5 118,-85.5 118,-104.5"/>
<text text-anchor="middle" x="59" y="-92.5" font-family="Helvetica,sans-Serif" font-size="10.00">InputSystem::update</text>
</a>
</g>
</g>
<!-- Node2 -->
<g id="Node000002" class="node">
<title>Node2</title>
<g id="a_Node000002"><a xlink:href="classRaylib_1_1Input.html#a4cd5c6122b4771997efbb9ef2d3c4771" target="_top" xlink:title="Checks if a key is currently pressed down.">
<polygon fill="white" stroke="#666666" points="297.5,-160.5 159.5,-160.5 159.5,-141.5 297.5,-141.5 297.5,-160.5"/>
<text text-anchor="middle" x="228.5" y="-148.5" font-family="Helvetica,sans-Serif" font-size="10.00">Raylib::Input::isKeyDown</text>
</a>
</g>
</g>
<!-- Node1&#45;&gt;Node2 -->
<g id="edge1_Node000001_Node000002" class="edge">
<title>Node1&#45;&gt;Node2</title>
<g id="a_edge1_Node000001_Node000002"><a xlink:title=" ">
<path fill="none" stroke="#63b8ff" d="M81.33,-104.65C100.17,-112.93 128.54,-124.78 154,-133 160.47,-135.09 167.32,-137.07 174.15,-138.9"/>
<polygon fill="#63b8ff" stroke="#63b8ff" points="173.51,-142.35 184.07,-141.46 175.26,-135.57 173.51,-142.35"/>
</a>
</g>
</g>
<!-- Node3 -->
<g id="Node000003" class="node">
<title>Node3</title>
<g id="a_Node000003"><a xlink:href="classRaylib_1_1Input.html#a77b20ab7de1540d7cc5c18f71b137a12" target="_top" xlink:title="Checks if a key was just pressed this frame.">
<polygon fill="white" stroke="#666666" points="303,-123.5 154,-123.5 154,-104.5 303,-104.5 303,-123.5"/>
<text text-anchor="middle" x="228.5" y="-111.5" font-family="Helvetica,sans-Serif" font-size="10.00">Raylib::Input::isKeyPressed</text>
</a>
</g>
</g>
<!-- Node1&#45;&gt;Node3 -->
<g id="edge2_Node000001_Node000003" class="edge">
<title>Node1&#45;&gt;Node3</title>
<g id="a_edge2_Node000001_Node000003"><a xlink:title=" ">
<path fill="none" stroke="#63b8ff" d="M118.11,-101.59C126.4,-102.53 135.05,-103.51 143.71,-104.5"/>
<polygon fill="#63b8ff" stroke="#63b8ff" points="143.52,-108 153.85,-105.65 144.31,-101.04 143.52,-108"/>
</a>
</g>
</g>
<!-- Node4 -->
<g id="Node000004" class="node">
<title>Node4</title>
<g id="a_Node000004"><a xlink:href="classNetworkClient.html#afdfce51c7dbb2e61f5e9280b15368915" target="_top" xlink:title="Send player input over UDP.">
<polygon fill="white" stroke="#666666" points="298.5,-86.5 158.5,-86.5 158.5,-67.5 298.5,-67.5 298.5,-86.5"/>
<text text-anchor="middle" x="228.5" y="-74.5" font-family="Helvetica,sans-Serif" font-size="10.00">NetworkClient::sendInput</text>
</a>
</g>
</g>
<!-- Node1&#45;&gt;Node4 -->
<g id="edge3_Node000001_Node000004" class="edge">
<title>Node1&#45;&gt;Node4</title>
<g id="a_edge3_Node000001_Node000004"><a xlink:title=" ">
<path fill="none" stroke="#63b8ff" d="M118.11,-88.75C127.82,-87.71 138.04,-86.61 148.17,-85.52"/>
<polygon fill="#63b8ff" stroke="#63b8ff" points="148.68,-88.99 158.25,-84.44 147.93,-82.03 148.68,-88.99"/>
</a>
</g>
</g>
<!-- Node9 -->
<g id="Node000009" class="node">
<title>Node9</title>
<g id="a_Node000009"><a xlink:href="classNetworkClient.html#a2773882369d758cbb23aa67b0dda78ed" target="_top" xlink:title="Send a shoot command over UDP.">
<polygon fill="white" stroke="#666666" points="300,-49.5 157,-49.5 157,-30.5 300,-30.5 300,-49.5"/>
<text text-anchor="middle" x="228.5" y="-37.5" font-family="Helvetica,sans-Serif" font-size="10.00">NetworkClient::sendShoot</text>
</a>
</g>
</g>
<!-- Node1&#45;&gt;Node9 -->
<g id="edge8_Node000001_Node000009" class="edge">
<title>Node1&#45;&gt;Node9</title>
<g id="a_edge8_Node000001_Node000009"><a xlink:title=" ">
<path fill="none" stroke="#63b8ff" d="M82.92,-85.39C101.8,-77.68 129.36,-66.87 154,-59 161.5,-56.6 169.51,-54.29 177.37,-52.15"/>
<polygon fill="#63b8ff" stroke="#63b8ff" points="178.44,-55.49 187.21,-49.54 176.65,-48.72 178.44,-55.49"/>
</a>
</g>
</g>
<!-- Node5 -->
<g id="Node000005" class="node">
<title>Node5</title>
<g id="a_Node000005"><a xlink:href="classNetworkClient.html#a6c612ab362cc3e4ea8c94ebc2cddc4e6" target="_top" xlink:title=" ">
<polygon fill="white" stroke="#666666" points="506,-67.5 339,-67.5 339,-48.5 506,-48.5 506,-67.5"/>
<text text-anchor="middle" x="422.5" y="-55.5" font-family="Helvetica,sans-Serif" font-size="10.00">NetworkClient::sendPacketUdp</text>
</a>
</g>
</g>
<!-- Node4&#45;&gt;Node5 -->
<g id="edge4_Node000004_Node000005" class="edge">
<title>Node4&#45;&gt;Node5</title>
<g id="a_edge4_Node000004_Node000005"><a xlink:title=" ">
<path fill="none" stroke="#63b8ff" d="M298.55,-70.17C308.38,-69.19 318.63,-68.18 328.83,-67.17"/>
<polygon fill="#63b8ff" stroke="#63b8ff" points="329.39,-70.63 338.99,-66.16 328.7,-63.67 329.39,-70.63"/>
</a>
</g>
</g>
<!-- Node6 -->
<g id="Node000006" class="node">
<title>Node6</title>
<g id="a_Node000006"><a xlink:href="classNetworkClient.html#aaf60f1216a17b46ad12539625a1022c2" target="_top" xlink:title=" ">
<polygon fill="white" stroke="#666666" points="678.5,-104.5 551.5,-104.5 551.5,-85.5 678.5,-85.5 678.5,-104.5"/>
<text text-anchor="middle" x="615" y="-92.5" font-family="Helvetica,sans-Serif" font-size="10.00">NetworkClient::nowMs</text>
</a>
</g>
</g>
<!-- Node5&#45;&gt;Node6 -->
<g id="edge5_Node000005_Node000006" class="edge">
<title>Node5&#45;&gt;Node6</title>
<g id="a_edge5_Node000005_Node000006"><a xlink:title=" ">
<path fill="none" stroke="#63b8ff" d="M472.56,-67.53C497.68,-72.41 528.46,-78.39 554.88,-83.52"/>
<polygon fill="#63b8ff" stroke="#63b8ff" points="554.29,-86.97 564.78,-85.44 555.63,-80.1 554.29,-86.97"/>
</a>
</g>
</g>
<!-- Node7 -->
<g id="Node000007" class="node">
<title>Node7</title>
<g id="a_Node000007"><a xlink:href="classPacket.html#aa88c2d28796644c8a1d6137996502ca8" target="_top" xlink:title="Serialize the packet to a byte buffer ready to send.">
<polygon fill="white" stroke="#666666" points="662.5,-67.5 567.5,-67.5 567.5,-48.5 662.5,-48.5 662.5,-67.5"/>
<text text-anchor="middle" x="615" y="-55.5" font-family="Helvetica,sans-Serif" font-size="10.00">Packet::serialize</text>
</a>
</g>
</g>
<!-- Node5&#45;&gt;Node7 -->
<g id="edge6_Node000005_Node000007" class="edge">
<title>Node5&#45;&gt;Node7</title>
<g id="a_edge6_Node000005_Node000007"><a xlink:title=" ">
<path fill="none" stroke="#63b8ff" d="M506.22,-58C523.44,-58 541.21,-58 557.23,-58"/>
<polygon fill="#63b8ff" stroke="#63b8ff" points="557.49,-61.5 567.49,-58 557.49,-54.5 557.49,-61.5"/>
</a>
</g>
</g>
<!-- Node8 -->
<g id="Node000008" class="node">
<title>Node8</title>
<g id="a_Node000008"><a xlink:href="classNetworkClient.html#a36892dcdc8c2523b27947a347ea16022" target="_top" xlink:title=" ">
<polygon fill="white" stroke="#666666" points="688,-30 542,-30 542,0 688,0 688,-30"/>
<text text-anchor="start" x="550" y="-18" font-family="Helvetica,sans-Serif" font-size="10.00">NetworkClient::updateUdp</text>
<text text-anchor="middle" x="615" y="-7" font-family="Helvetica,sans-Serif" font-size="10.00">Rates</text>
</a>
</g>
</g>
<!-- Node5&#45;&gt;Node8 -->
<g id="edge7_Node000005_Node000008" class="edge">
<title>Node5&#45;&gt;Node8</title>
<g id="a_edge7_Node000005_Node000008"><a xlink:title=" ">
<path fill="none" stroke="#63b8ff" d="M465.78,-48.46C486.88,-43.69 513.06,-37.78 537.52,-32.26"/>
<polygon fill="#63b8ff" stroke="#63b8ff" points="538.53,-35.62 547.52,-30.01 536.99,-28.79 538.53,-35.62"/>
</a>
</g>
</g>
<!-- Node9&#45;&gt;Node5 -->
<g id="edge9_Node000009_Node000005" class="edge">
<title>Node9&#45;&gt;Node5</title>
<g id="a_edge9_Node000009_Node000005"><a xlink:title=" ">
<path fill="none" stroke="#63b8ff" d="M300.18,-46.63C309.54,-47.5 319.25,-48.41 328.91,-49.32"/>
<polygon fill="#63b8ff" stroke="#63b8ff" points="328.67,-52.81 338.95,-50.26 329.32,-45.84 328.67,-52.81"/>
</a>
</g>
</g>
</g>
</svg>
