<?xml version="1.0" encoding="UTF-8" standalone="no"?>
<!DOCTYPE svg PUBLIC "-//W3C//DTD SVG 1.1//EN"
 "http://www.w3.org/Graphics/SVG/1.1/DTD/svg11.dtd">
<!-- Generated by graphviz version 2.43.0 (0)
 -->
<!-- Title: Packet::deserialize Pages: 1 -->
<svg width="1713pt" height="217pt"
 viewBox="0.00 0.00 1713.00 217.00" xmlns="http://www.w3.org/2000/svg" xmlns:xlink="http://www.w3.org/1999/xlink">
<g id="graph0" class="graph" transform="scale(1 1) rotate(0) translate(4 213)">
<title>Packet::deserialize</title>
<!-- Node1 -->
<g id="Node000001" class="node">
<title>Node1</title>
<g id="a_Node000001"><a xlink:title="Deserialize a packet from a raw byte buffer.">
<polygon fill="#999999" stroke="#666666" points="1705,-57 1598,-57 1598,-38 1705,-38 1705,-57"/>
<text text-anchor="middle" x="1651.5" y="-45" font-family="Helvetica,sans-Serif" font-size="10.00">Packet::deserialize</text>
</a>
</g>
</g>
<!-- Node2 -->
<g id="Node000002" class="node">
<title>Node2</title>
<g id="a_Node000002"><a xlink:href="namespaceProtocol.html#a10005c44787f8de2a0e42d395aff8baa" target="_top" xlink:title="Try to extract a complete packet from an accumulated stream buffer.">
<polygon fill="white" stroke="#666666" points="1554,-95 1403,-95 1403,-76 1554,-76 1554,-95"/>
<text text-anchor="middle" x="1478.5" y="-83" font-family="Helvetica,sans-Serif" font-size="10.00">Protocol::extractFromBuffer</text>
</a>
</g>
</g>
<!-- Node1&#45;&gt;Node2 -->
<g id="edge1_Node000001_Node000002" class="edge">
<title>Node1&#45;&gt;Node2</title>
<g id="a_edge1_Node000001_Node000002"><a xlink:title=" ">
<path fill="none" stroke="#63b8ff" d="M1597.29,-59.32C1573.18,-64.68 1545.06,-70.93 1522.34,-75.98"/>
<polygon fill="#63b8ff" stroke="#63b8ff" points="1598.35,-62.68 1607.35,-57.09 1596.83,-55.84 1598.35,-62.68"/>
</a>
</g>
</g>
<!-- Node18 -->
<g id="Node000018" class="node">
<title>Node18</title>
<g id="a_Node000018"><a xlink:href="classUDPGameServer.html#a7f3a37004641222f4d30d55614f05029" target="_top" xlink:title="Thread loop to read incoming UDP packets without blocking the simulation tick.">
<polygon fill="white" stroke="#666666" points="1562,-57 1395,-57 1395,-38 1562,-38 1562,-57"/>
<text text-anchor="middle" x="1478.5" y="-45" font-family="Helvetica,sans-Serif" font-size="10.00">UDPGameServer::networkLoop</text>
</a>
</g>
</g>
<!-- Node1&#45;&gt;Node18 -->
<g id="edge21_Node000001_Node000018" class="edge">
<title>Node1&#45;&gt;Node18</title>
<g id="a_edge21_Node000001_Node000018"><a xlink:title=" ">
<path fill="none" stroke="#63b8ff" d="M1587.54,-47.5C1579.29,-47.5 1570.74,-47.5 1562.22,-47.5"/>
<polygon fill="#63b8ff" stroke="#63b8ff" points="1587.8,-51 1597.8,-47.5 1587.8,-44 1587.8,-51"/>
</a>
</g>
</g>
<!-- Node21 -->
<g id="Node000021" class="node">
<title>Node21</title>
<g id="a_Node000021"><a xlink:href="classNetworkClient.html#a101f6ab85ee02ddb9d45a40dad603e29" target="_top" xlink:title=" ">
<polygon fill="white" stroke="#666666" points="1359,-19 1194,-19 1194,0 1359,0 1359,-19"/>
<text text-anchor="middle" x="1276.5" y="-7" font-family="Helvetica,sans-Serif" font-size="10.00">NetworkClient::readUdpPacket</text>
</a>
</g>
</g>
<!-- Node1&#45;&gt;Node21 -->
<g id="edge24_Node000001_Node000021" class="edge">
<title>Node1&#45;&gt;Node21</title>
<g id="a_edge24_Node000001_Node000021"><a xlink:title=" ">
<path fill="none" stroke="#63b8ff" d="M1601.87,-35.74C1588.98,-32.98 1575.02,-30.32 1562,-28.5 1493.98,-18.98 1416.12,-14.2 1359.07,-11.81"/>
<polygon fill="#63b8ff" stroke="#63b8ff" points="1601.43,-39.22 1611.95,-37.95 1602.93,-32.39 1601.43,-39.22"/>
</a>
</g>
</g>
<!-- Node3 -->
<g id="Node000003" class="node">
<title>Node3</title>
<g id="a_Node000003"><a xlink:href="namespaceProtocol.html#ad768525ca5f0324a5f414440e67679b6" target="_top" xlink:title="Append newly read bytes then attempt extraction.">
<polygon fill="white" stroke="#666666" points="1345,-152 1208,-152 1208,-133 1345,-133 1345,-152"/>
<text text-anchor="middle" x="1276.5" y="-140" font-family="Helvetica,sans-Serif" font-size="10.00">Protocol::consumeChunk</text>
</a>
</g>
</g>
<!-- Node2&#45;&gt;Node3 -->
<g id="edge2_Node000002_Node000003" class="edge">
<title>Node2&#45;&gt;Node3</title>
<g id="a_edge2_Node000002_Node000003"><a xlink:title=" ">
<path fill="none" stroke="#63b8ff" d="M1434.04,-97.88C1397.12,-108.41 1344.87,-123.3 1311.08,-132.93"/>
<polygon fill="#63b8ff" stroke="#63b8ff" points="1435.37,-101.15 1444.02,-95.04 1433.45,-94.42 1435.37,-101.15"/>
</a>
</g>
</g>
<!-- Node14 -->
<g id="Node000014" class="node">
<title>Node14</title>
<g id="a_Node000014"><a xlink:href="classNetworkClient.html#a1f77ff0729755d9782b4542582cfe214" target="_top" xlink:title="Poll TCP/UDP sockets and handle any received packets.">
<polygon fill="white" stroke="#666666" points="762,-95 615,-95 615,-76 762,-76 762,-95"/>
<text text-anchor="middle" x="688.5" y="-83" font-family="Helvetica,sans-Serif" font-size="10.00">NetworkClient::pollPackets</text>
</a>
</g>
</g>
<!-- Node2&#45;&gt;Node14 -->
<g id="edge20_Node000002_Node000014" class="edge">
<title>Node2&#45;&gt;Node14</title>
<g id="a_edge20_Node000002_Node000014"><a xlink:title=" ">
<path fill="none" stroke="#63b8ff" d="M1392.66,-85.5C1236.96,-85.5 908.23,-85.5 762.13,-85.5"/>
<polygon fill="#63b8ff" stroke="#63b8ff" points="1392.66,-89 1402.66,-85.5 1392.66,-82 1392.66,-89"/>
</a>
</g>
</g>
<!-- Node4 -->
<g id="Node000004" class="node">
<title>Node4</title>
<g id="a_Node000004"><a xlink:href="classTCPServer.html#ae9543e5003c04975a7e06a9bb85c7723" target="_top" xlink:title="Receive and parse a packet from a client socket.">
<polygon fill="white" stroke="#666666" points="1156,-202 1016,-202 1016,-183 1156,-183 1156,-202"/>
<text text-anchor="middle" x="1086" y="-190" font-family="Helvetica,sans-Serif" font-size="10.00">TCPServer::receivePacket</text>
</a>
</g>
</g>
<!-- Node3&#45;&gt;Node4 -->
<g id="edge3_Node000003_Node000004" class="edge">
<title>Node3&#45;&gt;Node4</title>
<g id="a_edge3_Node000003_Node000004"><a xlink:title=" ">
<path fill="none" stroke="#63b8ff" d="M1229.8,-154.62C1197.01,-163.32 1153.44,-174.88 1123.09,-182.93"/>
<polygon fill="#63b8ff" stroke="#63b8ff" points="1230.83,-157.97 1239.6,-152.02 1229.04,-151.2 1230.83,-157.97"/>
</a>
</g>
</g>
<!-- Node8 -->
<g id="Node000008" class="node">
<title>Node8</title>
<g id="a_Node000008"><a xlink:href="classNetworkClient.html#ab8fe1bfbcfc0f363bce00cb1dc2a2f88" target="_top" xlink:title=" ">
<polygon fill="white" stroke="#666666" points="1158,-157.5 1014,-157.5 1014,-127.5 1158,-127.5 1158,-157.5"/>
<text text-anchor="start" x="1022" y="-145.5" font-family="Helvetica,sans-Serif" font-size="10.00">NetworkClient::receiveTcp</text>
<text text-anchor="middle" x="1086" y="-134.5" font-family="Helvetica,sans-Serif" font-size="10.00">Framed</text>
</a>
</g>
</g>
<!-- Node3&#45;&gt;Node8 -->
<g id="edge7_Node000003_Node000008" class="edge">
<title>Node3&#45;&gt;Node8</title>
<g id="a_edge7_Node000003_Node000008"><a xlink:title=" ">
<path fill="none" stroke="#63b8ff" d="M1197.62,-142.5C1184.56,-142.5 1171.07,-142.5 1158.19,-142.5"/>
<polygon fill="#63b8ff" stroke="#63b8ff" points="1197.98,-146 1207.98,-142.5 1197.98,-139 1197.98,-146"/>
</a>
</g>
</g>
<!-- Node5 -->
<g id="Node000005" class="node">
<title>Node5</title>
<g id="a_Node000005"><a xlink:href="classTCPServer.html#ada05a61182a782b4d3326fabd26a19bf" target="_top" xlink:title="Read and handle data for a single client.">
<polygon fill="white" stroke="#666666" points="978,-209 817,-209 817,-190 978,-190 978,-209"/>
<text text-anchor="middle" x="897.5" y="-197" font-family="Helvetica,sans-Serif" font-size="10.00">TCPServer::processClientData</text>
</a>
</g>
</g>
<!-- Node4&#45;&gt;Node5 -->
<g id="edge4_Node000004_Node000005" class="edge">
<title>Node4&#45;&gt;Node5</title>
<g id="a_edge4_Node000004_Node000005"><a xlink:title=" ">
<path fill="none" stroke="#63b8ff" d="M1005.67,-195.48C996.6,-195.82 987.34,-196.17 978.27,-196.51"/>
<polygon fill="#63b8ff" stroke="#63b8ff" points="1005.96,-198.97 1015.82,-195.1 1005.7,-191.97 1005.96,-198.97"/>
</a>
</g>
</g>
<!-- Node6 -->
<g id="Node000006" class="node">
<title>Node6</title>
<g id="a_Node000006"><a xlink:href="classTCPServer.html#a4e6d2ef05b71c4ecbd0518fc7215ece3" target="_top" xlink:title="Run the main accept/receive loop (blocking).">
<polygon fill="white" stroke="#666666" points="732.5,-209 644.5,-209 644.5,-190 732.5,-190 732.5,-209"/>
<text text-anchor="middle" x="688.5" y="-197" font-family="Helvetica,sans-Serif" font-size="10.00">TCPServer::run</text>
</a>
</g>
</g>
<!-- Node5&#45;&gt;Node6 -->
<g id="edge5_Node000005_Node000006" class="edge">
<title>Node5&#45;&gt;Node6</title>
<g id="a_edge5_Node000005_Node000006"><a xlink:title=" ">
<path fill="none" stroke="#63b8ff" d="M806.62,-199.5C780.97,-199.5 754.18,-199.5 732.71,-199.5"/>
<polygon fill="#63b8ff" stroke="#63b8ff" points="806.76,-203 816.76,-199.5 806.76,-196 806.76,-203"/>
</a>
</g>
</g>
<!-- Node7 -->
<g id="Node000007" class="node">
<title>Node7</title>
<g id="a_Node000007"><a xlink:href="server_8cpp.html#ae66f6b31b5ad750f1fe042a706a4e3d4" target="_top" xlink:title=" ">
<polygon fill="white" stroke="#666666" points="497,-209 456,-209 456,-190 497,-190 497,-209"/>
<text text-anchor="middle" x="476.5" y="-197" font-family="Helvetica,sans-Serif" font-size="10.00">main</text>
</a>
</g>
</g>
<!-- Node6&#45;&gt;Node7 -->
<g id="edge6_Node000006_Node000007" class="edge">
<title>Node6&#45;&gt;Node7</title>
<g id="a_edge6_Node000006_Node000007"><a xlink:title=" ">
<path fill="none" stroke="#63b8ff" d="M634.36,-199.5C589.6,-199.5 528.05,-199.5 497.04,-199.5"/>
<polygon fill="#63b8ff" stroke="#63b8ff" points="634.5,-203 644.5,-199.5 634.5,-196 634.5,-203"/>
</a>
</g>
</g>
<!-- Node9 -->
<g id="Node000009" class="node">
<title>Node9</title>
<g id="a_Node000009"><a xlink:href="classNetworkClient.html#a1773337e67c321eece590156e1a7b38a" target="_top" xlink:title="Perform the application handshake over TCP.">
<polygon fill="white" stroke="#666666" points="781,-171 596,-171 596,-152 781,-152 781,-171"/>
<text text-anchor="middle" x="688.5" y="-159" font-family="Helvetica,sans-Serif" font-size="10.00">NetworkClient::performHandshake</text>
</a>
</g>
</g>
<!-- Node8&#45;&gt;Node9 -->
<g id="edge8_Node000008_Node000009" class="edge">
<title>Node8&#45;&gt;Node9</title>
<g id="a_edge8_Node000008_Node000009"><a xlink:title=" ">
<path fill="none" stroke="#63b8ff" d="M1003.69,-146.41C939.04,-149.51 848.61,-153.86 781.35,-157.09"/>
<polygon fill="#63b8ff" stroke="#63b8ff" points="1004.02,-149.89 1013.84,-145.92 1003.68,-142.9 1004.02,-149.89"/>
</a>
</g>
</g>
<!-- Node13 -->
<g id="Node000013" class="node">
<title>Node13</title>
<g id="a_Node000013"><a xlink:href="classNetworkClient.html#ac0dca5641be17084ead40825063b944e" target="_top" xlink:title=" ">
<polygon fill="white" stroke="#666666" points="978,-133 817,-133 817,-114 978,-114 978,-133"/>
<text text-anchor="middle" x="897.5" y="-121" font-family="Helvetica,sans-Serif" font-size="10.00">NetworkClient::readTcpPacket</text>
</a>
</g>
</g>
<!-- Node8&#45;&gt;Node13 -->
<g id="edge12_Node000008_Node000013" class="edge">
<title>Node8&#45;&gt;Node13</title>
<g id="a_edge12_Node000008_Node000013"><a xlink:title=" ">
<path fill="none" stroke="#63b8ff" d="M1003.96,-134.24C995.37,-133.37 986.64,-132.48 978.06,-131.61"/>
<polygon fill="#63b8ff" stroke="#63b8ff" points="1003.66,-137.73 1013.96,-135.26 1004.37,-130.77 1003.66,-137.73"/>
</a>
</g>
</g>
<!-- Node10 -->
<g id="Node000010" class="node">
<title>Node10</title>
<g id="a_Node000010"><a xlink:href="classGraphicClient.html#a4b416d0d2b3f07134ce30afb0c60adbe" target="_top" xlink:title="Initializes the client (connects to server, shows menus).">
<polygon fill="white" stroke="#666666" points="339,-114 235,-114 235,-95 339,-95 339,-114"/>
<text text-anchor="middle" x="287" y="-102" font-family="Helvetica,sans-Serif" font-size="10.00">GraphicClient::init</text>
</a>
</g>
</g>
<!-- Node9&#45;&gt;Node10 -->
<g id="edge9_Node000009_Node000010" class="edge">
<title>Node9&#45;&gt;Node10</title>
<g id="a_edge9_Node000009_Node000010"><a xlink:title=" ">
<path fill="none" stroke="#63b8ff" d="M610.77,-150.56C551.34,-142.09 466.95,-130.05 393,-119.5 375.41,-116.99 356.16,-114.24 339,-111.79"/>
<polygon fill="#63b8ff" stroke="#63b8ff" points="610.44,-154.05 620.83,-152 611.42,-147.12 610.44,-154.05"/>
</a>
</g>
</g>
<!-- Node11 -->
<g id="Node000011" class="node">
<title>Node11</title>
<g id="a_Node000011"><a xlink:href="classGraphicClient.html#ad39a5f1d7ec30752f8d412d6925ef109" target="_top" xlink:title="Main application loop.">
<polygon fill="white" stroke="#666666" points="181,-92 77,-92 77,-73 181,-73 181,-92"/>
<text text-anchor="middle" x="129" y="-80" font-family="Helvetica,sans-Serif" font-size="10.00">GraphicClient::run</text>
</a>
</g>
</g>
<!-- Node10&#45;&gt;Node11 -->
<g id="edge10_Node000010_Node000011" class="edge">
<title>Node10&#45;&gt;Node11</title>
<g id="a_edge10_Node000010_Node000011"><a xlink:title=" ">
<path fill="none" stroke="#63b8ff" d="M224.62,-95.84C210.24,-93.82 195.07,-91.68 181.19,-89.72"/>
<polygon fill="#63b8ff" stroke="#63b8ff" points="224.53,-99.37 234.92,-97.3 225.51,-92.43 224.53,-99.37"/>
</a>
</g>
</g>
<!-- Node12 -->
<g id="Node000012" class="node">
<title>Node12</title>
<g id="a_Node000012"><a xlink:href="client_8cpp.html#ae66f6b31b5ad750f1fe042a706a4e3d4" target="_top" xlink:title=" ">
<polygon fill="white" stroke="#666666" points="41,-92 0,-92 0,-73 41,-73 41,-92"/>
<text text-anchor="middle" x="20.5" y="-80" font-family="Helvetica,sans-Serif" font-size="10.00">main</text>
</a>
</g>
</g>
<!-- Node11&#45;&gt;Node12 -->
<g id="edge11_Node000011_Node000012" class="edge">
<title>Node11&#45;&gt;Node12</title>
<g id="a_edge11_Node000011_Node000012"><a xlink:title=" ">
<path fill="none" stroke="#63b8ff" d="M66.83,-82.5C57.58,-82.5 48.66,-82.5 41.22,-82.5"/>
<polygon fill="#63b8ff" stroke="#63b8ff" points="66.93,-86 76.93,-82.5 66.93,-79 66.93,-86"/>
</a>
</g>
</g>
<!-- Node13&#45;&gt;Node14 -->
<g id="edge13_Node000013_Node000014" class="edge">
<title>Node13&#45;&gt;Node14</title>
<g id="a_edge13_Node000013_Node000014"><a xlink:title=" ">
<path fill="none" stroke="#63b8ff" d="M834.69,-112.15C804.99,-106.7 769.79,-100.24 741.49,-95.04"/>
<polygon fill="#63b8ff" stroke="#63b8ff" points="834.06,-115.6 844.53,-113.96 835.33,-108.71 834.06,-115.6"/>
</a>
</g>
</g>
<!-- Node14&#45;&gt;Node10 -->
<g id="edge14_Node000014_Node000010" class="edge">
<title>Node14&#45;&gt;Node10</title>
<g id="a_edge14_Node000014_Node000010"><a xlink:title=" ">
<path fill="none" stroke="#63b8ff" d="M625.61,-96.6C604.83,-99.83 581.48,-102.91 560,-104.5 483.24,-110.19 393.96,-108.63 339.22,-106.75"/>
<polygon fill="#63b8ff" stroke="#63b8ff" points="626.26,-100.04 635.59,-95.01 625.16,-93.13 626.26,-100.04"/>
</a>
</g>
</g>
<!-- Node15 -->
<g id="Node000015" class="node">
<title>Node15</title>
<g id="a_Node000015"><a xlink:href="classGraphicClient.html#a1fa2cfd0c71b32b0b1f0e0675a2e1cb2" target="_top" xlink:title="Processes network events and updates game state.">
<polygon fill="white" stroke="#666666" points="560,-57.5 393,-57.5 393,-27.5 560,-27.5 560,-57.5"/>
<text text-anchor="start" x="401" y="-45.5" font-family="Helvetica,sans-Serif" font-size="10.00">GraphicClient::processNetwork</text>
<text text-anchor="middle" x="476.5" y="-34.5" font-family="Helvetica,sans-Serif" font-size="10.00">Events</text>
</a>
</g>
</g>
<!-- Node14&#45;&gt;Node15 -->
<g id="edge15_Node000014_Node000015" class="edge">
<title>Node14&#45;&gt;Node15</title>
<g id="a_edge15_Node000014_Node000015"><a xlink:title=" ">
<path fill="none" stroke="#63b8ff" d="M630.98,-73.93C606.32,-68.88 577.09,-62.89 550.79,-57.51"/>
<polygon fill="#63b8ff" stroke="#63b8ff" points="630.4,-77.38 640.89,-75.96 631.8,-70.52 630.4,-77.38"/>
</a>
</g>
</g>
<!-- Node17 -->
<g id="Node000017" class="node">
<title>Node17</title>
<g id="a_Node000017"><a xlink:href="classGraphicClient.html#a70229e3e019e7b315f06c9ad74f23be5" target="_top" xlink:title="Shows lobby selection menu.">
<polygon fill="white" stroke="#666666" points="550,-95 403,-95 403,-76 550,-76 550,-95"/>
<text text-anchor="middle" x="476.5" y="-83" font-family="Helvetica,sans-Serif" font-size="10.00">GraphicClient::selectLobby</text>
</a>
</g>
</g>
<!-- Node14&#45;&gt;Node17 -->
<g id="edge18_Node000014_Node000017" class="edge">
<title>Node14&#45;&gt;Node17</title>
<g id="a_edge18_Node000014_Node000017"><a xlink:title=" ">
<path fill="none" stroke="#63b8ff" d="M604.72,-85.5C586.67,-85.5 567.69,-85.5 550.07,-85.5"/>
<polygon fill="#63b8ff" stroke="#63b8ff" points="604.94,-89 614.94,-85.5 604.94,-82 604.94,-89"/>
</a>
</g>
</g>
<!-- Node16 -->
<g id="Node000016" class="node">
<title>Node16</title>
<g id="a_Node000016"><a xlink:href="classGraphicClient.html#a5cb5c37142e62f04824cc6e21dd199b2" target="_top" xlink:title="Main game loop iteration.">
<polygon fill="white" stroke="#666666" points="357,-74 217,-74 217,-55 357,-55 357,-74"/>
<text text-anchor="middle" x="287" y="-62" font-family="Helvetica,sans-Serif" font-size="10.00">GraphicClient::gameLoop</text>
</a>
</g>
</g>
<!-- Node15&#45;&gt;Node16 -->
<g id="edge16_Node000015_Node000016" class="edge">
<title>Node15&#45;&gt;Node16</title>
<g id="a_edge16_Node000015_Node000016"><a xlink:title=" ">
<path fill="none" stroke="#63b8ff" d="M382.83,-53.37C374.16,-54.39 365.48,-55.41 357.08,-56.39"/>
<polygon fill="#63b8ff" stroke="#63b8ff" points="383.46,-56.82 392.99,-52.18 382.65,-49.87 383.46,-56.82"/>
</a>
</g>
</g>
<!-- Node16&#45;&gt;Node11 -->
<g id="edge17_Node000016_Node000011" class="edge">
<title>Node16&#45;&gt;Node11</title>
<g id="a_edge17_Node000016_Node000011"><a xlink:title=" ">
<path fill="none" stroke="#63b8ff" d="M206.6,-73.66C198.02,-74.65 189.46,-75.64 181.33,-76.58"/>
<polygon fill="#63b8ff" stroke="#63b8ff" points="207.13,-77.12 216.67,-72.5 206.33,-70.17 207.13,-77.12"/>
</a>
</g>
</g>
<!-- Node17&#45;&gt;Node10 -->
<g id="edge19_Node000017_Node000010" class="edge">
<title>Node17&#45;&gt;Node10</title>
<g id="a_edge19_Node000017_Node000010"><a xlink:title=" ">
<path fill="none" stroke="#63b8ff" d="M392.71,-93.89C374.51,-95.73 355.76,-97.63 339.24,-99.31"/>
<polygon fill="#63b8ff" stroke="#63b8ff" points="393.14,-97.36 402.74,-92.87 392.44,-90.4 393.14,-97.36"/>
</a>
</g>
</g>
<!-- Node19 -->
<g id="Node000019" class="node">
<title>Node19</title>
<g id="a_Node000019"><a xlink:href="classUDPGameServer.html#a476a4f2e8bb0833c788761298eb4a72b" target="_top" xlink:title="Start the main server loop (blocking).">
<polygon fill="white" stroke="#666666" points="1336.5,-57 1216.5,-57 1216.5,-38 1336.5,-38 1336.5,-57"/>
<text text-anchor="middle" x="1276.5" y="-45" font-family="Helvetica,sans-Serif" font-size="10.00">UDPGameServer::run</text>
</a>
</g>
</g>
<!-- Node18&#45;&gt;Node19 -->
<g id="edge22_Node000018_Node000019" class="edge">
<title>Node18&#45;&gt;Node19</title>
<g id="a_edge22_Node000018_Node000019"><a xlink:title=" ">
<path fill="none" stroke="#63b8ff" d="M1384.83,-47.5C1368.43,-47.5 1351.76,-47.5 1336.61,-47.5"/>
<polygon fill="#63b8ff" stroke="#63b8ff" points="1385,-51 1395,-47.5 1385,-44 1385,-51"/>
</a>
</g>
</g>
<!-- Node20 -->
<g id="Node000020" class="node">
<title>Node20</title>
<g id="a_Node000020"><a xlink:href="game_8cpp.html#a3c04138a5bfe5d72780bb7e82a18e627" target="_top" xlink:title=" ">
<polygon fill="white" stroke="#666666" points="1106.5,-57 1065.5,-57 1065.5,-38 1106.5,-38 1106.5,-57"/>
<text text-anchor="middle" x="1086" y="-45" font-family="Helvetica,sans-Serif" font-size="10.00">main</text>
</a>
</g>
</g>
<!-- Node19&#45;&gt;Node20 -->
<g id="edge23_Node000019_Node000020" class="edge">
<title>Node19&#45;&gt;Node20</title>
<g id="a_edge23_Node000019_Node000020"><a xlink:title=" ">
<path fill="none" stroke="#63b8ff" d="M1206.06,-47.5C1170.65,-47.5 1130.22,-47.5 1106.75,-47.5"/>
<polygon fill="#63b8ff" stroke="#63b8ff" points="1206.37,-51 1216.37,-47.5 1206.37,-44 1206.37,-51"/>
</a>
</g>
</g>
<!-- Node21&#45;&gt;Node14 -->
<g id="edge25_Node000021_Node000014" class="edge">
<title>Node21&#45;&gt;Node14</title>
<g id="a_edge25_Node000021_Node000014"><a xlink:title=" ">
<path fill="none" stroke="#63b8ff" d="M1183.54,-13.9C1133.32,-16.87 1070.1,-21.55 1014,-28.5 913.95,-40.89 797.85,-63.24 735.23,-75.96"/>
<polygon fill="#63b8ff" stroke="#63b8ff" points="1183.94,-17.38 1193.72,-13.31 1183.54,-10.39 1183.94,-17.38"/>
</a>
</g>
</g>
</g>
</svg>
