<?xml version="1.0" encoding="UTF-8" standalone="no"?>
<!DOCTYPE svg PUBLIC "-//W3C//DTD SVG 1.1//EN"
 "http://www.w3.org/Graphics/SVG/1.1/DTD/svg11.dtd">
<!-- Generated by graphviz version 2.43.0 (0)
 -->
<!-- Title: NetworkClient::clearEvents Pages: 1 -->
<svg width="753pt" height="132pt"
 viewBox="0.00 0.00 753.00 131.52" xmlns="http://www.w3.org/2000/svg" xmlns:xlink="http://www.w3.org/1999/xlink">
<g id="graph0" class="graph" transform="scale(1 1) rotate(0) translate(4 127.52)">
<title>NetworkClient::clearEvents</title>
<!-- Node1 -->
<g id="Node000001" class="node">
<title>Node1</title>
<g id="a_Node000001"><a xlink:title="Clear queued events.">
<polygon fill="#999999" stroke="#666666" points="745,-78 596,-78 596,-59 745,-59 745,-78"/>
<text text-anchor="middle" x="670.5" y="-66" font-family="Helvetica,sans-Serif" font-size="10.00">NetworkClient::clearEvents</text>
</a>
</g>
</g>
<!-- Node2 -->
<g id="Node000002" class="node">
<title>Node2</title>
<g id="a_Node000002"><a xlink:href="classGraphicClient.html#a5cb5c37142e62f04824cc6e21dd199b2" target="_top" xlink:title="Main game loop iteration.">
<polygon fill="white" stroke="#666666" points="357,-100 217,-100 217,-81 357,-81 357,-100"/>
<text text-anchor="middle" x="287" y="-88" font-family="Helvetica,sans-Serif" font-size="10.00">GraphicClient::gameLoop</text>
</a>
</g>
</g>
<!-- Node1&#45;&gt;Node2 -->
<g id="edge1_Node000001_Node000002" class="edge">
<title>Node1&#45;&gt;Node2</title>
<g id="a_edge1_Node000001_Node000002"><a xlink:title=" ">
<path fill="none" stroke="#63b8ff" d="M643.87,-82.72C622.25,-93.85 590.11,-108.43 560,-114.5 487.24,-129.16 466.75,-122.82 393,-114.5 368.66,-111.75 341.73,-105.53 321.24,-100.11"/>
<polygon fill="#63b8ff" stroke="#63b8ff" points="645.52,-85.8 652.73,-78.04 642.26,-79.61 645.52,-85.8"/>
</a>
</g>
</g>
<!-- Node5 -->
<g id="Node000005" class="node">
<title>Node5</title>
<g id="a_Node000005"><a xlink:href="classGraphicClient.html#a4b416d0d2b3f07134ce30afb0c60adbe" target="_top" xlink:title="Initializes the client (connects to server, shows menus).">
<polygon fill="white" stroke="#666666" points="339,-57 235,-57 235,-38 339,-38 339,-57"/>
<text text-anchor="middle" x="287" y="-45" font-family="Helvetica,sans-Serif" font-size="10.00">GraphicClient::init</text>
</a>
</g>
</g>
<!-- Node1&#45;&gt;Node5 -->
<g id="edge4_Node000001_Node000005" class="edge">
<title>Node1&#45;&gt;Node5</title>
<g id="a_edge4_Node000001_Node000005"><a xlink:title=" ">
<path fill="none" stroke="#63b8ff" d="M585.54,-63.88C510.22,-59.73 402.11,-53.78 339.07,-50.31"/>
<polygon fill="#63b8ff" stroke="#63b8ff" points="585.77,-67.4 595.94,-64.45 586.15,-60.41 585.77,-67.4"/>
</a>
</g>
</g>
<!-- Node6 -->
<g id="Node000006" class="node">
<title>Node6</title>
<g id="a_Node000006"><a xlink:href="classGraphicClient.html#a1fa2cfd0c71b32b0b1f0e0675a2e1cb2" target="_top" xlink:title="Processes network events and updates game state.">
<polygon fill="white" stroke="#666666" points="560,-105.5 393,-105.5 393,-75.5 560,-75.5 560,-105.5"/>
<text text-anchor="start" x="401" y="-93.5" font-family="Helvetica,sans-Serif" font-size="10.00">GraphicClient::processNetwork</text>
<text text-anchor="middle" x="476.5" y="-82.5" font-family="Helvetica,sans-Serif" font-size="10.00">Events</text>
</a>
</g>
</g>
<!-- Node1&#45;&gt;Node6 -->
<g id="edge6_Node000001_Node000006" class="edge">
<title>Node1&#45;&gt;Node6</title>
<g id="a_edge6_Node000001_Node000006"><a xlink:title=" ">
<path fill="none" stroke="#63b8ff" d="M585.63,-78.11C577.21,-79.07 568.67,-80.05 560.27,-81.02"/>
<polygon fill="#63b8ff" stroke="#63b8ff" points="586.28,-81.56 595.82,-76.94 585.48,-74.6 586.28,-81.56"/>
</a>
</g>
</g>
<!-- Node7 -->
<g id="Node000007" class="node">
<title>Node7</title>
<g id="a_Node000007"><a xlink:href="classGraphicClient.html#a70229e3e019e7b315f06c9ad74f23be5" target="_top" xlink:title="Shows lobby selection menu.">
<polygon fill="white" stroke="#666666" points="550,-19 403,-19 403,0 550,0 550,-19"/>
<text text-anchor="middle" x="476.5" y="-7" font-family="Helvetica,sans-Serif" font-size="10.00">GraphicClient::selectLobby</text>
</a>
</g>
</g>
<!-- Node1&#45;&gt;Node7 -->
<g id="edge8_Node000001_Node000007" class="edge">
<title>Node1&#45;&gt;Node7</title>
<g id="a_edge8_Node000001_Node000007"><a xlink:title=" ">
<path fill="none" stroke="#63b8ff" d="M630.5,-55.76C609.63,-49.01 583.46,-40.66 560,-33.5 544.02,-28.62 526.23,-23.42 511.28,-19.11"/>
<polygon fill="#63b8ff" stroke="#63b8ff" points="629.69,-59.18 640.29,-58.93 631.85,-52.52 629.69,-59.18"/>
</a>
</g>
</g>
<!-- Node3 -->
<g id="Node000003" class="node">
<title>Node3</title>
<g id="a_Node000003"><a xlink:href="classGraphicClient.html#ad39a5f1d7ec30752f8d412d6925ef109" target="_top" xlink:title="Main application loop.">
<polygon fill="white" stroke="#666666" points="181,-78 77,-78 77,-59 181,-59 181,-78"/>
<text text-anchor="middle" x="129" y="-66" font-family="Helvetica,sans-Serif" font-size="10.00">GraphicClient::run</text>
</a>
</g>
</g>
<!-- Node2&#45;&gt;Node3 -->
<g id="edge2_Node000002_Node000003" class="edge">
<title>Node2&#45;&gt;Node3</title>
<g id="a_edge2_Node000002_Node000003"><a xlink:title=" ">
<path fill="none" stroke="#63b8ff" d="M208.46,-79.56C199.19,-78.26 189.91,-76.95 181.15,-75.71"/>
<polygon fill="#63b8ff" stroke="#63b8ff" points="208.09,-83.05 218.48,-80.98 209.07,-76.12 208.09,-83.05"/>
</a>
</g>
</g>
<!-- Node4 -->
<g id="Node000004" class="node">
<title>Node4</title>
<g id="a_Node000004"><a xlink:href="client_8cpp.html#ae66f6b31b5ad750f1fe042a706a4e3d4" target="_top" xlink:title=" ">
<polygon fill="white" stroke="#666666" points="41,-78 0,-78 0,-59 41,-59 41,-78"/>
<text text-anchor="middle" x="20.5" y="-66" font-family="Helvetica,sans-Serif" font-size="10.00">main</text>
</a>
</g>
</g>
<!-- Node3&#45;&gt;Node4 -->
<g id="edge3_Node000003_Node000004" class="edge">
<title>Node3&#45;&gt;Node4</title>
<g id="a_edge3_Node000003_Node000004"><a xlink:title=" ">
<path fill="none" stroke="#63b8ff" d="M66.83,-68.5C57.58,-68.5 48.66,-68.5 41.22,-68.5"/>
<polygon fill="#63b8ff" stroke="#63b8ff" points="66.93,-72 76.93,-68.5 66.93,-65 66.93,-72"/>
</a>
</g>
</g>
<!-- Node5&#45;&gt;Node3 -->
<g id="edge5_Node000005_Node000003" class="edge">
<title>Node5&#45;&gt;Node3</title>
<g id="a_edge5_Node000005_Node000003"><a xlink:title=" ">
<path fill="none" stroke="#63b8ff" d="M224.62,-55.76C210.24,-57.7 195.07,-59.74 181.19,-61.61"/>
<polygon fill="#63b8ff" stroke="#63b8ff" points="225.48,-59.18 234.92,-54.38 224.54,-52.24 225.48,-59.18"/>
</a>
</g>
</g>
<!-- Node6&#45;&gt;Node2 -->
<g id="edge7_Node000006_Node000002" class="edge">
<title>Node6&#45;&gt;Node2</title>
<g id="a_edge7_Node000006_Node000002"><a xlink:title=" ">
<path fill="none" stroke="#63b8ff" d="M382.83,-90.5C374.16,-90.5 365.48,-90.5 357.08,-90.5"/>
<polygon fill="#63b8ff" stroke="#63b8ff" points="382.99,-94 392.99,-90.5 382.99,-87 382.99,-94"/>
</a>
</g>
</g>
<!-- Node7&#45;&gt;Node5 -->
<g id="edge9_Node000007_Node000005" class="edge">
<title>Node7&#45;&gt;Node5</title>
<g id="a_edge9_Node000007_Node000005"><a xlink:title=" ">
<path fill="none" stroke="#63b8ff" d="M418.22,-21.11C391.55,-26.51 360.22,-32.86 334.97,-37.98"/>
<polygon fill="#63b8ff" stroke="#63b8ff" points="419.08,-24.51 428.19,-19.09 417.69,-17.65 419.08,-24.51"/>
</a>
</g>
</g>
</g>
</svg>
