<?xml version="1.0" encoding="UTF-8" standalone="no"?>
<!DOCTYPE svg PUBLIC "-//W3C//DTD SVG 1.1//EN"
 "http://www.w3.org/Graphics/SVG/1.1/DTD/svg11.dtd">
<!-- Generated by graphviz version 2.43.0 (0)
 -->
<!-- Title: GraphicClient::selectSettings Pages: 1 -->
<svg width="381pt" height="446pt"
 viewBox="0.00 0.00 381.00 446.00" xmlns="http://www.w3.org/2000/svg" xmlns:xlink="http://www.w3.org/1999/xlink">
<g id="graph0" class="graph" transform="scale(1 1) rotate(0) translate(4 442)">
<title>GraphicClient::selectSettings</title>
<!-- Node1 -->
<g id="Node000001" class="node">
<title>Node1</title>
<g id="a_Node000001"><a xlink:title="Shows controls settings menu for key remapping.">
<polygon fill="#999999" stroke="#666666" points="158,-231 0,-231 0,-212 158,-212 158,-231"/>
<text text-anchor="middle" x="79" y="-219" font-family="Helvetica,sans-Serif" font-size="10.00">GraphicClient::selectSettings</text>
</a>
</g>
</g>
<!-- Node2 -->
<g id="Node000002" class="node">
<title>Node2</title>
<g id="a_Node000002"><a xlink:href="classRaylib_1_1Window.html#a0d93c896921575743b097baa6d66a6b4" target="_top" xlink:title="Begins drawing frame.">
<polygon fill="white" stroke="#666666" points="366,-438 201,-438 201,-419 366,-419 366,-438"/>
<text text-anchor="middle" x="283.5" y="-426" font-family="Helvetica,sans-Serif" font-size="10.00">Raylib::Window::beginDrawing</text>
</a>
</g>
</g>
<!-- Node1&#45;&gt;Node2 -->
<g id="edge1_Node000001_Node000002" class="edge">
<title>Node1&#45;&gt;Node2</title>
<g id="a_edge1_Node000001_Node000002"><a xlink:title=" ">
<path fill="none" stroke="#63b8ff" d="M82.79,-231.28C92.35,-262.92 126.99,-363.23 194,-410.5 195.93,-411.86 197.93,-413.12 200,-414.29"/>
<polygon fill="#63b8ff" stroke="#63b8ff" points="198.89,-417.64 209.42,-418.86 201.95,-411.35 198.89,-417.64"/>
</a>
</g>
</g>
<!-- Node3 -->
<g id="Node000003" class="node">
<title>Node3</title>
<g id="a_Node000003"><a xlink:href="classRaylib_1_1Window.html#ab5db70ee0a095180020beaa8f134247d" target="_top" xlink:title="Clears background with specified color.">
<polygon fill="white" stroke="#666666" points="373,-401 194,-401 194,-382 373,-382 373,-401"/>
<text text-anchor="middle" x="283.5" y="-389" font-family="Helvetica,sans-Serif" font-size="10.00">Raylib::Window::clearBackground</text>
</a>
</g>
</g>
<!-- Node1&#45;&gt;Node3 -->
<g id="edge2_Node000001_Node000003" class="edge">
<title>Node1&#45;&gt;Node3</title>
<g id="a_edge2_Node000001_Node000003"><a xlink:title=" ">
<path fill="none" stroke="#63b8ff" d="M84.23,-231.26C96.62,-258.66 135.74,-336.65 194,-373.5 196.48,-375.07 199.08,-376.51 201.76,-377.82"/>
<polygon fill="#63b8ff" stroke="#63b8ff" points="200.56,-381.12 211.13,-381.84 203.31,-374.68 200.56,-381.12"/>
</a>
</g>
</g>
<!-- Node4 -->
<g id="Node000004" class="node">
<title>Node4</title>
<g id="a_Node000004"><a xlink:href="classRaylib_1_1Window.html#a9692f845607bfbb28fb4e889ea0d3b37" target="_top" xlink:title="Ends drawing frame and displays it.">
<polygon fill="white" stroke="#666666" points="361.5,-364 205.5,-364 205.5,-345 361.5,-345 361.5,-364"/>
<text text-anchor="middle" x="283.5" y="-352" font-family="Helvetica,sans-Serif" font-size="10.00">Raylib::Window::endDrawing</text>
</a>
</g>
</g>
<!-- Node1&#45;&gt;Node4 -->
<g id="edge3_Node000001_Node000004" class="edge">
<title>Node1&#45;&gt;Node4</title>
<g id="a_edge3_Node000001_Node000004"><a xlink:title=" ">
<path fill="none" stroke="#63b8ff" d="M86.41,-231.09C101.94,-253.51 144.03,-309.51 194,-336.5 197.47,-338.37 201.11,-340.05 204.86,-341.56"/>
<polygon fill="#63b8ff" stroke="#63b8ff" points="203.76,-344.88 214.36,-344.95 206.12,-338.29 203.76,-344.88"/>
</a>
</g>
</g>
<!-- Node5 -->
<g id="Node000005" class="node">
<title>Node5</title>
<g id="a_Node000005"><a xlink:href="classRaylib_1_1Window.html#a8a6eedeecb648b4c1527681a42727e15" target="_top" xlink:title="Gets time delta since last frame.">
<polygon fill="white" stroke="#666666" points="368,-327 199,-327 199,-308 368,-308 368,-327"/>
<text text-anchor="middle" x="283.5" y="-315" font-family="Helvetica,sans-Serif" font-size="10.00">Raylib::Window::getFrameTime</text>
</a>
</g>
</g>
<!-- Node1&#45;&gt;Node5 -->
<g id="edge4_Node000001_Node000005" class="edge">
<title>Node1&#45;&gt;Node5</title>
<g id="a_edge4_Node000001_Node000005"><a xlink:title=" ">
<path fill="none" stroke="#63b8ff" d="M90.76,-231.1C110.01,-247.74 152.26,-281.84 194,-299.5 199.05,-301.64 204.38,-303.53 209.81,-305.2"/>
<polygon fill="#63b8ff" stroke="#63b8ff" points="209.08,-308.63 219.66,-307.97 210.98,-301.89 209.08,-308.63"/>
</a>
</g>
</g>
<!-- Node6 -->
<g id="Node000006" class="node">
<title>Node6</title>
<g id="a_Node000006"><a xlink:href="classInputSystem.html#ac4da6a8e14e4907b0c7882e1297fea3a" target="_top" xlink:title="Retrieves the current key binding for an action.">
<polygon fill="white" stroke="#666666" points="342.5,-290 224.5,-290 224.5,-271 342.5,-271 342.5,-290"/>
<text text-anchor="middle" x="283.5" y="-278" font-family="Helvetica,sans-Serif" font-size="10.00">InputSystem::getKey</text>
</a>
</g>
</g>
<!-- Node1&#45;&gt;Node6 -->
<g id="edge5_Node000001_Node000006" class="edge">
<title>Node1&#45;&gt;Node6</title>
<g id="a_edge5_Node000001_Node000006"><a xlink:title=" ">
<path fill="none" stroke="#63b8ff" d="M103.69,-231.16C126.53,-240.19 162.2,-253.6 194,-262.5 202.14,-264.78 210.77,-266.9 219.34,-268.82"/>
<polygon fill="#63b8ff" stroke="#63b8ff" points="218.8,-272.28 229.32,-270.98 220.29,-265.44 218.8,-272.28"/>
</a>
</g>
</g>
<!-- Node7 -->
<g id="Node000007" class="node">
<title>Node7</title>
<g id="a_Node000007"><a xlink:href="classRaylib_1_1Input.html#a77b20ab7de1540d7cc5c18f71b137a12" target="_top" xlink:title="Checks if a key was just pressed this frame.">
<polygon fill="white" stroke="#666666" points="358,-253 209,-253 209,-234 358,-234 358,-253"/>
<text text-anchor="middle" x="283.5" y="-241" font-family="Helvetica,sans-Serif" font-size="10.00">Raylib::Input::isKeyPressed</text>
</a>
</g>
</g>
<!-- Node1&#45;&gt;Node7 -->
<g id="edge6_Node000001_Node000007" class="edge">
<title>Node1&#45;&gt;Node7</title>
<g id="a_edge6_Node000001_Node000007"><a xlink:title=" ">
<path fill="none" stroke="#63b8ff" d="M158,-229.97C171.32,-231.42 185.2,-232.93 198.67,-234.39"/>
<polygon fill="#63b8ff" stroke="#63b8ff" points="198.54,-237.9 208.86,-235.5 199.3,-230.94 198.54,-237.9"/>
</a>
</g>
</g>
<!-- Node8 -->
<g id="Node000008" class="node">
<title>Node8</title>
<g id="a_Node000008"><a xlink:href="classGraphicClient.html#a8afc36976fbd0ff4c0e8e3a3acb53989" target="_top" xlink:title="Converts keyboard key code to human&#45;readable string.">
<polygon fill="white" stroke="#666666" points="359.5,-215.5 207.5,-215.5 207.5,-185.5 359.5,-185.5 359.5,-215.5"/>
<text text-anchor="start" x="215.5" y="-203.5" font-family="Helvetica,sans-Serif" font-size="10.00">GraphicClient::keyboardKey</text>
<text text-anchor="middle" x="283.5" y="-192.5" font-family="Helvetica,sans-Serif" font-size="10.00">ToString</text>
</a>
</g>
</g>
<!-- Node1&#45;&gt;Node8 -->
<g id="edge7_Node000001_Node000008" class="edge">
<title>Node1&#45;&gt;Node8</title>
<g id="a_edge7_Node000001_Node000008"><a xlink:title=" ">
<path fill="none" stroke="#63b8ff" d="M158,-213.41C170.75,-212.09 184.02,-210.71 196.94,-209.37"/>
<polygon fill="#63b8ff" stroke="#63b8ff" points="197.62,-212.82 207.2,-208.31 196.9,-205.86 197.62,-212.82"/>
</a>
</g>
</g>
<!-- Node9 -->
<g id="Node000009" class="node">
<title>Node9</title>
<g id="a_Node000009"><a xlink:href="classRaylib_1_1Draw.html#ac711ababd202454476d1127d61f8a837" target="_top" xlink:title="Draws a filled rectangle.">
<polygon fill="white" stroke="#666666" points="348.5,-167 218.5,-167 218.5,-148 348.5,-148 348.5,-167"/>
<text text-anchor="middle" x="283.5" y="-155" font-family="Helvetica,sans-Serif" font-size="10.00">Raylib::Draw::rectangle</text>
</a>
</g>
</g>
<!-- Node1&#45;&gt;Node9 -->
<g id="edge8_Node000001_Node000009" class="edge">
<title>Node1&#45;&gt;Node9</title>
<g id="a_edge8_Node000001_Node000009"><a xlink:title=" ">
<path fill="none" stroke="#63b8ff" d="M101.06,-211.97C123.66,-202.04 160.8,-186.54 194,-176.5 202.73,-173.86 212.04,-171.44 221.23,-169.28"/>
<polygon fill="#63b8ff" stroke="#63b8ff" points="222.15,-172.66 231.12,-167.03 220.6,-165.83 222.15,-172.66"/>
</a>
</g>
</g>
<!-- Node10 -->
<g id="Node000010" class="node">
<title>Node10</title>
<g id="a_Node000010"><a xlink:href="classRaylib_1_1Draw.html#a1a91623bcea0592d00ae0264d81acd52" target="_top" xlink:title="Draws a rectangle outline.">
<polygon fill="white" stroke="#666666" points="361,-130 206,-130 206,-111 361,-111 361,-130"/>
<text text-anchor="middle" x="283.5" y="-118" font-family="Helvetica,sans-Serif" font-size="10.00">Raylib::Draw::rectangleLines</text>
</a>
</g>
</g>
<!-- Node1&#45;&gt;Node10 -->
<g id="edge9_Node000001_Node000010" class="edge">
<title>Node1&#45;&gt;Node10</title>
<g id="a_edge9_Node000001_Node000010"><a xlink:title=" ">
<path fill="none" stroke="#63b8ff" d="M90.08,-211.98C108.93,-194.73 151.43,-158.38 194,-139.5 199.75,-136.95 205.87,-134.73 212.09,-132.81"/>
<polygon fill="#63b8ff" stroke="#63b8ff" points="213.27,-136.11 221.93,-130.01 211.36,-129.38 213.27,-136.11"/>
</a>
</g>
</g>
<!-- Node11 -->
<g id="Node000011" class="node">
<title>Node11</title>
<g id="a_Node000011"><a xlink:href="classInputSystem.html#ab584f9708fa5b2c909a96a698980f682" target="_top" xlink:title="Sets a custom key binding for a specific action.">
<polygon fill="white" stroke="#666666" points="342,-93 225,-93 225,-74 342,-74 342,-93"/>
<text text-anchor="middle" x="283.5" y="-81" font-family="Helvetica,sans-Serif" font-size="10.00">InputSystem::setKey</text>
</a>
</g>
</g>
<!-- Node1&#45;&gt;Node11 -->
<g id="edge10_Node000001_Node000011" class="edge">
<title>Node1&#45;&gt;Node11</title>
<g id="a_edge10_Node000001_Node000011"><a xlink:title=" ">
<path fill="none" stroke="#63b8ff" d="M86.11,-211.95C101.32,-189.05 143.29,-130.81 194,-102.5 200.51,-98.87 207.64,-95.93 214.95,-93.55"/>
<polygon fill="#63b8ff" stroke="#63b8ff" points="216.35,-96.79 224.98,-90.64 214.4,-90.07 216.35,-96.79"/>
</a>
</g>
</g>
<!-- Node12 -->
<g id="Node000012" class="node">
<title>Node12</title>
<g id="a_Node000012"><a xlink:href="classRaylib_1_1Window.html#ac0d6cca8b53645743f06c2e453624938" target="_top" xlink:title="Checks if window should close.">
<polygon fill="white" stroke="#666666" points="362,-56 205,-56 205,-37 362,-37 362,-56"/>
<text text-anchor="middle" x="283.5" y="-44" font-family="Helvetica,sans-Serif" font-size="10.00">Raylib::Window::shouldClose</text>
</a>
</g>
</g>
<!-- Node1&#45;&gt;Node12 -->
<g id="edge11_Node000001_Node000012" class="edge">
<title>Node1&#45;&gt;Node12</title>
<g id="a_edge11_Node000001_Node000012"><a xlink:title=" ">
<path fill="none" stroke="#63b8ff" d="M84,-211.91C96.05,-184.25 134.91,-103.84 194,-65.5 197.15,-63.46 200.49,-61.63 203.94,-59.99"/>
<polygon fill="#63b8ff" stroke="#63b8ff" points="205.43,-63.16 213.33,-56.1 202.75,-56.7 205.43,-63.16"/>
</a>
</g>
</g>
<!-- Node13 -->
<g id="Node000013" class="node">
<title>Node13</title>
<g id="a_Node000013"><a xlink:href="classRaylib_1_1Draw.html#adf84c6a40cd571fbbdeacf2868ab192e" target="_top" xlink:title="Draws text on screen.">
<polygon fill="white" stroke="#666666" points="335.5,-19 231.5,-19 231.5,0 335.5,0 335.5,-19"/>
<text text-anchor="middle" x="283.5" y="-7" font-family="Helvetica,sans-Serif" font-size="10.00">Raylib::Draw::text</text>
</a>
</g>
</g>
<!-- Node1&#45;&gt;Node13 -->
<g id="edge12_Node000001_Node000013" class="edge">
<title>Node1&#45;&gt;Node13</title>
<g id="a_edge12_Node000001_Node000013"><a xlink:title=" ">
<path fill="none" stroke="#63b8ff" d="M82.61,-212C91.85,-180.3 126.12,-77.41 194,-28.5 202.13,-22.64 211.7,-18.53 221.48,-15.64"/>
<polygon fill="#63b8ff" stroke="#63b8ff" points="222.46,-19.01 231.3,-13.15 220.74,-12.22 222.46,-19.01"/>
</a>
</g>
</g>
</g>
</svg>
