<?xml version="1.0" encoding="UTF-8" standalone="no"?>
<!DOCTYPE svg PUBLIC "-//W3C//DTD SVG 1.1//EN"
 "http://www.w3.org/Graphics/SVG/1.1/DTD/svg11.dtd">
<!-- Generated by graphviz version 2.43.0 (0)
 -->
<!-- Title: NetworkClient::getUdpRxKbps Pages: 1 -->
<svg width="354pt" height="76pt"
 viewBox="0.00 0.00 354.00 75.50" xmlns="http://www.w3.org/2000/svg" xmlns:xlink="http://www.w3.org/1999/xlink">
<g id="graph0" class="graph" transform="scale(1 1) rotate(0) translate(4 71.5)">
<title>NetworkClient::getUdpRxKbps</title>
<!-- Node1 -->
<g id="Node000001" class="node">
<title>Node1</title>
<g id="a_Node000001"><a xlink:title="Get current UDP receive rate in Kbps.">
<polygon fill="#999999" stroke="#666666" points="164,-45.5 0,-45.5 0,-26.5 164,-26.5 164,-45.5"/>
<text text-anchor="middle" x="82" y="-33.5" font-family="Helvetica,sans-Serif" font-size="10.00">NetworkClient::getUdpRxKbps</text>
</a>
</g>
</g>
<!-- Node2 -->
<g id="Node000002" class="node">
<title>Node2</title>
<g id="a_Node000002"><a xlink:href="classNetworkClient.html#aaf60f1216a17b46ad12539625a1022c2" target="_top" xlink:title=" ">
<polygon fill="white" stroke="#666666" points="336.5,-67.5 209.5,-67.5 209.5,-48.5 336.5,-48.5 336.5,-67.5"/>
<text text-anchor="middle" x="273" y="-55.5" font-family="Helvetica,sans-Serif" font-size="10.00">NetworkClient::nowMs</text>
</a>
</g>
</g>
<!-- Node1&#45;&gt;Node2 -->
<g id="edge1_Node000001_Node000002" class="edge">
<title>Node1&#45;&gt;Node2</title>
<g id="a_edge1_Node000001_Node000002"><a xlink:title=" ">
<path fill="none" stroke="#63b8ff" d="M164.25,-45.46C175.93,-46.82 187.9,-48.21 199.4,-49.55"/>
<polygon fill="#63b8ff" stroke="#63b8ff" points="199.03,-53.03 209.37,-50.71 199.84,-46.08 199.03,-53.03"/>
</a>
</g>
</g>
<!-- Node3 -->
<g id="Node000003" class="node">
<title>Node3</title>
<g id="a_Node000003"><a xlink:href="classNetworkClient.html#a36892dcdc8c2523b27947a347ea16022" target="_top" xlink:title=" ">
<polygon fill="white" stroke="#666666" points="346,-30 200,-30 200,0 346,0 346,-30"/>
<text text-anchor="start" x="208" y="-18" font-family="Helvetica,sans-Serif" font-size="10.00">NetworkClient::updateUdp</text>
<text text-anchor="middle" x="273" y="-7" font-family="Helvetica,sans-Serif" font-size="10.00">Rates</text>
</a>
</g>
</g>
<!-- Node1&#45;&gt;Node3 -->
<g id="edge2_Node000001_Node000003" class="edge">
<title>Node1&#45;&gt;Node3</title>
<g id="a_edge2_Node000001_Node000003"><a xlink:title=" ">
<path fill="none" stroke="#63b8ff" d="M164.25,-26.97C172.64,-26.04 181.18,-25.09 189.58,-24.16"/>
<polygon fill="#63b8ff" stroke="#63b8ff" points="190.2,-27.61 199.76,-23.03 189.43,-20.65 190.2,-27.61"/>
</a>
</g>
</g>
</g>
</svg>
