<?xml version="1.0" encoding="UTF-8" standalone="no"?>
<!DOCTYPE svg PUBLIC "-//W3C//DTD SVG 1.1//EN"
 "http://www.w3.org/Graphics/SVG/1.1/DTD/svg11.dtd">
<!-- Generated by graphviz version 2.43.0 (0)
 -->
<!-- Title: TCPServer::removeFromLobby Pages: 1 -->
<svg width="981pt" height="177pt"
 viewBox="0.00 0.00 981.00 177.05" xmlns="http://www.w3.org/2000/svg" xmlns:xlink="http://www.w3.org/1999/xlink">
<g id="graph0" class="graph" transform="scale(1 1) rotate(0) translate(4 173.05)">
<title>TCPServer::removeFromLobby</title>
<!-- Node1 -->
<g id="Node000001" class="node">
<title>Node1</title>
<g id="a_Node000001"><a xlink:title="Remove a client from its current lobby.">
<polygon fill="#999999" stroke="#666666" points="973,-94.05 809,-94.05 809,-75.05 973,-75.05 973,-94.05"/>
<text text-anchor="middle" x="891" y="-82.05" font-family="Helvetica,sans-Serif" font-size="10.00">TCPServer::removeFromLobby</text>
</a>
</g>
</g>
<!-- Node2 -->
<g id="Node000002" class="node">
<title>Node2</title>
<g id="a_Node000002"><a xlink:href="classTCPServer.html#a84035146c9257be5714850a1f46d0bfb" target="_top" xlink:title="Assign a client to a lobby (public or private).">
<polygon fill="white" stroke="#666666" points="753,-132.05 620,-132.05 620,-113.05 753,-113.05 753,-132.05"/>
<text text-anchor="middle" x="686.5" y="-120.05" font-family="Helvetica,sans-Serif" font-size="10.00">TCPServer::assignLobby</text>
</a>
</g>
</g>
<!-- Node1&#45;&gt;Node2 -->
<g id="edge1_Node000001_Node000002" class="edge">
<title>Node1&#45;&gt;Node2</title>
<g id="a_edge1_Node000001_Node000002"><a xlink:title=" ">
<path fill="none" stroke="#63b8ff" d="M829.15,-95.97C800.18,-101.4 765.92,-107.83 738.36,-113.01"/>
<polygon fill="#63b8ff" stroke="#63b8ff" points="829.98,-99.37 839.16,-94.09 828.69,-92.49 829.98,-99.37"/>
</a>
</g>
</g>
<!-- Node8 -->
<g id="Node000008" class="node">
<title>Node8</title>
<g id="a_Node000008"><a xlink:href="classTCPServer.html#a2a03b7479e884f287b5a88df03eeb17b" target="_top" xlink:title=" ">
<polygon fill="white" stroke="#666666" points="773,-38.05 600,-38.05 600,-19.05 773,-19.05 773,-38.05"/>
<text text-anchor="middle" x="686.5" y="-26.05" font-family="Helvetica,sans-Serif" font-size="10.00">TCPServer::processIpcMessages</text>
</a>
</g>
</g>
<!-- Node1&#45;&gt;Node8 -->
<g id="edge7_Node000001_Node000008" class="edge">
<title>Node1&#45;&gt;Node8</title>
<g id="a_edge7_Node000001_Node000008"><a xlink:title=" ">
<path fill="none" stroke="#63b8ff" d="M845.12,-72.14C807.91,-61.85 755.81,-47.44 721.86,-38.05"/>
<polygon fill="#63b8ff" stroke="#63b8ff" points="844.62,-75.63 855.19,-74.92 846.48,-68.88 844.62,-75.63"/>
</a>
</g>
</g>
<!-- Node9 -->
<g id="Node000009" class="node">
<title>Node9</title>
<g id="a_Node000009"><a xlink:href="classTCPServer.html#a435ec8dcd340e15f964ce3c0748c7305" target="_top" xlink:title="Reset client fields and close its socket.">
<polygon fill="white" stroke="#666666" points="543.5,-95.05 418.5,-95.05 418.5,-76.05 543.5,-76.05 543.5,-95.05"/>
<text text-anchor="middle" x="481" y="-83.05" font-family="Helvetica,sans-Serif" font-size="10.00">TCPServer::resetClient</text>
</a>
</g>
</g>
<!-- Node1&#45;&gt;Node9 -->
<g id="edge9_Node000001_Node000009" class="edge">
<title>Node1&#45;&gt;Node9</title>
<g id="a_edge9_Node000001_Node000009"><a xlink:title=" ">
<path fill="none" stroke="#63b8ff" d="M798.63,-84.77C720.9,-84.96 611.39,-85.23 543.65,-85.4"/>
<polygon fill="#63b8ff" stroke="#63b8ff" points="798.91,-88.27 808.9,-84.75 798.9,-81.27 798.91,-88.27"/>
</a>
</g>
</g>
<!-- Node3 -->
<g id="Node000003" class="node">
<title>Node3</title>
<g id="a_Node000003"><a xlink:href="classTCPServer.html#ad6bed785945fc2f21376ff2b58090829" target="_top" xlink:title="Auto&#45;match the client into a public lobby.">
<polygon fill="white" stroke="#666666" points="558.5,-169.05 403.5,-169.05 403.5,-150.05 558.5,-150.05 558.5,-169.05"/>
<text text-anchor="middle" x="481" y="-157.05" font-family="Helvetica,sans-Serif" font-size="10.00">TCPServer::autoAssignPublic</text>
</a>
</g>
</g>
<!-- Node2&#45;&gt;Node3 -->
<g id="edge2_Node000002_Node000003" class="edge">
<title>Node2&#45;&gt;Node3</title>
<g id="a_edge2_Node000002_Node000003"><a xlink:title=" ">
<path fill="none" stroke="#63b8ff" d="M622.91,-133.93C594.62,-139.07 561.56,-145.08 534.58,-149.99"/>
<polygon fill="#63b8ff" stroke="#63b8ff" points="623.88,-137.31 633.09,-132.08 622.63,-130.42 623.88,-137.31"/>
</a>
</g>
</g>
<!-- Node4 -->
<g id="Node000004" class="node">
<title>Node4</title>
<g id="a_Node000004"><a xlink:href="classTCPServer.html#afd78aa179d3b735e82868d800629b354" target="_top" xlink:title="Handle lobby&#45;related packets for a client.">
<polygon fill="white" stroke="#666666" points="564,-132.05 398,-132.05 398,-113.05 564,-113.05 564,-132.05"/>
<text text-anchor="middle" x="481" y="-120.05" font-family="Helvetica,sans-Serif" font-size="10.00">TCPServer::handleLobbyPacket</text>
</a>
</g>
</g>
<!-- Node2&#45;&gt;Node4 -->
<g id="edge3_Node000002_Node000004" class="edge">
<title>Node2&#45;&gt;Node4</title>
<g id="a_edge3_Node000002_Node000004"><a xlink:title=" ">
<path fill="none" stroke="#63b8ff" d="M609.83,-122.55C594.94,-122.55 579.26,-122.55 564.17,-122.55"/>
<polygon fill="#63b8ff" stroke="#63b8ff" points="609.99,-126.05 619.99,-122.55 609.99,-119.05 609.99,-126.05"/>
</a>
</g>
</g>
<!-- Node5 -->
<g id="Node000005" class="node">
<title>Node5</title>
<g id="a_Node000005"><a xlink:href="classTCPServer.html#ada05a61182a782b4d3326fabd26a19bf" target="_top" xlink:title="Read and handle data for a single client.">
<polygon fill="white" stroke="#666666" points="362,-132.05 201,-132.05 201,-113.05 362,-113.05 362,-132.05"/>
<text text-anchor="middle" x="281.5" y="-120.05" font-family="Helvetica,sans-Serif" font-size="10.00">TCPServer::processClientData</text>
</a>
</g>
</g>
<!-- Node4&#45;&gt;Node5 -->
<g id="edge4_Node000004_Node000005" class="edge">
<title>Node4&#45;&gt;Node5</title>
<g id="a_edge4_Node000004_Node000005"><a xlink:title=" ">
<path fill="none" stroke="#63b8ff" d="M387.88,-122.55C379.25,-122.55 370.56,-122.55 362.07,-122.55"/>
<polygon fill="#63b8ff" stroke="#63b8ff" points="387.96,-126.05 397.96,-122.55 387.96,-119.05 387.96,-126.05"/>
</a>
</g>
</g>
<!-- Node6 -->
<g id="Node000006" class="node">
<title>Node6</title>
<g id="a_Node000006"><a xlink:href="classTCPServer.html#a4e6d2ef05b71c4ecbd0518fc7215ece3" target="_top" xlink:title="Run the main accept/receive loop (blocking).">
<polygon fill="white" stroke="#666666" points="165,-95.05 77,-95.05 77,-76.05 165,-76.05 165,-95.05"/>
<text text-anchor="middle" x="121" y="-83.05" font-family="Helvetica,sans-Serif" font-size="10.00">TCPServer::run</text>
</a>
</g>
</g>
<!-- Node5&#45;&gt;Node6 -->
<g id="edge5_Node000005_Node000006" class="edge">
<title>Node5&#45;&gt;Node6</title>
<g id="a_edge5_Node000005_Node000006"><a xlink:title=" ">
<path fill="none" stroke="#63b8ff" d="M227.97,-110.76C218.97,-108.71 209.71,-106.58 201,-104.55 188.09,-101.53 174.01,-98.17 161.36,-95.12"/>
<polygon fill="#63b8ff" stroke="#63b8ff" points="227.45,-114.23 237.98,-113.03 229,-107.41 227.45,-114.23"/>
</a>
</g>
</g>
<!-- Node7 -->
<g id="Node000007" class="node">
<title>Node7</title>
<g id="a_Node000007"><a xlink:href="server_8cpp.html#ae66f6b31b5ad750f1fe042a706a4e3d4" target="_top" xlink:title=" ">
<polygon fill="white" stroke="#666666" points="41,-95.05 0,-95.05 0,-76.05 41,-76.05 41,-95.05"/>
<text text-anchor="middle" x="20.5" y="-83.05" font-family="Helvetica,sans-Serif" font-size="10.00">main</text>
</a>
</g>
</g>
<!-- Node6&#45;&gt;Node7 -->
<g id="edge6_Node000006_Node000007" class="edge">
<title>Node6&#45;&gt;Node7</title>
<g id="a_edge6_Node000006_Node000007"><a xlink:title=" ">
<path fill="none" stroke="#63b8ff" d="M66.57,-85.55C57.52,-85.55 48.67,-85.55 41.23,-85.55"/>
<polygon fill="#63b8ff" stroke="#63b8ff" points="66.8,-89.05 76.8,-85.55 66.8,-82.05 66.8,-89.05"/>
</a>
</g>
</g>
<!-- Node8&#45;&gt;Node6 -->
<g id="edge8_Node000008_Node000006" class="edge">
<title>Node8&#45;&gt;Node6</title>
<g id="a_edge8_Node000008_Node000006"><a xlink:title=" ">
<path fill="none" stroke="#63b8ff" d="M625.75,-17.35C532.47,-2.34 347.73,17.35 201,-29.55 172.5,-38.66 145.44,-62.17 131.59,-75.66"/>
<polygon fill="#63b8ff" stroke="#63b8ff" points="625.41,-20.84 635.85,-19.01 626.55,-13.93 625.41,-20.84"/>
</a>
</g>
</g>
<!-- Node9&#45;&gt;Node5 -->
<g id="edge12_Node000009_Node000005" class="edge">
<title>Node9&#45;&gt;Node5</title>
<g id="a_edge12_Node000009_Node000005"><a xlink:title=" ">
<path fill="none" stroke="#63b8ff" d="M419.25,-96.93C391.8,-102.07 359.72,-108.08 333.53,-112.99"/>
<polygon fill="#63b8ff" stroke="#63b8ff" points="419.95,-100.36 429.14,-95.08 418.67,-93.48 419.95,-100.36"/>
</a>
</g>
</g>
<!-- Node10 -->
<g id="Node000010" class="node">
<title>Node10</title>
<g id="a_Node000010"><a xlink:href="classTCPServer.html#a867c0e233f62e2d8f181ae99dbcca0a0" target="_top" xlink:title="Disconnect clients whose heartbeat timed out.">
<polygon fill="white" stroke="#666666" points="356,-95.05 207,-95.05 207,-76.05 356,-76.05 356,-95.05"/>
<text text-anchor="middle" x="281.5" y="-83.05" font-family="Helvetica,sans-Serif" font-size="10.00">TCPServer::checkHeartbeat</text>
</a>
</g>
</g>
<!-- Node9&#45;&gt;Node10 -->
<g id="edge10_Node000009_Node000010" class="edge">
<title>Node9&#45;&gt;Node10</title>
<g id="a_edge10_Node000009_Node000010"><a xlink:title=" ">
<path fill="none" stroke="#63b8ff" d="M407.98,-85.55C391.11,-85.55 373.12,-85.55 356.18,-85.55"/>
<polygon fill="#63b8ff" stroke="#63b8ff" points="408.32,-89.05 418.32,-85.55 408.32,-82.05 408.32,-89.05"/>
</a>
</g>
</g>
<!-- Node11 -->
<g id="Node000011" class="node">
<title>Node11</title>
<g id="a_Node000011"><a xlink:href="classTCPServer.html#abc497ac52355e53986a6a1bd1acb9581" target="_top" xlink:title="Destroy the TCPServer, closing the listening socket.">
<polygon fill="white" stroke="#666666" points="346.5,-58.05 216.5,-58.05 216.5,-39.05 346.5,-39.05 346.5,-58.05"/>
<text text-anchor="middle" x="281.5" y="-46.05" font-family="Helvetica,sans-Serif" font-size="10.00">TCPServer::~TCPServer</text>
</a>
</g>
</g>
<!-- Node9&#45;&gt;Node11 -->
<g id="edge13_Node000009_Node000011" class="edge">
<title>Node9&#45;&gt;Node11</title>
<g id="a_edge13_Node000009_Node000011"><a xlink:title=" ">
<path fill="none" stroke="#63b8ff" d="M419.25,-74.17C391.8,-69.03 359.72,-63.02 333.53,-58.11"/>
<polygon fill="#63b8ff" stroke="#63b8ff" points="418.67,-77.62 429.14,-76.02 419.95,-70.74 418.67,-77.62"/>
</a>
</g>
</g>
<!-- Node10&#45;&gt;Node6 -->
<g id="edge11_Node000010_Node000006" class="edge">
<title>Node10&#45;&gt;Node6</title>
<g id="a_edge11_Node000010_Node000006"><a xlink:title=" ">
<path fill="none" stroke="#63b8ff" d="M196.8,-85.55C185.9,-85.55 175.11,-85.55 165.26,-85.55"/>
<polygon fill="#63b8ff" stroke="#63b8ff" points="196.82,-89.05 206.82,-85.55 196.82,-82.05 196.82,-89.05"/>
</a>
</g>
</g>
</g>
</svg>
