<?xml version="1.0" encoding="UTF-8" standalone="no"?>
<!DOCTYPE svg PUBLIC "-//W3C//DTD SVG 1.1//EN"
 "http://www.w3.org/Graphics/SVG/1.1/DTD/svg11.dtd">
<!-- Generated by graphviz version 2.43.0 (0)
 -->
<!-- Title: GameWorld::tick Pages: 1 -->
<svg width="331pt" height="212pt"
 viewBox="0.00 0.00 331.00 212.00" xmlns="http://www.w3.org/2000/svg" xmlns:xlink="http://www.w3.org/1999/xlink">
<g id="graph0" class="graph" transform="scale(1 1) rotate(0) translate(4 208)">
<title>GameWorld::tick</title>
<!-- Node1 -->
<g id="Node000001" class="node">
<title>Node1</title>
<g id="a_Node000001"><a xlink:title="Advance simulation.">
<polygon fill="#999999" stroke="#666666" points="98,-111 0,-111 0,-92 98,-92 98,-111"/>
<text text-anchor="middle" x="49" y="-99" font-family="Helvetica,sans-Serif" font-size="10.00">GameWorld::tick</text>
</a>
</g>
</g>
<!-- Node2 -->
<g id="Node000002" class="node">
<title>Node2</title>
<g id="a_Node000002"><a xlink:href="classGameWorld.html#acbdde5eb929528699e8176ec57779ec7" target="_top" xlink:title=" ">
<polygon fill="white" stroke="#666666" points="288.5,-204 168.5,-204 168.5,-185 288.5,-185 288.5,-204"/>
<text text-anchor="middle" x="228.5" y="-192" font-family="Helvetica,sans-Serif" font-size="10.00">GameWorld::hasBoss</text>
</a>
</g>
</g>
<!-- Node1&#45;&gt;Node2 -->
<g id="edge1_Node000001_Node000002" class="edge">
<title>Node1&#45;&gt;Node2</title>
<g id="a_edge1_Node000001_Node000002"><a xlink:title=" ">
<path fill="none" stroke="#63b8ff" d="M57.66,-111.11C71.2,-127.39 101.06,-160.2 134,-176.5 141.56,-180.24 149.82,-183.21 158.21,-185.56"/>
<polygon fill="#63b8ff" stroke="#63b8ff" points="157.52,-188.99 168.07,-188.04 159.23,-182.2 157.52,-188.99"/>
</a>
</g>
</g>
<!-- Node3 -->
<g id="Node000003" class="node">
<title>Node3</title>
<g id="a_Node000003"><a xlink:href="classGameWorld.html#a6af008239b30629fad73ae657465d37e" target="_top" xlink:title=" ">
<polygon fill="white" stroke="#666666" points="312,-167 145,-167 145,-148 312,-148 312,-167"/>
<text text-anchor="middle" x="228.5" y="-155" font-family="Helvetica,sans-Serif" font-size="10.00">GameWorld::shouldSpawnBoss</text>
</a>
</g>
</g>
<!-- Node1&#45;&gt;Node3 -->
<g id="edge2_Node000001_Node000003" class="edge">
<title>Node1&#45;&gt;Node3</title>
<g id="a_edge2_Node000001_Node000003"><a xlink:title=" ">
<path fill="none" stroke="#63b8ff" d="M67.87,-111.07C84.55,-119.64 110.35,-131.99 134,-139.5 141.31,-141.82 149.04,-143.89 156.81,-145.73"/>
<polygon fill="#63b8ff" stroke="#63b8ff" points="156.1,-149.16 166.62,-147.93 157.63,-142.33 156.1,-149.16"/>
</a>
</g>
</g>
<!-- Node4 -->
<g id="Node000004" class="node">
<title>Node4</title>
<g id="a_Node000004"><a xlink:href="classGameWorld.html#a98daebdd5931cf333037bc3891b16794" target="_top" xlink:title=" ">
<polygon fill="white" stroke="#666666" points="295.5,-130 161.5,-130 161.5,-111 295.5,-111 295.5,-130"/>
<text text-anchor="middle" x="228.5" y="-118" font-family="Helvetica,sans-Serif" font-size="10.00">GameWorld::spawnBoss</text>
</a>
</g>
</g>
<!-- Node1&#45;&gt;Node4 -->
<g id="edge3_Node000001_Node000004" class="edge">
<title>Node1&#45;&gt;Node4</title>
<g id="a_edge3_Node000001_Node000004"><a xlink:title=" ">
<path fill="none" stroke="#63b8ff" d="M98.03,-106.64C114.49,-108.4 133.34,-110.42 151.46,-112.36"/>
<polygon fill="#63b8ff" stroke="#63b8ff" points="151.12,-115.84 161.44,-113.43 151.86,-108.88 151.12,-115.84"/>
</a>
</g>
</g>
<!-- Node5 -->
<g id="Node000005" class="node">
<title>Node5</title>
<g id="a_Node000005"><a xlink:href="classGameWorld.html#ac1835fdf3232458197a2c81a1a0c5e02" target="_top" xlink:title=" ">
<polygon fill="white" stroke="#666666" points="310,-93 147,-93 147,-74 310,-74 310,-93"/>
<text text-anchor="middle" x="228.5" y="-81" font-family="Helvetica,sans-Serif" font-size="10.00">GameWorld::spawnBossBullet</text>
</a>
</g>
</g>
<!-- Node1&#45;&gt;Node5 -->
<g id="edge4_Node000001_Node000005" class="edge">
<title>Node1&#45;&gt;Node5</title>
<g id="a_edge4_Node000001_Node000005"><a xlink:title=" ">
<path fill="none" stroke="#63b8ff" d="M98.03,-96.63C110.06,-95.41 123.36,-94.06 136.72,-92.71"/>
<polygon fill="#63b8ff" stroke="#63b8ff" points="137.34,-96.16 146.93,-91.67 136.63,-89.2 137.34,-96.16"/>
</a>
</g>
</g>
<!-- Node6 -->
<g id="Node000006" class="node">
<title>Node6</title>
<g id="a_Node000006"><a xlink:href="classGameWorld.html#a3bf3aa2e665bed5c7e5c87f6f482ae97" target="_top" xlink:title=" ">
<polygon fill="white" stroke="#666666" points="304,-56 153,-56 153,-37 304,-37 304,-56"/>
<text text-anchor="middle" x="228.5" y="-44" font-family="Helvetica,sans-Serif" font-size="10.00">GameWorld::spawnMonster</text>
</a>
</g>
</g>
<!-- Node1&#45;&gt;Node6 -->
<g id="edge5_Node000001_Node000006" class="edge">
<title>Node1&#45;&gt;Node6</title>
<g id="a_edge5_Node000001_Node000006"><a xlink:title=" ">
<path fill="none" stroke="#63b8ff" d="M69.26,-91.9C86.02,-83.88 111.13,-72.64 134,-65.5 142.71,-62.78 152,-60.35 161.22,-58.21"/>
<polygon fill="#63b8ff" stroke="#63b8ff" points="162.15,-61.59 171.16,-56.01 160.64,-54.76 162.15,-61.59"/>
</a>
</g>
</g>
<!-- Node7 -->
<g id="Node000007" class="node">
<title>Node7</title>
<g id="a_Node000007"><a xlink:href="classGameWorld.html#a0bb6ed054b809cc92573fd87850ac468" target="_top" xlink:title=" ">
<polygon fill="white" stroke="#666666" points="323,-19 134,-19 134,0 323,0 323,-19"/>
<text text-anchor="middle" x="228.5" y="-7" font-family="Helvetica,sans-Serif" font-size="10.00">GameWorld::updateBossMovement</text>
</a>
</g>
</g>
<!-- Node1&#45;&gt;Node7 -->
<g id="edge6_Node000001_Node000007" class="edge">
<title>Node1&#45;&gt;Node7</title>
<g id="a_edge6_Node000001_Node000007"><a xlink:title=" ">
<path fill="none" stroke="#63b8ff" d="M57.95,-91.93C71.71,-76.06 101.59,-44.47 134,-28.5 138.92,-26.07 144.13,-23.96 149.48,-22.11"/>
<polygon fill="#63b8ff" stroke="#63b8ff" points="150.72,-25.39 159.22,-19.07 148.63,-18.71 150.72,-25.39"/>
</a>
</g>
</g>
</g>
</svg>
