<?xml version="1.0" encoding="UTF-8" standalone="no"?>
<!DOCTYPE svg PUBLIC "-//W3C//DTD SVG 1.1//EN"
 "http://www.w3.org/Graphics/SVG/1.1/DTD/svg11.dtd">
<!-- Generated by graphviz version 2.43.0 (0)
 -->
<!-- Title: IpcChannel::send Pages: 1 -->
<svg width="568pt" height="84pt"
 viewBox="0.00 0.00 568.00 84.00" xmlns="http://www.w3.org/2000/svg" xmlns:xlink="http://www.w3.org/1999/xlink">
<g id="graph0" class="graph" transform="scale(1 1) rotate(0) translate(4 80)">
<title>IpcChannel::send</title>
<!-- Node1 -->
<g id="Node000001" class="node">
<title>Node1</title>
<g id="a_Node000001"><a xlink:title="Send a text message (limited to 1024 bytes).">
<polygon fill="#999999" stroke="#666666" points="560,-57 460,-57 460,-38 560,-38 560,-57"/>
<text text-anchor="middle" x="510" y="-45" font-family="Helvetica,sans-Serif" font-size="10.00">IpcChannel::send</text>
</a>
</g>
</g>
<!-- Node2 -->
<g id="Node000002" class="node">
<title>Node2</title>
<g id="a_Node000002"><a xlink:href="game_8cpp.html#a3c04138a5bfe5d72780bb7e82a18e627" target="_top" xlink:title=" ">
<polygon fill="white" stroke="#666666" points="41,-76 0,-76 0,-57 41,-57 41,-76"/>
<text text-anchor="middle" x="20.5" y="-64" font-family="Helvetica,sans-Serif" font-size="10.00">main</text>
</a>
</g>
</g>
<!-- Node1&#45;&gt;Node2 -->
<g id="edge1_Node000001_Node000002" class="edge">
<title>Node1&#45;&gt;Node2</title>
<g id="a_edge1_Node000001_Node000002"><a xlink:title=" ">
<path fill="none" stroke="#63b8ff" d="M449.72,-58.36C441.12,-59.62 432.35,-60.72 424,-61.5 277.53,-75.11 99.79,-69.72 41.24,-67.37"/>
<polygon fill="#63b8ff" stroke="#63b8ff" points="450.36,-61.8 459.71,-56.83 449.3,-54.88 450.36,-61.8"/>
</a>
</g>
</g>
<!-- Node3 -->
<g id="Node000003" class="node">
<title>Node3</title>
<g id="a_Node000003"><a xlink:href="classUDPGameServer.html#a476a4f2e8bb0833c788761298eb4a72b" target="_top" xlink:title="Start the main server loop (blocking).">
<polygon fill="white" stroke="#666666" points="197,-57 77,-57 77,-38 197,-38 197,-57"/>
<text text-anchor="middle" x="137" y="-45" font-family="Helvetica,sans-Serif" font-size="10.00">UDPGameServer::run</text>
</a>
</g>
</g>
<!-- Node1&#45;&gt;Node3 -->
<g id="edge2_Node000001_Node000003" class="edge">
<title>Node1&#45;&gt;Node3</title>
<g id="a_edge2_Node000001_Node000003"><a xlink:title=" ">
<path fill="none" stroke="#63b8ff" d="M449.43,-47.5C380.14,-47.5 266.45,-47.5 197.29,-47.5"/>
<polygon fill="#63b8ff" stroke="#63b8ff" points="449.73,-51 459.73,-47.5 449.73,-44 449.73,-51"/>
</a>
</g>
</g>
<!-- Node4 -->
<g id="Node000004" class="node">
<title>Node4</title>
<g id="a_Node000004"><a xlink:href="classUDPGameServer.html#aa1c969e983f12d8e36bfb2465f7fe5d6" target="_top" xlink:title="Advance the local simulation based on elapsed time.">
<polygon fill="white" stroke="#666666" points="424,-19 233,-19 233,0 424,0 424,-19"/>
<text text-anchor="middle" x="328.5" y="-7" font-family="Helvetica,sans-Serif" font-size="10.00">UDPGameServer::updateSimulation</text>
</a>
</g>
</g>
<!-- Node1&#45;&gt;Node4 -->
<g id="edge4_Node000001_Node000004" class="edge">
<title>Node1&#45;&gt;Node4</title>
<g id="a_edge4_Node000001_Node000004"><a xlink:title=" ">
<path fill="none" stroke="#63b8ff" d="M453.82,-35.82C428.37,-30.43 398.53,-24.11 374.47,-19.02"/>
<polygon fill="#63b8ff" stroke="#63b8ff" points="453.2,-39.26 463.7,-37.91 454.65,-32.42 453.2,-39.26"/>
</a>
</g>
</g>
<!-- Node3&#45;&gt;Node2 -->
<g id="edge3_Node000003_Node000002" class="edge">
<title>Node3&#45;&gt;Node2</title>
<g id="a_edge3_Node000003_Node000002"><a xlink:title=" ">
<path fill="none" stroke="#63b8ff" d="M68.36,-58.72C58.4,-60.38 48.88,-61.96 41.05,-63.26"/>
<polygon fill="#63b8ff" stroke="#63b8ff" points="69.12,-62.15 78.41,-57.06 67.98,-55.24 69.12,-62.15"/>
</a>
</g>
</g>
<!-- Node4&#45;&gt;Node3 -->
<g id="edge5_Node000004_Node000003" class="edge">
<title>Node4&#45;&gt;Node3</title>
<g id="a_edge5_Node000004_Node000003"><a xlink:title=" ">
<path fill="none" stroke="#63b8ff" d="M269.61,-21.11C242.65,-26.51 210.99,-32.86 185.47,-37.98"/>
<polygon fill="#63b8ff" stroke="#63b8ff" points="270.56,-24.49 279.68,-19.09 269.19,-17.62 270.56,-24.49"/>
</a>
</g>
</g>
</g>
</svg>
