<?xml version="1.0" encoding="UTF-8" standalone="no"?>
<!DOCTYPE svg PUBLIC "-//W3C//DTD SVG 1.1//EN"
 "http://www.w3.org/Graphics/SVG/1.1/DTD/svg11.dtd">
<!-- Generated by graphviz version 2.43.0 (0)
 -->
<!-- Title: NetworkClient::sendPacketTcp Pages: 1 -->
<svg width="468pt" height="64pt"
 viewBox="0.00 0.00 468.00 64.00" xmlns="http://www.w3.org/2000/svg" xmlns:xlink="http://www.w3.org/1999/xlink">
<g id="graph0" class="graph" transform="scale(1 1) rotate(0) translate(4 60)">
<title>NetworkClient::sendPacketTcp</title>
<!-- Node1 -->
<g id="Node000001" class="node">
<title>Node1</title>
<g id="a_Node000001"><a xlink:title=" ">
<polygon fill="#999999" stroke="#666666" points="163,-37 0,-37 0,-18 163,-18 163,-37"/>
<text text-anchor="middle" x="81.5" y="-25" font-family="Helvetica,sans-Serif" font-size="10.00">NetworkClient::sendPacketTcp</text>
</a>
</g>
</g>
<!-- Node2 -->
<g id="Node000002" class="node">
<title>Node2</title>
<g id="a_Node000002"><a xlink:href="namespaceProtocol.html#a668bdeed219432868fca095e1b2f2667" target="_top" xlink:title="Build a TCP framed buffer (2 bytes length + serialized packet).">
<polygon fill="white" stroke="#666666" points="317.5,-56 210.5,-56 210.5,-37 317.5,-37 317.5,-56"/>
<text text-anchor="middle" x="264" y="-44" font-family="Helvetica,sans-Serif" font-size="10.00">Protocol::frameTcp</text>
</a>
</g>
</g>
<!-- Node1&#45;&gt;Node2 -->
<g id="edge1_Node000001_Node000002" class="edge">
<title>Node1&#45;&gt;Node2</title>
<g id="a_edge1_Node000001_Node000002"><a xlink:title=" ">
<path fill="none" stroke="#63b8ff" d="M163.25,-36C175.59,-37.3 188.17,-38.62 200.05,-39.87"/>
<polygon fill="#63b8ff" stroke="#63b8ff" points="199.98,-43.39 210.3,-40.95 200.72,-36.42 199.98,-43.39"/>
</a>
</g>
</g>
<!-- Node4 -->
<g id="Node000004" class="node">
<title>Node4</title>
<g id="a_Node000004"><a xlink:href="classNetworkClient.html#a844f1f20acd0958f264c7bb67e18d111" target="_top" xlink:title=" ">
<polygon fill="white" stroke="#666666" points="329,-19 199,-19 199,0 329,0 329,-19"/>
<text text-anchor="middle" x="264" y="-7" font-family="Helvetica,sans-Serif" font-size="10.00">NetworkClient::writeAll</text>
</a>
</g>
</g>
<!-- Node1&#45;&gt;Node4 -->
<g id="edge3_Node000001_Node000004" class="edge">
<title>Node1&#45;&gt;Node4</title>
<g id="a_edge3_Node000001_Node000004"><a xlink:title=" ">
<path fill="none" stroke="#63b8ff" d="M163.25,-19.45C171.72,-18.6 180.31,-17.75 188.71,-16.91"/>
<polygon fill="#63b8ff" stroke="#63b8ff" points="189.23,-20.37 198.84,-15.9 188.54,-13.41 189.23,-20.37"/>
</a>
</g>
</g>
<!-- Node3 -->
<g id="Node000003" class="node">
<title>Node3</title>
<g id="a_Node000003"><a xlink:href="classPacket.html#aa88c2d28796644c8a1d6137996502ca8" target="_top" xlink:title="Serialize the packet to a byte buffer ready to send.">
<polygon fill="white" stroke="#666666" points="460,-56 365,-56 365,-37 460,-37 460,-56"/>
<text text-anchor="middle" x="412.5" y="-44" font-family="Helvetica,sans-Serif" font-size="10.00">Packet::serialize</text>
</a>
</g>
</g>
<!-- Node2&#45;&gt;Node3 -->
<g id="edge2_Node000002_Node000003" class="edge">
<title>Node2&#45;&gt;Node3</title>
<g id="a_edge2_Node000002_Node000003"><a xlink:title=" ">
<path fill="none" stroke="#63b8ff" d="M317.89,-46.5C329.93,-46.5 342.76,-46.5 354.95,-46.5"/>
<polygon fill="#63b8ff" stroke="#63b8ff" points="355,-50 365,-46.5 355,-43 355,-50"/>
</a>
</g>
</g>
</g>
</svg>
