<?xml version="1.0" encoding="UTF-8" standalone="no"?>
<!DOCTYPE svg PUBLIC "-//W3C//DTD SVG 1.1//EN"
 "http://www.w3.org/Graphics/SVG/1.1/DTD/svg11.dtd">
<!-- Generated by graphviz version 2.43.0 (0)
 -->
<!-- Title: NetworkClient::sendUdpPing Pages: 1 -->
<svg width="549pt" height="113pt"
 viewBox="0.00 0.00 549.00 112.50" xmlns="http://www.w3.org/2000/svg" xmlns:xlink="http://www.w3.org/1999/xlink">
<g id="graph0" class="graph" transform="scale(1 1) rotate(0) translate(4 108.5)">
<title>NetworkClient::sendUdpPing</title>
<!-- Node1 -->
<g id="Node000001" class="node">
<title>Node1</title>
<g id="a_Node000001"><a xlink:title="Send a UDP ping with client timestamp.">
<polygon fill="#999999" stroke="#666666" points="156,-85.5 0,-85.5 0,-66.5 156,-66.5 156,-85.5"/>
<text text-anchor="middle" x="78" y="-73.5" font-family="Helvetica,sans-Serif" font-size="10.00">NetworkClient::sendUdpPing</text>
</a>
</g>
</g>
<!-- Node2 -->
<g id="Node000002" class="node">
<title>Node2</title>
<g id="a_Node000002"><a xlink:href="classNetworkClient.html#aaf60f1216a17b46ad12539625a1022c2" target="_top" xlink:title=" ">
<polygon fill="white" stroke="#666666" points="531.5,-104.5 404.5,-104.5 404.5,-85.5 531.5,-85.5 531.5,-104.5"/>
<text text-anchor="middle" x="468" y="-92.5" font-family="Helvetica,sans-Serif" font-size="10.00">NetworkClient::nowMs</text>
</a>
</g>
</g>
<!-- Node1&#45;&gt;Node2 -->
<g id="edge1_Node000001_Node000002" class="edge">
<title>Node1&#45;&gt;Node2</title>
<g id="a_edge1_Node000001_Node000002"><a xlink:title=" ">
<path fill="none" stroke="#63b8ff" d="M156.12,-79.78C225.38,-83.17 326.34,-88.11 394.23,-91.44"/>
<polygon fill="#63b8ff" stroke="#63b8ff" points="394.26,-94.94 404.42,-91.94 394.6,-87.95 394.26,-94.94"/>
</a>
</g>
</g>
<!-- Node3 -->
<g id="Node000003" class="node">
<title>Node3</title>
<g id="a_Node000003"><a xlink:href="classNetworkClient.html#a6c612ab362cc3e4ea8c94ebc2cddc4e6" target="_top" xlink:title=" ">
<polygon fill="white" stroke="#666666" points="359,-66.5 192,-66.5 192,-47.5 359,-47.5 359,-66.5"/>
<text text-anchor="middle" x="275.5" y="-54.5" font-family="Helvetica,sans-Serif" font-size="10.00">NetworkClient::sendPacketUdp</text>
</a>
</g>
</g>
<!-- Node1&#45;&gt;Node3 -->
<g id="edge2_Node000001_Node000003" class="edge">
<title>Node1&#45;&gt;Node3</title>
<g id="a_edge2_Node000001_Node000003"><a xlink:title=" ">
<path fill="none" stroke="#63b8ff" d="M156.27,-68.49C164.63,-67.68 173.2,-66.85 181.72,-66.02"/>
<polygon fill="#63b8ff" stroke="#63b8ff" points="182.07,-69.5 191.68,-65.05 181.39,-62.53 182.07,-69.5"/>
</a>
</g>
</g>
<!-- Node3&#45;&gt;Node2 -->
<g id="edge3_Node000003_Node000002" class="edge">
<title>Node3&#45;&gt;Node2</title>
<g id="a_edge3_Node000003_Node000002"><a xlink:title=" ">
<path fill="none" stroke="#63b8ff" d="M324.57,-66.59C350.28,-71.72 382.11,-78.07 409.16,-83.46"/>
<polygon fill="#63b8ff" stroke="#63b8ff" points="408.78,-86.96 419.27,-85.48 410.15,-80.09 408.78,-86.96"/>
</a>
</g>
</g>
<!-- Node4 -->
<g id="Node000004" class="node">
<title>Node4</title>
<g id="a_Node000004"><a xlink:href="classPacket.html#aa88c2d28796644c8a1d6137996502ca8" target="_top" xlink:title="Serialize the packet to a byte buffer ready to send.">
<polygon fill="white" stroke="#666666" points="515.5,-67.5 420.5,-67.5 420.5,-48.5 515.5,-48.5 515.5,-67.5"/>
<text text-anchor="middle" x="468" y="-55.5" font-family="Helvetica,sans-Serif" font-size="10.00">Packet::serialize</text>
</a>
</g>
</g>
<!-- Node3&#45;&gt;Node4 -->
<g id="edge4_Node000003_Node000004" class="edge">
<title>Node3&#45;&gt;Node4</title>
<g id="a_edge4_Node000003_Node000004"><a xlink:title=" ">
<path fill="none" stroke="#63b8ff" d="M359.22,-57.43C376.44,-57.52 394.21,-57.62 410.23,-57.7"/>
<polygon fill="#63b8ff" stroke="#63b8ff" points="410.47,-61.2 420.49,-57.76 410.51,-54.2 410.47,-61.2"/>
</a>
</g>
</g>
<!-- Node5 -->
<g id="Node000005" class="node">
<title>Node5</title>
<g id="a_Node000005"><a xlink:href="classNetworkClient.html#a36892dcdc8c2523b27947a347ea16022" target="_top" xlink:title=" ">
<polygon fill="white" stroke="#666666" points="541,-30 395,-30 395,0 541,0 541,-30"/>
<text text-anchor="start" x="403" y="-18" font-family="Helvetica,sans-Serif" font-size="10.00">NetworkClient::updateUdp</text>
<text text-anchor="middle" x="468" y="-7" font-family="Helvetica,sans-Serif" font-size="10.00">Rates</text>
</a>
</g>
</g>
<!-- Node3&#45;&gt;Node5 -->
<g id="edge5_Node000003_Node000005" class="edge">
<title>Node3&#45;&gt;Node5</title>
<g id="a_edge5_Node000003_Node000005"><a xlink:title=" ">
<path fill="none" stroke="#63b8ff" d="M319.73,-47.47C340.19,-42.96 365.27,-37.43 388.89,-32.22"/>
<polygon fill="#63b8ff" stroke="#63b8ff" points="389.9,-35.58 398.91,-30.01 388.39,-28.75 389.9,-35.58"/>
</a>
</g>
</g>
</g>
</svg>
