<?xml version="1.0" encoding="UTF-8" standalone="no"?>
<!DOCTYPE svg PUBLIC "-//W3C//DTD SVG 1.1//EN"
 "http://www.w3.org/Graphics/SVG/1.1/DTD/svg11.dtd">
<!-- Generated by graphviz version 2.43.0 (0)
 -->
<!-- Title: ECS::getComponentTypeIndex Pages: 1 -->
<svg width="1313pt" height="396pt"
 viewBox="0.00 0.00 1313.00 395.50" xmlns="http://www.w3.org/2000/svg" xmlns:xlink="http://www.w3.org/1999/xlink">
<g id="graph0" class="graph" transform="scale(1 1) rotate(0) translate(4 391.5)">
<title>ECS::getComponentTypeIndex</title>
<!-- Node1 -->
<g id="Node000001" class="node">
<title>Node1</title>
<g id="a_Node000001"><a xlink:title="Gets the type index for a component type.">
<polygon fill="#999999" stroke="#666666" points="1305,-93 1142,-93 1142,-74 1305,-74 1305,-93"/>
<text text-anchor="middle" x="1223.5" y="-81" font-family="Helvetica,sans-Serif" font-size="10.00">ECS::getComponentTypeIndex</text>
</a>
</g>
</g>
<!-- Node2 -->
<g id="Node000002" class="node">
<title>Node2</title>
<g id="a_Node000002"><a xlink:href="classECS.html#a4fbe0d70b0934255d301ced9df6287e7" target="_top" xlink:title="Adds a component to an entity.">
<polygon fill="white" stroke="#666666" points="1098.5,-130 982.5,-130 982.5,-111 1098.5,-111 1098.5,-130"/>
<text text-anchor="middle" x="1040.5" y="-118" font-family="Helvetica,sans-Serif" font-size="10.00">ECS::addComponent</text>
</a>
</g>
</g>
<!-- Node1&#45;&gt;Node2 -->
<g id="edge1_Node000001_Node000002" class="edge">
<title>Node1&#45;&gt;Node2</title>
<g id="a_edge1_Node000001_Node000002"><a xlink:title=" ">
<path fill="none" stroke="#63b8ff" d="M1165.83,-95.08C1140.89,-100.18 1111.95,-106.1 1088.27,-110.94"/>
<polygon fill="#63b8ff" stroke="#63b8ff" points="1166.79,-98.46 1175.89,-93.03 1165.39,-91.6 1166.79,-98.46"/>
</a>
</g>
</g>
<!-- Node15 -->
<g id="Node000015" class="node">
<title>Node15</title>
<g id="a_Node000015"><a xlink:href="classECS.html#ac35029e74e4944f3007c3ddcdd45b2e9" target="_top" xlink:title="Retrieves all components of a specific type.">
<polygon fill="white" stroke="#666666" points="1106,-93 975,-93 975,-74 1106,-74 1106,-93"/>
<text text-anchor="middle" x="1040.5" y="-81" font-family="Helvetica,sans-Serif" font-size="10.00">ECS::getAllComponents</text>
</a>
</g>
</g>
<!-- Node1&#45;&gt;Node15 -->
<g id="edge18_Node000001_Node000015" class="edge">
<title>Node1&#45;&gt;Node15</title>
<g id="a_edge18_Node000001_Node000015"><a xlink:title=" ">
<path fill="none" stroke="#63b8ff" d="M1131.66,-83.5C1123.01,-83.5 1114.36,-83.5 1106.03,-83.5"/>
<polygon fill="#63b8ff" stroke="#63b8ff" points="1131.79,-87 1141.79,-83.5 1131.79,-80 1131.79,-87"/>
</a>
</g>
</g>
<!-- Node16 -->
<g id="Node000016" class="node">
<title>Node16</title>
<g id="a_Node000016"><a xlink:href="classECS.html#ab25123ea5b19ee74c4e120eb6d808a48" target="_top" xlink:title="Retrieves a component from an entity.">
<polygon fill="white" stroke="#666666" points="916,-221 803,-221 803,-202 916,-202 916,-221"/>
<text text-anchor="middle" x="859.5" y="-209" font-family="Helvetica,sans-Serif" font-size="10.00">ECS::getComponent</text>
</a>
</g>
</g>
<!-- Node1&#45;&gt;Node16 -->
<g id="edge19_Node000001_Node000016" class="edge">
<title>Node1&#45;&gt;Node16</title>
<g id="a_edge19_Node000001_Node000016"><a xlink:title=" ">
<path fill="none" stroke="#63b8ff" d="M1195.76,-97.69C1172.45,-109.73 1137.53,-126.99 1106,-139.5 1033.62,-168.22 1014,-171.55 939,-192.5 927.12,-195.82 914.13,-199.1 902.19,-201.98"/>
<polygon fill="#63b8ff" stroke="#63b8ff" points="1197.44,-100.76 1204.69,-93.03 1194.2,-94.55 1197.44,-100.76"/>
</a>
</g>
</g>
<!-- Node22 -->
<g id="Node000022" class="node">
<title>Node22</title>
<g id="a_Node000022"><a xlink:href="classECS.html#a11aacce5459a5ce429ea8d181bb4ddc3" target="_top" xlink:title="Gets the signature of an entity.">
<polygon fill="white" stroke="#666666" points="1092.5,-56 988.5,-56 988.5,-37 1092.5,-37 1092.5,-56"/>
<text text-anchor="middle" x="1040.5" y="-44" font-family="Helvetica,sans-Serif" font-size="10.00">ECS::getSignature</text>
</a>
</g>
</g>
<!-- Node1&#45;&gt;Node22 -->
<g id="edge33_Node000001_Node000022" class="edge">
<title>Node1&#45;&gt;Node22</title>
<g id="a_edge33_Node000001_Node000022"><a xlink:title=" ">
<path fill="none" stroke="#63b8ff" d="M1165.83,-71.92C1140.89,-66.82 1111.95,-60.9 1088.27,-56.06"/>
<polygon fill="#63b8ff" stroke="#63b8ff" points="1165.39,-75.4 1175.89,-73.97 1166.79,-68.54 1165.39,-75.4"/>
</a>
</g>
</g>
<!-- Node23 -->
<g id="Node000023" class="node">
<title>Node23</title>
<g id="a_Node000023"><a xlink:href="classECS.html#a33c16853296e9784dfb558f35dffbd72" target="_top" xlink:title="Checks if an entity has a specific component type.">
<polygon fill="white" stroke="#666666" points="1098,-19 983,-19 983,0 1098,0 1098,-19"/>
<text text-anchor="middle" x="1040.5" y="-7" font-family="Helvetica,sans-Serif" font-size="10.00">ECS::hasComponent</text>
</a>
</g>
</g>
<!-- Node1&#45;&gt;Node23 -->
<g id="edge34_Node000001_Node000023" class="edge">
<title>Node1&#45;&gt;Node23</title>
<g id="a_edge34_Node000001_Node000023"><a xlink:title=" ">
<path fill="none" stroke="#63b8ff" d="M1196.27,-69.25C1173.03,-57.02 1137.93,-39.52 1106,-27.5 1097.73,-24.39 1088.69,-21.54 1080.06,-19.06"/>
<polygon fill="#63b8ff" stroke="#63b8ff" points="1194.69,-72.37 1205.16,-73.97 1197.97,-66.19 1194.69,-72.37"/>
</a>
</g>
</g>
<!-- Node3 -->
<g id="Node000003" class="node">
<title>Node3</title>
<g id="a_Node000003"><a xlink:href="classGraphicClient.html#a31bdd83222945e28b307b03b32135288" target="_top" xlink:title="Creates a bullet entity at specified position.">
<polygon fill="white" stroke="#666666" points="933.5,-183.5 785.5,-183.5 785.5,-153.5 933.5,-153.5 933.5,-183.5"/>
<text text-anchor="start" x="793.5" y="-171.5" font-family="Helvetica,sans-Serif" font-size="10.00">GraphicClient::createBullet</text>
<text text-anchor="middle" x="859.5" y="-160.5" font-family="Helvetica,sans-Serif" font-size="10.00">Entity</text>
</a>
</g>
</g>
<!-- Node2&#45;&gt;Node3 -->
<g id="edge2_Node000002_Node000003" class="edge">
<title>Node2&#45;&gt;Node3</title>
<g id="a_edge2_Node000002_Node000003"><a xlink:title=" ">
<path fill="none" stroke="#63b8ff" d="M993.99,-132.7C970.47,-139.01 941.57,-146.76 916.67,-153.44"/>
<polygon fill="#63b8ff" stroke="#63b8ff" points="994.95,-136.07 1003.71,-130.1 993.14,-129.31 994.95,-136.07"/>
</a>
</g>
</g>
<!-- Node9 -->
<g id="Node000009" class="node">
<title>Node9</title>
<g id="a_Node000009"><a xlink:href="classGraphicClient.html#a6dd918f7ac4761ab4946371df06386ec" target="_top" xlink:title="Creates a monster entity at specified position.">
<polygon fill="white" stroke="#666666" points="939,-135.5 780,-135.5 780,-105.5 939,-105.5 939,-135.5"/>
<text text-anchor="start" x="788" y="-123.5" font-family="Helvetica,sans-Serif" font-size="10.00">GraphicClient::createMonster</text>
<text text-anchor="middle" x="859.5" y="-112.5" font-family="Helvetica,sans-Serif" font-size="10.00">Entity</text>
</a>
</g>
</g>
<!-- Node2&#45;&gt;Node9 -->
<g id="edge8_Node000002_Node000009" class="edge">
<title>Node2&#45;&gt;Node9</title>
<g id="a_edge8_Node000002_Node000009"><a xlink:title=" ">
<path fill="none" stroke="#63b8ff" d="M972.23,-120.5C961.47,-120.5 950.27,-120.5 939.28,-120.5"/>
<polygon fill="#63b8ff" stroke="#63b8ff" points="972.37,-124 982.37,-120.5 972.37,-117 972.37,-124"/>
</a>
</g>
</g>
<!-- Node11 -->
<g id="Node000011" class="node">
<title>Node11</title>
<g id="a_Node000011"><a xlink:href="classGraphicClient.html#a1f97bf7f358d1d5a5d65069d641feb5b" target="_top" xlink:title="Creates a player entity at specified position.">
<polygon fill="white" stroke="#666666" points="934.5,-87.5 784.5,-87.5 784.5,-57.5 934.5,-57.5 934.5,-87.5"/>
<text text-anchor="start" x="792.5" y="-75.5" font-family="Helvetica,sans-Serif" font-size="10.00">GraphicClient::createPlayer</text>
<text text-anchor="middle" x="859.5" y="-64.5" font-family="Helvetica,sans-Serif" font-size="10.00">Entity</text>
</a>
</g>
</g>
<!-- Node2&#45;&gt;Node11 -->
<g id="edge11_Node000002_Node000011" class="edge">
<title>Node2&#45;&gt;Node11</title>
<g id="a_edge11_Node000002_Node000011"><a xlink:title=" ">
<path fill="none" stroke="#63b8ff" d="M993.99,-108.3C970.47,-101.99 941.57,-94.24 916.67,-87.56"/>
<polygon fill="#63b8ff" stroke="#63b8ff" points="993.14,-111.69 1003.71,-110.9 994.95,-104.93 993.14,-111.69"/>
</a>
</g>
</g>
<!-- Node14 -->
<g id="Node000014" class="node">
<title>Node14</title>
<g id="a_Node000014"><a xlink:href="classGraphicClient.html#a70229e3e019e7b315f06c9ad74f23be5" target="_top" xlink:title="Shows lobby selection menu.">
<polygon fill="white" stroke="#666666" points="739.5,-56 592.5,-56 592.5,-37 739.5,-37 739.5,-56"/>
<text text-anchor="middle" x="666" y="-44" font-family="Helvetica,sans-Serif" font-size="10.00">GraphicClient::selectLobby</text>
</a>
</g>
</g>
<!-- Node2&#45;&gt;Node14 -->
<g id="edge16_Node000002_Node000014" class="edge">
<title>Node2&#45;&gt;Node14</title>
<g id="a_edge16_Node000002_Node000014"><a xlink:title=" ">
<path fill="none" stroke="#63b8ff" d="M981.5,-106.62C979.24,-105.36 977.06,-103.99 975,-102.5 951.65,-85.57 964.38,-62.2 939,-48.5 862.75,-7.33 756.06,-24.15 701.74,-36.98"/>
<polygon fill="#63b8ff" stroke="#63b8ff" points="980.03,-109.79 990.56,-110.92 983.03,-103.47 980.03,-109.79"/>
</a>
</g>
</g>
<!-- Node4 -->
<g id="Node000004" class="node">
<title>Node4</title>
<g id="a_Node000004"><a xlink:href="classGraphicClient.html#a61111e5d14a72f0f69344ab034a0622a" target="_top" xlink:title="Synchronizes bullet entities with server state.">
<polygon fill="white" stroke="#666666" points="738.5,-167 593.5,-167 593.5,-148 738.5,-148 738.5,-167"/>
<text text-anchor="middle" x="666" y="-155" font-family="Helvetica,sans-Serif" font-size="10.00">GraphicClient::syncBullets</text>
</a>
</g>
</g>
<!-- Node3&#45;&gt;Node4 -->
<g id="edge3_Node000003_Node000004" class="edge">
<title>Node3&#45;&gt;Node4</title>
<g id="a_edge3_Node000003_Node000004"><a xlink:title=" ">
<path fill="none" stroke="#63b8ff" d="M775.14,-163.71C762.96,-163.01 750.51,-162.3 738.6,-161.61"/>
<polygon fill="#63b8ff" stroke="#63b8ff" points="775.1,-167.21 785.28,-164.29 775.5,-160.23 775.1,-167.21"/>
</a>
</g>
</g>
<!-- Node5 -->
<g id="Node000005" class="node">
<title>Node5</title>
<g id="a_Node000005"><a xlink:href="classGraphicClient.html#a50072266faf2e76ace99e16c4c7b208a" target="_top" xlink:title="Updates all game entities based on delta time.">
<polygon fill="white" stroke="#666666" points="552,-167 393,-167 393,-148 552,-148 552,-167"/>
<text text-anchor="middle" x="472.5" y="-155" font-family="Helvetica,sans-Serif" font-size="10.00">GraphicClient::updateEntities</text>
</a>
</g>
</g>
<!-- Node4&#45;&gt;Node5 -->
<g id="edge4_Node000004_Node000005" class="edge">
<title>Node4&#45;&gt;Node5</title>
<g id="a_edge4_Node000004_Node000005"><a xlink:title=" ">
<path fill="none" stroke="#63b8ff" d="M583.19,-157.5C572.87,-157.5 562.33,-157.5 552.06,-157.5"/>
<polygon fill="#63b8ff" stroke="#63b8ff" points="583.42,-161 593.42,-157.5 583.42,-154 583.42,-161"/>
</a>
</g>
</g>
<!-- Node6 -->
<g id="Node000006" class="node">
<title>Node6</title>
<g id="a_Node000006"><a xlink:href="classGraphicClient.html#a5cb5c37142e62f04824cc6e21dd199b2" target="_top" xlink:title="Main game loop iteration.">
<polygon fill="white" stroke="#666666" points="357,-167 217,-167 217,-148 357,-148 357,-167"/>
<text text-anchor="middle" x="287" y="-155" font-family="Helvetica,sans-Serif" font-size="10.00">GraphicClient::gameLoop</text>
</a>
</g>
</g>
<!-- Node5&#45;&gt;Node6 -->
<g id="edge5_Node000005_Node000006" class="edge">
<title>Node5&#45;&gt;Node6</title>
<g id="a_edge5_Node000005_Node000006"><a xlink:title=" ">
<path fill="none" stroke="#63b8ff" d="M382.81,-157.5C374.21,-157.5 365.57,-157.5 357.2,-157.5"/>
<polygon fill="#63b8ff" stroke="#63b8ff" points="382.88,-161 392.88,-157.5 382.88,-154 382.88,-161"/>
</a>
</g>
</g>
<!-- Node7 -->
<g id="Node000007" class="node">
<title>Node7</title>
<g id="a_Node000007"><a xlink:href="classGraphicClient.html#ad39a5f1d7ec30752f8d412d6925ef109" target="_top" xlink:title="Main application loop.">
<polygon fill="white" stroke="#666666" points="181,-130 77,-130 77,-111 181,-111 181,-130"/>
<text text-anchor="middle" x="129" y="-118" font-family="Helvetica,sans-Serif" font-size="10.00">GraphicClient::run</text>
</a>
</g>
</g>
<!-- Node6&#45;&gt;Node7 -->
<g id="edge6_Node000006_Node000007" class="edge">
<title>Node6&#45;&gt;Node7</title>
<g id="a_edge6_Node000006_Node000007"><a xlink:title=" ">
<path fill="none" stroke="#63b8ff" d="M236.01,-145.64C214.78,-140.61 190.36,-134.82 170.31,-130.06"/>
<polygon fill="#63b8ff" stroke="#63b8ff" points="235.29,-149.07 245.83,-147.97 236.9,-142.26 235.29,-149.07"/>
</a>
</g>
</g>
<!-- Node8 -->
<g id="Node000008" class="node">
<title>Node8</title>
<g id="a_Node000008"><a xlink:href="client_8cpp.html#ae66f6b31b5ad750f1fe042a706a4e3d4" target="_top" xlink:title=" ">
<polygon fill="white" stroke="#666666" points="41,-130 0,-130 0,-111 41,-111 41,-130"/>
<text text-anchor="middle" x="20.5" y="-118" font-family="Helvetica,sans-Serif" font-size="10.00">main</text>
</a>
</g>
</g>
<!-- Node7&#45;&gt;Node8 -->
<g id="edge7_Node000007_Node000008" class="edge">
<title>Node7&#45;&gt;Node8</title>
<g id="a_edge7_Node000007_Node000008"><a xlink:title=" ">
<path fill="none" stroke="#63b8ff" d="M66.83,-120.5C57.58,-120.5 48.66,-120.5 41.22,-120.5"/>
<polygon fill="#63b8ff" stroke="#63b8ff" points="66.93,-124 76.93,-120.5 66.93,-117 66.93,-124"/>
</a>
</g>
</g>
<!-- Node10 -->
<g id="Node000010" class="node">
<title>Node10</title>
<g id="a_Node000010"><a xlink:href="classGraphicClient.html#afe45a37a11b23a08cce4d7c6b7efccbc" target="_top" xlink:title="Synchronizes monster entities with server state.">
<polygon fill="white" stroke="#666666" points="744,-130 588,-130 588,-111 744,-111 744,-130"/>
<text text-anchor="middle" x="666" y="-118" font-family="Helvetica,sans-Serif" font-size="10.00">GraphicClient::syncMonsters</text>
</a>
</g>
</g>
<!-- Node9&#45;&gt;Node10 -->
<g id="edge9_Node000009_Node000010" class="edge">
<title>Node9&#45;&gt;Node10</title>
<g id="a_edge9_Node000009_Node000010"><a xlink:title=" ">
<path fill="none" stroke="#63b8ff" d="M769.51,-120.5C761.05,-120.5 752.52,-120.5 744.18,-120.5"/>
<polygon fill="#63b8ff" stroke="#63b8ff" points="769.78,-124 779.78,-120.5 769.78,-117 769.78,-124"/>
</a>
</g>
</g>
<!-- Node10&#45;&gt;Node5 -->
<g id="edge10_Node000010_Node000005" class="edge">
<title>Node10&#45;&gt;Node5</title>
<g id="a_edge10_Node000010_Node000005"><a xlink:title=" ">
<path fill="none" stroke="#63b8ff" d="M605.75,-131.95C579.2,-137.08 548.26,-143.06 522.98,-147.94"/>
<polygon fill="#63b8ff" stroke="#63b8ff" points="606.53,-135.36 615.68,-130.03 605.2,-128.49 606.53,-135.36"/>
</a>
</g>
</g>
<!-- Node12 -->
<g id="Node000012" class="node">
<title>Node12</title>
<g id="a_Node000012"><a xlink:href="classGraphicClient.html#aacb31035c31d741d0ae2ca5ec9228b12" target="_top" xlink:title="Synchronizes player entities with server state.">
<polygon fill="white" stroke="#666666" points="740,-93 592,-93 592,-74 740,-74 740,-93"/>
<text text-anchor="middle" x="666" y="-81" font-family="Helvetica,sans-Serif" font-size="10.00">GraphicClient::syncEntities</text>
</a>
</g>
</g>
<!-- Node11&#45;&gt;Node12 -->
<g id="edge12_Node000011_Node000012" class="edge">
<title>Node11&#45;&gt;Node12</title>
<g id="a_edge12_Node000011_Node000012"><a xlink:title=" ">
<path fill="none" stroke="#63b8ff" d="M774.15,-77.35C762.84,-77.99 751.31,-78.66 740.21,-79.29"/>
<polygon fill="#63b8ff" stroke="#63b8ff" points="774.68,-80.82 784.46,-76.75 774.28,-73.83 774.68,-80.82"/>
</a>
</g>
</g>
<!-- Node12&#45;&gt;Node5 -->
<g id="edge15_Node000012_Node000005" class="edge">
<title>Node12&#45;&gt;Node5</title>
<g id="a_edge15_Node000012_Node000005"><a xlink:title=" ">
<path fill="none" stroke="#63b8ff" d="M610,-95.6C602.53,-97.67 595.03,-99.98 588,-102.5 552.09,-115.4 512.43,-135.98 490.48,-147.97"/>
<polygon fill="#63b8ff" stroke="#63b8ff" points="610.98,-98.96 619.75,-93.02 609.19,-92.19 610.98,-98.96"/>
</a>
</g>
</g>
<!-- Node13 -->
<g id="Node000013" class="node">
<title>Node13</title>
<g id="a_Node000013"><a xlink:href="classGraphicClient.html#a4b416d0d2b3f07134ce30afb0c60adbe" target="_top" xlink:title="Initializes the client (connects to server, shows menus).">
<polygon fill="white" stroke="#666666" points="524.5,-93 420.5,-93 420.5,-74 524.5,-74 524.5,-93"/>
<text text-anchor="middle" x="472.5" y="-81" font-family="Helvetica,sans-Serif" font-size="10.00">GraphicClient::init</text>
</a>
</g>
</g>
<!-- Node12&#45;&gt;Node13 -->
<g id="edge13_Node000012_Node000013" class="edge">
<title>Node12&#45;&gt;Node13</title>
<g id="a_edge13_Node000012_Node000013"><a xlink:title=" ">
<path fill="none" stroke="#63b8ff" d="M581.72,-83.5C562.31,-83.5 542.21,-83.5 524.68,-83.5"/>
<polygon fill="#63b8ff" stroke="#63b8ff" points="581.78,-87 591.78,-83.5 581.78,-80 581.78,-87"/>
</a>
</g>
</g>
<!-- Node13&#45;&gt;Node7 -->
<g id="edge14_Node000013_Node000007" class="edge">
<title>Node13&#45;&gt;Node7</title>
<g id="a_edge14_Node000013_Node000007"><a xlink:title=" ">
<path fill="none" stroke="#63b8ff" d="M410.21,-90.14C344.83,-97.22 242.43,-108.32 181.2,-114.95"/>
<polygon fill="#63b8ff" stroke="#63b8ff" points="410.81,-93.6 420.37,-89.04 410.06,-86.64 410.81,-93.6"/>
</a>
</g>
</g>
<!-- Node14&#45;&gt;Node13 -->
<g id="edge17_Node000014_Node000013" class="edge">
<title>Node14&#45;&gt;Node13</title>
<g id="a_edge17_Node000014_Node000013"><a xlink:title=" ">
<path fill="none" stroke="#63b8ff" d="M605.75,-57.95C579.2,-63.08 548.26,-69.06 522.98,-73.94"/>
<polygon fill="#63b8ff" stroke="#63b8ff" points="606.53,-61.36 615.68,-56.03 605.2,-54.49 606.53,-61.36"/>
</a>
</g>
</g>
<!-- Node16&#45;&gt;Node4 -->
<g id="edge21_Node000016_Node000004" class="edge">
<title>Node16&#45;&gt;Node4</title>
<g id="a_edge21_Node000016_Node000004"><a xlink:title=" ">
<path fill="none" stroke="#63b8ff" d="M806.84,-199.49C797.87,-197.26 788.64,-194.88 780,-192.5 775.89,-191.37 729.6,-176.99 697.56,-167.02"/>
<polygon fill="#63b8ff" stroke="#63b8ff" points="806.27,-202.95 816.82,-201.93 807.94,-196.15 806.27,-202.95"/>
</a>
</g>
</g>
<!-- Node16&#45;&gt;Node5 -->
<g id="edge32_Node000016_Node000005" class="edge">
<title>Node16&#45;&gt;Node5</title>
<g id="a_edge32_Node000016_Node000005"><a xlink:title=" ">
<path fill="none" stroke="#63b8ff" d="M793.05,-203.7C738.21,-197 657.9,-186.82 588,-176.5 568.56,-173.63 547.32,-170.19 528.47,-167.03"/>
<polygon fill="#63b8ff" stroke="#63b8ff" points="792.64,-207.17 802.99,-204.91 793.48,-200.22 792.64,-207.17"/>
</a>
</g>
</g>
<!-- Node16&#45;&gt;Node10 -->
<g id="edge23_Node000016_Node000010" class="edge">
<title>Node16&#45;&gt;Node10</title>
<g id="a_edge23_Node000016_Node000010"><a xlink:title=" ">
<path fill="none" stroke="#63b8ff" d="M793.03,-199.72C788.44,-197.68 784.04,-195.3 780,-192.5 756.59,-176.29 767.37,-155.77 744,-139.5 738.46,-135.65 732.22,-132.57 725.76,-130.12"/>
<polygon fill="#63b8ff" stroke="#63b8ff" points="792.08,-203.1 802.67,-203.43 794.59,-196.57 792.08,-203.1"/>
</a>
</g>
</g>
<!-- Node16&#45;&gt;Node12 -->
<g id="edge22_Node000016_Node000012" class="edge">
<title>Node16&#45;&gt;Node12</title>
<g id="a_edge22_Node000016_Node000012"><a xlink:title=" ">
<path fill="none" stroke="#63b8ff" d="M793.35,-201.18C788.54,-198.83 784,-195.97 780,-192.5 747.44,-164.29 776.5,-130.78 744,-102.5 739.53,-98.61 734.4,-95.5 728.94,-93"/>
<polygon fill="#63b8ff" stroke="#63b8ff" points="792.32,-204.54 802.9,-205.11 794.99,-198.07 792.32,-204.54"/>
</a>
</g>
</g>
<!-- Node16&#45;&gt;Node14 -->
<g id="edge20_Node000016_Node000014" class="edge">
<title>Node16&#45;&gt;Node14</title>
<g id="a_edge20_Node000016_Node000014"><a xlink:title=" ">
<path fill="none" stroke="#63b8ff" d="M793.55,-201.93C788.59,-199.43 783.98,-196.33 780,-192.5 737.72,-151.83 786.19,-106.27 744,-65.5 740.04,-61.67 735.44,-58.58 730.49,-56.08"/>
<polygon fill="#63b8ff" stroke="#63b8ff" points="792.2,-205.16 802.78,-205.83 794.93,-198.72 792.2,-205.16"/>
</a>
</g>
</g>
<!-- Node17 -->
<g id="Node000017" class="node">
<title>Node17</title>
<g id="a_Node000017"><a xlink:href="classCircleRenderSystem.html#aead45b36f0cc7ccec0004b8a9b454d07" target="_top" xlink:title="Renders a circle entity to the screen.">
<polygon fill="white" stroke="#666666" points="724,-387.5 608,-387.5 608,-357.5 724,-357.5 724,-387.5"/>
<text text-anchor="start" x="616" y="-375.5" font-family="Helvetica,sans-Serif" font-size="10.00">CircleRenderSystem</text>
<text text-anchor="middle" x="666" y="-364.5" font-family="Helvetica,sans-Serif" font-size="10.00">::update</text>
</a>
</g>
</g>
<!-- Node16&#45;&gt;Node17 -->
<g id="edge24_Node000016_Node000017" class="edge">
<title>Node16&#45;&gt;Node17</title>
<g id="a_edge24_Node000016_Node000017"><a xlink:title=" ">
<path fill="none" stroke="#63b8ff" d="M847.99,-229.89C830.29,-259.25 791.72,-316.66 744,-348.5 737.94,-352.54 731.17,-355.93 724.22,-358.77"/>
<polygon fill="#63b8ff" stroke="#63b8ff" points="851.12,-231.47 853.18,-221.08 845.09,-227.92 851.12,-231.47"/>
</a>
</g>
</g>
<!-- Node18 -->
<g id="Node000018" class="node">
<title>Node18</title>
<g id="a_Node000018"><a xlink:href="classRectangleRenderSystem.html#a92f6643f7bbedda7d15c6ea55f7407d1" target="_top" xlink:title="Renders a rectangle entity to the screen.">
<polygon fill="white" stroke="#666666" points="734.5,-339.5 597.5,-339.5 597.5,-309.5 734.5,-309.5 734.5,-339.5"/>
<text text-anchor="start" x="605.5" y="-327.5" font-family="Helvetica,sans-Serif" font-size="10.00">RectangleRenderSystem</text>
<text text-anchor="middle" x="666" y="-316.5" font-family="Helvetica,sans-Serif" font-size="10.00">::update</text>
</a>
</g>
</g>
<!-- Node16&#45;&gt;Node18 -->
<g id="edge25_Node000016_Node000018" class="edge">
<title>Node16&#45;&gt;Node18</title>
<g id="a_edge25_Node000016_Node000018"><a xlink:title=" ">
<path fill="none" stroke="#63b8ff" d="M841.35,-228.09C820.09,-247.84 781.99,-280.65 744,-300.5 737.55,-303.87 730.54,-306.86 723.47,-309.49"/>
<polygon fill="#63b8ff" stroke="#63b8ff" points="843.77,-230.62 848.64,-221.21 838.97,-225.53 843.77,-230.62"/>
</a>
</g>
</g>
<!-- Node20 -->
<g id="Node000020" class="node">
<title>Node20</title>
<g id="a_Node000020"><a xlink:href="classMovementSystem.html#a57b0e4d3739f4b27ce15324b8a4d47bf" target="_top" xlink:title="Updates entity position based on velocity with fixed time stepping.">
<polygon fill="white" stroke="#666666" points="739,-243 593,-243 593,-224 739,-224 739,-243"/>
<text text-anchor="middle" x="666" y="-231" font-family="Helvetica,sans-Serif" font-size="10.00">MovementSystem::update</text>
</a>
</g>
</g>
<!-- Node16&#45;&gt;Node20 -->
<g id="edge28_Node000016_Node000020" class="edge">
<title>Node16&#45;&gt;Node20</title>
<g id="a_edge28_Node000016_Node000020"><a xlink:title=" ">
<path fill="none" stroke="#63b8ff" d="M792.86,-219.04C775.57,-221.03 756.83,-223.18 739.21,-225.2"/>
<polygon fill="#63b8ff" stroke="#63b8ff" points="793.32,-222.51 802.85,-217.89 792.52,-215.56 793.32,-222.51"/>
</a>
</g>
</g>
<!-- Node21 -->
<g id="Node000021" class="node">
<title>Node21</title>
<g id="a_Node000021"><a xlink:href="classSpriteRenderSystem.html#a439243229880829d70b83b895b500495" target="_top" xlink:title="Updates and renders an animated sprite entity.">
<polygon fill="white" stroke="#666666" points="724,-291.5 608,-291.5 608,-261.5 724,-261.5 724,-291.5"/>
<text text-anchor="start" x="616" y="-279.5" font-family="Helvetica,sans-Serif" font-size="10.00">SpriteRenderSystem</text>
<text text-anchor="middle" x="666" y="-268.5" font-family="Helvetica,sans-Serif" font-size="10.00">::update</text>
</a>
</g>
</g>
<!-- Node16&#45;&gt;Node21 -->
<g id="edge30_Node000016_Node000021" class="edge">
<title>Node16&#45;&gt;Node21</title>
<g id="a_edge30_Node000016_Node000021"><a xlink:title=" ">
<path fill="none" stroke="#63b8ff" d="M823.19,-224.57C800.62,-232.82 770.69,-243.57 744,-252.5 735.1,-255.48 725.59,-258.54 716.39,-261.44"/>
<polygon fill="#63b8ff" stroke="#63b8ff" points="824.5,-227.82 832.69,-221.09 822.09,-221.25 824.5,-227.82"/>
</a>
</g>
</g>
<!-- Node19 -->
<g id="Node000019" class="node">
<title>Node19</title>
<g id="a_Node000019"><a xlink:href="classGraphicClient.html#ab0acd8f5b8996cc62295831d7af1cf59" target="_top" xlink:title="Renders the entire game scene.">
<polygon fill="white" stroke="#666666" points="532.5,-286 412.5,-286 412.5,-267 532.5,-267 532.5,-286"/>
<text text-anchor="middle" x="472.5" y="-274" font-family="Helvetica,sans-Serif" font-size="10.00">GraphicClient::render</text>
</a>
</g>
</g>
<!-- Node18&#45;&gt;Node19 -->
<g id="edge26_Node000018_Node000019" class="edge">
<title>Node18&#45;&gt;Node19</title>
<g id="a_edge26_Node000018_Node000019"><a xlink:title=" ">
<path fill="none" stroke="#63b8ff" d="M595.11,-306.98C566.92,-299.92 535.5,-292.04 511.66,-286.06"/>
<polygon fill="#63b8ff" stroke="#63b8ff" points="594.38,-310.41 604.93,-309.44 596.08,-303.62 594.38,-310.41"/>
</a>
</g>
</g>
<!-- Node19&#45;&gt;Node6 -->
<g id="edge27_Node000019_Node000006" class="edge">
<title>Node19&#45;&gt;Node6</title>
<g id="a_edge27_Node000019_Node000006"><a xlink:title=" ">
<path fill="none" stroke="#63b8ff" d="M448.34,-261.48C410.06,-236.66 334.65,-187.75 302.78,-167.08"/>
<polygon fill="#63b8ff" stroke="#63b8ff" points="446.5,-264.46 456.79,-266.96 450.31,-258.59 446.5,-264.46"/>
</a>
</g>
</g>
<!-- Node20&#45;&gt;Node5 -->
<g id="edge29_Node000020_Node000005" class="edge">
<title>Node20&#45;&gt;Node5</title>
<g id="a_edge29_Node000020_Node000005"><a xlink:title=" ">
<path fill="none" stroke="#63b8ff" d="M621.48,-220.97C610.46,-217.51 598.72,-213.59 588,-209.5 553.73,-196.43 515.13,-178.12 492.64,-167.08"/>
<polygon fill="#63b8ff" stroke="#63b8ff" points="620.75,-224.41 631.34,-224 622.81,-217.72 620.75,-224.41"/>
</a>
</g>
</g>
<!-- Node21&#45;&gt;Node19 -->
<g id="edge31_Node000021_Node000019" class="edge">
<title>Node21&#45;&gt;Node19</title>
<g id="a_edge31_Node000021_Node000019"><a xlink:title=" ">
<path fill="none" stroke="#63b8ff" d="M597.6,-276.5C576.45,-276.5 553.27,-276.5 532.73,-276.5"/>
<polygon fill="#63b8ff" stroke="#63b8ff" points="597.8,-280 607.8,-276.5 597.8,-273 597.8,-280"/>
</a>
</g>
</g>
</g>
</svg>
