<?xml version="1.0" encoding="UTF-8" standalone="no"?>
<!DOCTYPE svg PUBLIC "-//W3C//DTD SVG 1.1//EN"
 "http://www.w3.org/Graphics/SVG/1.1/DTD/svg11.dtd">
<!-- Generated by graphviz version 2.43.0 (0)
 -->
<!-- Title: GraphicClient::selectPseudo Pages: 1 -->
<svg width="376pt" height="360pt"
 viewBox="0.00 0.00 376.00 360.00" xmlns="http://www.w3.org/2000/svg" xmlns:xlink="http://www.w3.org/1999/xlink">
<g id="graph0" class="graph" transform="scale(1 1) rotate(0) translate(4 356)">
<title>GraphicClient::selectPseudo</title>
<!-- Node1 -->
<g id="Node000001" class="node">
<title>Node1</title>
<g id="a_Node000001"><a xlink:title="Shows pseudo/username input menu.">
<polygon fill="#999999" stroke="#666666" points="153,-185 0,-185 0,-166 153,-166 153,-185"/>
<text text-anchor="middle" x="76.5" y="-173" font-family="Helvetica,sans-Serif" font-size="10.00">GraphicClient::selectPseudo</text>
</a>
</g>
</g>
<!-- Node2 -->
<g id="Node000002" class="node">
<title>Node2</title>
<g id="a_Node000002"><a xlink:href="classRaylib_1_1Window.html#a0d93c896921575743b097baa6d66a6b4" target="_top" xlink:title="Begins drawing frame.">
<polygon fill="white" stroke="#666666" points="361,-352 196,-352 196,-333 361,-333 361,-352"/>
<text text-anchor="middle" x="278.5" y="-340" font-family="Helvetica,sans-Serif" font-size="10.00">Raylib::Window::beginDrawing</text>
</a>
</g>
</g>
<!-- Node1&#45;&gt;Node2 -->
<g id="edge1_Node000001_Node000002" class="edge">
<title>Node1&#45;&gt;Node2</title>
<g id="a_edge1_Node000001_Node000002"><a xlink:title=" ">
<path fill="none" stroke="#63b8ff" d="M81.63,-185.07C93.74,-211.92 131.95,-288.37 189,-324.5 191.48,-326.07 194.08,-327.51 196.75,-328.83"/>
<polygon fill="#63b8ff" stroke="#63b8ff" points="195.55,-332.12 206.12,-332.85 198.31,-325.69 195.55,-332.12"/>
</a>
</g>
</g>
<!-- Node3 -->
<g id="Node000003" class="node">
<title>Node3</title>
<g id="a_Node000003"><a xlink:href="classRaylib_1_1Window.html#ab5db70ee0a095180020beaa8f134247d" target="_top" xlink:title="Clears background with specified color.">
<polygon fill="white" stroke="#666666" points="368,-315 189,-315 189,-296 368,-296 368,-315"/>
<text text-anchor="middle" x="278.5" y="-303" font-family="Helvetica,sans-Serif" font-size="10.00">Raylib::Window::clearBackground</text>
</a>
</g>
</g>
<!-- Node1&#45;&gt;Node3 -->
<g id="edge2_Node000001_Node000003" class="edge">
<title>Node1&#45;&gt;Node3</title>
<g id="a_edge2_Node000001_Node000003"><a xlink:title=" ">
<path fill="none" stroke="#63b8ff" d="M84.01,-185.17C99.4,-207.22 140.45,-261.34 189,-287.5 192.47,-289.37 196.12,-291.05 199.87,-292.55"/>
<polygon fill="#63b8ff" stroke="#63b8ff" points="198.77,-295.88 209.36,-295.94 201.12,-289.28 198.77,-295.88"/>
</a>
</g>
</g>
<!-- Node4 -->
<g id="Node000004" class="node">
<title>Node4</title>
<g id="a_Node000004"><a xlink:href="classRaylib_1_1Window.html#a9692f845607bfbb28fb4e889ea0d3b37" target="_top" xlink:title="Ends drawing frame and displays it.">
<polygon fill="white" stroke="#666666" points="356.5,-278 200.5,-278 200.5,-259 356.5,-259 356.5,-278"/>
<text text-anchor="middle" x="278.5" y="-266" font-family="Helvetica,sans-Serif" font-size="10.00">Raylib::Window::endDrawing</text>
</a>
</g>
</g>
<!-- Node1&#45;&gt;Node4 -->
<g id="edge3_Node000001_Node000004" class="edge">
<title>Node1&#45;&gt;Node4</title>
<g id="a_edge3_Node000001_Node000004"><a xlink:title=" ">
<path fill="none" stroke="#63b8ff" d="M88.66,-185.24C107.81,-201.4 148.76,-233.66 189,-250.5 194.06,-252.62 199.39,-254.49 204.83,-256.15"/>
<polygon fill="#63b8ff" stroke="#63b8ff" points="204.11,-259.59 214.68,-258.91 206,-252.85 204.11,-259.59"/>
</a>
</g>
</g>
<!-- Node5 -->
<g id="Node000005" class="node">
<title>Node5</title>
<g id="a_Node000005"><a xlink:href="classRaylib_1_1Window.html#a8a6eedeecb648b4c1527681a42727e15" target="_top" xlink:title="Gets time delta since last frame.">
<polygon fill="white" stroke="#666666" points="363,-241 194,-241 194,-222 363,-222 363,-241"/>
<text text-anchor="middle" x="278.5" y="-229" font-family="Helvetica,sans-Serif" font-size="10.00">Raylib::Window::getFrameTime</text>
</a>
</g>
</g>
<!-- Node1&#45;&gt;Node5 -->
<g id="edge4_Node000001_Node000005" class="edge">
<title>Node1&#45;&gt;Node5</title>
<g id="a_edge4_Node000001_Node000005"><a xlink:title=" ">
<path fill="none" stroke="#63b8ff" d="M102.46,-185.03C124.87,-193.34 158.8,-205.32 189,-213.5 197.36,-215.76 206.23,-217.89 215,-219.83"/>
<polygon fill="#63b8ff" stroke="#63b8ff" points="214.32,-223.26 224.83,-221.94 215.78,-216.42 214.32,-223.26"/>
</a>
</g>
</g>
<!-- Node6 -->
<g id="Node000006" class="node">
<title>Node6</title>
<g id="a_Node000006"><a xlink:href="classRaylib_1_1Input.html#a77b20ab7de1540d7cc5c18f71b137a12" target="_top" xlink:title="Checks if a key was just pressed this frame.">
<polygon fill="white" stroke="#666666" points="353,-204 204,-204 204,-185 353,-185 353,-204"/>
<text text-anchor="middle" x="278.5" y="-192" font-family="Helvetica,sans-Serif" font-size="10.00">Raylib::Input::isKeyPressed</text>
</a>
</g>
</g>
<!-- Node1&#45;&gt;Node6 -->
<g id="edge5_Node000001_Node000006" class="edge">
<title>Node1&#45;&gt;Node6</title>
<g id="a_edge5_Node000001_Node000006"><a xlink:title=" ">
<path fill="none" stroke="#63b8ff" d="M153.11,-182.68C166.33,-183.94 180.16,-185.25 193.59,-186.53"/>
<polygon fill="#63b8ff" stroke="#63b8ff" points="193.48,-190.03 203.77,-187.5 194.14,-183.07 193.48,-190.03"/>
</a>
</g>
</g>
<!-- Node7 -->
<g id="Node000007" class="node">
<title>Node7</title>
<g id="a_Node000007"><a xlink:href="classRaylib_1_1Draw.html#ac711ababd202454476d1127d61f8a837" target="_top" xlink:title="Draws a filled rectangle.">
<polygon fill="white" stroke="#666666" points="343.5,-167 213.5,-167 213.5,-148 343.5,-148 343.5,-167"/>
<text text-anchor="middle" x="278.5" y="-155" font-family="Helvetica,sans-Serif" font-size="10.00">Raylib::Draw::rectangle</text>
</a>
</g>
</g>
<!-- Node1&#45;&gt;Node7 -->
<g id="edge6_Node000001_Node000007" class="edge">
<title>Node1&#45;&gt;Node7</title>
<g id="a_edge6_Node000001_Node000007"><a xlink:title=" ">
<path fill="none" stroke="#63b8ff" d="M153.11,-168.69C169.51,-167.22 186.84,-165.66 203.18,-164.19"/>
<polygon fill="#63b8ff" stroke="#63b8ff" points="203.57,-167.67 213.22,-163.29 202.95,-160.7 203.57,-167.67"/>
</a>
</g>
</g>
<!-- Node8 -->
<g id="Node000008" class="node">
<title>Node8</title>
<g id="a_Node000008"><a xlink:href="classRaylib_1_1Draw.html#a1a91623bcea0592d00ae0264d81acd52" target="_top" xlink:title="Draws a rectangle outline.">
<polygon fill="white" stroke="#666666" points="356,-130 201,-130 201,-111 356,-111 356,-130"/>
<text text-anchor="middle" x="278.5" y="-118" font-family="Helvetica,sans-Serif" font-size="10.00">Raylib::Draw::rectangleLines</text>
</a>
</g>
</g>
<!-- Node1&#45;&gt;Node8 -->
<g id="edge7_Node000001_Node000008" class="edge">
<title>Node1&#45;&gt;Node8</title>
<g id="a_edge7_Node000001_Node000008"><a xlink:title=" ">
<path fill="none" stroke="#63b8ff" d="M104.76,-165.85C127.2,-158.11 159.92,-147.29 189,-139.5 198.56,-136.94 208.78,-134.48 218.75,-132.24"/>
<polygon fill="#63b8ff" stroke="#63b8ff" points="219.58,-135.64 228.6,-130.08 218.08,-128.81 219.58,-135.64"/>
</a>
</g>
</g>
<!-- Node9 -->
<g id="Node000009" class="node">
<title>Node9</title>
<g id="a_Node000009"><a xlink:href="classNetworkClient.html#acfbb5b079e33b388d8df440cf29e89a1" target="_top" xlink:title="Set the preferred pseudo for the handshake payload.">
<polygon fill="white" stroke="#666666" points="350,-93 207,-93 207,-74 350,-74 350,-93"/>
<text text-anchor="middle" x="278.5" y="-81" font-family="Helvetica,sans-Serif" font-size="10.00">NetworkClient::setPseudo</text>
</a>
</g>
</g>
<!-- Node1&#45;&gt;Node9 -->
<g id="edge8_Node000001_Node000009" class="edge">
<title>Node1&#45;&gt;Node9</title>
<g id="a_edge8_Node000001_Node000009"><a xlink:title=" ">
<path fill="none" stroke="#63b8ff" d="M89.04,-165.83C108.42,-150.11 149.29,-119.08 189,-102.5 195.14,-99.94 201.67,-97.7 208.29,-95.76"/>
<polygon fill="#63b8ff" stroke="#63b8ff" points="209.29,-99.11 218.02,-93.11 207.45,-92.36 209.29,-99.11"/>
</a>
</g>
</g>
<!-- Node10 -->
<g id="Node000010" class="node">
<title>Node10</title>
<g id="a_Node000010"><a xlink:href="classRaylib_1_1Window.html#ac0d6cca8b53645743f06c2e453624938" target="_top" xlink:title="Checks if window should close.">
<polygon fill="white" stroke="#666666" points="357,-56 200,-56 200,-37 357,-37 357,-56"/>
<text text-anchor="middle" x="278.5" y="-44" font-family="Helvetica,sans-Serif" font-size="10.00">Raylib::Window::shouldClose</text>
</a>
</g>
</g>
<!-- Node1&#45;&gt;Node10 -->
<g id="edge9_Node000001_Node000010" class="edge">
<title>Node1&#45;&gt;Node10</title>
<g id="a_edge9_Node000001_Node000010"><a xlink:title=" ">
<path fill="none" stroke="#63b8ff" d="M84.3,-165.72C100.01,-143.94 141.14,-91.34 189,-65.5 193.27,-63.19 197.8,-61.17 202.46,-59.39"/>
<polygon fill="#63b8ff" stroke="#63b8ff" points="203.84,-62.62 212.17,-56.07 201.57,-55.99 203.84,-62.62"/>
</a>
</g>
</g>
<!-- Node11 -->
<g id="Node000011" class="node">
<title>Node11</title>
<g id="a_Node000011"><a xlink:href="classRaylib_1_1Draw.html#adf84c6a40cd571fbbdeacf2868ab192e" target="_top" xlink:title="Draws text on screen.">
<polygon fill="white" stroke="#666666" points="330.5,-19 226.5,-19 226.5,0 330.5,0 330.5,-19"/>
<text text-anchor="middle" x="278.5" y="-7" font-family="Helvetica,sans-Serif" font-size="10.00">Raylib::Draw::text</text>
</a>
</g>
</g>
<!-- Node1&#45;&gt;Node11 -->
<g id="edge10_Node000001_Node000011" class="edge">
<title>Node1&#45;&gt;Node11</title>
<g id="a_edge10_Node000001_Node000011"><a xlink:title=" ">
<path fill="none" stroke="#63b8ff" d="M81.86,-165.71C94.31,-138.96 132.79,-64.27 189,-28.5 197.35,-23.19 206.95,-19.34 216.68,-16.55"/>
<polygon fill="#63b8ff" stroke="#63b8ff" points="217.57,-19.94 226.41,-14.11 215.86,-13.15 217.57,-19.94"/>
</a>
</g>
</g>
</g>
</svg>
