<?xml version="1.0" encoding="UTF-8" standalone="no"?>
<!DOCTYPE svg PUBLIC "-//W3C//DTD SVG 1.1//EN"
 "http://www.w3.org/Graphics/SVG/1.1/DTD/svg11.dtd">
<!-- Generated by graphviz version 2.43.0 (0)
 -->
<!-- Title: TCPServer::TCPServer Pages: 1 -->
<svg width="486pt" height="38pt"
 viewBox="0.00 0.00 486.00 38.00" xmlns="http://www.w3.org/2000/svg" xmlns:xlink="http://www.w3.org/1999/xlink">
<g id="graph0" class="graph" transform="scale(1 1) rotate(0) translate(4 34)">
<title>TCPServer::TCPServer</title>
<!-- Node1 -->
<g id="Node000001" class="node">
<title>Node1</title>
<g id="a_Node000001"><a xlink:title="Construct a new TCPServer bound to the given port.">
<polygon fill="#999999" stroke="#666666" points="122,-24.5 0,-24.5 0,-5.5 122,-5.5 122,-24.5"/>
<text text-anchor="middle" x="61" y="-12.5" font-family="Helvetica,sans-Serif" font-size="10.00">TCPServer::TCPServer</text>
</a>
</g>
</g>
<!-- Node2 -->
<g id="Node000002" class="node">
<title>Node2</title>
<g id="a_Node000002"><a xlink:href="classNetwork_1_1TransportLayer_1_1TCPSocket.html#a1101a573328f3e3763b5cc0fed67f0ae" target="_top" xlink:title="Bind to an address and start listening.">
<polygon fill="white" stroke="#666666" points="306,-30 158,-30 158,0 306,0 306,-30"/>
<text text-anchor="start" x="166" y="-18" font-family="Helvetica,sans-Serif" font-size="10.00">Network::TransportLayer</text>
<text text-anchor="middle" x="232" y="-7" font-family="Helvetica,sans-Serif" font-size="10.00">::TCPSocket::bindAndListen</text>
</a>
</g>
</g>
<!-- Node1&#45;&gt;Node2 -->
<g id="edge1_Node000001_Node000002" class="edge">
<title>Node1&#45;&gt;Node2</title>
<g id="a_edge1_Node000001_Node000002"><a xlink:title=" ">
<path fill="none" stroke="#63b8ff" d="M122.06,-15C130.38,-15 139.04,-15 147.69,-15"/>
<polygon fill="#63b8ff" stroke="#63b8ff" points="147.81,-18.5 157.81,-15 147.81,-11.5 147.81,-18.5"/>
</a>
</g>
</g>
<!-- Node3 -->
<g id="Node000003" class="node">
<title>Node3</title>
<g id="a_Node000003"><a xlink:href="classNetwork_1_1TransportLayer_1_1ASocket.html#a65fa2f6ba45358b7a7776d14b0111756" target="_top" xlink:title="Bind the socket to a specific address and port.">
<polygon fill="white" stroke="#666666" points="478,-30 342,-30 342,0 478,0 478,-30"/>
<text text-anchor="start" x="350" y="-18" font-family="Helvetica,sans-Serif" font-size="10.00">Network::TransportLayer</text>
<text text-anchor="middle" x="410" y="-7" font-family="Helvetica,sans-Serif" font-size="10.00">::ASocket::bindSock</text>
</a>
</g>
</g>
<!-- Node2&#45;&gt;Node3 -->
<g id="edge2_Node000002_Node000003" class="edge">
<title>Node2&#45;&gt;Node3</title>
<g id="a_edge2_Node000002_Node000003"><a xlink:title=" ">
<path fill="none" stroke="#63b8ff" d="M306.11,-15C314.5,-15 323.08,-15 331.53,-15"/>
<polygon fill="#63b8ff" stroke="#63b8ff" points="331.75,-18.5 341.75,-15 331.75,-11.5 331.75,-18.5"/>
</a>
</g>
</g>
</g>
</svg>
