<?xml version="1.0" encoding="UTF-8" standalone="no"?>
<!DOCTYPE svg PUBLIC "-//W3C//DTD SVG 1.1//EN"
 "http://www.w3.org/Graphics/SVG/1.1/DTD/svg11.dtd">
<!-- Generated by graphviz version 2.43.0 (0)
 -->
<!-- Title: Network::TransportLayer::TCPSocket::acceptClient Pages: 1 -->
<svg width="540pt" height="38pt"
 viewBox="0.00 0.00 540.00 38.00" xmlns="http://www.w3.org/2000/svg" xmlns:xlink="http://www.w3.org/1999/xlink">
<g id="graph0" class="graph" transform="scale(1 1) rotate(0) translate(4 34)">
<title>Network::TransportLayer::TCPSocket::acceptClient</title>
<!-- Node1 -->
<g id="Node000001" class="node">
<title>Node1</title>
<g id="a_Node000001"><a xlink:title="Accept an incoming client connection.">
<polygon fill="#999999" stroke="#666666" points="532,-30 392,-30 392,0 532,0 532,-30"/>
<text text-anchor="start" x="400" y="-18" font-family="Helvetica,sans-Serif" font-size="10.00">Network::TransportLayer</text>
<text text-anchor="middle" x="462" y="-7" font-family="Helvetica,sans-Serif" font-size="10.00">::TCPSocket::acceptClient</text>
</a>
</g>
</g>
<!-- Node2 -->
<g id="Node000002" class="node">
<title>Node2</title>
<g id="a_Node000002"><a xlink:href="classTCPServer.html#ae0e94f8d712b3c9028fe674100d649b9" target="_top" xlink:title="Accept incoming connection and register a new client slot.">
<polygon fill="white" stroke="#666666" points="356,-24.5 201,-24.5 201,-5.5 356,-5.5 356,-24.5"/>
<text text-anchor="middle" x="278.5" y="-12.5" font-family="Helvetica,sans-Serif" font-size="10.00">TCPServer::acceptNewClient</text>
</a>
</g>
</g>
<!-- Node1&#45;&gt;Node2 -->
<g id="edge1_Node000001_Node000002" class="edge">
<title>Node1&#45;&gt;Node2</title>
<g id="a_edge1_Node000001_Node000002"><a xlink:title=" ">
<path fill="none" stroke="#63b8ff" d="M381.59,-15C373.1,-15 364.47,-15 356.02,-15"/>
<polygon fill="#63b8ff" stroke="#63b8ff" points="381.86,-18.5 391.86,-15 381.86,-11.5 381.86,-18.5"/>
</a>
</g>
</g>
<!-- Node3 -->
<g id="Node000003" class="node">
<title>Node3</title>
<g id="a_Node000003"><a xlink:href="classTCPServer.html#a4e6d2ef05b71c4ecbd0518fc7215ece3" target="_top" xlink:title="Run the main accept/receive loop (blocking).">
<polygon fill="white" stroke="#666666" points="165,-24.5 77,-24.5 77,-5.5 165,-5.5 165,-24.5"/>
<text text-anchor="middle" x="121" y="-12.5" font-family="Helvetica,sans-Serif" font-size="10.00">TCPServer::run</text>
</a>
</g>
</g>
<!-- Node2&#45;&gt;Node3 -->
<g id="edge2_Node000002_Node000003" class="edge">
<title>Node2&#45;&gt;Node3</title>
<g id="a_edge2_Node000002_Node000003"><a xlink:title=" ">
<path fill="none" stroke="#63b8ff" d="M190.64,-15C181.8,-15 173.11,-15 165.06,-15"/>
<polygon fill="#63b8ff" stroke="#63b8ff" points="190.66,-18.5 200.66,-15 190.66,-11.5 190.66,-18.5"/>
</a>
</g>
</g>
<!-- Node4 -->
<g id="Node000004" class="node">
<title>Node4</title>
<g id="a_Node000004"><a xlink:href="server_8cpp.html#ae66f6b31b5ad750f1fe042a706a4e3d4" target="_top" xlink:title=" ">
<polygon fill="white" stroke="#666666" points="41,-24.5 0,-24.5 0,-5.5 41,-5.5 41,-24.5"/>
<text text-anchor="middle" x="20.5" y="-12.5" font-family="Helvetica,sans-Serif" font-size="10.00">main</text>
</a>
</g>
</g>
<!-- Node3&#45;&gt;Node4 -->
<g id="edge3_Node000003_Node000004" class="edge">
<title>Node3&#45;&gt;Node4</title>
<g id="a_edge3_Node000003_Node000004"><a xlink:title=" ">
<path fill="none" stroke="#63b8ff" d="M66.57,-15C57.52,-15 48.67,-15 41.23,-15"/>
<polygon fill="#63b8ff" stroke="#63b8ff" points="66.8,-18.5 76.8,-15 66.8,-11.5 66.8,-18.5"/>
</a>
</g>
</g>
</g>
</svg>
