<?xml version="1.0" encoding="UTF-8" standalone="no"?>
<!DOCTYPE svg PUBLIC "-//W3C//DTD SVG 1.1//EN"
 "http://www.w3.org/Graphics/SVG/1.1/DTD/svg11.dtd">
<!-- Generated by graphviz version 2.43.0 (0)
 -->
<!-- Title: UDPGameServer::run Pages: 1 -->
<svg width="934pt" height="493pt"
 viewBox="0.00 0.00 934.00 493.31" xmlns="http://www.w3.org/2000/svg" xmlns:xlink="http://www.w3.org/1999/xlink">
<g id="graph0" class="graph" transform="scale(1 1) rotate(0) translate(4 489.31)">
<title>UDPGameServer::run</title>
<!-- Node1 -->
<g id="Node000001" class="node">
<title>Node1</title>
<g id="a_Node000001"><a xlink:title="Start the main server loop (blocking).">
<polygon fill="#999999" stroke="#666666" points="120,-123.31 0,-123.31 0,-104.31 120,-104.31 120,-123.31"/>
<text text-anchor="middle" x="60" y="-111.31" font-family="Helvetica,sans-Serif" font-size="10.00">UDPGameServer::run</text>
</a>
</g>
</g>
<!-- Node2 -->
<g id="Node000002" class="node">
<title>Node2</title>
<g id="a_Node000002"><a xlink:href="classUDPGameServer.html#a19fbc481d5a9467da80ef95a4e3872e5" target="_top" xlink:title="Broadcast the current snapshot to all connected players.">
<polygon fill="white" stroke="#666666" points="327.5,-410.81 175.5,-410.81 175.5,-380.81 327.5,-380.81 327.5,-410.81"/>
<text text-anchor="start" x="183.5" y="-398.81" font-family="Helvetica,sans-Serif" font-size="10.00">UDPGameServer::broadcast</text>
<text text-anchor="middle" x="251.5" y="-387.81" font-family="Helvetica,sans-Serif" font-size="10.00">Snapshot</text>
</a>
</g>
</g>
<!-- Node1&#45;&gt;Node2 -->
<g id="edge1_Node000001_Node000002" class="edge">
<title>Node1&#45;&gt;Node2</title>
<g id="a_edge1_Node000001_Node000002"><a xlink:title=" ">
<path fill="none" stroke="#63b8ff" d="M63.95,-123.33C73.59,-153.45 106.46,-248.62 156,-313.81 174.05,-337.57 199.94,-359.44 220.06,-374.61"/>
<polygon fill="#63b8ff" stroke="#63b8ff" points="218.17,-377.56 228.29,-380.69 222.32,-371.93 218.17,-377.56"/>
</a>
</g>
</g>
<!-- Node6 -->
<g id="Node000006" class="node">
<title>Node6</title>
<g id="a_Node000006"><a xlink:href="classUDPGameServer.html#a9d28a7f4a0c75aba168ea6a58633d1bb" target="_top" xlink:title="Route an incoming packet to the appropriate handler.">
<polygon fill="white" stroke="#666666" points="336,-304.31 167,-304.31 167,-285.31 336,-285.31 336,-304.31"/>
<text text-anchor="middle" x="251.5" y="-292.31" font-family="Helvetica,sans-Serif" font-size="10.00">UDPGameServer::handlePacket</text>
</a>
</g>
</g>
<!-- Node1&#45;&gt;Node6 -->
<g id="edge5_Node000001_Node000006" class="edge">
<title>Node1&#45;&gt;Node6</title>
<g id="a_edge5_Node000001_Node000006"><a xlink:title=" ">
<path fill="none" stroke="#63b8ff" d="M71.19,-123.54C101.91,-152.88 193.89,-240.74 232.8,-277.91"/>
<polygon fill="#63b8ff" stroke="#63b8ff" points="230.61,-280.65 240.26,-285.03 235.45,-275.59 230.61,-280.65"/>
</a>
</g>
</g>
<!-- Node16 -->
<g id="Node000016" class="node">
<title>Node16</title>
<g id="a_Node000016"><a xlink:href="classUDPGameServer.html#a7f3a37004641222f4d30d55614f05029" target="_top" xlink:title="Thread loop to read incoming UDP packets without blocking the simulation tick.">
<polygon fill="white" stroke="#666666" points="335,-143.31 168,-143.31 168,-124.31 335,-124.31 335,-143.31"/>
<text text-anchor="middle" x="251.5" y="-131.31" font-family="Helvetica,sans-Serif" font-size="10.00">UDPGameServer::networkLoop</text>
</a>
</g>
</g>
<!-- Node1&#45;&gt;Node16 -->
<g id="edge20_Node000001_Node000016" class="edge">
<title>Node1&#45;&gt;Node16</title>
<g id="a_edge20_Node000001_Node000016"><a xlink:title=" ">
<path fill="none" stroke="#63b8ff" d="M120.18,-120.06C132.09,-121.31 144.88,-122.66 157.62,-124.01"/>
<polygon fill="#63b8ff" stroke="#63b8ff" points="157.5,-127.51 167.81,-125.08 158.24,-120.55 157.5,-127.51"/>
</a>
</g>
</g>
<!-- Node21 -->
<g id="Node000021" class="node">
<title>Node21</title>
<g id="a_Node000021"><a xlink:href="classUDPGameServer.html#a04aa4dac3d2e7571a2d092c0a37e75ef" target="_top" xlink:title="Monotonic time helper in milliseconds.">
<polygon fill="white" stroke="#666666" points="535,-57.31 396,-57.31 396,-38.31 535,-38.31 535,-57.31"/>
<text text-anchor="middle" x="465.5" y="-45.31" font-family="Helvetica,sans-Serif" font-size="10.00">UDPGameServer::nowMs</text>
</a>
</g>
</g>
<!-- Node1&#45;&gt;Node21 -->
<g id="edge26_Node000001_Node000021" class="edge">
<title>Node1&#45;&gt;Node21</title>
<g id="a_edge26_Node000001_Node000021"><a xlink:title=" ">
<path fill="none" stroke="#63b8ff" d="M120.18,-104.45C178.04,-95.27 268.61,-80.79 347,-67.81 363.98,-65 382.33,-61.9 399.37,-59.01"/>
<polygon fill="#63b8ff" stroke="#63b8ff" points="399.96,-62.46 409.23,-57.33 398.78,-55.56 399.96,-62.46"/>
</a>
</g>
</g>
<!-- Node22 -->
<g id="Node000022" class="node">
<title>Node22</title>
<g id="a_Node000022"><a xlink:href="classIpcChannel.html#a35498032e830b79724747de4e7b6ca1b" target="_top" xlink:title="Send a text message (limited to 1024 bytes).">
<polygon fill="white" stroke="#666666" points="515.5,-20.31 415.5,-20.31 415.5,-1.31 515.5,-1.31 515.5,-20.31"/>
<text text-anchor="middle" x="465.5" y="-8.31" font-family="Helvetica,sans-Serif" font-size="10.00">IpcChannel::send</text>
</a>
</g>
</g>
<!-- Node1&#45;&gt;Node22 -->
<g id="edge27_Node000001_Node000022" class="edge">
<title>Node1&#45;&gt;Node22</title>
<g id="a_edge27_Node000001_Node000022"><a xlink:title=" ">
<path fill="none" stroke="#63b8ff" d="M68.07,-104.29C82.33,-85.97 116.54,-46.16 156,-29.81 237.24,3.85 340.89,2.2 404.96,-3.35"/>
<polygon fill="#63b8ff" stroke="#63b8ff" points="405.01,-6.86 415.29,-4.3 405.65,0.11 405.01,-6.86"/>
</a>
</g>
</g>
<!-- Node23 -->
<g id="Node000023" class="node">
<title>Node23</title>
<g id="a_Node000023"><a xlink:href="classUDPGameServer.html#aa1c969e983f12d8e36bfb2465f7fe5d6" target="_top" xlink:title="Advance the local simulation based on elapsed time.">
<polygon fill="white" stroke="#666666" points="347,-58.31 156,-58.31 156,-39.31 347,-39.31 347,-58.31"/>
<text text-anchor="middle" x="251.5" y="-46.31" font-family="Helvetica,sans-Serif" font-size="10.00">UDPGameServer::updateSimulation</text>
</a>
</g>
</g>
<!-- Node1&#45;&gt;Node23 -->
<g id="edge28_Node000001_Node000023" class="edge">
<title>Node1&#45;&gt;Node23</title>
<g id="a_edge28_Node000001_Node000023"><a xlink:title=" ">
<path fill="none" stroke="#63b8ff" d="M83.84,-104.3C102.96,-96.48 131.05,-85.35 156,-76.81 172.07,-71.31 189.88,-65.87 205.67,-61.26"/>
<polygon fill="#63b8ff" stroke="#63b8ff" points="207.08,-64.5 215.72,-58.36 205.14,-57.77 207.08,-64.5"/>
</a>
</g>
</g>
<!-- Node3 -->
<g id="Node000003" class="node">
<title>Node3</title>
<g id="a_Node000003"><a xlink:href="classUDPGameServer.html#a602889e958a3ff926bb8de325c982a62" target="_top" xlink:title="Send a packet to a single endpoint.">
<polygon fill="white" stroke="#666666" points="754,-464.31 584,-464.31 584,-445.31 754,-445.31 754,-464.31"/>
<text text-anchor="middle" x="669" y="-452.31" font-family="Helvetica,sans-Serif" font-size="10.00">UDPGameServer::sendPacketTo</text>
</a>
</g>
</g>
<!-- Node2&#45;&gt;Node3 -->
<g id="edge2_Node000002_Node000003" class="edge">
<title>Node2&#45;&gt;Node3</title>
<g id="a_edge2_Node000002_Node000003"><a xlink:title=" ">
<path fill="none" stroke="#63b8ff" d="M327.74,-406.49C402.12,-417.06 515.39,-433.14 590.53,-443.81"/>
<polygon fill="#63b8ff" stroke="#63b8ff" points="590.48,-447.34 600.87,-445.28 591.46,-440.41 590.48,-447.34"/>
</a>
</g>
</g>
<!-- Node4 -->
<g id="Node000004" class="node">
<title>Node4</title>
<g id="a_Node000004"><a xlink:href="classPacket.html#aa88c2d28796644c8a1d6137996502ca8" target="_top" xlink:title="Serialize the packet to a byte buffer ready to send.">
<polygon fill="white" stroke="#666666" points="905.5,-485.31 810.5,-485.31 810.5,-466.31 905.5,-466.31 905.5,-485.31"/>
<text text-anchor="middle" x="858" y="-473.31" font-family="Helvetica,sans-Serif" font-size="10.00">Packet::serialize</text>
</a>
</g>
</g>
<!-- Node3&#45;&gt;Node4 -->
<g id="edge3_Node000003_Node000004" class="edge">
<title>Node3&#45;&gt;Node4</title>
<g id="a_edge3_Node000003_Node000004"><a xlink:title=" ">
<path fill="none" stroke="#63b8ff" d="M754.2,-464.27C769.72,-466.01 785.59,-467.79 800.07,-469.42"/>
<polygon fill="#63b8ff" stroke="#63b8ff" points="800.02,-472.93 810.35,-470.57 800.8,-465.98 800.02,-472.93"/>
</a>
</g>
</g>
<!-- Node5 -->
<g id="Node000005" class="node">
<title>Node5</title>
<g id="a_Node000005"><a xlink:href="classNetwork_1_1TransportLayer_1_1UDPSocket.html#a887cf24e71c890759f907c074f5b3505" target="_top" xlink:title="Write bytes to the UDP socket.">
<polygon fill="white" stroke="#666666" points="926,-447.81 790,-447.81 790,-417.81 926,-417.81 926,-447.81"/>
<text text-anchor="start" x="798" y="-435.81" font-family="Helvetica,sans-Serif" font-size="10.00">Network::TransportLayer</text>
<text text-anchor="middle" x="858" y="-424.81" font-family="Helvetica,sans-Serif" font-size="10.00">::UDPSocket::writeByte</text>
</a>
</g>
</g>
<!-- Node3&#45;&gt;Node5 -->
<g id="edge4_Node000003_Node000005" class="edge">
<title>Node3&#45;&gt;Node5</title>
<g id="a_edge4_Node000003_Node000005"><a xlink:title=" ">
<path fill="none" stroke="#63b8ff" d="M750.93,-445.29C760.5,-444.16 770.25,-443.02 779.76,-441.9"/>
<polygon fill="#63b8ff" stroke="#63b8ff" points="780.46,-445.34 789.98,-440.7 779.64,-438.39 780.46,-445.34"/>
</a>
</g>
</g>
<!-- Node6&#45;&gt;Node3 -->
<g id="edge19_Node000006_Node000003" class="edge">
<title>Node6&#45;&gt;Node3</title>
<g id="a_edge19_Node000006_Node000003"><a xlink:title=" ">
<path fill="none" stroke="#63b8ff" d="M274.05,-304.5C299.8,-315.98 344.26,-335.47 383,-350.81 455.55,-379.54 478.71,-374.92 548,-410.81 565.3,-419.77 566.17,-427.96 584,-435.81 589.75,-438.34 595.87,-440.55 602.09,-442.48"/>
<polygon fill="#63b8ff" stroke="#63b8ff" points="601.33,-445.9 611.9,-445.29 603.25,-439.17 601.33,-445.9"/>
</a>
</g>
</g>
<!-- Node7 -->
<g id="Node000007" class="node">
<title>Node7</title>
<g id="a_Node000007"><a xlink:href="classUDPGameServer.html#a367b917d572ad28819003841b3be180c" target="_top" xlink:title="Register a new player on receipt of a hello message.">
<polygon fill="white" stroke="#666666" points="547,-341.31 384,-341.31 384,-322.31 547,-322.31 547,-341.31"/>
<text text-anchor="middle" x="465.5" y="-329.31" font-family="Helvetica,sans-Serif" font-size="10.00">UDPGameServer::handleHello</text>
</a>
</g>
</g>
<!-- Node6&#45;&gt;Node7 -->
<g id="edge6_Node000006_Node000007" class="edge">
<title>Node6&#45;&gt;Node7</title>
<g id="a_edge6_Node000006_Node000007"><a xlink:title=" ">
<path fill="none" stroke="#63b8ff" d="M307.1,-304.34C335.3,-309.26 369.91,-315.3 399.49,-320.46"/>
<polygon fill="#63b8ff" stroke="#63b8ff" points="399.27,-323.98 409.72,-322.25 400.47,-317.08 399.27,-323.98"/>
</a>
</g>
</g>
<!-- Node14 -->
<g id="Node000014" class="node">
<title>Node14</title>
<g id="a_Node000014"><a xlink:href="classUDPGameServer.html#abe9913c5eaa12c361bdcc9ce68bdc835" target="_top" xlink:title="Update player inputs (movement/direction).">
<polygon fill="white" stroke="#666666" points="546.5,-267.31 384.5,-267.31 384.5,-248.31 546.5,-248.31 546.5,-267.31"/>
<text text-anchor="middle" x="465.5" y="-255.31" font-family="Helvetica,sans-Serif" font-size="10.00">UDPGameServer::handleInput</text>
</a>
</g>
</g>
<!-- Node6&#45;&gt;Node14 -->
<g id="edge14_Node000006_Node000014" class="edge">
<title>Node6&#45;&gt;Node14</title>
<g id="a_edge14_Node000006_Node000014"><a xlink:title=" ">
<path fill="none" stroke="#63b8ff" d="M307.1,-285.28C335.3,-280.36 369.91,-274.32 399.49,-269.16"/>
<polygon fill="#63b8ff" stroke="#63b8ff" points="400.47,-272.54 409.72,-267.37 399.27,-265.64 400.47,-272.54"/>
</a>
</g>
</g>
<!-- Node15 -->
<g id="Node000015" class="node">
<title>Node15</title>
<g id="a_Node000015"><a xlink:href="classUDPGameServer.html#a0117b7531413f5b7b161675f9e9efd3d" target="_top" xlink:title="Handle a shoot command (spawn a bullet).">
<polygon fill="white" stroke="#666666" points="548,-304.31 383,-304.31 383,-285.31 548,-285.31 548,-304.31"/>
<text text-anchor="middle" x="465.5" y="-292.31" font-family="Helvetica,sans-Serif" font-size="10.00">UDPGameServer::handleShoot</text>
</a>
</g>
</g>
<!-- Node6&#45;&gt;Node15 -->
<g id="edge17_Node000006_Node000015" class="edge">
<title>Node6&#45;&gt;Node15</title>
<g id="a_edge17_Node000006_Node000015"><a xlink:title=" ">
<path fill="none" stroke="#63b8ff" d="M336.29,-294.81C348.22,-294.81 360.55,-294.81 372.63,-294.81"/>
<polygon fill="#63b8ff" stroke="#63b8ff" points="372.71,-298.31 382.71,-294.81 372.71,-291.31 372.71,-298.31"/>
</a>
</g>
</g>
<!-- Node7&#45;&gt;Node3 -->
<g id="edge11_Node000007_Node000003" class="edge">
<title>Node7&#45;&gt;Node3</title>
<g id="a_edge11_Node000007_Node000003"><a xlink:title=" ">
<path fill="none" stroke="#63b8ff" d="M501.18,-341.36C516.91,-347.04 534.87,-355.58 548,-367.81 573.02,-391.12 556.84,-415.03 584,-435.81 586.34,-437.6 588.81,-439.23 591.39,-440.7"/>
<polygon fill="#63b8ff" stroke="#63b8ff" points="589.98,-443.91 600.5,-445.18 593.06,-437.63 589.98,-443.91"/>
</a>
</g>
</g>
<!-- Node8 -->
<g id="Node000008" class="node">
<title>Node8</title>
<g id="a_Node000008"><a xlink:href="classGameWorld.html#a9a877bcf4eed6527b0896242463a3dfa" target="_top" xlink:title="Build a UDP snapshot packet of current world state.">
<polygon fill="white" stroke="#666666" points="743.5,-426.81 594.5,-426.81 594.5,-396.81 743.5,-396.81 743.5,-426.81"/>
<text text-anchor="start" x="602.5" y="-414.81" font-family="Helvetica,sans-Serif" font-size="10.00">GameWorld::buildSnapshot</text>
<text text-anchor="middle" x="669" y="-403.81" font-family="Helvetica,sans-Serif" font-size="10.00">Packet</text>
</a>
</g>
</g>
<!-- Node7&#45;&gt;Node8 -->
<g id="edge7_Node000007_Node000008" class="edge">
<title>Node7&#45;&gt;Node8</title>
<g id="a_edge7_Node000007_Node000008"><a xlink:title=" ">
<path fill="none" stroke="#63b8ff" d="M489.59,-341.35C506.05,-348.3 528.61,-358.17 548,-367.81 564.39,-375.96 567.09,-380.81 584,-387.81 588.78,-389.79 593.78,-391.67 598.86,-393.44"/>
<polygon fill="#63b8ff" stroke="#63b8ff" points="598.07,-396.87 608.67,-396.7 600.28,-390.23 598.07,-396.87"/>
</a>
</g>
</g>
<!-- Node9 -->
<g id="Node000009" class="node">
<title>Node9</title>
<g id="a_Node000009"><a xlink:href="classSessionManager.html#a48995915db3b90fa7228d357d6293163" target="_top" xlink:title="Lookup a session by player id.">
<polygon fill="white" stroke="#666666" points="747,-267.31 591,-267.31 591,-248.31 747,-248.31 747,-267.31"/>
<text text-anchor="middle" x="669" y="-255.31" font-family="Helvetica,sans-Serif" font-size="10.00">SessionManager::getSession</text>
</a>
</g>
</g>
<!-- Node7&#45;&gt;Node9 -->
<g id="edge8_Node000007_Node000009" class="edge">
<title>Node7&#45;&gt;Node9</title>
<g id="a_edge8_Node000007_Node000009"><a xlink:title=" ">
<path fill="none" stroke="#63b8ff" d="M528.44,-322.17C535.26,-319.94 541.92,-317.2 548,-313.81 568.04,-302.65 563.98,-288.03 584,-276.81 588,-274.57 592.24,-272.6 596.61,-270.85"/>
<polygon fill="#63b8ff" stroke="#63b8ff" points="598.1,-274.04 606.35,-267.4 595.76,-267.44 598.1,-274.04"/>
</a>
</g>
</g>
<!-- Node10 -->
<g id="Node000010" class="node">
<title>Node10</title>
<g id="a_Node000010"><a xlink:href="classUDPGameServer.html#ae610b7c128c3b70e06f3fc1b5a3ecdc5" target="_top" xlink:title=" ">
<polygon fill="white" stroke="#666666" points="742.5,-230.31 595.5,-230.31 595.5,-211.31 742.5,-211.31 742.5,-230.31"/>
<text text-anchor="middle" x="669" y="-218.31" font-family="Helvetica,sans-Serif" font-size="10.00">UDPGameServer::logPrefix</text>
</a>
</g>
</g>
<!-- Node7&#45;&gt;Node10 -->
<g id="edge9_Node000007_Node000010" class="edge">
<title>Node7&#45;&gt;Node10</title>
<g id="a_edge9_Node000007_Node000010"><a xlink:title=" ">
<path fill="none" stroke="#63b8ff" d="M533.74,-322.3C538.84,-320.01 543.68,-317.22 548,-313.81 576.72,-291.16 555.34,-262.53 584,-239.81 586.1,-238.14 588.32,-236.62 590.63,-235.22"/>
<polygon fill="#63b8ff" stroke="#63b8ff" points="592.64,-238.13 599.94,-230.45 589.44,-231.9 592.64,-238.13"/>
</a>
</g>
</g>
<!-- Node11 -->
<g id="Node000011" class="node">
<title>Node11</title>
<g id="a_Node000011"><a xlink:href="classGameWorld.html#aaebb0cdb6bcf4382893ce438832db63e" target="_top" xlink:title="Register a player on HELLO_UDP.">
<polygon fill="white" stroke="#666666" points="743,-378.31 595,-378.31 595,-359.31 743,-359.31 743,-378.31"/>
<text text-anchor="middle" x="669" y="-366.31" font-family="Helvetica,sans-Serif" font-size="10.00">GameWorld::registerPlayer</text>
</a>
</g>
</g>
<!-- Node7&#45;&gt;Node11 -->
<g id="edge10_Node000007_Node000011" class="edge">
<title>Node7&#45;&gt;Node11</title>
<g id="a_edge10_Node000007_Node000011"><a xlink:title=" ">
<path fill="none" stroke="#63b8ff" d="M518.39,-341.34C545.08,-346.24 577.81,-352.25 605.84,-357.4"/>
<polygon fill="#63b8ff" stroke="#63b8ff" points="605.47,-360.89 615.93,-359.25 606.73,-354 605.47,-360.89"/>
</a>
</g>
</g>
<!-- Node12 -->
<g id="Node000012" class="node">
<title>Node12</title>
<g id="a_Node000012"><a xlink:href="classGameWorld.html#a163fb2fed54650ebba995df1e64c39db" target="_top" xlink:title="Prefix used in log output.">
<polygon fill="white" stroke="#666666" points="739,-341.31 599,-341.31 599,-322.31 739,-322.31 739,-341.31"/>
<text text-anchor="middle" x="669" y="-329.31" font-family="Helvetica,sans-Serif" font-size="10.00">GameWorld::setLogPrefix</text>
</a>
</g>
</g>
<!-- Node7&#45;&gt;Node12 -->
<g id="edge12_Node000007_Node000012" class="edge">
<title>Node7&#45;&gt;Node12</title>
<g id="a_edge12_Node000007_Node000012"><a xlink:title=" ">
<path fill="none" stroke="#63b8ff" d="M547.01,-331.81C560.72,-331.81 574.96,-331.81 588.64,-331.81"/>
<polygon fill="#63b8ff" stroke="#63b8ff" points="588.98,-335.31 598.98,-331.81 588.98,-328.31 588.98,-335.31"/>
</a>
</g>
</g>
<!-- Node13 -->
<g id="Node000013" class="node">
<title>Node13</title>
<g id="a_Node000013"><a xlink:href="classSessionManager.html#af2596853b8042076df0c1022468eaec3" target="_top" xlink:title="Register the client&#39;s UDP address.">
<polygon fill="white" stroke="#666666" points="749,-304.31 589,-304.31 589,-285.31 749,-285.31 749,-304.31"/>
<text text-anchor="middle" x="669" y="-292.31" font-family="Helvetica,sans-Serif" font-size="10.00">SessionManager::setUdpAddr</text>
</a>
</g>
</g>
<!-- Node7&#45;&gt;Node13 -->
<g id="edge13_Node000007_Node000013" class="edge">
<title>Node7&#45;&gt;Node13</title>
<g id="a_edge13_Node000007_Node000013"><a xlink:title=" ">
<path fill="none" stroke="#63b8ff" d="M518.39,-322.28C545.08,-317.38 577.81,-311.37 605.84,-306.22"/>
<polygon fill="#63b8ff" stroke="#63b8ff" points="606.73,-309.62 615.93,-304.37 605.47,-302.73 606.73,-309.62"/>
</a>
</g>
</g>
<!-- Node14&#45;&gt;Node9 -->
<g id="edge15_Node000014_Node000009" class="edge">
<title>Node14&#45;&gt;Node9</title>
<g id="a_edge15_Node000014_Node000009"><a xlink:title=" ">
<path fill="none" stroke="#63b8ff" d="M546.72,-257.81C557.81,-257.81 569.25,-257.81 580.46,-257.81"/>
<polygon fill="#63b8ff" stroke="#63b8ff" points="580.68,-261.31 590.68,-257.81 580.68,-254.31 580.68,-261.31"/>
</a>
</g>
</g>
<!-- Node14&#45;&gt;Node10 -->
<g id="edge16_Node000014_Node000010" class="edge">
<title>Node14&#45;&gt;Node10</title>
<g id="a_edge16_Node000014_Node000010"><a xlink:title=" ">
<path fill="none" stroke="#63b8ff" d="M518.39,-248.28C545.08,-243.38 577.81,-237.37 605.84,-232.22"/>
<polygon fill="#63b8ff" stroke="#63b8ff" points="606.73,-235.62 615.93,-230.37 605.47,-228.73 606.73,-235.62"/>
</a>
</g>
</g>
<!-- Node15&#45;&gt;Node9 -->
<g id="edge18_Node000015_Node000009" class="edge">
<title>Node15&#45;&gt;Node9</title>
<g id="a_edge18_Node000015_Node000009"><a xlink:title=" ">
<path fill="none" stroke="#63b8ff" d="M518.39,-285.28C545.08,-280.38 577.81,-274.37 605.84,-269.22"/>
<polygon fill="#63b8ff" stroke="#63b8ff" points="606.73,-272.62 615.93,-267.37 605.47,-265.73 606.73,-272.62"/>
</a>
</g>
</g>
<!-- Node16&#45;&gt;Node10 -->
<g id="edge23_Node000016_Node000010" class="edge">
<title>Node16&#45;&gt;Node10</title>
<g id="a_edge23_Node000016_Node000010"><a xlink:title=" ">
<path fill="none" stroke="#63b8ff" d="M266.57,-143.49C289.68,-158.79 337.62,-188.14 383,-200.81 449.36,-219.33 527.62,-223.64 585.32,-223.71"/>
<polygon fill="#63b8ff" stroke="#63b8ff" points="585.5,-227.21 595.49,-223.68 585.48,-220.21 585.5,-227.21"/>
</a>
</g>
</g>
<!-- Node17 -->
<g id="Node000017" class="node">
<title>Node17</title>
<g id="a_Node000017"><a xlink:href="classPacket.html#abfcd427a2ca434ac71592334517638fb" target="_top" xlink:title="Deserialize a packet from a raw byte buffer.">
<polygon fill="white" stroke="#666666" points="519,-143.31 412,-143.31 412,-124.31 519,-124.31 519,-143.31"/>
<text text-anchor="middle" x="465.5" y="-131.31" font-family="Helvetica,sans-Serif" font-size="10.00">Packet::deserialize</text>
</a>
</g>
</g>
<!-- Node16&#45;&gt;Node17 -->
<g id="edge21_Node000016_Node000017" class="edge">
<title>Node16&#45;&gt;Node17</title>
<g id="a_edge21_Node000016_Node000017"><a xlink:title=" ">
<path fill="none" stroke="#63b8ff" d="M335.07,-133.81C357.25,-133.81 380.87,-133.81 401.78,-133.81"/>
<polygon fill="#63b8ff" stroke="#63b8ff" points="401.81,-137.31 411.81,-133.81 401.81,-130.31 401.81,-137.31"/>
</a>
</g>
</g>
<!-- Node18 -->
<g id="Node000018" class="node">
<title>Node18</title>
<g id="a_Node000018"><a xlink:href="classNetwork_1_1TransportLayer_1_1UDPSocket.html#a429dc0b0e539ab051d785b7145e42bf7" target="_top" xlink:title="Get the sender address of the last received packet.">
<polygon fill="white" stroke="#666666" points="542.5,-105.81 388.5,-105.81 388.5,-75.81 542.5,-75.81 542.5,-105.81"/>
<text text-anchor="start" x="396.5" y="-93.81" font-family="Helvetica,sans-Serif" font-size="10.00">Network::TransportLayer</text>
<text text-anchor="middle" x="465.5" y="-82.81" font-family="Helvetica,sans-Serif" font-size="10.00">::UDPSocket::getSenderAddr</text>
</a>
</g>
</g>
<!-- Node16&#45;&gt;Node18 -->
<g id="edge22_Node000016_Node000018" class="edge">
<title>Node16&#45;&gt;Node18</title>
<g id="a_edge22_Node000016_Node000018"><a xlink:title=" ">
<path fill="none" stroke="#63b8ff" d="M299.55,-124.27C323.34,-119.44 352.95,-113.44 380.48,-107.85"/>
<polygon fill="#63b8ff" stroke="#63b8ff" points="381.41,-111.23 390.52,-105.82 380.02,-104.37 381.41,-111.23"/>
</a>
</g>
</g>
<!-- Node19 -->
<g id="Node000019" class="node">
<title>Node19</title>
<g id="a_Node000019"><a xlink:href="classNetwork_1_1TransportLayer_1_1UDPSocket.html#a34b53ce1224f81fc6809a24412854294" target="_top" xlink:title="Read bytes from the UDP socket.">
<polygon fill="white" stroke="#666666" points="533.5,-191.81 397.5,-191.81 397.5,-161.81 533.5,-161.81 533.5,-191.81"/>
<text text-anchor="start" x="405.5" y="-179.81" font-family="Helvetica,sans-Serif" font-size="10.00">Network::TransportLayer</text>
<text text-anchor="middle" x="465.5" y="-168.81" font-family="Helvetica,sans-Serif" font-size="10.00">::UDPSocket::readByte</text>
</a>
</g>
</g>
<!-- Node16&#45;&gt;Node19 -->
<g id="edge24_Node000016_Node000019" class="edge">
<title>Node16&#45;&gt;Node19</title>
<g id="a_edge24_Node000016_Node000019"><a xlink:title=" ">
<path fill="none" stroke="#63b8ff" d="M299.55,-143.35C325.41,-148.6 358.15,-155.24 387.62,-161.22"/>
<polygon fill="#63b8ff" stroke="#63b8ff" points="386.98,-164.66 397.48,-163.22 388.37,-157.8 386.98,-164.66"/>
</a>
</g>
</g>
<!-- Node20 -->
<g id="Node000020" class="node">
<title>Node20</title>
<g id="a_Node000020"><a xlink:href="classNetwork_1_1TransportLayer_1_1ASocket.html#a50cace88b622aa442d901434ecc33bd8" target="_top" xlink:title="Check the socket state for read, write, or exception.">
<polygon fill="white" stroke="#666666" points="737,-191.81 601,-191.81 601,-161.81 737,-161.81 737,-191.81"/>
<text text-anchor="start" x="609" y="-179.81" font-family="Helvetica,sans-Serif" font-size="10.00">Network::TransportLayer</text>
<text text-anchor="middle" x="669" y="-168.81" font-family="Helvetica,sans-Serif" font-size="10.00">::ASocket::sockState</text>
</a>
</g>
</g>
<!-- Node19&#45;&gt;Node20 -->
<g id="edge25_Node000019_Node000020" class="edge">
<title>Node19&#45;&gt;Node20</title>
<g id="a_edge25_Node000019_Node000020"><a xlink:title=" ">
<path fill="none" stroke="#63b8ff" d="M533.6,-176.81C551.94,-176.81 571.96,-176.81 590.82,-176.81"/>
<polygon fill="#63b8ff" stroke="#63b8ff" points="590.85,-180.31 600.85,-176.81 590.85,-173.31 590.85,-180.31"/>
</a>
</g>
</g>
<!-- Node23&#45;&gt;Node21 -->
<g id="edge29_Node000023_Node000021" class="edge">
<title>Node23&#45;&gt;Node21</title>
<g id="a_edge29_Node000023_Node000021"><a xlink:title=" ">
<path fill="none" stroke="#63b8ff" d="M347.03,-48.36C360.01,-48.3 373.23,-48.24 385.88,-48.18"/>
<polygon fill="#63b8ff" stroke="#63b8ff" points="385.91,-51.68 395.89,-48.13 385.88,-44.68 385.91,-51.68"/>
</a>
</g>
</g>
<!-- Node23&#45;&gt;Node22 -->
<g id="edge30_Node000023_Node000022" class="edge">
<title>Node23&#45;&gt;Node22</title>
<g id="a_edge30_Node000023_Node000022"><a xlink:title=" ">
<path fill="none" stroke="#63b8ff" d="M305.72,-39.27C336.05,-33.83 374.11,-27.01 405.37,-21.41"/>
<polygon fill="#63b8ff" stroke="#63b8ff" points="406.03,-24.85 415.26,-19.64 404.8,-17.96 406.03,-24.85"/>
</a>
</g>
</g>
</g>
</svg>
