<?xml version="1.0" encoding="UTF-8" standalone="no"?>
<!DOCTYPE svg PUBLIC "-//W3C//DTD SVG 1.1//EN"
 "http://www.w3.org/Graphics/SVG/1.1/DTD/svg11.dtd">
<!-- Generated by graphviz version 2.43.0 (0)
 -->
<!-- Title: TCPServer::acceptNewClient Pages: 1 -->
<svg width="670pt" height="242pt"
 viewBox="0.00 0.00 670.00 241.50" xmlns="http://www.w3.org/2000/svg" xmlns:xlink="http://www.w3.org/1999/xlink">
<g id="graph0" class="graph" transform="scale(1 1) rotate(0) translate(4 237.5)">
<title>TCPServer::acceptNewClient</title>
<!-- Node1 -->
<g id="Node000001" class="node">
<title>Node1</title>
<g id="a_Node000001"><a xlink:title="Accept incoming connection and register a new client slot.">
<polygon fill="#999999" stroke="#666666" points="155,-129 0,-129 0,-110 155,-110 155,-129"/>
<text text-anchor="middle" x="77.5" y="-117" font-family="Helvetica,sans-Serif" font-size="10.00">TCPServer::acceptNewClient</text>
</a>
</g>
</g>
<!-- Node2 -->
<g id="Node000002" class="node">
<title>Node2</title>
<g id="a_Node000002"><a xlink:href="classNetwork_1_1TransportLayer_1_1TCPSocket.html#aab30f88e654d44503b85368f4af43e8d" target="_top" xlink:title="Accept an incoming client connection.">
<polygon fill="white" stroke="#666666" points="340.5,-233.5 200.5,-233.5 200.5,-203.5 340.5,-203.5 340.5,-233.5"/>
<text text-anchor="start" x="208.5" y="-221.5" font-family="Helvetica,sans-Serif" font-size="10.00">Network::TransportLayer</text>
<text text-anchor="middle" x="270.5" y="-210.5" font-family="Helvetica,sans-Serif" font-size="10.00">::TCPSocket::acceptClient</text>
</a>
</g>
</g>
<!-- Node1&#45;&gt;Node2 -->
<g id="edge1_Node000001_Node000002" class="edge">
<title>Node1&#45;&gt;Node2</title>
<g id="a_edge1_Node000001_Node000002"><a xlink:title=" ">
<path fill="none" stroke="#63b8ff" d="M90.28,-129.06C110.03,-144.69 151.54,-175.81 191,-194.5 195.02,-196.4 199.23,-198.2 203.52,-199.89"/>
<polygon fill="#63b8ff" stroke="#63b8ff" points="202.4,-203.21 213,-203.41 204.84,-196.65 202.4,-203.21"/>
</a>
</g>
</g>
<!-- Node3 -->
<g id="Node000003" class="node">
<title>Node3</title>
<g id="a_Node000003"><a xlink:href="classSessionManager.html#af8d1197fa1236d0295e3d31170639f6e" target="_top" xlink:title="Add a TCP session entry.">
<polygon fill="white" stroke="#666666" points="349.5,-185 191.5,-185 191.5,-166 349.5,-166 349.5,-185"/>
<text text-anchor="middle" x="270.5" y="-173" font-family="Helvetica,sans-Serif" font-size="10.00">SessionManager::addSession</text>
</a>
</g>
</g>
<!-- Node1&#45;&gt;Node3 -->
<g id="edge2_Node000001_Node000003" class="edge">
<title>Node1&#45;&gt;Node3</title>
<g id="a_edge2_Node000001_Node000003"><a xlink:title=" ">
<path fill="none" stroke="#63b8ff" d="M104.63,-129.16C127.29,-137.33 161.05,-149.03 191,-157.5 198.57,-159.64 206.6,-161.71 214.53,-163.63"/>
<polygon fill="#63b8ff" stroke="#63b8ff" points="213.93,-167.09 224.47,-165.99 215.55,-160.28 213.93,-167.09"/>
</a>
</g>
</g>
<!-- Node4 -->
<g id="Node000004" class="node">
<title>Node4</title>
<g id="a_Node000004"><a xlink:href="classTCPServer.html#aa6089a11e438f73bfc614c44f86e5d75" target="_top" xlink:title="Close and invalidate a file descriptor.">
<polygon fill="white" stroke="#666666" points="325.5,-148 215.5,-148 215.5,-129 325.5,-129 325.5,-148"/>
<text text-anchor="middle" x="270.5" y="-136" font-family="Helvetica,sans-Serif" font-size="10.00">TCPServer::closeFd</text>
</a>
</g>
</g>
<!-- Node1&#45;&gt;Node4 -->
<g id="edge3_Node000001_Node000004" class="edge">
<title>Node1&#45;&gt;Node4</title>
<g id="a_edge3_Node000001_Node000004"><a xlink:title=" ">
<path fill="none" stroke="#63b8ff" d="M155.09,-127.12C171.6,-128.76 188.91,-130.48 204.91,-132.07"/>
<polygon fill="#63b8ff" stroke="#63b8ff" points="204.92,-135.59 215.22,-133.1 205.61,-128.63 204.92,-135.59"/>
</a>
</g>
</g>
<!-- Node6 -->
<g id="Node000006" class="node">
<title>Node6</title>
<g id="a_Node000006"><a xlink:href="classTCPServer.html#a6d824f4302f15bbd2c7c8b754d1a51dd" target="_top" xlink:title="Get current time in milliseconds.">
<polygon fill="white" stroke="#666666" points="345,-111 196,-111 196,-92 345,-92 345,-111"/>
<text text-anchor="middle" x="270.5" y="-99" font-family="Helvetica,sans-Serif" font-size="10.00">TCPServer::getCurrentTime</text>
</a>
</g>
</g>
<!-- Node1&#45;&gt;Node6 -->
<g id="edge5_Node000001_Node000006" class="edge">
<title>Node1&#45;&gt;Node6</title>
<g id="a_edge5_Node000001_Node000006"><a xlink:title=" ">
<path fill="none" stroke="#63b8ff" d="M155.09,-112.28C165.13,-111.34 175.46,-110.36 185.61,-109.41"/>
<polygon fill="#63b8ff" stroke="#63b8ff" points="186.06,-112.88 195.69,-108.46 185.41,-105.91 186.06,-112.88"/>
</a>
</g>
</g>
<!-- Node7 -->
<g id="Node000007" class="node">
<title>Node7</title>
<g id="a_Node000007"><a xlink:href="classTCPServer.html#a35b89efbda16dd8af6b7ff45b6da036d" target="_top" xlink:title="Build a packet carrying a string payload.">
<polygon fill="white" stroke="#666666" points="350,-74 191,-74 191,-55 350,-55 350,-74"/>
<text text-anchor="middle" x="270.5" y="-62" font-family="Helvetica,sans-Serif" font-size="10.00">TCPServer::makeStringPacket</text>
</a>
</g>
</g>
<!-- Node1&#45;&gt;Node7 -->
<g id="edge6_Node000001_Node000007" class="edge">
<title>Node1&#45;&gt;Node7</title>
<g id="a_edge6_Node000001_Node000007"><a xlink:title=" ">
<path fill="none" stroke="#63b8ff" d="M106.53,-109.91C129.19,-102.31 161.98,-91.64 191,-83.5 199.63,-81.08 208.85,-78.68 217.82,-76.45"/>
<polygon fill="#63b8ff" stroke="#63b8ff" points="218.92,-79.78 227.8,-74 217.25,-72.98 218.92,-79.78"/>
</a>
</g>
</g>
<!-- Node8 -->
<g id="Node000008" class="node">
<title>Node8</title>
<g id="a_Node000008"><a xlink:href="classTCPServer.html#a9a65a3923e77e48c5f0019b45af8fcb5" target="_top" xlink:title="Send a packet to a specific client fd.">
<polygon fill="white" stroke="#666666" points="334,-37 207,-37 207,-18 334,-18 334,-37"/>
<text text-anchor="middle" x="270.5" y="-25" font-family="Helvetica,sans-Serif" font-size="10.00">TCPServer::sendPacket</text>
</a>
</g>
</g>
<!-- Node1&#45;&gt;Node8 -->
<g id="edge7_Node000001_Node000008" class="edge">
<title>Node1&#45;&gt;Node8</title>
<g id="a_edge7_Node000001_Node000008"><a xlink:title=" ">
<path fill="none" stroke="#63b8ff" d="M90.21,-109.95C109.86,-94.4 151.22,-63.62 191,-46.5 196.75,-44.03 202.88,-41.84 209.08,-39.91"/>
<polygon fill="#63b8ff" stroke="#63b8ff" points="210.21,-43.23 218.84,-37.09 208.26,-36.5 210.21,-43.23"/>
</a>
</g>
</g>
<!-- Node5 -->
<g id="Node000005" class="node">
<title>Node5</title>
<g id="a_Node000005"><a xlink:href="classTCPServer.html#a2595c03eed6bf37e098e619e6751a3d4" target="_top" xlink:title="Close a raw fd without resetting the caller&#39;s variable.">
<polygon fill="white" stroke="#666666" points="517,-148 386,-148 386,-129 517,-129 517,-148"/>
<text text-anchor="middle" x="451.5" y="-136" font-family="Helvetica,sans-Serif" font-size="10.00">TCPServer::closeFdRaw</text>
</a>
</g>
</g>
<!-- Node4&#45;&gt;Node5 -->
<g id="edge4_Node000004_Node000005" class="edge">
<title>Node4&#45;&gt;Node5</title>
<g id="a_edge4_Node000004_Node000005"><a xlink:title=" ">
<path fill="none" stroke="#63b8ff" d="M325.69,-138.5C341.37,-138.5 358.77,-138.5 375.48,-138.5"/>
<polygon fill="#63b8ff" stroke="#63b8ff" points="375.77,-142 385.77,-138.5 375.77,-135 375.77,-142"/>
</a>
</g>
</g>
<!-- Node9 -->
<g id="Node000009" class="node">
<title>Node9</title>
<g id="a_Node000009"><a xlink:href="namespaceProtocol.html#a668bdeed219432868fca095e1b2f2667" target="_top" xlink:title="Build a TCP framed buffer (2 bytes length + serialized packet).">
<polygon fill="white" stroke="#666666" points="505,-56 398,-56 398,-37 505,-37 505,-56"/>
<text text-anchor="middle" x="451.5" y="-44" font-family="Helvetica,sans-Serif" font-size="10.00">Protocol::frameTcp</text>
</a>
</g>
</g>
<!-- Node8&#45;&gt;Node9 -->
<g id="edge8_Node000008_Node000009" class="edge">
<title>Node8&#45;&gt;Node9</title>
<g id="a_edge8_Node000008_Node000009"><a xlink:title=" ">
<path fill="none" stroke="#63b8ff" d="M334.11,-34.15C351.47,-35.99 370.32,-37.99 387.69,-39.83"/>
<polygon fill="#63b8ff" stroke="#63b8ff" points="387.41,-43.32 397.72,-40.9 388.15,-36.36 387.41,-43.32"/>
</a>
</g>
</g>
<!-- Node11 -->
<g id="Node000011" class="node">
<title>Node11</title>
<g id="a_Node000011"><a xlink:href="classTCPServer.html#a79e20e1d2821e399fe47dd1055341d5e" target="_top" xlink:title="Ensure the full buffer is written to the socket.">
<polygon fill="white" stroke="#666666" points="506.5,-19 396.5,-19 396.5,0 506.5,0 506.5,-19"/>
<text text-anchor="middle" x="451.5" y="-7" font-family="Helvetica,sans-Serif" font-size="10.00">TCPServer::writeAll</text>
</a>
</g>
</g>
<!-- Node8&#45;&gt;Node11 -->
<g id="edge10_Node000008_Node000011" class="edge">
<title>Node8&#45;&gt;Node11</title>
<g id="a_edge10_Node000008_Node000011"><a xlink:title=" ">
<path fill="none" stroke="#63b8ff" d="M334.11,-21.2C350.89,-19.52 369.06,-17.69 385.94,-15.99"/>
<polygon fill="#63b8ff" stroke="#63b8ff" points="386.67,-19.44 396.27,-14.95 385.97,-12.47 386.67,-19.44"/>
</a>
</g>
</g>
<!-- Node10 -->
<g id="Node000010" class="node">
<title>Node10</title>
<g id="a_Node000010"><a xlink:href="classPacket.html#aa88c2d28796644c8a1d6137996502ca8" target="_top" xlink:title="Serialize the packet to a byte buffer ready to send.">
<polygon fill="white" stroke="#666666" points="655,-56 560,-56 560,-37 655,-37 655,-56"/>
<text text-anchor="middle" x="607.5" y="-44" font-family="Helvetica,sans-Serif" font-size="10.00">Packet::serialize</text>
</a>
</g>
</g>
<!-- Node9&#45;&gt;Node10 -->
<g id="edge9_Node000009_Node000010" class="edge">
<title>Node9&#45;&gt;Node10</title>
<g id="a_edge9_Node000009_Node000010"><a xlink:title=" ">
<path fill="none" stroke="#63b8ff" d="M505.07,-46.5C519.37,-46.5 534.93,-46.5 549.47,-46.5"/>
<polygon fill="#63b8ff" stroke="#63b8ff" points="549.84,-50 559.84,-46.5 549.84,-43 549.84,-50"/>
</a>
</g>
</g>
<!-- Node12 -->
<g id="Node000012" class="node">
<title>Node12</title>
<g id="a_Node000012"><a xlink:href="classTCPServer.html#a5b1988f8a542c2d39f3d3556264e71b2" target="_top" xlink:title="Write raw bytes to a socket fd.">
<polygon fill="white" stroke="#666666" points="662,-19 553,-19 553,0 662,0 662,-19"/>
<text text-anchor="middle" x="607.5" y="-7" font-family="Helvetica,sans-Serif" font-size="10.00">TCPServer::writeFd</text>
</a>
</g>
</g>
<!-- Node11&#45;&gt;Node12 -->
<g id="edge11_Node000011_Node000012" class="edge">
<title>Node11&#45;&gt;Node12</title>
<g id="a_edge11_Node000011_Node000012"><a xlink:title=" ">
<path fill="none" stroke="#63b8ff" d="M506.79,-9.5C518.38,-9.5 530.72,-9.5 542.63,-9.5"/>
<polygon fill="#63b8ff" stroke="#63b8ff" points="542.95,-13 552.95,-9.5 542.95,-6 542.95,-13"/>
</a>
</g>
</g>
</g>
</svg>
