<?xml version="1.0" encoding="UTF-8" standalone="no"?>
<!DOCTYPE svg PUBLIC "-//W3C//DTD SVG 1.1//EN"
 "http://www.w3.org/Graphics/SVG/1.1/DTD/svg11.dtd">
<!-- Generated by graphviz version 2.43.0 (0)
 -->
<!-- Title: GraphicClient::syncMonsters Pages: 1 -->
<svg width="710pt" height="102pt"
 viewBox="0.00 0.00 710.00 102.00" xmlns="http://www.w3.org/2000/svg" xmlns:xlink="http://www.w3.org/1999/xlink">
<g id="graph0" class="graph" transform="scale(1 1) rotate(0) translate(4 98)">
<title>GraphicClient::syncMonsters</title>
<!-- Node1 -->
<g id="Node000001" class="node">
<title>Node1</title>
<g id="a_Node000001"><a xlink:title="Synchronizes monster entities with server state.">
<polygon fill="#999999" stroke="#666666" points="156,-40 0,-40 0,-21 156,-21 156,-40"/>
<text text-anchor="middle" x="78" y="-28" font-family="Helvetica,sans-Serif" font-size="10.00">GraphicClient::syncMonsters</text>
</a>
</g>
</g>
<!-- Node2 -->
<g id="Node000002" class="node">
<title>Node2</title>
<g id="a_Node000002"><a xlink:href="classGraphicClient.html#a6dd918f7ac4761ab4946371df06386ec" target="_top" xlink:title="Creates a monster entity at specified position.">
<polygon fill="white" stroke="#666666" points="351,-67.5 192,-67.5 192,-37.5 351,-37.5 351,-67.5"/>
<text text-anchor="start" x="200" y="-55.5" font-family="Helvetica,sans-Serif" font-size="10.00">GraphicClient::createMonster</text>
<text text-anchor="middle" x="271.5" y="-44.5" font-family="Helvetica,sans-Serif" font-size="10.00">Entity</text>
</a>
</g>
</g>
<!-- Node1&#45;&gt;Node2 -->
<g id="edge1_Node000001_Node000002" class="edge">
<title>Node1&#45;&gt;Node2</title>
<g id="a_edge1_Node000001_Node000002"><a xlink:title=" ">
<path fill="none" stroke="#63b8ff" d="M156.06,-39.35C164.5,-40.32 173.15,-41.32 181.71,-42.3"/>
<polygon fill="#63b8ff" stroke="#63b8ff" points="181.39,-45.79 191.72,-43.45 182.19,-38.83 181.39,-45.79"/>
</a>
</g>
</g>
<!-- Node7 -->
<g id="Node000007" class="node">
<title>Node7</title>
<g id="a_Node000007"><a xlink:href="classECS.html#ab25123ea5b19ee74c4e120eb6d808a48" target="_top" xlink:title="Retrieves a component from an entity.">
<polygon fill="white" stroke="#666666" points="328,-19 215,-19 215,0 328,0 328,-19"/>
<text text-anchor="middle" x="271.5" y="-7" font-family="Helvetica,sans-Serif" font-size="10.00">ECS::getComponent</text>
</a>
</g>
</g>
<!-- Node1&#45;&gt;Node7 -->
<g id="edge6_Node000001_Node000007" class="edge">
<title>Node1&#45;&gt;Node7</title>
<g id="a_edge6_Node000001_Node000007"><a xlink:title=" ">
<path fill="none" stroke="#63b8ff" d="M156.06,-22.05C172.18,-20.28 189.02,-18.43 204.68,-16.72"/>
<polygon fill="#63b8ff" stroke="#63b8ff" points="205.23,-20.18 214.78,-15.61 204.46,-13.22 205.23,-20.18"/>
</a>
</g>
</g>
<!-- Node3 -->
<g id="Node000003" class="node">
<title>Node3</title>
<g id="a_Node000003"><a xlink:href="classECS.html#a4fbe0d70b0934255d301ced9df6287e7" target="_top" xlink:title="Adds a component to an entity.">
<polygon fill="white" stroke="#666666" points="503,-94 387,-94 387,-75 503,-75 503,-94"/>
<text text-anchor="middle" x="445" y="-82" font-family="Helvetica,sans-Serif" font-size="10.00">ECS::addComponent</text>
</a>
</g>
</g>
<!-- Node2&#45;&gt;Node3 -->
<g id="edge2_Node000002_Node000003" class="edge">
<title>Node2&#45;&gt;Node3</title>
<g id="a_edge2_Node000002_Node000003"><a xlink:title=" ">
<path fill="none" stroke="#63b8ff" d="M351.22,-67.19C361.79,-69.16 372.5,-71.16 382.71,-73.06"/>
<polygon fill="#63b8ff" stroke="#63b8ff" points="382.25,-76.54 392.72,-74.93 383.53,-69.66 382.25,-76.54"/>
</a>
</g>
</g>
<!-- Node6 -->
<g id="Node000006" class="node">
<title>Node6</title>
<g id="a_Node000006"><a xlink:href="classECS.html#a41b876f3725cbb04aac3f2edd95522c6" target="_top" xlink:title="Creates a new entity.">
<polygon fill="white" stroke="#666666" points="495.5,-57 394.5,-57 394.5,-38 495.5,-38 495.5,-57"/>
<text text-anchor="middle" x="445" y="-45" font-family="Helvetica,sans-Serif" font-size="10.00">ECS::createEntity</text>
</a>
</g>
</g>
<!-- Node2&#45;&gt;Node6 -->
<g id="edge5_Node000002_Node000006" class="edge">
<title>Node2&#45;&gt;Node6</title>
<g id="a_edge5_Node000002_Node000006"><a xlink:title=" ">
<path fill="none" stroke="#63b8ff" d="M351.22,-50.2C362.3,-49.88 373.53,-49.55 384.18,-49.24"/>
<polygon fill="#63b8ff" stroke="#63b8ff" points="384.29,-52.74 394.18,-48.95 384.08,-45.75 384.29,-52.74"/>
</a>
</g>
</g>
<!-- Node4 -->
<g id="Node000004" class="node">
<title>Node4</title>
<g id="a_Node000004"><a xlink:href="classComponentArray.html#a37f484a9d2b6716e2facff9eabe1bb64" target="_top" xlink:title="Adds or updates a component for an entity.">
<polygon fill="white" stroke="#666666" points="681.5,-94 559.5,-94 559.5,-75 681.5,-75 681.5,-94"/>
<text text-anchor="middle" x="620.5" y="-82" font-family="Helvetica,sans-Serif" font-size="10.00">ComponentArray::add</text>
</a>
</g>
</g>
<!-- Node3&#45;&gt;Node4 -->
<g id="edge3_Node000003_Node000004" class="edge">
<title>Node3&#45;&gt;Node4</title>
<g id="a_edge3_Node000003_Node000004"><a xlink:title=" ">
<path fill="none" stroke="#63b8ff" d="M503.29,-84.5C517.89,-84.5 533.75,-84.5 548.92,-84.5"/>
<polygon fill="#63b8ff" stroke="#63b8ff" points="549.29,-88 559.29,-84.5 549.29,-81 549.29,-88"/>
</a>
</g>
</g>
<!-- Node5 -->
<g id="Node000005" class="node">
<title>Node5</title>
<g id="a_Node000005"><a xlink:href="classECS.html#aacd3f4c4db77a1e5ff41711297ec6602" target="_top" xlink:title="Gets the type index for a component type.">
<polygon fill="white" stroke="#666666" points="702,-38 539,-38 539,-19 702,-19 702,-38"/>
<text text-anchor="middle" x="620.5" y="-26" font-family="Helvetica,sans-Serif" font-size="10.00">ECS::getComponentTypeIndex</text>
</a>
</g>
</g>
<!-- Node3&#45;&gt;Node5 -->
<g id="edge4_Node000003_Node000005" class="edge">
<title>Node3&#45;&gt;Node5</title>
<g id="a_edge4_Node000003_Node000005"><a xlink:title=" ">
<path fill="none" stroke="#63b8ff" d="M476.49,-74.93C485.07,-72.22 494.4,-69.26 503,-66.5 528.94,-58.17 558.08,-48.67 580.72,-41.25"/>
<polygon fill="#63b8ff" stroke="#63b8ff" points="581.91,-44.54 590.32,-38.1 579.73,-37.89 581.91,-44.54"/>
</a>
</g>
</g>
<!-- Node7&#45;&gt;Node5 -->
<g id="edge7_Node000007_Node000005" class="edge">
<title>Node7&#45;&gt;Node5</title>
<g id="a_edge7_Node000007_Node000005"><a xlink:title=" ">
<path fill="none" stroke="#63b8ff" d="M328.25,-12.55C382.35,-15.51 465.37,-20.06 528.96,-23.54"/>
<polygon fill="#63b8ff" stroke="#63b8ff" points="528.81,-27.04 538.99,-24.09 529.19,-20.05 528.81,-27.04"/>
</a>
</g>
</g>
</g>
</svg>
