<?xml version="1.0" encoding="UTF-8" standalone="no"?>
<!DOCTYPE svg PUBLIC "-//W3C//DTD SVG 1.1//EN"
 "http://www.w3.org/Graphics/SVG/1.1/DTD/svg11.dtd">
<!-- Generated by graphviz version 2.43.0 (0)
 -->
<!-- Title: UDPGameServer::sendPacketTo Pages: 1 -->
<svg width="350pt" height="76pt"
 viewBox="0.00 0.00 350.00 75.50" xmlns="http://www.w3.org/2000/svg" xmlns:xlink="http://www.w3.org/1999/xlink">
<g id="graph0" class="graph" transform="scale(1 1) rotate(0) translate(4 71.5)">
<title>UDPGameServer::sendPacketTo</title>
<!-- Node1 -->
<g id="Node000001" class="node">
<title>Node1</title>
<g id="a_Node000001"><a xlink:title="Send a packet to a single endpoint.">
<polygon fill="#999999" stroke="#666666" points="170,-45.5 0,-45.5 0,-26.5 170,-26.5 170,-45.5"/>
<text text-anchor="middle" x="85" y="-33.5" font-family="Helvetica,sans-Serif" font-size="10.00">UDPGameServer::sendPacketTo</text>
</a>
</g>
</g>
<!-- Node2 -->
<g id="Node000002" class="node">
<title>Node2</title>
<g id="a_Node000002"><a xlink:href="classPacket.html#aa88c2d28796644c8a1d6137996502ca8" target="_top" xlink:title="Serialize the packet to a byte buffer ready to send.">
<polygon fill="white" stroke="#666666" points="321.5,-67.5 226.5,-67.5 226.5,-48.5 321.5,-48.5 321.5,-67.5"/>
<text text-anchor="middle" x="274" y="-55.5" font-family="Helvetica,sans-Serif" font-size="10.00">Packet::serialize</text>
</a>
</g>
</g>
<!-- Node1&#45;&gt;Node2 -->
<g id="edge1_Node000001_Node000002" class="edge">
<title>Node1&#45;&gt;Node2</title>
<g id="a_edge1_Node000001_Node000002"><a xlink:title=" ">
<path fill="none" stroke="#63b8ff" d="M166.93,-45.52C183.61,-47.48 200.84,-49.51 216.43,-51.34"/>
<polygon fill="#63b8ff" stroke="#63b8ff" points="216.08,-54.83 226.42,-52.52 216.89,-47.88 216.08,-54.83"/>
</a>
</g>
</g>
<!-- Node3 -->
<g id="Node000003" class="node">
<title>Node3</title>
<g id="a_Node000003"><a xlink:href="classNetwork_1_1TransportLayer_1_1UDPSocket.html#a887cf24e71c890759f907c074f5b3505" target="_top" xlink:title="Write bytes to the UDP socket.">
<polygon fill="white" stroke="#666666" points="342,-30 206,-30 206,0 342,0 342,-30"/>
<text text-anchor="start" x="214" y="-18" font-family="Helvetica,sans-Serif" font-size="10.00">Network::TransportLayer</text>
<text text-anchor="middle" x="274" y="-7" font-family="Helvetica,sans-Serif" font-size="10.00">::UDPSocket::writeByte</text>
</a>
</g>
</g>
<!-- Node1&#45;&gt;Node3 -->
<g id="edge2_Node000001_Node000003" class="edge">
<title>Node1&#45;&gt;Node3</title>
<g id="a_edge2_Node000001_Node000003"><a xlink:title=" ">
<path fill="none" stroke="#63b8ff" d="M170.2,-26.54C178.68,-25.59 187.26,-24.63 195.66,-23.69"/>
<polygon fill="#63b8ff" stroke="#63b8ff" points="196.25,-27.14 205.8,-22.55 195.47,-20.18 196.25,-27.14"/>
</a>
</g>
</g>
</g>
</svg>
