<?xml version="1.0" encoding="UTF-8" standalone="no"?>
<!DOCTYPE svg PUBLIC "-//W3C//DTD SVG 1.1//EN"
 "http://www.w3.org/Graphics/SVG/1.1/DTD/svg11.dtd">
<!-- Generated by graphviz version 2.43.0 (0)
 -->
<!-- Title: GraphicClient::selectLobby Pages: 1 -->
<svg width="1284pt" height="660pt"
 viewBox="0.00 0.00 1284.00 660.00" xmlns="http://www.w3.org/2000/svg" xmlns:xlink="http://www.w3.org/1999/xlink">
<g id="graph0" class="graph" transform="scale(1 1) rotate(0) translate(4 656)">
<title>GraphicClient::selectLobby</title>
<!-- Node1 -->
<g id="Node000001" class="node">
<title>Node1</title>
<g id="a_Node000001"><a xlink:title="Shows lobby selection menu.">
<polygon fill="#999999" stroke="#666666" points="147,-337 0,-337 0,-318 147,-318 147,-337"/>
<text text-anchor="middle" x="73.5" y="-325" font-family="Helvetica,sans-Serif" font-size="10.00">GraphicClient::selectLobby</text>
</a>
</g>
</g>
<!-- Node2 -->
<g id="Node000002" class="node">
<title>Node2</title>
<g id="a_Node000002"><a xlink:href="classECS.html#a4fbe0d70b0934255d301ced9df6287e7" target="_top" xlink:title="Adds a component to an entity.">
<polygon fill="white" stroke="#666666" points="330.5,-652 214.5,-652 214.5,-633 330.5,-633 330.5,-652"/>
<text text-anchor="middle" x="272.5" y="-640" font-family="Helvetica,sans-Serif" font-size="10.00">ECS::addComponent</text>
</a>
</g>
</g>
<!-- Node1&#45;&gt;Node2 -->
<g id="edge1_Node000001_Node000002" class="edge">
<title>Node1&#45;&gt;Node2</title>
<g id="a_edge1_Node000001_Node000002"><a xlink:title=" ">
<path fill="none" stroke="#63b8ff" d="M74.82,-337.05C76.75,-378.55 90.21,-544.65 183,-624.5 189.25,-629.88 196.67,-633.81 204.52,-636.66"/>
<polygon fill="#63b8ff" stroke="#63b8ff" points="203.66,-640.05 214.24,-639.62 205.7,-633.36 203.66,-640.05"/>
</a>
</g>
</g>
<!-- Node5 -->
<g id="Node000005" class="node">
<title>Node5</title>
<g id="a_Node000005"><a xlink:href="classRaylib_1_1Window.html#a0d93c896921575743b097baa6d66a6b4" target="_top" xlink:title="Begins drawing frame.">
<polygon fill="white" stroke="#666666" points="355,-578 190,-578 190,-559 355,-559 355,-578"/>
<text text-anchor="middle" x="272.5" y="-566" font-family="Helvetica,sans-Serif" font-size="10.00">Raylib::Window::beginDrawing</text>
</a>
</g>
</g>
<!-- Node1&#45;&gt;Node5 -->
<g id="edge4_Node000001_Node000005" class="edge">
<title>Node1&#45;&gt;Node5</title>
<g id="a_edge4_Node000001_Node000005"><a xlink:title=" ">
<path fill="none" stroke="#63b8ff" d="M76.15,-337.46C82.54,-372.83 109.15,-493.27 183,-550.5 184.63,-551.76 186.32,-552.94 188.07,-554.04"/>
<polygon fill="#63b8ff" stroke="#63b8ff" points="186.74,-557.3 197.21,-558.93 190.04,-551.13 186.74,-557.3"/>
</a>
</g>
</g>
<!-- Node6 -->
<g id="Node000006" class="node">
<title>Node6</title>
<g id="a_Node000006"><a xlink:href="classRaylib_1_1Window.html#ab5db70ee0a095180020beaa8f134247d" target="_top" xlink:title="Clears background with specified color.">
<polygon fill="white" stroke="#666666" points="362,-541 183,-541 183,-522 362,-522 362,-541"/>
<text text-anchor="middle" x="272.5" y="-529" font-family="Helvetica,sans-Serif" font-size="10.00">Raylib::Window::clearBackground</text>
</a>
</g>
</g>
<!-- Node1&#45;&gt;Node6 -->
<g id="edge5_Node000001_Node000006" class="edge">
<title>Node1&#45;&gt;Node6</title>
<g id="a_edge5_Node000001_Node000006"><a xlink:title=" ">
<path fill="none" stroke="#63b8ff" d="M77.05,-337.11C85.84,-368.24 117.97,-466.91 183,-513.5 184.92,-514.87 186.91,-516.15 188.97,-517.33"/>
<polygon fill="#63b8ff" stroke="#63b8ff" points="187.85,-520.67 198.37,-521.94 190.93,-514.39 187.85,-520.67"/>
</a>
</g>
</g>
<!-- Node7 -->
<g id="Node000007" class="node">
<title>Node7</title>
<g id="a_Node000007"><a xlink:href="classNetworkClient.html#ad93611688c9c99aba516b5396a543cd8" target="_top" xlink:title="Clear queued events.">
<polygon fill="white" stroke="#666666" points="347,-504 198,-504 198,-485 347,-485 347,-504"/>
<text text-anchor="middle" x="272.5" y="-492" font-family="Helvetica,sans-Serif" font-size="10.00">NetworkClient::clearEvents</text>
</a>
</g>
</g>
<!-- Node1&#45;&gt;Node7 -->
<g id="edge6_Node000001_Node000007" class="edge">
<title>Node1&#45;&gt;Node7</title>
<g id="a_edge6_Node000001_Node000007"><a xlink:title=" ">
<path fill="none" stroke="#63b8ff" d="M78.44,-337.07C90.02,-363.92 126.73,-440.35 183,-476.5 185.47,-478.09 188.06,-479.54 190.73,-480.87"/>
<polygon fill="#63b8ff" stroke="#63b8ff" points="189.51,-484.16 200.08,-484.92 192.29,-477.73 189.51,-484.16"/>
</a>
</g>
</g>
<!-- Node8 -->
<g id="Node000008" class="node">
<title>Node8</title>
<g id="a_Node000008"><a xlink:href="classECS.html#a41b876f3725cbb04aac3f2edd95522c6" target="_top" xlink:title="Creates a new entity.">
<polygon fill="white" stroke="#666666" points="323,-467 222,-467 222,-448 323,-448 323,-467"/>
<text text-anchor="middle" x="272.5" y="-455" font-family="Helvetica,sans-Serif" font-size="10.00">ECS::createEntity</text>
</a>
</g>
</g>
<!-- Node1&#45;&gt;Node8 -->
<g id="edge7_Node000001_Node000008" class="edge">
<title>Node1&#45;&gt;Node8</title>
<g id="a_edge7_Node000001_Node000008"><a xlink:title=" ">
<path fill="none" stroke="#63b8ff" d="M80.76,-337.17C95.6,-359.23 135.27,-413.37 183,-439.5 191.87,-444.36 201.89,-447.91 211.91,-450.51"/>
<polygon fill="#63b8ff" stroke="#63b8ff" points="211.37,-453.97 221.9,-452.8 212.93,-447.15 211.37,-453.97"/>
</a>
</g>
</g>
<!-- Node9 -->
<g id="Node000009" class="node">
<title>Node9</title>
<g id="a_Node000009"><a xlink:href="classRaylib_1_1Window.html#a9692f845607bfbb28fb4e889ea0d3b37" target="_top" xlink:title="Ends drawing frame and displays it.">
<polygon fill="white" stroke="#666666" points="350.5,-430 194.5,-430 194.5,-411 350.5,-411 350.5,-430"/>
<text text-anchor="middle" x="272.5" y="-418" font-family="Helvetica,sans-Serif" font-size="10.00">Raylib::Window::endDrawing</text>
</a>
</g>
</g>
<!-- Node1&#45;&gt;Node9 -->
<g id="edge8_Node000001_Node000009" class="edge">
<title>Node1&#45;&gt;Node9</title>
<g id="a_edge8_Node000001_Node000009"><a xlink:title=" ">
<path fill="none" stroke="#63b8ff" d="M85.31,-337.25C103.87,-353.43 143.6,-385.72 183,-402.5 187.96,-404.61 193.18,-406.48 198.51,-408.14"/>
<polygon fill="#63b8ff" stroke="#63b8ff" points="197.6,-411.52 208.17,-410.89 199.51,-404.78 197.6,-411.52"/>
</a>
</g>
</g>
<!-- Node10 -->
<g id="Node000010" class="node">
<title>Node10</title>
<g id="a_Node000010"><a xlink:href="classECS.html#ab25123ea5b19ee74c4e120eb6d808a48" target="_top" xlink:title="Retrieves a component from an entity.">
<polygon fill="white" stroke="#666666" points="329,-615 216,-615 216,-596 329,-596 329,-615"/>
<text text-anchor="middle" x="272.5" y="-603" font-family="Helvetica,sans-Serif" font-size="10.00">ECS::getComponent</text>
</a>
</g>
</g>
<!-- Node1&#45;&gt;Node10 -->
<g id="edge9_Node000001_Node000010" class="edge">
<title>Node1&#45;&gt;Node10</title>
<g id="a_edge9_Node000001_Node000010"><a xlink:title=" ">
<path fill="none" stroke="#63b8ff" d="M75.37,-337.16C79.4,-375.61 99.69,-519.01 183,-587.5 189.78,-593.07 197.82,-597.07 206.25,-599.91"/>
<polygon fill="#63b8ff" stroke="#63b8ff" points="205.31,-603.28 215.88,-602.65 207.22,-596.55 205.31,-603.28"/>
</a>
</g>
</g>
<!-- Node11 -->
<g id="Node000011" class="node">
<title>Node11</title>
<g id="a_Node000011"><a xlink:href="classNetworkClient.html#aa443eee7ab598870a1028935b1b8c174" target="_top" xlink:title="Get pending network events.">
<polygon fill="white" stroke="#666666" points="343,-393 202,-393 202,-374 343,-374 343,-393"/>
<text text-anchor="middle" x="272.5" y="-381" font-family="Helvetica,sans-Serif" font-size="10.00">NetworkClient::getEvents</text>
</a>
</g>
</g>
<!-- Node1&#45;&gt;Node11 -->
<g id="edge11_Node000001_Node000011" class="edge">
<title>Node1&#45;&gt;Node11</title>
<g id="a_edge11_Node000001_Node000011"><a xlink:title=" ">
<path fill="none" stroke="#63b8ff" d="M98.76,-337.07C120.55,-345.4 153.56,-357.39 183,-365.5 191.15,-367.74 199.79,-369.84 208.35,-371.75"/>
<polygon fill="#63b8ff" stroke="#63b8ff" points="207.83,-375.22 218.34,-373.91 209.3,-368.38 207.83,-375.22"/>
</a>
</g>
</g>
<!-- Node12 -->
<g id="Node000012" class="node">
<title>Node12</title>
<g id="a_Node000012"><a xlink:href="classRaylib_1_1Window.html#a8a6eedeecb648b4c1527681a42727e15" target="_top" xlink:title="Gets time delta since last frame.">
<polygon fill="white" stroke="#666666" points="357,-356 188,-356 188,-337 357,-337 357,-356"/>
<text text-anchor="middle" x="272.5" y="-344" font-family="Helvetica,sans-Serif" font-size="10.00">Raylib::Window::getFrameTime</text>
</a>
</g>
</g>
<!-- Node1&#45;&gt;Node12 -->
<g id="edge12_Node000001_Node000012" class="edge">
<title>Node1&#45;&gt;Node12</title>
<g id="a_edge12_Node000001_Node000012"><a xlink:title=" ">
<path fill="none" stroke="#63b8ff" d="M147.02,-334.49C156.97,-335.45 167.31,-336.45 177.58,-337.44"/>
<polygon fill="#63b8ff" stroke="#63b8ff" points="177.52,-340.95 187.81,-338.43 178.2,-333.98 177.52,-340.95"/>
</a>
</g>
</g>
<!-- Node13 -->
<g id="Node000013" class="node">
<title>Node13</title>
<g id="a_Node000013"><a xlink:href="classNetworkClient.html#a9f92ea1a77f00b2867ebc37b6581d507" target="_top" xlink:title="Get current lobby code.">
<polygon fill="white" stroke="#666666" points="353.5,-319 191.5,-319 191.5,-300 353.5,-300 353.5,-319"/>
<text text-anchor="middle" x="272.5" y="-307" font-family="Helvetica,sans-Serif" font-size="10.00">NetworkClient::getLobbyCode</text>
</a>
</g>
</g>
<!-- Node1&#45;&gt;Node13 -->
<g id="edge13_Node000001_Node000013" class="edge">
<title>Node1&#45;&gt;Node13</title>
<g id="a_edge13_Node000001_Node000013"><a xlink:title=" ">
<path fill="none" stroke="#63b8ff" d="M147.02,-320.87C158.13,-319.86 169.72,-318.8 181.17,-317.75"/>
<polygon fill="#63b8ff" stroke="#63b8ff" points="181.53,-321.24 191.17,-316.84 180.89,-314.26 181.53,-321.24"/>
</a>
</g>
</g>
<!-- Node14 -->
<g id="Node000014" class="node">
<title>Node14</title>
<g id="a_Node000014"><a xlink:href="classRaylib_1_1Input.html#a77b20ab7de1540d7cc5c18f71b137a12" target="_top" xlink:title="Checks if a key was just pressed this frame.">
<polygon fill="white" stroke="#666666" points="347,-282 198,-282 198,-263 347,-263 347,-282"/>
<text text-anchor="middle" x="272.5" y="-270" font-family="Helvetica,sans-Serif" font-size="10.00">Raylib::Input::isKeyPressed</text>
</a>
</g>
</g>
<!-- Node1&#45;&gt;Node14 -->
<g id="edge14_Node000001_Node000014" class="edge">
<title>Node1&#45;&gt;Node14</title>
<g id="a_edge14_Node000001_Node000014"><a xlink:title=" ">
<path fill="none" stroke="#63b8ff" d="M100.57,-317.96C122.39,-310.19 154.47,-299.27 183,-291.5 192.55,-288.9 202.76,-286.43 212.73,-284.18"/>
<polygon fill="#63b8ff" stroke="#63b8ff" points="213.57,-287.58 222.58,-282.01 212.06,-280.74 213.57,-287.58"/>
</a>
</g>
</g>
<!-- Node15 -->
<g id="Node000015" class="node">
<title>Node15</title>
<g id="a_Node000015"><a xlink:href="classNetworkClient.html#a1f77ff0729755d9782b4542582cfe214" target="_top" xlink:title="Poll TCP/UDP sockets and handle any received packets.">
<polygon fill="white" stroke="#666666" points="346,-245 199,-245 199,-226 346,-226 346,-245"/>
<text text-anchor="middle" x="272.5" y="-233" font-family="Helvetica,sans-Serif" font-size="10.00">NetworkClient::pollPackets</text>
</a>
</g>
</g>
<!-- Node1&#45;&gt;Node15 -->
<g id="edge15_Node000001_Node000015" class="edge">
<title>Node1&#45;&gt;Node15</title>
<g id="a_edge15_Node000001_Node000015"><a xlink:title=" ">
<path fill="none" stroke="#63b8ff" d="M85.68,-317.82C104.47,-302.07 144.14,-271.02 183,-254.5 189.12,-251.9 195.64,-249.64 202.25,-247.68"/>
<polygon fill="#63b8ff" stroke="#63b8ff" points="203.26,-251.03 211.98,-245.01 201.41,-244.28 203.26,-251.03"/>
</a>
</g>
</g>
<!-- Node20 -->
<g id="Node000020" class="node">
<title>Node20</title>
<g id="a_Node000020"><a xlink:href="classNetworkClient.html#a28a515bbb5f6f75d6603a5332c217f93" target="_top" xlink:title="Send TCP PONG in response to server PING.">
<polygon fill="white" stroke="#666666" points="743,-214 603,-214 603,-195 743,-195 743,-214"/>
<text text-anchor="middle" x="673" y="-202" font-family="Helvetica,sans-Serif" font-size="10.00">NetworkClient::sendPong</text>
</a>
</g>
</g>
<!-- Node1&#45;&gt;Node20 -->
<g id="edge42_Node000001_Node000020" class="edge">
<title>Node1&#45;&gt;Node20</title>
<g id="a_edge42_Node000001_Node000020"><a xlink:title=" ">
<path fill="none" stroke="#63b8ff" d="M80.31,-317.76C94.48,-295.09 133.29,-239.07 183,-217.5 328.87,-154.2 522.94,-176.54 616.68,-193.11"/>
<polygon fill="#63b8ff" stroke="#63b8ff" points="616.32,-196.6 626.79,-194.94 617.57,-189.71 616.32,-196.6"/>
</a>
</g>
</g>
<!-- Node32 -->
<g id="Node000032" class="node">
<title>Node32</title>
<g id="a_Node000032"><a xlink:href="classRaylib_1_1Draw.html#ac711ababd202454476d1127d61f8a837" target="_top" xlink:title="Draws a filled rectangle.">
<polygon fill="white" stroke="#666666" points="337.5,-93 207.5,-93 207.5,-74 337.5,-74 337.5,-93"/>
<text text-anchor="middle" x="272.5" y="-81" font-family="Helvetica,sans-Serif" font-size="10.00">Raylib::Draw::rectangle</text>
</a>
</g>
</g>
<!-- Node1&#45;&gt;Node32 -->
<g id="edge36_Node000001_Node000032" class="edge">
<title>Node1&#45;&gt;Node32</title>
<g id="a_edge36_Node000001_Node000032"><a xlink:title=" ">
<path fill="none" stroke="#63b8ff" d="M76.32,-317.83C83.3,-283.47 111.65,-166.23 183,-107.5 188,-103.38 193.65,-99.97 199.61,-97.14"/>
<polygon fill="#63b8ff" stroke="#63b8ff" points="201.3,-100.23 209.19,-93.15 198.61,-93.76 201.3,-100.23"/>
</a>
</g>
</g>
<!-- Node33 -->
<g id="Node000033" class="node">
<title>Node33</title>
<g id="a_Node000033"><a xlink:href="classRaylib_1_1Draw.html#a1a91623bcea0592d00ae0264d81acd52" target="_top" xlink:title="Draws a rectangle outline.">
<polygon fill="white" stroke="#666666" points="350,-56 195,-56 195,-37 350,-37 350,-56"/>
<text text-anchor="middle" x="272.5" y="-44" font-family="Helvetica,sans-Serif" font-size="10.00">Raylib::Draw::rectangleLines</text>
</a>
</g>
</g>
<!-- Node1&#45;&gt;Node33 -->
<g id="edge37_Node000001_Node000033" class="edge">
<title>Node1&#45;&gt;Node33</title>
<g id="a_edge37_Node000001_Node000033"><a xlink:title=" ">
<path fill="none" stroke="#63b8ff" d="M75.31,-317.99C79.12,-279.5 98.82,-133.99 183,-64.5 184.37,-63.37 185.8,-62.3 187.26,-61.29"/>
<polygon fill="#63b8ff" stroke="#63b8ff" points="189.21,-64.21 196.12,-56.18 185.71,-58.15 189.21,-64.21"/>
</a>
</g>
</g>
<!-- Node34 -->
<g id="Node000034" class="node">
<title>Node34</title>
<g id="a_Node000034"><a xlink:href="classNetworkClient.html#a69d86a3b406a767d3feb704be440343a" target="_top" xlink:title="Ask the server to create a private lobby.">
<polygon fill="white" stroke="#666666" points="747,-176.5 599,-176.5 599,-146.5 747,-146.5 747,-176.5"/>
<text text-anchor="start" x="607" y="-164.5" font-family="Helvetica,sans-Serif" font-size="10.00">NetworkClient::sendCreate</text>
<text text-anchor="middle" x="673" y="-153.5" font-family="Helvetica,sans-Serif" font-size="10.00">Lobby</text>
</a>
</g>
</g>
<!-- Node1&#45;&gt;Node34 -->
<g id="edge38_Node000001_Node000034" class="edge">
<title>Node1&#45;&gt;Node34</title>
<g id="a_edge38_Node000001_Node000034"><a xlink:title=" ">
<path fill="none" stroke="#63b8ff" d="M77.76,-317.98C87.98,-289.81 122.38,-206.85 183,-174.5 250.89,-138.27 467.7,-146.82 588.58,-154.9"/>
<polygon fill="#63b8ff" stroke="#63b8ff" points="588.68,-158.42 598.89,-155.61 589.16,-151.44 588.68,-158.42"/>
</a>
</g>
</g>
<!-- Node35 -->
<g id="Node000035" class="node">
<title>Node35</title>
<g id="a_Node000035"><a xlink:href="classNetworkClient.html#ab66ff3a3c9bb96ad56e141d3713914bd" target="_top" xlink:title="Ask the server to join an existing lobby.">
<polygon fill="white" stroke="#666666" points="562,-130 399,-130 399,-111 562,-111 562,-130"/>
<text text-anchor="middle" x="480.5" y="-118" font-family="Helvetica,sans-Serif" font-size="10.00">NetworkClient::sendJoinLobby</text>
</a>
</g>
</g>
<!-- Node1&#45;&gt;Node35 -->
<g id="edge40_Node000001_Node000035" class="edge">
<title>Node1&#45;&gt;Node35</title>
<g id="a_edge40_Node000001_Node000035"><a xlink:title=" ">
<path fill="none" stroke="#63b8ff" d="M76.91,-317.78C85.28,-286.37 116.25,-187.23 183,-145.5 252.75,-101.9 350.44,-102.87 414.33,-109.83"/>
<polygon fill="#63b8ff" stroke="#63b8ff" points="413.95,-113.31 424.28,-110.99 414.76,-106.35 413.95,-113.31"/>
</a>
</g>
</g>
<!-- Node36 -->
<g id="Node000036" class="node">
<title>Node36</title>
<g id="a_Node000036"><a xlink:href="classRaylib_1_1Draw.html#adf84c6a40cd571fbbdeacf2868ab192e" target="_top" xlink:title="Draws text on screen.">
<polygon fill="white" stroke="#666666" points="324.5,-19 220.5,-19 220.5,0 324.5,0 324.5,-19"/>
<text text-anchor="middle" x="272.5" y="-7" font-family="Helvetica,sans-Serif" font-size="10.00">Raylib::Draw::text</text>
</a>
</g>
</g>
<!-- Node1&#45;&gt;Node36 -->
<g id="edge43_Node000001_Node000036" class="edge">
<title>Node1&#45;&gt;Node36</title>
<g id="a_edge43_Node000001_Node000036"><a xlink:title=" ">
<path fill="none" stroke="#63b8ff" d="M74.78,-317.85C76.57,-275.95 89.51,-108.21 183,-27.5 190.74,-20.81 200.29,-16.37 210.22,-13.45"/>
<polygon fill="#63b8ff" stroke="#63b8ff" points="211.33,-16.78 220.22,-11.02 209.67,-9.98 211.33,-16.78"/>
</a>
</g>
</g>
<!-- Node3 -->
<g id="Node000003" class="node">
<title>Node3</title>
<g id="a_Node000003"><a xlink:href="classComponentArray.html#a37f484a9d2b6716e2facff9eabe1bb64" target="_top" xlink:title="Adds or updates a component for an entity.">
<polygon fill="white" stroke="#666666" points="541.5,-652 419.5,-652 419.5,-633 541.5,-633 541.5,-652"/>
<text text-anchor="middle" x="480.5" y="-640" font-family="Helvetica,sans-Serif" font-size="10.00">ComponentArray::add</text>
</a>
</g>
</g>
<!-- Node2&#45;&gt;Node3 -->
<g id="edge2_Node000002_Node000003" class="edge">
<title>Node2&#45;&gt;Node3</title>
<g id="a_edge2_Node000002_Node000003"><a xlink:title=" ">
<path fill="none" stroke="#63b8ff" d="M330.61,-642.5C355,-642.5 383.7,-642.5 409.36,-642.5"/>
<polygon fill="#63b8ff" stroke="#63b8ff" points="409.4,-646 419.4,-642.5 409.4,-639 409.4,-646"/>
</a>
</g>
</g>
<!-- Node4 -->
<g id="Node000004" class="node">
<title>Node4</title>
<g id="a_Node000004"><a xlink:href="classECS.html#aacd3f4c4db77a1e5ff41711297ec6602" target="_top" xlink:title="Gets the type index for a component type.">
<polygon fill="white" stroke="#666666" points="562,-615 399,-615 399,-596 562,-596 562,-615"/>
<text text-anchor="middle" x="480.5" y="-603" font-family="Helvetica,sans-Serif" font-size="10.00">ECS::getComponentTypeIndex</text>
</a>
</g>
</g>
<!-- Node2&#45;&gt;Node4 -->
<g id="edge3_Node000002_Node000004" class="edge">
<title>Node2&#45;&gt;Node4</title>
<g id="a_edge3_Node000002_Node000004"><a xlink:title=" ">
<path fill="none" stroke="#63b8ff" d="M326.55,-632.97C353.96,-628.05 387.59,-622.01 416.33,-616.85"/>
<polygon fill="#63b8ff" stroke="#63b8ff" points="417.05,-620.27 426.27,-615.06 415.81,-613.38 417.05,-620.27"/>
</a>
</g>
</g>
<!-- Node10&#45;&gt;Node4 -->
<g id="edge10_Node000010_Node000004" class="edge">
<title>Node10&#45;&gt;Node4</title>
<g id="a_edge10_Node000010_Node000004"><a xlink:title=" ">
<path fill="none" stroke="#63b8ff" d="M329.25,-605.5C347.59,-605.5 368.5,-605.5 388.76,-605.5"/>
<polygon fill="#63b8ff" stroke="#63b8ff" points="388.96,-609 398.96,-605.5 388.96,-602 388.96,-609"/>
</a>
</g>
</g>
<!-- Node16 -->
<g id="Node000016" class="node">
<title>Node16</title>
<g id="a_Node000016"><a xlink:href="namespaceProtocol.html#a10005c44787f8de2a0e42d395aff8baa" target="_top" xlink:title="Try to extract a complete packet from an accumulated stream buffer.">
<polygon fill="white" stroke="#666666" points="1133,-441 982,-441 982,-422 1133,-422 1133,-441"/>
<text text-anchor="middle" x="1057.5" y="-429" font-family="Helvetica,sans-Serif" font-size="10.00">Protocol::extractFromBuffer</text>
</a>
</g>
</g>
<!-- Node15&#45;&gt;Node16 -->
<g id="edge16_Node000015_Node000016" class="edge">
<title>Node15&#45;&gt;Node16</title>
<g id="a_edge16_Node000015_Node000016"><a xlink:title=" ">
<path fill="none" stroke="#63b8ff" d="M346.03,-243.81C351.88,-246.57 357.33,-250.07 362,-254.5 406.43,-296.64 356.06,-342.88 398,-387.5 462.59,-456.22 505.94,-440.19 599,-455.5 740.17,-478.73 908.83,-457.47 996.65,-442.77"/>
<polygon fill="#63b8ff" stroke="#63b8ff" points="997.42,-446.19 1006.69,-441.05 996.25,-439.28 997.42,-446.19"/>
</a>
</g>
</g>
<!-- Node18 -->
<g id="Node000018" class="node">
<title>Node18</title>
<g id="a_Node000018"><a xlink:href="classNetworkClient.html#a5bc6fcb253ac9f9d74c649cb4b30d546" target="_top" xlink:title=" ">
<polygon fill="white" stroke="#666666" points="551,-255.5 410,-255.5 410,-225.5 551,-225.5 551,-255.5"/>
<text text-anchor="start" x="418" y="-243.5" font-family="Helvetica,sans-Serif" font-size="10.00">NetworkClient::handleTcp</text>
<text text-anchor="middle" x="480.5" y="-232.5" font-family="Helvetica,sans-Serif" font-size="10.00">Packet</text>
</a>
</g>
</g>
<!-- Node15&#45;&gt;Node18 -->
<g id="edge18_Node000015_Node000018" class="edge">
<title>Node15&#45;&gt;Node18</title>
<g id="a_edge18_Node000015_Node000018"><a xlink:title=" ">
<path fill="none" stroke="#63b8ff" d="M346.13,-237.26C363.46,-237.68 382.05,-238.13 399.69,-238.56"/>
<polygon fill="#63b8ff" stroke="#63b8ff" points="399.87,-242.07 409.95,-238.81 400.04,-235.07 399.87,-242.07"/>
</a>
</g>
</g>
<!-- Node25 -->
<g id="Node000025" class="node">
<title>Node25</title>
<g id="a_Node000025"><a xlink:href="classNetworkClient.html#acfb90d5461a5eb3826a710d6394faba0" target="_top" xlink:title=" ">
<polygon fill="white" stroke="#666666" points="553,-303.5 408,-303.5 408,-273.5 553,-273.5 553,-303.5"/>
<text text-anchor="start" x="416" y="-291.5" font-family="Helvetica,sans-Serif" font-size="10.00">NetworkClient::handleUdp</text>
<text text-anchor="middle" x="480.5" y="-280.5" font-family="Helvetica,sans-Serif" font-size="10.00">Packet</text>
</a>
</g>
</g>
<!-- Node15&#45;&gt;Node25 -->
<g id="edge25_Node000015_Node000025" class="edge">
<title>Node15&#45;&gt;Node25</title>
<g id="a_edge25_Node000015_Node000025"><a xlink:title=" ">
<path fill="none" stroke="#63b8ff" d="M320.95,-245.05C334.27,-247.9 348.74,-251.16 362,-254.5 368,-256.01 392.91,-263.2 418.26,-270.58"/>
<polygon fill="#63b8ff" stroke="#63b8ff" points="417.38,-273.97 427.96,-273.41 419.34,-267.25 417.38,-273.97"/>
</a>
</g>
</g>
<!-- Node27 -->
<g id="Node000027" class="node">
<title>Node27</title>
<g id="a_Node000027"><a xlink:href="classNetworkClient.html#ac0dca5641be17084ead40825063b944e" target="_top" xlink:title=" ">
<polygon fill="white" stroke="#666666" points="561,-378 400,-378 400,-359 561,-359 561,-378"/>
<text text-anchor="middle" x="480.5" y="-366" font-family="Helvetica,sans-Serif" font-size="10.00">NetworkClient::readTcpPacket</text>
</a>
</g>
</g>
<!-- Node15&#45;&gt;Node27 -->
<g id="edge27_Node000015_Node000027" class="edge">
<title>Node15&#45;&gt;Node27</title>
<g id="a_edge27_Node000015_Node000027"><a xlink:title=" ">
<path fill="none" stroke="#63b8ff" d="M346.03,-244.48C351.81,-247.11 357.24,-250.39 362,-254.5 396.5,-284.26 363.58,-320.64 398,-350.5 399.32,-351.64 400.69,-352.72 402.11,-353.73"/>
<polygon fill="#63b8ff" stroke="#63b8ff" points="400.33,-356.74 410.72,-358.85 403.91,-350.73 400.33,-356.74"/>
</a>
</g>
</g>
<!-- Node30 -->
<g id="Node000030" class="node">
<title>Node30</title>
<g id="a_Node000030"><a xlink:href="classNetworkClient.html#a101f6ab85ee02ddb9d45a40dad603e29" target="_top" xlink:title=" ">
<polygon fill="white" stroke="#666666" points="563,-341 398,-341 398,-322 563,-322 563,-341"/>
<text text-anchor="middle" x="480.5" y="-329" font-family="Helvetica,sans-Serif" font-size="10.00">NetworkClient::readUdpPacket</text>
</a>
</g>
</g>
<!-- Node15&#45;&gt;Node30 -->
<g id="edge32_Node000015_Node000030" class="edge">
<title>Node15&#45;&gt;Node30</title>
<g id="a_edge32_Node000015_Node000030"><a xlink:title=" ">
<path fill="none" stroke="#63b8ff" d="M344.32,-245.17C350.59,-247.64 356.6,-250.7 362,-254.5 386.81,-271.96 373.35,-294.82 398,-312.5 400.72,-314.45 403.6,-316.2 406.6,-317.77"/>
<polygon fill="#63b8ff" stroke="#63b8ff" points="405.36,-321.05 415.91,-321.98 408.24,-314.67 405.36,-321.05"/>
</a>
</g>
</g>
<!-- Node17 -->
<g id="Node000017" class="node">
<title>Node17</title>
<g id="a_Node000017"><a xlink:href="classPacket.html#abfcd427a2ca434ac71592334517638fb" target="_top" xlink:title="Deserialize a packet from a raw byte buffer.">
<polygon fill="white" stroke="#666666" points="1276,-376 1169,-376 1169,-357 1276,-357 1276,-376"/>
<text text-anchor="middle" x="1222.5" y="-364" font-family="Helvetica,sans-Serif" font-size="10.00">Packet::deserialize</text>
</a>
</g>
</g>
<!-- Node16&#45;&gt;Node17 -->
<g id="edge17_Node000016_Node000017" class="edge">
<title>Node16&#45;&gt;Node17</title>
<g id="a_edge17_Node000016_Node000017"><a xlink:title=" ">
<path fill="none" stroke="#63b8ff" d="M1082.55,-421.91C1110.44,-410.79 1156.59,-392.39 1187.98,-379.87"/>
<polygon fill="#63b8ff" stroke="#63b8ff" points="1189.62,-382.98 1197.62,-376.02 1187.03,-376.48 1189.62,-382.98"/>
</a>
</g>
</g>
<!-- Node19 -->
<g id="Node000019" class="node">
<title>Node19</title>
<g id="a_Node000019"><a xlink:href="classNetworkClient.html#a7f69f5c30fd349d670fae18598737b86" target="_top" xlink:title="Close TCP and UDP sockets and reset state.">
<polygon fill="white" stroke="#666666" points="745.5,-350 600.5,-350 600.5,-331 745.5,-331 745.5,-350"/>
<text text-anchor="middle" x="673" y="-338" font-family="Helvetica,sans-Serif" font-size="10.00">NetworkClient::disconnect</text>
</a>
</g>
</g>
<!-- Node18&#45;&gt;Node19 -->
<g id="edge19_Node000018_Node000019" class="edge">
<title>Node18&#45;&gt;Node19</title>
<g id="a_edge19_Node000018_Node000019"><a xlink:title=" ">
<path fill="none" stroke="#63b8ff" d="M541.11,-255.61C548.62,-258.22 556.09,-261.18 563,-264.5 597.18,-280.91 632.4,-307.58 653.24,-324.56"/>
<polygon fill="#63b8ff" stroke="#63b8ff" points="651.05,-327.3 660.99,-330.98 655.52,-321.91 651.05,-327.3"/>
</a>
</g>
</g>
<!-- Node18&#45;&gt;Node20 -->
<g id="edge20_Node000018_Node000020" class="edge">
<title>Node18&#45;&gt;Node20</title>
<g id="a_edge20_Node000018_Node000020"><a xlink:title=" ">
<path fill="none" stroke="#63b8ff" d="M551.08,-227.35C571,-223.59 592.53,-219.52 611.82,-215.87"/>
<polygon fill="#63b8ff" stroke="#63b8ff" points="612.51,-219.3 621.69,-214.01 611.21,-212.43 612.51,-219.3"/>
</a>
</g>
</g>
<!-- Node21 -->
<g id="Node000021" class="node">
<title>Node21</title>
<g id="a_Node000021"><a xlink:href="classNetworkClient.html#af150c1b7e0aa8c19cb337fb838479324" target="_top" xlink:title=" ">
<polygon fill="white" stroke="#666666" points="946,-171 783,-171 783,-152 946,-152 946,-171"/>
<text text-anchor="middle" x="864.5" y="-159" font-family="Helvetica,sans-Serif" font-size="10.00">NetworkClient::sendPacketTcp</text>
</a>
</g>
</g>
<!-- Node20&#45;&gt;Node21 -->
<g id="edge21_Node000020_Node000021" class="edge">
<title>Node20&#45;&gt;Node21</title>
<g id="a_edge21_Node000020_Node000021"><a xlink:title=" ">
<path fill="none" stroke="#63b8ff" d="M716.06,-194.96C744.27,-188.55 781.62,-180.08 811.67,-173.26"/>
<polygon fill="#63b8ff" stroke="#63b8ff" points="812.58,-176.64 821.56,-171.02 811.03,-169.82 812.58,-176.64"/>
</a>
</g>
</g>
<!-- Node22 -->
<g id="Node000022" class="node">
<title>Node22</title>
<g id="a_Node000022"><a xlink:href="namespaceProtocol.html#a668bdeed219432868fca095e1b2f2667" target="_top" xlink:title="Build a TCP framed buffer (2 bytes length + serialized packet).">
<polygon fill="white" stroke="#666666" points="1111,-190 1004,-190 1004,-171 1111,-171 1111,-190"/>
<text text-anchor="middle" x="1057.5" y="-178" font-family="Helvetica,sans-Serif" font-size="10.00">Protocol::frameTcp</text>
</a>
</g>
</g>
<!-- Node21&#45;&gt;Node22 -->
<g id="edge22_Node000021_Node000022" class="edge">
<title>Node21&#45;&gt;Node22</title>
<g id="a_edge22_Node000021_Node000022"><a xlink:title=" ">
<path fill="none" stroke="#63b8ff" d="M946.22,-169.53C962.02,-171.1 978.38,-172.73 993.5,-174.23"/>
<polygon fill="#63b8ff" stroke="#63b8ff" points="993.45,-177.74 1003.74,-175.25 994.14,-170.78 993.45,-177.74"/>
</a>
</g>
</g>
<!-- Node24 -->
<g id="Node000024" class="node">
<title>Node24</title>
<g id="a_Node000024"><a xlink:href="classNetworkClient.html#a844f1f20acd0958f264c7bb67e18d111" target="_top" xlink:title=" ">
<polygon fill="white" stroke="#666666" points="1122.5,-153 992.5,-153 992.5,-134 1122.5,-134 1122.5,-153"/>
<text text-anchor="middle" x="1057.5" y="-141" font-family="Helvetica,sans-Serif" font-size="10.00">NetworkClient::writeAll</text>
</a>
</g>
</g>
<!-- Node21&#45;&gt;Node24 -->
<g id="edge24_Node000021_Node000024" class="edge">
<title>Node21&#45;&gt;Node24</title>
<g id="a_edge24_Node000021_Node000024"><a xlink:title=" ">
<path fill="none" stroke="#63b8ff" d="M946.22,-153.89C958.11,-152.77 970.32,-151.62 982.07,-150.51"/>
<polygon fill="#63b8ff" stroke="#63b8ff" points="982.64,-153.98 992.27,-149.55 981.99,-147.01 982.64,-153.98"/>
</a>
</g>
</g>
<!-- Node23 -->
<g id="Node000023" class="node">
<title>Node23</title>
<g id="a_Node000023"><a xlink:href="classPacket.html#aa88c2d28796644c8a1d6137996502ca8" target="_top" xlink:title="Serialize the packet to a byte buffer ready to send.">
<polygon fill="white" stroke="#666666" points="1270,-190 1175,-190 1175,-171 1270,-171 1270,-190"/>
<text text-anchor="middle" x="1222.5" y="-178" font-family="Helvetica,sans-Serif" font-size="10.00">Packet::serialize</text>
</a>
</g>
</g>
<!-- Node22&#45;&gt;Node23 -->
<g id="edge23_Node000022_Node000023" class="edge">
<title>Node22&#45;&gt;Node23</title>
<g id="a_edge23_Node000022_Node000023"><a xlink:title=" ">
<path fill="none" stroke="#63b8ff" d="M1111.42,-180.5C1128.36,-180.5 1147.18,-180.5 1164.4,-180.5"/>
<polygon fill="#63b8ff" stroke="#63b8ff" points="1164.88,-184 1174.88,-180.5 1164.88,-177 1164.88,-184"/>
</a>
</g>
</g>
<!-- Node26 -->
<g id="Node000026" class="node">
<title>Node26</title>
<g id="a_Node000026"><a xlink:href="classNetworkClient.html#aaf60f1216a17b46ad12539625a1022c2" target="_top" xlink:title=" ">
<polygon fill="white" stroke="#666666" points="736.5,-274 609.5,-274 609.5,-255 736.5,-255 736.5,-274"/>
<text text-anchor="middle" x="673" y="-262" font-family="Helvetica,sans-Serif" font-size="10.00">NetworkClient::nowMs</text>
</a>
</g>
</g>
<!-- Node25&#45;&gt;Node26 -->
<g id="edge26_Node000025_Node000026" class="edge">
<title>Node25&#45;&gt;Node26</title>
<g id="a_edge26_Node000025_Node000026"><a xlink:title=" ">
<path fill="none" stroke="#63b8ff" d="M553.25,-279.46C568.25,-277.57 584.07,-275.58 599.11,-273.68"/>
<polygon fill="#63b8ff" stroke="#63b8ff" points="599.89,-277.11 609.37,-272.39 599.01,-270.17 599.89,-277.11"/>
</a>
</g>
</g>
<!-- Node27&#45;&gt;Node19 -->
<g id="edge28_Node000027_Node000019" class="edge">
<title>Node27&#45;&gt;Node19</title>
<g id="a_edge28_Node000027_Node000019"><a xlink:title=" ">
<path fill="none" stroke="#63b8ff" d="M546.26,-358.98C562.52,-356.59 580.1,-354.01 596.82,-351.55"/>
<polygon fill="#63b8ff" stroke="#63b8ff" points="597.71,-354.96 607.1,-350.04 596.69,-348.03 597.71,-354.96"/>
</a>
</g>
</g>
<!-- Node28 -->
<g id="Node000028" class="node">
<title>Node28</title>
<g id="a_Node000028"><a xlink:href="classNetworkClient.html#ab8fe1bfbcfc0f363bce00cb1dc2a2f88" target="_top" xlink:title=" ">
<polygon fill="white" stroke="#666666" points="745,-446.5 601,-446.5 601,-416.5 745,-416.5 745,-446.5"/>
<text text-anchor="start" x="609" y="-434.5" font-family="Helvetica,sans-Serif" font-size="10.00">NetworkClient::receiveTcp</text>
<text text-anchor="middle" x="673" y="-423.5" font-family="Helvetica,sans-Serif" font-size="10.00">Framed</text>
</a>
</g>
</g>
<!-- Node27&#45;&gt;Node28 -->
<g id="edge29_Node000027_Node000028" class="edge">
<title>Node27&#45;&gt;Node28</title>
<g id="a_edge29_Node000027_Node000028"><a xlink:title=" ">
<path fill="none" stroke="#63b8ff" d="M510.46,-378.14C534.24,-386.05 568.79,-397.52 599,-407.5 604.6,-409.35 610.44,-411.28 616.28,-413.2"/>
<polygon fill="#63b8ff" stroke="#63b8ff" points="615.45,-416.61 626.04,-416.41 617.64,-409.96 615.45,-416.61"/>
</a>
</g>
</g>
<!-- Node29 -->
<g id="Node000029" class="node">
<title>Node29</title>
<g id="a_Node000029"><a xlink:href="namespaceProtocol.html#ad768525ca5f0324a5f414440e67679b6" target="_top" xlink:title="Append newly read bytes then attempt extraction.">
<polygon fill="white" stroke="#666666" points="933,-441 796,-441 796,-422 933,-422 933,-441"/>
<text text-anchor="middle" x="864.5" y="-429" font-family="Helvetica,sans-Serif" font-size="10.00">Protocol::consumeChunk</text>
</a>
</g>
</g>
<!-- Node28&#45;&gt;Node29 -->
<g id="edge30_Node000028_Node000029" class="edge">
<title>Node28&#45;&gt;Node29</title>
<g id="a_edge30_Node000028_Node000029"><a xlink:title=" ">
<path fill="none" stroke="#63b8ff" d="M745.1,-431.5C758.32,-431.5 772.2,-431.5 785.62,-431.5"/>
<polygon fill="#63b8ff" stroke="#63b8ff" points="785.77,-435 795.77,-431.5 785.77,-428 785.77,-435"/>
</a>
</g>
</g>
<!-- Node29&#45;&gt;Node16 -->
<g id="edge31_Node000029_Node000016" class="edge">
<title>Node29&#45;&gt;Node16</title>
<g id="a_edge31_Node000029_Node000016"><a xlink:title=" ">
<path fill="none" stroke="#63b8ff" d="M933.11,-431.5C945.56,-431.5 958.7,-431.5 971.58,-431.5"/>
<polygon fill="#63b8ff" stroke="#63b8ff" points="971.83,-435 981.83,-431.5 971.83,-428 971.83,-435"/>
</a>
</g>
</g>
<!-- Node30&#45;&gt;Node17 -->
<g id="edge33_Node000030_Node000017" class="edge">
<title>Node30&#45;&gt;Node17</title>
<g id="a_edge33_Node000030_Node000017"><a xlink:title=" ">
<path fill="none" stroke="#63b8ff" d="M563.31,-324.43C575.27,-323.63 587.45,-322.94 599,-322.5 803.98,-314.66 1046.27,-342.49 1158.55,-357.51"/>
<polygon fill="#63b8ff" stroke="#63b8ff" points="1158.3,-361.01 1168.68,-358.88 1159.24,-354.07 1158.3,-361.01"/>
</a>
</g>
</g>
<!-- Node30&#45;&gt;Node26 -->
<g id="edge34_Node000030_Node000026" class="edge">
<title>Node30&#45;&gt;Node26</title>
<g id="a_edge34_Node000030_Node000026"><a xlink:title=" ">
<path fill="none" stroke="#63b8ff" d="M535,-321.93C544.52,-319.42 554.2,-316.31 563,-312.5 580.65,-304.86 581.71,-296.91 599,-288.5 607.73,-284.25 617.39,-280.48 626.75,-277.26"/>
<polygon fill="#63b8ff" stroke="#63b8ff" points="627.93,-280.56 636.34,-274.1 625.74,-273.91 627.93,-280.56"/>
</a>
</g>
</g>
<!-- Node31 -->
<g id="Node000031" class="node">
<title>Node31</title>
<g id="a_Node000031"><a xlink:href="classNetworkClient.html#a36892dcdc8c2523b27947a347ea16022" target="_top" xlink:title=" ">
<polygon fill="white" stroke="#666666" points="746,-398.5 600,-398.5 600,-368.5 746,-368.5 746,-398.5"/>
<text text-anchor="start" x="608" y="-386.5" font-family="Helvetica,sans-Serif" font-size="10.00">NetworkClient::updateUdp</text>
<text text-anchor="middle" x="673" y="-375.5" font-family="Helvetica,sans-Serif" font-size="10.00">Rates</text>
</a>
</g>
</g>
<!-- Node30&#45;&gt;Node31 -->
<g id="edge35_Node000030_Node000031" class="edge">
<title>Node30&#45;&gt;Node31</title>
<g id="a_edge35_Node000030_Node000031"><a xlink:title=" ">
<path fill="none" stroke="#63b8ff" d="M524.77,-341.04C537.16,-343.92 550.65,-347.19 563,-350.5 580,-355.05 598.36,-360.43 615.08,-365.51"/>
<polygon fill="#63b8ff" stroke="#63b8ff" points="614.12,-368.87 624.71,-368.45 616.17,-362.18 614.12,-368.87"/>
</a>
</g>
</g>
<!-- Node34&#45;&gt;Node21 -->
<g id="edge39_Node000034_Node000021" class="edge">
<title>Node34&#45;&gt;Node21</title>
<g id="a_edge39_Node000034_Node000021"><a xlink:title=" ">
<path fill="none" stroke="#63b8ff" d="M747.27,-161.5C755.65,-161.5 764.27,-161.5 772.85,-161.5"/>
<polygon fill="#63b8ff" stroke="#63b8ff" points="772.88,-165 782.88,-161.5 772.88,-158 772.88,-165"/>
</a>
</g>
</g>
<!-- Node35&#45;&gt;Node21 -->
<g id="edge41_Node000035_Node000021" class="edge">
<title>Node35&#45;&gt;Node21</title>
<g id="a_edge41_Node000035_Node000021"><a xlink:title=" ">
<path fill="none" stroke="#63b8ff" d="M562.25,-122.75C615.01,-124.94 685.32,-129.21 747,-137.5 769.25,-140.49 793.61,-145.27 814.28,-149.78"/>
<polygon fill="#63b8ff" stroke="#63b8ff" points="813.58,-153.21 824.1,-151.96 815.1,-146.37 813.58,-153.21"/>
</a>
</g>
</g>
</g>
</svg>
