<?xml version="1.0" encoding="UTF-8" standalone="no"?>
<!DOCTYPE svg PUBLIC "-//W3C//DTD SVG 1.1//EN"
 "http://www.w3.org/Graphics/SVG/1.1/DTD/svg11.dtd">
<!-- Generated by graphviz version 2.43.0 (0)
 -->
<!-- Title: TCPServer::sendPingToAll Pages: 1 -->
<svg width="602pt" height="64pt"
 viewBox="0.00 0.00 602.00 64.00" xmlns="http://www.w3.org/2000/svg" xmlns:xlink="http://www.w3.org/1999/xlink">
<g id="graph0" class="graph" transform="scale(1 1) rotate(0) translate(4 60)">
<title>TCPServer::sendPingToAll</title>
<!-- Node1 -->
<g id="Node000001" class="node">
<title>Node1</title>
<g id="a_Node000001"><a xlink:title="Send a ping packet to every connected client.">
<polygon fill="#999999" stroke="#666666" points="140,-37 0,-37 0,-18 140,-18 140,-37"/>
<text text-anchor="middle" x="70" y="-25" font-family="Helvetica,sans-Serif" font-size="10.00">TCPServer::sendPingToAll</text>
</a>
</g>
</g>
<!-- Node2 -->
<g id="Node000002" class="node">
<title>Node2</title>
<g id="a_Node000002"><a xlink:href="classTCPServer.html#a9a65a3923e77e48c5f0019b45af8fcb5" target="_top" xlink:title="Send a packet to a specific client fd.">
<polygon fill="white" stroke="#666666" points="303,-37 176,-37 176,-18 303,-18 303,-37"/>
<text text-anchor="middle" x="239.5" y="-25" font-family="Helvetica,sans-Serif" font-size="10.00">TCPServer::sendPacket</text>
</a>
</g>
</g>
<!-- Node1&#45;&gt;Node2 -->
<g id="edge1_Node000001_Node000002" class="edge">
<title>Node1&#45;&gt;Node2</title>
<g id="a_edge1_Node000001_Node000002"><a xlink:title=" ">
<path fill="none" stroke="#63b8ff" d="M140.1,-27.5C148.49,-27.5 157.08,-27.5 165.53,-27.5"/>
<polygon fill="#63b8ff" stroke="#63b8ff" points="165.74,-31 175.74,-27.5 165.74,-24 165.74,-31"/>
</a>
</g>
</g>
<!-- Node3 -->
<g id="Node000003" class="node">
<title>Node3</title>
<g id="a_Node000003"><a xlink:href="namespaceProtocol.html#a668bdeed219432868fca095e1b2f2667" target="_top" xlink:title="Build a TCP framed buffer (2 bytes length + serialized packet).">
<polygon fill="white" stroke="#666666" points="447.5,-56 340.5,-56 340.5,-37 447.5,-37 447.5,-56"/>
<text text-anchor="middle" x="394" y="-44" font-family="Helvetica,sans-Serif" font-size="10.00">Protocol::frameTcp</text>
</a>
</g>
</g>
<!-- Node2&#45;&gt;Node3 -->
<g id="edge2_Node000002_Node000003" class="edge">
<title>Node2&#45;&gt;Node3</title>
<g id="a_edge2_Node000002_Node000003"><a xlink:title=" ">
<path fill="none" stroke="#63b8ff" d="M303.41,-35.34C312.35,-36.45 321.54,-37.6 330.48,-38.71"/>
<polygon fill="#63b8ff" stroke="#63b8ff" points="330.07,-42.19 340.43,-39.95 330.94,-35.24 330.07,-42.19"/>
</a>
</g>
</g>
<!-- Node5 -->
<g id="Node000005" class="node">
<title>Node5</title>
<g id="a_Node000005"><a xlink:href="classTCPServer.html#a79e20e1d2821e399fe47dd1055341d5e" target="_top" xlink:title="Ensure the full buffer is written to the socket.">
<polygon fill="white" stroke="#666666" points="449,-19 339,-19 339,0 449,0 449,-19"/>
<text text-anchor="middle" x="394" y="-7" font-family="Helvetica,sans-Serif" font-size="10.00">TCPServer::writeAll</text>
</a>
</g>
</g>
<!-- Node2&#45;&gt;Node5 -->
<g id="edge4_Node000002_Node000005" class="edge">
<title>Node2&#45;&gt;Node5</title>
<g id="a_edge4_Node000002_Node000005"><a xlink:title=" ">
<path fill="none" stroke="#63b8ff" d="M303.41,-20.07C311.81,-19.08 320.43,-18.07 328.85,-17.07"/>
<polygon fill="#63b8ff" stroke="#63b8ff" points="329.47,-20.52 338.99,-15.87 328.65,-13.57 329.47,-20.52"/>
</a>
</g>
</g>
<!-- Node4 -->
<g id="Node000004" class="node">
<title>Node4</title>
<g id="a_Node000004"><a xlink:href="classPacket.html#aa88c2d28796644c8a1d6137996502ca8" target="_top" xlink:title="Serialize the packet to a byte buffer ready to send.">
<polygon fill="white" stroke="#666666" points="587,-56 492,-56 492,-37 587,-37 587,-56"/>
<text text-anchor="middle" x="539.5" y="-44" font-family="Helvetica,sans-Serif" font-size="10.00">Packet::serialize</text>
</a>
</g>
</g>
<!-- Node3&#45;&gt;Node4 -->
<g id="edge3_Node000003_Node000004" class="edge">
<title>Node3&#45;&gt;Node4</title>
<g id="a_edge3_Node000003_Node000004"><a xlink:title=" ">
<path fill="none" stroke="#63b8ff" d="M447.62,-46.5C458.64,-46.5 470.32,-46.5 481.49,-46.5"/>
<polygon fill="#63b8ff" stroke="#63b8ff" points="481.58,-50 491.58,-46.5 481.58,-43 481.58,-50"/>
</a>
</g>
</g>
<!-- Node6 -->
<g id="Node000006" class="node">
<title>Node6</title>
<g id="a_Node000006"><a xlink:href="classTCPServer.html#a5b1988f8a542c2d39f3d3556264e71b2" target="_top" xlink:title="Write raw bytes to a socket fd.">
<polygon fill="white" stroke="#666666" points="594,-19 485,-19 485,0 594,0 594,-19"/>
<text text-anchor="middle" x="539.5" y="-7" font-family="Helvetica,sans-Serif" font-size="10.00">TCPServer::writeFd</text>
</a>
</g>
</g>
<!-- Node5&#45;&gt;Node6 -->
<g id="edge5_Node000005_Node000006" class="edge">
<title>Node5&#45;&gt;Node6</title>
<g id="a_edge5_Node000005_Node000006"><a xlink:title=" ">
<path fill="none" stroke="#63b8ff" d="M449.25,-9.5C457.49,-9.5 466.06,-9.5 474.48,-9.5"/>
<polygon fill="#63b8ff" stroke="#63b8ff" points="474.65,-13 484.65,-9.5 474.65,-6 474.65,-13"/>
</a>
</g>
</g>
</g>
</svg>
