<?xml version="1.0" encoding="UTF-8" standalone="no"?>
<!DOCTYPE svg PUBLIC "-//W3C//DTD SVG 1.1//EN"
 "http://www.w3.org/Graphics/SVG/1.1/DTD/svg11.dtd">
<!-- Generated by graphviz version 2.43.0 (0)
 -->
<!-- Title: UDPGameServer::handleHello Pages: 1 -->
<svg width="549pt" height="261pt"
 viewBox="0.00 0.00 549.00 260.50" xmlns="http://www.w3.org/2000/svg" xmlns:xlink="http://www.w3.org/1999/xlink">
<g id="graph0" class="graph" transform="scale(1 1) rotate(0) translate(4 256.5)">
<title>UDPGameServer::handleHello</title>
<!-- Node1 -->
<g id="Node000001" class="node">
<title>Node1</title>
<g id="a_Node000001"><a xlink:title="Register a new player on receipt of a hello message.">
<polygon fill="#999999" stroke="#666666" points="163,-130 0,-130 0,-111 163,-111 163,-130"/>
<text text-anchor="middle" x="81.5" y="-118" font-family="Helvetica,sans-Serif" font-size="10.00">UDPGameServer::handleHello</text>
</a>
</g>
</g>
<!-- Node2 -->
<g id="Node000002" class="node">
<title>Node2</title>
<g id="a_Node000002"><a xlink:href="classGameWorld.html#a9a877bcf4eed6527b0896242463a3dfa" target="_top" xlink:title="Build a UDP snapshot packet of current world state.">
<polygon fill="white" stroke="#666666" points="358.5,-252.5 209.5,-252.5 209.5,-222.5 358.5,-222.5 358.5,-252.5"/>
<text text-anchor="start" x="217.5" y="-240.5" font-family="Helvetica,sans-Serif" font-size="10.00">GameWorld::buildSnapshot</text>
<text text-anchor="middle" x="284" y="-229.5" font-family="Helvetica,sans-Serif" font-size="10.00">Packet</text>
</a>
</g>
</g>
<!-- Node1&#45;&gt;Node2 -->
<g id="edge1_Node000001_Node000002" class="edge">
<title>Node1&#45;&gt;Node2</title>
<g id="a_edge1_Node000001_Node000002"><a xlink:title=" ">
<path fill="none" stroke="#63b8ff" d="M91.84,-130.17C110.48,-148.95 154.37,-190.49 199,-213.5 202.72,-215.42 206.6,-217.2 210.59,-218.85"/>
<polygon fill="#63b8ff" stroke="#63b8ff" points="209.42,-222.15 220.01,-222.48 211.94,-215.62 209.42,-222.15"/>
</a>
</g>
</g>
<!-- Node3 -->
<g id="Node000003" class="node">
<title>Node3</title>
<g id="a_Node000003"><a xlink:href="classSessionManager.html#a48995915db3b90fa7228d357d6293163" target="_top" xlink:title="Lookup a session by player id.">
<polygon fill="white" stroke="#666666" points="362,-204 206,-204 206,-185 362,-185 362,-204"/>
<text text-anchor="middle" x="284" y="-192" font-family="Helvetica,sans-Serif" font-size="10.00">SessionManager::getSession</text>
</a>
</g>
</g>
<!-- Node1&#45;&gt;Node3 -->
<g id="edge2_Node000001_Node000003" class="edge">
<title>Node1&#45;&gt;Node3</title>
<g id="a_edge2_Node000001_Node000003"><a xlink:title=" ">
<path fill="none" stroke="#63b8ff" d="M99.33,-130.17C121.51,-142.53 162.05,-163.86 199,-176.5 205.45,-178.71 212.27,-180.7 219.13,-182.48"/>
<polygon fill="#63b8ff" stroke="#63b8ff" points="218.61,-185.96 229.16,-184.95 220.28,-179.16 218.61,-185.96"/>
</a>
</g>
</g>
<!-- Node4 -->
<g id="Node000004" class="node">
<title>Node4</title>
<g id="a_Node000004"><a xlink:href="classUDPGameServer.html#ae610b7c128c3b70e06f3fc1b5a3ecdc5" target="_top" xlink:title=" ">
<polygon fill="white" stroke="#666666" points="357.5,-167 210.5,-167 210.5,-148 357.5,-148 357.5,-167"/>
<text text-anchor="middle" x="284" y="-155" font-family="Helvetica,sans-Serif" font-size="10.00">UDPGameServer::logPrefix</text>
</a>
</g>
</g>
<!-- Node1&#45;&gt;Node4 -->
<g id="edge3_Node000001_Node000004" class="edge">
<title>Node1&#45;&gt;Node4</title>
<g id="a_edge3_Node000001_Node000004"><a xlink:title=" ">
<path fill="none" stroke="#63b8ff" d="M134.13,-130.03C160.69,-134.93 193.26,-140.94 221.15,-146.09"/>
<polygon fill="#63b8ff" stroke="#63b8ff" points="220.72,-149.57 231.19,-147.94 221.99,-142.68 220.72,-149.57"/>
</a>
</g>
</g>
<!-- Node5 -->
<g id="Node000005" class="node">
<title>Node5</title>
<g id="a_Node000005"><a xlink:href="classGameWorld.html#aaebb0cdb6bcf4382893ce438832db63e" target="_top" xlink:title="Register a player on HELLO_UDP.">
<polygon fill="white" stroke="#666666" points="358,-130 210,-130 210,-111 358,-111 358,-130"/>
<text text-anchor="middle" x="284" y="-118" font-family="Helvetica,sans-Serif" font-size="10.00">GameWorld::registerPlayer</text>
</a>
</g>
</g>
<!-- Node1&#45;&gt;Node5 -->
<g id="edge4_Node000001_Node000005" class="edge">
<title>Node1&#45;&gt;Node5</title>
<g id="a_edge4_Node000001_Node000005"><a xlink:title=" ">
<path fill="none" stroke="#63b8ff" d="M163.18,-120.5C175.26,-120.5 187.72,-120.5 199.84,-120.5"/>
<polygon fill="#63b8ff" stroke="#63b8ff" points="199.93,-124 209.93,-120.5 199.93,-117 199.93,-124"/>
</a>
</g>
</g>
<!-- Node6 -->
<g id="Node000006" class="node">
<title>Node6</title>
<g id="a_Node000006"><a xlink:href="classUDPGameServer.html#a602889e958a3ff926bb8de325c982a62" target="_top" xlink:title="Send a packet to a single endpoint.">
<polygon fill="white" stroke="#666666" points="369,-93 199,-93 199,-74 369,-74 369,-93"/>
<text text-anchor="middle" x="284" y="-81" font-family="Helvetica,sans-Serif" font-size="10.00">UDPGameServer::sendPacketTo</text>
</a>
</g>
</g>
<!-- Node1&#45;&gt;Node6 -->
<g id="edge5_Node000001_Node000006" class="edge">
<title>Node1&#45;&gt;Node6</title>
<g id="a_edge5_Node000001_Node000006"><a xlink:title=" ">
<path fill="none" stroke="#63b8ff" d="M134.13,-110.97C160.69,-106.07 193.26,-100.06 221.15,-94.91"/>
<polygon fill="#63b8ff" stroke="#63b8ff" points="221.99,-98.32 231.19,-93.06 220.72,-91.43 221.99,-98.32"/>
</a>
</g>
</g>
<!-- Node9 -->
<g id="Node000009" class="node">
<title>Node9</title>
<g id="a_Node000009"><a xlink:href="classGameWorld.html#a163fb2fed54650ebba995df1e64c39db" target="_top" xlink:title="Prefix used in log output.">
<polygon fill="white" stroke="#666666" points="354,-56 214,-56 214,-37 354,-37 354,-56"/>
<text text-anchor="middle" x="284" y="-44" font-family="Helvetica,sans-Serif" font-size="10.00">GameWorld::setLogPrefix</text>
</a>
</g>
</g>
<!-- Node1&#45;&gt;Node9 -->
<g id="edge8_Node000001_Node000009" class="edge">
<title>Node1&#45;&gt;Node9</title>
<g id="a_edge8_Node000001_Node000009"><a xlink:title=" ">
<path fill="none" stroke="#63b8ff" d="M99.33,-110.83C121.51,-98.47 162.05,-77.14 199,-64.5 205.45,-62.29 212.27,-60.3 219.13,-58.52"/>
<polygon fill="#63b8ff" stroke="#63b8ff" points="220.28,-61.84 229.16,-56.05 218.61,-55.04 220.28,-61.84"/>
</a>
</g>
</g>
<!-- Node10 -->
<g id="Node000010" class="node">
<title>Node10</title>
<g id="a_Node000010"><a xlink:href="classSessionManager.html#af2596853b8042076df0c1022468eaec3" target="_top" xlink:title="Register the client&#39;s UDP address.">
<polygon fill="white" stroke="#666666" points="364,-19 204,-19 204,0 364,0 364,-19"/>
<text text-anchor="middle" x="284" y="-7" font-family="Helvetica,sans-Serif" font-size="10.00">SessionManager::setUdpAddr</text>
</a>
</g>
</g>
<!-- Node1&#45;&gt;Node10 -->
<g id="edge9_Node000001_Node000010" class="edge">
<title>Node1&#45;&gt;Node10</title>
<g id="a_edge9_Node000001_Node000010"><a xlink:title=" ">
<path fill="none" stroke="#63b8ff" d="M91.42,-110.86C109.67,-91.76 153.39,-49.1 199,-27.5 203.13,-25.54 207.47,-23.8 211.92,-22.24"/>
<polygon fill="#63b8ff" stroke="#63b8ff" points="213.31,-25.47 221.79,-19.12 211.2,-18.8 213.31,-25.47"/>
</a>
</g>
</g>
<!-- Node7 -->
<g id="Node000007" class="node">
<title>Node7</title>
<g id="a_Node000007"><a xlink:href="classPacket.html#aa88c2d28796644c8a1d6137996502ca8" target="_top" xlink:title="Serialize the packet to a byte buffer ready to send.">
<polygon fill="white" stroke="#666666" points="520.5,-114 425.5,-114 425.5,-95 520.5,-95 520.5,-114"/>
<text text-anchor="middle" x="473" y="-102" font-family="Helvetica,sans-Serif" font-size="10.00">Packet::serialize</text>
</a>
</g>
</g>
<!-- Node6&#45;&gt;Node7 -->
<g id="edge6_Node000006_Node000007" class="edge">
<title>Node6&#45;&gt;Node7</title>
<g id="a_edge6_Node000006_Node000007"><a xlink:title=" ">
<path fill="none" stroke="#63b8ff" d="M369.2,-92.96C384.72,-94.7 400.59,-96.48 415.07,-98.11"/>
<polygon fill="#63b8ff" stroke="#63b8ff" points="415.02,-101.62 425.35,-99.26 415.8,-94.67 415.02,-101.62"/>
</a>
</g>
</g>
<!-- Node8 -->
<g id="Node000008" class="node">
<title>Node8</title>
<g id="a_Node000008"><a xlink:href="classNetwork_1_1TransportLayer_1_1UDPSocket.html#a887cf24e71c890759f907c074f5b3505" target="_top" xlink:title="Write bytes to the UDP socket.">
<polygon fill="white" stroke="#666666" points="541,-76.5 405,-76.5 405,-46.5 541,-46.5 541,-76.5"/>
<text text-anchor="start" x="413" y="-64.5" font-family="Helvetica,sans-Serif" font-size="10.00">Network::TransportLayer</text>
<text text-anchor="middle" x="473" y="-53.5" font-family="Helvetica,sans-Serif" font-size="10.00">::UDPSocket::writeByte</text>
</a>
</g>
</g>
<!-- Node6&#45;&gt;Node8 -->
<g id="edge7_Node000006_Node000008" class="edge">
<title>Node6&#45;&gt;Node8</title>
<g id="a_edge7_Node000006_Node000008"><a xlink:title=" ">
<path fill="none" stroke="#63b8ff" d="M365.93,-73.98C375.5,-72.85 385.25,-71.71 394.76,-70.59"/>
<polygon fill="#63b8ff" stroke="#63b8ff" points="395.46,-74.03 404.98,-69.38 394.64,-67.08 395.46,-74.03"/>
</a>
</g>
</g>
</g>
</svg>
