<?xml version="1.0" encoding="UTF-8" standalone="no"?>
<!DOCTYPE svg PUBLIC "-//W3C//DTD SVG 1.1//EN"
 "http://www.w3.org/Graphics/SVG/1.1/DTD/svg11.dtd">
<!-- Generated by graphviz version 2.43.0 (0)
 -->
<!-- Title: GraphicClient::updateEntities Pages: 1 -->
<svg width="973pt" height="435pt"
 viewBox="0.00 0.00 973.00 434.84" xmlns="http://www.w3.org/2000/svg" xmlns:xlink="http://www.w3.org/1999/xlink">
<g id="graph0" class="graph" transform="scale(1 1) rotate(0) translate(4 430.84)">
<title>GraphicClient::updateEntities</title>
<!-- Node1 -->
<g id="Node000001" class="node">
<title>Node1</title>
<g id="a_Node000001"><a xlink:title="Updates all game entities based on delta time.">
<polygon fill="#999999" stroke="#666666" points="159,-264 0,-264 0,-245 159,-245 159,-264"/>
<text text-anchor="middle" x="79.5" y="-252" font-family="Helvetica,sans-Serif" font-size="10.00">GraphicClient::updateEntities</text>
</a>
</g>
</g>
<!-- Node2 -->
<g id="Node000002" class="node">
<title>Node2</title>
<g id="a_Node000002"><a xlink:href="classECS.html#ab25123ea5b19ee74c4e120eb6d808a48" target="_top" xlink:title="Retrieves a component from an entity.">
<polygon fill="white" stroke="#666666" points="540,-405 427,-405 427,-386 540,-386 540,-405"/>
<text text-anchor="middle" x="483.5" y="-393" font-family="Helvetica,sans-Serif" font-size="10.00">ECS::getComponent</text>
</a>
</g>
</g>
<!-- Node1&#45;&gt;Node2 -->
<g id="edge1_Node000001_Node000002" class="edge">
<title>Node1&#45;&gt;Node2</title>
<g id="a_edge1_Node000001_Node000002"><a xlink:title=" ">
<path fill="none" stroke="#63b8ff" d="M84.31,-264.27C95.87,-292.35 133.54,-373.22 195,-403.5 275.49,-443.16 384.65,-423.2 442.57,-407.77"/>
<polygon fill="#63b8ff" stroke="#63b8ff" points="443.71,-411.09 452.43,-405.06 441.86,-404.34 443.71,-411.09"/>
</a>
</g>
</g>
<!-- Node4 -->
<g id="Node000004" class="node">
<title>Node4</title>
<g id="a_Node000004"><a xlink:href="classNetworkClient.html#abfd2ef3eb235148e35fe65831187feab" target="_top" xlink:title="Get last received bullet snapshots.">
<polygon fill="white" stroke="#666666" points="368,-207.5 195,-207.5 195,-177.5 368,-177.5 368,-207.5"/>
<text text-anchor="start" x="203" y="-195.5" font-family="Helvetica,sans-Serif" font-size="10.00">NetworkClient::getLastSnapshot</text>
<text text-anchor="middle" x="281.5" y="-184.5" font-family="Helvetica,sans-Serif" font-size="10.00">Bullets</text>
</a>
</g>
</g>
<!-- Node1&#45;&gt;Node4 -->
<g id="edge3_Node000001_Node000004" class="edge">
<title>Node1&#45;&gt;Node4</title>
<g id="a_edge3_Node000001_Node000004"><a xlink:title=" ">
<path fill="none" stroke="#63b8ff" d="M111.31,-244.95C140.66,-235.85 185.6,-221.92 221.78,-210.7"/>
<polygon fill="#63b8ff" stroke="#63b8ff" points="223.22,-213.92 231.74,-207.62 221.15,-207.23 223.22,-213.92"/>
</a>
</g>
</g>
<!-- Node5 -->
<g id="Node000005" class="node">
<title>Node5</title>
<g id="a_Node000005"><a xlink:href="classNetworkClient.html#a4b6f0c20c59eeeddf98e738257c8a793" target="_top" xlink:title="Get last received monster snapshots.">
<polygon fill="white" stroke="#666666" points="368,-159.5 195,-159.5 195,-129.5 368,-129.5 368,-159.5"/>
<text text-anchor="start" x="203" y="-147.5" font-family="Helvetica,sans-Serif" font-size="10.00">NetworkClient::getLastSnapshot</text>
<text text-anchor="middle" x="281.5" y="-136.5" font-family="Helvetica,sans-Serif" font-size="10.00">Monsters</text>
</a>
</g>
</g>
<!-- Node1&#45;&gt;Node5 -->
<g id="edge4_Node000001_Node000005" class="edge">
<title>Node1&#45;&gt;Node5</title>
<g id="a_edge4_Node000001_Node000005"><a xlink:title=" ">
<path fill="none" stroke="#63b8ff" d="M90.66,-244.75C109.64,-227.05 152.43,-189.54 195,-168.5 198.81,-166.62 202.79,-164.86 206.86,-163.23"/>
<polygon fill="#63b8ff" stroke="#63b8ff" points="208.34,-166.41 216.48,-159.63 205.89,-159.85 208.34,-166.41"/>
</a>
</g>
</g>
<!-- Node6 -->
<g id="Node000006" class="node">
<title>Node6</title>
<g id="a_Node000006"><a xlink:href="classNetworkClient.html#a3a848ca2af9ba2a3008e33ecc39a3622" target="_top" xlink:title="Get server&#45;assigned player id.">
<polygon fill="white" stroke="#666666" points="557.5,-223 409.5,-223 409.5,-204 557.5,-204 557.5,-223"/>
<text text-anchor="middle" x="483.5" y="-211" font-family="Helvetica,sans-Serif" font-size="10.00">NetworkClient::getPlayerId</text>
</a>
</g>
</g>
<!-- Node1&#45;&gt;Node6 -->
<g id="edge5_Node000001_Node000006" class="edge">
<title>Node1&#45;&gt;Node6</title>
<g id="a_edge5_Node000001_Node000006"><a xlink:title=" ">
<path fill="none" stroke="#63b8ff" d="M159.44,-246.45C228.64,-239.39 328.89,-229.17 399.32,-221.98"/>
<polygon fill="#63b8ff" stroke="#63b8ff" points="399.9,-225.44 409.49,-220.95 399.19,-218.48 399.9,-225.44"/>
</a>
</g>
</g>
<!-- Node7 -->
<g id="Node000007" class="node">
<title>Node7</title>
<g id="a_Node000007"><a xlink:href="classGameState.html#adbedaec4367fbf2705065e66a8909ce5" target="_top" xlink:title="Return a snapshot list of current players.">
<polygon fill="white" stroke="#666666" points="345.5,-111 217.5,-111 217.5,-92 345.5,-92 345.5,-111"/>
<text text-anchor="middle" x="281.5" y="-99" font-family="Helvetica,sans-Serif" font-size="10.00">GameState::listPlayers</text>
</a>
</g>
</g>
<!-- Node1&#45;&gt;Node7 -->
<g id="edge6_Node000001_Node000007" class="edge">
<title>Node1&#45;&gt;Node7</title>
<g id="a_edge6_Node000001_Node000007"><a xlink:title=" ">
<path fill="none" stroke="#63b8ff" d="M85.71,-244.88C99.75,-219.95 140.97,-152.97 195,-120.5 198.92,-118.15 203.09,-116.08 207.42,-114.27"/>
<polygon fill="#63b8ff" stroke="#63b8ff" points="208.89,-117.46 217.06,-110.71 206.47,-110.89 208.89,-117.46"/>
</a>
</g>
</g>
<!-- Node8 -->
<g id="Node000008" class="node">
<title>Node8</title>
<g id="a_Node000008"><a xlink:href="classGraphicClient.html#a61111e5d14a72f0f69344ab034a0622a" target="_top" xlink:title="Synchronizes bullet entities with server state.">
<polygon fill="white" stroke="#666666" points="354,-320 209,-320 209,-301 354,-301 354,-320"/>
<text text-anchor="middle" x="281.5" y="-308" font-family="Helvetica,sans-Serif" font-size="10.00">GraphicClient::syncBullets</text>
</a>
</g>
</g>
<!-- Node1&#45;&gt;Node8 -->
<g id="edge7_Node000001_Node000008" class="edge">
<title>Node1&#45;&gt;Node8</title>
<g id="a_edge7_Node000001_Node000008"><a xlink:title=" ">
<path fill="none" stroke="#63b8ff" d="M106.62,-264.11C129.66,-272.35 164.27,-284.19 195,-292.5 203.21,-294.72 211.92,-296.83 220.53,-298.77"/>
<polygon fill="#63b8ff" stroke="#63b8ff" points="220.02,-302.24 230.54,-300.97 221.53,-295.41 220.02,-302.24"/>
</a>
</g>
</g>
<!-- Node13 -->
<g id="Node000013" class="node">
<title>Node13</title>
<g id="a_Node000013"><a xlink:href="classGraphicClient.html#aacb31035c31d741d0ae2ca5ec9228b12" target="_top" xlink:title="Synchronizes player entities with server state.">
<polygon fill="white" stroke="#666666" points="355.5,-283 207.5,-283 207.5,-264 355.5,-264 355.5,-283"/>
<text text-anchor="middle" x="281.5" y="-271" font-family="Helvetica,sans-Serif" font-size="10.00">GraphicClient::syncEntities</text>
</a>
</g>
</g>
<!-- Node1&#45;&gt;Node13 -->
<g id="edge14_Node000001_Node000013" class="edge">
<title>Node1&#45;&gt;Node13</title>
<g id="a_edge14_Node000001_Node000013"><a xlink:title=" ">
<path fill="none" stroke="#63b8ff" d="M159.26,-261.98C171.76,-263.17 184.74,-264.4 197.34,-265.6"/>
<polygon fill="#63b8ff" stroke="#63b8ff" points="197.07,-269.09 207.35,-266.55 197.73,-262.12 197.07,-269.09"/>
</a>
</g>
</g>
<!-- Node15 -->
<g id="Node000015" class="node">
<title>Node15</title>
<g id="a_Node000015"><a xlink:href="classGraphicClient.html#afe45a37a11b23a08cce4d7c6b7efccbc" target="_top" xlink:title="Synchronizes monster entities with server state.">
<polygon fill="white" stroke="#666666" points="359.5,-357 203.5,-357 203.5,-338 359.5,-338 359.5,-357"/>
<text text-anchor="middle" x="281.5" y="-345" font-family="Helvetica,sans-Serif" font-size="10.00">GraphicClient::syncMonsters</text>
</a>
</g>
</g>
<!-- Node1&#45;&gt;Node15 -->
<g id="edge20_Node000001_Node000015" class="edge">
<title>Node1&#45;&gt;Node15</title>
<g id="a_edge20_Node000001_Node000015"><a xlink:title=" ">
<path fill="none" stroke="#63b8ff" d="M92.03,-264.19C111.78,-280.29 153.96,-312.45 195,-329.5 200.08,-331.61 205.43,-333.48 210.88,-335.14"/>
<polygon fill="#63b8ff" stroke="#63b8ff" points="210.19,-338.58 220.76,-337.91 212.07,-331.84 210.19,-338.58"/>
</a>
</g>
</g>
<!-- Node17 -->
<g id="Node000017" class="node">
<title>Node17</title>
<g id="a_Node000017"><a xlink:href="classMovementSystem.html#a57b0e4d3739f4b27ce15324b8a4d47bf" target="_top" xlink:title="Updates entity position based on velocity with fixed time stepping.">
<polygon fill="white" stroke="#666666" points="354.5,-394 208.5,-394 208.5,-375 354.5,-375 354.5,-394"/>
<text text-anchor="middle" x="281.5" y="-382" font-family="Helvetica,sans-Serif" font-size="10.00">MovementSystem::update</text>
</a>
</g>
</g>
<!-- Node1&#45;&gt;Node17 -->
<g id="edge25_Node000001_Node000017" class="edge">
<title>Node1&#45;&gt;Node17</title>
<g id="a_edge25_Node000001_Node000017"><a xlink:title=" ">
<path fill="none" stroke="#63b8ff" d="M87.26,-264.14C103.23,-286.13 145.71,-340.15 195,-366.5 198.51,-368.38 202.2,-370.06 206,-371.56"/>
<polygon fill="#63b8ff" stroke="#63b8ff" points="205.01,-374.93 215.61,-374.96 207.34,-368.33 205.01,-374.93"/>
</a>
</g>
</g>
<!-- Node18 -->
<g id="Node000018" class="node">
<title>Node18</title>
<g id="a_Node000018"><a xlink:href="classInputSystem.html#af7ed09c6bfd5fba6af86af16de00d706" target="_top" xlink:title="Updates input state and sends player commands to the server.">
<polygon fill="white" stroke="#666666" points="340.5,-74 222.5,-74 222.5,-55 340.5,-55 340.5,-74"/>
<text text-anchor="middle" x="281.5" y="-62" font-family="Helvetica,sans-Serif" font-size="10.00">InputSystem::update</text>
</a>
</g>
</g>
<!-- Node1&#45;&gt;Node18 -->
<g id="edge27_Node000001_Node000018" class="edge">
<title>Node1&#45;&gt;Node18</title>
<g id="a_edge27_Node000001_Node000018"><a xlink:title=" ">
<path fill="none" stroke="#63b8ff" d="M83.94,-244.87C94.98,-215.47 132.47,-126.25 195,-83.5 200.35,-79.84 206.3,-76.87 212.49,-74.47"/>
<polygon fill="#63b8ff" stroke="#63b8ff" points="214.01,-77.65 222.36,-71.13 211.77,-71.01 214.01,-77.65"/>
</a>
</g>
</g>
<!-- Node3 -->
<g id="Node000003" class="node">
<title>Node3</title>
<g id="a_Node000003"><a xlink:href="classECS.html#aacd3f4c4db77a1e5ff41711297ec6602" target="_top" xlink:title="Gets the type index for a component type.">
<polygon fill="white" stroke="#666666" points="965,-396 802,-396 802,-377 965,-377 965,-396"/>
<text text-anchor="middle" x="883.5" y="-384" font-family="Helvetica,sans-Serif" font-size="10.00">ECS::getComponentTypeIndex</text>
</a>
</g>
</g>
<!-- Node2&#45;&gt;Node3 -->
<g id="edge2_Node000002_Node000003" class="edge">
<title>Node2&#45;&gt;Node3</title>
<g id="a_edge2_Node000002_Node000003"><a xlink:title=" ">
<path fill="none" stroke="#63b8ff" d="M540.26,-394.24C605.47,-392.76 714.34,-390.3 791.77,-388.55"/>
<polygon fill="#63b8ff" stroke="#63b8ff" points="792.08,-392.05 802,-388.32 791.92,-385.05 792.08,-392.05"/>
</a>
</g>
</g>
<!-- Node8&#45;&gt;Node2 -->
<g id="edge13_Node000008_Node000002" class="edge">
<title>Node8&#45;&gt;Node2</title>
<g id="a_edge13_Node000008_Node000002"><a xlink:title=" ">
<path fill="none" stroke="#63b8ff" d="M348.37,-320.13C355.28,-322.58 361.98,-325.66 368,-329.5 390.18,-343.65 381.95,-362.14 404,-376.5 408.12,-379.18 412.58,-381.48 417.21,-383.46"/>
<polygon fill="#63b8ff" stroke="#63b8ff" points="416.31,-386.86 426.9,-387.08 418.76,-380.31 416.31,-386.86"/>
</a>
</g>
</g>
<!-- Node9 -->
<g id="Node000009" class="node">
<title>Node9</title>
<g id="a_Node000009"><a xlink:href="classGraphicClient.html#a31bdd83222945e28b307b03b32135288" target="_top" xlink:title="Creates a bullet entity at specified position.">
<polygon fill="white" stroke="#666666" points="557.5,-319.5 409.5,-319.5 409.5,-289.5 557.5,-289.5 557.5,-319.5"/>
<text text-anchor="start" x="417.5" y="-307.5" font-family="Helvetica,sans-Serif" font-size="10.00">GraphicClient::createBullet</text>
<text text-anchor="middle" x="483.5" y="-296.5" font-family="Helvetica,sans-Serif" font-size="10.00">Entity</text>
</a>
</g>
</g>
<!-- Node8&#45;&gt;Node9 -->
<g id="edge8_Node000008_Node000009" class="edge">
<title>Node8&#45;&gt;Node9</title>
<g id="a_edge8_Node000008_Node000009"><a xlink:title=" ">
<path fill="none" stroke="#63b8ff" d="M354.14,-308.35C368.71,-307.91 384.16,-307.45 399.1,-307"/>
<polygon fill="#63b8ff" stroke="#63b8ff" points="399.45,-310.49 409.34,-306.69 399.24,-303.5 399.45,-310.49"/>
</a>
</g>
</g>
<!-- Node10 -->
<g id="Node000010" class="node">
<title>Node10</title>
<g id="a_Node000010"><a xlink:href="classECS.html#a4fbe0d70b0934255d301ced9df6287e7" target="_top" xlink:title="Adds a component to an entity.">
<polygon fill="white" stroke="#666666" points="740.5,-356 624.5,-356 624.5,-337 740.5,-337 740.5,-356"/>
<text text-anchor="middle" x="682.5" y="-344" font-family="Helvetica,sans-Serif" font-size="10.00">ECS::addComponent</text>
</a>
</g>
</g>
<!-- Node9&#45;&gt;Node10 -->
<g id="edge9_Node000009_Node000010" class="edge">
<title>Node9&#45;&gt;Node10</title>
<g id="a_edge9_Node000009_Node000010"><a xlink:title=" ">
<path fill="none" stroke="#63b8ff" d="M555.07,-319.54C578.71,-324.59 604.7,-330.13 626.94,-334.87"/>
<polygon fill="#63b8ff" stroke="#63b8ff" points="626.36,-338.32 636.87,-336.98 627.82,-331.48 626.36,-338.32"/>
</a>
</g>
</g>
<!-- Node12 -->
<g id="Node000012" class="node">
<title>Node12</title>
<g id="a_Node000012"><a xlink:href="classECS.html#a41b876f3725cbb04aac3f2edd95522c6" target="_top" xlink:title="Creates a new entity.">
<polygon fill="white" stroke="#666666" points="733,-314 632,-314 632,-295 733,-295 733,-314"/>
<text text-anchor="middle" x="682.5" y="-302" font-family="Helvetica,sans-Serif" font-size="10.00">ECS::createEntity</text>
</a>
</g>
</g>
<!-- Node9&#45;&gt;Node12 -->
<g id="edge12_Node000009_Node000012" class="edge">
<title>Node9&#45;&gt;Node12</title>
<g id="a_edge12_Node000009_Node000012"><a xlink:title=" ">
<path fill="none" stroke="#63b8ff" d="M557.58,-304.5C578.75,-304.5 601.6,-304.5 621.84,-304.5"/>
<polygon fill="#63b8ff" stroke="#63b8ff" points="621.86,-308 631.86,-304.5 621.86,-301 621.86,-308"/>
</a>
</g>
</g>
<!-- Node10&#45;&gt;Node3 -->
<g id="edge11_Node000010_Node000003" class="edge">
<title>Node10&#45;&gt;Node3</title>
<g id="a_edge11_Node000010_Node000003"><a xlink:title=" ">
<path fill="none" stroke="#63b8ff" d="M730.91,-356.03C759.21,-361.72 795.34,-368.98 825.23,-374.99"/>
<polygon fill="#63b8ff" stroke="#63b8ff" points="824.61,-378.43 835.11,-376.97 825.99,-371.57 824.61,-378.43"/>
</a>
</g>
</g>
<!-- Node11 -->
<g id="Node000011" class="node">
<title>Node11</title>
<g id="a_Node000011"><a xlink:href="classComponentArray.html#a37f484a9d2b6716e2facff9eabe1bb64" target="_top" xlink:title="Adds or updates a component for an entity.">
<polygon fill="white" stroke="#666666" points="944.5,-356 822.5,-356 822.5,-337 944.5,-337 944.5,-356"/>
<text text-anchor="middle" x="883.5" y="-344" font-family="Helvetica,sans-Serif" font-size="10.00">ComponentArray::add</text>
</a>
</g>
</g>
<!-- Node10&#45;&gt;Node11 -->
<g id="edge10_Node000010_Node000011" class="edge">
<title>Node10&#45;&gt;Node11</title>
<g id="a_edge10_Node000010_Node000011"><a xlink:title=" ">
<path fill="none" stroke="#63b8ff" d="M740.53,-346.5C762.84,-346.5 788.65,-346.5 812.11,-346.5"/>
<polygon fill="#63b8ff" stroke="#63b8ff" points="812.34,-350 822.34,-346.5 812.34,-343 812.34,-350"/>
</a>
</g>
</g>
<!-- Node13&#45;&gt;Node2 -->
<g id="edge18_Node000013_Node000002" class="edge">
<title>Node13&#45;&gt;Node2</title>
<g id="a_edge18_Node000013_Node000002"><a xlink:title=" ">
<path fill="none" stroke="#63b8ff" d="M352.81,-283.15C358.28,-285.64 363.43,-288.71 368,-292.5 399.27,-318.43 372.98,-350.28 404,-376.5 407.98,-379.86 412.46,-382.65 417.21,-384.96"/>
<polygon fill="#63b8ff" stroke="#63b8ff" points="416.04,-388.26 426.62,-388.83 418.7,-381.79 416.04,-388.26"/>
</a>
</g>
</g>
<!-- Node13&#45;&gt;Node6 -->
<g id="edge19_Node000013_Node000006" class="edge">
<title>Node13&#45;&gt;Node6</title>
<g id="a_edge19_Node000013_Node000006"><a xlink:title=" ">
<path fill="none" stroke="#63b8ff" d="M321.67,-263.98C336.38,-260.03 353.12,-255.06 368,-249.5 384.58,-243.31 387.31,-238.39 404,-232.5 411.25,-229.94 419,-227.61 426.7,-225.52"/>
<polygon fill="#63b8ff" stroke="#63b8ff" points="427.58,-228.9 436.38,-223 425.82,-222.13 427.58,-228.9"/>
</a>
</g>
</g>
<!-- Node14 -->
<g id="Node000014" class="node">
<title>Node14</title>
<g id="a_Node000014"><a xlink:href="classGraphicClient.html#a1f97bf7f358d1d5a5d65069d641feb5b" target="_top" xlink:title="Creates a player entity at specified position.">
<polygon fill="white" stroke="#666666" points="558.5,-271.5 408.5,-271.5 408.5,-241.5 558.5,-241.5 558.5,-271.5"/>
<text text-anchor="start" x="416.5" y="-259.5" font-family="Helvetica,sans-Serif" font-size="10.00">GraphicClient::createPlayer</text>
<text text-anchor="middle" x="483.5" y="-248.5" font-family="Helvetica,sans-Serif" font-size="10.00">Entity</text>
</a>
</g>
</g>
<!-- Node13&#45;&gt;Node14 -->
<g id="edge15_Node000013_Node000014" class="edge">
<title>Node13&#45;&gt;Node14</title>
<g id="a_edge15_Node000013_Node000014"><a xlink:title=" ">
<path fill="none" stroke="#63b8ff" d="M355.55,-267.29C369.38,-266.12 383.95,-264.88 398.1,-263.67"/>
<polygon fill="#63b8ff" stroke="#63b8ff" points="398.64,-267.14 408.3,-262.81 398.04,-260.17 398.64,-267.14"/>
</a>
</g>
</g>
<!-- Node14&#45;&gt;Node10 -->
<g id="edge16_Node000014_Node000010" class="edge">
<title>Node14&#45;&gt;Node10</title>
<g id="a_edge16_Node000014_Node000010"><a xlink:title=" ">
<path fill="none" stroke="#63b8ff" d="M546.49,-271.67C552.28,-274.19 557.89,-277.11 563,-280.5 583.78,-294.27 578.05,-309.99 599,-323.5 605.19,-327.49 612.06,-330.8 619.13,-333.53"/>
<polygon fill="#63b8ff" stroke="#63b8ff" points="618.26,-336.93 628.85,-336.93 620.56,-330.33 618.26,-336.93"/>
</a>
</g>
</g>
<!-- Node14&#45;&gt;Node12 -->
<g id="edge17_Node000014_Node000012" class="edge">
<title>Node14&#45;&gt;Node12</title>
<g id="a_edge17_Node000014_Node000012"><a xlink:title=" ">
<path fill="none" stroke="#63b8ff" d="M546.29,-271.56C573.98,-278.3 606.2,-286.15 632.23,-292.5"/>
<polygon fill="#63b8ff" stroke="#63b8ff" points="631.7,-295.97 642.25,-294.94 633.36,-289.17 631.7,-295.97"/>
</a>
</g>
</g>
<!-- Node15&#45;&gt;Node2 -->
<g id="edge24_Node000015_Node000002" class="edge">
<title>Node15&#45;&gt;Node2</title>
<g id="a_edge24_Node000015_Node000002"><a xlink:title=" ">
<path fill="none" stroke="#63b8ff" d="M327.42,-357.02C340.54,-359.92 354.87,-363.22 368,-366.5 384.11,-370.52 387.93,-372.32 404,-376.5 413.07,-378.86 422.75,-381.28 432.11,-383.57"/>
<polygon fill="#63b8ff" stroke="#63b8ff" points="431.55,-387.03 442.1,-385.99 433.21,-380.23 431.55,-387.03"/>
</a>
</g>
</g>
<!-- Node16 -->
<g id="Node000016" class="node">
<title>Node16</title>
<g id="a_Node000016"><a xlink:href="classGraphicClient.html#a6dd918f7ac4761ab4946371df06386ec" target="_top" xlink:title="Creates a monster entity at specified position.">
<polygon fill="white" stroke="#666666" points="563,-367.5 404,-367.5 404,-337.5 563,-337.5 563,-367.5"/>
<text text-anchor="start" x="412" y="-355.5" font-family="Helvetica,sans-Serif" font-size="10.00">GraphicClient::createMonster</text>
<text text-anchor="middle" x="483.5" y="-344.5" font-family="Helvetica,sans-Serif" font-size="10.00">Entity</text>
</a>
</g>
</g>
<!-- Node15&#45;&gt;Node16 -->
<g id="edge21_Node000015_Node000016" class="edge">
<title>Node15&#45;&gt;Node16</title>
<g id="a_edge21_Node000015_Node000016"><a xlink:title=" ">
<path fill="none" stroke="#63b8ff" d="M359.54,-349.43C370.66,-349.7 382.18,-349.99 393.51,-350.28"/>
<polygon fill="#63b8ff" stroke="#63b8ff" points="393.76,-353.78 403.85,-350.53 393.94,-346.78 393.76,-353.78"/>
</a>
</g>
</g>
<!-- Node16&#45;&gt;Node10 -->
<g id="edge22_Node000016_Node000010" class="edge">
<title>Node16&#45;&gt;Node10</title>
<g id="a_edge22_Node000016_Node000010"><a xlink:title=" ">
<path fill="none" stroke="#63b8ff" d="M563.21,-350.1C580.16,-349.59 597.93,-349.05 614.39,-348.54"/>
<polygon fill="#63b8ff" stroke="#63b8ff" points="614.56,-352.04 624.45,-348.24 614.35,-345.04 614.56,-352.04"/>
</a>
</g>
</g>
<!-- Node16&#45;&gt;Node12 -->
<g id="edge23_Node000016_Node000012" class="edge">
<title>Node16&#45;&gt;Node12</title>
<g id="a_edge23_Node000016_Node000012"><a xlink:title=" ">
<path fill="none" stroke="#63b8ff" d="M546.29,-337.44C573.98,-330.7 606.2,-322.85 632.23,-316.5"/>
<polygon fill="#63b8ff" stroke="#63b8ff" points="633.36,-319.83 642.25,-314.06 631.7,-313.03 633.36,-319.83"/>
</a>
</g>
</g>
<!-- Node17&#45;&gt;Node2 -->
<g id="edge26_Node000017_Node000002" class="edge">
<title>Node17&#45;&gt;Node2</title>
<g id="a_edge26_Node000017_Node000002"><a xlink:title=" ">
<path fill="none" stroke="#63b8ff" d="M354.7,-388.47C374.9,-389.58 396.75,-390.78 416.56,-391.87"/>
<polygon fill="#63b8ff" stroke="#63b8ff" points="416.55,-395.38 426.72,-392.43 416.93,-388.39 416.55,-395.38"/>
</a>
</g>
</g>
<!-- Node19 -->
<g id="Node000019" class="node">
<title>Node19</title>
<g id="a_Node000019"><a xlink:href="classRaylib_1_1Input.html#a4cd5c6122b4771997efbb9ef2d3c4771" target="_top" xlink:title="Checks if a key is currently pressed down.">
<polygon fill="white" stroke="#666666" points="552.5,-19 414.5,-19 414.5,0 552.5,0 552.5,-19"/>
<text text-anchor="middle" x="483.5" y="-7" font-family="Helvetica,sans-Serif" font-size="10.00">Raylib::Input::isKeyDown</text>
</a>
</g>
</g>
<!-- Node18&#45;&gt;Node19 -->
<g id="edge28_Node000018_Node000019" class="edge">
<title>Node18&#45;&gt;Node19</title>
<g id="a_edge28_Node000018_Node000019"><a xlink:title=" ">
<path fill="none" stroke="#63b8ff" d="M313.09,-54.97C337.58,-47.45 372.88,-36.87 404,-28.5 412.85,-26.12 422.3,-23.72 431.46,-21.46"/>
<polygon fill="#63b8ff" stroke="#63b8ff" points="432.37,-24.84 441.25,-19.07 430.71,-18.04 432.37,-24.84"/>
</a>
</g>
</g>
<!-- Node20 -->
<g id="Node000020" class="node">
<title>Node20</title>
<g id="a_Node000020"><a xlink:href="classRaylib_1_1Input.html#a77b20ab7de1540d7cc5c18f71b137a12" target="_top" xlink:title="Checks if a key was just pressed this frame.">
<polygon fill="white" stroke="#666666" points="558,-130 409,-130 409,-111 558,-111 558,-130"/>
<text text-anchor="middle" x="483.5" y="-118" font-family="Helvetica,sans-Serif" font-size="10.00">Raylib::Input::isKeyPressed</text>
</a>
</g>
</g>
<!-- Node18&#45;&gt;Node20 -->
<g id="edge29_Node000018_Node000020" class="edge">
<title>Node18&#45;&gt;Node20</title>
<g id="a_edge29_Node000018_Node000020"><a xlink:title=" ">
<path fill="none" stroke="#63b8ff" d="M336.04,-74.09C346.78,-76.66 357.87,-79.78 368,-83.5 384.98,-89.74 387.04,-96.2 404,-102.5 409.85,-104.67 416.04,-106.63 422.29,-108.39"/>
<polygon fill="#63b8ff" stroke="#63b8ff" points="421.53,-111.81 432.09,-110.99 423.32,-105.05 421.53,-111.81"/>
</a>
</g>
</g>
<!-- Node21 -->
<g id="Node000021" class="node">
<title>Node21</title>
<g id="a_Node000021"><a xlink:href="classNetworkClient.html#afdfce51c7dbb2e61f5e9280b15368915" target="_top" xlink:title="Send player input over UDP.">
<polygon fill="white" stroke="#666666" points="553.5,-56 413.5,-56 413.5,-37 553.5,-37 553.5,-56"/>
<text text-anchor="middle" x="483.5" y="-44" font-family="Helvetica,sans-Serif" font-size="10.00">NetworkClient::sendInput</text>
</a>
</g>
</g>
<!-- Node18&#45;&gt;Node21 -->
<g id="edge30_Node000018_Node000021" class="edge">
<title>Node18&#45;&gt;Node21</title>
<g id="a_edge30_Node000018_Node000021"><a xlink:title=" ">
<path fill="none" stroke="#63b8ff" d="M340.62,-59.27C360.14,-57.51 382.27,-55.52 403.14,-53.64"/>
<polygon fill="#63b8ff" stroke="#63b8ff" points="403.62,-57.11 413.27,-52.73 402.99,-50.14 403.62,-57.11"/>
</a>
</g>
</g>
<!-- Node26 -->
<g id="Node000026" class="node">
<title>Node26</title>
<g id="a_Node000026"><a xlink:href="classNetworkClient.html#a2773882369d758cbb23aa67b0dda78ed" target="_top" xlink:title="Send a shoot command over UDP.">
<polygon fill="white" stroke="#666666" points="555,-93 412,-93 412,-74 555,-74 555,-93"/>
<text text-anchor="middle" x="483.5" y="-81" font-family="Helvetica,sans-Serif" font-size="10.00">NetworkClient::sendShoot</text>
</a>
</g>
</g>
<!-- Node18&#45;&gt;Node26 -->
<g id="edge35_Node000018_Node000026" class="edge">
<title>Node18&#45;&gt;Node26</title>
<g id="a_edge35_Node000018_Node000026"><a xlink:title=" ">
<path fill="none" stroke="#63b8ff" d="M340.62,-70.02C359.75,-71.84 381.37,-73.89 401.87,-75.84"/>
<polygon fill="#63b8ff" stroke="#63b8ff" points="401.54,-79.32 411.82,-76.79 402.2,-72.36 401.54,-79.32"/>
</a>
</g>
</g>
<!-- Node22 -->
<g id="Node000022" class="node">
<title>Node22</title>
<g id="a_Node000022"><a xlink:href="classNetworkClient.html#a6c612ab362cc3e4ea8c94ebc2cddc4e6" target="_top" xlink:title=" ">
<polygon fill="white" stroke="#666666" points="766,-75 599,-75 599,-56 766,-56 766,-75"/>
<text text-anchor="middle" x="682.5" y="-63" font-family="Helvetica,sans-Serif" font-size="10.00">NetworkClient::sendPacketUdp</text>
</a>
</g>
</g>
<!-- Node21&#45;&gt;Node22 -->
<g id="edge31_Node000021_Node000022" class="edge">
<title>Node21&#45;&gt;Node22</title>
<g id="a_edge31_Node000021_Node000022"><a xlink:title=" ">
<path fill="none" stroke="#63b8ff" d="M553.68,-53.17C565,-54.26 576.88,-55.41 588.66,-56.55"/>
<polygon fill="#63b8ff" stroke="#63b8ff" points="588.68,-60.06 598.97,-57.54 589.35,-53.1 588.68,-60.06"/>
</a>
</g>
</g>
<!-- Node23 -->
<g id="Node000023" class="node">
<title>Node23</title>
<g id="a_Node000023"><a xlink:href="classNetworkClient.html#aaf60f1216a17b46ad12539625a1022c2" target="_top" xlink:title=" ">
<polygon fill="white" stroke="#666666" points="947,-112 820,-112 820,-93 947,-93 947,-112"/>
<text text-anchor="middle" x="883.5" y="-100" font-family="Helvetica,sans-Serif" font-size="10.00">NetworkClient::nowMs</text>
</a>
</g>
</g>
<!-- Node22&#45;&gt;Node23 -->
<g id="edge32_Node000022_Node000023" class="edge">
<title>Node22&#45;&gt;Node23</title>
<g id="a_edge32_Node000022_Node000023"><a xlink:title=" ">
<path fill="none" stroke="#63b8ff" d="M734.75,-75.03C761.11,-79.93 793.43,-85.94 821.11,-91.09"/>
<polygon fill="#63b8ff" stroke="#63b8ff" points="820.61,-94.55 831.08,-92.94 821.89,-87.67 820.61,-94.55"/>
</a>
</g>
</g>
<!-- Node24 -->
<g id="Node000024" class="node">
<title>Node24</title>
<g id="a_Node000024"><a xlink:href="classPacket.html#aa88c2d28796644c8a1d6137996502ca8" target="_top" xlink:title="Serialize the packet to a byte buffer ready to send.">
<polygon fill="white" stroke="#666666" points="931,-75 836,-75 836,-56 931,-56 931,-75"/>
<text text-anchor="middle" x="883.5" y="-63" font-family="Helvetica,sans-Serif" font-size="10.00">Packet::serialize</text>
</a>
</g>
</g>
<!-- Node22&#45;&gt;Node24 -->
<g id="edge33_Node000022_Node000024" class="edge">
<title>Node22&#45;&gt;Node24</title>
<g id="a_edge33_Node000022_Node000024"><a xlink:title=" ">
<path fill="none" stroke="#63b8ff" d="M766.17,-65.5C786.26,-65.5 807.29,-65.5 825.87,-65.5"/>
<polygon fill="#63b8ff" stroke="#63b8ff" points="825.91,-69 835.91,-65.5 825.91,-62 825.91,-69"/>
</a>
</g>
</g>
<!-- Node25 -->
<g id="Node000025" class="node">
<title>Node25</title>
<g id="a_Node000025"><a xlink:href="classNetworkClient.html#a36892dcdc8c2523b27947a347ea16022" target="_top" xlink:title=" ">
<polygon fill="white" stroke="#666666" points="956.5,-37.5 810.5,-37.5 810.5,-7.5 956.5,-7.5 956.5,-37.5"/>
<text text-anchor="start" x="818.5" y="-25.5" font-family="Helvetica,sans-Serif" font-size="10.00">NetworkClient::updateUdp</text>
<text text-anchor="middle" x="883.5" y="-14.5" font-family="Helvetica,sans-Serif" font-size="10.00">Rates</text>
</a>
</g>
</g>
<!-- Node22&#45;&gt;Node25 -->
<g id="edge34_Node000022_Node000025" class="edge">
<title>Node22&#45;&gt;Node25</title>
<g id="a_edge34_Node000022_Node000025"><a xlink:title=" ">
<path fill="none" stroke="#63b8ff" d="M727.66,-55.96C749.8,-51.17 777.3,-45.23 802.95,-39.69"/>
<polygon fill="#63b8ff" stroke="#63b8ff" points="804.02,-43.04 813.05,-37.51 802.54,-36.2 804.02,-43.04"/>
</a>
</g>
</g>
<!-- Node26&#45;&gt;Node22 -->
<g id="edge36_Node000026_Node000022" class="edge">
<title>Node26&#45;&gt;Node22</title>
<g id="a_edge36_Node000026_Node000022"><a xlink:title=" ">
<path fill="none" stroke="#63b8ff" d="M555.07,-77.05C565.88,-76.06 577.19,-75.03 588.41,-74.01"/>
<polygon fill="#63b8ff" stroke="#63b8ff" points="589.03,-77.46 598.67,-73.07 588.39,-70.49 589.03,-77.46"/>
</a>
</g>
</g>
</g>
</svg>
