<?xml version="1.0" encoding="UTF-8" standalone="no"?>
<!DOCTYPE svg PUBLIC "-//W3C//DTD SVG 1.1//EN"
 "http://www.w3.org/Graphics/SVG/1.1/DTD/svg11.dtd">
<!-- Generated by graphviz version 2.43.0 (0)
 -->
<!-- Title: GraphicClient::drawGameBackground Pages: 1 -->
<svg width="423pt" height="64pt"
 viewBox="0.00 0.00 423.00 64.00" xmlns="http://www.w3.org/2000/svg" xmlns:xlink="http://www.w3.org/1999/xlink">
<g id="graph0" class="graph" transform="scale(1 1) rotate(0) translate(4 60)">
<title>GraphicClient::drawGameBackground</title>
<!-- Node1 -->
<g id="Node000001" class="node">
<title>Node1</title>
<g id="a_Node000001"><a xlink:title="Draws the game area background with animations.">
<polygon fill="#999999" stroke="#666666" points="200,-37 0,-37 0,-18 200,-18 200,-37"/>
<text text-anchor="middle" x="100" y="-25" font-family="Helvetica,sans-Serif" font-size="10.00">GraphicClient::drawGameBackground</text>
</a>
</g>
</g>
<!-- Node2 -->
<g id="Node000002" class="node">
<title>Node2</title>
<g id="a_Node000002"><a xlink:href="classRaylib_1_1Window.html#ab5db70ee0a095180020beaa8f134247d" target="_top" xlink:title="Clears background with specified color.">
<polygon fill="white" stroke="#666666" points="415,-56 236,-56 236,-37 415,-37 415,-56"/>
<text text-anchor="middle" x="325.5" y="-44" font-family="Helvetica,sans-Serif" font-size="10.00">Raylib::Window::clearBackground</text>
</a>
</g>
</g>
<!-- Node1&#45;&gt;Node2 -->
<g id="edge1_Node000001_Node000002" class="edge">
<title>Node1&#45;&gt;Node2</title>
<g id="a_edge1_Node000001_Node000002"><a xlink:title=" ">
<path fill="none" stroke="#63b8ff" d="M200.01,-35.92C208.57,-36.64 217.23,-37.38 225.79,-38.11"/>
<polygon fill="#63b8ff" stroke="#63b8ff" points="225.51,-41.6 235.77,-38.96 226.1,-34.62 225.51,-41.6"/>
</a>
</g>
</g>
<!-- Node3 -->
<g id="Node000003" class="node">
<title>Node3</title>
<g id="a_Node000003"><a xlink:href="classRaylib_1_1Draw.html#a1a91623bcea0592d00ae0264d81acd52" target="_top" xlink:title="Draws a rectangle outline.">
<polygon fill="white" stroke="#666666" points="403,-19 248,-19 248,0 403,0 403,-19"/>
<text text-anchor="middle" x="325.5" y="-7" font-family="Helvetica,sans-Serif" font-size="10.00">Raylib::Draw::rectangleLines</text>
</a>
</g>
</g>
<!-- Node1&#45;&gt;Node3 -->
<g id="edge2_Node000001_Node000003" class="edge">
<title>Node1&#45;&gt;Node3</title>
<g id="a_edge2_Node000001_Node000003"><a xlink:title=" ">
<path fill="none" stroke="#63b8ff" d="M200.01,-19.53C212.5,-18.52 225.22,-17.5 237.51,-16.51"/>
<polygon fill="#63b8ff" stroke="#63b8ff" points="238.03,-19.98 247.72,-15.68 237.47,-13 238.03,-19.98"/>
</a>
</g>
</g>
</g>
</svg>
