<?xml version="1.0" encoding="UTF-8" standalone="no"?>
<!DOCTYPE svg PUBLIC "-//W3C//DTD SVG 1.1//EN"
 "http://www.w3.org/Graphics/SVG/1.1/DTD/svg11.dtd">
<!-- Generated by graphviz version 2.43.0 (0)
 -->
<!-- Title: GraphicClient::syncEntities Pages: 1 -->
<svg width="744pt" height="64pt"
 viewBox="0.00 0.00 744.00 64.00" xmlns="http://www.w3.org/2000/svg" xmlns:xlink="http://www.w3.org/1999/xlink">
<g id="graph0" class="graph" transform="scale(1 1) rotate(0) translate(4 60)">
<title>GraphicClient::syncEntities</title>
<!-- Node1 -->
<g id="Node000001" class="node">
<title>Node1</title>
<g id="a_Node000001"><a xlink:title="Synchronizes player entities with server state.">
<polygon fill="#999999" stroke="#666666" points="736,-38 588,-38 588,-19 736,-19 736,-38"/>
<text text-anchor="middle" x="662" y="-26" font-family="Helvetica,sans-Serif" font-size="10.00">GraphicClient::syncEntities</text>
</a>
</g>
</g>
<!-- Node2 -->
<g id="Node000002" class="node">
<title>Node2</title>
<g id="a_Node000002"><a xlink:href="classGraphicClient.html#a4b416d0d2b3f07134ce30afb0c60adbe" target="_top" xlink:title="Initializes the client (connects to server, shows menus).">
<polygon fill="white" stroke="#666666" points="339,-56 235,-56 235,-37 339,-37 339,-56"/>
<text text-anchor="middle" x="287" y="-44" font-family="Helvetica,sans-Serif" font-size="10.00">GraphicClient::init</text>
</a>
</g>
</g>
<!-- Node1&#45;&gt;Node2 -->
<g id="edge1_Node000001_Node000002" class="edge">
<title>Node1&#45;&gt;Node2</title>
<g id="a_edge1_Node000001_Node000002"><a xlink:title=" ">
<path fill="none" stroke="#63b8ff" d="M577.65,-32.52C504.58,-36.05 400.69,-41.06 339.23,-44.03"/>
<polygon fill="#63b8ff" stroke="#63b8ff" points="577.93,-36.01 587.75,-32.03 577.6,-29.02 577.93,-36.01"/>
</a>
</g>
</g>
<!-- Node5 -->
<g id="Node000005" class="node">
<title>Node5</title>
<g id="a_Node000005"><a xlink:href="classGraphicClient.html#a50072266faf2e76ace99e16c4c7b208a" target="_top" xlink:title="Updates all game entities based on delta time.">
<polygon fill="white" stroke="#666666" points="552,-19 393,-19 393,0 552,0 552,-19"/>
<text text-anchor="middle" x="472.5" y="-7" font-family="Helvetica,sans-Serif" font-size="10.00">GraphicClient::updateEntities</text>
</a>
</g>
</g>
<!-- Node1&#45;&gt;Node5 -->
<g id="edge4_Node000001_Node000005" class="edge">
<title>Node1&#45;&gt;Node5</title>
<g id="a_edge4_Node000001_Node000005"><a xlink:title=" ">
<path fill="none" stroke="#63b8ff" d="M577.99,-20.09C569.42,-19.22 560.74,-18.34 552.22,-17.48"/>
<polygon fill="#63b8ff" stroke="#63b8ff" points="577.67,-23.57 587.97,-21.1 578.37,-16.61 577.67,-23.57"/>
</a>
</g>
</g>
<!-- Node3 -->
<g id="Node000003" class="node">
<title>Node3</title>
<g id="a_Node000003"><a xlink:href="classGraphicClient.html#ad39a5f1d7ec30752f8d412d6925ef109" target="_top" xlink:title="Main application loop.">
<polygon fill="white" stroke="#666666" points="181,-37 77,-37 77,-18 181,-18 181,-37"/>
<text text-anchor="middle" x="129" y="-25" font-family="Helvetica,sans-Serif" font-size="10.00">GraphicClient::run</text>
</a>
</g>
</g>
<!-- Node2&#45;&gt;Node3 -->
<g id="edge2_Node000002_Node000003" class="edge">
<title>Node2&#45;&gt;Node3</title>
<g id="a_edge2_Node000002_Node000003"><a xlink:title=" ">
<path fill="none" stroke="#63b8ff" d="M224.62,-39.02C210.24,-37.27 195.07,-35.43 181.19,-33.74"/>
<polygon fill="#63b8ff" stroke="#63b8ff" points="224.57,-42.54 234.92,-40.28 225.42,-35.6 224.57,-42.54"/>
</a>
</g>
</g>
<!-- Node4 -->
<g id="Node000004" class="node">
<title>Node4</title>
<g id="a_Node000004"><a xlink:href="client_8cpp.html#ae66f6b31b5ad750f1fe042a706a4e3d4" target="_top" xlink:title=" ">
<polygon fill="white" stroke="#666666" points="41,-37 0,-37 0,-18 41,-18 41,-37"/>
<text text-anchor="middle" x="20.5" y="-25" font-family="Helvetica,sans-Serif" font-size="10.00">main</text>
</a>
</g>
</g>
<!-- Node3&#45;&gt;Node4 -->
<g id="edge3_Node000003_Node000004" class="edge">
<title>Node3&#45;&gt;Node4</title>
<g id="a_edge3_Node000003_Node000004"><a xlink:title=" ">
<path fill="none" stroke="#63b8ff" d="M66.83,-27.5C57.58,-27.5 48.66,-27.5 41.22,-27.5"/>
<polygon fill="#63b8ff" stroke="#63b8ff" points="66.93,-31 76.93,-27.5 66.93,-24 66.93,-31"/>
</a>
</g>
</g>
<!-- Node6 -->
<g id="Node000006" class="node">
<title>Node6</title>
<g id="a_Node000006"><a xlink:href="classGraphicClient.html#a5cb5c37142e62f04824cc6e21dd199b2" target="_top" xlink:title="Main game loop iteration.">
<polygon fill="white" stroke="#666666" points="357,-19 217,-19 217,0 357,0 357,-19"/>
<text text-anchor="middle" x="287" y="-7" font-family="Helvetica,sans-Serif" font-size="10.00">GraphicClient::gameLoop</text>
</a>
</g>
</g>
<!-- Node5&#45;&gt;Node6 -->
<g id="edge5_Node000005_Node000006" class="edge">
<title>Node5&#45;&gt;Node6</title>
<g id="a_edge5_Node000005_Node000006"><a xlink:title=" ">
<path fill="none" stroke="#63b8ff" d="M382.81,-9.5C374.21,-9.5 365.57,-9.5 357.2,-9.5"/>
<polygon fill="#63b8ff" stroke="#63b8ff" points="382.88,-13 392.88,-9.5 382.88,-6 382.88,-13"/>
</a>
</g>
</g>
<!-- Node6&#45;&gt;Node3 -->
<g id="edge6_Node000006_Node000003" class="edge">
<title>Node6&#45;&gt;Node3</title>
<g id="a_edge6_Node000006_Node000003"><a xlink:title=" ">
<path fill="none" stroke="#63b8ff" d="M206.6,-18.66C198.02,-19.65 189.46,-20.64 181.33,-21.58"/>
<polygon fill="#63b8ff" stroke="#63b8ff" points="207.13,-22.12 216.67,-17.5 206.33,-15.17 207.13,-22.12"/>
</a>
</g>
</g>
</g>
</svg>
