<?xml version="1.0" encoding="UTF-8" standalone="no"?>
<!DOCTYPE svg PUBLIC "-//W3C//DTD SVG 1.1//EN"
 "http://www.w3.org/Graphics/SVG/1.1/DTD/svg11.dtd">
<!-- Generated by graphviz version 2.43.0 (0)
 -->
<!-- Title: NetworkClient::sendShoot Pages: 1 -->
<svg width="536pt" height="113pt"
 viewBox="0.00 0.00 536.00 112.50" xmlns="http://www.w3.org/2000/svg" xmlns:xlink="http://www.w3.org/1999/xlink">
<g id="graph0" class="graph" transform="scale(1 1) rotate(0) translate(4 108.5)">
<title>NetworkClient::sendShoot</title>
<!-- Node1 -->
<g id="Node000001" class="node">
<title>Node1</title>
<g id="a_Node000001"><a xlink:title="Send a shoot command over UDP.">
<polygon fill="#999999" stroke="#666666" points="143,-67.5 0,-67.5 0,-48.5 143,-48.5 143,-67.5"/>
<text text-anchor="middle" x="71.5" y="-55.5" font-family="Helvetica,sans-Serif" font-size="10.00">NetworkClient::sendShoot</text>
</a>
</g>
</g>
<!-- Node2 -->
<g id="Node000002" class="node">
<title>Node2</title>
<g id="a_Node000002"><a xlink:href="classNetworkClient.html#a6c612ab362cc3e4ea8c94ebc2cddc4e6" target="_top" xlink:title=" ">
<polygon fill="white" stroke="#666666" points="346,-67.5 179,-67.5 179,-48.5 346,-48.5 346,-67.5"/>
<text text-anchor="middle" x="262.5" y="-55.5" font-family="Helvetica,sans-Serif" font-size="10.00">NetworkClient::sendPacketUdp</text>
</a>
</g>
</g>
<!-- Node1&#45;&gt;Node2 -->
<g id="edge1_Node000001_Node000002" class="edge">
<title>Node1&#45;&gt;Node2</title>
<g id="a_edge1_Node000001_Node000002"><a xlink:title=" ">
<path fill="none" stroke="#63b8ff" d="M143.15,-58C151.51,-58 160.14,-58 168.75,-58"/>
<polygon fill="#63b8ff" stroke="#63b8ff" points="168.84,-61.5 178.84,-58 168.84,-54.5 168.84,-61.5"/>
</a>
</g>
</g>
<!-- Node3 -->
<g id="Node000003" class="node">
<title>Node3</title>
<g id="a_Node000003"><a xlink:href="classNetworkClient.html#aaf60f1216a17b46ad12539625a1022c2" target="_top" xlink:title=" ">
<polygon fill="white" stroke="#666666" points="518.5,-104.5 391.5,-104.5 391.5,-85.5 518.5,-85.5 518.5,-104.5"/>
<text text-anchor="middle" x="455" y="-92.5" font-family="Helvetica,sans-Serif" font-size="10.00">NetworkClient::nowMs</text>
</a>
</g>
</g>
<!-- Node2&#45;&gt;Node3 -->
<g id="edge2_Node000002_Node000003" class="edge">
<title>Node2&#45;&gt;Node3</title>
<g id="a_edge2_Node000002_Node000003"><a xlink:title=" ">
<path fill="none" stroke="#63b8ff" d="M312.56,-67.53C337.68,-72.41 368.46,-78.39 394.88,-83.52"/>
<polygon fill="#63b8ff" stroke="#63b8ff" points="394.29,-86.97 404.78,-85.44 395.63,-80.1 394.29,-86.97"/>
</a>
</g>
</g>
<!-- Node4 -->
<g id="Node000004" class="node">
<title>Node4</title>
<g id="a_Node000004"><a xlink:href="classPacket.html#aa88c2d28796644c8a1d6137996502ca8" target="_top" xlink:title="Serialize the packet to a byte buffer ready to send.">
<polygon fill="white" stroke="#666666" points="502.5,-67.5 407.5,-67.5 407.5,-48.5 502.5,-48.5 502.5,-67.5"/>
<text text-anchor="middle" x="455" y="-55.5" font-family="Helvetica,sans-Serif" font-size="10.00">Packet::serialize</text>
</a>
</g>
</g>
<!-- Node2&#45;&gt;Node4 -->
<g id="edge3_Node000002_Node000004" class="edge">
<title>Node2&#45;&gt;Node4</title>
<g id="a_edge3_Node000002_Node000004"><a xlink:title=" ">
<path fill="none" stroke="#63b8ff" d="M346.22,-58C363.44,-58 381.21,-58 397.23,-58"/>
<polygon fill="#63b8ff" stroke="#63b8ff" points="397.49,-61.5 407.49,-58 397.49,-54.5 397.49,-61.5"/>
</a>
</g>
</g>
<!-- Node5 -->
<g id="Node000005" class="node">
<title>Node5</title>
<g id="a_Node000005"><a xlink:href="classNetworkClient.html#a36892dcdc8c2523b27947a347ea16022" target="_top" xlink:title=" ">
<polygon fill="white" stroke="#666666" points="528,-30 382,-30 382,0 528,0 528,-30"/>
<text text-anchor="start" x="390" y="-18" font-family="Helvetica,sans-Serif" font-size="10.00">NetworkClient::updateUdp</text>
<text text-anchor="middle" x="455" y="-7" font-family="Helvetica,sans-Serif" font-size="10.00">Rates</text>
</a>
</g>
</g>
<!-- Node2&#45;&gt;Node5 -->
<g id="edge4_Node000002_Node000005" class="edge">
<title>Node2&#45;&gt;Node5</title>
<g id="a_edge4_Node000002_Node000005"><a xlink:title=" ">
<path fill="none" stroke="#63b8ff" d="M305.78,-48.46C326.88,-43.69 353.06,-37.78 377.52,-32.26"/>
<polygon fill="#63b8ff" stroke="#63b8ff" points="378.53,-35.62 387.52,-30.01 376.99,-28.79 378.53,-35.62"/>
</a>
</g>
</g>
</g>
</svg>
