<?xml version="1.0" encoding="UTF-8" standalone="no"?>
<!DOCTYPE svg PUBLIC "-//W3C//DTD SVG 1.1//EN"
 "http://www.w3.org/Graphics/SVG/1.1/DTD/svg11.dtd">
<!-- Generated by graphviz version 2.43.0 (0)
 -->
<!-- Title: NetworkClient::ensureUdp Pages: 1 -->
<svg width="744pt" height="114pt"
 viewBox="0.00 0.00 744.00 113.50" xmlns="http://www.w3.org/2000/svg" xmlns:xlink="http://www.w3.org/1999/xlink">
<g id="graph0" class="graph" transform="scale(1 1) rotate(0) translate(4 109.5)">
<title>NetworkClient::ensureUdp</title>
<!-- Node1 -->
<g id="Node000001" class="node">
<title>Node1</title>
<g id="a_Node000001"><a xlink:title="Ensure UDP socket exists.">
<polygon fill="#999999" stroke="#666666" points="736,-57 591,-57 591,-38 736,-38 736,-57"/>
<text text-anchor="middle" x="663.5" y="-45" font-family="Helvetica,sans-Serif" font-size="10.00">NetworkClient::ensureUdp</text>
</a>
</g>
</g>
<!-- Node2 -->
<g id="Node000002" class="node">
<title>Node2</title>
<g id="a_Node000002"><a xlink:href="classNetworkClient.html#aaeedfac221d22aa5df4135b1680c4c99" target="_top" xlink:title="Create a TCP connection and ensure UDP socket exists.">
<polygon fill="white" stroke="#666666" points="555,-105.5 414,-105.5 414,-75.5 555,-75.5 555,-105.5"/>
<text text-anchor="start" x="422" y="-93.5" font-family="Helvetica,sans-Serif" font-size="10.00">NetworkClient::connectTo</text>
<text text-anchor="middle" x="484.5" y="-82.5" font-family="Helvetica,sans-Serif" font-size="10.00">Server</text>
</a>
</g>
</g>
<!-- Node1&#45;&gt;Node2 -->
<g id="edge1_Node000001_Node000002" class="edge">
<title>Node1&#45;&gt;Node2</title>
<g id="a_edge1_Node000001_Node000002"><a xlink:title=" ">
<path fill="none" stroke="#63b8ff" d="M613.47,-59.41C592.98,-64.39 568.95,-70.23 547.27,-75.49"/>
<polygon fill="#63b8ff" stroke="#63b8ff" points="614.33,-62.8 623.22,-57.04 612.67,-56 614.33,-62.8"/>
</a>
</g>
</g>
<!-- Node3 -->
<g id="Node000003" class="node">
<title>Node3</title>
<g id="a_Node000003"><a xlink:href="classGraphicClient.html#a4b416d0d2b3f07134ce30afb0c60adbe" target="_top" xlink:title="Initializes the client (connects to server, shows menus).">
<polygon fill="white" stroke="#666666" points="349.5,-57 245.5,-57 245.5,-38 349.5,-38 349.5,-57"/>
<text text-anchor="middle" x="297.5" y="-45" font-family="Helvetica,sans-Serif" font-size="10.00">GraphicClient::init</text>
</a>
</g>
</g>
<!-- Node1&#45;&gt;Node3 -->
<g id="edge5_Node000001_Node000003" class="edge">
<title>Node1&#45;&gt;Node3</title>
<g id="a_edge5_Node000001_Node000003"><a xlink:title=" ">
<path fill="none" stroke="#63b8ff" d="M580.36,-47.5C509.59,-47.5 409.64,-47.5 349.73,-47.5"/>
<polygon fill="#63b8ff" stroke="#63b8ff" points="580.59,-51 590.59,-47.5 580.59,-44 580.59,-51"/>
</a>
</g>
</g>
<!-- Node6 -->
<g id="Node000006" class="node">
<title>Node6</title>
<g id="a_Node000006"><a xlink:href="classNetworkClient.html#a92915cb59bb0f4e98f30c1a36964d989" target="_top" xlink:title="Reset state when entering a lobby.">
<polygon fill="white" stroke="#666666" points="378,-19 217,-19 217,0 378,0 378,-19"/>
<text text-anchor="middle" x="297.5" y="-7" font-family="Helvetica,sans-Serif" font-size="10.00">NetworkClient::resetForLobby</text>
</a>
</g>
</g>
<!-- Node1&#45;&gt;Node6 -->
<g id="edge6_Node000001_Node000006" class="edge">
<title>Node1&#45;&gt;Node6</title>
<g id="a_edge6_Node000001_Node000006"><a xlink:title=" ">
<path fill="none" stroke="#63b8ff" d="M580.31,-38.92C519.83,-32.61 438.05,-24.07 378.17,-17.82"/>
<polygon fill="#63b8ff" stroke="#63b8ff" points="580.28,-42.44 590.59,-39.99 581,-35.47 580.28,-42.44"/>
</a>
</g>
</g>
<!-- Node2&#45;&gt;Node3 -->
<g id="edge2_Node000002_Node000003" class="edge">
<title>Node2&#45;&gt;Node3</title>
<g id="a_edge2_Node000002_Node000003"><a xlink:title=" ">
<path fill="none" stroke="#63b8ff" d="M408.77,-73.13C385.11,-67.63 359.84,-61.76 339.47,-57.02"/>
<polygon fill="#63b8ff" stroke="#63b8ff" points="408.26,-76.61 418.8,-75.46 409.85,-69.79 408.26,-76.61"/>
</a>
</g>
</g>
<!-- Node4 -->
<g id="Node000004" class="node">
<title>Node4</title>
<g id="a_Node000004"><a xlink:href="classGraphicClient.html#ad39a5f1d7ec30752f8d412d6925ef109" target="_top" xlink:title="Main application loop.">
<polygon fill="white" stroke="#666666" points="181,-38 77,-38 77,-19 181,-19 181,-38"/>
<text text-anchor="middle" x="129" y="-26" font-family="Helvetica,sans-Serif" font-size="10.00">GraphicClient::run</text>
</a>
</g>
</g>
<!-- Node3&#45;&gt;Node4 -->
<g id="edge3_Node000003_Node000004" class="edge">
<title>Node3&#45;&gt;Node4</title>
<g id="a_edge3_Node000003_Node000004"><a xlink:title=" ">
<path fill="none" stroke="#63b8ff" d="M234.95,-40.48C217.25,-38.46 198.14,-36.28 181.14,-34.34"/>
<polygon fill="#63b8ff" stroke="#63b8ff" points="234.85,-43.99 245.19,-41.64 235.65,-37.03 234.85,-43.99"/>
</a>
</g>
</g>
<!-- Node5 -->
<g id="Node000005" class="node">
<title>Node5</title>
<g id="a_Node000005"><a xlink:href="client_8cpp.html#ae66f6b31b5ad750f1fe042a706a4e3d4" target="_top" xlink:title=" ">
<polygon fill="white" stroke="#666666" points="41,-38 0,-38 0,-19 41,-19 41,-38"/>
<text text-anchor="middle" x="20.5" y="-26" font-family="Helvetica,sans-Serif" font-size="10.00">main</text>
</a>
</g>
</g>
<!-- Node4&#45;&gt;Node5 -->
<g id="edge4_Node000004_Node000005" class="edge">
<title>Node4&#45;&gt;Node5</title>
<g id="a_edge4_Node000004_Node000005"><a xlink:title=" ">
<path fill="none" stroke="#63b8ff" d="M66.83,-28.5C57.58,-28.5 48.66,-28.5 41.22,-28.5"/>
<polygon fill="#63b8ff" stroke="#63b8ff" points="66.93,-32 76.93,-28.5 66.93,-25 66.93,-32"/>
</a>
</g>
</g>
<!-- Node6&#45;&gt;Node4 -->
<g id="edge7_Node000006_Node000004" class="edge">
<title>Node6&#45;&gt;Node4</title>
<g id="a_edge7_Node000006_Node000004"><a xlink:title=" ">
<path fill="none" stroke="#63b8ff" d="M206.52,-19.77C197.9,-20.75 189.38,-21.72 181.33,-22.64"/>
<polygon fill="#63b8ff" stroke="#63b8ff" points="207.13,-23.22 216.66,-18.61 206.33,-16.27 207.13,-23.22"/>
</a>
</g>
</g>
</g>
</svg>
