<?xml version="1.0" encoding="UTF-8" standalone="no"?>
<!DOCTYPE svg PUBLIC "-//W3C//DTD SVG 1.1//EN"
 "http://www.w3.org/Graphics/SVG/1.1/DTD/svg11.dtd">
<!-- Generated by graphviz version 2.43.0 (0)
 -->
<!-- Title: Raylib::Window::getFrameTime Pages: 1 -->
<svg width="933pt" height="177pt"
 viewBox="0.00 0.00 933.00 177.00" xmlns="http://www.w3.org/2000/svg" xmlns:xlink="http://www.w3.org/1999/xlink">
<g id="graph0" class="graph" transform="scale(1 1) rotate(0) translate(4 173)">
<title>Raylib::Window::getFrameTime</title>
<!-- Node1 -->
<g id="Node000001" class="node">
<title>Node1</title>
<g id="a_Node000001"><a xlink:title="Gets time delta since last frame.">
<polygon fill="#999999" stroke="#666666" points="925,-94 756,-94 756,-75 925,-75 925,-94"/>
<text text-anchor="middle" x="840.5" y="-82" font-family="Helvetica,sans-Serif" font-size="10.00">Raylib::Window::getFrameTime</text>
</a>
</g>
</g>
<!-- Node2 -->
<g id="Node000002" class="node">
<title>Node2</title>
<g id="a_Node000002"><a xlink:href="classGraphicClient.html#a5cb5c37142e62f04824cc6e21dd199b2" target="_top" xlink:title="Main game loop iteration.">
<polygon fill="white" stroke="#666666" points="511.5,-169 371.5,-169 371.5,-150 511.5,-150 511.5,-169"/>
<text text-anchor="middle" x="441.5" y="-157" font-family="Helvetica,sans-Serif" font-size="10.00">GraphicClient::gameLoop</text>
</a>
</g>
</g>
<!-- Node1&#45;&gt;Node2 -->
<g id="edge1_Node000001_Node000002" class="edge">
<title>Node1&#45;&gt;Node2</title>
<g id="a_edge1_Node000001_Node000002"><a xlink:title=" ">
<path fill="none" stroke="#63b8ff" d="M800.02,-97.14C776.89,-104.19 747,-112.69 720,-118.5 649.66,-133.64 568.07,-144.96 511.66,-151.83"/>
<polygon fill="#63b8ff" stroke="#63b8ff" points="801.29,-100.41 809.82,-94.12 799.23,-93.72 801.29,-100.41"/>
</a>
</g>
</g>
<!-- Node5 -->
<g id="Node000005" class="node">
<title>Node5</title>
<g id="a_Node000005"><a xlink:href="classGraphicClient.html#a70229e3e019e7b315f06c9ad74f23be5" target="_top" xlink:title="Shows lobby selection menu.">
<polygon fill="white" stroke="#666666" points="515,-131 368,-131 368,-112 515,-112 515,-131"/>
<text text-anchor="middle" x="441.5" y="-119" font-family="Helvetica,sans-Serif" font-size="10.00">GraphicClient::selectLobby</text>
</a>
</g>
</g>
<!-- Node1&#45;&gt;Node5 -->
<g id="edge4_Node000001_Node000005" class="edge">
<title>Node1&#45;&gt;Node5</title>
<g id="a_edge4_Node000001_Node000005"><a xlink:title=" ">
<path fill="none" stroke="#63b8ff" d="M751.36,-95.17C740.8,-96.35 730.16,-97.48 720,-98.5 650.49,-105.45 571.04,-111.88 515.01,-116.17"/>
<polygon fill="#63b8ff" stroke="#63b8ff" points="751.9,-98.63 761.44,-94.03 751.11,-91.67 751.9,-98.63"/>
</a>
</g>
</g>
<!-- Node7 -->
<g id="Node000007" class="node">
<title>Node7</title>
<g id="a_Node000007"><a xlink:href="classGraphicClient.html#a2d663515d7165fbe3533e038b5b2e916" target="_top" xlink:title="Shows main menu with server connection options.">
<polygon fill="white" stroke="#666666" points="526,-94 357,-94 357,-75 526,-75 526,-94"/>
<text text-anchor="middle" x="441.5" y="-82" font-family="Helvetica,sans-Serif" font-size="10.00">GraphicClient::selectMainMenu</text>
</a>
</g>
</g>
<!-- Node1&#45;&gt;Node7 -->
<g id="edge7_Node000001_Node000007" class="edge">
<title>Node1&#45;&gt;Node7</title>
<g id="a_edge7_Node000001_Node000007"><a xlink:title=" ">
<path fill="none" stroke="#63b8ff" d="M745.71,-84.5C679.05,-84.5 590.33,-84.5 526.09,-84.5"/>
<polygon fill="#63b8ff" stroke="#63b8ff" points="745.79,-88 755.79,-84.5 745.79,-81 745.79,-88"/>
</a>
</g>
</g>
<!-- Node8 -->
<g id="Node000008" class="node">
<title>Node8</title>
<g id="a_Node000008"><a xlink:href="classGraphicClient.html#a14824911dd4c90d0f459ed532aec0dd7" target="_top" xlink:title="Shows pseudo/username input menu.">
<polygon fill="white" stroke="#666666" points="717.5,-19 564.5,-19 564.5,0 717.5,0 717.5,-19"/>
<text text-anchor="middle" x="641" y="-7" font-family="Helvetica,sans-Serif" font-size="10.00">GraphicClient::selectPseudo</text>
</a>
</g>
</g>
<!-- Node1&#45;&gt;Node8 -->
<g id="edge9_Node000001_Node000008" class="edge">
<title>Node1&#45;&gt;Node8</title>
<g id="a_edge9_Node000001_Node000008"><a xlink:title=" ">
<path fill="none" stroke="#63b8ff" d="M813.53,-70.07C789.78,-57.38 753.38,-39.15 720,-27.5 710.68,-24.25 700.54,-21.41 690.73,-19.02"/>
<polygon fill="#63b8ff" stroke="#63b8ff" points="812.13,-73.29 822.59,-74.97 815.46,-67.14 812.13,-73.29"/>
</a>
</g>
</g>
<!-- Node9 -->
<g id="Node000009" class="node">
<title>Node9</title>
<g id="a_Node000009"><a xlink:href="classGraphicClient.html#a349a93e6b861365d4aaa7d7cea0d9ccf" target="_top" xlink:title="Shows controls settings menu for key remapping.">
<polygon fill="white" stroke="#666666" points="720,-56 562,-56 562,-37 720,-37 720,-56"/>
<text text-anchor="middle" x="641" y="-44" font-family="Helvetica,sans-Serif" font-size="10.00">GraphicClient::selectSettings</text>
</a>
</g>
</g>
<!-- Node1&#45;&gt;Node9 -->
<g id="edge11_Node000001_Node000009" class="edge">
<title>Node1&#45;&gt;Node9</title>
<g id="a_edge11_Node000001_Node000009"><a xlink:title=" ">
<path fill="none" stroke="#63b8ff" d="M779.79,-73.01C751.61,-67.59 718.37,-61.19 691.6,-56.04"/>
<polygon fill="#63b8ff" stroke="#63b8ff" points="779.44,-76.51 789.92,-74.96 780.76,-69.63 779.44,-76.51"/>
</a>
</g>
</g>
<!-- Node3 -->
<g id="Node000003" class="node">
<title>Node3</title>
<g id="a_Node000003"><a xlink:href="classGraphicClient.html#ad39a5f1d7ec30752f8d412d6925ef109" target="_top" xlink:title="Main application loop.">
<polygon fill="white" stroke="#666666" points="181,-131 77,-131 77,-112 181,-112 181,-131"/>
<text text-anchor="middle" x="129" y="-119" font-family="Helvetica,sans-Serif" font-size="10.00">GraphicClient::run</text>
</a>
</g>
</g>
<!-- Node2&#45;&gt;Node3 -->
<g id="edge2_Node000002_Node000003" class="edge">
<title>Node2&#45;&gt;Node3</title>
<g id="a_edge2_Node000002_Node000003"><a xlink:title=" ">
<path fill="none" stroke="#63b8ff" d="M361.21,-149.8C304.62,-142.87 230.15,-133.76 181.22,-127.77"/>
<polygon fill="#63b8ff" stroke="#63b8ff" points="360.85,-153.28 371.2,-151.02 361.7,-146.33 360.85,-153.28"/>
</a>
</g>
</g>
<!-- Node4 -->
<g id="Node000004" class="node">
<title>Node4</title>
<g id="a_Node000004"><a xlink:href="client_8cpp.html#ae66f6b31b5ad750f1fe042a706a4e3d4" target="_top" xlink:title=" ">
<polygon fill="white" stroke="#666666" points="41,-131 0,-131 0,-112 41,-112 41,-131"/>
<text text-anchor="middle" x="20.5" y="-119" font-family="Helvetica,sans-Serif" font-size="10.00">main</text>
</a>
</g>
</g>
<!-- Node3&#45;&gt;Node4 -->
<g id="edge3_Node000003_Node000004" class="edge">
<title>Node3&#45;&gt;Node4</title>
<g id="a_edge3_Node000003_Node000004"><a xlink:title=" ">
<path fill="none" stroke="#63b8ff" d="M66.83,-121.5C57.58,-121.5 48.66,-121.5 41.22,-121.5"/>
<polygon fill="#63b8ff" stroke="#63b8ff" points="66.93,-125 76.93,-121.5 66.93,-118 66.93,-125"/>
</a>
</g>
</g>
<!-- Node6 -->
<g id="Node000006" class="node">
<title>Node6</title>
<g id="a_Node000006"><a xlink:href="classGraphicClient.html#a4b416d0d2b3f07134ce30afb0c60adbe" target="_top" xlink:title="Initializes the client (connects to server, shows menus).">
<polygon fill="white" stroke="#666666" points="321,-112 217,-112 217,-93 321,-93 321,-112"/>
<text text-anchor="middle" x="269" y="-100" font-family="Helvetica,sans-Serif" font-size="10.00">GraphicClient::init</text>
</a>
</g>
</g>
<!-- Node5&#45;&gt;Node6 -->
<g id="edge5_Node000005_Node000006" class="edge">
<title>Node5&#45;&gt;Node6</title>
<g id="a_edge5_Node000005_Node000006"><a xlink:title=" ">
<path fill="none" stroke="#63b8ff" d="M357.73,-112.28C345.26,-110.89 332.72,-109.49 321.18,-108.2"/>
<polygon fill="#63b8ff" stroke="#63b8ff" points="357.37,-115.76 367.7,-113.39 358.15,-108.8 357.37,-115.76"/>
</a>
</g>
</g>
<!-- Node6&#45;&gt;Node3 -->
<g id="edge6_Node000006_Node000003" class="edge">
<title>Node6&#45;&gt;Node3</title>
<g id="a_edge6_Node000006_Node000003"><a xlink:title=" ">
<path fill="none" stroke="#63b8ff" d="M206.5,-110.97C198.13,-112.12 189.6,-113.29 181.43,-114.42"/>
<polygon fill="#63b8ff" stroke="#63b8ff" points="207.18,-114.41 216.61,-109.57 206.23,-107.47 207.18,-114.41"/>
</a>
</g>
</g>
<!-- Node7&#45;&gt;Node6 -->
<g id="edge8_Node000007_Node000006" class="edge">
<title>Node7&#45;&gt;Node6</title>
<g id="a_edge8_Node000007_Node000006"><a xlink:title=" ">
<path fill="none" stroke="#63b8ff" d="M346.53,-94.42C337.85,-95.34 329.3,-96.24 321.23,-97.09"/>
<polygon fill="#63b8ff" stroke="#63b8ff" points="347.17,-97.87 356.75,-93.34 346.44,-90.91 347.17,-97.87"/>
</a>
</g>
</g>
<!-- Node8&#45;&gt;Node6 -->
<g id="edge10_Node000008_Node000006" class="edge">
<title>Node8&#45;&gt;Node6</title>
<g id="a_edge10_Node000008_Node000006"><a xlink:title=" ">
<path fill="none" stroke="#63b8ff" d="M564.37,-20.64C506.8,-30.1 425.98,-45.5 357,-66.5 333.39,-73.69 307.36,-84.92 289.98,-92.93"/>
<polygon fill="#63b8ff" stroke="#63b8ff" points="565.17,-24.06 574.48,-19 564.05,-17.15 565.17,-24.06"/>
</a>
</g>
</g>
<!-- Node9&#45;&gt;Node7 -->
<g id="edge12_Node000009_Node000007" class="edge">
<title>Node9&#45;&gt;Node7</title>
<g id="a_edge12_Node000009_Node000007"><a xlink:title=" ">
<path fill="none" stroke="#63b8ff" d="M580.29,-57.99C552.11,-63.41 518.87,-69.81 492.1,-74.96"/>
<polygon fill="#63b8ff" stroke="#63b8ff" points="581.26,-61.37 590.42,-56.04 579.94,-54.49 581.26,-61.37"/>
</a>
</g>
</g>
</g>
</svg>
