<?xml version="1.0" encoding="UTF-8" standalone="no"?>
<!DOCTYPE svg PUBLIC "-//W3C//DTD SVG 1.1//EN"
 "http://www.w3.org/Graphics/SVG/1.1/DTD/svg11.dtd">
<!-- Generated by graphviz version 2.43.0 (0)
 -->
<!-- Title: GraphicClient Pages: 1 -->
<svg width="390pt" height="301pt"
 viewBox="0.00 0.00 390.00 301.46" xmlns="http://www.w3.org/2000/svg" xmlns:xlink="http://www.w3.org/1999/xlink">
<g id="graph0" class="graph" transform="scale(1 1) rotate(0) translate(4 297.46)">
<title>GraphicClient</title>
<!-- Node1 -->
<g id="Node000001" class="node">
<title>Node1</title>
<g id="a_Node000001"><a xlink:title="Main client application managing graphics, networking, and game state.">
<polygon fill="#999999" stroke="#666666" points="382,-150.96 299,-150.96 299,-131.96 382,-131.96 382,-150.96"/>
<text text-anchor="middle" x="340.5" y="-138.96" font-family="Helvetica,sans-Serif" font-size="10.00">GraphicClient</text>
</a>
</g>
</g>
<!-- Node2 -->
<g id="Node000002" class="node">
<title>Node2</title>
<g id="a_Node000002"><a xlink:href="classRaylib_1_1Window.html" target="_top" xlink:title="Encapsulates Raylib window management.">
<polygon fill="white" stroke="#666666" points="114.5,-284.96 22.5,-284.96 22.5,-265.96 114.5,-265.96 114.5,-284.96"/>
<text text-anchor="middle" x="68.5" y="-272.96" font-family="Helvetica,sans-Serif" font-size="10.00">Raylib::Window</text>
</a>
</g>
</g>
<!-- Node2&#45;&gt;Node1 -->
<g id="edge1_Node000001_Node000002" class="edge">
<title>Node2&#45;&gt;Node1</title>
<g id="a_edge1_Node000001_Node000002"><a xlink:title=" ">
<path fill="none" stroke="#9a32cd" stroke-dasharray="5,2" d="M124.55,-282.2C170.3,-284.9 235.12,-281.71 281,-250.46 316.68,-226.16 332.39,-172.82 337.5,-151.03"/>
<polygon fill="#9a32cd" stroke="#9a32cd" points="124.73,-278.71 114.51,-281.5 124.24,-285.69 124.73,-278.71"/>
</a>
</g>
<text text-anchor="middle" x="218" y="-285.46" font-family="Helvetica,sans-Serif" font-size="10.00" fill="grey"> _window</text>
</g>
<!-- Node3 -->
<g id="Node000003" class="node">
<title>Node3</title>
<g id="a_Node000003"><a xlink:href="classNetworkClient.html" target="_top" xlink:title="TCP+UDP client responsible for handshake, lobby, and gameplay packets.">
<polygon fill="white" stroke="#666666" points="111.5,-247.96 25.5,-247.96 25.5,-228.96 111.5,-228.96 111.5,-247.96"/>
<text text-anchor="middle" x="68.5" y="-235.96" font-family="Helvetica,sans-Serif" font-size="10.00">NetworkClient</text>
</a>
</g>
</g>
<!-- Node3&#45;&gt;Node1 -->
<g id="edge2_Node000001_Node000003" class="edge">
<title>Node3&#45;&gt;Node1</title>
<g id="a_edge2_Node000001_Node000003"><a xlink:title=" ">
<path fill="none" stroke="#9a32cd" stroke-dasharray="5,2" d="M121.62,-237.66C175.23,-236.03 254.53,-231.13 281,-216.46 308.3,-201.33 327.18,-167.66 335.19,-151.07"/>
<polygon fill="#9a32cd" stroke="#9a32cd" points="121.49,-234.16 111.59,-237.94 121.69,-241.16 121.49,-234.16"/>
</a>
</g>
<text text-anchor="middle" x="218" y="-238.46" font-family="Helvetica,sans-Serif" font-size="10.00" fill="grey"> _net</text>
</g>
<!-- Node4 -->
<g id="Node000004" class="node">
<title>Node4</title>
<g id="a_Node000004"><a xlink:href="classGameState.html" target="_top" xlink:title="Client&#45;side container for the latest world state.">
<polygon fill="white" stroke="#666666" points="104,-210.96 33,-210.96 33,-191.96 104,-191.96 104,-210.96"/>
<text text-anchor="middle" x="68.5" y="-198.96" font-family="Helvetica,sans-Serif" font-size="10.00">GameState</text>
</a>
</g>
</g>
<!-- Node4&#45;&gt;Node1 -->
<g id="edge3_Node000001_Node000004" class="edge">
<title>Node4&#45;&gt;Node1</title>
<g id="a_edge3_Node000001_Node000004"><a xlink:title=" ">
<path fill="none" stroke="#9a32cd" stroke-dasharray="5,2" d="M114.36,-203.21C158.14,-203.5 226,-200.13 281,-180.46 299.39,-173.88 317.64,-160.29 328.75,-151.02"/>
<polygon fill="#9a32cd" stroke="#9a32cd" points="114.36,-199.71 104.32,-203.08 114.27,-206.71 114.36,-199.71"/>
</a>
</g>
<text text-anchor="middle" x="218" y="-204.46" font-family="Helvetica,sans-Serif" font-size="10.00" fill="grey"> _state</text>
</g>
<!-- Node5 -->
<g id="Node000005" class="node">
<title>Node5</title>
<g id="a_Node000005"><a xlink:href="classECS.html" target="_top" xlink:title="Entity Component System implementation.">
<polygon fill="white" stroke="#666666" points="86,-170.96 51,-170.96 51,-151.96 86,-151.96 86,-170.96"/>
<text text-anchor="middle" x="68.5" y="-158.96" font-family="Helvetica,sans-Serif" font-size="10.00">ECS</text>
</a>
</g>
</g>
<!-- Node5&#45;&gt;Node1 -->
<g id="edge4_Node000001_Node000005" class="edge">
<title>Node5&#45;&gt;Node1</title>
<g id="a_edge4_Node000001_Node000005"><a xlink:title=" ">
<path fill="none" stroke="#9a32cd" stroke-dasharray="5,2" d="M96.52,-159.46C144.08,-155.94 242.96,-148.61 298.81,-144.47"/>
<polygon fill="#9a32cd" stroke="#9a32cd" points="96.1,-155.98 86.39,-160.21 96.62,-162.96 96.1,-155.98"/>
</a>
</g>
<text text-anchor="middle" x="218" y="-168.46" font-family="Helvetica,sans-Serif" font-size="10.00" fill="grey"> _ecs</text>
<text text-anchor="middle" x="218" y="-157.46" font-family="Helvetica,sans-Serif" font-size="10.00" fill="grey">_uiEcs</text>
</g>
<!-- Node6 -->
<g id="Node000006" class="node">
<title>Node6</title>
<g id="a_Node000006"><a xlink:href="classSpriteRenderSystem.html" target="_top" xlink:title="Renders animated sprite entities with proper coordinate transformation.">
<polygon fill="white" stroke="#666666" points="126.5,-133.96 10.5,-133.96 10.5,-114.96 126.5,-114.96 126.5,-133.96"/>
<text text-anchor="middle" x="68.5" y="-121.96" font-family="Helvetica,sans-Serif" font-size="10.00">SpriteRenderSystem</text>
</a>
</g>
</g>
<!-- Node6&#45;&gt;Node1 -->
<g id="edge5_Node000001_Node000006" class="edge">
<title>Node6&#45;&gt;Node1</title>
<g id="a_edge5_Node000001_Node000006"><a xlink:title=" ">
<path fill="none" stroke="#9a32cd" stroke-dasharray="5,2" d="M136.83,-120.3C178.54,-118.84 233.11,-118.91 281,-125.46 290.81,-126.8 301.3,-129.31 310.65,-131.96"/>
<polygon fill="#9a32cd" stroke="#9a32cd" points="136.64,-116.81 126.79,-120.7 136.91,-123.8 136.64,-116.81"/>
</a>
</g>
<text text-anchor="middle" x="218" y="-128.46" font-family="Helvetica,sans-Serif" font-size="10.00" fill="grey"> _spriteRenderSystem</text>
</g>
<!-- Node7 -->
<g id="Node000007" class="node">
<title>Node7</title>
<g id="a_Node000007"><a xlink:href="classRectangleRenderSystem.html" target="_top" xlink:title="Renders rectangle&#45;based entities with proper coordinate transformation.">
<polygon fill="white" stroke="#666666" points="137,-96.96 0,-96.96 0,-77.96 137,-77.96 137,-96.96"/>
<text text-anchor="middle" x="68.5" y="-84.96" font-family="Helvetica,sans-Serif" font-size="10.00">RectangleRenderSystem</text>
</a>
</g>
</g>
<!-- Node7&#45;&gt;Node1 -->
<g id="edge6_Node000001_Node000007" class="edge">
<title>Node7&#45;&gt;Node1</title>
<g id="a_edge6_Node000001_Node000007"><a xlink:title=" ">
<path fill="none" stroke="#9a32cd" stroke-dasharray="5,2" d="M147.49,-84.86C188.22,-85.7 238.32,-90.22 281,-104.46 298.78,-110.39 316.62,-122.84 327.83,-131.65"/>
<polygon fill="#9a32cd" stroke="#9a32cd" points="147.4,-81.36 137.35,-84.72 147.3,-88.36 147.4,-81.36"/>
</a>
</g>
<text text-anchor="middle" x="218" y="-107.46" font-family="Helvetica,sans-Serif" font-size="10.00" fill="grey"> _rectangleRenderSystem</text>
</g>
<!-- Node8 -->
<g id="Node000008" class="node">
<title>Node8</title>
<g id="a_Node000008"><a xlink:href="classInputSystem.html" target="_top" xlink:title="Handles player input and keyboard key binding management.">
<polygon fill="white" stroke="#666666" points="107.5,-59.96 29.5,-59.96 29.5,-40.96 107.5,-40.96 107.5,-59.96"/>
<text text-anchor="middle" x="68.5" y="-47.96" font-family="Helvetica,sans-Serif" font-size="10.00">InputSystem</text>
</a>
</g>
</g>
<!-- Node8&#45;&gt;Node1 -->
<g id="edge7_Node000001_Node000008" class="edge">
<title>Node8&#45;&gt;Node1</title>
<g id="a_edge7_Node000001_Node000008"><a xlink:title=" ">
<path fill="none" stroke="#9a32cd" stroke-dasharray="5,2" d="M117.58,-44.54C162.52,-41.29 230.12,-42.39 281,-69.46 307.73,-83.68 326.75,-115.85 334.97,-131.93"/>
<polygon fill="#9a32cd" stroke="#9a32cd" points="117.19,-41.06 107.52,-45.37 117.77,-48.04 117.19,-41.06"/>
</a>
</g>
<text text-anchor="middle" x="218" y="-72.46" font-family="Helvetica,sans-Serif" font-size="10.00" fill="grey"> _inputSystem</text>
</g>
<!-- Node9 -->
<g id="Node000009" class="node">
<title>Node9</title>
<g id="a_Node000009"><a xlink:href="classMovementSystem.html" target="_top" xlink:title="Handles entity position updates based on velocity.">
<polygon fill="white" stroke="#666666" points="121.5,-22.96 15.5,-22.96 15.5,-3.96 121.5,-3.96 121.5,-22.96"/>
<text text-anchor="middle" x="68.5" y="-10.96" font-family="Helvetica,sans-Serif" font-size="10.00">MovementSystem</text>
</a>
</g>
</g>
<!-- Node9&#45;&gt;Node1 -->
<g id="edge8_Node000001_Node000009" class="edge">
<title>Node9&#45;&gt;Node1</title>
<g id="a_edge8_Node000001_Node000009"><a xlink:title=" ">
<path fill="none" stroke="#9a32cd" stroke-dasharray="5,2" d="M127.82,-2.69C173.26,2.45 235.97,2.13 281,-27.46 318.55,-52.14 333.27,-108.85 337.8,-131.68"/>
<polygon fill="#9a32cd" stroke="#9a32cd" points="127.31,0.77 117.83,-3.95 128.18,-6.18 127.31,0.77"/>
</a>
</g>
<text text-anchor="middle" x="218" y="-30.46" font-family="Helvetica,sans-Serif" font-size="10.00" fill="grey"> _movementSystem</text>
</g>
</g>
</svg>
