<?xml version="1.0" encoding="UTF-8" standalone="no"?>
<!DOCTYPE svg PUBLIC "-//W3C//DTD SVG 1.1//EN"
 "http://www.w3.org/Graphics/SVG/1.1/DTD/svg11.dtd">
<!-- Generated by graphviz version 2.43.0 (0)
 -->
<!-- Title: TCPServer::ensureLobbyProcess Pages: 1 -->
<svg width="347pt" height="172pt"
 viewBox="0.00 0.00 347.00 172.00" xmlns="http://www.w3.org/2000/svg" xmlns:xlink="http://www.w3.org/1999/xlink">
<g id="graph0" class="graph" transform="scale(1 1) rotate(0) translate(4 168)">
<title>TCPServer::ensureLobbyProcess</title>
<!-- Node1 -->
<g id="Node000001" class="node">
<title>Node1</title>
<g id="a_Node000001"><a xlink:title=" ">
<polygon fill="#999999" stroke="#666666" points="172,-93.5 0,-93.5 0,-74.5 172,-74.5 172,-93.5"/>
<text text-anchor="middle" x="86" y="-81.5" font-family="Helvetica,sans-Serif" font-size="10.00">TCPServer::ensureLobbyProcess</text>
</a>
</g>
</g>
<!-- Node2 -->
<g id="Node000002" class="node">
<title>Node2</title>
<g id="a_Node000002"><a xlink:href="classChildProcessManager.html#af9be1ce64da7e05952b231b22df221a0" target="_top" xlink:title=" ">
<polygon fill="white" stroke="#666666" points="334.5,-164 212.5,-164 212.5,-134 334.5,-134 334.5,-164"/>
<text text-anchor="start" x="220.5" y="-152" font-family="Helvetica,sans-Serif" font-size="10.00">ChildProcessManager</text>
<text text-anchor="middle" x="273.5" y="-141" font-family="Helvetica,sans-Serif" font-size="10.00">::activeCount</text>
</a>
</g>
</g>
<!-- Node1&#45;&gt;Node2 -->
<g id="edge1_Node000001_Node000002" class="edge">
<title>Node1&#45;&gt;Node2</title>
<g id="a_edge1_Node000001_Node000002"><a xlink:title=" ">
<path fill="none" stroke="#63b8ff" d="M114.37,-93.59C141.98,-103.27 185.32,-118.45 219.65,-130.48"/>
<polygon fill="#63b8ff" stroke="#63b8ff" points="218.93,-133.94 229.52,-133.94 221.24,-127.33 218.93,-133.94"/>
</a>
</g>
</g>
<!-- Node3 -->
<g id="Node000003" class="node">
<title>Node3</title>
<g id="a_Node000003"><a xlink:href="classTCPServer.html#a25273652d6d80037ec5bcad8725bd269" target="_top" xlink:title=" ">
<polygon fill="white" stroke="#666666" points="339,-115.5 208,-115.5 208,-96.5 339,-96.5 339,-115.5"/>
<text text-anchor="middle" x="273.5" y="-103.5" font-family="Helvetica,sans-Serif" font-size="10.00">TCPServer::allocatePort</text>
</a>
</g>
</g>
<!-- Node1&#45;&gt;Node3 -->
<g id="edge2_Node000001_Node000003" class="edge">
<title>Node1&#45;&gt;Node3</title>
<g id="a_edge2_Node000001_Node000003"><a xlink:title=" ">
<path fill="none" stroke="#63b8ff" d="M167.28,-93.52C177.31,-94.71 187.54,-95.92 197.48,-97.1"/>
<polygon fill="#63b8ff" stroke="#63b8ff" points="197.38,-100.62 207.72,-98.32 198.21,-93.66 197.38,-100.62"/>
</a>
</g>
</g>
<!-- Node4 -->
<g id="Node000004" class="node">
<title>Node4</title>
<g id="a_Node000004"><a xlink:href="classChildProcessManager.html#a3b7c34be0f81b8a841d4ecd28a837bf6" target="_top" xlink:title=" ">
<polygon fill="white" stroke="#666666" points="334.5,-78 212.5,-78 212.5,-48 334.5,-48 334.5,-78"/>
<text text-anchor="start" x="220.5" y="-66" font-family="Helvetica,sans-Serif" font-size="10.00">ChildProcessManager</text>
<text text-anchor="middle" x="273.5" y="-55" font-family="Helvetica,sans-Serif" font-size="10.00">::maxCount</text>
</a>
</g>
</g>
<!-- Node1&#45;&gt;Node4 -->
<g id="edge3_Node000001_Node000004" class="edge">
<title>Node1&#45;&gt;Node4</title>
<g id="a_edge3_Node000001_Node000004"><a xlink:title=" ">
<path fill="none" stroke="#63b8ff" d="M171.07,-74.48C181.49,-73.3 192.06,-72.11 202.25,-70.95"/>
<polygon fill="#63b8ff" stroke="#63b8ff" points="202.75,-74.42 212.29,-69.82 201.96,-67.46 202.75,-74.42"/>
</a>
</g>
</g>
<!-- Node5 -->
<g id="Node000005" class="node">
<title>Node5</title>
<g id="a_Node000005"><a xlink:href="classChildProcessManager.html#a138e2d098e92a2c6d1ad7b35dadd6541" target="_top" xlink:title="Spawn a UDP game server process.">
<polygon fill="white" stroke="#666666" points="334.5,-30 212.5,-30 212.5,0 334.5,0 334.5,-30"/>
<text text-anchor="start" x="220.5" y="-18" font-family="Helvetica,sans-Serif" font-size="10.00">ChildProcessManager</text>
<text text-anchor="middle" x="273.5" y="-7" font-family="Helvetica,sans-Serif" font-size="10.00">::spawn</text>
</a>
</g>
</g>
<!-- Node1&#45;&gt;Node5 -->
<g id="edge4_Node000001_Node000005" class="edge">
<title>Node1&#45;&gt;Node5</title>
<g id="a_edge4_Node000001_Node000005"><a xlink:title=" ">
<path fill="none" stroke="#63b8ff" d="M112.79,-74.41C141,-63.91 186.9,-46.84 222.28,-33.68"/>
<polygon fill="#63b8ff" stroke="#63b8ff" points="223.8,-36.85 231.95,-30.08 221.36,-30.29 223.8,-36.85"/>
</a>
</g>
</g>
</g>
</svg>
