<?xml version="1.0" encoding="UTF-8" standalone="no"?>
<!DOCTYPE svg PUBLIC "-//W3C//DTD SVG 1.1//EN"
 "http://www.w3.org/Graphics/SVG/1.1/DTD/svg11.dtd">
<!-- Generated by graphviz version 2.43.0 (0)
 -->
<!-- Title: NetworkClient::readUdpPacket Pages: 1 -->
<svg width="355pt" height="113pt"
 viewBox="0.00 0.00 355.00 112.50" xmlns="http://www.w3.org/2000/svg" xmlns:xlink="http://www.w3.org/1999/xlink">
<g id="graph0" class="graph" transform="scale(1 1) rotate(0) translate(4 108.5)">
<title>NetworkClient::readUdpPacket</title>
<!-- Node1 -->
<g id="Node000001" class="node">
<title>Node1</title>
<g id="a_Node000001"><a xlink:title=" ">
<polygon fill="#999999" stroke="#666666" points="165,-67.5 0,-67.5 0,-48.5 165,-48.5 165,-67.5"/>
<text text-anchor="middle" x="82.5" y="-55.5" font-family="Helvetica,sans-Serif" font-size="10.00">NetworkClient::readUdpPacket</text>
</a>
</g>
</g>
<!-- Node2 -->
<g id="Node000002" class="node">
<title>Node2</title>
<g id="a_Node000002"><a xlink:href="classPacket.html#abfcd427a2ca434ac71592334517638fb" target="_top" xlink:title="Deserialize a packet from a raw byte buffer.">
<polygon fill="white" stroke="#666666" points="327.5,-104.5 220.5,-104.5 220.5,-85.5 327.5,-85.5 327.5,-104.5"/>
<text text-anchor="middle" x="274" y="-92.5" font-family="Helvetica,sans-Serif" font-size="10.00">Packet::deserialize</text>
</a>
</g>
</g>
<!-- Node1&#45;&gt;Node2 -->
<g id="edge1_Node000001_Node000002" class="edge">
<title>Node1&#45;&gt;Node2</title>
<g id="a_edge1_Node000001_Node000002"><a xlink:title=" ">
<path fill="none" stroke="#63b8ff" d="M132.3,-67.53C157.29,-72.41 187.91,-78.39 214.19,-83.52"/>
<polygon fill="#63b8ff" stroke="#63b8ff" points="213.55,-86.96 224.04,-85.44 214.89,-80.09 213.55,-86.96"/>
</a>
</g>
</g>
<!-- Node3 -->
<g id="Node000003" class="node">
<title>Node3</title>
<g id="a_Node000003"><a xlink:href="classNetworkClient.html#aaf60f1216a17b46ad12539625a1022c2" target="_top" xlink:title=" ">
<polygon fill="white" stroke="#666666" points="337.5,-67.5 210.5,-67.5 210.5,-48.5 337.5,-48.5 337.5,-67.5"/>
<text text-anchor="middle" x="274" y="-55.5" font-family="Helvetica,sans-Serif" font-size="10.00">NetworkClient::nowMs</text>
</a>
</g>
</g>
<!-- Node1&#45;&gt;Node3 -->
<g id="edge2_Node000001_Node000003" class="edge">
<title>Node1&#45;&gt;Node3</title>
<g id="a_edge2_Node000001_Node000003"><a xlink:title=" ">
<path fill="none" stroke="#63b8ff" d="M165.24,-58C176.82,-58 188.67,-58 200.07,-58"/>
<polygon fill="#63b8ff" stroke="#63b8ff" points="200.39,-61.5 210.39,-58 200.39,-54.5 200.39,-61.5"/>
</a>
</g>
</g>
<!-- Node4 -->
<g id="Node000004" class="node">
<title>Node4</title>
<g id="a_Node000004"><a xlink:href="classNetworkClient.html#a36892dcdc8c2523b27947a347ea16022" target="_top" xlink:title=" ">
<polygon fill="white" stroke="#666666" points="347,-30 201,-30 201,0 347,0 347,-30"/>
<text text-anchor="start" x="209" y="-18" font-family="Helvetica,sans-Serif" font-size="10.00">NetworkClient::updateUdp</text>
<text text-anchor="middle" x="274" y="-7" font-family="Helvetica,sans-Serif" font-size="10.00">Rates</text>
</a>
</g>
</g>
<!-- Node1&#45;&gt;Node4 -->
<g id="edge3_Node000001_Node000004" class="edge">
<title>Node1&#45;&gt;Node4</title>
<g id="a_edge3_Node000001_Node000004"><a xlink:title=" ">
<path fill="none" stroke="#63b8ff" d="M125.56,-48.46C146.54,-43.69 172.59,-37.78 196.92,-32.26"/>
<polygon fill="#63b8ff" stroke="#63b8ff" points="197.89,-35.63 206.87,-30.01 196.34,-28.81 197.89,-35.63"/>
</a>
</g>
</g>
</g>
</svg>
