<?xml version="1.0" encoding="UTF-8" standalone="no"?>
<!DOCTYPE svg PUBLIC "-//W3C//DTD SVG 1.1//EN"
 "http://www.w3.org/Graphics/SVG/1.1/DTD/svg11.dtd">
<!-- Generated by graphviz version 2.43.0 (0)
 -->
<!-- Title: TCPServer::writeAll Pages: 1 -->
<svg width="1678pt" height="486pt"
 viewBox="0.00 0.00 1678.00 485.55" xmlns="http://www.w3.org/2000/svg" xmlns:xlink="http://www.w3.org/1999/xlink">
<g id="graph0" class="graph" transform="scale(1 1) rotate(0) translate(4 481.55)">
<title>TCPServer::writeAll</title>
<!-- Node1 -->
<g id="Node000001" class="node">
<title>Node1</title>
<g id="a_Node000001"><a xlink:title="Ensure the full buffer is written to the socket.">
<polygon fill="#999999" stroke="#666666" points="1670,-301.89 1560,-301.89 1560,-282.89 1670,-282.89 1670,-301.89"/>
<text text-anchor="middle" x="1615" y="-289.89" font-family="Helvetica,sans-Serif" font-size="10.00">TCPServer::writeAll</text>
</a>
</g>
</g>
<!-- Node2 -->
<g id="Node000002" class="node">
<title>Node2</title>
<g id="a_Node000002"><a xlink:href="classTCPServer.html#a9a65a3923e77e48c5f0019b45af8fcb5" target="_top" xlink:title="Send a packet to a specific client fd.">
<polygon fill="white" stroke="#666666" points="1524,-301.89 1397,-301.89 1397,-282.89 1524,-282.89 1524,-301.89"/>
<text text-anchor="middle" x="1460.5" y="-289.89" font-family="Helvetica,sans-Serif" font-size="10.00">TCPServer::sendPacket</text>
</a>
</g>
</g>
<!-- Node1&#45;&gt;Node2 -->
<g id="edge1_Node000001_Node000002" class="edge">
<title>Node1&#45;&gt;Node2</title>
<g id="a_edge1_Node000001_Node000002"><a xlink:title=" ">
<path fill="none" stroke="#63b8ff" d="M1549.63,-292.39C1541.18,-292.39 1532.53,-292.39 1524.11,-292.39"/>
<polygon fill="#63b8ff" stroke="#63b8ff" points="1549.8,-295.89 1559.8,-292.39 1549.8,-288.89 1549.8,-295.89"/>
</a>
</g>
</g>
<!-- Node3 -->
<g id="Node000003" class="node">
<title>Node3</title>
<g id="a_Node000003"><a xlink:href="classTCPServer.html#ae0e94f8d712b3c9028fe674100d649b9" target="_top" xlink:title="Accept incoming connection and register a new client slot.">
<polygon fill="white" stroke="#666666" points="1173,-475.89 1018,-475.89 1018,-456.89 1173,-456.89 1173,-475.89"/>
<text text-anchor="middle" x="1095.5" y="-463.89" font-family="Helvetica,sans-Serif" font-size="10.00">TCPServer::acceptNewClient</text>
</a>
</g>
</g>
<!-- Node2&#45;&gt;Node3 -->
<g id="edge2_Node000002_Node000003" class="edge">
<title>Node2&#45;&gt;Node3</title>
<g id="a_edge2_Node000002_Node000003"><a xlink:title=" ">
<path fill="none" stroke="#63b8ff" d="M1453.11,-311.79C1441.02,-345.01 1411.41,-412.16 1361,-442.39 1302.37,-477.54 1222.95,-480.03 1166.47,-475.9"/>
<polygon fill="#63b8ff" stroke="#63b8ff" points="1456.56,-312.51 1456.54,-301.92 1449.95,-310.21 1456.56,-312.51"/>
</a>
</g>
</g>
<!-- Node6 -->
<g id="Node000006" class="node">
<title>Node6</title>
<g id="a_Node000006"><a xlink:href="classTCPServer.html#aee3fb51b52375d68f548f60cc7005ef0" target="_top" xlink:title="Notify all clients of a newly connected player.">
<polygon fill="white" stroke="#666666" points="1182,-361.89 1009,-361.89 1009,-342.89 1182,-342.89 1182,-361.89"/>
<text text-anchor="middle" x="1095.5" y="-349.89" font-family="Helvetica,sans-Serif" font-size="10.00">TCPServer::broadcastNewPlayer</text>
</a>
</g>
</g>
<!-- Node2&#45;&gt;Node6 -->
<g id="edge5_Node000002_Node000006" class="edge">
<title>Node2&#45;&gt;Node6</title>
<g id="a_edge5_Node000002_Node000006"><a xlink:title=" ">
<path fill="none" stroke="#63b8ff" d="M1414.12,-304.49C1397.49,-308.65 1378.47,-313.08 1361,-316.39 1301.58,-327.64 1234,-336.78 1182.03,-343.03"/>
<polygon fill="#63b8ff" stroke="#63b8ff" points="1415.3,-307.8 1424.13,-301.95 1413.58,-301.02 1415.3,-307.8"/>
</a>
</g>
</g>
<!-- Node7 -->
<g id="Node000007" class="node">
<title>Node7</title>
<g id="a_Node000007"><a xlink:href="classTCPServer.html#afd78aa179d3b735e82868d800629b354" target="_top" xlink:title="Handle lobby&#45;related packets for a client.">
<polygon fill="white" stroke="#666666" points="564,-323.89 398,-323.89 398,-304.89 564,-304.89 564,-323.89"/>
<text text-anchor="middle" x="481" y="-311.89" font-family="Helvetica,sans-Serif" font-size="10.00">TCPServer::handleLobbyPacket</text>
</a>
</g>
</g>
<!-- Node2&#45;&gt;Node7 -->
<g id="edge16_Node000002_Node000007" class="edge">
<title>Node2&#45;&gt;Node7</title>
<g id="a_edge16_Node000002_Node000007"><a xlink:title=" ">
<path fill="none" stroke="#63b8ff" d="M1434.52,-306.88C1415.06,-317.59 1387.07,-331.75 1361,-340.39 1247.44,-378.04 1216.14,-390.39 1096.5,-390.39 1096.5,-390.39 1096.5,-390.39 890,-390.39 746.44,-390.39 579.19,-344.35 512.1,-323.94"/>
<polygon fill="#63b8ff" stroke="#63b8ff" points="1436.32,-309.88 1443.34,-301.94 1432.9,-303.77 1436.32,-309.88"/>
</a>
</g>
</g>
<!-- Node8 -->
<g id="Node000008" class="node">
<title>Node8</title>
<g id="a_Node000008"><a xlink:href="classTCPServer.html#ada05a61182a782b4d3326fabd26a19bf" target="_top" xlink:title="Read and handle data for a single client.">
<polygon fill="white" stroke="#666666" points="362,-248.89 201,-248.89 201,-229.89 362,-229.89 362,-248.89"/>
<text text-anchor="middle" x="281.5" y="-236.89" font-family="Helvetica,sans-Serif" font-size="10.00">TCPServer::processClientData</text>
</a>
</g>
</g>
<!-- Node2&#45;&gt;Node8 -->
<g id="edge17_Node000002_Node000008" class="edge">
<title>Node2&#45;&gt;Node8</title>
<g id="a_edge17_Node000002_Node000008"><a xlink:title=" ">
<path fill="none" stroke="#63b8ff" d="M1444.25,-309.35C1426.25,-328.26 1394.52,-358.29 1361,-374.39 1252.85,-426.34 1216.48,-428.39 1096.5,-428.39 1096.5,-428.39 1096.5,-428.39 685.5,-428.39 550.93,-428.39 502.48,-418.21 398,-333.39 373.26,-313.31 386.09,-292.25 362,-271.39 350.19,-261.16 334.69,-253.94 320.52,-248.98"/>
<polygon fill="#63b8ff" stroke="#63b8ff" points="1446.84,-311.71 1451.08,-302.01 1441.71,-306.94 1446.84,-311.71"/>
</a>
</g>
</g>
<!-- Node9 -->
<g id="Node000009" class="node">
<title>Node9</title>
<g id="a_Node000009"><a xlink:href="classTCPServer.html#afb22938cbabd280ec30b3ffab25aeb56" target="_top" xlink:title=" ">
<polygon fill="white" stroke="#666666" points="971,-153.89 811,-153.89 811,-134.89 971,-134.89 971,-153.89"/>
<text text-anchor="middle" x="891" y="-141.89" font-family="Helvetica,sans-Serif" font-size="10.00">TCPServer::broadcastToLobby</text>
</a>
</g>
</g>
<!-- Node2&#45;&gt;Node9 -->
<g id="edge9_Node000002_Node000009" class="edge">
<title>Node2&#45;&gt;Node9</title>
<g id="a_edge9_Node000002_Node000009"><a xlink:title=" ">
<path fill="none" stroke="#63b8ff" d="M1412.88,-280.23C1302.72,-251.5 1028.18,-179.9 928.71,-153.96"/>
<polygon fill="#63b8ff" stroke="#63b8ff" points="1412.14,-283.66 1422.7,-282.79 1413.91,-276.88 1412.14,-283.66"/>
</a>
</g>
</g>
<!-- Node10 -->
<g id="Node000010" class="node">
<title>Node10</title>
<g id="a_Node000010"><a xlink:href="classTCPServer.html#a867c0e233f62e2d8f181ae99dbcca0a0" target="_top" xlink:title="Disconnect clients whose heartbeat timed out.">
<polygon fill="white" stroke="#666666" points="555.5,-96.89 406.5,-96.89 406.5,-77.89 555.5,-77.89 555.5,-96.89"/>
<text text-anchor="middle" x="481" y="-84.89" font-family="Helvetica,sans-Serif" font-size="10.00">TCPServer::checkHeartbeat</text>
</a>
</g>
</g>
<!-- Node2&#45;&gt;Node10 -->
<g id="edge15_Node000002_Node000010" class="edge">
<title>Node2&#45;&gt;Node10</title>
<g id="a_edge15_Node000002_Node000010"><a xlink:title=" ">
<path fill="none" stroke="#63b8ff" d="M1439.42,-276.65C1420.2,-262.2 1389.93,-241.03 1361,-227.39 1117.84,-112.71 1040.54,-111.88 773,-85.39 699.35,-78.1 614.69,-79.81 555.75,-82.6"/>
<polygon fill="#63b8ff" stroke="#63b8ff" points="1437.36,-279.48 1447.43,-282.76 1441.6,-273.91 1437.36,-279.48"/>
</a>
</g>
</g>
<!-- Node11 -->
<g id="Node000011" class="node">
<title>Node11</title>
<g id="a_Node000011"><a xlink:href="classTCPServer.html#a2a03b7479e884f287b5a88df03eeb17b" target="_top" xlink:title=" ">
<polygon fill="white" stroke="#666666" points="773,-134.89 600,-134.89 600,-115.89 773,-115.89 773,-134.89"/>
<text text-anchor="middle" x="686.5" y="-122.89" font-family="Helvetica,sans-Serif" font-size="10.00">TCPServer::processIpcMessages</text>
</a>
</g>
</g>
<!-- Node2&#45;&gt;Node11 -->
<g id="edge18_Node000002_Node000011" class="edge">
<title>Node2&#45;&gt;Node11</title>
<g id="a_edge18_Node000002_Node000011"><a xlink:title=" ">
<path fill="none" stroke="#63b8ff" d="M1457.52,-272.4C1451.86,-227.45 1431.2,-118.79 1361,-73.39 1256,-5.48 858.59,-86.79 728.79,-115.84"/>
<polygon fill="#63b8ff" stroke="#63b8ff" points="1454.07,-273.07 1458.68,-282.61 1461.03,-272.28 1454.07,-273.07"/>
</a>
</g>
</g>
<!-- Node12 -->
<g id="Node000012" class="node">
<title>Node12</title>
<g id="a_Node000012"><a xlink:href="classTCPServer.html#a1ef2aa5cce99901889e64fce86fbac33" target="_top" xlink:title="Send a ping packet to every connected client.">
<polygon fill="white" stroke="#666666" points="351.5,-39.89 211.5,-39.89 211.5,-20.89 351.5,-20.89 351.5,-39.89"/>
<text text-anchor="middle" x="281.5" y="-27.89" font-family="Helvetica,sans-Serif" font-size="10.00">TCPServer::sendPingToAll</text>
</a>
</g>
</g>
<!-- Node2&#45;&gt;Node12 -->
<g id="edge19_Node000002_Node000012" class="edge">
<title>Node2&#45;&gt;Node12</title>
<g id="a_edge19_Node000002_Node000012"><a xlink:title=" ">
<path fill="none" stroke="#63b8ff" d="M1458.23,-272.68C1453.99,-224.65 1435.96,-101.24 1361,-43.39 1267.26,28.95 1214.91,-11.39 1096.5,-11.39 1096.5,-11.39 1096.5,-11.39 685.5,-11.39 568.18,-11.39 431.86,-19.52 351.62,-25.15"/>
<polygon fill="#63b8ff" stroke="#63b8ff" points="1454.75,-273.01 1459.01,-282.71 1461.73,-272.47 1454.75,-273.01"/>
</a>
</g>
</g>
<!-- Node13 -->
<g id="Node000013" class="node">
<title>Node13</title>
<g id="a_Node000013"><a xlink:href="classTCPServer.html#aa87b20fb76f60c19df36f39ef3621b05" target="_top" xlink:title="Send the current player list to a single client.">
<polygon fill="white" stroke="#666666" points="1361,-307.39 1218,-307.39 1218,-277.39 1361,-277.39 1361,-307.39"/>
<text text-anchor="start" x="1226" y="-295.39" font-family="Helvetica,sans-Serif" font-size="10.00">TCPServer::sendPlayerList</text>
<text text-anchor="middle" x="1289.5" y="-284.39" font-family="Helvetica,sans-Serif" font-size="10.00">ToClient</text>
</a>
</g>
</g>
<!-- Node2&#45;&gt;Node13 -->
<g id="edge21_Node000002_Node000013" class="edge">
<title>Node2&#45;&gt;Node13</title>
<g id="a_edge21_Node000002_Node000013"><a xlink:title=" ">
<path fill="none" stroke="#63b8ff" d="M1386.44,-292.39C1378.05,-292.39 1369.51,-292.39 1361.16,-292.39"/>
<polygon fill="#63b8ff" stroke="#63b8ff" points="1386.57,-295.89 1396.57,-292.39 1386.57,-288.89 1386.57,-295.89"/>
</a>
</g>
</g>
<!-- Node4 -->
<g id="Node000004" class="node">
<title>Node4</title>
<g id="a_Node000004"><a xlink:href="classTCPServer.html#a4e6d2ef05b71c4ecbd0518fc7215ece3" target="_top" xlink:title="Run the main accept/receive loop (blocking).">
<polygon fill="white" stroke="#666666" points="165,-134.89 77,-134.89 77,-115.89 165,-115.89 165,-134.89"/>
<text text-anchor="middle" x="121" y="-122.89" font-family="Helvetica,sans-Serif" font-size="10.00">TCPServer::run</text>
</a>
</g>
</g>
<!-- Node3&#45;&gt;Node4 -->
<g id="edge3_Node000003_Node000004" class="edge">
<title>Node3&#45;&gt;Node4</title>
<g id="a_edge3_Node000003_Node000004"><a xlink:title=" ">
<path fill="none" stroke="#63b8ff" d="M1007.92,-466.39C925.52,-466.39 798.06,-466.39 687.5,-466.39 687.5,-466.39 687.5,-466.39 480,-466.39 282.58,-466.39 150.92,-191.14 126.22,-135.23"/>
<polygon fill="#63b8ff" stroke="#63b8ff" points="1007.99,-469.89 1017.99,-466.39 1007.99,-462.89 1007.99,-469.89"/>
</a>
</g>
</g>
<!-- Node5 -->
<g id="Node000005" class="node">
<title>Node5</title>
<g id="a_Node000005"><a xlink:href="server_8cpp.html#ae66f6b31b5ad750f1fe042a706a4e3d4" target="_top" xlink:title=" ">
<polygon fill="white" stroke="#666666" points="41,-134.89 0,-134.89 0,-115.89 41,-115.89 41,-134.89"/>
<text text-anchor="middle" x="20.5" y="-122.89" font-family="Helvetica,sans-Serif" font-size="10.00">main</text>
</a>
</g>
</g>
<!-- Node4&#45;&gt;Node5 -->
<g id="edge4_Node000004_Node000005" class="edge">
<title>Node4&#45;&gt;Node5</title>
<g id="a_edge4_Node000004_Node000005"><a xlink:title=" ">
<path fill="none" stroke="#63b8ff" d="M66.57,-125.39C57.52,-125.39 48.67,-125.39 41.23,-125.39"/>
<polygon fill="#63b8ff" stroke="#63b8ff" points="66.8,-128.89 76.8,-125.39 66.8,-121.89 66.8,-128.89"/>
</a>
</g>
</g>
<!-- Node6&#45;&gt;Node7 -->
<g id="edge6_Node000006_Node000007" class="edge">
<title>Node6&#45;&gt;Node7</title>
<g id="a_edge6_Node000006_Node000007"><a xlink:title=" ">
<path fill="none" stroke="#63b8ff" d="M998.56,-349.71C898.84,-346.46 738.29,-339.94 600,-328.39 585.61,-327.19 570.27,-325.6 555.57,-323.92"/>
<polygon fill="#63b8ff" stroke="#63b8ff" points="998.51,-353.21 1008.62,-350.03 998.74,-346.21 998.51,-353.21"/>
</a>
</g>
</g>
<!-- Node7&#45;&gt;Node8 -->
<g id="edge7_Node000007_Node000008" class="edge">
<title>Node7&#45;&gt;Node8</title>
<g id="a_edge7_Node000007_Node000008"><a xlink:title=" ">
<path fill="none" stroke="#63b8ff" d="M417.63,-302.37C410.94,-300.58 404.28,-298.59 398,-296.39 361.07,-283.44 320.66,-261.56 298.78,-249.01"/>
<polygon fill="#63b8ff" stroke="#63b8ff" points="416.86,-305.78 427.42,-304.83 418.57,-299 416.86,-305.78"/>
</a>
</g>
</g>
<!-- Node8&#45;&gt;Node4 -->
<g id="edge8_Node000008_Node000004" class="edge">
<title>Node8&#45;&gt;Node4</title>
<g id="a_edge8_Node000008_Node000004"><a xlink:title=" ">
<path fill="none" stroke="#63b8ff" d="M259.13,-224.02C225.98,-200.18 163.12,-154.96 135.54,-135.13"/>
<polygon fill="#63b8ff" stroke="#63b8ff" points="257.1,-226.87 267.26,-229.87 261.18,-221.19 257.1,-226.87"/>
</a>
</g>
</g>
<!-- Node9&#45;&gt;Node8 -->
<g id="edge12_Node000009_Node000008" class="edge">
<title>Node9&#45;&gt;Node8</title>
<g id="a_edge12_Node000009_Node000008"><a xlink:title=" ">
<path fill="none" stroke="#63b8ff" d="M800.42,-147.24C679.67,-151.78 471.35,-162.26 398,-182.39 359.62,-192.92 318.77,-216.36 297.44,-229.67"/>
<polygon fill="#63b8ff" stroke="#63b8ff" points="800.89,-150.72 810.75,-146.86 800.63,-143.73 800.89,-150.72"/>
</a>
</g>
</g>
<!-- Node9&#45;&gt;Node10 -->
<g id="edge10_Node000009_Node000010" class="edge">
<title>Node9&#45;&gt;Node10</title>
<g id="a_edge10_Node000009_Node000010"><a xlink:title=" ">
<path fill="none" stroke="#63b8ff" d="M856.61,-131.08C833.51,-122.5 801.87,-111.93 773,-106.39 699.91,-92.36 614.81,-88.18 555.59,-87.16"/>
<polygon fill="#63b8ff" stroke="#63b8ff" points="855.67,-134.47 866.26,-134.74 858.15,-127.93 855.67,-134.47"/>
</a>
</g>
</g>
<!-- Node9&#45;&gt;Node11 -->
<g id="edge13_Node000009_Node000011" class="edge">
<title>Node9&#45;&gt;Node11</title>
<g id="a_edge13_Node000009_Node000011"><a xlink:title=" ">
<path fill="none" stroke="#63b8ff" d="M800.65,-136.01C791.56,-135.15 782.35,-134.29 773.3,-133.44"/>
<polygon fill="#63b8ff" stroke="#63b8ff" points="800.55,-139.51 810.84,-136.96 801.21,-132.54 800.55,-139.51"/>
</a>
</g>
</g>
<!-- Node10&#45;&gt;Node4 -->
<g id="edge11_Node000010_Node000004" class="edge">
<title>Node10&#45;&gt;Node4</title>
<g id="a_edge11_Node000010_Node000004"><a xlink:title=" ">
<path fill="none" stroke="#63b8ff" d="M396.24,-92.63C340.72,-96.58 266.34,-102.81 201,-111.39 189.4,-112.91 176.91,-114.94 165.35,-116.99"/>
<polygon fill="#63b8ff" stroke="#63b8ff" points="396.65,-96.11 406.38,-91.92 396.16,-89.13 396.65,-96.11"/>
</a>
</g>
</g>
<!-- Node11&#45;&gt;Node4 -->
<g id="edge14_Node000011_Node000004" class="edge">
<title>Node11&#45;&gt;Node4</title>
<g id="a_edge14_Node000011_Node000004"><a xlink:title=" ">
<path fill="none" stroke="#63b8ff" d="M589.68,-125.39C465.75,-125.39 255.14,-125.39 165,-125.39"/>
<polygon fill="#63b8ff" stroke="#63b8ff" points="589.92,-128.89 599.92,-125.39 589.92,-121.89 589.92,-128.89"/>
</a>
</g>
</g>
<!-- Node12&#45;&gt;Node4 -->
<g id="edge20_Node000012_Node000004" class="edge">
<title>Node12&#45;&gt;Node4</title>
<g id="a_edge20_Node000012_Node000004"><a xlink:title=" ">
<path fill="none" stroke="#63b8ff" d="M252.59,-44.73C237.2,-52.83 217.84,-63.32 201,-73.39 177.61,-87.38 151.33,-105.09 135.75,-115.81"/>
<polygon fill="#63b8ff" stroke="#63b8ff" points="254.37,-47.75 261.61,-40.02 251.13,-41.55 254.37,-47.75"/>
</a>
</g>
</g>
<!-- Node13&#45;&gt;Node7 -->
<g id="edge22_Node000013_Node000007" class="edge">
<title>Node13&#45;&gt;Node7</title>
<g id="a_edge22_Node000013_Node000007"><a xlink:title=" ">
<path fill="none" stroke="#63b8ff" d="M1207.63,-294.68C1198.98,-294.92 1190.31,-295.16 1182,-295.39 958.54,-301.57 694.96,-308.67 564.17,-312.19"/>
<polygon fill="#63b8ff" stroke="#63b8ff" points="1207.85,-298.17 1217.75,-294.39 1207.66,-291.17 1207.85,-298.17"/>
</a>
</g>
</g>
<!-- Node14 -->
<g id="Node000014" class="node">
<title>Node14</title>
<g id="a_Node000014"><a xlink:href="classTCPServer.html#a8d2dcfc8d8337ff577a101c4aee6aac5" target="_top" xlink:title="Resend the player list to all members of a lobby.">
<polygon fill="white" stroke="#666666" points="1163.5,-285.89 1027.5,-285.89 1027.5,-266.89 1163.5,-266.89 1163.5,-285.89"/>
<text text-anchor="middle" x="1095.5" y="-273.89" font-family="Helvetica,sans-Serif" font-size="10.00">TCPServer::refreshLobby</text>
</a>
</g>
</g>
<!-- Node13&#45;&gt;Node14 -->
<g id="edge23_Node000013_Node000014" class="edge">
<title>Node13&#45;&gt;Node14</title>
<g id="a_edge23_Node000013_Node000014"><a xlink:title=" ">
<path fill="none" stroke="#63b8ff" d="M1207.73,-285.66C1193,-284.43 1177.79,-283.16 1163.52,-281.97"/>
<polygon fill="#63b8ff" stroke="#63b8ff" points="1207.57,-289.16 1217.82,-286.5 1208.15,-282.18 1207.57,-289.16"/>
</a>
</g>
</g>
<!-- Node14&#45;&gt;Node7 -->
<g id="edge24_Node000014_Node000007" class="edge">
<title>Node14&#45;&gt;Node7</title>
<g id="a_edge24_Node000014_Node000007"><a xlink:title=" ">
<path fill="none" stroke="#63b8ff" d="M1017.16,-278.48C919.74,-281.49 747.25,-288.1 600,-300.39 585.61,-301.59 570.27,-303.18 555.57,-304.86"/>
<polygon fill="#63b8ff" stroke="#63b8ff" points="1017.33,-281.97 1027.22,-278.17 1017.11,-274.98 1017.33,-281.97"/>
</a>
</g>
</g>
<!-- Node15 -->
<g id="Node000015" class="node">
<title>Node15</title>
<g id="a_Node000015"><a xlink:href="classTCPServer.html#a508cc3d7023b0cfe9abed2e3166b1682" target="_top" xlink:title="Remove a client from its current lobby.">
<polygon fill="white" stroke="#666666" points="973,-229.89 809,-229.89 809,-210.89 973,-210.89 973,-229.89"/>
<text text-anchor="middle" x="891" y="-217.89" font-family="Helvetica,sans-Serif" font-size="10.00">TCPServer::removeFromLobby</text>
</a>
</g>
</g>
<!-- Node14&#45;&gt;Node15 -->
<g id="edge25_Node000014_Node000015" class="edge">
<title>Node14&#45;&gt;Node15</title>
<g id="a_edge25_Node000014_Node000015"><a xlink:title=" ">
<path fill="none" stroke="#63b8ff" d="M1049.62,-263.98C1012.41,-253.69 960.31,-239.28 926.36,-229.89"/>
<polygon fill="#63b8ff" stroke="#63b8ff" points="1049.12,-267.47 1059.69,-266.76 1050.98,-260.72 1049.12,-267.47"/>
</a>
</g>
</g>
<!-- Node15&#45;&gt;Node11 -->
<g id="edge29_Node000015_Node000011" class="edge">
<title>Node15&#45;&gt;Node11</title>
<g id="a_edge29_Node000015_Node000011"><a xlink:title=" ">
<path fill="none" stroke="#63b8ff" d="M860.36,-206.48C818.64,-186.91 743.71,-151.76 707.78,-134.91"/>
<polygon fill="#63b8ff" stroke="#63b8ff" points="858.93,-209.68 869.47,-210.76 861.9,-203.34 858.93,-209.68"/>
</a>
</g>
</g>
<!-- Node16 -->
<g id="Node000016" class="node">
<title>Node16</title>
<g id="a_Node000016"><a xlink:href="classTCPServer.html#a84035146c9257be5714850a1f46d0bfb" target="_top" xlink:title="Assign a client to a lobby (public or private).">
<polygon fill="white" stroke="#666666" points="753,-247.89 620,-247.89 620,-228.89 753,-228.89 753,-247.89"/>
<text text-anchor="middle" x="686.5" y="-235.89" font-family="Helvetica,sans-Serif" font-size="10.00">TCPServer::assignLobby</text>
</a>
</g>
</g>
<!-- Node15&#45;&gt;Node16 -->
<g id="edge26_Node000015_Node000016" class="edge">
<title>Node15&#45;&gt;Node16</title>
<g id="a_edge26_Node000015_Node000016"><a xlink:title=" ">
<path fill="none" stroke="#63b8ff" d="M798.76,-228.5C783.39,-229.87 767.71,-231.26 753.16,-232.55"/>
<polygon fill="#63b8ff" stroke="#63b8ff" points="799.15,-231.98 808.8,-227.61 798.53,-225.01 799.15,-231.98"/>
</a>
</g>
</g>
<!-- Node18 -->
<g id="Node000018" class="node">
<title>Node18</title>
<g id="a_Node000018"><a xlink:href="classTCPServer.html#a435ec8dcd340e15f964ce3c0748c7305" target="_top" xlink:title="Reset client fields and close its socket.">
<polygon fill="white" stroke="#666666" points="749,-210.89 624,-210.89 624,-191.89 749,-191.89 749,-210.89"/>
<text text-anchor="middle" x="686.5" y="-198.89" font-family="Helvetica,sans-Serif" font-size="10.00">TCPServer::resetClient</text>
</a>
</g>
</g>
<!-- Node15&#45;&gt;Node18 -->
<g id="edge30_Node000015_Node000018" class="edge">
<title>Node15&#45;&gt;Node18</title>
<g id="a_edge30_Node000015_Node000018"><a xlink:title=" ">
<path fill="none" stroke="#63b8ff" d="M798.45,-211.8C781.73,-210.23 764.66,-208.63 749.07,-207.17"/>
<polygon fill="#63b8ff" stroke="#63b8ff" points="798.52,-215.32 808.8,-212.77 799.17,-208.35 798.52,-215.32"/>
</a>
</g>
</g>
<!-- Node16&#45;&gt;Node7 -->
<g id="edge28_Node000016_Node000007" class="edge">
<title>Node16&#45;&gt;Node7</title>
<g id="a_edge28_Node000016_Node000007"><a xlink:title=" ">
<path fill="none" stroke="#63b8ff" d="M626.14,-251C617.09,-254.06 608.08,-257.81 600,-262.39 580.85,-273.23 583.45,-286.1 564,-296.39 557.56,-299.8 550.5,-302.56 543.32,-304.8"/>
<polygon fill="#63b8ff" stroke="#63b8ff" points="627.44,-254.27 635.94,-247.95 625.36,-247.58 627.44,-254.27"/>
</a>
</g>
</g>
<!-- Node17 -->
<g id="Node000017" class="node">
<title>Node17</title>
<g id="a_Node000017"><a xlink:href="classTCPServer.html#ad6bed785945fc2f21376ff2b58090829" target="_top" xlink:title="Auto&#45;match the client into a public lobby.">
<polygon fill="white" stroke="#666666" points="558.5,-286.89 403.5,-286.89 403.5,-267.89 558.5,-267.89 558.5,-286.89"/>
<text text-anchor="middle" x="481" y="-274.89" font-family="Helvetica,sans-Serif" font-size="10.00">TCPServer::autoAssignPublic</text>
</a>
</g>
</g>
<!-- Node16&#45;&gt;Node17 -->
<g id="edge27_Node000016_Node000017" class="edge">
<title>Node16&#45;&gt;Node17</title>
<g id="a_edge27_Node000016_Node000017"><a xlink:title=" ">
<path fill="none" stroke="#63b8ff" d="M625.81,-249.83C595.87,-255.57 560.03,-262.44 531.62,-267.88"/>
<polygon fill="#63b8ff" stroke="#63b8ff" points="626.56,-253.25 635.72,-247.93 625.24,-246.37 626.56,-253.25"/>
</a>
</g>
</g>
<!-- Node18&#45;&gt;Node8 -->
<g id="edge32_Node000018_Node000008" class="edge">
<title>Node18&#45;&gt;Node8</title>
<g id="a_edge32_Node000018_Node000008"><a xlink:title=" ">
<path fill="none" stroke="#63b8ff" d="M617.45,-212.4C600.06,-214.96 581.37,-217.49 564,-219.39 496.06,-226.82 418.57,-232.1 362.12,-235.35"/>
<polygon fill="#63b8ff" stroke="#63b8ff" points="618.15,-215.84 627.52,-210.9 617.12,-208.91 618.15,-215.84"/>
</a>
</g>
</g>
<!-- Node18&#45;&gt;Node10 -->
<g id="edge31_Node000018_Node000010" class="edge">
<title>Node18&#45;&gt;Node10</title>
<g id="a_edge31_Node000018_Node000010"><a xlink:title=" ">
<path fill="none" stroke="#63b8ff" d="M659.65,-186.91C617.43,-163.25 534.79,-116.96 499.1,-96.97"/>
<polygon fill="#63b8ff" stroke="#63b8ff" points="658.06,-190.03 668.5,-191.87 661.49,-183.93 658.06,-190.03"/>
</a>
</g>
</g>
<!-- Node19 -->
<g id="Node000019" class="node">
<title>Node19</title>
<g id="a_Node000019"><a xlink:href="classTCPServer.html#abc497ac52355e53986a6a1bd1acb9581" target="_top" xlink:title="Destroy the TCPServer, closing the listening socket.">
<polygon fill="white" stroke="#666666" points="546,-210.89 416,-210.89 416,-191.89 546,-191.89 546,-210.89"/>
<text text-anchor="middle" x="481" y="-198.89" font-family="Helvetica,sans-Serif" font-size="10.00">TCPServer::~TCPServer</text>
</a>
</g>
</g>
<!-- Node18&#45;&gt;Node19 -->
<g id="edge33_Node000018_Node000019" class="edge">
<title>Node18&#45;&gt;Node19</title>
<g id="a_edge33_Node000018_Node000019"><a xlink:title=" ">
<path fill="none" stroke="#63b8ff" d="M613.62,-201.39C591.66,-201.39 567.65,-201.39 546.22,-201.39"/>
<polygon fill="#63b8ff" stroke="#63b8ff" points="613.89,-204.89 623.89,-201.39 613.89,-197.89 613.89,-204.89"/>
</a>
</g>
</g>
</g>
</svg>
