<?xml version="1.0" encoding="UTF-8" standalone="no"?>
<!DOCTYPE svg PUBLIC "-//W3C//DTD SVG 1.1//EN"
 "http://www.w3.org/Graphics/SVG/1.1/DTD/svg11.dtd">
<!-- Generated by graphviz version 2.43.0 (0)
 -->
<!-- Title: Raylib::Window::beginDrawing Pages: 1 -->
<svg width="965pt" height="178pt"
 viewBox="0.00 0.00 965.00 178.00" xmlns="http://www.w3.org/2000/svg" xmlns:xlink="http://www.w3.org/1999/xlink">
<g id="graph0" class="graph" transform="scale(1 1) rotate(0) translate(4 174)">
<title>Raylib::Window::beginDrawing</title>
<!-- Node1 -->
<g id="Node000001" class="node">
<title>Node1</title>
<g id="a_Node000001"><a xlink:title="Begins drawing frame.">
<polygon fill="#999999" stroke="#666666" points="957,-94 792,-94 792,-75 957,-75 957,-94"/>
<text text-anchor="middle" x="874.5" y="-82" font-family="Helvetica,sans-Serif" font-size="10.00">Raylib::Window::beginDrawing</text>
</a>
</g>
</g>
<!-- Node2 -->
<g id="Node000002" class="node">
<title>Node2</title>
<g id="a_Node000002"><a xlink:href="classGraphicClient.html#ab0acd8f5b8996cc62295831d7af1cf59" target="_top" xlink:title="Renders the entire game scene.">
<polygon fill="white" stroke="#666666" points="737,-170 617,-170 617,-151 737,-151 737,-170"/>
<text text-anchor="middle" x="677" y="-158" font-family="Helvetica,sans-Serif" font-size="10.00">GraphicClient::render</text>
</a>
</g>
</g>
<!-- Node1&#45;&gt;Node2 -->
<g id="edge1_Node000001_Node000002" class="edge">
<title>Node1&#45;&gt;Node2</title>
<g id="a_edge1_Node000001_Node000002"><a xlink:title=" ">
<path fill="none" stroke="#63b8ff" d="M844.76,-98.36C821.21,-109.44 786.86,-124.97 756,-136.5 741.8,-141.81 725.84,-146.87 712.08,-150.97"/>
<polygon fill="#63b8ff" stroke="#63b8ff" points="846.3,-101.5 853.84,-94.06 843.3,-95.18 846.3,-101.5"/>
</a>
</g>
</g>
<!-- Node6 -->
<g id="Node000006" class="node">
<title>Node6</title>
<g id="a_Node000006"><a xlink:href="classGraphicClient.html#a70229e3e019e7b315f06c9ad74f23be5" target="_top" xlink:title="Shows lobby selection menu.">
<polygon fill="white" stroke="#666666" points="551,-131 404,-131 404,-112 551,-112 551,-131"/>
<text text-anchor="middle" x="477.5" y="-119" font-family="Helvetica,sans-Serif" font-size="10.00">GraphicClient::selectLobby</text>
</a>
</g>
</g>
<!-- Node1&#45;&gt;Node6 -->
<g id="edge5_Node000001_Node000006" class="edge">
<title>Node1&#45;&gt;Node6</title>
<g id="a_edge5_Node000001_Node000006"><a xlink:title=" ">
<path fill="none" stroke="#63b8ff" d="M787.08,-95.16C776.61,-96.34 766.07,-97.48 756,-98.5 686.5,-105.52 607.04,-111.94 551.02,-116.21"/>
<polygon fill="#63b8ff" stroke="#63b8ff" points="787.53,-98.63 797.07,-94.01 786.73,-91.67 787.53,-98.63"/>
</a>
</g>
</g>
<!-- Node8 -->
<g id="Node000008" class="node">
<title>Node8</title>
<g id="a_Node000008"><a xlink:href="classGraphicClient.html#a2d663515d7165fbe3533e038b5b2e916" target="_top" xlink:title="Shows main menu with server connection options.">
<polygon fill="white" stroke="#666666" points="562,-94 393,-94 393,-75 562,-75 562,-94"/>
<text text-anchor="middle" x="477.5" y="-82" font-family="Helvetica,sans-Serif" font-size="10.00">GraphicClient::selectMainMenu</text>
</a>
</g>
</g>
<!-- Node1&#45;&gt;Node8 -->
<g id="edge8_Node000001_Node000008" class="edge">
<title>Node1&#45;&gt;Node8</title>
<g id="a_edge8_Node000001_Node000008"><a xlink:title=" ">
<path fill="none" stroke="#63b8ff" d="M781.63,-84.5C715.37,-84.5 626.61,-84.5 562.28,-84.5"/>
<polygon fill="#63b8ff" stroke="#63b8ff" points="781.66,-88 791.66,-84.5 781.66,-81 781.66,-88"/>
</a>
</g>
</g>
<!-- Node9 -->
<g id="Node000009" class="node">
<title>Node9</title>
<g id="a_Node000009"><a xlink:href="classGraphicClient.html#a14824911dd4c90d0f459ed532aec0dd7" target="_top" xlink:title="Shows pseudo/username input menu.">
<polygon fill="white" stroke="#666666" points="753.5,-19 600.5,-19 600.5,0 753.5,0 753.5,-19"/>
<text text-anchor="middle" x="677" y="-7" font-family="Helvetica,sans-Serif" font-size="10.00">GraphicClient::selectPseudo</text>
</a>
</g>
</g>
<!-- Node1&#45;&gt;Node9 -->
<g id="edge10_Node000001_Node000009" class="edge">
<title>Node1&#45;&gt;Node9</title>
<g id="a_edge10_Node000001_Node000009"><a xlink:title=" ">
<path fill="none" stroke="#63b8ff" d="M848,-70.05C824.67,-57.34 788.89,-39.1 756,-27.5 746.83,-24.26 736.84,-21.45 727.17,-19.07"/>
<polygon fill="#63b8ff" stroke="#63b8ff" points="846.45,-73.19 856.89,-74.96 849.83,-67.06 846.45,-73.19"/>
</a>
</g>
</g>
<!-- Node10 -->
<g id="Node000010" class="node">
<title>Node10</title>
<g id="a_Node000010"><a xlink:href="classGraphicClient.html#a349a93e6b861365d4aaa7d7cea0d9ccf" target="_top" xlink:title="Shows controls settings menu for key remapping.">
<polygon fill="white" stroke="#666666" points="756,-56 598,-56 598,-37 756,-37 756,-56"/>
<text text-anchor="middle" x="677" y="-44" font-family="Helvetica,sans-Serif" font-size="10.00">GraphicClient::selectSettings</text>
</a>
</g>
</g>
<!-- Node1&#45;&gt;Node10 -->
<g id="edge12_Node000001_Node000010" class="edge">
<title>Node1&#45;&gt;Node10</title>
<g id="a_edge12_Node000001_Node000010"><a xlink:title=" ">
<path fill="none" stroke="#63b8ff" d="M814.39,-73.01C786.5,-67.59 753.6,-61.19 727.1,-56.04"/>
<polygon fill="#63b8ff" stroke="#63b8ff" points="813.94,-76.49 824.42,-74.96 815.27,-69.62 813.94,-76.49"/>
</a>
</g>
</g>
<!-- Node3 -->
<g id="Node000003" class="node">
<title>Node3</title>
<g id="a_Node000003"><a xlink:href="classGraphicClient.html#a5cb5c37142e62f04824cc6e21dd199b2" target="_top" xlink:title="Main game loop iteration.">
<polygon fill="white" stroke="#666666" points="357,-159 217,-159 217,-140 357,-140 357,-159"/>
<text text-anchor="middle" x="287" y="-147" font-family="Helvetica,sans-Serif" font-size="10.00">GraphicClient::gameLoop</text>
</a>
</g>
</g>
<!-- Node2&#45;&gt;Node3 -->
<g id="edge2_Node000002_Node000003" class="edge">
<title>Node2&#45;&gt;Node3</title>
<g id="a_edge2_Node000002_Node000003"><a xlink:title=" ">
<path fill="none" stroke="#63b8ff" d="M606.53,-158.53C536.04,-156.53 427.56,-153.46 357.18,-151.46"/>
<polygon fill="#63b8ff" stroke="#63b8ff" points="606.55,-162.03 616.65,-158.82 606.75,-155.04 606.55,-162.03"/>
</a>
</g>
</g>
<!-- Node4 -->
<g id="Node000004" class="node">
<title>Node4</title>
<g id="a_Node000004"><a xlink:href="classGraphicClient.html#ad39a5f1d7ec30752f8d412d6925ef109" target="_top" xlink:title="Main application loop.">
<polygon fill="white" stroke="#666666" points="181,-130 77,-130 77,-111 181,-111 181,-130"/>
<text text-anchor="middle" x="129" y="-118" font-family="Helvetica,sans-Serif" font-size="10.00">GraphicClient::run</text>
</a>
</g>
</g>
<!-- Node3&#45;&gt;Node4 -->
<g id="edge3_Node000003_Node000004" class="edge">
<title>Node3&#45;&gt;Node4</title>
<g id="a_edge3_Node000003_Node000004"><a xlink:title=" ">
<path fill="none" stroke="#63b8ff" d="M224.26,-138.02C209.99,-135.37 194.96,-132.58 181.19,-130.02"/>
<polygon fill="#63b8ff" stroke="#63b8ff" points="224.02,-141.54 234.49,-139.92 225.3,-134.66 224.02,-141.54"/>
</a>
</g>
</g>
<!-- Node5 -->
<g id="Node000005" class="node">
<title>Node5</title>
<g id="a_Node000005"><a xlink:href="client_8cpp.html#ae66f6b31b5ad750f1fe042a706a4e3d4" target="_top" xlink:title=" ">
<polygon fill="white" stroke="#666666" points="41,-130 0,-130 0,-111 41,-111 41,-130"/>
<text text-anchor="middle" x="20.5" y="-118" font-family="Helvetica,sans-Serif" font-size="10.00">main</text>
</a>
</g>
</g>
<!-- Node4&#45;&gt;Node5 -->
<g id="edge4_Node000004_Node000005" class="edge">
<title>Node4&#45;&gt;Node5</title>
<g id="a_edge4_Node000004_Node000005"><a xlink:title=" ">
<path fill="none" stroke="#63b8ff" d="M66.83,-120.5C57.58,-120.5 48.66,-120.5 41.22,-120.5"/>
<polygon fill="#63b8ff" stroke="#63b8ff" points="66.93,-124 76.93,-120.5 66.93,-117 66.93,-124"/>
</a>
</g>
</g>
<!-- Node7 -->
<g id="Node000007" class="node">
<title>Node7</title>
<g id="a_Node000007"><a xlink:href="classGraphicClient.html#a4b416d0d2b3f07134ce30afb0c60adbe" target="_top" xlink:title="Initializes the client (connects to server, shows menus).">
<polygon fill="white" stroke="#666666" points="339,-112 235,-112 235,-93 339,-93 339,-112"/>
<text text-anchor="middle" x="287" y="-100" font-family="Helvetica,sans-Serif" font-size="10.00">GraphicClient::init</text>
</a>
</g>
</g>
<!-- Node6&#45;&gt;Node7 -->
<g id="edge6_Node000006_Node000007" class="edge">
<title>Node6&#45;&gt;Node7</title>
<g id="a_edge6_Node000006_Node000007"><a xlink:title=" ">
<path fill="none" stroke="#63b8ff" d="M393.94,-113.18C375.33,-111.3 356.11,-109.37 339.24,-107.66"/>
<polygon fill="#63b8ff" stroke="#63b8ff" points="393.59,-116.66 403.89,-114.18 394.29,-109.7 393.59,-116.66"/>
</a>
</g>
</g>
<!-- Node7&#45;&gt;Node4 -->
<g id="edge7_Node000007_Node000004" class="edge">
<title>Node7&#45;&gt;Node4</title>
<g id="a_edge7_Node000007_Node000004"><a xlink:title=" ">
<path fill="none" stroke="#63b8ff" d="M224.62,-109.58C210.24,-111.24 195.07,-112.99 181.19,-114.59"/>
<polygon fill="#63b8ff" stroke="#63b8ff" points="225.39,-113.02 234.92,-108.39 224.58,-106.06 225.39,-113.02"/>
</a>
</g>
</g>
<!-- Node8&#45;&gt;Node7 -->
<g id="edge9_Node000008_Node000007" class="edge">
<title>Node8&#45;&gt;Node7</title>
<g id="a_edge9_Node000008_Node000007"><a xlink:title=" ">
<path fill="none" stroke="#63b8ff" d="M382.66,-93.46C367.69,-94.89 352.7,-96.32 339.22,-97.61"/>
<polygon fill="#63b8ff" stroke="#63b8ff" points="383.38,-96.91 393,-92.47 382.71,-89.94 383.38,-96.91"/>
</a>
</g>
</g>
<!-- Node9&#45;&gt;Node7 -->
<g id="edge11_Node000009_Node000007" class="edge">
<title>Node9&#45;&gt;Node7</title>
<g id="a_edge11_Node000009_Node000007"><a xlink:title=" ">
<path fill="none" stroke="#63b8ff" d="M607.12,-20.76C549.45,-30.81 465.22,-46.94 393,-66.5 365.1,-74.06 333.85,-85.12 312.75,-92.98"/>
<polygon fill="#63b8ff" stroke="#63b8ff" points="607.95,-24.17 617.21,-19.02 606.76,-17.27 607.95,-24.17"/>
</a>
</g>
</g>
<!-- Node10&#45;&gt;Node8 -->
<g id="edge13_Node000010_Node000008" class="edge">
<title>Node10&#45;&gt;Node8</title>
<g id="a_edge13_Node000010_Node000008"><a xlink:title=" ">
<path fill="none" stroke="#63b8ff" d="M616.29,-57.99C588.11,-63.41 554.87,-69.81 528.1,-74.96"/>
<polygon fill="#63b8ff" stroke="#63b8ff" points="617.26,-61.37 626.42,-56.04 615.94,-54.49 617.26,-61.37"/>
</a>
</g>
</g>
</g>
</svg>
