<?xml version="1.0" encoding="UTF-8" standalone="no"?>
<!DOCTYPE svg PUBLIC "-//W3C//DTD SVG 1.1//EN"
 "http://www.w3.org/Graphics/SVG/1.1/DTD/svg11.dtd">
<!-- Generated by graphviz version 2.43.0 (0)
 -->
<!-- Title: SessionManager::getSession Pages: 1 -->
<svg width="803pt" height="101pt"
 viewBox="0.00 0.00 803.00 101.00" xmlns="http://www.w3.org/2000/svg" xmlns:xlink="http://www.w3.org/1999/xlink">
<g id="graph0" class="graph" transform="scale(1 1) rotate(0) translate(4 97)">
<title>SessionManager::getSession</title>
<!-- Node1 -->
<g id="Node000001" class="node">
<title>Node1</title>
<g id="a_Node000001"><a xlink:title="Lookup a session by player id.">
<polygon fill="#999999" stroke="#666666" points="795,-56 639,-56 639,-37 795,-37 795,-56"/>
<text text-anchor="middle" x="717" y="-44" font-family="Helvetica,sans-Serif" font-size="10.00">SessionManager::getSession</text>
</a>
</g>
</g>
<!-- Node2 -->
<g id="Node000002" class="node">
<title>Node2</title>
<g id="a_Node000002"><a xlink:href="classUDPGameServer.html#a367b917d572ad28819003841b3be180c" target="_top" xlink:title="Register a new player on receipt of a hello message.">
<polygon fill="white" stroke="#666666" points="602,-93 439,-93 439,-74 602,-74 602,-93"/>
<text text-anchor="middle" x="520.5" y="-81" font-family="Helvetica,sans-Serif" font-size="10.00">UDPGameServer::handleHello</text>
</a>
</g>
</g>
<!-- Node1&#45;&gt;Node2 -->
<g id="edge1_Node000001_Node000002" class="edge">
<title>Node1&#45;&gt;Node2</title>
<g id="a_edge1_Node000001_Node000002"><a xlink:title=" ">
<path fill="none" stroke="#63b8ff" d="M655.82,-57.95C628.86,-63.08 597.43,-69.06 571.76,-73.94"/>
<polygon fill="#63b8ff" stroke="#63b8ff" points="656.74,-61.34 665.91,-56.03 655.43,-54.46 656.74,-61.34"/>
</a>
</g>
</g>
<!-- Node6 -->
<g id="Node000006" class="node">
<title>Node6</title>
<g id="a_Node000006"><a xlink:href="classUDPGameServer.html#abe9913c5eaa12c361bdcc9ce68bdc835" target="_top" xlink:title="Update player inputs (movement/direction).">
<polygon fill="white" stroke="#666666" points="601.5,-56 439.5,-56 439.5,-37 601.5,-37 601.5,-56"/>
<text text-anchor="middle" x="520.5" y="-44" font-family="Helvetica,sans-Serif" font-size="10.00">UDPGameServer::handleInput</text>
</a>
</g>
</g>
<!-- Node1&#45;&gt;Node6 -->
<g id="edge5_Node000001_Node000006" class="edge">
<title>Node1&#45;&gt;Node6</title>
<g id="a_edge5_Node000001_Node000006"><a xlink:title=" ">
<path fill="none" stroke="#63b8ff" d="M628.76,-46.5C619.77,-46.5 610.66,-46.5 601.75,-46.5"/>
<polygon fill="#63b8ff" stroke="#63b8ff" points="628.85,-50 638.85,-46.5 628.85,-43 628.85,-50"/>
</a>
</g>
</g>
<!-- Node7 -->
<g id="Node000007" class="node">
<title>Node7</title>
<g id="a_Node000007"><a xlink:href="classUDPGameServer.html#a0117b7531413f5b7b161675f9e9efd3d" target="_top" xlink:title="Handle a shoot command (spawn a bullet).">
<polygon fill="white" stroke="#666666" points="603,-19 438,-19 438,0 603,0 603,-19"/>
<text text-anchor="middle" x="520.5" y="-7" font-family="Helvetica,sans-Serif" font-size="10.00">UDPGameServer::handleShoot</text>
</a>
</g>
</g>
<!-- Node1&#45;&gt;Node7 -->
<g id="edge7_Node000001_Node000007" class="edge">
<title>Node1&#45;&gt;Node7</title>
<g id="a_edge7_Node000001_Node000007"><a xlink:title=" ">
<path fill="none" stroke="#63b8ff" d="M655.82,-35.05C628.86,-29.92 597.43,-23.94 571.76,-19.06"/>
<polygon fill="#63b8ff" stroke="#63b8ff" points="655.43,-38.54 665.91,-36.97 656.74,-31.66 655.43,-38.54"/>
</a>
</g>
</g>
<!-- Node3 -->
<g id="Node000003" class="node">
<title>Node3</title>
<g id="a_Node000003"><a xlink:href="classUDPGameServer.html#a9d28a7f4a0c75aba168ea6a58633d1bb" target="_top" xlink:title="Route an incoming packet to the appropriate handler.">
<polygon fill="white" stroke="#666666" points="402,-56 233,-56 233,-37 402,-37 402,-56"/>
<text text-anchor="middle" x="317.5" y="-44" font-family="Helvetica,sans-Serif" font-size="10.00">UDPGameServer::handlePacket</text>
</a>
</g>
</g>
<!-- Node2&#45;&gt;Node3 -->
<g id="edge2_Node000002_Node000003" class="edge">
<title>Node2&#45;&gt;Node3</title>
<g id="a_edge2_Node000002_Node000003"><a xlink:title=" ">
<path fill="none" stroke="#63b8ff" d="M457.68,-72.12C429.73,-66.98 397.09,-60.97 370.44,-56.06"/>
<polygon fill="#63b8ff" stroke="#63b8ff" points="457.27,-75.6 467.74,-73.97 458.54,-68.72 457.27,-75.6"/>
</a>
</g>
</g>
<!-- Node4 -->
<g id="Node000004" class="node">
<title>Node4</title>
<g id="a_Node000004"><a xlink:href="classUDPGameServer.html#a476a4f2e8bb0833c788761298eb4a72b" target="_top" xlink:title="Start the main server loop (blocking).">
<polygon fill="white" stroke="#666666" points="197,-56 77,-56 77,-37 197,-37 197,-56"/>
<text text-anchor="middle" x="137" y="-44" font-family="Helvetica,sans-Serif" font-size="10.00">UDPGameServer::run</text>
</a>
</g>
</g>
<!-- Node3&#45;&gt;Node4 -->
<g id="edge3_Node000003_Node000004" class="edge">
<title>Node3&#45;&gt;Node4</title>
<g id="a_edge3_Node000003_Node000004"><a xlink:title=" ">
<path fill="none" stroke="#63b8ff" d="M222.73,-46.5C213.98,-46.5 205.29,-46.5 197,-46.5"/>
<polygon fill="#63b8ff" stroke="#63b8ff" points="223,-50 233,-46.5 223,-43 223,-50"/>
</a>
</g>
</g>
<!-- Node5 -->
<g id="Node000005" class="node">
<title>Node5</title>
<g id="a_Node000005"><a xlink:href="game_8cpp.html#a3c04138a5bfe5d72780bb7e82a18e627" target="_top" xlink:title=" ">
<polygon fill="white" stroke="#666666" points="41,-56 0,-56 0,-37 41,-37 41,-56"/>
<text text-anchor="middle" x="20.5" y="-44" font-family="Helvetica,sans-Serif" font-size="10.00">main</text>
</a>
</g>
</g>
<!-- Node4&#45;&gt;Node5 -->
<g id="edge4_Node000004_Node000005" class="edge">
<title>Node4&#45;&gt;Node5</title>
<g id="a_edge4_Node000004_Node000005"><a xlink:title=" ">
<path fill="none" stroke="#63b8ff" d="M66.55,-46.5C57.28,-46.5 48.46,-46.5 41.12,-46.5"/>
<polygon fill="#63b8ff" stroke="#63b8ff" points="66.74,-50 76.74,-46.5 66.74,-43 66.74,-50"/>
</a>
</g>
</g>
<!-- Node6&#45;&gt;Node3 -->
<g id="edge6_Node000006_Node000003" class="edge">
<title>Node6&#45;&gt;Node3</title>
<g id="a_edge6_Node000006_Node000003"><a xlink:title=" ">
<path fill="none" stroke="#63b8ff" d="M429.34,-46.5C420.31,-46.5 411.16,-46.5 402.2,-46.5"/>
<polygon fill="#63b8ff" stroke="#63b8ff" points="429.48,-50 439.48,-46.5 429.48,-43 429.48,-50"/>
</a>
</g>
</g>
<!-- Node7&#45;&gt;Node3 -->
<g id="edge8_Node000007_Node000003" class="edge">
<title>Node7&#45;&gt;Node3</title>
<g id="a_edge8_Node000007_Node000003"><a xlink:title=" ">
<path fill="none" stroke="#63b8ff" d="M457.68,-20.88C429.73,-26.02 397.09,-32.03 370.44,-36.94"/>
<polygon fill="#63b8ff" stroke="#63b8ff" points="458.54,-24.28 467.74,-19.03 457.27,-17.4 458.54,-24.28"/>
</a>
</g>
</g>
</g>
</svg>
