<?xml version="1.0" encoding="UTF-8" standalone="no"?>
<!DOCTYPE svg PUBLIC "-//W3C//DTD SVG 1.1//EN"
 "http://www.w3.org/Graphics/SVG/1.1/DTD/svg11.dtd">
<!-- Generated by graphviz version 2.43.0 (0)
 -->
<!-- Title: Raylib::Window::clearBackground Pages: 1 -->
<svg width="1021pt" height="178pt"
 viewBox="0.00 0.00 1021.00 178.00" xmlns="http://www.w3.org/2000/svg" xmlns:xlink="http://www.w3.org/1999/xlink">
<g id="graph0" class="graph" transform="scale(1 1) rotate(0) translate(4 174)">
<title>Raylib::Window::clearBackground</title>
<!-- Node1 -->
<g id="Node000001" class="node">
<title>Node1</title>
<g id="a_Node000001"><a xlink:title="Clears background with specified color.">
<polygon fill="#999999" stroke="#666666" points="1013,-94 834,-94 834,-75 1013,-75 1013,-94"/>
<text text-anchor="middle" x="923.5" y="-82" font-family="Helvetica,sans-Serif" font-size="10.00">Raylib::Window::clearBackground</text>
</a>
</g>
</g>
<!-- Node2 -->
<g id="Node000002" class="node">
<title>Node2</title>
<g id="a_Node000002"><a xlink:href="classGraphicClient.html#ab72f007713bd3d5074c566a425c0d9b1" target="_top" xlink:title="Draws the game area background with animations.">
<polygon fill="white" stroke="#666666" points="798,-170 598,-170 598,-151 798,-151 798,-170"/>
<text text-anchor="middle" x="698" y="-158" font-family="Helvetica,sans-Serif" font-size="10.00">GraphicClient::drawGameBackground</text>
</a>
</g>
</g>
<!-- Node1&#45;&gt;Node2 -->
<g id="edge1_Node000001_Node000002" class="edge">
<title>Node1&#45;&gt;Node2</title>
<g id="a_edge1_Node000001_Node000002"><a xlink:title=" ">
<path fill="none" stroke="#63b8ff" d="M892.91,-98.42C868,-109.76 831.21,-125.61 798,-136.5 780.86,-142.12 761.66,-147.07 744.77,-150.99"/>
<polygon fill="#63b8ff" stroke="#63b8ff" points="894.54,-101.52 902.17,-94.16 891.62,-95.16 894.54,-101.52"/>
</a>
</g>
</g>
<!-- Node7 -->
<g id="Node000007" class="node">
<title>Node7</title>
<g id="a_Node000007"><a xlink:href="classGraphicClient.html#a70229e3e019e7b315f06c9ad74f23be5" target="_top" xlink:title="Shows lobby selection menu.">
<polygon fill="white" stroke="#666666" points="551,-131 404,-131 404,-112 551,-112 551,-131"/>
<text text-anchor="middle" x="477.5" y="-119" font-family="Helvetica,sans-Serif" font-size="10.00">GraphicClient::selectLobby</text>
</a>
</g>
</g>
<!-- Node1&#45;&gt;Node7 -->
<g id="edge6_Node000001_Node000007" class="edge">
<title>Node1&#45;&gt;Node7</title>
<g id="a_edge6_Node000001_Node000007"><a xlink:title=" ">
<path fill="none" stroke="#63b8ff" d="M832.14,-95.09C820.65,-96.31 809.06,-97.48 798,-98.5 713.41,-106.3 616.02,-112.98 551.21,-117.1"/>
<polygon fill="#63b8ff" stroke="#63b8ff" points="832.61,-98.56 842.18,-94.01 831.86,-91.6 832.61,-98.56"/>
</a>
</g>
</g>
<!-- Node9 -->
<g id="Node000009" class="node">
<title>Node9</title>
<g id="a_Node000009"><a xlink:href="classGraphicClient.html#a2d663515d7165fbe3533e038b5b2e916" target="_top" xlink:title="Shows main menu with server connection options.">
<polygon fill="white" stroke="#666666" points="562,-94 393,-94 393,-75 562,-75 562,-94"/>
<text text-anchor="middle" x="477.5" y="-82" font-family="Helvetica,sans-Serif" font-size="10.00">GraphicClient::selectMainMenu</text>
</a>
</g>
</g>
<!-- Node1&#45;&gt;Node9 -->
<g id="edge9_Node000001_Node000009" class="edge">
<title>Node1&#45;&gt;Node9</title>
<g id="a_edge9_Node000001_Node000009"><a xlink:title=" ">
<path fill="none" stroke="#63b8ff" d="M823.6,-84.5C745.11,-84.5 636.61,-84.5 562.35,-84.5"/>
<polygon fill="#63b8ff" stroke="#63b8ff" points="823.98,-88 833.98,-84.5 823.98,-81 823.98,-88"/>
</a>
</g>
</g>
<!-- Node10 -->
<g id="Node000010" class="node">
<title>Node10</title>
<g id="a_Node000010"><a xlink:href="classGraphicClient.html#a14824911dd4c90d0f459ed532aec0dd7" target="_top" xlink:title="Shows pseudo/username input menu.">
<polygon fill="white" stroke="#666666" points="774.5,-19 621.5,-19 621.5,0 774.5,0 774.5,-19"/>
<text text-anchor="middle" x="698" y="-7" font-family="Helvetica,sans-Serif" font-size="10.00">GraphicClient::selectPseudo</text>
</a>
</g>
</g>
<!-- Node1&#45;&gt;Node10 -->
<g id="edge11_Node000001_Node000010" class="edge">
<title>Node1&#45;&gt;Node10</title>
<g id="a_edge11_Node000001_Node000010"><a xlink:title=" ">
<path fill="none" stroke="#63b8ff" d="M896.25,-70.14C871.56,-57.21 833.24,-38.58 798,-27.5 787.33,-24.15 775.81,-21.35 764.53,-19.03"/>
<polygon fill="#63b8ff" stroke="#63b8ff" points="894.84,-73.36 905.32,-74.96 898.13,-67.17 894.84,-73.36"/>
</a>
</g>
</g>
<!-- Node11 -->
<g id="Node000011" class="node">
<title>Node11</title>
<g id="a_Node000011"><a xlink:href="classGraphicClient.html#a349a93e6b861365d4aaa7d7cea0d9ccf" target="_top" xlink:title="Shows controls settings menu for key remapping.">
<polygon fill="white" stroke="#666666" points="777,-56 619,-56 619,-37 777,-37 777,-56"/>
<text text-anchor="middle" x="698" y="-44" font-family="Helvetica,sans-Serif" font-size="10.00">GraphicClient::selectSettings</text>
</a>
</g>
</g>
<!-- Node1&#45;&gt;Node11 -->
<g id="edge13_Node000001_Node000011" class="edge">
<title>Node1&#45;&gt;Node11</title>
<g id="a_edge13_Node000001_Node000011"><a xlink:title=" ">
<path fill="none" stroke="#63b8ff" d="M856.18,-73.22C824.03,-67.76 785.82,-61.26 755.13,-56.04"/>
<polygon fill="#63b8ff" stroke="#63b8ff" points="855.94,-76.73 866.39,-74.96 857.12,-69.83 855.94,-76.73"/>
</a>
</g>
</g>
<!-- Node3 -->
<g id="Node000003" class="node">
<title>Node3</title>
<g id="a_Node000003"><a xlink:href="classGraphicClient.html#ab0acd8f5b8996cc62295831d7af1cf59" target="_top" xlink:title="Renders the entire game scene.">
<polygon fill="white" stroke="#666666" points="537.5,-169 417.5,-169 417.5,-150 537.5,-150 537.5,-169"/>
<text text-anchor="middle" x="477.5" y="-157" font-family="Helvetica,sans-Serif" font-size="10.00">GraphicClient::render</text>
</a>
</g>
</g>
<!-- Node2&#45;&gt;Node3 -->
<g id="edge2_Node000002_Node000003" class="edge">
<title>Node2&#45;&gt;Node3</title>
<g id="a_edge2_Node000002_Node000003"><a xlink:title=" ">
<path fill="none" stroke="#63b8ff" d="M587.78,-160C570.44,-159.92 553.1,-159.84 537.5,-159.77"/>
<polygon fill="#63b8ff" stroke="#63b8ff" points="587.96,-163.5 597.98,-160.05 588,-156.5 587.96,-163.5"/>
</a>
</g>
</g>
<!-- Node4 -->
<g id="Node000004" class="node">
<title>Node4</title>
<g id="a_Node000004"><a xlink:href="classGraphicClient.html#a5cb5c37142e62f04824cc6e21dd199b2" target="_top" xlink:title="Main game loop iteration.">
<polygon fill="white" stroke="#666666" points="357,-158 217,-158 217,-139 357,-139 357,-158"/>
<text text-anchor="middle" x="287" y="-146" font-family="Helvetica,sans-Serif" font-size="10.00">GraphicClient::gameLoop</text>
</a>
</g>
</g>
<!-- Node3&#45;&gt;Node4 -->
<g id="edge3_Node000003_Node000004" class="edge">
<title>Node3&#45;&gt;Node4</title>
<g id="a_edge3_Node000003_Node000004"><a xlink:title=" ">
<path fill="none" stroke="#63b8ff" d="M407.34,-155.46C390.97,-154.51 373.51,-153.49 357.14,-152.53"/>
<polygon fill="#63b8ff" stroke="#63b8ff" points="407.19,-158.96 417.37,-156.05 407.6,-151.97 407.19,-158.96"/>
</a>
</g>
</g>
<!-- Node5 -->
<g id="Node000005" class="node">
<title>Node5</title>
<g id="a_Node000005"><a xlink:href="classGraphicClient.html#ad39a5f1d7ec30752f8d412d6925ef109" target="_top" xlink:title="Main application loop.">
<polygon fill="white" stroke="#666666" points="181,-130 77,-130 77,-111 181,-111 181,-130"/>
<text text-anchor="middle" x="129" y="-118" font-family="Helvetica,sans-Serif" font-size="10.00">GraphicClient::run</text>
</a>
</g>
</g>
<!-- Node4&#45;&gt;Node5 -->
<g id="edge4_Node000004_Node000005" class="edge">
<title>Node4&#45;&gt;Node5</title>
<g id="a_edge4_Node000004_Node000005"><a xlink:title=" ">
<path fill="none" stroke="#63b8ff" d="M222.81,-137.16C208.96,-134.67 194.47,-132.07 181.17,-129.68"/>
<polygon fill="#63b8ff" stroke="#63b8ff" points="222.29,-140.62 232.75,-138.94 223.53,-133.73 222.29,-140.62"/>
</a>
</g>
</g>
<!-- Node6 -->
<g id="Node000006" class="node">
<title>Node6</title>
<g id="a_Node000006"><a xlink:href="client_8cpp.html#ae66f6b31b5ad750f1fe042a706a4e3d4" target="_top" xlink:title=" ">
<polygon fill="white" stroke="#666666" points="41,-130 0,-130 0,-111 41,-111 41,-130"/>
<text text-anchor="middle" x="20.5" y="-118" font-family="Helvetica,sans-Serif" font-size="10.00">main</text>
</a>
</g>
</g>
<!-- Node5&#45;&gt;Node6 -->
<g id="edge5_Node000005_Node000006" class="edge">
<title>Node5&#45;&gt;Node6</title>
<g id="a_edge5_Node000005_Node000006"><a xlink:title=" ">
<path fill="none" stroke="#63b8ff" d="M66.83,-120.5C57.58,-120.5 48.66,-120.5 41.22,-120.5"/>
<polygon fill="#63b8ff" stroke="#63b8ff" points="66.93,-124 76.93,-120.5 66.93,-117 66.93,-124"/>
</a>
</g>
</g>
<!-- Node8 -->
<g id="Node000008" class="node">
<title>Node8</title>
<g id="a_Node000008"><a xlink:href="classGraphicClient.html#a4b416d0d2b3f07134ce30afb0c60adbe" target="_top" xlink:title="Initializes the client (connects to server, shows menus).">
<polygon fill="white" stroke="#666666" points="339,-112 235,-112 235,-93 339,-93 339,-112"/>
<text text-anchor="middle" x="287" y="-100" font-family="Helvetica,sans-Serif" font-size="10.00">GraphicClient::init</text>
</a>
</g>
</g>
<!-- Node7&#45;&gt;Node8 -->
<g id="edge7_Node000007_Node000008" class="edge">
<title>Node7&#45;&gt;Node8</title>
<g id="a_edge7_Node000007_Node000008"><a xlink:title=" ">
<path fill="none" stroke="#63b8ff" d="M393.94,-113.18C375.33,-111.3 356.11,-109.37 339.24,-107.66"/>
<polygon fill="#63b8ff" stroke="#63b8ff" points="393.59,-116.66 403.89,-114.18 394.29,-109.7 393.59,-116.66"/>
</a>
</g>
</g>
<!-- Node8&#45;&gt;Node5 -->
<g id="edge8_Node000008_Node000005" class="edge">
<title>Node8&#45;&gt;Node5</title>
<g id="a_edge8_Node000008_Node000005"><a xlink:title=" ">
<path fill="none" stroke="#63b8ff" d="M224.62,-109.58C210.24,-111.24 195.07,-112.99 181.19,-114.59"/>
<polygon fill="#63b8ff" stroke="#63b8ff" points="225.39,-113.02 234.92,-108.39 224.58,-106.06 225.39,-113.02"/>
</a>
</g>
</g>
<!-- Node9&#45;&gt;Node8 -->
<g id="edge10_Node000009_Node000008" class="edge">
<title>Node9&#45;&gt;Node8</title>
<g id="a_edge10_Node000009_Node000008"><a xlink:title=" ">
<path fill="none" stroke="#63b8ff" d="M382.66,-93.46C367.69,-94.89 352.7,-96.32 339.22,-97.61"/>
<polygon fill="#63b8ff" stroke="#63b8ff" points="383.38,-96.91 393,-92.47 382.71,-89.94 383.38,-96.91"/>
</a>
</g>
</g>
<!-- Node10&#45;&gt;Node8 -->
<g id="edge12_Node000010_Node000008" class="edge">
<title>Node10&#45;&gt;Node8</title>
<g id="a_edge12_Node000010_Node000008"><a xlink:title=" ">
<path fill="none" stroke="#63b8ff" d="M634.12,-20.85C622.13,-23.04 609.67,-25.33 598,-27.5 506.82,-44.46 482.65,-42.73 393,-66.5 365.06,-73.91 333.81,-84.99 312.73,-92.9"/>
<polygon fill="#63b8ff" stroke="#63b8ff" points="634.85,-24.28 644.07,-19.04 633.6,-17.39 634.85,-24.28"/>
</a>
</g>
</g>
<!-- Node11&#45;&gt;Node9 -->
<g id="edge14_Node000011_Node000009" class="edge">
<title>Node11&#45;&gt;Node9</title>
<g id="a_edge14_Node000011_Node000009"><a xlink:title=" ">
<path fill="none" stroke="#63b8ff" d="M632.16,-57.78C600.73,-63.24 563.38,-69.74 533.38,-74.96"/>
<polygon fill="#63b8ff" stroke="#63b8ff" points="632.89,-61.2 642.15,-56.04 631.69,-54.31 632.89,-61.2"/>
</a>
</g>
</g>
</g>
</svg>
