<?xml version="1.0" encoding="UTF-8" standalone="no"?>
<!DOCTYPE svg PUBLIC "-//W3C//DTD SVG 1.1//EN"
 "http://www.w3.org/Graphics/SVG/1.1/DTD/svg11.dtd">
<!-- Generated by graphviz version 2.43.0 (0)
 -->
<!-- Title: ECS::createEntity Pages: 1 -->
<svg width="1084pt" height="169pt"
 viewBox="0.00 0.00 1084.00 168.50" xmlns="http://www.w3.org/2000/svg" xmlns:xlink="http://www.w3.org/1999/xlink">
<g id="graph0" class="graph" transform="scale(1 1) rotate(0) translate(4 164.5)">
<title>ECS::createEntity</title>
<!-- Node1 -->
<g id="Node000001" class="node">
<title>Node1</title>
<g id="a_Node000001"><a xlink:title="Creates a new entity.">
<polygon fill="#999999" stroke="#666666" points="1076,-83 975,-83 975,-64 1076,-64 1076,-83"/>
<text text-anchor="middle" x="1025.5" y="-71" font-family="Helvetica,sans-Serif" font-size="10.00">ECS::createEntity</text>
</a>
</g>
</g>
<!-- Node2 -->
<g id="Node000002" class="node">
<title>Node2</title>
<g id="a_Node000002"><a xlink:href="classGraphicClient.html#a31bdd83222945e28b307b03b32135288" target="_top" xlink:title="Creates a bullet entity at specified position.">
<polygon fill="white" stroke="#666666" points="933.5,-160.5 785.5,-160.5 785.5,-130.5 933.5,-130.5 933.5,-160.5"/>
<text text-anchor="start" x="793.5" y="-148.5" font-family="Helvetica,sans-Serif" font-size="10.00">GraphicClient::createBullet</text>
<text text-anchor="middle" x="859.5" y="-137.5" font-family="Helvetica,sans-Serif" font-size="10.00">Entity</text>
</a>
</g>
</g>
<!-- Node1&#45;&gt;Node2 -->
<g id="edge1_Node000001_Node000002" class="edge">
<title>Node1&#45;&gt;Node2</title>
<g id="a_edge1_Node000001_Node000002"><a xlink:title=" ">
<path fill="none" stroke="#63b8ff" d="M1001.26,-88.35C984.45,-98.64 960.92,-112.12 939,-121.5 931.4,-124.75 923.21,-127.76 915.1,-130.47"/>
<polygon fill="#63b8ff" stroke="#63b8ff" points="1003.21,-91.26 1009.86,-83.01 999.52,-85.31 1003.21,-91.26"/>
</a>
</g>
</g>
<!-- Node8 -->
<g id="Node000008" class="node">
<title>Node8</title>
<g id="a_Node000008"><a xlink:href="classGraphicClient.html#a6dd918f7ac4761ab4946371df06386ec" target="_top" xlink:title="Creates a monster entity at specified position.">
<polygon fill="white" stroke="#666666" points="939,-112.5 780,-112.5 780,-82.5 939,-82.5 939,-112.5"/>
<text text-anchor="start" x="788" y="-100.5" font-family="Helvetica,sans-Serif" font-size="10.00">GraphicClient::createMonster</text>
<text text-anchor="middle" x="859.5" y="-89.5" font-family="Helvetica,sans-Serif" font-size="10.00">Entity</text>
</a>
</g>
</g>
<!-- Node1&#45;&gt;Node8 -->
<g id="edge7_Node000001_Node000008" class="edge">
<title>Node1&#45;&gt;Node8</title>
<g id="a_edge7_Node000001_Node000008"><a xlink:title=" ">
<path fill="none" stroke="#63b8ff" d="M964.82,-82.23C956.44,-83.46 947.72,-84.74 939.06,-86"/>
<polygon fill="#63b8ff" stroke="#63b8ff" points="965.46,-85.68 974.85,-80.77 964.45,-78.75 965.46,-85.68"/>
</a>
</g>
</g>
<!-- Node10 -->
<g id="Node000010" class="node">
<title>Node10</title>
<g id="a_Node000010"><a xlink:href="classGraphicClient.html#a1f97bf7f358d1d5a5d65069d641feb5b" target="_top" xlink:title="Creates a player entity at specified position.">
<polygon fill="white" stroke="#666666" points="934.5,-64.5 784.5,-64.5 784.5,-34.5 934.5,-34.5 934.5,-64.5"/>
<text text-anchor="start" x="792.5" y="-52.5" font-family="Helvetica,sans-Serif" font-size="10.00">GraphicClient::createPlayer</text>
<text text-anchor="middle" x="859.5" y="-41.5" font-family="Helvetica,sans-Serif" font-size="10.00">Entity</text>
</a>
</g>
</g>
<!-- Node1&#45;&gt;Node10 -->
<g id="edge10_Node000001_Node000010" class="edge">
<title>Node1&#45;&gt;Node10</title>
<g id="a_edge10_Node000001_Node000010"><a xlink:title=" ">
<path fill="none" stroke="#63b8ff" d="M964.86,-64.77C955.09,-63.34 944.87,-61.85 934.79,-60.37"/>
<polygon fill="#63b8ff" stroke="#63b8ff" points="964.45,-68.25 974.85,-66.23 965.46,-61.32 964.45,-68.25"/>
</a>
</g>
</g>
<!-- Node13 -->
<g id="Node000013" class="node">
<title>Node13</title>
<g id="a_Node000013"><a xlink:href="classGraphicClient.html#a70229e3e019e7b315f06c9ad74f23be5" target="_top" xlink:title="Shows lobby selection menu.">
<polygon fill="white" stroke="#666666" points="739.5,-19 592.5,-19 592.5,0 739.5,0 739.5,-19"/>
<text text-anchor="middle" x="666" y="-7" font-family="Helvetica,sans-Serif" font-size="10.00">GraphicClient::selectLobby</text>
</a>
</g>
</g>
<!-- Node1&#45;&gt;Node13 -->
<g id="edge15_Node000001_Node000013" class="edge">
<title>Node1&#45;&gt;Node13</title>
<g id="a_edge15_Node000001_Node000013"><a xlink:title=" ">
<path fill="none" stroke="#63b8ff" d="M1003.33,-58C986.73,-46.78 962.57,-32.41 939,-25.5 873.41,-6.27 795.2,-3.65 739.52,-5.02"/>
<polygon fill="#63b8ff" stroke="#63b8ff" points="1001.51,-61 1011.72,-63.85 1005.52,-55.26 1001.51,-61"/>
</a>
</g>
</g>
<!-- Node3 -->
<g id="Node000003" class="node">
<title>Node3</title>
<g id="a_Node000003"><a xlink:href="classGraphicClient.html#a61111e5d14a72f0f69344ab034a0622a" target="_top" xlink:title="Synchronizes bullet entities with server state.">
<polygon fill="white" stroke="#666666" points="738.5,-149 593.5,-149 593.5,-130 738.5,-130 738.5,-149"/>
<text text-anchor="middle" x="666" y="-137" font-family="Helvetica,sans-Serif" font-size="10.00">GraphicClient::syncBullets</text>
</a>
</g>
</g>
<!-- Node2&#45;&gt;Node3 -->
<g id="edge2_Node000002_Node000003" class="edge">
<title>Node2&#45;&gt;Node3</title>
<g id="a_edge2_Node000002_Node000003"><a xlink:title=" ">
<path fill="none" stroke="#63b8ff" d="M775.14,-142.89C762.96,-142.51 750.51,-142.12 738.6,-141.74"/>
<polygon fill="#63b8ff" stroke="#63b8ff" points="775.18,-146.39 785.28,-143.21 775.4,-139.39 775.18,-146.39"/>
</a>
</g>
</g>
<!-- Node4 -->
<g id="Node000004" class="node">
<title>Node4</title>
<g id="a_Node000004"><a xlink:href="classGraphicClient.html#a50072266faf2e76ace99e16c4c7b208a" target="_top" xlink:title="Updates all game entities based on delta time.">
<polygon fill="white" stroke="#666666" points="552,-101 393,-101 393,-82 552,-82 552,-101"/>
<text text-anchor="middle" x="472.5" y="-89" font-family="Helvetica,sans-Serif" font-size="10.00">GraphicClient::updateEntities</text>
</a>
</g>
</g>
<!-- Node3&#45;&gt;Node4 -->
<g id="edge3_Node000003_Node000004" class="edge">
<title>Node3&#45;&gt;Node4</title>
<g id="a_edge3_Node000003_Node000004"><a xlink:title=" ">
<path fill="none" stroke="#63b8ff" d="M616.95,-127.46C584.4,-119.3 541.98,-108.66 511.73,-101.08"/>
<polygon fill="#63b8ff" stroke="#63b8ff" points="616.16,-130.87 626.71,-129.9 617.86,-124.08 616.16,-130.87"/>
</a>
</g>
</g>
<!-- Node5 -->
<g id="Node000005" class="node">
<title>Node5</title>
<g id="a_Node000005"><a xlink:href="classGraphicClient.html#a5cb5c37142e62f04824cc6e21dd199b2" target="_top" xlink:title="Main game loop iteration.">
<polygon fill="white" stroke="#666666" points="357,-100 217,-100 217,-81 357,-81 357,-100"/>
<text text-anchor="middle" x="287" y="-88" font-family="Helvetica,sans-Serif" font-size="10.00">GraphicClient::gameLoop</text>
</a>
</g>
</g>
<!-- Node4&#45;&gt;Node5 -->
<g id="edge4_Node000004_Node000005" class="edge">
<title>Node4&#45;&gt;Node5</title>
<g id="a_edge4_Node000004_Node000005"><a xlink:title=" ">
<path fill="none" stroke="#63b8ff" d="M382.81,-91.02C374.21,-90.97 365.57,-90.92 357.2,-90.88"/>
<polygon fill="#63b8ff" stroke="#63b8ff" points="382.86,-94.52 392.88,-91.07 382.9,-87.52 382.86,-94.52"/>
</a>
</g>
</g>
<!-- Node6 -->
<g id="Node000006" class="node">
<title>Node6</title>
<g id="a_Node000006"><a xlink:href="classGraphicClient.html#ad39a5f1d7ec30752f8d412d6925ef109" target="_top" xlink:title="Main application loop.">
<polygon fill="white" stroke="#666666" points="181,-80 77,-80 77,-61 181,-61 181,-80"/>
<text text-anchor="middle" x="129" y="-68" font-family="Helvetica,sans-Serif" font-size="10.00">GraphicClient::run</text>
</a>
</g>
</g>
<!-- Node5&#45;&gt;Node6 -->
<g id="edge5_Node000005_Node000006" class="edge">
<title>Node5&#45;&gt;Node6</title>
<g id="a_edge5_Node000005_Node000006"><a xlink:title=" ">
<path fill="none" stroke="#63b8ff" d="M206.6,-80.32C198.02,-79.22 189.46,-78.12 181.33,-77.08"/>
<polygon fill="#63b8ff" stroke="#63b8ff" points="206.3,-83.81 216.67,-81.61 207.19,-76.87 206.3,-83.81"/>
</a>
</g>
</g>
<!-- Node7 -->
<g id="Node000007" class="node">
<title>Node7</title>
<g id="a_Node000007"><a xlink:href="client_8cpp.html#ae66f6b31b5ad750f1fe042a706a4e3d4" target="_top" xlink:title=" ">
<polygon fill="white" stroke="#666666" points="41,-80 0,-80 0,-61 41,-61 41,-80"/>
<text text-anchor="middle" x="20.5" y="-68" font-family="Helvetica,sans-Serif" font-size="10.00">main</text>
</a>
</g>
</g>
<!-- Node6&#45;&gt;Node7 -->
<g id="edge6_Node000006_Node000007" class="edge">
<title>Node6&#45;&gt;Node7</title>
<g id="a_edge6_Node000006_Node000007"><a xlink:title=" ">
<path fill="none" stroke="#63b8ff" d="M66.83,-70.5C57.58,-70.5 48.66,-70.5 41.22,-70.5"/>
<polygon fill="#63b8ff" stroke="#63b8ff" points="66.93,-74 76.93,-70.5 66.93,-67 66.93,-74"/>
</a>
</g>
</g>
<!-- Node9 -->
<g id="Node000009" class="node">
<title>Node9</title>
<g id="a_Node000009"><a xlink:href="classGraphicClient.html#afe45a37a11b23a08cce4d7c6b7efccbc" target="_top" xlink:title="Synchronizes monster entities with server state.">
<polygon fill="white" stroke="#666666" points="744,-106 588,-106 588,-87 744,-87 744,-106"/>
<text text-anchor="middle" x="666" y="-94" font-family="Helvetica,sans-Serif" font-size="10.00">GraphicClient::syncMonsters</text>
</a>
</g>
</g>
<!-- Node8&#45;&gt;Node9 -->
<g id="edge8_Node000008_Node000009" class="edge">
<title>Node8&#45;&gt;Node9</title>
<g id="a_edge8_Node000008_Node000009"><a xlink:title=" ">
<path fill="none" stroke="#63b8ff" d="M769.51,-97.04C761.05,-96.99 752.52,-96.95 744.18,-96.9"/>
<polygon fill="#63b8ff" stroke="#63b8ff" points="769.76,-100.54 779.78,-97.09 769.8,-93.54 769.76,-100.54"/>
</a>
</g>
</g>
<!-- Node9&#45;&gt;Node4 -->
<g id="edge9_Node000009_Node000004" class="edge">
<title>Node9&#45;&gt;Node4</title>
<g id="a_edge9_Node000009_Node000004"><a xlink:title=" ">
<path fill="none" stroke="#63b8ff" d="M577.67,-94.22C569.21,-94 560.65,-93.78 552.28,-93.56"/>
<polygon fill="#63b8ff" stroke="#63b8ff" points="577.85,-97.73 587.94,-94.49 578.03,-90.73 577.85,-97.73"/>
</a>
</g>
</g>
<!-- Node11 -->
<g id="Node000011" class="node">
<title>Node11</title>
<g id="a_Node000011"><a xlink:href="classGraphicClient.html#aacb31035c31d741d0ae2ca5ec9228b12" target="_top" xlink:title="Synchronizes player entities with server state.">
<polygon fill="white" stroke="#666666" points="740,-59 592,-59 592,-40 740,-40 740,-59"/>
<text text-anchor="middle" x="666" y="-47" font-family="Helvetica,sans-Serif" font-size="10.00">GraphicClient::syncEntities</text>
</a>
</g>
</g>
<!-- Node10&#45;&gt;Node11 -->
<g id="edge11_Node000010_Node000011" class="edge">
<title>Node10&#45;&gt;Node11</title>
<g id="a_edge11_Node000010_Node000011"><a xlink:title=" ">
<path fill="none" stroke="#63b8ff" d="M774.15,-49.5C762.84,-49.5 751.31,-49.5 740.21,-49.5"/>
<polygon fill="#63b8ff" stroke="#63b8ff" points="774.46,-53 784.46,-49.5 774.46,-46 774.46,-53"/>
</a>
</g>
</g>
<!-- Node11&#45;&gt;Node4 -->
<g id="edge14_Node000011_Node000004" class="edge">
<title>Node11&#45;&gt;Node4</title>
<g id="a_edge14_Node000011_Node000004"><a xlink:title=" ">
<path fill="none" stroke="#63b8ff" d="M611.72,-61.19C581.91,-67.72 545.2,-75.77 517.11,-81.93"/>
<polygon fill="#63b8ff" stroke="#63b8ff" points="612.53,-64.59 621.55,-59.03 611.03,-57.75 612.53,-64.59"/>
</a>
</g>
</g>
<!-- Node12 -->
<g id="Node000012" class="node">
<title>Node12</title>
<g id="a_Node000012"><a xlink:href="classGraphicClient.html#a4b416d0d2b3f07134ce30afb0c60adbe" target="_top" xlink:title="Initializes the client (connects to server, shows menus).">
<polygon fill="white" stroke="#666666" points="524.5,-59 420.5,-59 420.5,-40 524.5,-40 524.5,-59"/>
<text text-anchor="middle" x="472.5" y="-47" font-family="Helvetica,sans-Serif" font-size="10.00">GraphicClient::init</text>
</a>
</g>
</g>
<!-- Node11&#45;&gt;Node12 -->
<g id="edge12_Node000011_Node000012" class="edge">
<title>Node11&#45;&gt;Node12</title>
<g id="a_edge12_Node000011_Node000012"><a xlink:title=" ">
<path fill="none" stroke="#63b8ff" d="M581.72,-49.5C562.31,-49.5 542.21,-49.5 524.68,-49.5"/>
<polygon fill="#63b8ff" stroke="#63b8ff" points="581.78,-53 591.78,-49.5 581.78,-46 581.78,-53"/>
</a>
</g>
</g>
<!-- Node12&#45;&gt;Node6 -->
<g id="edge13_Node000012_Node000006" class="edge">
<title>Node12&#45;&gt;Node6</title>
<g id="a_edge13_Node000012_Node000006"><a xlink:title=" ">
<path fill="none" stroke="#63b8ff" d="M410.21,-53.27C344.83,-57.29 242.43,-63.59 181.2,-67.35"/>
<polygon fill="#63b8ff" stroke="#63b8ff" points="410.61,-56.75 420.37,-52.64 410.18,-49.76 410.61,-56.75"/>
</a>
</g>
</g>
<!-- Node13&#45;&gt;Node12 -->
<g id="edge16_Node000013_Node000012" class="edge">
<title>Node13&#45;&gt;Node12</title>
<g id="a_edge16_Node000013_Node000012"><a xlink:title=" ">
<path fill="none" stroke="#63b8ff" d="M609.25,-21.14C580.57,-27.14 546.05,-34.35 518.99,-40"/>
<polygon fill="#63b8ff" stroke="#63b8ff" points="610.06,-24.55 619.13,-19.08 608.63,-17.7 610.06,-24.55"/>
</a>
</g>
</g>
</g>
</svg>
