<?xml version="1.0" encoding="UTF-8" standalone="no"?>
<!DOCTYPE svg PUBLIC "-//W3C//DTD SVG 1.1//EN"
 "http://www.w3.org/Graphics/SVG/1.1/DTD/svg11.dtd">
<!-- Generated by graphviz version 2.43.0 (0)
 -->
<!-- Title: NetworkClient::sendPacketTcp Pages: 1 -->
<svg width="1370pt" height="275pt"
 viewBox="0.00 0.00 1370.00 275.00" xmlns="http://www.w3.org/2000/svg" xmlns:xlink="http://www.w3.org/1999/xlink">
<g id="graph0" class="graph" transform="scale(1 1) rotate(0) translate(4 271)">
<title>NetworkClient::sendPacketTcp</title>
<!-- Node1 -->
<g id="Node000001" class="node">
<title>Node1</title>
<g id="a_Node000001"><a xlink:title=" ">
<polygon fill="#999999" stroke="#666666" points="1362,-181 1199,-181 1199,-162 1362,-162 1362,-181"/>
<text text-anchor="middle" x="1280.5" y="-169" font-family="Helvetica,sans-Serif" font-size="10.00">NetworkClient::sendPacketTcp</text>
</a>
</g>
</g>
<!-- Node2 -->
<g id="Node000002" class="node">
<title>Node2</title>
<g id="a_Node000002"><a xlink:href="classNetworkClient.html#a1773337e67c321eece590156e1a7b38a" target="_top" xlink:title="Perform the application handshake over TCP.">
<polygon fill="white" stroke="#666666" points="964,-267 779,-267 779,-248 964,-248 964,-267"/>
<text text-anchor="middle" x="871.5" y="-255" font-family="Helvetica,sans-Serif" font-size="10.00">NetworkClient::performHandshake</text>
</a>
</g>
</g>
<!-- Node1&#45;&gt;Node2 -->
<g id="edge1_Node000001_Node000002" class="edge">
<title>Node1&#45;&gt;Node2</title>
<g id="a_edge1_Node000001_Node000002"><a xlink:title=" ">
<path fill="none" stroke="#63b8ff" d="M1246.13,-184.69C1223.09,-193.37 1191.56,-204.39 1163,-211.5 1094.74,-228.49 1015.83,-240.51 957.5,-248"/>
<polygon fill="#63b8ff" stroke="#63b8ff" points="1247.67,-187.85 1255.77,-181.01 1245.18,-181.31 1247.67,-187.85"/>
</a>
</g>
</g>
<!-- Node6 -->
<g id="Node000006" class="node">
<title>Node6</title>
<g id="a_Node000006"><a xlink:href="classNetworkClient.html#ae93ee27e05eea56b96d34c4789a01f41" target="_top" xlink:title="Send a chat message over TCP.">
<polygon fill="white" stroke="#666666" points="738.5,-19 600.5,-19 600.5,0 738.5,0 738.5,-19"/>
<text text-anchor="middle" x="669.5" y="-7" font-family="Helvetica,sans-Serif" font-size="10.00">NetworkClient::sendChat</text>
</a>
</g>
</g>
<!-- Node1&#45;&gt;Node6 -->
<g id="edge5_Node000001_Node000006" class="edge">
<title>Node1&#45;&gt;Node6</title>
<g id="a_edge5_Node000001_Node000006"><a xlink:title=" ">
<path fill="none" stroke="#63b8ff" d="M1259.6,-155.47C1237.25,-138.13 1199.33,-110.67 1163,-93.5 1022.42,-27.08 837.25,-12.49 738.85,-9.71"/>
<polygon fill="#63b8ff" stroke="#63b8ff" points="1257.62,-158.36 1267.64,-161.79 1261.95,-152.86 1257.62,-158.36"/>
</a>
</g>
</g>
<!-- Node8 -->
<g id="Node000008" class="node">
<title>Node8</title>
<g id="a_Node000008"><a xlink:href="classNetworkClient.html#a69d86a3b406a767d3feb704be440343a" target="_top" xlink:title="Ask the server to create a private lobby.">
<polygon fill="white" stroke="#666666" points="945.5,-229.5 797.5,-229.5 797.5,-199.5 945.5,-199.5 945.5,-229.5"/>
<text text-anchor="start" x="805.5" y="-217.5" font-family="Helvetica,sans-Serif" font-size="10.00">NetworkClient::sendCreate</text>
<text text-anchor="middle" x="871.5" y="-206.5" font-family="Helvetica,sans-Serif" font-size="10.00">Lobby</text>
</a>
</g>
</g>
<!-- Node1&#45;&gt;Node8 -->
<g id="edge8_Node000001_Node000008" class="edge">
<title>Node1&#45;&gt;Node8</title>
<g id="a_edge8_Node000001_Node000008"><a xlink:title=" ">
<path fill="none" stroke="#63b8ff" d="M1216.56,-182.7C1199.24,-185.53 1180.43,-188.36 1163,-190.5 1089.29,-199.54 1004.63,-206.1 945.79,-210.06"/>
<polygon fill="#63b8ff" stroke="#63b8ff" points="1217.27,-186.13 1226.56,-181.04 1216.12,-179.23 1217.27,-186.13"/>
</a>
</g>
</g>
<!-- Node10 -->
<g id="Node000010" class="node">
<title>Node10</title>
<g id="a_Node000010"><a xlink:href="classNetworkClient.html#ab66ff3a3c9bb96ad56e141d3713914bd" target="_top" xlink:title="Ask the server to join an existing lobby.">
<polygon fill="white" stroke="#666666" points="1163,-181 1000,-181 1000,-162 1163,-162 1163,-181"/>
<text text-anchor="middle" x="1081.5" y="-169" font-family="Helvetica,sans-Serif" font-size="10.00">NetworkClient::sendJoinLobby</text>
</a>
</g>
</g>
<!-- Node1&#45;&gt;Node10 -->
<g id="edge11_Node000001_Node000010" class="edge">
<title>Node1&#45;&gt;Node10</title>
<g id="a_edge11_Node000001_Node000010"><a xlink:title=" ">
<path fill="none" stroke="#63b8ff" d="M1188.78,-171.5C1180.2,-171.5 1171.55,-171.5 1163.07,-171.5"/>
<polygon fill="#63b8ff" stroke="#63b8ff" points="1188.8,-175 1198.8,-171.5 1188.8,-168 1188.8,-175"/>
</a>
</g>
</g>
<!-- Node11 -->
<g id="Node000011" class="node">
<title>Node11</title>
<g id="a_Node000011"><a xlink:href="classNetworkClient.html#a28a515bbb5f6f75d6603a5332c217f93" target="_top" xlink:title="Send TCP PONG in response to server PING.">
<polygon fill="white" stroke="#666666" points="1151.5,-121 1011.5,-121 1011.5,-102 1151.5,-102 1151.5,-121"/>
<text text-anchor="middle" x="1081.5" y="-109" font-family="Helvetica,sans-Serif" font-size="10.00">NetworkClient::sendPong</text>
</a>
</g>
</g>
<!-- Node1&#45;&gt;Node11 -->
<g id="edge13_Node000001_Node000011" class="edge">
<title>Node1&#45;&gt;Node11</title>
<g id="a_edge13_Node000001_Node000011"><a xlink:title=" ">
<path fill="none" stroke="#63b8ff" d="M1238.3,-158.95C1201.24,-147.66 1147.58,-131.32 1113.89,-121.06"/>
<polygon fill="#63b8ff" stroke="#63b8ff" points="1237.7,-162.43 1248.28,-161.99 1239.74,-155.73 1237.7,-162.43"/>
</a>
</g>
</g>
<!-- Node3 -->
<g id="Node000003" class="node">
<title>Node3</title>
<g id="a_Node000003"><a xlink:href="classGraphicClient.html#a4b416d0d2b3f07134ce30afb0c60adbe" target="_top" xlink:title="Initializes the client (connects to server, shows menus).">
<polygon fill="white" stroke="#666666" points="339,-162 235,-162 235,-143 339,-143 339,-162"/>
<text text-anchor="middle" x="287" y="-150" font-family="Helvetica,sans-Serif" font-size="10.00">GraphicClient::init</text>
</a>
</g>
</g>
<!-- Node2&#45;&gt;Node3 -->
<g id="edge2_Node000002_Node000003" class="edge">
<title>Node2&#45;&gt;Node3</title>
<g id="a_edge2_Node000002_Node000003"><a xlink:title=" ">
<path fill="none" stroke="#63b8ff" d="M768.63,-249.39C671.15,-240.18 520.51,-222.15 393,-190.5 363.65,-183.21 331.08,-170.7 310.11,-162.03"/>
<polygon fill="#63b8ff" stroke="#63b8ff" points="768.49,-252.89 778.77,-250.33 769.14,-245.92 768.49,-252.89"/>
</a>
</g>
</g>
<!-- Node4 -->
<g id="Node000004" class="node">
<title>Node4</title>
<g id="a_Node000004"><a xlink:href="classGraphicClient.html#ad39a5f1d7ec30752f8d412d6925ef109" target="_top" xlink:title="Main application loop.">
<polygon fill="white" stroke="#666666" points="181,-100 77,-100 77,-81 181,-81 181,-100"/>
<text text-anchor="middle" x="129" y="-88" font-family="Helvetica,sans-Serif" font-size="10.00">GraphicClient::run</text>
</a>
</g>
</g>
<!-- Node3&#45;&gt;Node4 -->
<g id="edge3_Node000003_Node000004" class="edge">
<title>Node3&#45;&gt;Node4</title>
<g id="a_edge3_Node000003_Node000004"><a xlink:title=" ">
<path fill="none" stroke="#63b8ff" d="M252.46,-139.17C222.85,-127.4 180.41,-110.53 154.06,-100.06"/>
<polygon fill="#63b8ff" stroke="#63b8ff" points="251.38,-142.51 261.97,-142.95 253.97,-136 251.38,-142.51"/>
</a>
</g>
</g>
<!-- Node5 -->
<g id="Node000005" class="node">
<title>Node5</title>
<g id="a_Node000005"><a xlink:href="client_8cpp.html#ae66f6b31b5ad750f1fe042a706a4e3d4" target="_top" xlink:title=" ">
<polygon fill="white" stroke="#666666" points="41,-100 0,-100 0,-81 41,-81 41,-100"/>
<text text-anchor="middle" x="20.5" y="-88" font-family="Helvetica,sans-Serif" font-size="10.00">main</text>
</a>
</g>
</g>
<!-- Node4&#45;&gt;Node5 -->
<g id="edge4_Node000004_Node000005" class="edge">
<title>Node4&#45;&gt;Node5</title>
<g id="a_edge4_Node000004_Node000005"><a xlink:title=" ">
<path fill="none" stroke="#63b8ff" d="M66.83,-90.5C57.58,-90.5 48.66,-90.5 41.22,-90.5"/>
<polygon fill="#63b8ff" stroke="#63b8ff" points="66.93,-94 76.93,-90.5 66.93,-87 66.93,-94"/>
</a>
</g>
</g>
<!-- Node7 -->
<g id="Node000007" class="node">
<title>Node7</title>
<g id="a_Node000007"><a xlink:href="classGraphicClient.html#a5cb5c37142e62f04824cc6e21dd199b2" target="_top" xlink:title="Main game loop iteration.">
<polygon fill="white" stroke="#666666" points="357,-79 217,-79 217,-60 357,-60 357,-79"/>
<text text-anchor="middle" x="287" y="-67" font-family="Helvetica,sans-Serif" font-size="10.00">GraphicClient::gameLoop</text>
</a>
</g>
</g>
<!-- Node6&#45;&gt;Node7 -->
<g id="edge6_Node000006_Node000007" class="edge">
<title>Node6&#45;&gt;Node7</title>
<g id="a_edge6_Node000006_Node000007"><a xlink:title=" ">
<path fill="none" stroke="#63b8ff" d="M590.33,-11.25C534.77,-13.72 458.66,-19.6 393,-33.5 363.78,-39.69 331.45,-51.58 310.49,-60"/>
<polygon fill="#63b8ff" stroke="#63b8ff" points="590.61,-14.75 600.46,-10.83 590.32,-7.75 590.61,-14.75"/>
</a>
</g>
</g>
<!-- Node7&#45;&gt;Node4 -->
<g id="edge7_Node000007_Node000004" class="edge">
<title>Node7&#45;&gt;Node4</title>
<g id="a_edge7_Node000007_Node000004"><a xlink:title=" ">
<path fill="none" stroke="#63b8ff" d="M206.6,-80.19C198.02,-81.34 189.46,-82.5 181.33,-83.59"/>
<polygon fill="#63b8ff" stroke="#63b8ff" points="207.22,-83.64 216.67,-78.83 206.29,-76.7 207.22,-83.64"/>
</a>
</g>
</g>
<!-- Node9 -->
<g id="Node000009" class="node">
<title>Node9</title>
<g id="a_Node000009"><a xlink:href="classGraphicClient.html#a70229e3e019e7b315f06c9ad74f23be5" target="_top" xlink:title="Shows lobby selection menu.">
<polygon fill="white" stroke="#666666" points="550,-181 403,-181 403,-162 550,-162 550,-181"/>
<text text-anchor="middle" x="476.5" y="-169" font-family="Helvetica,sans-Serif" font-size="10.00">GraphicClient::selectLobby</text>
</a>
</g>
</g>
<!-- Node8&#45;&gt;Node9 -->
<g id="edge9_Node000008_Node000009" class="edge">
<title>Node8&#45;&gt;Node9</title>
<g id="a_edge9_Node000008_Node000009"><a xlink:title=" ">
<path fill="none" stroke="#63b8ff" d="M787.41,-205.99C732.96,-200.35 660.22,-192.69 596,-185.5 581.18,-183.84 565.32,-182.01 550.18,-180.23"/>
<polygon fill="#63b8ff" stroke="#63b8ff" points="787.06,-209.47 797.36,-207.02 787.78,-202.51 787.06,-209.47"/>
</a>
</g>
</g>
<!-- Node9&#45;&gt;Node3 -->
<g id="edge10_Node000009_Node000003" class="edge">
<title>Node9&#45;&gt;Node3</title>
<g id="a_edge10_Node000009_Node000003"><a xlink:title=" ">
<path fill="none" stroke="#63b8ff" d="M392.71,-163.11C374.51,-161.27 355.76,-159.37 339.24,-157.69"/>
<polygon fill="#63b8ff" stroke="#63b8ff" points="392.44,-166.6 402.74,-164.13 393.14,-159.64 392.44,-166.6"/>
</a>
</g>
</g>
<!-- Node10&#45;&gt;Node9 -->
<g id="edge12_Node000010_Node000009" class="edge">
<title>Node10&#45;&gt;Node9</title>
<g id="a_edge12_Node000010_Node000009"><a xlink:title=" ">
<path fill="none" stroke="#63b8ff" d="M989.53,-171.5C869.43,-171.5 660.34,-171.5 550.18,-171.5"/>
<polygon fill="#63b8ff" stroke="#63b8ff" points="989.8,-175 999.8,-171.5 989.8,-168 989.8,-175"/>
</a>
</g>
</g>
<!-- Node11&#45;&gt;Node7 -->
<g id="edge14_Node000011_Node000007" class="edge">
<title>Node11&#45;&gt;Node7</title>
<g id="a_edge14_Node000011_Node000007"><a xlink:title=" ">
<path fill="none" stroke="#63b8ff" d="M1046.04,-98.26C1031.79,-92.77 1015.09,-86.34 1000,-80.5 983.99,-74.3 980.87,-69.67 964,-66.5 745.7,-25.55 480.72,-46.78 357.39,-60.64"/>
<polygon fill="#63b8ff" stroke="#63b8ff" points="1044.88,-101.56 1055.47,-101.89 1047.4,-95.03 1044.88,-101.56"/>
</a>
</g>
</g>
<!-- Node11&#45;&gt;Node9 -->
<g id="edge21_Node000011_Node000009" class="edge">
<title>Node11&#45;&gt;Node9</title>
<g id="a_edge21_Node000011_Node000009"><a xlink:title=" ">
<path fill="none" stroke="#63b8ff" d="M1001.29,-119.38C883.51,-131.1 663.89,-152.95 550.07,-164.28"/>
<polygon fill="#63b8ff" stroke="#63b8ff" points="1001.72,-122.86 1011.33,-118.38 1001.03,-115.89 1001.72,-122.86"/>
</a>
</g>
</g>
<!-- Node12 -->
<g id="Node000012" class="node">
<title>Node12</title>
<g id="a_Node000012"><a xlink:href="classNetworkClient.html#a5bc6fcb253ac9f9d74c649cb4b30d546" target="_top" xlink:title=" ">
<polygon fill="white" stroke="#666666" points="942,-105.5 801,-105.5 801,-75.5 942,-75.5 942,-105.5"/>
<text text-anchor="start" x="809" y="-93.5" font-family="Helvetica,sans-Serif" font-size="10.00">NetworkClient::handleTcp</text>
<text text-anchor="middle" x="871.5" y="-82.5" font-family="Helvetica,sans-Serif" font-size="10.00">Packet</text>
</a>
</g>
</g>
<!-- Node11&#45;&gt;Node12 -->
<g id="edge15_Node000011_Node000012" class="edge">
<title>Node11&#45;&gt;Node12</title>
<g id="a_edge15_Node000011_Node000012"><a xlink:title=" ">
<path fill="none" stroke="#63b8ff" d="M1001.2,-103.49C981.77,-101.53 961.11,-99.45 942.17,-97.53"/>
<polygon fill="#63b8ff" stroke="#63b8ff" points="1000.94,-106.99 1011.24,-104.51 1001.64,-100.02 1000.94,-106.99"/>
</a>
</g>
</g>
<!-- Node13 -->
<g id="Node000013" class="node">
<title>Node13</title>
<g id="a_Node000013"><a xlink:href="classNetworkClient.html#a1f77ff0729755d9782b4542582cfe214" target="_top" xlink:title="Poll TCP/UDP sockets and handle any received packets.">
<polygon fill="white" stroke="#666666" points="743,-102 596,-102 596,-83 743,-83 743,-102"/>
<text text-anchor="middle" x="669.5" y="-90" font-family="Helvetica,sans-Serif" font-size="10.00">NetworkClient::pollPackets</text>
</a>
</g>
</g>
<!-- Node12&#45;&gt;Node13 -->
<g id="edge16_Node000012_Node000013" class="edge">
<title>Node12&#45;&gt;Node13</title>
<g id="a_edge16_Node000012_Node000013"><a xlink:title=" ">
<path fill="none" stroke="#63b8ff" d="M790.67,-91.3C775.03,-91.45 758.71,-91.62 743.32,-91.77"/>
<polygon fill="#63b8ff" stroke="#63b8ff" points="790.87,-94.8 800.83,-91.2 790.8,-87.8 790.87,-94.8"/>
</a>
</g>
</g>
<!-- Node13&#45;&gt;Node3 -->
<g id="edge17_Node000013_Node000003" class="edge">
<title>Node13&#45;&gt;Node3</title>
<g id="a_edge17_Node000013_Node000003"><a xlink:title=" ">
<path fill="none" stroke="#63b8ff" d="M614.56,-104.11C597.18,-107.67 577.82,-111.45 560,-114.5 483.28,-127.63 393.79,-139.46 339.03,-146.32"/>
<polygon fill="#63b8ff" stroke="#63b8ff" points="615.45,-107.5 624.53,-102.05 614.03,-100.65 615.45,-107.5"/>
</a>
</g>
</g>
<!-- Node13&#45;&gt;Node9 -->
<g id="edge20_Node000013_Node000009" class="edge">
<title>Node13&#45;&gt;Node9</title>
<g id="a_edge20_Node000013_Node000009"><a xlink:title=" ">
<path fill="none" stroke="#63b8ff" d="M626.82,-105.55C616.47,-109.45 605.6,-114.15 596,-119.5 578.3,-129.37 578.05,-138.28 560,-147.5 548.18,-153.54 534.6,-158.28 521.92,-161.89"/>
<polygon fill="#63b8ff" stroke="#63b8ff" points="628.3,-108.74 636.53,-102.05 625.93,-102.15 628.3,-108.74"/>
</a>
</g>
</g>
<!-- Node14 -->
<g id="Node000014" class="node">
<title>Node14</title>
<g id="a_Node000014"><a xlink:href="classGraphicClient.html#a1fa2cfd0c71b32b0b1f0e0675a2e1cb2" target="_top" xlink:title="Processes network events and updates game state.">
<polygon fill="white" stroke="#666666" points="560,-105.5 393,-105.5 393,-75.5 560,-75.5 560,-105.5"/>
<text text-anchor="start" x="401" y="-93.5" font-family="Helvetica,sans-Serif" font-size="10.00">GraphicClient::processNetwork</text>
<text text-anchor="middle" x="476.5" y="-82.5" font-family="Helvetica,sans-Serif" font-size="10.00">Events</text>
</a>
</g>
</g>
<!-- Node13&#45;&gt;Node14 -->
<g id="edge18_Node000013_Node000014" class="edge">
<title>Node13&#45;&gt;Node14</title>
<g id="a_edge18_Node000013_Node000014"><a xlink:title=" ">
<path fill="none" stroke="#63b8ff" d="M585.59,-91.63C577.19,-91.54 568.67,-91.45 560.27,-91.37"/>
<polygon fill="#63b8ff" stroke="#63b8ff" points="585.71,-95.13 595.75,-91.74 585.78,-88.13 585.71,-95.13"/>
</a>
</g>
</g>
<!-- Node14&#45;&gt;Node7 -->
<g id="edge19_Node000014_Node000007" class="edge">
<title>Node14&#45;&gt;Node7</title>
<g id="a_edge19_Node000014_Node000007"><a xlink:title=" ">
<path fill="none" stroke="#63b8ff" d="M382.83,-80.12C374.16,-79.15 365.48,-78.18 357.08,-77.24"/>
<polygon fill="#63b8ff" stroke="#63b8ff" points="382.66,-83.62 392.99,-81.26 383.44,-76.67 382.66,-83.62"/>
</a>
</g>
</g>
</g>
</svg>
