<?xml version="1.0" encoding="UTF-8" standalone="no"?>
<!DOCTYPE svg PUBLIC "-//W3C//DTD SVG 1.1//EN"
 "http://www.w3.org/Graphics/SVG/1.1/DTD/svg11.dtd">
<!-- Generated by graphviz version 2.43.0 (0)
 -->
<!-- Title: NetworkClient::receiveTcpFramed Pages: 1 -->
<svg width="1166pt" height="149pt"
 viewBox="0.00 0.00 1166.00 148.50" xmlns="http://www.w3.org/2000/svg" xmlns:xlink="http://www.w3.org/1999/xlink">
<g id="graph0" class="graph" transform="scale(1 1) rotate(0) translate(4 144.5)">
<title>NetworkClient::receiveTcpFramed</title>
<!-- Node1 -->
<g id="Node000001" class="node">
<title>Node1</title>
<g id="a_Node000001"><a xlink:title=" ">
<polygon fill="#999999" stroke="#666666" points="1158,-116 1014,-116 1014,-86 1158,-86 1158,-116"/>
<text text-anchor="start" x="1022" y="-104" font-family="Helvetica,sans-Serif" font-size="10.00">NetworkClient::receiveTcp</text>
<text text-anchor="middle" x="1086" y="-93" font-family="Helvetica,sans-Serif" font-size="10.00">Framed</text>
</a>
</g>
</g>
<!-- Node2 -->
<g id="Node000002" class="node">
<title>Node2</title>
<g id="a_Node000002"><a xlink:href="classNetworkClient.html#a1773337e67c321eece590156e1a7b38a" target="_top" xlink:title="Perform the application handshake over TCP.">
<polygon fill="white" stroke="#666666" points="781,-140.5 596,-140.5 596,-121.5 781,-121.5 781,-140.5"/>
<text text-anchor="middle" x="688.5" y="-128.5" font-family="Helvetica,sans-Serif" font-size="10.00">NetworkClient::performHandshake</text>
</a>
</g>
</g>
<!-- Node1&#45;&gt;Node2 -->
<g id="edge1_Node000001_Node000002" class="edge">
<title>Node1&#45;&gt;Node2</title>
<g id="a_edge1_Node000001_Node000002"><a xlink:title=" ">
<path fill="none" stroke="#63b8ff" d="M1003.69,-107.17C939.04,-112.07 848.61,-118.93 781.35,-124.03"/>
<polygon fill="#63b8ff" stroke="#63b8ff" points="1004.13,-110.64 1013.84,-106.4 1003.6,-103.66 1004.13,-110.64"/>
</a>
</g>
</g>
<!-- Node6 -->
<g id="Node000006" class="node">
<title>Node6</title>
<g id="a_Node000006"><a xlink:href="classNetworkClient.html#ac0dca5641be17084ead40825063b944e" target="_top" xlink:title=" ">
<polygon fill="white" stroke="#666666" points="978,-91.5 817,-91.5 817,-72.5 978,-72.5 978,-91.5"/>
<text text-anchor="middle" x="897.5" y="-79.5" font-family="Helvetica,sans-Serif" font-size="10.00">NetworkClient::readTcpPacket</text>
</a>
</g>
</g>
<!-- Node1&#45;&gt;Node6 -->
<g id="edge5_Node000001_Node000006" class="edge">
<title>Node1&#45;&gt;Node6</title>
<g id="a_edge5_Node000001_Node000006"><a xlink:title=" ">
<path fill="none" stroke="#63b8ff" d="M1003.96,-92.74C995.37,-91.87 986.64,-90.98 978.06,-90.11"/>
<polygon fill="#63b8ff" stroke="#63b8ff" points="1003.66,-96.23 1013.96,-93.76 1004.37,-89.27 1003.66,-96.23"/>
</a>
</g>
</g>
<!-- Node3 -->
<g id="Node000003" class="node">
<title>Node3</title>
<g id="a_Node000003"><a xlink:href="classGraphicClient.html#a4b416d0d2b3f07134ce30afb0c60adbe" target="_top" xlink:title="Initializes the client (connects to server, shows menus).">
<polygon fill="white" stroke="#666666" points="339,-86.5 235,-86.5 235,-67.5 339,-67.5 339,-86.5"/>
<text text-anchor="middle" x="287" y="-74.5" font-family="Helvetica,sans-Serif" font-size="10.00">GraphicClient::init</text>
</a>
</g>
</g>
<!-- Node2&#45;&gt;Node3 -->
<g id="edge2_Node000002_Node000003" class="edge">
<title>Node2&#45;&gt;Node3</title>
<g id="a_edge2_Node000002_Node000003"><a xlink:title=" ">
<path fill="none" stroke="#63b8ff" d="M603.94,-120.17C544.97,-112.46 464.12,-101.79 393,-92 375.49,-89.59 356.34,-86.88 339.25,-84.43"/>
<polygon fill="#63b8ff" stroke="#63b8ff" points="603.58,-123.65 613.95,-121.47 604.48,-116.71 603.58,-123.65"/>
</a>
</g>
</g>
<!-- Node4 -->
<g id="Node000004" class="node">
<title>Node4</title>
<g id="a_Node000004"><a xlink:href="classGraphicClient.html#ad39a5f1d7ec30752f8d412d6925ef109" target="_top" xlink:title="Main application loop.">
<polygon fill="white" stroke="#666666" points="181,-64.5 77,-64.5 77,-45.5 181,-45.5 181,-64.5"/>
<text text-anchor="middle" x="129" y="-52.5" font-family="Helvetica,sans-Serif" font-size="10.00">GraphicClient::run</text>
</a>
</g>
</g>
<!-- Node3&#45;&gt;Node4 -->
<g id="edge3_Node000003_Node000004" class="edge">
<title>Node3&#45;&gt;Node4</title>
<g id="a_edge3_Node000003_Node000004"><a xlink:title=" ">
<path fill="none" stroke="#63b8ff" d="M224.62,-68.34C210.24,-66.32 195.07,-64.18 181.19,-62.22"/>
<polygon fill="#63b8ff" stroke="#63b8ff" points="224.53,-71.87 234.92,-69.8 225.51,-64.93 224.53,-71.87"/>
</a>
</g>
</g>
<!-- Node5 -->
<g id="Node000005" class="node">
<title>Node5</title>
<g id="a_Node000005"><a xlink:href="client_8cpp.html#ae66f6b31b5ad750f1fe042a706a4e3d4" target="_top" xlink:title=" ">
<polygon fill="white" stroke="#666666" points="41,-64.5 0,-64.5 0,-45.5 41,-45.5 41,-64.5"/>
<text text-anchor="middle" x="20.5" y="-52.5" font-family="Helvetica,sans-Serif" font-size="10.00">main</text>
</a>
</g>
</g>
<!-- Node4&#45;&gt;Node5 -->
<g id="edge4_Node000004_Node000005" class="edge">
<title>Node4&#45;&gt;Node5</title>
<g id="a_edge4_Node000004_Node000005"><a xlink:title=" ">
<path fill="none" stroke="#63b8ff" d="M66.83,-55C57.58,-55 48.66,-55 41.22,-55"/>
<polygon fill="#63b8ff" stroke="#63b8ff" points="66.93,-58.5 76.93,-55 66.93,-51.5 66.93,-58.5"/>
</a>
</g>
</g>
<!-- Node7 -->
<g id="Node000007" class="node">
<title>Node7</title>
<g id="a_Node000007"><a xlink:href="classNetworkClient.html#a1f77ff0729755d9782b4542582cfe214" target="_top" xlink:title="Poll TCP/UDP sockets and handle any received packets.">
<polygon fill="white" stroke="#666666" points="762,-72.5 615,-72.5 615,-53.5 762,-53.5 762,-72.5"/>
<text text-anchor="middle" x="688.5" y="-60.5" font-family="Helvetica,sans-Serif" font-size="10.00">NetworkClient::pollPackets</text>
</a>
</g>
</g>
<!-- Node6&#45;&gt;Node7 -->
<g id="edge6_Node000006_Node000007" class="edge">
<title>Node6&#45;&gt;Node7</title>
<g id="a_edge6_Node000006_Node000007"><a xlink:title=" ">
<path fill="none" stroke="#63b8ff" d="M806.55,-73.74C791.69,-72.38 776.45,-70.98 762.08,-69.66"/>
<polygon fill="#63b8ff" stroke="#63b8ff" points="806.49,-77.25 816.76,-74.68 807.13,-70.28 806.49,-77.25"/>
</a>
</g>
</g>
<!-- Node7&#45;&gt;Node3 -->
<g id="edge7_Node000007_Node000003" class="edge">
<title>Node7&#45;&gt;Node3</title>
<g id="a_edge7_Node000007_Node000003"><a xlink:title=" ">
<path fill="none" stroke="#63b8ff" d="M604.6,-72.64C589.77,-74.03 574.44,-75.24 560,-76 483.13,-80.05 393.88,-79.35 339.18,-78.3"/>
<polygon fill="#63b8ff" stroke="#63b8ff" points="605.16,-76.1 614.78,-71.66 604.49,-69.14 605.16,-76.1"/>
</a>
</g>
</g>
<!-- Node8 -->
<g id="Node000008" class="node">
<title>Node8</title>
<g id="a_Node000008"><a xlink:href="classGraphicClient.html#a1fa2cfd0c71b32b0b1f0e0675a2e1cb2" target="_top" xlink:title="Processes network events and updates game state.">
<polygon fill="white" stroke="#666666" points="560,-30 393,-30 393,0 560,0 560,-30"/>
<text text-anchor="start" x="401" y="-18" font-family="Helvetica,sans-Serif" font-size="10.00">GraphicClient::processNetwork</text>
<text text-anchor="middle" x="476.5" y="-7" font-family="Helvetica,sans-Serif" font-size="10.00">Events</text>
</a>
</g>
</g>
<!-- Node7&#45;&gt;Node8 -->
<g id="edge8_Node000007_Node000008" class="edge">
<title>Node7&#45;&gt;Node8</title>
<g id="a_edge8_Node000007_Node000008"><a xlink:title=" ">
<path fill="none" stroke="#63b8ff" d="M635.79,-51.18C607.83,-44.79 573,-36.83 543.14,-30"/>
<polygon fill="#63b8ff" stroke="#63b8ff" points="635.23,-54.64 645.76,-53.46 636.79,-47.82 635.23,-54.64"/>
</a>
</g>
</g>
<!-- Node10 -->
<g id="Node000010" class="node">
<title>Node10</title>
<g id="a_Node000010"><a xlink:href="classGraphicClient.html#a70229e3e019e7b315f06c9ad74f23be5" target="_top" xlink:title="Shows lobby selection menu.">
<polygon fill="white" stroke="#666666" points="550,-67.5 403,-67.5 403,-48.5 550,-48.5 550,-67.5"/>
<text text-anchor="middle" x="476.5" y="-55.5" font-family="Helvetica,sans-Serif" font-size="10.00">GraphicClient::selectLobby</text>
</a>
</g>
</g>
<!-- Node7&#45;&gt;Node10 -->
<g id="edge11_Node000007_Node000010" class="edge">
<title>Node7&#45;&gt;Node10</title>
<g id="a_edge11_Node000007_Node000010"><a xlink:title=" ">
<path fill="none" stroke="#63b8ff" d="M604.72,-61.03C586.67,-60.6 567.69,-60.15 550.07,-59.73"/>
<polygon fill="#63b8ff" stroke="#63b8ff" points="604.86,-64.53 614.94,-61.27 605.02,-57.54 604.86,-64.53"/>
</a>
</g>
</g>
<!-- Node9 -->
<g id="Node000009" class="node">
<title>Node9</title>
<g id="a_Node000009"><a xlink:href="classGraphicClient.html#a5cb5c37142e62f04824cc6e21dd199b2" target="_top" xlink:title="Main game loop iteration.">
<polygon fill="white" stroke="#666666" points="357,-46.5 217,-46.5 217,-27.5 357,-27.5 357,-46.5"/>
<text text-anchor="middle" x="287" y="-34.5" font-family="Helvetica,sans-Serif" font-size="10.00">GraphicClient::gameLoop</text>
</a>
</g>
</g>
<!-- Node8&#45;&gt;Node9 -->
<g id="edge9_Node000008_Node000009" class="edge">
<title>Node8&#45;&gt;Node9</title>
<g id="a_edge9_Node000008_Node000009"><a xlink:title=" ">
<path fill="none" stroke="#63b8ff" d="M382.83,-25.87C374.16,-26.89 365.48,-27.91 357.08,-28.89"/>
<polygon fill="#63b8ff" stroke="#63b8ff" points="383.46,-29.32 392.99,-24.68 382.65,-22.37 383.46,-29.32"/>
</a>
</g>
</g>
<!-- Node9&#45;&gt;Node4 -->
<g id="edge10_Node000009_Node000004" class="edge">
<title>Node9&#45;&gt;Node4</title>
<g id="a_edge10_Node000009_Node000004"><a xlink:title=" ">
<path fill="none" stroke="#63b8ff" d="M206.6,-46.16C198.02,-47.15 189.46,-48.14 181.33,-49.08"/>
<polygon fill="#63b8ff" stroke="#63b8ff" points="207.13,-49.62 216.67,-45 206.33,-42.67 207.13,-49.62"/>
</a>
</g>
</g>
<!-- Node10&#45;&gt;Node3 -->
<g id="edge12_Node000010_Node000003" class="edge">
<title>Node10&#45;&gt;Node3</title>
<g id="a_edge12_Node000010_Node000003"><a xlink:title=" ">
<path fill="none" stroke="#63b8ff" d="M392.71,-66.39C374.51,-68.23 355.76,-70.13 339.24,-71.81"/>
<polygon fill="#63b8ff" stroke="#63b8ff" points="393.14,-69.86 402.74,-65.37 392.44,-62.9 393.14,-69.86"/>
</a>
</g>
</g>
</g>
</svg>
