<?xml version="1.0" encoding="UTF-8" standalone="no"?>
<!DOCTYPE svg PUBLIC "-//W3C//DTD SVG 1.1//EN"
 "http://www.w3.org/Graphics/SVG/1.1/DTD/svg11.dtd">
<!-- Generated by graphviz version 2.43.0 (0)
 -->
<!-- Title: UDPGameServer::handlePacket Pages: 1 -->
<svg width="756pt" height="288pt"
 viewBox="0.00 0.00 756.00 287.50" xmlns="http://www.w3.org/2000/svg" xmlns:xlink="http://www.w3.org/1999/xlink">
<g id="graph0" class="graph" transform="scale(1 1) rotate(0) translate(4 283.5)">
<title>UDPGameServer::handlePacket</title>
<!-- Node1 -->
<g id="Node000001" class="node">
<title>Node1</title>
<g id="a_Node000001"><a xlink:title="Route an incoming packet to the appropriate handler.">
<polygon fill="#999999" stroke="#666666" points="169,-222.5 0,-222.5 0,-203.5 169,-203.5 169,-222.5"/>
<text text-anchor="middle" x="84.5" y="-210.5" font-family="Helvetica,sans-Serif" font-size="10.00">UDPGameServer::handlePacket</text>
</a>
</g>
</g>
<!-- Node2 -->
<g id="Node000002" class="node">
<title>Node2</title>
<g id="a_Node000002"><a xlink:href="classUDPGameServer.html#a367b917d572ad28819003841b3be180c" target="_top" xlink:title="Register a new player on receipt of a hello message.">
<polygon fill="white" stroke="#666666" points="369,-182.5 206,-182.5 206,-163.5 369,-163.5 369,-182.5"/>
<text text-anchor="middle" x="287.5" y="-170.5" font-family="Helvetica,sans-Serif" font-size="10.00">UDPGameServer::handleHello</text>
</a>
</g>
</g>
<!-- Node1&#45;&gt;Node2 -->
<g id="edge1_Node000001_Node000002" class="edge">
<title>Node1&#45;&gt;Node2</title>
<g id="a_edge1_Node000001_Node000002"><a xlink:title=" ">
<path fill="none" stroke="#63b8ff" d="M133.39,-203.47C161.97,-197.78 198.47,-190.52 228.65,-184.51"/>
<polygon fill="#63b8ff" stroke="#63b8ff" points="229.51,-187.91 238.63,-182.53 228.14,-181.05 229.51,-187.91"/>
</a>
</g>
</g>
<!-- Node7 -->
<g id="Node000007" class="node">
<title>Node7</title>
<g id="a_Node000007"><a xlink:href="classUDPGameServer.html#a602889e958a3ff926bb8de325c982a62" target="_top" xlink:title="Send a packet to a single endpoint.">
<polygon fill="white" stroke="#666666" points="576,-45.5 406,-45.5 406,-26.5 576,-26.5 576,-45.5"/>
<text text-anchor="middle" x="491" y="-33.5" font-family="Helvetica,sans-Serif" font-size="10.00">UDPGameServer::sendPacketTo</text>
</a>
</g>
</g>
<!-- Node1&#45;&gt;Node7 -->
<g id="edge16_Node000001_Node000007" class="edge">
<title>Node1&#45;&gt;Node7</title>
<g id="a_edge16_Node000001_Node000007"><a xlink:title=" ">
<path fill="none" stroke="#63b8ff" d="M101.22,-203.41C146.72,-176.06 283.14,-96.88 406,-54 412.34,-51.79 419.05,-49.8 425.8,-48.02"/>
<polygon fill="#63b8ff" stroke="#63b8ff" points="426.82,-51.37 435.68,-45.56 425.13,-44.58 426.82,-51.37"/>
</a>
</g>
</g>
<!-- Node12 -->
<g id="Node000012" class="node">
<title>Node12</title>
<g id="a_Node000012"><a xlink:href="classUDPGameServer.html#abe9913c5eaa12c361bdcc9ce68bdc835" target="_top" xlink:title="Update player inputs (movement/direction).">
<polygon fill="white" stroke="#666666" points="368.5,-242.5 206.5,-242.5 206.5,-223.5 368.5,-223.5 368.5,-242.5"/>
<text text-anchor="middle" x="287.5" y="-230.5" font-family="Helvetica,sans-Serif" font-size="10.00">UDPGameServer::handleInput</text>
</a>
</g>
</g>
<!-- Node1&#45;&gt;Node12 -->
<g id="edge11_Node000001_Node000012" class="edge">
<title>Node1&#45;&gt;Node12</title>
<g id="a_edge11_Node000001_Node000012"><a xlink:title=" ">
<path fill="none" stroke="#63b8ff" d="M169.29,-221.34C178.21,-222.22 187.31,-223.13 196.3,-224.03"/>
<polygon fill="#63b8ff" stroke="#63b8ff" points="196.1,-227.52 206.39,-225.03 196.79,-220.56 196.1,-227.52"/>
</a>
</g>
</g>
<!-- Node13 -->
<g id="Node000013" class="node">
<title>Node13</title>
<g id="a_Node000013"><a xlink:href="classUDPGameServer.html#a0117b7531413f5b7b161675f9e9efd3d" target="_top" xlink:title="Handle a shoot command (spawn a bullet).">
<polygon fill="white" stroke="#666666" points="370,-279.5 205,-279.5 205,-260.5 370,-260.5 370,-279.5"/>
<text text-anchor="middle" x="287.5" y="-267.5" font-family="Helvetica,sans-Serif" font-size="10.00">UDPGameServer::handleShoot</text>
</a>
</g>
</g>
<!-- Node1&#45;&gt;Node13 -->
<g id="edge14_Node000001_Node000013" class="edge">
<title>Node1&#45;&gt;Node13</title>
<g id="a_edge14_Node000001_Node000013"><a xlink:title=" ">
<path fill="none" stroke="#63b8ff" d="M112.32,-222.59C136.39,-231 172.79,-243.21 205,-252 212.85,-254.14 221.18,-256.21 229.4,-258.14"/>
<polygon fill="#63b8ff" stroke="#63b8ff" points="228.8,-261.59 239.33,-260.41 230.36,-254.77 228.8,-261.59"/>
</a>
</g>
</g>
<!-- Node3 -->
<g id="Node000003" class="node">
<title>Node3</title>
<g id="a_Node000003"><a xlink:href="classGameWorld.html#a9a877bcf4eed6527b0896242463a3dfa" target="_top" xlink:title="Build a UDP snapshot packet of current world state.">
<polygon fill="white" stroke="#666666" points="565.5,-168 416.5,-168 416.5,-138 565.5,-138 565.5,-168"/>
<text text-anchor="start" x="424.5" y="-156" font-family="Helvetica,sans-Serif" font-size="10.00">GameWorld::buildSnapshot</text>
<text text-anchor="middle" x="491" y="-145" font-family="Helvetica,sans-Serif" font-size="10.00">Packet</text>
</a>
</g>
</g>
<!-- Node2&#45;&gt;Node3 -->
<g id="edge2_Node000002_Node000003" class="edge">
<title>Node2&#45;&gt;Node3</title>
<g id="a_edge2_Node000002_Node000003"><a xlink:title=" ">
<path fill="none" stroke="#63b8ff" d="M369.01,-165.01C381.25,-163.79 393.92,-162.54 406.23,-161.31"/>
<polygon fill="#63b8ff" stroke="#63b8ff" points="406.87,-164.77 416.48,-160.3 406.18,-157.8 406.87,-164.77"/>
</a>
</g>
</g>
<!-- Node4 -->
<g id="Node000004" class="node">
<title>Node4</title>
<g id="a_Node000004"><a xlink:href="classSessionManager.html#a48995915db3b90fa7228d357d6293163" target="_top" xlink:title="Lookup a session by player id.">
<polygon fill="white" stroke="#666666" points="569,-279.5 413,-279.5 413,-260.5 569,-260.5 569,-279.5"/>
<text text-anchor="middle" x="491" y="-267.5" font-family="Helvetica,sans-Serif" font-size="10.00">SessionManager::getSession</text>
</a>
</g>
</g>
<!-- Node2&#45;&gt;Node4 -->
<g id="edge3_Node000002_Node000004" class="edge">
<title>Node2&#45;&gt;Node4</title>
<g id="a_edge3_Node000002_Node000004"><a xlink:title=" ">
<path fill="none" stroke="#63b8ff" d="M311.79,-182.57C328.75,-190.1 351.84,-201.55 370,-215 388.44,-228.66 385.92,-240.9 406,-252 409.26,-253.8 412.68,-255.42 416.2,-256.88"/>
<polygon fill="#63b8ff" stroke="#63b8ff" points="415.13,-260.22 425.72,-260.38 417.54,-253.65 415.13,-260.22"/>
</a>
</g>
</g>
<!-- Node5 -->
<g id="Node000005" class="node">
<title>Node5</title>
<g id="a_Node000005"><a xlink:href="classUDPGameServer.html#ae610b7c128c3b70e06f3fc1b5a3ecdc5" target="_top" xlink:title=" ">
<polygon fill="white" stroke="#666666" points="564.5,-242.5 417.5,-242.5 417.5,-223.5 564.5,-223.5 564.5,-242.5"/>
<text text-anchor="middle" x="491" y="-230.5" font-family="Helvetica,sans-Serif" font-size="10.00">UDPGameServer::logPrefix</text>
</a>
</g>
</g>
<!-- Node2&#45;&gt;Node5 -->
<g id="edge4_Node000002_Node000005" class="edge">
<title>Node2&#45;&gt;Node5</title>
<g id="a_edge4_Node000002_Node000005"><a xlink:title=" ">
<path fill="none" stroke="#63b8ff" d="M312.5,-182.63C336.04,-191.83 373.08,-205.63 406,-215 413.75,-217.21 421.97,-219.28 430.12,-221.18"/>
<polygon fill="#63b8ff" stroke="#63b8ff" points="429.46,-224.62 439.98,-223.42 431,-217.8 429.46,-224.62"/>
</a>
</g>
</g>
<!-- Node6 -->
<g id="Node000006" class="node">
<title>Node6</title>
<g id="a_Node000006"><a xlink:href="classGameWorld.html#aaebb0cdb6bcf4382893ce438832db63e" target="_top" xlink:title="Register a player on HELLO_UDP.">
<polygon fill="white" stroke="#666666" points="565,-119.5 417,-119.5 417,-100.5 565,-100.5 565,-119.5"/>
<text text-anchor="middle" x="491" y="-107.5" font-family="Helvetica,sans-Serif" font-size="10.00">GameWorld::registerPlayer</text>
</a>
</g>
</g>
<!-- Node2&#45;&gt;Node6 -->
<g id="edge5_Node000002_Node000006" class="edge">
<title>Node2&#45;&gt;Node6</title>
<g id="a_edge5_Node000002_Node000006"><a xlink:title=" ">
<path fill="none" stroke="#63b8ff" d="M311.15,-163.47C334.59,-153.86 372.4,-139.04 406,-129 414.54,-126.45 423.65,-124.06 432.61,-121.89"/>
<polygon fill="#63b8ff" stroke="#63b8ff" points="433.68,-125.23 442.61,-119.54 432.08,-118.42 433.68,-125.23"/>
</a>
</g>
</g>
<!-- Node2&#45;&gt;Node7 -->
<g id="edge6_Node000002_Node000007" class="edge">
<title>Node2&#45;&gt;Node7</title>
<g id="a_edge6_Node000002_Node000007"><a xlink:title=" ">
<path fill="none" stroke="#63b8ff" d="M303.88,-163.43C321.28,-152.12 349.82,-132.01 370,-110 390,-88.19 381.67,-70.84 406,-54 408.15,-52.51 410.39,-51.15 412.71,-49.89"/>
<polygon fill="#63b8ff" stroke="#63b8ff" points="414.4,-52.97 421.99,-45.57 411.45,-46.62 414.4,-52.97"/>
</a>
</g>
</g>
<!-- Node10 -->
<g id="Node000010" class="node">
<title>Node10</title>
<g id="a_Node000010"><a xlink:href="classGameWorld.html#a163fb2fed54650ebba995df1e64c39db" target="_top" xlink:title="Prefix used in log output.">
<polygon fill="white" stroke="#666666" points="561,-82.5 421,-82.5 421,-63.5 561,-63.5 561,-82.5"/>
<text text-anchor="middle" x="491" y="-70.5" font-family="Helvetica,sans-Serif" font-size="10.00">GameWorld::setLogPrefix</text>
</a>
</g>
</g>
<!-- Node2&#45;&gt;Node10 -->
<g id="edge9_Node000002_Node000010" class="edge">
<title>Node2&#45;&gt;Node10</title>
<g id="a_edge9_Node000002_Node000010"><a xlink:title=" ">
<path fill="none" stroke="#63b8ff" d="M298.95,-163.49C318.47,-146.27 362.43,-109.95 406,-91 410.75,-88.93 415.76,-87.1 420.87,-85.47"/>
<polygon fill="#63b8ff" stroke="#63b8ff" points="422.15,-88.74 430.77,-82.57 420.19,-82.02 422.15,-88.74"/>
</a>
</g>
</g>
<!-- Node11 -->
<g id="Node000011" class="node">
<title>Node11</title>
<g id="a_Node000011"><a xlink:href="classSessionManager.html#af2596853b8042076df0c1022468eaec3" target="_top" xlink:title="Register the client&#39;s UDP address.">
<polygon fill="white" stroke="#666666" points="571,-205.5 411,-205.5 411,-186.5 571,-186.5 571,-205.5"/>
<text text-anchor="middle" x="491" y="-193.5" font-family="Helvetica,sans-Serif" font-size="10.00">SessionManager::setUdpAddr</text>
</a>
</g>
</g>
<!-- Node2&#45;&gt;Node11 -->
<g id="edge10_Node000002_Node000011" class="edge">
<title>Node2&#45;&gt;Node11</title>
<g id="a_edge10_Node000002_Node000011"><a xlink:title=" ">
<path fill="none" stroke="#63b8ff" d="M369.01,-182.19C379.47,-183.38 390.24,-184.61 400.84,-185.82"/>
<polygon fill="#63b8ff" stroke="#63b8ff" points="400.6,-189.32 410.93,-186.98 401.4,-182.36 400.6,-189.32"/>
</a>
</g>
</g>
<!-- Node8 -->
<g id="Node000008" class="node">
<title>Node8</title>
<g id="a_Node000008"><a xlink:href="classPacket.html#aa88c2d28796644c8a1d6137996502ca8" target="_top" xlink:title="Serialize the packet to a byte buffer ready to send.">
<polygon fill="white" stroke="#666666" points="727.5,-67.5 632.5,-67.5 632.5,-48.5 727.5,-48.5 727.5,-67.5"/>
<text text-anchor="middle" x="680" y="-55.5" font-family="Helvetica,sans-Serif" font-size="10.00">Packet::serialize</text>
</a>
</g>
</g>
<!-- Node7&#45;&gt;Node8 -->
<g id="edge7_Node000007_Node000008" class="edge">
<title>Node7&#45;&gt;Node8</title>
<g id="a_edge7_Node000007_Node000008"><a xlink:title=" ">
<path fill="none" stroke="#63b8ff" d="M572.93,-45.52C589.61,-47.48 606.84,-49.51 622.43,-51.34"/>
<polygon fill="#63b8ff" stroke="#63b8ff" points="622.08,-54.83 632.42,-52.52 622.89,-47.88 622.08,-54.83"/>
</a>
</g>
</g>
<!-- Node9 -->
<g id="Node000009" class="node">
<title>Node9</title>
<g id="a_Node000009"><a xlink:href="classNetwork_1_1TransportLayer_1_1UDPSocket.html#a887cf24e71c890759f907c074f5b3505" target="_top" xlink:title="Write bytes to the UDP socket.">
<polygon fill="white" stroke="#666666" points="748,-30 612,-30 612,0 748,0 748,-30"/>
<text text-anchor="start" x="620" y="-18" font-family="Helvetica,sans-Serif" font-size="10.00">Network::TransportLayer</text>
<text text-anchor="middle" x="680" y="-7" font-family="Helvetica,sans-Serif" font-size="10.00">::UDPSocket::writeByte</text>
</a>
</g>
</g>
<!-- Node7&#45;&gt;Node9 -->
<g id="edge8_Node000007_Node000009" class="edge">
<title>Node7&#45;&gt;Node9</title>
<g id="a_edge8_Node000007_Node000009"><a xlink:title=" ">
<path fill="none" stroke="#63b8ff" d="M576.2,-26.54C584.68,-25.59 593.26,-24.63 601.66,-23.69"/>
<polygon fill="#63b8ff" stroke="#63b8ff" points="602.25,-27.14 611.8,-22.55 601.47,-20.18 602.25,-27.14"/>
</a>
</g>
</g>
<!-- Node12&#45;&gt;Node4 -->
<g id="edge12_Node000012_Node000004" class="edge">
<title>Node12&#45;&gt;Node4</title>
<g id="a_edge12_Node000012_Node000004"><a xlink:title=" ">
<path fill="none" stroke="#63b8ff" d="M340.39,-242.53C367.08,-247.43 399.81,-253.44 427.84,-258.59"/>
<polygon fill="#63b8ff" stroke="#63b8ff" points="427.47,-262.08 437.93,-260.44 428.73,-255.19 427.47,-262.08"/>
</a>
</g>
</g>
<!-- Node12&#45;&gt;Node5 -->
<g id="edge13_Node000012_Node000005" class="edge">
<title>Node12&#45;&gt;Node5</title>
<g id="a_edge13_Node000012_Node000005"><a xlink:title=" ">
<path fill="none" stroke="#63b8ff" d="M368.72,-233C381.36,-233 394.45,-233 407.16,-233"/>
<polygon fill="#63b8ff" stroke="#63b8ff" points="407.24,-236.5 417.24,-233 407.24,-229.5 407.24,-236.5"/>
</a>
</g>
</g>
<!-- Node13&#45;&gt;Node4 -->
<g id="edge15_Node000013_Node000004" class="edge">
<title>Node13&#45;&gt;Node4</title>
<g id="a_edge15_Node000013_Node000004"><a xlink:title=" ">
<path fill="none" stroke="#63b8ff" d="M370.17,-270C380.83,-270 391.79,-270 402.55,-270"/>
<polygon fill="#63b8ff" stroke="#63b8ff" points="402.78,-273.5 412.78,-270 402.78,-266.5 402.78,-273.5"/>
</a>
</g>
</g>
</g>
</svg>
