<?xml version="1.0" encoding="UTF-8" standalone="no"?>
<!DOCTYPE svg PUBLIC "-//W3C//DTD SVG 1.1//EN"
 "http://www.w3.org/Graphics/SVG/1.1/DTD/svg11.dtd">
<!-- Generated by graphviz version 2.43.0 (0)
 -->
<!-- Title: ECS::getComponent Pages: 1 -->
<svg width="901pt" height="360pt"
 viewBox="0.00 0.00 901.00 359.50" xmlns="http://www.w3.org/2000/svg" xmlns:xlink="http://www.w3.org/1999/xlink">
<g id="graph0" class="graph" transform="scale(1 1) rotate(0) translate(4 355.5)">
<title>ECS::getComponent</title>
<!-- Node1 -->
<g id="Node000001" class="node">
<title>Node1</title>
<g id="a_Node000001"><a xlink:title="Retrieves a component from an entity.">
<polygon fill="#999999" stroke="#666666" points="893,-201.5 780,-201.5 780,-182.5 893,-182.5 893,-201.5"/>
<text text-anchor="middle" x="836.5" y="-189.5" font-family="Helvetica,sans-Serif" font-size="10.00">ECS::getComponent</text>
</a>
</g>
</g>
<!-- Node2 -->
<g id="Node000002" class="node">
<title>Node2</title>
<g id="a_Node000002"><a xlink:href="classGraphicClient.html#a70229e3e019e7b315f06c9ad74f23be5" target="_top" xlink:title="Shows lobby selection menu.">
<polygon fill="white" stroke="#666666" points="739.5,-351.5 592.5,-351.5 592.5,-332.5 739.5,-332.5 739.5,-351.5"/>
<text text-anchor="middle" x="666" y="-339.5" font-family="Helvetica,sans-Serif" font-size="10.00">GraphicClient::selectLobby</text>
</a>
</g>
</g>
<!-- Node1&#45;&gt;Node2 -->
<g id="edge1_Node000001_Node000002" class="edge">
<title>Node1&#45;&gt;Node2</title>
<g id="a_edge1_Node000001_Node000002"><a xlink:title=" ">
<path fill="none" stroke="#63b8ff" d="M827.63,-211.28C814.69,-240.44 786.1,-295.37 744,-324 739,-327.4 733.45,-330.16 727.68,-332.4"/>
<polygon fill="#63b8ff" stroke="#63b8ff" points="830.97,-212.37 831.68,-201.8 824.53,-209.62 830.97,-212.37"/>
</a>
</g>
</g>
<!-- Node6 -->
<g id="Node000006" class="node">
<title>Node6</title>
<g id="a_Node000006"><a xlink:href="classGraphicClient.html#a61111e5d14a72f0f69344ab034a0622a" target="_top" xlink:title="Synchronizes bullet entities with server state.">
<polygon fill="white" stroke="#666666" points="738.5,-277.5 593.5,-277.5 593.5,-258.5 738.5,-258.5 738.5,-277.5"/>
<text text-anchor="middle" x="666" y="-265.5" font-family="Helvetica,sans-Serif" font-size="10.00">GraphicClient::syncBullets</text>
</a>
</g>
</g>
<!-- Node1&#45;&gt;Node6 -->
<g id="edge5_Node000001_Node000006" class="edge">
<title>Node1&#45;&gt;Node6</title>
<g id="a_edge5_Node000001_Node000006"><a xlink:title=" ">
<path fill="none" stroke="#63b8ff" d="M812.11,-207.16C794.04,-218.4 768.12,-233.53 744,-244 731.03,-249.63 716.3,-254.55 703.23,-258.45"/>
<polygon fill="#63b8ff" stroke="#63b8ff" points="814.21,-209.97 820.79,-201.68 810.47,-204.05 814.21,-209.97"/>
</a>
</g>
</g>
<!-- Node7 -->
<g id="Node000007" class="node">
<title>Node7</title>
<g id="a_Node000007"><a xlink:href="classGraphicClient.html#a50072266faf2e76ace99e16c4c7b208a" target="_top" xlink:title="Updates all game entities based on delta time.">
<polygon fill="white" stroke="#666666" points="552,-239.5 393,-239.5 393,-220.5 552,-220.5 552,-239.5"/>
<text text-anchor="middle" x="472.5" y="-227.5" font-family="Helvetica,sans-Serif" font-size="10.00">GraphicClient::updateEntities</text>
</a>
</g>
</g>
<!-- Node1&#45;&gt;Node7 -->
<g id="edge22_Node000001_Node000007" class="edge">
<title>Node1&#45;&gt;Node7</title>
<g id="a_edge22_Node000001_Node000007"><a xlink:title=" ">
<path fill="none" stroke="#63b8ff" d="M785.21,-203.71C771.88,-206.47 757.45,-209.14 744,-211 679.76,-219.88 606.34,-224.71 552.21,-227.27"/>
<polygon fill="#63b8ff" stroke="#63b8ff" points="786.11,-207.1 795.16,-201.6 784.66,-200.25 786.11,-207.1"/>
</a>
</g>
</g>
<!-- Node9 -->
<g id="Node000009" class="node">
<title>Node9</title>
<g id="a_Node000009"><a xlink:href="classGraphicClient.html#aacb31035c31d741d0ae2ca5ec9228b12" target="_top" xlink:title="Synchronizes player entities with server state.">
<polygon fill="white" stroke="#666666" points="740,-314.5 592,-314.5 592,-295.5 740,-295.5 740,-314.5"/>
<text text-anchor="middle" x="666" y="-302.5" font-family="Helvetica,sans-Serif" font-size="10.00">GraphicClient::syncEntities</text>
</a>
</g>
</g>
<!-- Node1&#45;&gt;Node9 -->
<g id="edge9_Node000001_Node000009" class="edge">
<title>Node1&#45;&gt;Node9</title>
<g id="a_edge9_Node000001_Node000009"><a xlink:title=" ">
<path fill="none" stroke="#63b8ff" d="M823.33,-209.87C807.6,-231.55 778.14,-267.59 744,-287 738.03,-290.39 731.46,-293.15 724.74,-295.38"/>
<polygon fill="#63b8ff" stroke="#63b8ff" points="826.3,-211.74 829.21,-201.55 820.58,-207.7 826.3,-211.74"/>
</a>
</g>
</g>
<!-- Node10 -->
<g id="Node000010" class="node">
<title>Node10</title>
<g id="a_Node000010"><a xlink:href="classGraphicClient.html#afe45a37a11b23a08cce4d7c6b7efccbc" target="_top" xlink:title="Synchronizes monster entities with server state.">
<polygon fill="white" stroke="#666666" points="744,-201.5 588,-201.5 588,-182.5 744,-182.5 744,-201.5"/>
<text text-anchor="middle" x="666" y="-189.5" font-family="Helvetica,sans-Serif" font-size="10.00">GraphicClient::syncMonsters</text>
</a>
</g>
</g>
<!-- Node1&#45;&gt;Node10 -->
<g id="edge12_Node000001_Node000010" class="edge">
<title>Node1&#45;&gt;Node10</title>
<g id="a_edge12_Node000001_Node000010"><a xlink:title=" ">
<path fill="none" stroke="#63b8ff" d="M769.79,-192C761.41,-192 752.78,-192 744.24,-192"/>
<polygon fill="#63b8ff" stroke="#63b8ff" points="769.86,-195.5 779.86,-192 769.86,-188.5 769.86,-195.5"/>
</a>
</g>
</g>
<!-- Node11 -->
<g id="Node000011" class="node">
<title>Node11</title>
<g id="a_Node000011"><a xlink:href="classCircleRenderSystem.html#aead45b36f0cc7ccec0004b8a9b454d07" target="_top" xlink:title="Renders a circle entity to the screen.">
<polygon fill="white" stroke="#666666" points="724,-164 608,-164 608,-134 724,-134 724,-164"/>
<text text-anchor="start" x="616" y="-152" font-family="Helvetica,sans-Serif" font-size="10.00">CircleRenderSystem</text>
<text text-anchor="middle" x="666" y="-141" font-family="Helvetica,sans-Serif" font-size="10.00">::update</text>
</a>
</g>
</g>
<!-- Node1&#45;&gt;Node11 -->
<g id="edge14_Node000001_Node000011" class="edge">
<title>Node1&#45;&gt;Node11</title>
<g id="a_edge14_Node000001_Node000011"><a xlink:title=" ">
<path fill="none" stroke="#63b8ff" d="M788.33,-179.96C768.42,-174.88 745.05,-168.92 724.16,-163.59"/>
<polygon fill="#63b8ff" stroke="#63b8ff" points="787.55,-183.38 798.1,-182.46 789.28,-176.59 787.55,-183.38"/>
</a>
</g>
</g>
<!-- Node12 -->
<g id="Node000012" class="node">
<title>Node12</title>
<g id="a_Node000012"><a xlink:href="classRectangleRenderSystem.html#a92f6643f7bbedda7d15c6ea55f7407d1" target="_top" xlink:title="Renders a rectangle entity to the screen.">
<polygon fill="white" stroke="#666666" points="734.5,-78 597.5,-78 597.5,-48 734.5,-48 734.5,-78"/>
<text text-anchor="start" x="605.5" y="-66" font-family="Helvetica,sans-Serif" font-size="10.00">RectangleRenderSystem</text>
<text text-anchor="middle" x="666" y="-55" font-family="Helvetica,sans-Serif" font-size="10.00">::update</text>
</a>
</g>
</g>
<!-- Node1&#45;&gt;Node12 -->
<g id="edge15_Node000001_Node000012" class="edge">
<title>Node1&#45;&gt;Node12</title>
<g id="a_edge15_Node000001_Node000012"><a xlink:title=" ">
<path fill="none" stroke="#63b8ff" d="M824.12,-173.91C808.68,-150.78 778.97,-110.99 744,-88 738.13,-84.14 731.61,-80.83 724.93,-78.01"/>
<polygon fill="#63b8ff" stroke="#63b8ff" points="821.28,-175.96 829.67,-182.43 827.14,-172.14 821.28,-175.96"/>
</a>
</g>
</g>
<!-- Node14 -->
<g id="Node000014" class="node">
<title>Node14</title>
<g id="a_Node000014"><a xlink:href="classMovementSystem.html#a57b0e4d3739f4b27ce15324b8a4d47bf" target="_top" xlink:title="Updates entity position based on velocity with fixed time stepping.">
<polygon fill="white" stroke="#666666" points="739,-115.5 593,-115.5 593,-96.5 739,-96.5 739,-115.5"/>
<text text-anchor="middle" x="666" y="-103.5" font-family="Helvetica,sans-Serif" font-size="10.00">MovementSystem::update</text>
</a>
</g>
</g>
<!-- Node1&#45;&gt;Node14 -->
<g id="edge18_Node000001_Node000014" class="edge">
<title>Node1&#45;&gt;Node14</title>
<g id="a_edge18_Node000001_Node000014"><a xlink:title=" ">
<path fill="none" stroke="#63b8ff" d="M817.69,-175.64C800.17,-160.39 772.05,-138.1 744,-125 735.77,-121.15 726.66,-118.03 717.68,-115.51"/>
<polygon fill="#63b8ff" stroke="#63b8ff" points="815.59,-178.45 825.39,-182.48 820.24,-173.22 815.59,-178.45"/>
</a>
</g>
</g>
<!-- Node15 -->
<g id="Node000015" class="node">
<title>Node15</title>
<g id="a_Node000015"><a xlink:href="classSpriteRenderSystem.html#a439243229880829d70b83b895b500495" target="_top" xlink:title="Updates and renders an animated sprite entity.">
<polygon fill="white" stroke="#666666" points="724,-30 608,-30 608,0 724,0 724,-30"/>
<text text-anchor="start" x="616" y="-18" font-family="Helvetica,sans-Serif" font-size="10.00">SpriteRenderSystem</text>
<text text-anchor="middle" x="666" y="-7" font-family="Helvetica,sans-Serif" font-size="10.00">::update</text>
</a>
</g>
</g>
<!-- Node1&#45;&gt;Node15 -->
<g id="edge20_Node000001_Node000015" class="edge">
<title>Node1&#45;&gt;Node15</title>
<g id="a_edge20_Node000001_Node000015"><a xlink:title=" ">
<path fill="none" stroke="#63b8ff" d="M829.2,-172.85C817.57,-140.48 789.66,-74.95 744,-39 738.06,-34.32 731.2,-30.55 724.07,-27.51"/>
<polygon fill="#63b8ff" stroke="#63b8ff" points="825.95,-174.16 832.52,-182.47 832.56,-171.87 825.95,-174.16"/>
</a>
</g>
</g>
<!-- Node3 -->
<g id="Node000003" class="node">
<title>Node3</title>
<g id="a_Node000003"><a xlink:href="classGraphicClient.html#a4b416d0d2b3f07134ce30afb0c60adbe" target="_top" xlink:title="Initializes the client (connects to server, shows menus).">
<polygon fill="white" stroke="#666666" points="524.5,-314.5 420.5,-314.5 420.5,-295.5 524.5,-295.5 524.5,-314.5"/>
<text text-anchor="middle" x="472.5" y="-302.5" font-family="Helvetica,sans-Serif" font-size="10.00">GraphicClient::init</text>
</a>
</g>
</g>
<!-- Node2&#45;&gt;Node3 -->
<g id="edge2_Node000002_Node000003" class="edge">
<title>Node2&#45;&gt;Node3</title>
<g id="a_edge2_Node000002_Node000003"><a xlink:title=" ">
<path fill="none" stroke="#63b8ff" d="M605.75,-330.55C579.2,-325.42 548.26,-319.44 522.98,-314.56"/>
<polygon fill="#63b8ff" stroke="#63b8ff" points="605.2,-334.01 615.68,-332.47 606.53,-327.14 605.2,-334.01"/>
</a>
</g>
</g>
<!-- Node4 -->
<g id="Node000004" class="node">
<title>Node4</title>
<g id="a_Node000004"><a xlink:href="classGraphicClient.html#ad39a5f1d7ec30752f8d412d6925ef109" target="_top" xlink:title="Main application loop.">
<polygon fill="white" stroke="#666666" points="181,-258.5 77,-258.5 77,-239.5 181,-239.5 181,-258.5"/>
<text text-anchor="middle" x="129" y="-246.5" font-family="Helvetica,sans-Serif" font-size="10.00">GraphicClient::run</text>
</a>
</g>
</g>
<!-- Node3&#45;&gt;Node4 -->
<g id="edge3_Node000003_Node000004" class="edge">
<title>Node3&#45;&gt;Node4</title>
<g id="a_edge3_Node000003_Node000004"><a xlink:title=" ">
<path fill="none" stroke="#63b8ff" d="M410.21,-294.95C344.83,-284.23 242.43,-267.44 181.2,-257.4"/>
<polygon fill="#63b8ff" stroke="#63b8ff" points="409.94,-298.45 420.37,-296.62 411.07,-291.54 409.94,-298.45"/>
</a>
</g>
</g>
<!-- Node5 -->
<g id="Node000005" class="node">
<title>Node5</title>
<g id="a_Node000005"><a xlink:href="client_8cpp.html#ae66f6b31b5ad750f1fe042a706a4e3d4" target="_top" xlink:title=" ">
<polygon fill="white" stroke="#666666" points="41,-258.5 0,-258.5 0,-239.5 41,-239.5 41,-258.5"/>
<text text-anchor="middle" x="20.5" y="-246.5" font-family="Helvetica,sans-Serif" font-size="10.00">main</text>
</a>
</g>
</g>
<!-- Node4&#45;&gt;Node5 -->
<g id="edge4_Node000004_Node000005" class="edge">
<title>Node4&#45;&gt;Node5</title>
<g id="a_edge4_Node000004_Node000005"><a xlink:title=" ">
<path fill="none" stroke="#63b8ff" d="M66.83,-249C57.58,-249 48.66,-249 41.22,-249"/>
<polygon fill="#63b8ff" stroke="#63b8ff" points="66.93,-252.5 76.93,-249 66.93,-245.5 66.93,-252.5"/>
</a>
</g>
</g>
<!-- Node6&#45;&gt;Node7 -->
<g id="edge6_Node000006_Node000007" class="edge">
<title>Node6&#45;&gt;Node7</title>
<g id="a_edge6_Node000006_Node000007"><a xlink:title=" ">
<path fill="none" stroke="#63b8ff" d="M606.85,-256.46C579.54,-251.04 547.37,-244.66 521.48,-239.52"/>
<polygon fill="#63b8ff" stroke="#63b8ff" points="606.19,-259.9 616.68,-258.41 607.55,-253.03 606.19,-259.9"/>
</a>
</g>
</g>
<!-- Node8 -->
<g id="Node000008" class="node">
<title>Node8</title>
<g id="a_Node000008"><a xlink:href="classGraphicClient.html#a5cb5c37142e62f04824cc6e21dd199b2" target="_top" xlink:title="Main game loop iteration.">
<polygon fill="white" stroke="#666666" points="357,-239.5 217,-239.5 217,-220.5 357,-220.5 357,-239.5"/>
<text text-anchor="middle" x="287" y="-227.5" font-family="Helvetica,sans-Serif" font-size="10.00">GraphicClient::gameLoop</text>
</a>
</g>
</g>
<!-- Node7&#45;&gt;Node8 -->
<g id="edge7_Node000007_Node000008" class="edge">
<title>Node7&#45;&gt;Node8</title>
<g id="a_edge7_Node000007_Node000008"><a xlink:title=" ">
<path fill="none" stroke="#63b8ff" d="M382.81,-230C374.21,-230 365.57,-230 357.2,-230"/>
<polygon fill="#63b8ff" stroke="#63b8ff" points="382.88,-233.5 392.88,-230 382.88,-226.5 382.88,-233.5"/>
</a>
</g>
</g>
<!-- Node8&#45;&gt;Node4 -->
<g id="edge8_Node000008_Node000004" class="edge">
<title>Node8&#45;&gt;Node4</title>
<g id="a_edge8_Node000008_Node000004"><a xlink:title=" ">
<path fill="none" stroke="#63b8ff" d="M206.6,-239.67C198.02,-240.72 189.46,-241.76 181.33,-242.75"/>
<polygon fill="#63b8ff" stroke="#63b8ff" points="207.16,-243.13 216.67,-238.44 206.32,-236.18 207.16,-243.13"/>
</a>
</g>
</g>
<!-- Node9&#45;&gt;Node3 -->
<g id="edge10_Node000009_Node000003" class="edge">
<title>Node9&#45;&gt;Node3</title>
<g id="a_edge10_Node000009_Node000003"><a xlink:title=" ">
<path fill="none" stroke="#63b8ff" d="M581.72,-305C562.31,-305 542.21,-305 524.68,-305"/>
<polygon fill="#63b8ff" stroke="#63b8ff" points="581.78,-308.5 591.78,-305 581.78,-301.5 581.78,-308.5"/>
</a>
</g>
</g>
<!-- Node9&#45;&gt;Node7 -->
<g id="edge11_Node000009_Node000007" class="edge">
<title>Node9&#45;&gt;Node7</title>
<g id="a_edge11_Node000009_Node000007"><a xlink:title=" ">
<path fill="none" stroke="#63b8ff" d="M606.53,-292.85C600.22,-291.09 593.93,-289.14 588,-287 551.44,-273.83 511.36,-252.03 489.65,-239.55"/>
<polygon fill="#63b8ff" stroke="#63b8ff" points="605.88,-296.3 616.44,-295.46 607.66,-289.53 605.88,-296.3"/>
</a>
</g>
</g>
<!-- Node10&#45;&gt;Node7 -->
<g id="edge13_Node000010_Node000007" class="edge">
<title>Node10&#45;&gt;Node7</title>
<g id="a_edge13_Node000010_Node000007"><a xlink:title=" ">
<path fill="none" stroke="#63b8ff" d="M606.85,-203.54C579.54,-208.96 547.37,-215.34 521.48,-220.48"/>
<polygon fill="#63b8ff" stroke="#63b8ff" points="607.55,-206.97 616.68,-201.59 606.19,-200.1 607.55,-206.97"/>
</a>
</g>
</g>
<!-- Node13 -->
<g id="Node000013" class="node">
<title>Node13</title>
<g id="a_Node000013"><a xlink:href="classGraphicClient.html#ab0acd8f5b8996cc62295831d7af1cf59" target="_top" xlink:title="Renders the entire game scene.">
<polygon fill="white" stroke="#666666" points="532.5,-72.5 412.5,-72.5 412.5,-53.5 532.5,-53.5 532.5,-72.5"/>
<text text-anchor="middle" x="472.5" y="-60.5" font-family="Helvetica,sans-Serif" font-size="10.00">GraphicClient::render</text>
</a>
</g>
</g>
<!-- Node12&#45;&gt;Node13 -->
<g id="edge16_Node000012_Node000013" class="edge">
<title>Node12&#45;&gt;Node13</title>
<g id="a_edge16_Node000012_Node000013"><a xlink:title=" ">
<path fill="none" stroke="#63b8ff" d="M587.46,-63C569.22,-63 550.06,-63 532.77,-63"/>
<polygon fill="#63b8ff" stroke="#63b8ff" points="587.48,-66.5 597.48,-63 587.48,-59.5 587.48,-66.5"/>
</a>
</g>
</g>
<!-- Node13&#45;&gt;Node8 -->
<g id="edge17_Node000013_Node000008" class="edge">
<title>Node13&#45;&gt;Node8</title>
<g id="a_edge17_Node000013_Node000008"><a xlink:title=" ">
<path fill="none" stroke="#63b8ff" d="M453.08,-79.76C415.05,-114.37 328.88,-192.8 298.69,-220.27"/>
<polygon fill="#63b8ff" stroke="#63b8ff" points="455.8,-82.02 460.84,-72.7 451.09,-76.84 455.8,-82.02"/>
</a>
</g>
</g>
<!-- Node14&#45;&gt;Node7 -->
<g id="edge19_Node000014_Node000007" class="edge">
<title>Node14&#45;&gt;Node7</title>
<g id="a_edge19_Node000014_Node000007"><a xlink:title=" ">
<path fill="none" stroke="#63b8ff" d="M601.43,-118.94C596.78,-120.71 592.25,-122.72 588,-125 540.69,-150.36 497.75,-199.74 480.97,-220.47"/>
<polygon fill="#63b8ff" stroke="#63b8ff" points="602.78,-122.17 611.1,-115.62 600.51,-115.55 602.78,-122.17"/>
</a>
</g>
</g>
<!-- Node15&#45;&gt;Node13 -->
<g id="edge21_Node000015_Node000013" class="edge">
<title>Node15&#45;&gt;Node13</title>
<g id="a_edge21_Node000015_Node000013"><a xlink:title=" ">
<path fill="none" stroke="#63b8ff" d="M597.77,-31.85C568.91,-39.09 536.24,-47.27 511.64,-53.44"/>
<polygon fill="#63b8ff" stroke="#63b8ff" points="598.95,-35.16 607.8,-29.34 597.25,-28.37 598.95,-35.16"/>
</a>
</g>
</g>
</g>
</svg>
