<?xml version="1.0" encoding="UTF-8" standalone="no"?>
<!DOCTYPE svg PUBLIC "-//W3C//DTD SVG 1.1//EN"
 "http://www.w3.org/Graphics/SVG/1.1/DTD/svg11.dtd">
<!-- Generated by graphviz version 2.43.0 (0)
 -->
<!-- Title: NetworkClient::handleTcpPacket Pages: 1 -->
<svg width="826pt" height="82pt"
 viewBox="0.00 0.00 826.00 82.00" xmlns="http://www.w3.org/2000/svg" xmlns:xlink="http://www.w3.org/1999/xlink">
<g id="graph0" class="graph" transform="scale(1 1) rotate(0) translate(4 78)">
<title>NetworkClient::handleTcpPacket</title>
<!-- Node1 -->
<g id="Node000001" class="node">
<title>Node1</title>
<g id="a_Node000001"><a xlink:title=" ">
<polygon fill="#999999" stroke="#666666" points="141,-60.5 0,-60.5 0,-30.5 141,-30.5 141,-60.5"/>
<text text-anchor="start" x="8" y="-48.5" font-family="Helvetica,sans-Serif" font-size="10.00">NetworkClient::handleTcp</text>
<text text-anchor="middle" x="70.5" y="-37.5" font-family="Helvetica,sans-Serif" font-size="10.00">Packet</text>
</a>
</g>
</g>
<!-- Node2 -->
<g id="Node000002" class="node">
<title>Node2</title>
<g id="a_Node000002"><a xlink:href="classNetworkClient.html#a7f69f5c30fd349d670fae18598737b86" target="_top" xlink:title="Close TCP and UDP sockets and reset state.">
<polygon fill="white" stroke="#666666" points="322,-74 177,-74 177,-55 322,-55 322,-74"/>
<text text-anchor="middle" x="249.5" y="-62" font-family="Helvetica,sans-Serif" font-size="10.00">NetworkClient::disconnect</text>
</a>
</g>
</g>
<!-- Node1&#45;&gt;Node2 -->
<g id="edge1_Node000001_Node000002" class="edge">
<title>Node1&#45;&gt;Node2</title>
<g id="a_edge1_Node000001_Node000002"><a xlink:title=" ">
<path fill="none" stroke="#63b8ff" d="M141.2,-52.98C149.61,-53.89 158.27,-54.81 166.83,-55.73"/>
<polygon fill="#63b8ff" stroke="#63b8ff" points="166.51,-59.22 176.83,-56.81 167.26,-52.26 166.51,-59.22"/>
</a>
</g>
</g>
<!-- Node3 -->
<g id="Node000003" class="node">
<title>Node3</title>
<g id="a_Node000003"><a xlink:href="classNetworkClient.html#a28a515bbb5f6f75d6603a5332c217f93" target="_top" xlink:title="Send TCP PONG in response to server PING.">
<polygon fill="white" stroke="#666666" points="319.5,-37 179.5,-37 179.5,-18 319.5,-18 319.5,-37"/>
<text text-anchor="middle" x="249.5" y="-25" font-family="Helvetica,sans-Serif" font-size="10.00">NetworkClient::sendPong</text>
</a>
</g>
</g>
<!-- Node1&#45;&gt;Node3 -->
<g id="edge2_Node000001_Node000003" class="edge">
<title>Node1&#45;&gt;Node3</title>
<g id="a_edge2_Node000001_Node000003"><a xlink:title=" ">
<path fill="none" stroke="#63b8ff" d="M141.2,-38.41C150.44,-37.47 159.96,-36.5 169.34,-35.55"/>
<polygon fill="#63b8ff" stroke="#63b8ff" points="169.85,-39.02 179.44,-34.52 169.14,-32.05 169.85,-39.02"/>
</a>
</g>
</g>
<!-- Node4 -->
<g id="Node000004" class="node">
<title>Node4</title>
<g id="a_Node000004"><a xlink:href="classNetworkClient.html#af150c1b7e0aa8c19cb337fb838479324" target="_top" xlink:title=" ">
<polygon fill="white" stroke="#666666" points="521,-37 358,-37 358,-18 521,-18 521,-37"/>
<text text-anchor="middle" x="439.5" y="-25" font-family="Helvetica,sans-Serif" font-size="10.00">NetworkClient::sendPacketTcp</text>
</a>
</g>
</g>
<!-- Node3&#45;&gt;Node4 -->
<g id="edge3_Node000003_Node000004" class="edge">
<title>Node3&#45;&gt;Node4</title>
<g id="a_edge3_Node000003_Node000004"><a xlink:title=" ">
<path fill="none" stroke="#63b8ff" d="M319.7,-27.5C328.85,-27.5 338.34,-27.5 347.78,-27.5"/>
<polygon fill="#63b8ff" stroke="#63b8ff" points="347.99,-31 357.99,-27.5 347.99,-24 347.99,-31"/>
</a>
</g>
</g>
<!-- Node5 -->
<g id="Node000005" class="node">
<title>Node5</title>
<g id="a_Node000005"><a xlink:href="namespaceProtocol.html#a668bdeed219432868fca095e1b2f2667" target="_top" xlink:title="Build a TCP framed buffer (2 bytes length + serialized packet).">
<polygon fill="white" stroke="#666666" points="675.5,-56 568.5,-56 568.5,-37 675.5,-37 675.5,-56"/>
<text text-anchor="middle" x="622" y="-44" font-family="Helvetica,sans-Serif" font-size="10.00">Protocol::frameTcp</text>
</a>
</g>
</g>
<!-- Node4&#45;&gt;Node5 -->
<g id="edge4_Node000004_Node000005" class="edge">
<title>Node4&#45;&gt;Node5</title>
<g id="a_edge4_Node000004_Node000005"><a xlink:title=" ">
<path fill="none" stroke="#63b8ff" d="M521.25,-36C533.59,-37.3 546.17,-38.62 558.05,-39.87"/>
<polygon fill="#63b8ff" stroke="#63b8ff" points="557.98,-43.39 568.3,-40.95 558.72,-36.42 557.98,-43.39"/>
</a>
</g>
</g>
<!-- Node7 -->
<g id="Node000007" class="node">
<title>Node7</title>
<g id="a_Node000007"><a xlink:href="classNetworkClient.html#a844f1f20acd0958f264c7bb67e18d111" target="_top" xlink:title=" ">
<polygon fill="white" stroke="#666666" points="687,-19 557,-19 557,0 687,0 687,-19"/>
<text text-anchor="middle" x="622" y="-7" font-family="Helvetica,sans-Serif" font-size="10.00">NetworkClient::writeAll</text>
</a>
</g>
</g>
<!-- Node4&#45;&gt;Node7 -->
<g id="edge6_Node000004_Node000007" class="edge">
<title>Node4&#45;&gt;Node7</title>
<g id="a_edge6_Node000004_Node000007"><a xlink:title=" ">
<path fill="none" stroke="#63b8ff" d="M521.25,-19.45C529.72,-18.6 538.31,-17.75 546.71,-16.91"/>
<polygon fill="#63b8ff" stroke="#63b8ff" points="547.23,-20.37 556.84,-15.9 546.54,-13.41 547.23,-20.37"/>
</a>
</g>
</g>
<!-- Node6 -->
<g id="Node000006" class="node">
<title>Node6</title>
<g id="a_Node000006"><a xlink:href="classPacket.html#aa88c2d28796644c8a1d6137996502ca8" target="_top" xlink:title="Serialize the packet to a byte buffer ready to send.">
<polygon fill="white" stroke="#666666" points="818,-56 723,-56 723,-37 818,-37 818,-56"/>
<text text-anchor="middle" x="770.5" y="-44" font-family="Helvetica,sans-Serif" font-size="10.00">Packet::serialize</text>
</a>
</g>
</g>
<!-- Node5&#45;&gt;Node6 -->
<g id="edge5_Node000005_Node000006" class="edge">
<title>Node5&#45;&gt;Node6</title>
<g id="a_edge5_Node000005_Node000006"><a xlink:title=" ">
<path fill="none" stroke="#63b8ff" d="M675.89,-46.5C687.93,-46.5 700.76,-46.5 712.95,-46.5"/>
<polygon fill="#63b8ff" stroke="#63b8ff" points="713,-50 723,-46.5 713,-43 713,-50"/>
</a>
</g>
</g>
</g>
</svg>
