<?xml version="1.0" encoding="UTF-8" standalone="no"?>
<!DOCTYPE svg PUBLIC "-//W3C//DTD SVG 1.1//EN"
 "http://www.w3.org/Graphics/SVG/1.1/DTD/svg11.dtd">
<!-- Generated by graphviz version 2.43.0 (0)
 -->
<!-- Title: UDPGameServer::updateSimulation Pages: 1 -->
<svg width="374pt" height="64pt"
 viewBox="0.00 0.00 374.00 64.00" xmlns="http://www.w3.org/2000/svg" xmlns:xlink="http://www.w3.org/1999/xlink">
<g id="graph0" class="graph" transform="scale(1 1) rotate(0) translate(4 60)">
<title>UDPGameServer::updateSimulation</title>
<!-- Node1 -->
<g id="Node000001" class="node">
<title>Node1</title>
<g id="a_Node000001"><a xlink:title="Advance the local simulation based on elapsed time.">
<polygon fill="#999999" stroke="#666666" points="191,-37 0,-37 0,-18 191,-18 191,-37"/>
<text text-anchor="middle" x="95.5" y="-25" font-family="Helvetica,sans-Serif" font-size="10.00">UDPGameServer::updateSimulation</text>
</a>
</g>
</g>
<!-- Node2 -->
<g id="Node000002" class="node">
<title>Node2</title>
<g id="a_Node000002"><a xlink:href="classUDPGameServer.html#a04aa4dac3d2e7571a2d092c0a37e75ef" target="_top" xlink:title="Monotonic time helper in milliseconds.">
<polygon fill="white" stroke="#666666" points="366,-56 227,-56 227,-37 366,-37 366,-56"/>
<text text-anchor="middle" x="296.5" y="-44" font-family="Helvetica,sans-Serif" font-size="10.00">UDPGameServer::nowMs</text>
</a>
</g>
</g>
<!-- Node1&#45;&gt;Node2 -->
<g id="edge1_Node000001_Node000002" class="edge">
<title>Node1&#45;&gt;Node2</title>
<g id="a_edge1_Node000001_Node000002"><a xlink:title=" ">
<path fill="none" stroke="#63b8ff" d="M191.05,-36.53C199.6,-37.34 208.21,-38.17 216.61,-38.97"/>
<polygon fill="#63b8ff" stroke="#63b8ff" points="216.45,-42.47 226.73,-39.93 217.11,-35.5 216.45,-42.47"/>
</a>
</g>
</g>
<!-- Node3 -->
<g id="Node000003" class="node">
<title>Node3</title>
<g id="a_Node000003"><a xlink:href="classIpcChannel.html#a35498032e830b79724747de4e7b6ca1b" target="_top" xlink:title="Send a text message (limited to 1024 bytes).">
<polygon fill="white" stroke="#666666" points="346.5,-19 246.5,-19 246.5,0 346.5,0 346.5,-19"/>
<text text-anchor="middle" x="296.5" y="-7" font-family="Helvetica,sans-Serif" font-size="10.00">IpcChannel::send</text>
</a>
</g>
</g>
<!-- Node1&#45;&gt;Node3 -->
<g id="edge2_Node000001_Node000003" class="edge">
<title>Node1&#45;&gt;Node3</title>
<g id="a_edge2_Node000001_Node000003"><a xlink:title=" ">
<path fill="none" stroke="#63b8ff" d="M191.05,-18.95C206.46,-17.55 222.03,-16.15 236.28,-14.86"/>
<polygon fill="#63b8ff" stroke="#63b8ff" points="236.75,-18.33 246.4,-13.94 236.12,-11.36 236.75,-18.33"/>
</a>
</g>
</g>
</g>
</svg>
