<?xml version="1.0" encoding="UTF-8" standalone="no"?>
<!DOCTYPE svg PUBLIC "-//W3C//DTD SVG 1.1//EN"
 "http://www.w3.org/Graphics/SVG/1.1/DTD/svg11.dtd">
<!-- Generated by graphviz version 2.43.0 (0)
 -->
<!-- Title: NetworkClient::getLastSnapshotMonsters Pages: 1 -->
<svg width="777pt" height="76pt"
 viewBox="0.00 0.00 777.00 75.50" xmlns="http://www.w3.org/2000/svg" xmlns:xlink="http://www.w3.org/1999/xlink">
<g id="graph0" class="graph" transform="scale(1 1) rotate(0) translate(4 71.5)">
<title>NetworkClient::getLastSnapshotMonsters</title>
<!-- Node1 -->
<g id="Node000001" class="node">
<title>Node1</title>
<g id="a_Node000001"><a xlink:title="Get last received monster snapshots.">
<polygon fill="#999999" stroke="#666666" points="769,-45.5 596,-45.5 596,-15.5 769,-15.5 769,-45.5"/>
<text text-anchor="start" x="604" y="-33.5" font-family="Helvetica,sans-Serif" font-size="10.00">NetworkClient::getLastSnapshot</text>
<text text-anchor="middle" x="682.5" y="-22.5" font-family="Helvetica,sans-Serif" font-size="10.00">Monsters</text>
</a>
</g>
</g>
<!-- Node2 -->
<g id="Node000002" class="node">
<title>Node2</title>
<g id="a_Node000002"><a xlink:href="classGraphicClient.html#a1fa2cfd0c71b32b0b1f0e0675a2e1cb2" target="_top" xlink:title="Processes network events and updates game state.">
<polygon fill="white" stroke="#666666" points="560,-67.5 393,-67.5 393,-37.5 560,-37.5 560,-67.5"/>
<text text-anchor="start" x="401" y="-55.5" font-family="Helvetica,sans-Serif" font-size="10.00">GraphicClient::processNetwork</text>
<text text-anchor="middle" x="476.5" y="-44.5" font-family="Helvetica,sans-Serif" font-size="10.00">Events</text>
</a>
</g>
</g>
<!-- Node1&#45;&gt;Node2 -->
<g id="edge1_Node000001_Node000002" class="edge">
<title>Node1&#45;&gt;Node2</title>
<g id="a_edge1_Node000001_Node000002"><a xlink:title=" ">
<path fill="none" stroke="#63b8ff" d="M585.88,-40.81C577.33,-41.73 568.72,-42.66 560.3,-43.57"/>
<polygon fill="#63b8ff" stroke="#63b8ff" points="586.31,-44.29 595.87,-39.73 585.55,-37.33 586.31,-44.29"/>
</a>
</g>
</g>
<!-- Node6 -->
<g id="Node000006" class="node">
<title>Node6</title>
<g id="a_Node000006"><a xlink:href="classGraphicClient.html#a50072266faf2e76ace99e16c4c7b208a" target="_top" xlink:title="Updates all game entities based on delta time.">
<polygon fill="white" stroke="#666666" points="556,-19 397,-19 397,0 556,0 556,-19"/>
<text text-anchor="middle" x="476.5" y="-7" font-family="Helvetica,sans-Serif" font-size="10.00">GraphicClient::updateEntities</text>
</a>
</g>
</g>
<!-- Node1&#45;&gt;Node6 -->
<g id="edge5_Node000001_Node000006" class="edge">
<title>Node1&#45;&gt;Node6</title>
<g id="a_edge5_Node000001_Node000006"><a xlink:title=" ">
<path fill="none" stroke="#63b8ff" d="M585.92,-20.66C575.93,-19.63 565.85,-18.6 556.08,-17.59"/>
<polygon fill="#63b8ff" stroke="#63b8ff" points="585.57,-24.14 595.87,-21.69 586.28,-17.18 585.57,-24.14"/>
</a>
</g>
</g>
<!-- Node3 -->
<g id="Node000003" class="node">
<title>Node3</title>
<g id="a_Node000003"><a xlink:href="classGraphicClient.html#a5cb5c37142e62f04824cc6e21dd199b2" target="_top" xlink:title="Main game loop iteration.">
<polygon fill="white" stroke="#666666" points="357,-40 217,-40 217,-21 357,-21 357,-40"/>
<text text-anchor="middle" x="287" y="-28" font-family="Helvetica,sans-Serif" font-size="10.00">GraphicClient::gameLoop</text>
</a>
</g>
</g>
<!-- Node2&#45;&gt;Node3 -->
<g id="edge2_Node000002_Node000003" class="edge">
<title>Node2&#45;&gt;Node3</title>
<g id="a_edge2_Node000002_Node000003"><a xlink:title=" ">
<path fill="none" stroke="#63b8ff" d="M382.83,-41.63C374.16,-40.61 365.48,-39.59 357.08,-38.61"/>
<polygon fill="#63b8ff" stroke="#63b8ff" points="382.65,-45.13 392.99,-42.82 383.46,-38.18 382.65,-45.13"/>
</a>
</g>
</g>
<!-- Node4 -->
<g id="Node000004" class="node">
<title>Node4</title>
<g id="a_Node000004"><a xlink:href="classGraphicClient.html#ad39a5f1d7ec30752f8d412d6925ef109" target="_top" xlink:title="Main application loop.">
<polygon fill="white" stroke="#666666" points="181,-40 77,-40 77,-21 181,-21 181,-40"/>
<text text-anchor="middle" x="129" y="-28" font-family="Helvetica,sans-Serif" font-size="10.00">GraphicClient::run</text>
</a>
</g>
</g>
<!-- Node3&#45;&gt;Node4 -->
<g id="edge3_Node000003_Node000004" class="edge">
<title>Node3&#45;&gt;Node4</title>
<g id="a_edge3_Node000003_Node000004"><a xlink:title=" ">
<path fill="none" stroke="#63b8ff" d="M206.6,-30.5C198.02,-30.5 189.46,-30.5 181.33,-30.5"/>
<polygon fill="#63b8ff" stroke="#63b8ff" points="206.67,-34 216.67,-30.5 206.67,-27 206.67,-34"/>
</a>
</g>
</g>
<!-- Node5 -->
<g id="Node000005" class="node">
<title>Node5</title>
<g id="a_Node000005"><a xlink:href="client_8cpp.html#ae66f6b31b5ad750f1fe042a706a4e3d4" target="_top" xlink:title=" ">
<polygon fill="white" stroke="#666666" points="41,-40 0,-40 0,-21 41,-21 41,-40"/>
<text text-anchor="middle" x="20.5" y="-28" font-family="Helvetica,sans-Serif" font-size="10.00">main</text>
</a>
</g>
</g>
<!-- Node4&#45;&gt;Node5 -->
<g id="edge4_Node000004_Node000005" class="edge">
<title>Node4&#45;&gt;Node5</title>
<g id="a_edge4_Node000004_Node000005"><a xlink:title=" ">
<path fill="none" stroke="#63b8ff" d="M66.83,-30.5C57.58,-30.5 48.66,-30.5 41.22,-30.5"/>
<polygon fill="#63b8ff" stroke="#63b8ff" points="66.93,-34 76.93,-30.5 66.93,-27 66.93,-34"/>
</a>
</g>
</g>
<!-- Node6&#45;&gt;Node3 -->
<g id="edge6_Node000006_Node000003" class="edge">
<title>Node6&#45;&gt;Node3</title>
<g id="a_edge6_Node000006_Node000003"><a xlink:title=" ">
<path fill="none" stroke="#63b8ff" d="M386.58,-19.46C376.74,-20.56 366.82,-21.67 357.27,-22.74"/>
<polygon fill="#63b8ff" stroke="#63b8ff" points="387.25,-22.91 396.8,-18.31 386.47,-15.95 387.25,-22.91"/>
</a>
</g>
</g>
</g>
</svg>
