<?xml version="1.0" encoding="UTF-8" standalone="no"?>
<!DOCTYPE svg PUBLIC "-//W3C//DTD SVG 1.1//EN"
 "http://www.w3.org/Graphics/SVG/1.1/DTD/svg11.dtd">
<!-- Generated by graphviz version 2.43.0 (0)
 -->
<!-- Title: TCPServer::autoAssignPublic Pages: 1 -->
<svg width="1398pt" height="249pt"
 viewBox="0.00 0.00 1398.00 248.50" xmlns="http://www.w3.org/2000/svg" xmlns:xlink="http://www.w3.org/1999/xlink">
<g id="graph0" class="graph" transform="scale(1 1) rotate(0) translate(4 244.5)">
<title>TCPServer::autoAssignPublic</title>
<!-- Node1 -->
<g id="Node000001" class="node">
<title>Node1</title>
<g id="a_Node000001"><a xlink:title="Auto&#45;match the client into a public lobby.">
<polygon fill="#999999" stroke="#666666" points="155,-59 0,-59 0,-40 155,-40 155,-59"/>
<text text-anchor="middle" x="77.5" y="-47" font-family="Helvetica,sans-Serif" font-size="10.00">TCPServer::autoAssignPublic</text>
</a>
</g>
</g>
<!-- Node2 -->
<g id="Node000002" class="node">
<title>Node2</title>
<g id="a_Node000002"><a xlink:href="classTCPServer.html#a84035146c9257be5714850a1f46d0bfb" target="_top" xlink:title="Assign a client to a lobby (public or private).">
<polygon fill="white" stroke="#666666" points="324,-59 191,-59 191,-40 324,-40 324,-59"/>
<text text-anchor="middle" x="257.5" y="-47" font-family="Helvetica,sans-Serif" font-size="10.00">TCPServer::assignLobby</text>
</a>
</g>
</g>
<!-- Node1&#45;&gt;Node2 -->
<g id="edge1_Node000001_Node000002" class="edge">
<title>Node1&#45;&gt;Node2</title>
<g id="a_edge1_Node000001_Node000002"><a xlink:title=" ">
<path fill="none" stroke="#63b8ff" d="M155.02,-49.5C163.53,-49.5 172.19,-49.5 180.69,-49.5"/>
<polygon fill="#63b8ff" stroke="#63b8ff" points="180.95,-53 190.95,-49.5 180.95,-46 180.95,-53"/>
</a>
</g>
</g>
<!-- Node3 -->
<g id="Node000003" class="node">
<title>Node3</title>
<g id="a_Node000003"><a xlink:href="classTCPServer.html#a30203c2836aa52676f3e6205d8730943" target="_top" xlink:title=" ">
<polygon fill="white" stroke="#666666" points="532,-149 360,-149 360,-130 532,-130 532,-149"/>
<text text-anchor="middle" x="446" y="-137" font-family="Helvetica,sans-Serif" font-size="10.00">TCPServer::ensureLobbyProcess</text>
</a>
</g>
</g>
<!-- Node2&#45;&gt;Node3 -->
<g id="edge2_Node000002_Node000003" class="edge">
<title>Node2&#45;&gt;Node3</title>
<g id="a_edge2_Node000002_Node000003"><a xlink:title=" ">
<path fill="none" stroke="#63b8ff" d="M278.46,-59.13C311.55,-75.1 377.91,-107.12 416.11,-125.56"/>
<polygon fill="#63b8ff" stroke="#63b8ff" points="414.66,-128.74 425.18,-129.94 417.7,-122.44 414.66,-128.74"/>
</a>
</g>
</g>
<!-- Node8 -->
<g id="Node000008" class="node">
<title>Node8</title>
<g id="a_Node000008"><a xlink:href="classTCPServer.html#a508cc3d7023b0cfe9abed2e3166b1682" target="_top" xlink:title="Remove a client from its current lobby.">
<polygon fill="white" stroke="#666666" points="528,-59 364,-59 364,-40 528,-40 528,-59"/>
<text text-anchor="middle" x="446" y="-47" font-family="Helvetica,sans-Serif" font-size="10.00">TCPServer::removeFromLobby</text>
</a>
</g>
</g>
<!-- Node2&#45;&gt;Node8 -->
<g id="edge7_Node000002_Node000008" class="edge">
<title>Node2&#45;&gt;Node8</title>
<g id="a_edge7_Node000002_Node000008"><a xlink:title=" ">
<path fill="none" stroke="#63b8ff" d="M324.25,-49.5C333.75,-49.5 343.66,-49.5 353.55,-49.5"/>
<polygon fill="#63b8ff" stroke="#63b8ff" points="353.82,-53 363.82,-49.5 353.82,-46 353.82,-53"/>
</a>
</g>
</g>
<!-- Node17 -->
<g id="Node000017" class="node">
<title>Node17</title>
<g id="a_Node000017"><a xlink:href="classSessionManager.html#a8023cf136e039298b1e2ba5fe7cb224b" target="_top" xlink:title="Store the lobby code for a player.">
<polygon fill="white" stroke="#666666" points="740,-21 568,-21 568,-2 740,-2 740,-21"/>
<text text-anchor="middle" x="654" y="-9" font-family="Helvetica,sans-Serif" font-size="10.00">SessionManager::setLobbyCode</text>
</a>
</g>
</g>
<!-- Node2&#45;&gt;Node17 -->
<g id="edge17_Node000002_Node000017" class="edge">
<title>Node2&#45;&gt;Node17</title>
<g id="a_edge17_Node000002_Node000017"><a xlink:title=" ">
<path fill="none" stroke="#63b8ff" d="M303.04,-39.96C320.7,-36.5 341.23,-32.86 360,-30.5 425.72,-22.25 500.22,-17.48 557.65,-14.78"/>
<polygon fill="#63b8ff" stroke="#63b8ff" points="557.97,-18.27 567.8,-14.32 557.65,-11.28 557.97,-18.27"/>
</a>
</g>
</g>
<!-- Node4 -->
<g id="Node000004" class="node">
<title>Node4</title>
<g id="a_Node000004"><a xlink:href="classChildProcessManager.html#af9be1ce64da7e05952b231b22df221a0" target="_top" xlink:title=" ">
<polygon fill="white" stroke="#666666" points="715,-240.5 593,-240.5 593,-210.5 715,-210.5 715,-240.5"/>
<text text-anchor="start" x="601" y="-228.5" font-family="Helvetica,sans-Serif" font-size="10.00">ChildProcessManager</text>
<text text-anchor="middle" x="654" y="-217.5" font-family="Helvetica,sans-Serif" font-size="10.00">::activeCount</text>
</a>
</g>
</g>
<!-- Node3&#45;&gt;Node4 -->
<g id="edge3_Node000003_Node000004" class="edge">
<title>Node3&#45;&gt;Node4</title>
<g id="a_edge3_Node000003_Node000004"><a xlink:title=" ">
<path fill="none" stroke="#63b8ff" d="M463.35,-149.2C486.16,-162.43 529.11,-186.22 568,-201.5 573.17,-203.53 578.59,-205.47 584.07,-207.3"/>
<polygon fill="#63b8ff" stroke="#63b8ff" points="583.38,-210.75 593.97,-210.47 585.51,-204.09 583.38,-210.75"/>
</a>
</g>
</g>
<!-- Node5 -->
<g id="Node000005" class="node">
<title>Node5</title>
<g id="a_Node000005"><a xlink:href="classTCPServer.html#a25273652d6d80037ec5bcad8725bd269" target="_top" xlink:title=" ">
<polygon fill="white" stroke="#666666" points="719.5,-192 588.5,-192 588.5,-173 719.5,-173 719.5,-192"/>
<text text-anchor="middle" x="654" y="-180" font-family="Helvetica,sans-Serif" font-size="10.00">TCPServer::allocatePort</text>
</a>
</g>
</g>
<!-- Node3&#45;&gt;Node5 -->
<g id="edge4_Node000003_Node000005" class="edge">
<title>Node3&#45;&gt;Node5</title>
<g id="a_edge4_Node000003_Node000005"><a xlink:title=" ">
<path fill="none" stroke="#63b8ff" d="M492.72,-149.04C523.66,-155.5 564.7,-164.07 597.51,-170.92"/>
<polygon fill="#63b8ff" stroke="#63b8ff" points="596.91,-174.37 607.41,-172.98 598.34,-167.51 596.91,-174.37"/>
</a>
</g>
</g>
<!-- Node6 -->
<g id="Node000006" class="node">
<title>Node6</title>
<g id="a_Node000006"><a xlink:href="classChildProcessManager.html#a3b7c34be0f81b8a841d4ecd28a837bf6" target="_top" xlink:title=" ">
<polygon fill="white" stroke="#666666" points="715,-154.5 593,-154.5 593,-124.5 715,-124.5 715,-154.5"/>
<text text-anchor="start" x="601" y="-142.5" font-family="Helvetica,sans-Serif" font-size="10.00">ChildProcessManager</text>
<text text-anchor="middle" x="654" y="-131.5" font-family="Helvetica,sans-Serif" font-size="10.00">::maxCount</text>
</a>
</g>
</g>
<!-- Node3&#45;&gt;Node6 -->
<g id="edge5_Node000003_Node000006" class="edge">
<title>Node3&#45;&gt;Node6</title>
<g id="a_edge5_Node000003_Node000006"><a xlink:title=" ">
<path fill="none" stroke="#63b8ff" d="M532.28,-139.5C548.98,-139.5 566.33,-139.5 582.49,-139.5"/>
<polygon fill="#63b8ff" stroke="#63b8ff" points="582.92,-143 592.92,-139.5 582.92,-136 582.92,-143"/>
</a>
</g>
</g>
<!-- Node7 -->
<g id="Node000007" class="node">
<title>Node7</title>
<g id="a_Node000007"><a xlink:href="classChildProcessManager.html#a138e2d098e92a2c6d1ad7b35dadd6541" target="_top" xlink:title="Spawn a UDP game server process.">
<polygon fill="white" stroke="#666666" points="715,-106.5 593,-106.5 593,-76.5 715,-76.5 715,-106.5"/>
<text text-anchor="start" x="601" y="-94.5" font-family="Helvetica,sans-Serif" font-size="10.00">ChildProcessManager</text>
<text text-anchor="middle" x="654" y="-83.5" font-family="Helvetica,sans-Serif" font-size="10.00">::spawn</text>
</a>
</g>
</g>
<!-- Node3&#45;&gt;Node7 -->
<g id="edge6_Node000003_Node000007" class="edge">
<title>Node3&#45;&gt;Node7</title>
<g id="a_edge6_Node000003_Node000007"><a xlink:title=" ">
<path fill="none" stroke="#63b8ff" d="M488.19,-129.9C515.21,-123.61 551.23,-115.21 582.7,-107.88"/>
<polygon fill="#63b8ff" stroke="#63b8ff" points="583.8,-111.22 592.74,-105.54 582.21,-104.4 583.8,-111.22"/>
</a>
</g>
</g>
<!-- Node9 -->
<g id="Node000009" class="node">
<title>Node9</title>
<g id="a_Node000009"><a xlink:href="classTCPServer.html#a8d2dcfc8d8337ff577a101c4aee6aac5" target="_top" xlink:title="Resend the player list to all members of a lobby.">
<polygon fill="white" stroke="#666666" points="722,-58 586,-58 586,-39 722,-39 722,-58"/>
<text text-anchor="middle" x="654" y="-46" font-family="Helvetica,sans-Serif" font-size="10.00">TCPServer::refreshLobby</text>
</a>
</g>
</g>
<!-- Node8&#45;&gt;Node9 -->
<g id="edge8_Node000008_Node000009" class="edge">
<title>Node8&#45;&gt;Node9</title>
<g id="a_edge8_Node000008_Node000009"><a xlink:title=" ">
<path fill="none" stroke="#63b8ff" d="M528.12,-49.11C543.82,-49.03 560.23,-48.95 575.81,-48.87"/>
<polygon fill="#63b8ff" stroke="#63b8ff" points="575.92,-52.37 585.9,-48.83 575.88,-45.37 575.92,-52.37"/>
</a>
</g>
</g>
<!-- Node8&#45;&gt;Node17 -->
<g id="edge16_Node000008_Node000017" class="edge">
<title>Node8&#45;&gt;Node17</title>
<g id="a_edge16_Node000008_Node000017"><a xlink:title=" ">
<path fill="none" stroke="#63b8ff" d="M498.72,-39.96C526.76,-34.79 561.6,-28.36 591.08,-22.92"/>
<polygon fill="#63b8ff" stroke="#63b8ff" points="592.06,-26.3 601.26,-21.04 590.79,-19.42 592.06,-26.3"/>
</a>
</g>
</g>
<!-- Node10 -->
<g id="Node000010" class="node">
<title>Node10</title>
<g id="a_Node000010"><a xlink:href="classTCPServer.html#aa87b20fb76f60c19df36f39ef3621b05" target="_top" xlink:title="Send the current player list to a single client.">
<polygon fill="white" stroke="#666666" points="919,-63.5 776,-63.5 776,-33.5 919,-33.5 919,-63.5"/>
<text text-anchor="start" x="784" y="-51.5" font-family="Helvetica,sans-Serif" font-size="10.00">TCPServer::sendPlayerList</text>
<text text-anchor="middle" x="847.5" y="-40.5" font-family="Helvetica,sans-Serif" font-size="10.00">ToClient</text>
</a>
</g>
</g>
<!-- Node9&#45;&gt;Node10 -->
<g id="edge9_Node000009_Node000010" class="edge">
<title>Node9&#45;&gt;Node10</title>
<g id="a_edge9_Node000009_Node000010"><a xlink:title=" ">
<path fill="none" stroke="#63b8ff" d="M722.25,-48.5C736.21,-48.5 751.06,-48.5 765.46,-48.5"/>
<polygon fill="#63b8ff" stroke="#63b8ff" points="765.84,-52 775.84,-48.5 765.84,-45 765.84,-52"/>
</a>
</g>
</g>
<!-- Node11 -->
<g id="Node000011" class="node">
<title>Node11</title>
<g id="a_Node000011"><a xlink:href="classTCPServer.html#a196ba30f88f890e9acf0ef1a21a74c71" target="_top" xlink:title="Build the packet containing the list of connected players.">
<polygon fill="white" stroke="#666666" points="1099,-85.5 955,-85.5 955,-55.5 1099,-55.5 1099,-85.5"/>
<text text-anchor="start" x="963" y="-73.5" font-family="Helvetica,sans-Serif" font-size="10.00">TCPServer::buildPlayerList</text>
<text text-anchor="middle" x="1027" y="-62.5" font-family="Helvetica,sans-Serif" font-size="10.00">Packet</text>
</a>
</g>
</g>
<!-- Node10&#45;&gt;Node11 -->
<g id="edge10_Node000010_Node000011" class="edge">
<title>Node10&#45;&gt;Node11</title>
<g id="a_edge10_Node000010_Node000011"><a xlink:title=" ">
<path fill="none" stroke="#63b8ff" d="M919.16,-57.26C927.57,-58.3 936.2,-59.37 944.75,-60.43"/>
<polygon fill="#63b8ff" stroke="#63b8ff" points="944.36,-63.91 954.71,-61.66 945.22,-56.96 944.36,-63.91"/>
</a>
</g>
</g>
<!-- Node12 -->
<g id="Node000012" class="node">
<title>Node12</title>
<g id="a_Node000012"><a xlink:href="classTCPServer.html#a9a65a3923e77e48c5f0019b45af8fcb5" target="_top" xlink:title="Send a packet to a specific client fd.">
<polygon fill="white" stroke="#666666" points="1090.5,-37 963.5,-37 963.5,-18 1090.5,-18 1090.5,-37"/>
<text text-anchor="middle" x="1027" y="-25" font-family="Helvetica,sans-Serif" font-size="10.00">TCPServer::sendPacket</text>
</a>
</g>
</g>
<!-- Node10&#45;&gt;Node12 -->
<g id="edge11_Node000010_Node000012" class="edge">
<title>Node10&#45;&gt;Node12</title>
<g id="a_edge11_Node000010_Node000012"><a xlink:title=" ">
<path fill="none" stroke="#63b8ff" d="M919.16,-40.14C930.34,-38.82 941.92,-37.45 953.14,-36.12"/>
<polygon fill="#63b8ff" stroke="#63b8ff" points="953.81,-39.57 963.33,-34.91 952.99,-32.61 953.81,-39.57"/>
</a>
</g>
</g>
<!-- Node13 -->
<g id="Node000013" class="node">
<title>Node13</title>
<g id="a_Node000013"><a xlink:href="namespaceProtocol.html#a668bdeed219432868fca095e1b2f2667" target="_top" xlink:title="Build a TCP framed buffer (2 bytes length + serialized packet).">
<polygon fill="white" stroke="#666666" points="1243.5,-56 1136.5,-56 1136.5,-37 1243.5,-37 1243.5,-56"/>
<text text-anchor="middle" x="1190" y="-44" font-family="Helvetica,sans-Serif" font-size="10.00">Protocol::frameTcp</text>
</a>
</g>
</g>
<!-- Node12&#45;&gt;Node13 -->
<g id="edge12_Node000012_Node000013" class="edge">
<title>Node12&#45;&gt;Node13</title>
<g id="a_edge12_Node000012_Node000013"><a xlink:title=" ">
<path fill="none" stroke="#63b8ff" d="M1090.71,-34.9C1102.39,-36.28 1114.59,-37.72 1126.27,-39.1"/>
<polygon fill="#63b8ff" stroke="#63b8ff" points="1126.03,-42.59 1136.37,-40.29 1126.85,-35.64 1126.03,-42.59"/>
</a>
</g>
</g>
<!-- Node15 -->
<g id="Node000015" class="node">
<title>Node15</title>
<g id="a_Node000015"><a xlink:href="classTCPServer.html#a79e20e1d2821e399fe47dd1055341d5e" target="_top" xlink:title="Ensure the full buffer is written to the socket.">
<polygon fill="white" stroke="#666666" points="1245,-19 1135,-19 1135,0 1245,0 1245,-19"/>
<text text-anchor="middle" x="1190" y="-7" font-family="Helvetica,sans-Serif" font-size="10.00">TCPServer::writeAll</text>
</a>
</g>
</g>
<!-- Node12&#45;&gt;Node15 -->
<g id="edge14_Node000012_Node000015" class="edge">
<title>Node12&#45;&gt;Node15</title>
<g id="a_edge14_Node000012_Node000015"><a xlink:title=" ">
<path fill="none" stroke="#63b8ff" d="M1090.71,-20.49C1101.86,-19.24 1113.5,-17.94 1124.69,-16.69"/>
<polygon fill="#63b8ff" stroke="#63b8ff" points="1125.28,-20.15 1134.83,-15.56 1124.5,-13.19 1125.28,-20.15"/>
</a>
</g>
</g>
<!-- Node14 -->
<g id="Node000014" class="node">
<title>Node14</title>
<g id="a_Node000014"><a xlink:href="classPacket.html#aa88c2d28796644c8a1d6137996502ca8" target="_top" xlink:title="Serialize the packet to a byte buffer ready to send.">
<polygon fill="white" stroke="#666666" points="1383,-56 1288,-56 1288,-37 1383,-37 1383,-56"/>
<text text-anchor="middle" x="1335.5" y="-44" font-family="Helvetica,sans-Serif" font-size="10.00">Packet::serialize</text>
</a>
</g>
</g>
<!-- Node13&#45;&gt;Node14 -->
<g id="edge13_Node000013_Node000014" class="edge">
<title>Node13&#45;&gt;Node14</title>
<g id="a_edge13_Node000013_Node000014"><a xlink:title=" ">
<path fill="none" stroke="#63b8ff" d="M1243.62,-46.5C1254.64,-46.5 1266.32,-46.5 1277.49,-46.5"/>
<polygon fill="#63b8ff" stroke="#63b8ff" points="1277.58,-50 1287.58,-46.5 1277.58,-43 1277.58,-50"/>
</a>
</g>
</g>
<!-- Node16 -->
<g id="Node000016" class="node">
<title>Node16</title>
<g id="a_Node000016"><a xlink:href="classTCPServer.html#a5b1988f8a542c2d39f3d3556264e71b2" target="_top" xlink:title="Write raw bytes to a socket fd.">
<polygon fill="white" stroke="#666666" points="1390,-19 1281,-19 1281,0 1390,0 1390,-19"/>
<text text-anchor="middle" x="1335.5" y="-7" font-family="Helvetica,sans-Serif" font-size="10.00">TCPServer::writeFd</text>
</a>
</g>
</g>
<!-- Node15&#45;&gt;Node16 -->
<g id="edge15_Node000015_Node000016" class="edge">
<title>Node15&#45;&gt;Node16</title>
<g id="a_edge15_Node000015_Node000016"><a xlink:title=" ">
<path fill="none" stroke="#63b8ff" d="M1245.25,-9.5C1253.49,-9.5 1262.06,-9.5 1270.48,-9.5"/>
<polygon fill="#63b8ff" stroke="#63b8ff" points="1270.65,-13 1280.65,-9.5 1270.65,-6 1270.65,-13"/>
</a>
</g>
</g>
</g>
</svg>
