<?xml version="1.0" encoding="UTF-8" standalone="no"?>
<!DOCTYPE svg PUBLIC "-//W3C//DTD SVG 1.1//EN"
 "http://www.w3.org/Graphics/SVG/1.1/DTD/svg11.dtd">
<!-- Generated by graphviz version 2.43.0 (0)
 -->
<!-- Title: NetworkClient::disconnectUdp Pages: 1 -->
<svg width="768pt" height="54pt"
 viewBox="0.00 0.00 768.00 53.50" xmlns="http://www.w3.org/2000/svg" xmlns:xlink="http://www.w3.org/1999/xlink">
<g id="graph0" class="graph" transform="scale(1 1) rotate(0) translate(4 49.5)">
<title>NetworkClient::disconnectUdp</title>
<!-- Node1 -->
<g id="Node000001" class="node">
<title>Node1</title>
<g id="a_Node000001"><a xlink:title="Close UDP socket only.">
<polygon fill="#999999" stroke="#666666" points="760,-45.5 596,-45.5 596,-26.5 760,-26.5 760,-45.5"/>
<text text-anchor="middle" x="678" y="-33.5" font-family="Helvetica,sans-Serif" font-size="10.00">NetworkClient::disconnectUdp</text>
</a>
</g>
</g>
<!-- Node2 -->
<g id="Node000002" class="node">
<title>Node2</title>
<g id="a_Node000002"><a xlink:href="classGraphicClient.html#a5cb5c37142e62f04824cc6e21dd199b2" target="_top" xlink:title="Main game loop iteration.">
<polygon fill="white" stroke="#666666" points="357,-45.5 217,-45.5 217,-26.5 357,-26.5 357,-45.5"/>
<text text-anchor="middle" x="287" y="-33.5" font-family="Helvetica,sans-Serif" font-size="10.00">GraphicClient::gameLoop</text>
</a>
</g>
</g>
<!-- Node1&#45;&gt;Node2 -->
<g id="edge1_Node000001_Node000002" class="edge">
<title>Node1&#45;&gt;Node2</title>
<g id="a_edge1_Node000001_Node000002"><a xlink:title=" ">
<path fill="none" stroke="#63b8ff" d="M585.65,-38.57C576.98,-38.74 568.32,-38.89 560,-39 485.78,-39.95 467.21,-40.06 393,-39 381.42,-38.83 369.13,-38.57 357.18,-38.26"/>
<polygon fill="#63b8ff" stroke="#63b8ff" points="585.89,-42.06 595.81,-38.35 585.74,-35.07 585.89,-42.06"/>
</a>
</g>
</g>
<!-- Node5 -->
<g id="Node000005" class="node">
<title>Node5</title>
<g id="a_Node000005"><a xlink:href="classGraphicClient.html#a1fa2cfd0c71b32b0b1f0e0675a2e1cb2" target="_top" xlink:title="Processes network events and updates game state.">
<polygon fill="white" stroke="#666666" points="560,-30 393,-30 393,0 560,0 560,-30"/>
<text text-anchor="start" x="401" y="-18" font-family="Helvetica,sans-Serif" font-size="10.00">GraphicClient::processNetwork</text>
<text text-anchor="middle" x="476.5" y="-7" font-family="Helvetica,sans-Serif" font-size="10.00">Events</text>
</a>
</g>
</g>
<!-- Node1&#45;&gt;Node5 -->
<g id="edge4_Node000001_Node000005" class="edge">
<title>Node1&#45;&gt;Node5</title>
<g id="a_edge4_Node000001_Node000005"><a xlink:title=" ">
<path fill="none" stroke="#63b8ff" d="M585.86,-26.41C577.31,-25.51 568.67,-24.6 560.19,-23.7"/>
<polygon fill="#63b8ff" stroke="#63b8ff" points="585.54,-29.89 595.86,-27.46 586.28,-22.93 585.54,-29.89"/>
</a>
</g>
</g>
<!-- Node3 -->
<g id="Node000003" class="node">
<title>Node3</title>
<g id="a_Node000003"><a xlink:href="classGraphicClient.html#ad39a5f1d7ec30752f8d412d6925ef109" target="_top" xlink:title="Main application loop.">
<polygon fill="white" stroke="#666666" points="181,-45.5 77,-45.5 77,-26.5 181,-26.5 181,-45.5"/>
<text text-anchor="middle" x="129" y="-33.5" font-family="Helvetica,sans-Serif" font-size="10.00">GraphicClient::run</text>
</a>
</g>
</g>
<!-- Node2&#45;&gt;Node3 -->
<g id="edge2_Node000002_Node000003" class="edge">
<title>Node2&#45;&gt;Node3</title>
<g id="a_edge2_Node000002_Node000003"><a xlink:title=" ">
<path fill="none" stroke="#63b8ff" d="M206.6,-36C198.02,-36 189.46,-36 181.33,-36"/>
<polygon fill="#63b8ff" stroke="#63b8ff" points="206.67,-39.5 216.67,-36 206.67,-32.5 206.67,-39.5"/>
</a>
</g>
</g>
<!-- Node4 -->
<g id="Node000004" class="node">
<title>Node4</title>
<g id="a_Node000004"><a xlink:href="client_8cpp.html#ae66f6b31b5ad750f1fe042a706a4e3d4" target="_top" xlink:title=" ">
<polygon fill="white" stroke="#666666" points="41,-45.5 0,-45.5 0,-26.5 41,-26.5 41,-45.5"/>
<text text-anchor="middle" x="20.5" y="-33.5" font-family="Helvetica,sans-Serif" font-size="10.00">main</text>
</a>
</g>
</g>
<!-- Node3&#45;&gt;Node4 -->
<g id="edge3_Node000003_Node000004" class="edge">
<title>Node3&#45;&gt;Node4</title>
<g id="a_edge3_Node000003_Node000004"><a xlink:title=" ">
<path fill="none" stroke="#63b8ff" d="M66.83,-36C57.58,-36 48.66,-36 41.22,-36"/>
<polygon fill="#63b8ff" stroke="#63b8ff" points="66.93,-39.5 76.93,-36 66.93,-32.5 66.93,-39.5"/>
</a>
</g>
</g>
<!-- Node5&#45;&gt;Node2 -->
<g id="edge5_Node000005_Node000002" class="edge">
<title>Node5&#45;&gt;Node2</title>
<g id="a_edge5_Node000005_Node000002"><a xlink:title=" ">
<path fill="none" stroke="#63b8ff" d="M382.83,-25.38C374.16,-26.35 365.48,-27.32 357.08,-28.26"/>
<polygon fill="#63b8ff" stroke="#63b8ff" points="383.44,-28.83 392.99,-24.24 382.66,-21.88 383.44,-28.83"/>
</a>
</g>
</g>
</g>
</svg>
