<?xml version="1.0" encoding="UTF-8" standalone="no"?>
<!DOCTYPE svg PUBLIC "-//W3C//DTD SVG 1.1//EN"
 "http://www.w3.org/Graphics/SVG/1.1/DTD/svg11.dtd">
<!-- Generated by graphviz version 2.43.0 (0)
 -->
<!-- Title: Raylib::Input::isKeyPressed Pages: 1 -->
<svg width="949pt" height="217pt"
 viewBox="0.00 0.00 949.00 217.00" xmlns="http://www.w3.org/2000/svg" xmlns:xlink="http://www.w3.org/1999/xlink">
<g id="graph0" class="graph" transform="scale(1 1) rotate(0) translate(4 213)">
<title>Raylib::Input::isKeyPressed</title>
<!-- Node1 -->
<g id="Node000001" class="node">
<title>Node1</title>
<g id="a_Node000001"><a xlink:title="Checks if a key was just pressed this frame.">
<polygon fill="#999999" stroke="#666666" points="941,-114 792,-114 792,-95 941,-95 941,-114"/>
<text text-anchor="middle" x="866.5" y="-102" font-family="Helvetica,sans-Serif" font-size="10.00">Raylib::Input::isKeyPressed</text>
</a>
</g>
</g>
<!-- Node2 -->
<g id="Node000002" class="node">
<title>Node2</title>
<g id="a_Node000002"><a xlink:href="classGraphicClient.html#a5cb5c37142e62f04824cc6e21dd199b2" target="_top" xlink:title="Main game loop iteration.">
<polygon fill="white" stroke="#666666" points="357,-171 217,-171 217,-152 357,-152 357,-171"/>
<text text-anchor="middle" x="287" y="-159" font-family="Helvetica,sans-Serif" font-size="10.00">GraphicClient::gameLoop</text>
</a>
</g>
</g>
<!-- Node1&#45;&gt;Node2 -->
<g id="edge1_Node000001_Node000002" class="edge">
<title>Node1&#45;&gt;Node2</title>
<g id="a_edge1_Node000001_Node000002"><a xlink:title=" ">
<path fill="none" stroke="#63b8ff" d="M834.49,-118C812.92,-126.71 783.26,-137.33 756,-142.5 616.38,-168.96 449.3,-168.15 357.31,-164.97"/>
<polygon fill="#63b8ff" stroke="#63b8ff" points="835.88,-121.22 843.79,-114.17 833.21,-114.75 835.88,-121.22"/>
</a>
</g>
</g>
<!-- Node5 -->
<g id="Node000005" class="node">
<title>Node5</title>
<g id="a_Node000005"><a xlink:href="classGraphicClient.html#a70229e3e019e7b315f06c9ad74f23be5" target="_top" xlink:title="Shows lobby selection menu.">
<polygon fill="white" stroke="#666666" points="551,-95 404,-95 404,-76 551,-76 551,-95"/>
<text text-anchor="middle" x="477.5" y="-83" font-family="Helvetica,sans-Serif" font-size="10.00">GraphicClient::selectLobby</text>
</a>
</g>
</g>
<!-- Node1&#45;&gt;Node5 -->
<g id="edge4_Node000001_Node000005" class="edge">
<title>Node1&#45;&gt;Node5</title>
<g id="a_edge4_Node000001_Node000005"><a xlink:title=" ">
<path fill="none" stroke="#63b8ff" d="M781.45,-100.37C712.77,-97 616.69,-92.28 551.27,-89.07"/>
<polygon fill="#63b8ff" stroke="#63b8ff" points="781.64,-103.89 791.8,-100.88 781.98,-96.9 781.64,-103.89"/>
</a>
</g>
</g>
<!-- Node7 -->
<g id="Node000007" class="node">
<title>Node7</title>
<g id="a_Node000007"><a xlink:href="classGraphicClient.html#a2d663515d7165fbe3533e038b5b2e916" target="_top" xlink:title="Shows main menu with server connection options.">
<polygon fill="white" stroke="#666666" points="562,-57 393,-57 393,-38 562,-38 562,-57"/>
<text text-anchor="middle" x="477.5" y="-45" font-family="Helvetica,sans-Serif" font-size="10.00">GraphicClient::selectMainMenu</text>
</a>
</g>
</g>
<!-- Node1&#45;&gt;Node7 -->
<g id="edge7_Node000001_Node000007" class="edge">
<title>Node1&#45;&gt;Node7</title>
<g id="a_edge7_Node000001_Node000007"><a xlink:title=" ">
<path fill="none" stroke="#63b8ff" d="M794.77,-93.4C781.87,-91.41 768.54,-89.38 756,-87.5 684.39,-76.78 602.31,-65.01 546.1,-57.04"/>
<polygon fill="#63b8ff" stroke="#63b8ff" points="794.57,-96.91 804.99,-94.99 795.64,-90 794.57,-96.91"/>
</a>
</g>
</g>
<!-- Node8 -->
<g id="Node000008" class="node">
<title>Node8</title>
<g id="a_Node000008"><a xlink:href="classGraphicClient.html#a14824911dd4c90d0f459ed532aec0dd7" target="_top" xlink:title="Shows pseudo/username input menu.">
<polygon fill="white" stroke="#666666" points="753.5,-133 600.5,-133 600.5,-114 753.5,-114 753.5,-133"/>
<text text-anchor="middle" x="677" y="-121" font-family="Helvetica,sans-Serif" font-size="10.00">GraphicClient::selectPseudo</text>
</a>
</g>
</g>
<!-- Node1&#45;&gt;Node8 -->
<g id="edge9_Node000001_Node000008" class="edge">
<title>Node1&#45;&gt;Node8</title>
<g id="a_edge9_Node000001_Node000008"><a xlink:title=" ">
<path fill="none" stroke="#63b8ff" d="M781.79,-112.98C772.37,-113.94 762.82,-114.91 753.51,-115.85"/>
<polygon fill="#63b8ff" stroke="#63b8ff" points="782.34,-116.45 791.93,-111.95 781.63,-109.48 782.34,-116.45"/>
</a>
</g>
</g>
<!-- Node9 -->
<g id="Node000009" class="node">
<title>Node9</title>
<g id="a_Node000009"><a xlink:href="classGraphicClient.html#a349a93e6b861365d4aaa7d7cea0d9ccf" target="_top" xlink:title="Shows controls settings menu for key remapping.">
<polygon fill="white" stroke="#666666" points="756,-19 598,-19 598,0 756,0 756,-19"/>
<text text-anchor="middle" x="677" y="-7" font-family="Helvetica,sans-Serif" font-size="10.00">GraphicClient::selectSettings</text>
</a>
</g>
</g>
<!-- Node1&#45;&gt;Node9 -->
<g id="edge11_Node000001_Node000009" class="edge">
<title>Node1&#45;&gt;Node9</title>
<g id="a_edge11_Node000001_Node000009"><a xlink:title=" ">
<path fill="none" stroke="#63b8ff" d="M845.11,-88.8C823.84,-73.04 789.05,-48.93 756,-33.5 743.55,-27.69 729.33,-22.83 716.48,-19.04"/>
<polygon fill="#63b8ff" stroke="#63b8ff" points="843.25,-91.79 853.35,-95 847.46,-86.19 843.25,-91.79"/>
</a>
</g>
</g>
<!-- Node10 -->
<g id="Node000010" class="node">
<title>Node10</title>
<g id="a_Node000010"><a xlink:href="classInputSystem.html#af7ed09c6bfd5fba6af86af16de00d706" target="_top" xlink:title="Updates input state and sends player commands to the server.">
<polygon fill="white" stroke="#666666" points="736,-209 618,-209 618,-190 736,-190 736,-209"/>
<text text-anchor="middle" x="677" y="-197" font-family="Helvetica,sans-Serif" font-size="10.00">InputSystem::update</text>
</a>
</g>
</g>
<!-- Node1&#45;&gt;Node10 -->
<g id="edge13_Node000001_Node000010" class="edge">
<title>Node1&#45;&gt;Node10</title>
<g id="a_edge13_Node000001_Node000010"><a xlink:title=" ">
<path fill="none" stroke="#63b8ff" d="M845.11,-120.2C823.84,-135.96 789.05,-160.07 756,-175.5 743.55,-181.31 729.33,-186.17 716.48,-189.96"/>
<polygon fill="#63b8ff" stroke="#63b8ff" points="847.46,-122.81 853.35,-114 843.25,-117.21 847.46,-122.81"/>
</a>
</g>
</g>
<!-- Node3 -->
<g id="Node000003" class="node">
<title>Node3</title>
<g id="a_Node000003"><a xlink:href="classGraphicClient.html#ad39a5f1d7ec30752f8d412d6925ef109" target="_top" xlink:title="Main application loop.">
<polygon fill="white" stroke="#666666" points="181,-133 77,-133 77,-114 181,-114 181,-133"/>
<text text-anchor="middle" x="129" y="-121" font-family="Helvetica,sans-Serif" font-size="10.00">GraphicClient::run</text>
</a>
</g>
</g>
<!-- Node2&#45;&gt;Node3 -->
<g id="edge2_Node000002_Node000003" class="edge">
<title>Node2&#45;&gt;Node3</title>
<g id="a_edge2_Node000002_Node000003"><a xlink:title=" ">
<path fill="none" stroke="#63b8ff" d="M236.87,-149.53C215.01,-144.21 189.62,-138.02 169.08,-133.02"/>
<polygon fill="#63b8ff" stroke="#63b8ff" points="236.09,-152.94 246.63,-151.91 237.75,-146.14 236.09,-152.94"/>
</a>
</g>
</g>
<!-- Node4 -->
<g id="Node000004" class="node">
<title>Node4</title>
<g id="a_Node000004"><a xlink:href="client_8cpp.html#ae66f6b31b5ad750f1fe042a706a4e3d4" target="_top" xlink:title=" ">
<polygon fill="white" stroke="#666666" points="41,-133 0,-133 0,-114 41,-114 41,-133"/>
<text text-anchor="middle" x="20.5" y="-121" font-family="Helvetica,sans-Serif" font-size="10.00">main</text>
</a>
</g>
</g>
<!-- Node3&#45;&gt;Node4 -->
<g id="edge3_Node000003_Node000004" class="edge">
<title>Node3&#45;&gt;Node4</title>
<g id="a_edge3_Node000003_Node000004"><a xlink:title=" ">
<path fill="none" stroke="#63b8ff" d="M66.83,-123.5C57.58,-123.5 48.66,-123.5 41.22,-123.5"/>
<polygon fill="#63b8ff" stroke="#63b8ff" points="66.93,-127 76.93,-123.5 66.93,-120 66.93,-127"/>
</a>
</g>
</g>
<!-- Node6 -->
<g id="Node000006" class="node">
<title>Node6</title>
<g id="a_Node000006"><a xlink:href="classGraphicClient.html#a4b416d0d2b3f07134ce30afb0c60adbe" target="_top" xlink:title="Initializes the client (connects to server, shows menus).">
<polygon fill="white" stroke="#666666" points="339,-114 235,-114 235,-95 339,-95 339,-114"/>
<text text-anchor="middle" x="287" y="-102" font-family="Helvetica,sans-Serif" font-size="10.00">GraphicClient::init</text>
</a>
</g>
</g>
<!-- Node5&#45;&gt;Node6 -->
<g id="edge5_Node000005_Node000006" class="edge">
<title>Node5&#45;&gt;Node6</title>
<g id="a_edge5_Node000005_Node000006"><a xlink:title=" ">
<path fill="none" stroke="#63b8ff" d="M393.94,-93.82C375.33,-95.7 356.11,-97.63 339.24,-99.34"/>
<polygon fill="#63b8ff" stroke="#63b8ff" points="394.29,-97.3 403.89,-92.82 393.59,-90.34 394.29,-97.3"/>
</a>
</g>
</g>
<!-- Node6&#45;&gt;Node3 -->
<g id="edge6_Node000006_Node000003" class="edge">
<title>Node6&#45;&gt;Node3</title>
<g id="a_edge6_Node000006_Node000003"><a xlink:title=" ">
<path fill="none" stroke="#63b8ff" d="M224.62,-111.98C210.24,-113.73 195.07,-115.57 181.19,-117.26"/>
<polygon fill="#63b8ff" stroke="#63b8ff" points="225.42,-115.4 234.92,-110.72 224.57,-108.46 225.42,-115.4"/>
</a>
</g>
</g>
<!-- Node7&#45;&gt;Node6 -->
<g id="edge8_Node000007_Node000006" class="edge">
<title>Node7&#45;&gt;Node6</title>
<g id="a_edge8_Node000007_Node000006"><a xlink:title=" ">
<path fill="none" stroke="#63b8ff" d="M420.09,-59.34C410.98,-61.53 401.7,-63.95 393,-66.5 364.73,-74.8 333.01,-86.64 311.91,-94.89"/>
<polygon fill="#63b8ff" stroke="#63b8ff" points="420.93,-62.74 429.86,-57.04 419.33,-55.92 420.93,-62.74"/>
</a>
</g>
</g>
<!-- Node8&#45;&gt;Node6 -->
<g id="edge10_Node000008_Node000006" class="edge">
<title>Node8&#45;&gt;Node6</title>
<g id="a_edge10_Node000008_Node000006"><a xlink:title=" ">
<path fill="none" stroke="#63b8ff" d="M590.12,-119.29C513.2,-115.53 402.97,-110.13 339.11,-107"/>
<polygon fill="#63b8ff" stroke="#63b8ff" points="590.11,-122.8 600.27,-119.79 590.45,-115.81 590.11,-122.8"/>
</a>
</g>
</g>
<!-- Node9&#45;&gt;Node7 -->
<g id="edge12_Node000009_Node000007" class="edge">
<title>Node9&#45;&gt;Node7</title>
<g id="a_edge12_Node000009_Node000007"><a xlink:title=" ">
<path fill="none" stroke="#63b8ff" d="M616.29,-20.99C588.11,-26.41 554.87,-32.81 528.1,-37.96"/>
<polygon fill="#63b8ff" stroke="#63b8ff" points="617.26,-24.37 626.42,-19.04 615.94,-17.49 617.26,-24.37"/>
</a>
</g>
</g>
<!-- Node11 -->
<g id="Node000011" class="node">
<title>Node11</title>
<g id="a_Node000011"><a xlink:href="classGraphicClient.html#a50072266faf2e76ace99e16c4c7b208a" target="_top" xlink:title="Updates all game entities based on delta time.">
<polygon fill="white" stroke="#666666" points="557,-209 398,-209 398,-190 557,-190 557,-209"/>
<text text-anchor="middle" x="477.5" y="-197" font-family="Helvetica,sans-Serif" font-size="10.00">GraphicClient::updateEntities</text>
</a>
</g>
</g>
<!-- Node10&#45;&gt;Node11 -->
<g id="edge14_Node000010_Node000011" class="edge">
<title>Node10&#45;&gt;Node11</title>
<g id="a_edge14_Node000010_Node000011"><a xlink:title=" ">
<path fill="none" stroke="#63b8ff" d="M607.35,-199.5C591.15,-199.5 573.74,-199.5 557.13,-199.5"/>
<polygon fill="#63b8ff" stroke="#63b8ff" points="607.81,-203 617.81,-199.5 607.81,-196 607.81,-203"/>
</a>
</g>
</g>
<!-- Node11&#45;&gt;Node2 -->
<g id="edge15_Node000011_Node000002" class="edge">
<title>Node11&#45;&gt;Node2</title>
<g id="a_edge15_Node000011_Node000002"><a xlink:title=" ">
<path fill="none" stroke="#63b8ff" d="M418.91,-187.89C392.1,-182.49 360.6,-176.14 335.22,-171.02"/>
<polygon fill="#63b8ff" stroke="#63b8ff" points="418.44,-191.37 428.93,-189.91 419.82,-184.5 418.44,-191.37"/>
</a>
</g>
</g>
</g>
</svg>
