<?xml version="1.0" encoding="UTF-8" standalone="no"?>
<!DOCTYPE svg PUBLIC "-//W3C//DTD SVG 1.1//EN"
 "http://www.w3.org/Graphics/SVG/1.1/DTD/svg11.dtd">
<!-- Generated by graphviz version 2.43.0 (0)
 -->
<!-- Title: NetworkClient::updateServerAddress Pages: 1 -->
<svg width="728pt" height="38pt"
 viewBox="0.00 0.00 728.00 38.00" xmlns="http://www.w3.org/2000/svg" xmlns:xlink="http://www.w3.org/1999/xlink">
<g id="graph0" class="graph" transform="scale(1 1) rotate(0) translate(4 34)">
<title>NetworkClient::updateServerAddress</title>
<!-- Node1 -->
<g id="Node000001" class="node">
<title>Node1</title>
<g id="a_Node000001"><a xlink:title="Update remote server address for TCP and UDP.">
<polygon fill="#999999" stroke="#666666" points="720,-30 562,-30 562,0 720,0 720,-30"/>
<text text-anchor="start" x="570" y="-18" font-family="Helvetica,sans-Serif" font-size="10.00">NetworkClient::updateServer</text>
<text text-anchor="middle" x="641" y="-7" font-family="Helvetica,sans-Serif" font-size="10.00">Address</text>
</a>
</g>
</g>
<!-- Node2 -->
<g id="Node000002" class="node">
<title>Node2</title>
<g id="a_Node000002"><a xlink:href="classGraphicClient.html#a2d663515d7165fbe3533e038b5b2e916" target="_top" xlink:title="Shows main menu with server connection options.">
<polygon fill="white" stroke="#666666" points="526,-24.5 357,-24.5 357,-5.5 526,-5.5 526,-24.5"/>
<text text-anchor="middle" x="441.5" y="-12.5" font-family="Helvetica,sans-Serif" font-size="10.00">GraphicClient::selectMainMenu</text>
</a>
</g>
</g>
<!-- Node1&#45;&gt;Node2 -->
<g id="edge1_Node000001_Node000002" class="edge">
<title>Node1&#45;&gt;Node2</title>
<g id="a_edge1_Node000001_Node000002"><a xlink:title=" ">
<path fill="none" stroke="#63b8ff" d="M551.67,-15C543.18,-15 534.6,-15 526.16,-15"/>
<polygon fill="#63b8ff" stroke="#63b8ff" points="551.94,-18.5 561.94,-15 551.94,-11.5 551.94,-18.5"/>
</a>
</g>
</g>
<!-- Node3 -->
<g id="Node000003" class="node">
<title>Node3</title>
<g id="a_Node000003"><a xlink:href="classGraphicClient.html#a4b416d0d2b3f07134ce30afb0c60adbe" target="_top" xlink:title="Initializes the client (connects to server, shows menus).">
<polygon fill="white" stroke="#666666" points="321,-24.5 217,-24.5 217,-5.5 321,-5.5 321,-24.5"/>
<text text-anchor="middle" x="269" y="-12.5" font-family="Helvetica,sans-Serif" font-size="10.00">GraphicClient::init</text>
</a>
</g>
</g>
<!-- Node2&#45;&gt;Node3 -->
<g id="edge2_Node000002_Node000003" class="edge">
<title>Node2&#45;&gt;Node3</title>
<g id="a_edge2_Node000002_Node000003"><a xlink:title=" ">
<path fill="none" stroke="#63b8ff" d="M346.53,-15C337.85,-15 329.3,-15 321.23,-15"/>
<polygon fill="#63b8ff" stroke="#63b8ff" points="346.75,-18.5 356.75,-15 346.75,-11.5 346.75,-18.5"/>
</a>
</g>
</g>
<!-- Node4 -->
<g id="Node000004" class="node">
<title>Node4</title>
<g id="a_Node000004"><a xlink:href="classGraphicClient.html#ad39a5f1d7ec30752f8d412d6925ef109" target="_top" xlink:title="Main application loop.">
<polygon fill="white" stroke="#666666" points="181,-24.5 77,-24.5 77,-5.5 181,-5.5 181,-24.5"/>
<text text-anchor="middle" x="129" y="-12.5" font-family="Helvetica,sans-Serif" font-size="10.00">GraphicClient::run</text>
</a>
</g>
</g>
<!-- Node3&#45;&gt;Node4 -->
<g id="edge3_Node000003_Node000004" class="edge">
<title>Node3&#45;&gt;Node4</title>
<g id="a_edge3_Node000003_Node000004"><a xlink:title=" ">
<path fill="none" stroke="#63b8ff" d="M206.5,-15C198.13,-15 189.6,-15 181.43,-15"/>
<polygon fill="#63b8ff" stroke="#63b8ff" points="206.61,-18.5 216.61,-15 206.61,-11.5 206.61,-18.5"/>
</a>
</g>
</g>
<!-- Node5 -->
<g id="Node000005" class="node">
<title>Node5</title>
<g id="a_Node000005"><a xlink:href="client_8cpp.html#ae66f6b31b5ad750f1fe042a706a4e3d4" target="_top" xlink:title=" ">
<polygon fill="white" stroke="#666666" points="41,-24.5 0,-24.5 0,-5.5 41,-5.5 41,-24.5"/>
<text text-anchor="middle" x="20.5" y="-12.5" font-family="Helvetica,sans-Serif" font-size="10.00">main</text>
</a>
</g>
</g>
<!-- Node4&#45;&gt;Node5 -->
<g id="edge4_Node000004_Node000005" class="edge">
<title>Node4&#45;&gt;Node5</title>
<g id="a_edge4_Node000004_Node000005"><a xlink:title=" ">
<path fill="none" stroke="#63b8ff" d="M66.83,-15C57.58,-15 48.66,-15 41.22,-15"/>
<polygon fill="#63b8ff" stroke="#63b8ff" points="66.93,-18.5 76.93,-15 66.93,-11.5 66.93,-18.5"/>
</a>
</g>
</g>
</g>
</svg>
