<?xml version="1.0" encoding="UTF-8" standalone="no"?>
<!DOCTYPE svg PUBLIC "-//W3C//DTD SVG 1.1//EN"
 "http://www.w3.org/Graphics/SVG/1.1/DTD/svg11.dtd">
<!-- Generated by graphviz version 2.43.0 (0)
 -->
<!-- Title: Network::TransportLayer::UDPSocket::getSenderAddr Pages: 1 -->
<svg width="598pt" height="38pt"
 viewBox="0.00 0.00 598.00 38.00" xmlns="http://www.w3.org/2000/svg" xmlns:xlink="http://www.w3.org/1999/xlink">
<g id="graph0" class="graph" transform="scale(1 1) rotate(0) translate(4 34)">
<title>Network::TransportLayer::UDPSocket::getSenderAddr</title>
<!-- Node1 -->
<g id="Node000001" class="node">
<title>Node1</title>
<g id="a_Node000001"><a xlink:title="Get the sender address of the last received packet.">
<polygon fill="#999999" stroke="#666666" points="590,-30 436,-30 436,0 590,0 590,-30"/>
<text text-anchor="start" x="444" y="-18" font-family="Helvetica,sans-Serif" font-size="10.00">Network::TransportLayer</text>
<text text-anchor="middle" x="513" y="-7" font-family="Helvetica,sans-Serif" font-size="10.00">::UDPSocket::getSenderAddr</text>
</a>
</g>
</g>
<!-- Node2 -->
<g id="Node000002" class="node">
<title>Node2</title>
<g id="a_Node000002"><a xlink:href="classUDPGameServer.html#a7f3a37004641222f4d30d55614f05029" target="_top" xlink:title="Thread loop to read incoming UDP packets without blocking the simulation tick.">
<polygon fill="white" stroke="#666666" points="400,-24.5 233,-24.5 233,-5.5 400,-5.5 400,-24.5"/>
<text text-anchor="middle" x="316.5" y="-12.5" font-family="Helvetica,sans-Serif" font-size="10.00">UDPGameServer::networkLoop</text>
</a>
</g>
</g>
<!-- Node1&#45;&gt;Node2 -->
<g id="edge1_Node000001_Node000002" class="edge">
<title>Node1&#45;&gt;Node2</title>
<g id="a_edge1_Node000001_Node000002"><a xlink:title=" ">
<path fill="none" stroke="#63b8ff" d="M425.71,-15C417.24,-15 408.67,-15 400.24,-15"/>
<polygon fill="#63b8ff" stroke="#63b8ff" points="425.97,-18.5 435.97,-15 425.97,-11.5 425.97,-18.5"/>
</a>
</g>
</g>
<!-- Node3 -->
<g id="Node000003" class="node">
<title>Node3</title>
<g id="a_Node000003"><a xlink:href="classUDPGameServer.html#a476a4f2e8bb0833c788761298eb4a72b" target="_top" xlink:title="Start the main server loop (blocking).">
<polygon fill="white" stroke="#666666" points="197,-24.5 77,-24.5 77,-5.5 197,-5.5 197,-24.5"/>
<text text-anchor="middle" x="137" y="-12.5" font-family="Helvetica,sans-Serif" font-size="10.00">UDPGameServer::run</text>
</a>
</g>
</g>
<!-- Node2&#45;&gt;Node3 -->
<g id="edge2_Node000002_Node000003" class="edge">
<title>Node2&#45;&gt;Node3</title>
<g id="a_edge2_Node000002_Node000003"><a xlink:title=" ">
<path fill="none" stroke="#63b8ff" d="M222.73,-15C214,-15 205.32,-15 197.04,-15"/>
<polygon fill="#63b8ff" stroke="#63b8ff" points="222.99,-18.5 232.99,-15 222.99,-11.5 222.99,-18.5"/>
</a>
</g>
</g>
<!-- Node4 -->
<g id="Node000004" class="node">
<title>Node4</title>
<g id="a_Node000004"><a xlink:href="game_8cpp.html#a3c04138a5bfe5d72780bb7e82a18e627" target="_top" xlink:title=" ">
<polygon fill="white" stroke="#666666" points="41,-24.5 0,-24.5 0,-5.5 41,-5.5 41,-24.5"/>
<text text-anchor="middle" x="20.5" y="-12.5" font-family="Helvetica,sans-Serif" font-size="10.00">main</text>
</a>
</g>
</g>
<!-- Node3&#45;&gt;Node4 -->
<g id="edge3_Node000003_Node000004" class="edge">
<title>Node3&#45;&gt;Node4</title>
<g id="a_edge3_Node000003_Node000004"><a xlink:title=" ">
<path fill="none" stroke="#63b8ff" d="M66.55,-15C57.28,-15 48.46,-15 41.12,-15"/>
<polygon fill="#63b8ff" stroke="#63b8ff" points="66.74,-18.5 76.74,-15 66.74,-11.5 66.74,-18.5"/>
</a>
</g>
</g>
</g>
</svg>
