<?xml version="1.0" encoding="UTF-8" standalone="no"?>
<!DOCTYPE svg PUBLIC "-//W3C//DTD SVG 1.1//EN"
 "http://www.w3.org/Graphics/SVG/1.1/DTD/svg11.dtd">
<!-- Generated by graphviz version 2.43.0 (0)
 -->
<!-- Title: GraphicClient::createBulletEntity Pages: 1 -->
<svg width="507pt" height="82pt"
 viewBox="0.00 0.00 507.00 82.00" xmlns="http://www.w3.org/2000/svg" xmlns:xlink="http://www.w3.org/1999/xlink">
<g id="graph0" class="graph" transform="scale(1 1) rotate(0) translate(4 78)">
<title>GraphicClient::createBulletEntity</title>
<!-- Node1 -->
<g id="Node000001" class="node">
<title>Node1</title>
<g id="a_Node000001"><a xlink:title="Creates a bullet entity at specified position.">
<polygon fill="#999999" stroke="#666666" points="148,-42.5 0,-42.5 0,-12.5 148,-12.5 148,-42.5"/>
<text text-anchor="start" x="8" y="-30.5" font-family="Helvetica,sans-Serif" font-size="10.00">GraphicClient::createBullet</text>
<text text-anchor="middle" x="74" y="-19.5" font-family="Helvetica,sans-Serif" font-size="10.00">Entity</text>
</a>
</g>
</g>
<!-- Node2 -->
<g id="Node000002" class="node">
<title>Node2</title>
<g id="a_Node000002"><a xlink:href="classECS.html#a4fbe0d70b0934255d301ced9df6287e7" target="_top" xlink:title="Adds a component to an entity.">
<polygon fill="white" stroke="#666666" points="300,-56 184,-56 184,-37 300,-37 300,-56"/>
<text text-anchor="middle" x="242" y="-44" font-family="Helvetica,sans-Serif" font-size="10.00">ECS::addComponent</text>
</a>
</g>
</g>
<!-- Node1&#45;&gt;Node2 -->
<g id="edge1_Node000001_Node000002" class="edge">
<title>Node1&#45;&gt;Node2</title>
<g id="a_edge1_Node000001_Node000002"><a xlink:title=" ">
<path fill="none" stroke="#63b8ff" d="M148.29,-35.89C156.75,-36.86 165.35,-37.84 173.72,-38.8"/>
<polygon fill="#63b8ff" stroke="#63b8ff" points="173.47,-42.29 183.8,-39.95 174.27,-35.34 173.47,-42.29"/>
</a>
</g>
</g>
<!-- Node5 -->
<g id="Node000005" class="node">
<title>Node5</title>
<g id="a_Node000005"><a xlink:href="classECS.html#a41b876f3725cbb04aac3f2edd95522c6" target="_top" xlink:title="Creates a new entity.">
<polygon fill="white" stroke="#666666" points="292.5,-19 191.5,-19 191.5,0 292.5,0 292.5,-19"/>
<text text-anchor="middle" x="242" y="-7" font-family="Helvetica,sans-Serif" font-size="10.00">ECS::createEntity</text>
</a>
</g>
</g>
<!-- Node1&#45;&gt;Node5 -->
<g id="edge4_Node000001_Node000005" class="edge">
<title>Node1&#45;&gt;Node5</title>
<g id="a_edge4_Node000001_Node000005"><a xlink:title=" ">
<path fill="none" stroke="#63b8ff" d="M148.29,-19.55C159.35,-18.35 170.64,-17.13 181.37,-15.97"/>
<polygon fill="#63b8ff" stroke="#63b8ff" points="181.88,-19.43 191.45,-14.87 181.13,-12.47 181.88,-19.43"/>
</a>
</g>
</g>
<!-- Node3 -->
<g id="Node000003" class="node">
<title>Node3</title>
<g id="a_Node000003"><a xlink:href="classComponentArray.html#a37f484a9d2b6716e2facff9eabe1bb64" target="_top" xlink:title="Adds or updates a component for an entity.">
<polygon fill="white" stroke="#666666" points="478.5,-74 356.5,-74 356.5,-55 478.5,-55 478.5,-74"/>
<text text-anchor="middle" x="417.5" y="-62" font-family="Helvetica,sans-Serif" font-size="10.00">ComponentArray::add</text>
</a>
</g>
</g>
<!-- Node2&#45;&gt;Node3 -->
<g id="edge2_Node000002_Node000003" class="edge">
<title>Node2&#45;&gt;Node3</title>
<g id="a_edge2_Node000002_Node000003"><a xlink:title=" ">
<path fill="none" stroke="#63b8ff" d="M300.29,-52.44C314.89,-53.96 330.75,-55.6 345.92,-57.18"/>
<polygon fill="#63b8ff" stroke="#63b8ff" points="345.98,-60.7 356.29,-58.25 346.71,-53.74 345.98,-60.7"/>
</a>
</g>
</g>
<!-- Node4 -->
<g id="Node000004" class="node">
<title>Node4</title>
<g id="a_Node000004"><a xlink:href="classECS.html#aacd3f4c4db77a1e5ff41711297ec6602" target="_top" xlink:title="Gets the type index for a component type.">
<polygon fill="white" stroke="#666666" points="499,-37 336,-37 336,-18 499,-18 499,-37"/>
<text text-anchor="middle" x="417.5" y="-25" font-family="Helvetica,sans-Serif" font-size="10.00">ECS::getComponentTypeIndex</text>
</a>
</g>
</g>
<!-- Node2&#45;&gt;Node4 -->
<g id="edge3_Node000002_Node000004" class="edge">
<title>Node2&#45;&gt;Node4</title>
<g id="a_edge3_Node000002_Node000004"><a xlink:title=" ">
<path fill="none" stroke="#63b8ff" d="M300.29,-40.23C308.45,-39.33 317,-38.4 325.61,-37.45"/>
<polygon fill="#63b8ff" stroke="#63b8ff" points="326.16,-40.91 335.72,-36.35 325.4,-33.96 326.16,-40.91"/>
</a>
</g>
</g>
</g>
</svg>
