<?xml version="1.0" encoding="UTF-8" standalone="no"?>
<!DOCTYPE svg PUBLIC "-//W3C//DTD SVG 1.1//EN"
 "http://www.w3.org/Graphics/SVG/1.1/DTD/svg11.dtd">
<!-- Generated by graphviz version 2.43.0 (0)
 -->
<!-- Title: UDPGameServer::sendPacketTo Pages: 1 -->
<svg width="815pt" height="84pt"
 viewBox="0.00 0.00 815.00 83.90" xmlns="http://www.w3.org/2000/svg" xmlns:xlink="http://www.w3.org/1999/xlink">
<g id="graph0" class="graph" transform="scale(1 1) rotate(0) translate(4 79.9)">
<title>UDPGameServer::sendPacketTo</title>
<!-- Node1 -->
<g id="Node000001" class="node">
<title>Node1</title>
<g id="a_Node000001"><a xlink:title="Send a packet to a single endpoint.">
<polygon fill="#999999" stroke="#666666" points="807,-32.4 637,-32.4 637,-13.4 807,-13.4 807,-32.4"/>
<text text-anchor="middle" x="722" y="-20.4" font-family="Helvetica,sans-Serif" font-size="10.00">UDPGameServer::sendPacketTo</text>
</a>
</g>
</g>
<!-- Node2 -->
<g id="Node000002" class="node">
<title>Node2</title>
<g id="a_Node000002"><a xlink:href="classUDPGameServer.html#a19fbc481d5a9467da80ef95a4e3872e5" target="_top" xlink:title="Broadcast the current snapshot to all connected players.">
<polygon fill="white" stroke="#666666" points="393.5,-75.9 241.5,-75.9 241.5,-45.9 393.5,-45.9 393.5,-75.9"/>
<text text-anchor="start" x="249.5" y="-63.9" font-family="Helvetica,sans-Serif" font-size="10.00">UDPGameServer::broadcast</text>
<text text-anchor="middle" x="317.5" y="-52.9" font-family="Helvetica,sans-Serif" font-size="10.00">Snapshot</text>
</a>
</g>
</g>
<!-- Node1&#45;&gt;Node2 -->
<g id="edge1_Node000001_Node000002" class="edge">
<title>Node1&#45;&gt;Node2</title>
<g id="a_edge1_Node000001_Node000002"><a xlink:title=" ">
<path fill="none" stroke="#63b8ff" d="M653.8,-33.92C636.62,-36.48 618.15,-39.01 601,-40.9 530.87,-48.63 450.6,-53.98 393.59,-57.18"/>
<polygon fill="#63b8ff" stroke="#63b8ff" points="654.38,-37.38 663.74,-32.42 653.33,-30.45 654.38,-37.38"/>
</a>
</g>
</g>
<!-- Node5 -->
<g id="Node000005" class="node">
<title>Node5</title>
<g id="a_Node000005"><a xlink:href="classUDPGameServer.html#a367b917d572ad28819003841b3be180c" target="_top" xlink:title="Register a new player on receipt of a hello message.">
<polygon fill="white" stroke="#666666" points="601,-32.4 438,-32.4 438,-13.4 601,-13.4 601,-32.4"/>
<text text-anchor="middle" x="519.5" y="-20.4" font-family="Helvetica,sans-Serif" font-size="10.00">UDPGameServer::handleHello</text>
</a>
</g>
</g>
<!-- Node1&#45;&gt;Node5 -->
<g id="edge4_Node000001_Node000005" class="edge">
<title>Node1&#45;&gt;Node5</title>
<g id="a_edge4_Node000001_Node000005"><a xlink:title=" ">
<path fill="none" stroke="#63b8ff" d="M626.84,-22.9C618.28,-22.9 609.66,-22.9 601.24,-22.9"/>
<polygon fill="#63b8ff" stroke="#63b8ff" points="626.84,-26.4 636.84,-22.9 626.84,-19.4 626.84,-26.4"/>
</a>
</g>
</g>
<!-- Node6 -->
<g id="Node000006" class="node">
<title>Node6</title>
<g id="a_Node000006"><a xlink:href="classUDPGameServer.html#a9d28a7f4a0c75aba168ea6a58633d1bb" target="_top" xlink:title="Route an incoming packet to the appropriate handler.">
<polygon fill="white" stroke="#666666" points="402,-27.4 233,-27.4 233,-8.4 402,-8.4 402,-27.4"/>
<text text-anchor="middle" x="317.5" y="-15.4" font-family="Helvetica,sans-Serif" font-size="10.00">UDPGameServer::handlePacket</text>
</a>
</g>
</g>
<!-- Node1&#45;&gt;Node6 -->
<g id="edge7_Node000001_Node000006" class="edge">
<title>Node1&#45;&gt;Node6</title>
<g id="a_edge7_Node000001_Node000006"><a xlink:title=" ">
<path fill="none" stroke="#63b8ff" d="M662.24,-11.71C642.82,-8.51 621.06,-5.47 601,-3.9 528.78,1.79 510.32,0.33 438,-3.9 421.73,-4.85 404.29,-6.52 387.89,-8.38"/>
<polygon fill="#63b8ff" stroke="#63b8ff" points="661.72,-15.17 672.16,-13.38 662.89,-8.27 661.72,-15.17"/>
</a>
</g>
</g>
<!-- Node3 -->
<g id="Node000003" class="node">
<title>Node3</title>
<g id="a_Node000003"><a xlink:href="classUDPGameServer.html#a476a4f2e8bb0833c788761298eb4a72b" target="_top" xlink:title="Start the main server loop (blocking).">
<polygon fill="white" stroke="#666666" points="197,-48.4 77,-48.4 77,-29.4 197,-29.4 197,-48.4"/>
<text text-anchor="middle" x="137" y="-36.4" font-family="Helvetica,sans-Serif" font-size="10.00">UDPGameServer::run</text>
</a>
</g>
</g>
<!-- Node2&#45;&gt;Node3 -->
<g id="edge2_Node000002_Node000003" class="edge">
<title>Node2&#45;&gt;Node3</title>
<g id="a_edge2_Node000002_Node000003"><a xlink:title=" ">
<path fill="none" stroke="#63b8ff" d="M231.22,-50.39C219.68,-48.96 208.05,-47.53 197.1,-46.18"/>
<polygon fill="#63b8ff" stroke="#63b8ff" points="230.96,-53.88 241.32,-51.63 231.82,-46.93 230.96,-53.88"/>
</a>
</g>
</g>
<!-- Node4 -->
<g id="Node000004" class="node">
<title>Node4</title>
<g id="a_Node000004"><a xlink:href="game_8cpp.html#a3c04138a5bfe5d72780bb7e82a18e627" target="_top" xlink:title=" ">
<polygon fill="white" stroke="#666666" points="41,-48.4 0,-48.4 0,-29.4 41,-29.4 41,-48.4"/>
<text text-anchor="middle" x="20.5" y="-36.4" font-family="Helvetica,sans-Serif" font-size="10.00">main</text>
</a>
</g>
</g>
<!-- Node3&#45;&gt;Node4 -->
<g id="edge3_Node000003_Node000004" class="edge">
<title>Node3&#45;&gt;Node4</title>
<g id="a_edge3_Node000003_Node000004"><a xlink:title=" ">
<path fill="none" stroke="#63b8ff" d="M66.55,-38.9C57.28,-38.9 48.46,-38.9 41.12,-38.9"/>
<polygon fill="#63b8ff" stroke="#63b8ff" points="66.74,-42.4 76.74,-38.9 66.74,-35.4 66.74,-42.4"/>
</a>
</g>
</g>
<!-- Node5&#45;&gt;Node6 -->
<g id="edge5_Node000005_Node000006" class="edge">
<title>Node5&#45;&gt;Node6</title>
<g id="a_edge5_Node000005_Node000006"><a xlink:title=" ">
<path fill="none" stroke="#63b8ff" d="M427.5,-20.62C419.07,-20.41 410.55,-20.2 402.18,-19.99"/>
<polygon fill="#63b8ff" stroke="#63b8ff" points="427.64,-24.13 437.73,-20.88 427.82,-17.13 427.64,-24.13"/>
</a>
</g>
</g>
<!-- Node6&#45;&gt;Node3 -->
<g id="edge6_Node000006_Node000003" class="edge">
<title>Node6&#45;&gt;Node3</title>
<g id="a_edge6_Node000006_Node000003"><a xlink:title=" ">
<path fill="none" stroke="#63b8ff" d="M225.59,-28.59C215.97,-29.72 206.37,-30.85 197.25,-31.93"/>
<polygon fill="#63b8ff" stroke="#63b8ff" points="226.08,-32.06 235.61,-27.41 225.27,-25.11 226.08,-32.06"/>
</a>
</g>
</g>
</g>
</svg>
