<?xml version="1.0" encoding="UTF-8" standalone="no"?>
<!DOCTYPE svg PUBLIC "-//W3C//DTD SVG 1.1//EN"
 "http://www.w3.org/Graphics/SVG/1.1/DTD/svg11.dtd">
<!-- Generated by graphviz version 2.43.0 (0)
 -->
<!-- Title: TCPServer::processClientData Pages: 1 -->
<svg width="1680pt" height="619pt"
 viewBox="0.00 0.00 1680.00 618.70" xmlns="http://www.w3.org/2000/svg" xmlns:xlink="http://www.w3.org/1999/xlink">
<g id="graph0" class="graph" transform="scale(1 1) rotate(0) translate(4 614.7)">
<title>TCPServer::processClientData</title>
<!-- Node1 -->
<g id="Node000001" class="node">
<title>Node1</title>
<g id="a_Node000001"><a xlink:title="Read and handle data for a single client.">
<polygon fill="#999999" stroke="#666666" points="161,-222 0,-222 0,-203 161,-203 161,-222"/>
<text text-anchor="middle" x="80.5" y="-210" font-family="Helvetica,sans-Serif" font-size="10.00">TCPServer::processClientData</text>
</a>
</g>
</g>
<!-- Node2 -->
<g id="Node000002" class="node">
<title>Node2</title>
<g id="a_Node000002"><a xlink:href="classTCPServer.html#afb22938cbabd280ec30b3ffab25aeb56" target="_top" xlink:title=" ">
<polygon fill="white" stroke="#666666" points="1194.5,-578 1034.5,-578 1034.5,-559 1194.5,-559 1194.5,-578"/>
<text text-anchor="middle" x="1114.5" y="-566" font-family="Helvetica,sans-Serif" font-size="10.00">TCPServer::broadcastToLobby</text>
</a>
</g>
</g>
<!-- Node1&#45;&gt;Node2 -->
<g id="edge1_Node000001_Node000002" class="edge">
<title>Node1&#45;&gt;Node2</title>
<g id="a_edge1_Node000001_Node000002"><a xlink:title=" ">
<path fill="none" stroke="#63b8ff" d="M84.85,-222.14C96.16,-253.51 135.65,-354.13 197,-415.5 300.86,-519.4 343.09,-568.5 490,-568.5 490,-568.5 490,-568.5 699,-568.5 811.2,-568.5 940.48,-568.5 1024.42,-568.5"/>
<polygon fill="#63b8ff" stroke="#63b8ff" points="1024.42,-572 1034.42,-568.5 1024.42,-565 1024.42,-572"/>
</a>
</g>
</g>
<!-- Node3 -->
<g id="Node000003" class="node">
<title>Node3</title>
<g id="a_Node000003"><a xlink:href="classTCPServer.html#a9a65a3923e77e48c5f0019b45af8fcb5" target="_top" xlink:title="Send a packet to a specific client fd.">
<polygon fill="white" stroke="#666666" points="1372.5,-540 1245.5,-540 1245.5,-521 1372.5,-521 1372.5,-540"/>
<text text-anchor="middle" x="1309" y="-528" font-family="Helvetica,sans-Serif" font-size="10.00">TCPServer::sendPacket</text>
</a>
</g>
</g>
<!-- Node1&#45;&gt;Node3 -->
<g id="edge43_Node000001_Node000003" class="edge">
<title>Node1&#45;&gt;Node3</title>
<g id="a_edge43_Node000001_Node000003"><a xlink:title=" ">
<path fill="none" stroke="#63b8ff" d="M82.66,-222.07C87.92,-261.56 113.12,-413.65 197,-496.5 295.96,-594.25 350.9,-606.5 490,-606.5 490,-606.5 490,-606.5 907,-606.5 1037.94,-606.5 1075.05,-623.31 1201,-587.5 1232.57,-578.52 1265.38,-559.34 1286.2,-545.71"/>
<polygon fill="#63b8ff" stroke="#63b8ff" points="1288.26,-548.54 1294.62,-540.07 1284.36,-542.73 1288.26,-548.54"/>
</a>
</g>
</g>
<!-- Node8 -->
<g id="Node000008" class="node">
<title>Node8</title>
<g id="a_Node000008"><a xlink:href="classTCPServer.html#a6d824f4302f15bbd2c7c8b754d1a51dd" target="_top" xlink:title="Get current time in milliseconds.">
<polygon fill="white" stroke="#666666" points="358,-278 209,-278 209,-259 358,-259 358,-278"/>
<text text-anchor="middle" x="283.5" y="-266" font-family="Helvetica,sans-Serif" font-size="10.00">TCPServer::getCurrentTime</text>
</a>
</g>
</g>
<!-- Node1&#45;&gt;Node8 -->
<g id="edge7_Node000001_Node000008" class="edge">
<title>Node1&#45;&gt;Node8</title>
<g id="a_edge7_Node000001_Node000008"><a xlink:title=" ">
<path fill="none" stroke="#63b8ff" d="M108.83,-222.03C132.1,-229.96 166.51,-241.25 197,-249.5 206.26,-252.01 216.15,-254.43 225.79,-256.66"/>
<polygon fill="#63b8ff" stroke="#63b8ff" points="225.19,-260.12 235.72,-258.91 226.74,-253.29 225.19,-260.12"/>
</a>
</g>
</g>
<!-- Node9 -->
<g id="Node000009" class="node">
<title>Node9</title>
<g id="a_Node000009"><a xlink:href="classSessionManager.html#a0c52e8605801fc4e98c84b724ec72c09" target="_top" xlink:title="Fetch the lobby code for a player.">
<polygon fill="white" stroke="#666666" points="370,-241 197,-241 197,-222 370,-222 370,-241"/>
<text text-anchor="middle" x="283.5" y="-229" font-family="Helvetica,sans-Serif" font-size="10.00">SessionManager::getLobbyCode</text>
</a>
</g>
</g>
<!-- Node1&#45;&gt;Node9 -->
<g id="edge8_Node000001_Node000009" class="edge">
<title>Node1&#45;&gt;Node9</title>
<g id="a_edge8_Node000001_Node000009"><a xlink:title=" ">
<path fill="none" stroke="#63b8ff" d="M161.23,-220.04C169.66,-220.83 178.29,-221.65 186.88,-222.46"/>
<polygon fill="#63b8ff" stroke="#63b8ff" points="186.63,-225.95 196.92,-223.41 187.29,-218.98 186.63,-225.95"/>
</a>
</g>
</g>
<!-- Node10 -->
<g id="Node000010" class="node">
<title>Node10</title>
<g id="a_Node000010"><a xlink:href="classSessionManager.html#a3d137db5b62fdb63340d7b92b8eb371f" target="_top" xlink:title="Fetch the player&#39;s pseudo.">
<polygon fill="white" stroke="#666666" points="360.5,-204 206.5,-204 206.5,-185 360.5,-185 360.5,-204"/>
<text text-anchor="middle" x="283.5" y="-192" font-family="Helvetica,sans-Serif" font-size="10.00">SessionManager::getPseudo</text>
</a>
</g>
</g>
<!-- Node1&#45;&gt;Node10 -->
<g id="edge9_Node000001_Node000010" class="edge">
<title>Node1&#45;&gt;Node10</title>
<g id="a_edge9_Node000001_Node000010"><a xlink:title=" ">
<path fill="none" stroke="#63b8ff" d="M161.23,-205.36C172.76,-204.33 184.67,-203.26 196.32,-202.22"/>
<polygon fill="#63b8ff" stroke="#63b8ff" points="196.82,-205.69 206.47,-201.31 196.2,-198.71 196.82,-205.69"/>
</a>
</g>
</g>
<!-- Node11 -->
<g id="Node000011" class="node">
<title>Node11</title>
<g id="a_Node000011"><a xlink:href="classTCPServer.html#afd78aa179d3b735e82868d800629b354" target="_top" xlink:title="Handle lobby&#45;related packets for a client.">
<polygon fill="white" stroke="#666666" points="366.5,-407 200.5,-407 200.5,-388 366.5,-388 366.5,-407"/>
<text text-anchor="middle" x="283.5" y="-395" font-family="Helvetica,sans-Serif" font-size="10.00">TCPServer::handleLobbyPacket</text>
</a>
</g>
</g>
<!-- Node1&#45;&gt;Node11 -->
<g id="edge10_Node000001_Node000011" class="edge">
<title>Node1&#45;&gt;Node11</title>
<g id="a_edge10_Node000001_Node000011"><a xlink:title=" ">
<path fill="none" stroke="#63b8ff" d="M91.22,-222.18C110.89,-241.68 156.93,-286.95 197,-323.5 219.31,-343.85 245.68,-366.46 263.18,-381.27"/>
<polygon fill="#63b8ff" stroke="#63b8ff" points="261.09,-384.1 270.99,-387.87 265.61,-378.75 261.09,-384.1"/>
</a>
</g>
</g>
<!-- Node26 -->
<g id="Node000026" class="node">
<title>Node26</title>
<g id="a_Node000026"><a xlink:href="classTCPServer.html#a13efa1ebda8d0f4c99eae65d6b012b75" target="_top" xlink:title="Build a packet carrying a simple integer id.">
<polygon fill="white" stroke="#666666" points="353.5,-167 213.5,-167 213.5,-148 353.5,-148 353.5,-167"/>
<text text-anchor="middle" x="283.5" y="-155" font-family="Helvetica,sans-Serif" font-size="10.00">TCPServer::makeIdPacket</text>
</a>
</g>
</g>
<!-- Node1&#45;&gt;Node26 -->
<g id="edge31_Node000001_Node000026" class="edge">
<title>Node1&#45;&gt;Node26</title>
<g id="a_edge31_Node000001_Node000026"><a xlink:title=" ">
<path fill="none" stroke="#63b8ff" d="M108.8,-202.88C132.06,-194.9 166.47,-183.58 197,-175.5 205.42,-173.27 214.36,-171.14 223.16,-169.17"/>
<polygon fill="#63b8ff" stroke="#63b8ff" points="223.99,-172.57 233.02,-167.02 222.5,-165.73 223.99,-172.57"/>
</a>
</g>
</g>
<!-- Node27 -->
<g id="Node000027" class="node">
<title>Node27</title>
<g id="a_Node000027"><a xlink:href="classTCPServer.html#a35b89efbda16dd8af6b7ff45b6da036d" target="_top" xlink:title="Build a packet carrying a string payload.">
<polygon fill="white" stroke="#666666" points="363,-130 204,-130 204,-111 363,-111 363,-130"/>
<text text-anchor="middle" x="283.5" y="-118" font-family="Helvetica,sans-Serif" font-size="10.00">TCPServer::makeStringPacket</text>
</a>
</g>
</g>
<!-- Node1&#45;&gt;Node27 -->
<g id="edge32_Node000001_Node000027" class="edge">
<title>Node1&#45;&gt;Node27</title>
<g id="a_edge32_Node000001_Node000027"><a xlink:title=" ">
<path fill="none" stroke="#63b8ff" d="M93.17,-202.95C113.16,-187.08 155.79,-155.38 197,-138.5 202.18,-136.38 207.64,-134.5 213.19,-132.83"/>
<polygon fill="#63b8ff" stroke="#63b8ff" points="214.54,-136.09 223.24,-130.05 212.67,-129.34 214.54,-136.09"/>
</a>
</g>
</g>
<!-- Node28 -->
<g id="Node000028" class="node">
<title>Node28</title>
<g id="a_Node000028"><a xlink:href="classTCPServer.html#ae9543e5003c04975a7e06a9bb85c7723" target="_top" xlink:title="Receive and parse a packet from a client socket.">
<polygon fill="white" stroke="#666666" points="353.5,-93 213.5,-93 213.5,-74 353.5,-74 353.5,-93"/>
<text text-anchor="middle" x="283.5" y="-81" font-family="Helvetica,sans-Serif" font-size="10.00">TCPServer::receivePacket</text>
</a>
</g>
</g>
<!-- Node1&#45;&gt;Node28 -->
<g id="edge33_Node000001_Node000028" class="edge">
<title>Node1&#45;&gt;Node28</title>
<g id="a_edge33_Node000001_Node000028"><a xlink:title=" ">
<path fill="none" stroke="#63b8ff" d="M88.36,-202.95C104.57,-181.16 147.59,-127.64 197,-101.5 200.52,-99.64 204.22,-97.97 208.02,-96.47"/>
<polygon fill="#63b8ff" stroke="#63b8ff" points="209.36,-99.71 217.64,-93.1 207.04,-93.11 209.36,-99.71"/>
</a>
</g>
</g>
<!-- Node33 -->
<g id="Node000033" class="node">
<title>Node33</title>
<g id="a_Node000033"><a xlink:href="classTCPServer.html#a435ec8dcd340e15f964ce3c0748c7305" target="_top" xlink:title="Reset client fields and close its socket.">
<polygon fill="white" stroke="#666666" points="346,-315 221,-315 221,-296 346,-296 346,-315"/>
<text text-anchor="middle" x="283.5" y="-303" font-family="Helvetica,sans-Serif" font-size="10.00">TCPServer::resetClient</text>
</a>
</g>
</g>
<!-- Node1&#45;&gt;Node33 -->
<g id="edge38_Node000001_Node000033" class="edge">
<title>Node1&#45;&gt;Node33</title>
<g id="a_edge38_Node000001_Node000033"><a xlink:title=" ">
<path fill="none" stroke="#63b8ff" d="M93.19,-222C113.21,-237.79 155.88,-269.39 197,-286.5 203.13,-289.05 209.66,-291.28 216.27,-293.23"/>
<polygon fill="#63b8ff" stroke="#63b8ff" points="215.41,-296.63 225.98,-295.89 217.26,-289.88 215.41,-296.63"/>
</a>
</g>
</g>
<!-- Node37 -->
<g id="Node000037" class="node">
<title>Node37</title>
<g id="a_Node000037"><a xlink:href="classSessionManager.html#a84b313bdbfecb70d12707d77f357bca8" target="_top" xlink:title="Store the player&#39;s pseudo.">
<polygon fill="white" stroke="#666666" points="360,-56 207,-56 207,-37 360,-37 360,-56"/>
<text text-anchor="middle" x="283.5" y="-44" font-family="Helvetica,sans-Serif" font-size="10.00">SessionManager::setPseudo</text>
</a>
</g>
</g>
<!-- Node1&#45;&gt;Node37 -->
<g id="edge44_Node000001_Node000037" class="edge">
<title>Node1&#45;&gt;Node37</title>
<g id="a_edge44_Node000001_Node000037"><a xlink:title=" ">
<path fill="none" stroke="#63b8ff" d="M86.09,-202.63C99.18,-175.66 139.48,-100.38 197,-64.5 199.62,-62.87 202.36,-61.38 205.19,-60.02"/>
<polygon fill="#63b8ff" stroke="#63b8ff" points="206.61,-63.23 214.48,-56.14 203.9,-56.77 206.61,-63.23"/>
</a>
</g>
</g>
<!-- Node38 -->
<g id="Node000038" class="node">
<title>Node38</title>
<g id="a_Node000038"><a xlink:href="classSessionManager.html#ac233a47eaa6ca5e9b69e0cb8cd377358" target="_top" xlink:title="Update last PONG time for heartbeat checks.">
<polygon fill="white" stroke="#666666" points="364,-19 203,-19 203,0 364,0 364,-19"/>
<text text-anchor="middle" x="283.5" y="-7" font-family="Helvetica,sans-Serif" font-size="10.00">SessionManager::updatePong</text>
</a>
</g>
</g>
<!-- Node1&#45;&gt;Node38 -->
<g id="edge45_Node000001_Node000038" class="edge">
<title>Node1&#45;&gt;Node38</title>
<g id="a_edge45_Node000001_Node000038"><a xlink:title=" ">
<path fill="none" stroke="#63b8ff" d="M84.44,-202.94C94.5,-172.01 130.59,-73.92 197,-27.5 199.12,-26.02 201.34,-24.65 203.63,-23.4"/>
<polygon fill="#63b8ff" stroke="#63b8ff" points="205.25,-26.5 212.8,-19.07 202.26,-20.17 205.25,-26.5"/>
</a>
</g>
</g>
<!-- Node2&#45;&gt;Node3 -->
<g id="edge2_Node000002_Node000003" class="edge">
<title>Node2&#45;&gt;Node3</title>
<g id="a_edge2_Node000002_Node000003"><a xlink:title=" ">
<path fill="none" stroke="#63b8ff" d="M1164.08,-558.91C1190.16,-553.76 1222.51,-547.38 1249.92,-541.97"/>
<polygon fill="#63b8ff" stroke="#63b8ff" points="1250.64,-545.39 1259.77,-540.02 1249.28,-538.52 1250.64,-545.39"/>
</a>
</g>
</g>
<!-- Node4 -->
<g id="Node000004" class="node">
<title>Node4</title>
<g id="a_Node000004"><a xlink:href="namespaceProtocol.html#a668bdeed219432868fca095e1b2f2667" target="_top" xlink:title="Build a TCP framed buffer (2 bytes length + serialized packet).">
<polygon fill="white" stroke="#666666" points="1525.5,-558 1418.5,-558 1418.5,-539 1525.5,-539 1525.5,-558"/>
<text text-anchor="middle" x="1472" y="-546" font-family="Helvetica,sans-Serif" font-size="10.00">Protocol::frameTcp</text>
</a>
</g>
</g>
<!-- Node3&#45;&gt;Node4 -->
<g id="edge3_Node000003_Node000004" class="edge">
<title>Node3&#45;&gt;Node4</title>
<g id="a_edge3_Node000003_Node000004"><a xlink:title=" ">
<path fill="none" stroke="#63b8ff" d="M1372.71,-537.51C1384.39,-538.82 1396.59,-540.18 1408.27,-541.49"/>
<polygon fill="#63b8ff" stroke="#63b8ff" points="1408.04,-544.98 1418.37,-542.62 1408.82,-538.03 1408.04,-544.98"/>
</a>
</g>
</g>
<!-- Node6 -->
<g id="Node000006" class="node">
<title>Node6</title>
<g id="a_Node000006"><a xlink:href="classTCPServer.html#a79e20e1d2821e399fe47dd1055341d5e" target="_top" xlink:title="Ensure the full buffer is written to the socket.">
<polygon fill="white" stroke="#666666" points="1527,-521 1417,-521 1417,-502 1527,-502 1527,-521"/>
<text text-anchor="middle" x="1472" y="-509" font-family="Helvetica,sans-Serif" font-size="10.00">TCPServer::writeAll</text>
</a>
</g>
</g>
<!-- Node3&#45;&gt;Node6 -->
<g id="edge5_Node000003_Node000006" class="edge">
<title>Node3&#45;&gt;Node6</title>
<g id="a_edge5_Node000003_Node000006"><a xlink:title=" ">
<path fill="none" stroke="#63b8ff" d="M1372.71,-523.1C1383.86,-521.78 1395.5,-520.41 1406.69,-519.09"/>
<polygon fill="#63b8ff" stroke="#63b8ff" points="1407.31,-522.54 1416.83,-517.89 1406.49,-515.59 1407.31,-522.54"/>
</a>
</g>
</g>
<!-- Node5 -->
<g id="Node000005" class="node">
<title>Node5</title>
<g id="a_Node000005"><a xlink:href="classPacket.html#aa88c2d28796644c8a1d6137996502ca8" target="_top" xlink:title="Serialize the packet to a byte buffer ready to send.">
<polygon fill="white" stroke="#666666" points="1665,-558 1570,-558 1570,-539 1665,-539 1665,-558"/>
<text text-anchor="middle" x="1617.5" y="-546" font-family="Helvetica,sans-Serif" font-size="10.00">Packet::serialize</text>
</a>
</g>
</g>
<!-- Node4&#45;&gt;Node5 -->
<g id="edge4_Node000004_Node000005" class="edge">
<title>Node4&#45;&gt;Node5</title>
<g id="a_edge4_Node000004_Node000005"><a xlink:title=" ">
<path fill="none" stroke="#63b8ff" d="M1525.62,-548.5C1536.64,-548.5 1548.32,-548.5 1559.49,-548.5"/>
<polygon fill="#63b8ff" stroke="#63b8ff" points="1559.58,-552 1569.58,-548.5 1559.58,-545 1559.58,-552"/>
</a>
</g>
</g>
<!-- Node7 -->
<g id="Node000007" class="node">
<title>Node7</title>
<g id="a_Node000007"><a xlink:href="classTCPServer.html#a5b1988f8a542c2d39f3d3556264e71b2" target="_top" xlink:title="Write raw bytes to a socket fd.">
<polygon fill="white" stroke="#666666" points="1672,-521 1563,-521 1563,-502 1672,-502 1672,-521"/>
<text text-anchor="middle" x="1617.5" y="-509" font-family="Helvetica,sans-Serif" font-size="10.00">TCPServer::writeFd</text>
</a>
</g>
</g>
<!-- Node6&#45;&gt;Node7 -->
<g id="edge6_Node000006_Node000007" class="edge">
<title>Node6&#45;&gt;Node7</title>
<g id="a_edge6_Node000006_Node000007"><a xlink:title=" ">
<path fill="none" stroke="#63b8ff" d="M1527.25,-511.5C1535.49,-511.5 1544.06,-511.5 1552.48,-511.5"/>
<polygon fill="#63b8ff" stroke="#63b8ff" points="1552.65,-515 1562.65,-511.5 1552.65,-508 1552.65,-515"/>
</a>
</g>
</g>
<!-- Node11&#45;&gt;Node3 -->
<g id="edge29_Node000011_Node000003" class="edge">
<title>Node11&#45;&gt;Node3</title>
<g id="a_edge29_Node000011_Node000003"><a xlink:title=" ">
<path fill="none" stroke="#63b8ff" d="M308.69,-407.13C371.61,-431.28 545.98,-492.5 697,-492.5 697,-492.5 697,-492.5 907,-492.5 1037.97,-492.5 1070.93,-497.17 1201,-512.5 1216.05,-514.27 1232.2,-516.71 1247.28,-519.22"/>
<polygon fill="#63b8ff" stroke="#63b8ff" points="1247.08,-522.73 1257.53,-520.96 1248.25,-515.83 1247.08,-522.73"/>
</a>
</g>
</g>
<!-- Node12 -->
<g id="Node000012" class="node">
<title>Node12</title>
<g id="a_Node000012"><a xlink:href="classTCPServer.html#a84035146c9257be5714850a1f46d0bfb" target="_top" xlink:title="Assign a client to a lobby (public or private).">
<polygon fill="white" stroke="#666666" points="557.5,-275 424.5,-275 424.5,-256 557.5,-256 557.5,-275"/>
<text text-anchor="middle" x="491" y="-263" font-family="Helvetica,sans-Serif" font-size="10.00">TCPServer::assignLobby</text>
</a>
</g>
</g>
<!-- Node11&#45;&gt;Node12 -->
<g id="edge11_Node000011_Node000012" class="edge">
<title>Node11&#45;&gt;Node12</title>
<g id="a_edge11_Node000011_Node000012"><a xlink:title=" ">
<path fill="none" stroke="#63b8ff" d="M299.61,-387.79C335.1,-365 423.99,-307.9 466.56,-280.56"/>
<polygon fill="#63b8ff" stroke="#63b8ff" points="468.62,-283.39 475.14,-275.04 464.84,-277.5 468.62,-283.39"/>
</a>
</g>
</g>
<!-- Node19 -->
<g id="Node000019" class="node">
<title>Node19</title>
<g id="a_Node000019"><a xlink:href="classTCPServer.html#a8d2dcfc8d8337ff577a101c4aee6aac5" target="_top" xlink:title="Resend the player list to all members of a lobby.">
<polygon fill="white" stroke="#666666" points="974,-426 838,-426 838,-407 974,-407 974,-426"/>
<text text-anchor="middle" x="906" y="-414" font-family="Helvetica,sans-Serif" font-size="10.00">TCPServer::refreshLobby</text>
</a>
</g>
</g>
<!-- Node11&#45;&gt;Node19 -->
<g id="edge28_Node000011_Node000019" class="edge">
<title>Node11&#45;&gt;Node19</title>
<g id="a_edge28_Node000011_Node000019"><a xlink:title=" ">
<path fill="none" stroke="#63b8ff" d="M366.58,-400.01C487.08,-403.7 710.27,-410.54 827.88,-414.14"/>
<polygon fill="#63b8ff" stroke="#63b8ff" points="827.78,-417.64 837.89,-414.44 828,-410.64 827.78,-417.64"/>
</a>
</g>
</g>
<!-- Node20 -->
<g id="Node000020" class="node">
<title>Node20</title>
<g id="a_Node000020"><a xlink:href="classTCPServer.html#aa87b20fb76f60c19df36f39ef3621b05" target="_top" xlink:title="Send the current player list to a single client.">
<polygon fill="white" stroke="#666666" points="1186,-464.5 1043,-464.5 1043,-434.5 1186,-434.5 1186,-464.5"/>
<text text-anchor="start" x="1051" y="-452.5" font-family="Helvetica,sans-Serif" font-size="10.00">TCPServer::sendPlayerList</text>
<text text-anchor="middle" x="1114.5" y="-441.5" font-family="Helvetica,sans-Serif" font-size="10.00">ToClient</text>
</a>
</g>
</g>
<!-- Node11&#45;&gt;Node20 -->
<g id="edge30_Node000011_Node000020" class="edge">
<title>Node11&#45;&gt;Node20</title>
<g id="a_edge30_Node000011_Node000020"><a xlink:title=" ">
<path fill="none" stroke="#63b8ff" d="M331.33,-407.03C353.82,-411.24 381.21,-415.83 406,-418.5 632.13,-442.9 900.89,-448.22 1032.59,-449.3"/>
<polygon fill="#63b8ff" stroke="#63b8ff" points="1032.96,-452.8 1042.98,-449.38 1033.01,-445.8 1032.96,-452.8"/>
</a>
</g>
</g>
<!-- Node23 -->
<g id="Node000023" class="node">
<title>Node23</title>
<g id="a_Node000023"><a xlink:href="classTCPServer.html#aee3fb51b52375d68f548f60cc7005ef0" target="_top" xlink:title="Notify all clients of a newly connected player.">
<polygon fill="white" stroke="#666666" points="1201,-540 1028,-540 1028,-521 1201,-521 1201,-540"/>
<text text-anchor="middle" x="1114.5" y="-528" font-family="Helvetica,sans-Serif" font-size="10.00">TCPServer::broadcastNewPlayer</text>
</a>
</g>
</g>
<!-- Node11&#45;&gt;Node23 -->
<g id="edge24_Node000011_Node000023" class="edge">
<title>Node11&#45;&gt;Node23</title>
<g id="a_edge24_Node000011_Node000023"><a xlink:title=" ">
<path fill="none" stroke="#63b8ff" d="M291.35,-407.15C307.95,-429.62 352.9,-485.13 406,-506.5 514.19,-550.03 850.78,-542.21 1017.68,-535.25"/>
<polygon fill="#63b8ff" stroke="#63b8ff" points="1018.09,-538.74 1027.94,-534.82 1017.8,-531.74 1018.09,-538.74"/>
</a>
</g>
</g>
<!-- Node24 -->
<g id="Node000024" class="node">
<title>Node24</title>
<g id="a_Node000024"><a xlink:href="classTCPServer.html#a063b685012f0cd7b069ad82dbffcb95f" target="_top" xlink:title="Generate a random lobby code (6 chars alnum).">
<polygon fill="white" stroke="#666666" points="576,-388 406,-388 406,-369 576,-369 576,-388"/>
<text text-anchor="middle" x="491" y="-376" font-family="Helvetica,sans-Serif" font-size="10.00">TCPServer::generateLobbyCode</text>
</a>
</g>
</g>
<!-- Node11&#45;&gt;Node24 -->
<g id="edge26_Node000011_Node000024" class="edge">
<title>Node11&#45;&gt;Node24</title>
<g id="a_edge26_Node000011_Node000024"><a xlink:title=" ">
<path fill="none" stroke="#63b8ff" d="M366.6,-389.91C376.15,-389.03 385.94,-388.12 395.63,-387.23"/>
<polygon fill="#63b8ff" stroke="#63b8ff" points="396.04,-390.7 405.67,-386.3 395.39,-383.73 396.04,-390.7"/>
</a>
</g>
</g>
<!-- Node25 -->
<g id="Node000025" class="node">
<title>Node25</title>
<g id="a_Node000025"><a xlink:href="classTCPServer.html#ae45d63761257c84a68a96c24541c13e4" target="_top" xlink:title=" ">
<polygon fill="white" stroke="#666666" points="571,-351 411,-351 411,-332 571,-332 571,-351"/>
<text text-anchor="middle" x="491" y="-339" font-family="Helvetica,sans-Serif" font-size="10.00">TCPServer::makeLobbyPacket</text>
</a>
</g>
</g>
<!-- Node11&#45;&gt;Node25 -->
<g id="edge27_Node000011_Node000025" class="edge">
<title>Node11&#45;&gt;Node25</title>
<g id="a_edge27_Node000011_Node000025"><a xlink:title=" ">
<path fill="none" stroke="#63b8ff" d="M312.76,-387.85C337.25,-379.68 373.72,-367.99 406,-359.5 414.38,-357.3 423.29,-355.16 432.05,-353.19"/>
<polygon fill="#63b8ff" stroke="#63b8ff" points="432.84,-356.6 441.84,-351.02 431.33,-349.76 432.84,-356.6"/>
</a>
</g>
</g>
<!-- Node13 -->
<g id="Node000013" class="node">
<title>Node13</title>
<g id="a_Node000013"><a xlink:href="classTCPServer.html#a30203c2836aa52676f3e6205d8730943" target="_top" xlink:title=" ">
<polygon fill="white" stroke="#666666" points="784,-234 612,-234 612,-215 784,-215 784,-234"/>
<text text-anchor="middle" x="698" y="-222" font-family="Helvetica,sans-Serif" font-size="10.00">TCPServer::ensureLobbyProcess</text>
</a>
</g>
</g>
<!-- Node12&#45;&gt;Node13 -->
<g id="edge12_Node000012_Node000013" class="edge">
<title>Node12&#45;&gt;Node13</title>
<g id="a_edge12_Node000012_Node000013"><a xlink:title=" ">
<path fill="none" stroke="#63b8ff" d="M539.55,-255.99C569.32,-250.04 607.89,-242.32 639.39,-236.02"/>
<polygon fill="#63b8ff" stroke="#63b8ff" points="640.24,-239.42 649.36,-234.03 638.86,-232.56 640.24,-239.42"/>
</a>
</g>
</g>
<!-- Node18 -->
<g id="Node000018" class="node">
<title>Node18</title>
<g id="a_Node000018"><a xlink:href="classTCPServer.html#a508cc3d7023b0cfe9abed2e3166b1682" target="_top" xlink:title="Remove a client from its current lobby.">
<polygon fill="white" stroke="#666666" points="780,-321 616,-321 616,-302 780,-302 780,-321"/>
<text text-anchor="middle" x="698" y="-309" font-family="Helvetica,sans-Serif" font-size="10.00">TCPServer::removeFromLobby</text>
</a>
</g>
</g>
<!-- Node12&#45;&gt;Node18 -->
<g id="edge17_Node000012_Node000018" class="edge">
<title>Node12&#45;&gt;Node18</title>
<g id="a_edge17_Node000012_Node000018"><a xlink:title=" ">
<path fill="none" stroke="#63b8ff" d="M534.48,-275.03C566.5,-282.22 610.59,-292.11 644.77,-299.78"/>
<polygon fill="#63b8ff" stroke="#63b8ff" points="644.05,-303.21 654.58,-301.98 645.59,-296.38 644.05,-303.21"/>
</a>
</g>
</g>
<!-- Node22 -->
<g id="Node000022" class="node">
<title>Node22</title>
<g id="a_Node000022"><a xlink:href="classSessionManager.html#a8023cf136e039298b1e2ba5fe7cb224b" target="_top" xlink:title="Store the lobby code for a player.">
<polygon fill="white" stroke="#666666" points="992,-324 820,-324 820,-305 992,-305 992,-324"/>
<text text-anchor="middle" x="906" y="-312" font-family="Helvetica,sans-Serif" font-size="10.00">SessionManager::setLobbyCode</text>
</a>
</g>
</g>
<!-- Node12&#45;&gt;Node22 -->
<g id="edge23_Node000012_Node000022" class="edge">
<title>Node12&#45;&gt;Node22</title>
<g id="a_edge23_Node000012_Node000022"><a xlink:title=" ">
<path fill="none" stroke="#63b8ff" d="M557.71,-269.92C617.02,-274.31 706.57,-281.9 784,-292.5 804.99,-295.37 827.89,-299.32 848.06,-303.09"/>
<polygon fill="#63b8ff" stroke="#63b8ff" points="847.56,-306.55 858.03,-304.97 848.86,-299.67 847.56,-306.55"/>
</a>
</g>
</g>
<!-- Node14 -->
<g id="Node000014" class="node">
<title>Node14</title>
<g id="a_Node000014"><a xlink:href="classChildProcessManager.html#af9be1ce64da7e05952b231b22df221a0" target="_top" xlink:title=" ">
<polygon fill="white" stroke="#666666" points="967,-238.5 845,-238.5 845,-208.5 967,-208.5 967,-238.5"/>
<text text-anchor="start" x="853" y="-226.5" font-family="Helvetica,sans-Serif" font-size="10.00">ChildProcessManager</text>
<text text-anchor="middle" x="906" y="-215.5" font-family="Helvetica,sans-Serif" font-size="10.00">::activeCount</text>
</a>
</g>
</g>
<!-- Node13&#45;&gt;Node14 -->
<g id="edge13_Node000013_Node000014" class="edge">
<title>Node13&#45;&gt;Node14</title>
<g id="a_edge13_Node000013_Node000014"><a xlink:title=" ">
<path fill="none" stroke="#63b8ff" d="M784.28,-224.09C800.98,-224 818.33,-223.92 834.49,-223.84"/>
<polygon fill="#63b8ff" stroke="#63b8ff" points="834.94,-227.34 844.92,-223.79 834.9,-220.34 834.94,-227.34"/>
</a>
</g>
</g>
<!-- Node15 -->
<g id="Node000015" class="node">
<title>Node15</title>
<g id="a_Node000015"><a xlink:href="classTCPServer.html#a25273652d6d80037ec5bcad8725bd269" target="_top" xlink:title=" ">
<polygon fill="white" stroke="#666666" points="971.5,-190 840.5,-190 840.5,-171 971.5,-171 971.5,-190"/>
<text text-anchor="middle" x="906" y="-178" font-family="Helvetica,sans-Serif" font-size="10.00">TCPServer::allocatePort</text>
</a>
</g>
</g>
<!-- Node13&#45;&gt;Node15 -->
<g id="edge14_Node000013_Node000015" class="edge">
<title>Node13&#45;&gt;Node15</title>
<g id="a_edge14_Node000013_Node000015"><a xlink:title=" ">
<path fill="none" stroke="#63b8ff" d="M743.7,-214.95C775.01,-208.26 817.05,-199.29 850.35,-192.17"/>
<polygon fill="#63b8ff" stroke="#63b8ff" points="851.34,-195.54 860.39,-190.03 849.88,-188.69 851.34,-195.54"/>
</a>
</g>
</g>
<!-- Node16 -->
<g id="Node000016" class="node">
<title>Node16</title>
<g id="a_Node000016"><a xlink:href="classChildProcessManager.html#a3b7c34be0f81b8a841d4ecd28a837bf6" target="_top" xlink:title=" ">
<polygon fill="white" stroke="#666666" points="967,-152.5 845,-152.5 845,-122.5 967,-122.5 967,-152.5"/>
<text text-anchor="start" x="853" y="-140.5" font-family="Helvetica,sans-Serif" font-size="10.00">ChildProcessManager</text>
<text text-anchor="middle" x="906" y="-129.5" font-family="Helvetica,sans-Serif" font-size="10.00">::maxCount</text>
</a>
</g>
</g>
<!-- Node13&#45;&gt;Node16 -->
<g id="edge15_Node000013_Node000016" class="edge">
<title>Node13&#45;&gt;Node16</title>
<g id="a_edge15_Node000013_Node000016"><a xlink:title=" ">
<path fill="none" stroke="#63b8ff" d="M763.48,-214.95C770.69,-212.48 777.69,-209.39 784,-205.5 805.51,-192.24 798.87,-175.35 820,-161.5 824.85,-158.32 830.12,-155.56 835.58,-153.16"/>
<polygon fill="#63b8ff" stroke="#63b8ff" points="836.91,-156.4 844.91,-149.45 834.32,-149.89 836.91,-156.4"/>
</a>
</g>
</g>
<!-- Node17 -->
<g id="Node000017" class="node">
<title>Node17</title>
<g id="a_Node000017"><a xlink:href="classChildProcessManager.html#a138e2d098e92a2c6d1ad7b35dadd6541" target="_top" xlink:title="Spawn a UDP game server process.">
<polygon fill="white" stroke="#666666" points="967,-286.5 845,-286.5 845,-256.5 967,-256.5 967,-286.5"/>
<text text-anchor="start" x="853" y="-274.5" font-family="Helvetica,sans-Serif" font-size="10.00">ChildProcessManager</text>
<text text-anchor="middle" x="906" y="-263.5" font-family="Helvetica,sans-Serif" font-size="10.00">::spawn</text>
</a>
</g>
</g>
<!-- Node13&#45;&gt;Node17 -->
<g id="edge16_Node000013_Node000017" class="edge">
<title>Node13&#45;&gt;Node17</title>
<g id="a_edge16_Node000013_Node000017"><a xlink:title=" ">
<path fill="none" stroke="#63b8ff" d="M740.69,-234.01C767.63,-240.16 803.38,-248.31 834.65,-255.45"/>
<polygon fill="#63b8ff" stroke="#63b8ff" points="834.1,-258.91 844.63,-257.73 835.66,-252.09 834.1,-258.91"/>
</a>
</g>
</g>
<!-- Node18&#45;&gt;Node19 -->
<g id="edge18_Node000018_Node000019" class="edge">
<title>Node18&#45;&gt;Node19</title>
<g id="a_edge18_Node000018_Node000019"><a xlink:title=" ">
<path fill="none" stroke="#63b8ff" d="M717.64,-321C754.01,-339.54 834.59,-380.61 877.26,-402.36"/>
<polygon fill="#63b8ff" stroke="#63b8ff" points="875.75,-405.52 886.25,-406.94 878.93,-399.28 875.75,-405.52"/>
</a>
</g>
</g>
<!-- Node18&#45;&gt;Node22 -->
<g id="edge22_Node000018_Node000022" class="edge">
<title>Node18&#45;&gt;Node22</title>
<g id="a_edge22_Node000018_Node000022"><a xlink:title=" ">
<path fill="none" stroke="#63b8ff" d="M780.12,-312.68C789.81,-312.82 799.78,-312.97 809.65,-313.11"/>
<polygon fill="#63b8ff" stroke="#63b8ff" points="809.84,-316.61 819.89,-313.26 809.94,-309.62 809.84,-316.61"/>
</a>
</g>
</g>
<!-- Node19&#45;&gt;Node20 -->
<g id="edge19_Node000019_Node000020" class="edge">
<title>Node19&#45;&gt;Node20</title>
<g id="a_edge19_Node000019_Node000020"><a xlink:title=" ">
<path fill="none" stroke="#63b8ff" d="M966.45,-426C987.12,-429.3 1010.65,-433.06 1032.75,-436.6"/>
<polygon fill="#63b8ff" stroke="#63b8ff" points="1032.35,-440.08 1042.78,-438.2 1033.46,-433.16 1032.35,-440.08"/>
</a>
</g>
</g>
<!-- Node20&#45;&gt;Node3 -->
<g id="edge21_Node000020_Node000003" class="edge">
<title>Node20&#45;&gt;Node3</title>
<g id="a_edge21_Node000020_Node000003"><a xlink:title=" ">
<path fill="none" stroke="#63b8ff" d="M1163.38,-464.56C1175.75,-468.77 1188.97,-473.56 1201,-478.5 1228.83,-489.93 1259.64,-505.19 1281.02,-516.22"/>
<polygon fill="#63b8ff" stroke="#63b8ff" points="1279.65,-519.45 1290.14,-520.96 1282.88,-513.24 1279.65,-519.45"/>
</a>
</g>
</g>
<!-- Node21 -->
<g id="Node000021" class="node">
<title>Node21</title>
<g id="a_Node000021"><a xlink:href="classTCPServer.html#a196ba30f88f890e9acf0ef1a21a74c71" target="_top" xlink:title="Build the packet containing the list of connected players.">
<polygon fill="white" stroke="#666666" points="1381,-464.5 1237,-464.5 1237,-434.5 1381,-434.5 1381,-464.5"/>
<text text-anchor="start" x="1245" y="-452.5" font-family="Helvetica,sans-Serif" font-size="10.00">TCPServer::buildPlayerList</text>
<text text-anchor="middle" x="1309" y="-441.5" font-family="Helvetica,sans-Serif" font-size="10.00">Packet</text>
</a>
</g>
</g>
<!-- Node20&#45;&gt;Node21 -->
<g id="edge20_Node000020_Node000021" class="edge">
<title>Node20&#45;&gt;Node21</title>
<g id="a_edge20_Node000020_Node000021"><a xlink:title=" ">
<path fill="none" stroke="#63b8ff" d="M1186.09,-449.5C1199.25,-449.5 1213.11,-449.5 1226.58,-449.5"/>
<polygon fill="#63b8ff" stroke="#63b8ff" points="1226.78,-453 1236.78,-449.5 1226.78,-446 1226.78,-453"/>
</a>
</g>
</g>
<!-- Node23&#45;&gt;Node3 -->
<g id="edge25_Node000023_Node000003" class="edge">
<title>Node23&#45;&gt;Node3</title>
<g id="a_edge25_Node000023_Node000003"><a xlink:title=" ">
<path fill="none" stroke="#63b8ff" d="M1201.05,-530.5C1212.43,-530.5 1224.01,-530.5 1235.15,-530.5"/>
<polygon fill="#63b8ff" stroke="#63b8ff" points="1235.23,-534 1245.23,-530.5 1235.23,-527 1235.23,-534"/>
</a>
</g>
</g>
<!-- Node29 -->
<g id="Node000029" class="node">
<title>Node29</title>
<g id="a_Node000029"><a xlink:href="namespaceProtocol.html#ad768525ca5f0324a5f414440e67679b6" target="_top" xlink:title="Append newly read bytes then attempt extraction.">
<polygon fill="white" stroke="#666666" points="559.5,-95 422.5,-95 422.5,-76 559.5,-76 559.5,-95"/>
<text text-anchor="middle" x="491" y="-83" font-family="Helvetica,sans-Serif" font-size="10.00">Protocol::consumeChunk</text>
</a>
</g>
</g>
<!-- Node28&#45;&gt;Node29 -->
<g id="edge34_Node000028_Node000029" class="edge">
<title>Node28&#45;&gt;Node29</title>
<g id="a_edge34_Node000028_Node000029"><a xlink:title=" ">
<path fill="none" stroke="#63b8ff" d="M353.5,-84.17C372.28,-84.35 392.75,-84.55 411.99,-84.74"/>
<polygon fill="#63b8ff" stroke="#63b8ff" points="412.2,-88.24 422.23,-84.84 412.26,-81.24 412.2,-88.24"/>
</a>
</g>
</g>
<!-- Node32 -->
<g id="Node000032" class="node">
<title>Node32</title>
<g id="a_Node000032"><a xlink:href="classTCPServer.html#a00011973e407cab03dde7c74a4c65949" target="_top" xlink:title="Read raw bytes from a socket fd.">
<polygon fill="white" stroke="#666666" points="544,-58 438,-58 438,-39 544,-39 544,-58"/>
<text text-anchor="middle" x="491" y="-46" font-family="Helvetica,sans-Serif" font-size="10.00">TCPServer::readFd</text>
</a>
</g>
</g>
<!-- Node28&#45;&gt;Node32 -->
<g id="edge37_Node000028_Node000032" class="edge">
<title>Node28&#45;&gt;Node32</title>
<g id="a_edge37_Node000028_Node000032"><a xlink:title=" ">
<path fill="none" stroke="#63b8ff" d="M340.38,-73.98C367.37,-69.39 399.86,-63.85 427.65,-59.12"/>
<polygon fill="#63b8ff" stroke="#63b8ff" points="428.39,-62.54 437.66,-57.41 427.22,-55.64 428.39,-62.54"/>
</a>
</g>
</g>
<!-- Node30 -->
<g id="Node000030" class="node">
<title>Node30</title>
<g id="a_Node000030"><a xlink:href="namespaceProtocol.html#a10005c44787f8de2a0e42d395aff8baa" target="_top" xlink:title="Try to extract a complete packet from an accumulated stream buffer.">
<polygon fill="white" stroke="#666666" points="773.5,-95 622.5,-95 622.5,-76 773.5,-76 773.5,-95"/>
<text text-anchor="middle" x="698" y="-83" font-family="Helvetica,sans-Serif" font-size="10.00">Protocol::extractFromBuffer</text>
</a>
</g>
</g>
<!-- Node29&#45;&gt;Node30 -->
<g id="edge35_Node000029_Node000030" class="edge">
<title>Node29&#45;&gt;Node30</title>
<g id="a_edge35_Node000029_Node000030"><a xlink:title=" ">
<path fill="none" stroke="#63b8ff" d="M559.69,-85.5C576.46,-85.5 594.64,-85.5 612.11,-85.5"/>
<polygon fill="#63b8ff" stroke="#63b8ff" points="612.31,-89 622.31,-85.5 612.31,-82 612.31,-89"/>
</a>
</g>
</g>
<!-- Node31 -->
<g id="Node000031" class="node">
<title>Node31</title>
<g id="a_Node000031"><a xlink:href="classPacket.html#abfcd427a2ca434ac71592334517638fb" target="_top" xlink:title="Deserialize a packet from a raw byte buffer.">
<polygon fill="white" stroke="#666666" points="959.5,-95 852.5,-95 852.5,-76 959.5,-76 959.5,-95"/>
<text text-anchor="middle" x="906" y="-83" font-family="Helvetica,sans-Serif" font-size="10.00">Packet::deserialize</text>
</a>
</g>
</g>
<!-- Node30&#45;&gt;Node31 -->
<g id="edge36_Node000030_Node000031" class="edge">
<title>Node30&#45;&gt;Node31</title>
<g id="a_edge36_Node000030_Node000031"><a xlink:title=" ">
<path fill="none" stroke="#63b8ff" d="M773.66,-85.5C796.13,-85.5 820.54,-85.5 842.16,-85.5"/>
<polygon fill="#63b8ff" stroke="#63b8ff" points="842.2,-89 852.2,-85.5 842.2,-82 842.2,-89"/>
</a>
</g>
</g>
<!-- Node33&#45;&gt;Node18 -->
<g id="edge42_Node000033_Node000018" class="edge">
<title>Node33&#45;&gt;Node18</title>
<g id="a_edge42_Node000033_Node000018"><a xlink:title=" ">
<path fill="none" stroke="#63b8ff" d="M346.26,-306.4C414.98,-307.4 526.71,-309.02 605.58,-310.17"/>
<polygon fill="#63b8ff" stroke="#63b8ff" points="605.94,-313.68 615.99,-310.32 606.04,-306.68 605.94,-313.68"/>
</a>
</g>
</g>
<!-- Node34 -->
<g id="Node000034" class="node">
<title>Node34</title>
<g id="a_Node000034"><a xlink:href="classTCPServer.html#aa6089a11e438f73bfc614c44f86e5d75" target="_top" xlink:title="Close and invalidate a file descriptor.">
<polygon fill="white" stroke="#666666" points="546,-197 436,-197 436,-178 546,-178 546,-197"/>
<text text-anchor="middle" x="491" y="-185" font-family="Helvetica,sans-Serif" font-size="10.00">TCPServer::closeFd</text>
</a>
</g>
</g>
<!-- Node33&#45;&gt;Node34 -->
<g id="edge39_Node000033_Node000034" class="edge">
<title>Node33&#45;&gt;Node34</title>
<g id="a_edge39_Node000033_Node000034"><a xlink:title=" ">
<path fill="none" stroke="#63b8ff" d="M346.04,-299.04C354.69,-296.15 363,-292.11 370,-286.5 399.47,-262.86 376.98,-233.69 406,-209.5 412.03,-204.48 419.07,-200.59 426.47,-197.58"/>
<polygon fill="#63b8ff" stroke="#63b8ff" points="427.73,-200.85 435.99,-194.22 425.4,-194.25 427.73,-200.85"/>
</a>
</g>
</g>
<!-- Node36 -->
<g id="Node000036" class="node">
<title>Node36</title>
<g id="a_Node000036"><a xlink:href="classSessionManager.html#a8916c4ee701635dd8b2ee525331efb0b" target="_top" xlink:title="Remove a session by player id.">
<polygon fill="white" stroke="#666666" points="572,-238 410,-238 410,-219 572,-219 572,-238"/>
<text text-anchor="middle" x="491" y="-226" font-family="Helvetica,sans-Serif" font-size="10.00">SessionManager::removeById</text>
</a>
</g>
</g>
<!-- Node33&#45;&gt;Node36 -->
<g id="edge41_Node000033_Node000036" class="edge">
<title>Node33&#45;&gt;Node36</title>
<g id="a_edge41_Node000033_Node000036"><a xlink:title=" ">
<path fill="none" stroke="#63b8ff" d="M346.05,-296.69C354.42,-294.12 362.65,-290.79 370,-286.5 390.66,-274.44 385.3,-258.48 406,-246.5 409.06,-244.73 412.28,-243.13 415.59,-241.69"/>
<polygon fill="#63b8ff" stroke="#63b8ff" points="417.06,-244.87 425.15,-238.03 414.56,-238.34 417.06,-244.87"/>
</a>
</g>
</g>
<!-- Node35 -->
<g id="Node000035" class="node">
<title>Node35</title>
<g id="a_Node000035"><a xlink:href="classTCPServer.html#a2595c03eed6bf37e098e619e6751a3d4" target="_top" xlink:title="Close a raw fd without resetting the caller&#39;s variable.">
<polygon fill="white" stroke="#666666" points="763.5,-197 632.5,-197 632.5,-178 763.5,-178 763.5,-197"/>
<text text-anchor="middle" x="698" y="-185" font-family="Helvetica,sans-Serif" font-size="10.00">TCPServer::closeFdRaw</text>
</a>
</g>
</g>
<!-- Node34&#45;&gt;Node35 -->
<g id="edge40_Node000034_Node000035" class="edge">
<title>Node34&#45;&gt;Node35</title>
<g id="a_edge40_Node000034_Node000035"><a xlink:title=" ">
<path fill="none" stroke="#63b8ff" d="M546.13,-187.5C569.38,-187.5 596.94,-187.5 622.1,-187.5"/>
<polygon fill="#63b8ff" stroke="#63b8ff" points="622.34,-191 632.34,-187.5 622.34,-184 622.34,-191"/>
</a>
</g>
</g>
</g>
</svg>
