<?xml version="1.0" encoding="UTF-8" standalone="no"?>
<!DOCTYPE svg PUBLIC "-//W3C//DTD SVG 1.1//EN"
 "http://www.w3.org/Graphics/SVG/1.1/DTD/svg11.dtd">
<!-- Generated by graphviz version 2.43.0 (0)
 -->
<!-- Title: UDPGameServer::broadcastSnapshot Pages: 1 -->
<svg width="538pt" height="76pt"
 viewBox="0.00 0.00 538.00 75.50" xmlns="http://www.w3.org/2000/svg" xmlns:xlink="http://www.w3.org/1999/xlink">
<g id="graph0" class="graph" transform="scale(1 1) rotate(0) translate(4 71.5)">
<title>UDPGameServer::broadcastSnapshot</title>
<!-- Node1 -->
<g id="Node000001" class="node">
<title>Node1</title>
<g id="a_Node000001"><a xlink:title="Broadcast the current snapshot to all connected players.">
<polygon fill="#999999" stroke="#666666" points="152,-51 0,-51 0,-21 152,-21 152,-51"/>
<text text-anchor="start" x="8" y="-39" font-family="Helvetica,sans-Serif" font-size="10.00">UDPGameServer::broadcast</text>
<text text-anchor="middle" x="76" y="-28" font-family="Helvetica,sans-Serif" font-size="10.00">Snapshot</text>
</a>
</g>
</g>
<!-- Node2 -->
<g id="Node000002" class="node">
<title>Node2</title>
<g id="a_Node000002"><a xlink:href="classUDPGameServer.html#a602889e958a3ff926bb8de325c982a62" target="_top" xlink:title="Send a packet to a single endpoint.">
<polygon fill="white" stroke="#666666" points="358,-45.5 188,-45.5 188,-26.5 358,-26.5 358,-45.5"/>
<text text-anchor="middle" x="273" y="-33.5" font-family="Helvetica,sans-Serif" font-size="10.00">UDPGameServer::sendPacketTo</text>
</a>
</g>
</g>
<!-- Node1&#45;&gt;Node2 -->
<g id="edge1_Node000001_Node000002" class="edge">
<title>Node1&#45;&gt;Node2</title>
<g id="a_edge1_Node000001_Node000002"><a xlink:title=" ">
<path fill="none" stroke="#63b8ff" d="M152.11,-36C160.52,-36 169.16,-36 177.76,-36"/>
<polygon fill="#63b8ff" stroke="#63b8ff" points="177.84,-39.5 187.84,-36 177.84,-32.5 177.84,-39.5"/>
</a>
</g>
</g>
<!-- Node3 -->
<g id="Node000003" class="node">
<title>Node3</title>
<g id="a_Node000003"><a xlink:href="classPacket.html#aa88c2d28796644c8a1d6137996502ca8" target="_top" xlink:title="Serialize the packet to a byte buffer ready to send.">
<polygon fill="white" stroke="#666666" points="509.5,-67.5 414.5,-67.5 414.5,-48.5 509.5,-48.5 509.5,-67.5"/>
<text text-anchor="middle" x="462" y="-55.5" font-family="Helvetica,sans-Serif" font-size="10.00">Packet::serialize</text>
</a>
</g>
</g>
<!-- Node2&#45;&gt;Node3 -->
<g id="edge2_Node000002_Node000003" class="edge">
<title>Node2&#45;&gt;Node3</title>
<g id="a_edge2_Node000002_Node000003"><a xlink:title=" ">
<path fill="none" stroke="#63b8ff" d="M354.93,-45.52C371.61,-47.48 388.84,-49.51 404.43,-51.34"/>
<polygon fill="#63b8ff" stroke="#63b8ff" points="404.08,-54.83 414.42,-52.52 404.89,-47.88 404.08,-54.83"/>
</a>
</g>
</g>
<!-- Node4 -->
<g id="Node000004" class="node">
<title>Node4</title>
<g id="a_Node000004"><a xlink:href="classNetwork_1_1TransportLayer_1_1UDPSocket.html#a887cf24e71c890759f907c074f5b3505" target="_top" xlink:title="Write bytes to the UDP socket.">
<polygon fill="white" stroke="#666666" points="530,-30 394,-30 394,0 530,0 530,-30"/>
<text text-anchor="start" x="402" y="-18" font-family="Helvetica,sans-Serif" font-size="10.00">Network::TransportLayer</text>
<text text-anchor="middle" x="462" y="-7" font-family="Helvetica,sans-Serif" font-size="10.00">::UDPSocket::writeByte</text>
</a>
</g>
</g>
<!-- Node2&#45;&gt;Node4 -->
<g id="edge3_Node000002_Node000004" class="edge">
<title>Node2&#45;&gt;Node4</title>
<g id="a_edge3_Node000002_Node000004"><a xlink:title=" ">
<path fill="none" stroke="#63b8ff" d="M358.2,-26.54C366.68,-25.59 375.26,-24.63 383.66,-23.69"/>
<polygon fill="#63b8ff" stroke="#63b8ff" points="384.25,-27.14 393.8,-22.55 383.47,-20.18 384.25,-27.14"/>
</a>
</g>
</g>
</g>
</svg>
