<?xml version="1.0" encoding="UTF-8" standalone="no"?>
<!DOCTYPE svg PUBLIC "-//W3C//DTD SVG 1.1//EN"
 "http://www.w3.org/Graphics/SVG/1.1/DTD/svg11.dtd">
<!-- Generated by graphviz version 2.43.0 (0)
 -->
<!-- Title: GameState::listPlayers Pages: 1 -->
<svg width="732pt" height="136pt"
 viewBox="0.00 0.00 732.00 136.00" xmlns="http://www.w3.org/2000/svg" xmlns:xlink="http://www.w3.org/1999/xlink">
<g id="graph0" class="graph" transform="scale(1 1) rotate(0) translate(4 132)">
<title>GameState::listPlayers</title>
<!-- Node1 -->
<g id="Node000001" class="node">
<title>Node1</title>
<g id="a_Node000001"><a xlink:title="Return a snapshot list of current players.">
<polygon fill="#999999" stroke="#666666" points="724,-77 596,-77 596,-58 724,-58 724,-77"/>
<text text-anchor="middle" x="660" y="-65" font-family="Helvetica,sans-Serif" font-size="10.00">GameState::listPlayers</text>
</a>
</g>
</g>
<!-- Node2 -->
<g id="Node000002" class="node">
<title>Node2</title>
<g id="a_Node000002"><a xlink:href="classGraphicClient.html#a4b416d0d2b3f07134ce30afb0c60adbe" target="_top" xlink:title="Initializes the client (connects to server, shows menus).">
<polygon fill="white" stroke="#666666" points="339,-128 235,-128 235,-109 339,-109 339,-128"/>
<text text-anchor="middle" x="287" y="-116" font-family="Helvetica,sans-Serif" font-size="10.00">GraphicClient::init</text>
</a>
</g>
</g>
<!-- Node1&#45;&gt;Node2 -->
<g id="edge1_Node000001_Node000002" class="edge">
<title>Node1&#45;&gt;Node2</title>
<g id="a_edge1_Node000001_Node000002"><a xlink:title=" ">
<path fill="none" stroke="#63b8ff" d="M634.84,-82.21C615.41,-93.18 586.98,-107.28 560,-113.5 484.64,-130.88 394.4,-128.07 339.15,-123.79"/>
<polygon fill="#63b8ff" stroke="#63b8ff" points="636.72,-85.17 643.62,-77.13 633.21,-79.12 636.72,-85.17"/>
</a>
</g>
</g>
<!-- Node5 -->
<g id="Node000005" class="node">
<title>Node5</title>
<g id="a_Node000005"><a xlink:href="classGraphicClient.html#a1fa2cfd0c71b32b0b1f0e0675a2e1cb2" target="_top" xlink:title="Processes network events and updates game state.">
<polygon fill="white" stroke="#666666" points="560,-104.5 393,-104.5 393,-74.5 560,-74.5 560,-104.5"/>
<text text-anchor="start" x="401" y="-92.5" font-family="Helvetica,sans-Serif" font-size="10.00">GraphicClient::processNetwork</text>
<text text-anchor="middle" x="476.5" y="-81.5" font-family="Helvetica,sans-Serif" font-size="10.00">Events</text>
</a>
</g>
</g>
<!-- Node1&#45;&gt;Node5 -->
<g id="edge4_Node000001_Node000005" class="edge">
<title>Node1&#45;&gt;Node5</title>
<g id="a_edge4_Node000001_Node000005"><a xlink:title=" ">
<path fill="none" stroke="#63b8ff" d="M585.7,-76.39C577.33,-77.4 568.77,-78.44 560.29,-79.46"/>
<polygon fill="#63b8ff" stroke="#63b8ff" points="586.27,-79.84 595.77,-75.16 585.43,-72.89 586.27,-79.84"/>
</a>
</g>
</g>
<!-- Node7 -->
<g id="Node000007" class="node">
<title>Node7</title>
<g id="a_Node000007"><a xlink:href="classGraphicClient.html#ab0acd8f5b8996cc62295831d7af1cf59" target="_top" xlink:title="Renders the entire game scene.">
<polygon fill="white" stroke="#666666" points="536.5,-56 416.5,-56 416.5,-37 536.5,-37 536.5,-56"/>
<text text-anchor="middle" x="476.5" y="-44" font-family="Helvetica,sans-Serif" font-size="10.00">GraphicClient::render</text>
</a>
</g>
</g>
<!-- Node1&#45;&gt;Node7 -->
<g id="edge7_Node000001_Node000007" class="edge">
<title>Node1&#45;&gt;Node7</title>
<g id="a_edge7_Node000001_Node000007"><a xlink:title=" ">
<path fill="none" stroke="#63b8ff" d="M585.72,-59.02C569.37,-57.13 552.23,-55.15 536.54,-53.33"/>
<polygon fill="#63b8ff" stroke="#63b8ff" points="585.44,-62.51 595.77,-60.18 586.24,-55.56 585.44,-62.51"/>
</a>
</g>
</g>
<!-- Node8 -->
<g id="Node000008" class="node">
<title>Node8</title>
<g id="a_Node000008"><a xlink:href="classGraphicClient.html#a50072266faf2e76ace99e16c4c7b208a" target="_top" xlink:title="Updates all game entities based on delta time.">
<polygon fill="white" stroke="#666666" points="556,-19 397,-19 397,0 556,0 556,-19"/>
<text text-anchor="middle" x="476.5" y="-7" font-family="Helvetica,sans-Serif" font-size="10.00">GraphicClient::updateEntities</text>
</a>
</g>
</g>
<!-- Node1&#45;&gt;Node8 -->
<g id="edge9_Node000001_Node000008" class="edge">
<title>Node1&#45;&gt;Node8</title>
<g id="a_edge9_Node000001_Node000008"><a xlink:title=" ">
<path fill="none" stroke="#63b8ff" d="M628.91,-53.79C609.53,-45.36 583.64,-34.8 560,-27.5 549.63,-24.3 538.37,-21.45 527.59,-19.01"/>
<polygon fill="#63b8ff" stroke="#63b8ff" points="627.57,-57.03 638.13,-57.86 630.4,-50.62 627.57,-57.03"/>
</a>
</g>
</g>
<!-- Node3 -->
<g id="Node000003" class="node">
<title>Node3</title>
<g id="a_Node000003"><a xlink:href="classGraphicClient.html#ad39a5f1d7ec30752f8d412d6925ef109" target="_top" xlink:title="Main application loop.">
<polygon fill="white" stroke="#666666" points="181,-95 77,-95 77,-76 181,-76 181,-95"/>
<text text-anchor="middle" x="129" y="-83" font-family="Helvetica,sans-Serif" font-size="10.00">GraphicClient::run</text>
</a>
</g>
</g>
<!-- Node2&#45;&gt;Node3 -->
<g id="edge2_Node000002_Node000003" class="edge">
<title>Node2&#45;&gt;Node3</title>
<g id="a_edge2_Node000002_Node000003"><a xlink:title=" ">
<path fill="none" stroke="#63b8ff" d="M230.93,-106.85C212.63,-102.98 192.47,-98.72 175.02,-95.02"/>
<polygon fill="#63b8ff" stroke="#63b8ff" points="230.37,-110.31 240.88,-108.96 231.82,-103.46 230.37,-110.31"/>
</a>
</g>
</g>
<!-- Node4 -->
<g id="Node000004" class="node">
<title>Node4</title>
<g id="a_Node000004"><a xlink:href="client_8cpp.html#ae66f6b31b5ad750f1fe042a706a4e3d4" target="_top" xlink:title=" ">
<polygon fill="white" stroke="#666666" points="41,-95 0,-95 0,-76 41,-76 41,-95"/>
<text text-anchor="middle" x="20.5" y="-83" font-family="Helvetica,sans-Serif" font-size="10.00">main</text>
</a>
</g>
</g>
<!-- Node3&#45;&gt;Node4 -->
<g id="edge3_Node000003_Node000004" class="edge">
<title>Node3&#45;&gt;Node4</title>
<g id="a_edge3_Node000003_Node000004"><a xlink:title=" ">
<path fill="none" stroke="#63b8ff" d="M66.83,-85.5C57.58,-85.5 48.66,-85.5 41.22,-85.5"/>
<polygon fill="#63b8ff" stroke="#63b8ff" points="66.93,-89 76.93,-85.5 66.93,-82 66.93,-89"/>
</a>
</g>
</g>
<!-- Node6 -->
<g id="Node000006" class="node">
<title>Node6</title>
<g id="a_Node000006"><a xlink:href="classGraphicClient.html#a5cb5c37142e62f04824cc6e21dd199b2" target="_top" xlink:title="Main game loop iteration.">
<polygon fill="white" stroke="#666666" points="357,-77 217,-77 217,-58 357,-58 357,-77"/>
<text text-anchor="middle" x="287" y="-65" font-family="Helvetica,sans-Serif" font-size="10.00">GraphicClient::gameLoop</text>
</a>
</g>
</g>
<!-- Node5&#45;&gt;Node6 -->
<g id="edge5_Node000005_Node000006" class="edge">
<title>Node5&#45;&gt;Node6</title>
<g id="a_edge5_Node000005_Node000006"><a xlink:title=" ">
<path fill="none" stroke="#63b8ff" d="M382.83,-78.63C374.16,-77.61 365.48,-76.59 357.08,-75.61"/>
<polygon fill="#63b8ff" stroke="#63b8ff" points="382.65,-82.13 392.99,-79.82 383.46,-75.18 382.65,-82.13"/>
</a>
</g>
</g>
<!-- Node6&#45;&gt;Node3 -->
<g id="edge6_Node000006_Node000003" class="edge">
<title>Node6&#45;&gt;Node3</title>
<g id="a_edge6_Node000006_Node000003"><a xlink:title=" ">
<path fill="none" stroke="#63b8ff" d="M206.6,-76.66C198.02,-77.65 189.46,-78.64 181.33,-79.58"/>
<polygon fill="#63b8ff" stroke="#63b8ff" points="207.13,-80.12 216.67,-75.5 206.33,-73.17 207.13,-80.12"/>
</a>
</g>
</g>
<!-- Node7&#45;&gt;Node6 -->
<g id="edge8_Node000007_Node000006" class="edge">
<title>Node7&#45;&gt;Node6</title>
<g id="a_edge8_Node000007_Node000006"><a xlink:title=" ">
<path fill="none" stroke="#63b8ff" d="M406.12,-54.27C390.17,-56.06 373.21,-57.96 357.26,-59.74"/>
<polygon fill="#63b8ff" stroke="#63b8ff" points="406.88,-57.71 416.43,-53.12 406.1,-50.75 406.88,-57.71"/>
</a>
</g>
</g>
<!-- Node8&#45;&gt;Node6 -->
<g id="edge10_Node000008_Node000006" class="edge">
<title>Node8&#45;&gt;Node6</title>
<g id="a_edge10_Node000008_Node000006"><a xlink:title=" ">
<path fill="none" stroke="#63b8ff" d="M416.07,-21.35C408.27,-23.23 400.41,-25.29 393,-27.5 363.83,-36.18 331.22,-49.14 310.2,-57.93"/>
<polygon fill="#63b8ff" stroke="#63b8ff" points="416.95,-24.74 425.9,-19.06 415.36,-17.92 416.95,-24.74"/>
</a>
</g>
</g>
</g>
</svg>
