<?xml version="1.0" encoding="UTF-8" standalone="no"?>
<!DOCTYPE svg PUBLIC "-//W3C//DTD SVG 1.1//EN"
 "http://www.w3.org/Graphics/SVG/1.1/DTD/svg11.dtd">
<!-- Generated by graphviz version 2.43.0 (0)
 -->
<!-- Title: UDPGameServer::logPrefix Pages: 1 -->
<svg width="815pt" height="140pt"
 viewBox="0.00 0.00 815.00 140.00" xmlns="http://www.w3.org/2000/svg" xmlns:xlink="http://www.w3.org/1999/xlink">
<g id="graph0" class="graph" transform="scale(1 1) rotate(0) translate(4 136)">
<title>UDPGameServer::logPrefix</title>
<!-- Node1 -->
<g id="Node000001" class="node">
<title>Node1</title>
<g id="a_Node000001"><a xlink:title=" ">
<polygon fill="#999999" stroke="#666666" points="807,-76 660,-76 660,-57 807,-57 807,-76"/>
<text text-anchor="middle" x="733.5" y="-64" font-family="Helvetica,sans-Serif" font-size="10.00">UDPGameServer::logPrefix</text>
</a>
</g>
</g>
<!-- Node2 -->
<g id="Node000002" class="node">
<title>Node2</title>
<g id="a_Node000002"><a xlink:href="classUDPGameServer.html#a367b917d572ad28819003841b3be180c" target="_top" xlink:title="Register a new player on receipt of a hello message.">
<polygon fill="white" stroke="#666666" points="612.5,-132 449.5,-132 449.5,-113 612.5,-113 612.5,-132"/>
<text text-anchor="middle" x="531" y="-120" font-family="Helvetica,sans-Serif" font-size="10.00">UDPGameServer::handleHello</text>
</a>
</g>
</g>
<!-- Node1&#45;&gt;Node2 -->
<g id="edge1_Node000001_Node000002" class="edge">
<title>Node1&#45;&gt;Node2</title>
<g id="a_edge1_Node000001_Node000002"><a xlink:title=" ">
<path fill="none" stroke="#63b8ff" d="M698.73,-79.74C677.51,-87.7 649.44,-97.59 624,-104.5 612.38,-107.65 599.79,-110.49 587.76,-112.93"/>
<polygon fill="#63b8ff" stroke="#63b8ff" points="700.15,-82.94 708.25,-76.12 697.66,-76.4 700.15,-82.94"/>
</a>
</g>
</g>
<!-- Node6 -->
<g id="Node000006" class="node">
<title>Node6</title>
<g id="a_Node000006"><a xlink:href="classUDPGameServer.html#abe9913c5eaa12c361bdcc9ce68bdc835" target="_top" xlink:title="Update player inputs (movement/direction).">
<polygon fill="white" stroke="#666666" points="612,-95 450,-95 450,-76 612,-76 612,-95"/>
<text text-anchor="middle" x="531" y="-83" font-family="Helvetica,sans-Serif" font-size="10.00">UDPGameServer::handleInput</text>
</a>
</g>
</g>
<!-- Node1&#45;&gt;Node6 -->
<g id="edge5_Node000001_Node000006" class="edge">
<title>Node1&#45;&gt;Node6</title>
<g id="a_edge5_Node000001_Node000006"><a xlink:title=" ">
<path fill="none" stroke="#63b8ff" d="M649.56,-74.36C637.22,-75.53 624.51,-76.73 612.22,-77.9"/>
<polygon fill="#63b8ff" stroke="#63b8ff" points="650.21,-77.81 659.83,-73.39 649.55,-70.85 650.21,-77.81"/>
</a>
</g>
</g>
<!-- Node7 -->
<g id="Node000007" class="node">
<title>Node7</title>
<g id="a_Node000007"><a xlink:href="classUDPGameServer.html#a7f3a37004641222f4d30d55614f05029" target="_top" xlink:title="Thread loop to read incoming UDP packets without blocking the simulation tick.">
<polygon fill="white" stroke="#666666" points="401,-58 234,-58 234,-39 401,-39 401,-58"/>
<text text-anchor="middle" x="317.5" y="-46" font-family="Helvetica,sans-Serif" font-size="10.00">UDPGameServer::networkLoop</text>
</a>
</g>
</g>
<!-- Node1&#45;&gt;Node7 -->
<g id="edge7_Node000001_Node000007" class="edge">
<title>Node1&#45;&gt;Node7</title>
<g id="a_edge7_Node000001_Node000007"><a xlink:title=" ">
<path fill="none" stroke="#63b8ff" d="M649.51,-62.89C577.37,-59.76 473.42,-55.24 401.33,-52.1"/>
<polygon fill="#63b8ff" stroke="#63b8ff" points="649.77,-66.41 659.91,-63.34 650.07,-59.41 649.77,-66.41"/>
</a>
</g>
</g>
<!-- Node8 -->
<g id="Node000008" class="node">
<title>Node8</title>
<g id="a_Node000008"><a xlink:href="classUDPGameServer.html#a0272e620fa267e7a2043b5729d24cfbc" target="_top" xlink:title=" ">
<polygon fill="white" stroke="#666666" points="624,-19 438,-19 438,0 624,0 624,-19"/>
<text text-anchor="middle" x="531" y="-7" font-family="Helvetica,sans-Serif" font-size="10.00">UDPGameServer::UDPGameServer</text>
</a>
</g>
</g>
<!-- Node1&#45;&gt;Node8 -->
<g id="edge9_Node000001_Node000008" class="edge">
<title>Node1&#45;&gt;Node8</title>
<g id="a_edge9_Node000001_Node000008"><a xlink:title=" ">
<path fill="none" stroke="#63b8ff" d="M692.58,-53.94C672.13,-47.61 646.8,-39.94 624,-33.5 606.37,-28.52 586.73,-23.35 570.14,-19.08"/>
<polygon fill="#63b8ff" stroke="#63b8ff" points="691.61,-57.3 702.2,-56.93 693.68,-50.62 691.61,-57.3"/>
</a>
</g>
</g>
<!-- Node3 -->
<g id="Node000003" class="node">
<title>Node3</title>
<g id="a_Node000003"><a xlink:href="classUDPGameServer.html#a9d28a7f4a0c75aba168ea6a58633d1bb" target="_top" xlink:title="Route an incoming packet to the appropriate handler.">
<polygon fill="white" stroke="#666666" points="402,-95 233,-95 233,-76 402,-76 402,-95"/>
<text text-anchor="middle" x="317.5" y="-83" font-family="Helvetica,sans-Serif" font-size="10.00">UDPGameServer::handlePacket</text>
</a>
</g>
</g>
<!-- Node2&#45;&gt;Node3 -->
<g id="edge2_Node000002_Node000003" class="edge">
<title>Node2&#45;&gt;Node3</title>
<g id="a_edge2_Node000002_Node000003"><a xlink:title=" ">
<path fill="none" stroke="#63b8ff" d="M465.33,-111.19C435.85,-106.03 401.31,-99.99 373.15,-95.06"/>
<polygon fill="#63b8ff" stroke="#63b8ff" points="465.08,-114.7 475.53,-112.97 466.29,-107.8 465.08,-114.7"/>
</a>
</g>
</g>
<!-- Node4 -->
<g id="Node000004" class="node">
<title>Node4</title>
<g id="a_Node000004"><a xlink:href="classUDPGameServer.html#a476a4f2e8bb0833c788761298eb4a72b" target="_top" xlink:title="Start the main server loop (blocking).">
<polygon fill="white" stroke="#666666" points="197,-76 77,-76 77,-57 197,-57 197,-76"/>
<text text-anchor="middle" x="137" y="-64" font-family="Helvetica,sans-Serif" font-size="10.00">UDPGameServer::run</text>
</a>
</g>
</g>
<!-- Node3&#45;&gt;Node4 -->
<g id="edge3_Node000003_Node000004" class="edge">
<title>Node3&#45;&gt;Node4</title>
<g id="a_edge3_Node000003_Node000004"><a xlink:title=" ">
<path fill="none" stroke="#63b8ff" d="M223.01,-75.55C214.17,-74.61 205.38,-73.67 197,-72.78"/>
<polygon fill="#63b8ff" stroke="#63b8ff" points="222.68,-79.03 233,-76.61 223.43,-72.07 222.68,-79.03"/>
</a>
</g>
</g>
<!-- Node5 -->
<g id="Node000005" class="node">
<title>Node5</title>
<g id="a_Node000005"><a xlink:href="game_8cpp.html#a3c04138a5bfe5d72780bb7e82a18e627" target="_top" xlink:title=" ">
<polygon fill="white" stroke="#666666" points="41,-76 0,-76 0,-57 41,-57 41,-76"/>
<text text-anchor="middle" x="20.5" y="-64" font-family="Helvetica,sans-Serif" font-size="10.00">main</text>
</a>
</g>
</g>
<!-- Node4&#45;&gt;Node5 -->
<g id="edge4_Node000004_Node000005" class="edge">
<title>Node4&#45;&gt;Node5</title>
<g id="a_edge4_Node000004_Node000005"><a xlink:title=" ">
<path fill="none" stroke="#63b8ff" d="M66.55,-66.5C57.28,-66.5 48.46,-66.5 41.12,-66.5"/>
<polygon fill="#63b8ff" stroke="#63b8ff" points="66.74,-70 76.74,-66.5 66.74,-63 66.74,-70"/>
</a>
</g>
</g>
<!-- Node6&#45;&gt;Node3 -->
<g id="edge6_Node000006_Node000003" class="edge">
<title>Node6&#45;&gt;Node3</title>
<g id="a_edge6_Node000006_Node000003"><a xlink:title=" ">
<path fill="none" stroke="#63b8ff" d="M439.44,-85.5C427.09,-85.5 414.45,-85.5 402.22,-85.5"/>
<polygon fill="#63b8ff" stroke="#63b8ff" points="439.74,-89 449.74,-85.5 439.74,-82 439.74,-89"/>
</a>
</g>
</g>
<!-- Node7&#45;&gt;Node4 -->
<g id="edge8_Node000007_Node000004" class="edge">
<title>Node7&#45;&gt;Node4</title>
<g id="a_edge8_Node000007_Node000004"><a xlink:title=" ">
<path fill="none" stroke="#63b8ff" d="M223.59,-57.87C214.56,-58.78 205.59,-59.68 197.03,-60.55"/>
<polygon fill="#63b8ff" stroke="#63b8ff" points="224.18,-61.33 233.78,-56.84 223.48,-54.36 224.18,-61.33"/>
</a>
</g>
</g>
</g>
</svg>
