<?xml version="1.0" encoding="UTF-8" standalone="no"?>
<!DOCTYPE svg PUBLIC "-//W3C//DTD SVG 1.1//EN"
 "http://www.w3.org/Graphics/SVG/1.1/DTD/svg11.dtd">
<!-- Generated by graphviz version 2.43.0 (0)
 -->
<!-- Title: Network::TransportLayer::ASocket::bindSock Pages: 1 -->
<svg width="550pt" height="86pt"
 viewBox="0.00 0.00 550.00 86.00" xmlns="http://www.w3.org/2000/svg" xmlns:xlink="http://www.w3.org/1999/xlink">
<g id="graph0" class="graph" transform="scale(1 1) rotate(0) translate(4 82)">
<title>Network::TransportLayer::ASocket::bindSock</title>
<!-- Node1 -->
<g id="Node000001" class="node">
<title>Node1</title>
<g id="a_Node000001"><a xlink:title="Bind the socket to a specific address and port.">
<polygon fill="#999999" stroke="#666666" points="542,-54 406,-54 406,-24 542,-24 542,-54"/>
<text text-anchor="start" x="414" y="-42" font-family="Helvetica,sans-Serif" font-size="10.00">Network::TransportLayer</text>
<text text-anchor="middle" x="474" y="-31" font-family="Helvetica,sans-Serif" font-size="10.00">::ASocket::bindSock</text>
</a>
</g>
</g>
<!-- Node2 -->
<g id="Node000002" class="node">
<title>Node2</title>
<g id="a_Node000002"><a xlink:href="classNetwork_1_1TransportLayer_1_1TCPSocket.html#a1101a573328f3e3763b5cc0fed67f0ae" target="_top" xlink:title="Bind to an address and start listening.">
<polygon fill="white" stroke="#666666" points="370,-78 222,-78 222,-48 370,-48 370,-78"/>
<text text-anchor="start" x="230" y="-66" font-family="Helvetica,sans-Serif" font-size="10.00">Network::TransportLayer</text>
<text text-anchor="middle" x="296" y="-55" font-family="Helvetica,sans-Serif" font-size="10.00">::TCPSocket::bindAndListen</text>
</a>
</g>
</g>
<!-- Node1&#45;&gt;Node2 -->
<g id="edge1_Node000001_Node000002" class="edge">
<title>Node1&#45;&gt;Node2</title>
<g id="a_edge1_Node000001_Node000002"><a xlink:title=" ">
<path fill="none" stroke="#63b8ff" d="M395.94,-49.51C387.33,-50.68 378.57,-51.88 370.01,-53.04"/>
<polygon fill="#63b8ff" stroke="#63b8ff" points="396.52,-52.96 405.96,-48.14 395.58,-46.03 396.52,-52.96"/>
</a>
</g>
</g>
<!-- Node4 -->
<g id="Node000004" class="node">
<title>Node4</title>
<g id="a_Node000004"><a xlink:href="classNetwork_1_1TransportLayer_1_1UDPSocket.html#a4972fa36f907bdcdae38d7d551f34e8b" target="_top" xlink:title="Bind the UDP socket to a port/address.">
<polygon fill="white" stroke="#666666" points="364,-30 228,-30 228,0 364,0 364,-30"/>
<text text-anchor="start" x="236" y="-18" font-family="Helvetica,sans-Serif" font-size="10.00">Network::TransportLayer</text>
<text text-anchor="middle" x="296" y="-7" font-family="Helvetica,sans-Serif" font-size="10.00">::UDPSocket::bindTo</text>
</a>
</g>
</g>
<!-- Node1&#45;&gt;Node4 -->
<g id="edge3_Node000001_Node000004" class="edge">
<title>Node1&#45;&gt;Node4</title>
<g id="a_edge3_Node000001_Node000004"><a xlink:title=" ">
<path fill="none" stroke="#63b8ff" d="M395.9,-28.49C385.32,-27.04 374.53,-25.57 364.15,-24.16"/>
<polygon fill="#63b8ff" stroke="#63b8ff" points="395.58,-31.97 405.96,-29.86 396.52,-25.04 395.58,-31.97"/>
</a>
</g>
</g>
<!-- Node3 -->
<g id="Node000003" class="node">
<title>Node3</title>
<g id="a_Node000003"><a xlink:href="classTCPServer.html#ad8f4ffce8b9317fc30a7cfa9e5c5442a" target="_top" xlink:title="Construct a new TCPServer bound to the given port.">
<polygon fill="white" stroke="#666666" points="154,-72.5 32,-72.5 32,-53.5 154,-53.5 154,-72.5"/>
<text text-anchor="middle" x="93" y="-60.5" font-family="Helvetica,sans-Serif" font-size="10.00">TCPServer::TCPServer</text>
</a>
</g>
</g>
<!-- Node2&#45;&gt;Node3 -->
<g id="edge2_Node000002_Node000003" class="edge">
<title>Node2&#45;&gt;Node3</title>
<g id="a_edge2_Node000002_Node000003"><a xlink:title=" ">
<path fill="none" stroke="#63b8ff" d="M211.86,-63C192.53,-63 172.33,-63 154.21,-63"/>
<polygon fill="#63b8ff" stroke="#63b8ff" points="211.87,-66.5 221.87,-63 211.87,-59.5 211.87,-66.5"/>
</a>
</g>
</g>
<!-- Node5 -->
<g id="Node000005" class="node">
<title>Node5</title>
<g id="a_Node000005"><a xlink:href="classUDPGameServer.html#a0272e620fa267e7a2043b5729d24cfbc" target="_top" xlink:title=" ">
<polygon fill="white" stroke="#666666" points="186,-24.5 0,-24.5 0,-5.5 186,-5.5 186,-24.5"/>
<text text-anchor="middle" x="93" y="-12.5" font-family="Helvetica,sans-Serif" font-size="10.00">UDPGameServer::UDPGameServer</text>
</a>
</g>
</g>
<!-- Node4&#45;&gt;Node5 -->
<g id="edge4_Node000004_Node000005" class="edge">
<title>Node4&#45;&gt;Node5</title>
<g id="a_edge4_Node000004_Node000005"><a xlink:title=" ">
<path fill="none" stroke="#63b8ff" d="M217.63,-15C207.33,-15 196.7,-15 186.18,-15"/>
<polygon fill="#63b8ff" stroke="#63b8ff" points="217.79,-18.5 227.79,-15 217.79,-11.5 217.79,-18.5"/>
</a>
</g>
</g>
</g>
</svg>
