<?xml version="1.0" encoding="UTF-8" standalone="no"?>
<!DOCTYPE svg PUBLIC "-//W3C//DTD SVG 1.1//EN"
 "http://www.w3.org/Graphics/SVG/1.1/DTD/svg11.dtd">
<!-- Generated by graphviz version 2.43.0 (0)
 -->
<!-- Title: UDPGameServer::nowMs Pages: 1 -->
<svg width="607pt" height="46pt"
 viewBox="0.00 0.00 607.00 46.00" xmlns="http://www.w3.org/2000/svg" xmlns:xlink="http://www.w3.org/1999/xlink">
<g id="graph0" class="graph" transform="scale(1 1) rotate(0) translate(4 42)">
<title>UDPGameServer::nowMs</title>
<!-- Node1 -->
<g id="Node000001" class="node">
<title>Node1</title>
<g id="a_Node000001"><a xlink:title="Monotonic time helper in milliseconds.">
<polygon fill="#999999" stroke="#666666" points="599,-38 460,-38 460,-19 599,-19 599,-38"/>
<text text-anchor="middle" x="529.5" y="-26" font-family="Helvetica,sans-Serif" font-size="10.00">UDPGameServer::nowMs</text>
</a>
</g>
</g>
<!-- Node2 -->
<g id="Node000002" class="node">
<title>Node2</title>
<g id="a_Node000002"><a xlink:href="classUDPGameServer.html#a476a4f2e8bb0833c788761298eb4a72b" target="_top" xlink:title="Start the main server loop (blocking).">
<polygon fill="white" stroke="#666666" points="197,-38 77,-38 77,-19 197,-19 197,-38"/>
<text text-anchor="middle" x="137" y="-26" font-family="Helvetica,sans-Serif" font-size="10.00">UDPGameServer::run</text>
</a>
</g>
</g>
<!-- Node1&#45;&gt;Node2 -->
<g id="edge1_Node000001_Node000002" class="edge">
<title>Node1&#45;&gt;Node2</title>
<g id="a_edge1_Node000001_Node000002"><a xlink:title=" ">
<path fill="none" stroke="#63b8ff" d="M449.3,-28.5C374.69,-28.5 264.59,-28.5 197.29,-28.5"/>
<polygon fill="#63b8ff" stroke="#63b8ff" points="449.59,-32 459.59,-28.5 449.59,-25 449.59,-32"/>
</a>
</g>
</g>
<!-- Node4 -->
<g id="Node000004" class="node">
<title>Node4</title>
<g id="a_Node000004"><a xlink:href="classUDPGameServer.html#aa1c969e983f12d8e36bfb2465f7fe5d6" target="_top" xlink:title="Advance the local simulation based on elapsed time.">
<polygon fill="white" stroke="#666666" points="424,-19 233,-19 233,0 424,0 424,-19"/>
<text text-anchor="middle" x="328.5" y="-7" font-family="Helvetica,sans-Serif" font-size="10.00">UDPGameServer::updateSimulation</text>
</a>
</g>
</g>
<!-- Node1&#45;&gt;Node4 -->
<g id="edge3_Node000001_Node000004" class="edge">
<title>Node1&#45;&gt;Node4</title>
<g id="a_edge3_Node000001_Node000004"><a xlink:title=" ">
<path fill="none" stroke="#63b8ff" d="M449.67,-20.97C441.31,-20.18 432.76,-19.36 424.25,-18.55"/>
<polygon fill="#63b8ff" stroke="#63b8ff" points="449.45,-24.47 459.74,-21.93 450.11,-17.5 449.45,-24.47"/>
</a>
</g>
</g>
<!-- Node3 -->
<g id="Node000003" class="node">
<title>Node3</title>
<g id="a_Node000003"><a xlink:href="game_8cpp.html#a3c04138a5bfe5d72780bb7e82a18e627" target="_top" xlink:title=" ">
<polygon fill="white" stroke="#666666" points="41,-38 0,-38 0,-19 41,-19 41,-38"/>
<text text-anchor="middle" x="20.5" y="-26" font-family="Helvetica,sans-Serif" font-size="10.00">main</text>
</a>
</g>
</g>
<!-- Node2&#45;&gt;Node3 -->
<g id="edge2_Node000002_Node000003" class="edge">
<title>Node2&#45;&gt;Node3</title>
<g id="a_edge2_Node000002_Node000003"><a xlink:title=" ">
<path fill="none" stroke="#63b8ff" d="M66.55,-28.5C57.28,-28.5 48.46,-28.5 41.12,-28.5"/>
<polygon fill="#63b8ff" stroke="#63b8ff" points="66.74,-32 76.74,-28.5 66.74,-25 66.74,-32"/>
</a>
</g>
</g>
<!-- Node4&#45;&gt;Node2 -->
<g id="edge4_Node000004_Node000002" class="edge">
<title>Node4&#45;&gt;Node2</title>
<g id="a_edge4_Node000004_Node000002"><a xlink:title=" ">
<path fill="none" stroke="#63b8ff" d="M222.54,-20.02C213.87,-20.89 205.32,-21.75 197.18,-22.57"/>
<polygon fill="#63b8ff" stroke="#63b8ff" points="223.15,-23.48 232.75,-19 222.45,-16.52 223.15,-23.48"/>
</a>
</g>
</g>
</g>
</svg>
