<?xml version="1.0" encoding="UTF-8" standalone="no"?>
<!DOCTYPE svg PUBLIC "-//W3C//DTD SVG 1.1//EN"
 "http://www.w3.org/Graphics/SVG/1.1/DTD/svg11.dtd">
<!-- Generated by graphviz version 2.43.0 (0)
 -->
<!-- Title: TCPServer::resetClient Pages: 1 -->
<svg width="1191pt" height="121pt"
 viewBox="0.00 0.00 1191.00 121.00" xmlns="http://www.w3.org/2000/svg" xmlns:xlink="http://www.w3.org/1999/xlink">
<g id="graph0" class="graph" transform="scale(1 1) rotate(0) translate(4 117)">
<title>TCPServer::resetClient</title>
<!-- Node1 -->
<g id="Node000001" class="node">
<title>Node1</title>
<g id="a_Node000001"><a xlink:title="Reset client fields and close its socket.">
<polygon fill="#999999" stroke="#666666" points="125,-76 0,-76 0,-57 125,-57 125,-76"/>
<text text-anchor="middle" x="62.5" y="-64" font-family="Helvetica,sans-Serif" font-size="10.00">TCPServer::resetClient</text>
</a>
</g>
</g>
<!-- Node2 -->
<g id="Node000002" class="node">
<title>Node2</title>
<g id="a_Node000002"><a xlink:href="classTCPServer.html#aa6089a11e438f73bfc614c44f86e5d75" target="_top" xlink:title="Close and invalidate a file descriptor.">
<polygon fill="white" stroke="#666666" points="298,-113 188,-113 188,-94 298,-94 298,-113"/>
<text text-anchor="middle" x="243" y="-101" font-family="Helvetica,sans-Serif" font-size="10.00">TCPServer::closeFd</text>
</a>
</g>
</g>
<!-- Node1&#45;&gt;Node2 -->
<g id="edge1_Node000001_Node000002" class="edge">
<title>Node1&#45;&gt;Node2</title>
<g id="a_edge1_Node000001_Node000002"><a xlink:title=" ">
<path fill="none" stroke="#63b8ff" d="M109.47,-76.03C132.8,-80.86 161.34,-86.78 185.95,-91.88"/>
<polygon fill="#63b8ff" stroke="#63b8ff" points="185.38,-95.34 195.88,-93.94 186.8,-88.48 185.38,-95.34"/>
</a>
</g>
</g>
<!-- Node4 -->
<g id="Node000004" class="node">
<title>Node4</title>
<g id="a_Node000004"><a xlink:href="classSessionManager.html#a8916c4ee701635dd8b2ee525331efb0b" target="_top" xlink:title="Remove a session by player id.">
<polygon fill="white" stroke="#666666" points="324,-76 162,-76 162,-57 324,-57 324,-76"/>
<text text-anchor="middle" x="243" y="-64" font-family="Helvetica,sans-Serif" font-size="10.00">SessionManager::removeById</text>
</a>
</g>
</g>
<!-- Node1&#45;&gt;Node4 -->
<g id="edge3_Node000001_Node000004" class="edge">
<title>Node1&#45;&gt;Node4</title>
<g id="a_edge3_Node000001_Node000004"><a xlink:title=" ">
<path fill="none" stroke="#63b8ff" d="M125.18,-66.5C133.75,-66.5 142.69,-66.5 151.64,-66.5"/>
<polygon fill="#63b8ff" stroke="#63b8ff" points="151.74,-70 161.74,-66.5 151.74,-63 151.74,-70"/>
</a>
</g>
</g>
<!-- Node5 -->
<g id="Node000005" class="node">
<title>Node5</title>
<g id="a_Node000005"><a xlink:href="classTCPServer.html#a508cc3d7023b0cfe9abed2e3166b1682" target="_top" xlink:title="Remove a client from its current lobby.">
<polygon fill="white" stroke="#666666" points="325,-39 161,-39 161,-20 325,-20 325,-39"/>
<text text-anchor="middle" x="243" y="-27" font-family="Helvetica,sans-Serif" font-size="10.00">TCPServer::removeFromLobby</text>
</a>
</g>
</g>
<!-- Node1&#45;&gt;Node5 -->
<g id="edge4_Node000001_Node000005" class="edge">
<title>Node1&#45;&gt;Node5</title>
<g id="a_edge4_Node000001_Node000005"><a xlink:title=" ">
<path fill="none" stroke="#63b8ff" d="M109.47,-56.97C132.8,-52.14 161.34,-46.22 185.95,-41.12"/>
<polygon fill="#63b8ff" stroke="#63b8ff" points="186.8,-44.52 195.88,-39.06 185.38,-37.66 186.8,-44.52"/>
</a>
</g>
</g>
<!-- Node3 -->
<g id="Node000003" class="node">
<title>Node3</title>
<g id="a_Node000003"><a xlink:href="classTCPServer.html#a2595c03eed6bf37e098e619e6751a3d4" target="_top" xlink:title="Close a raw fd without resetting the caller&#39;s variable.">
<polygon fill="white" stroke="#666666" points="512.5,-113 381.5,-113 381.5,-94 512.5,-94 512.5,-113"/>
<text text-anchor="middle" x="447" y="-101" font-family="Helvetica,sans-Serif" font-size="10.00">TCPServer::closeFdRaw</text>
</a>
</g>
</g>
<!-- Node2&#45;&gt;Node3 -->
<g id="edge2_Node000002_Node000003" class="edge">
<title>Node2&#45;&gt;Node3</title>
<g id="a_edge2_Node000002_Node000003"><a xlink:title=" ">
<path fill="none" stroke="#63b8ff" d="M298.13,-103.5C320.53,-103.5 346.87,-103.5 371.07,-103.5"/>
<polygon fill="#63b8ff" stroke="#63b8ff" points="371.29,-107 381.29,-103.5 371.29,-100 371.29,-107"/>
</a>
</g>
</g>
<!-- Node6 -->
<g id="Node000006" class="node">
<title>Node6</title>
<g id="a_Node000006"><a xlink:href="classTCPServer.html#a8d2dcfc8d8337ff577a101c4aee6aac5" target="_top" xlink:title="Resend the player list to all members of a lobby.">
<polygon fill="white" stroke="#666666" points="515,-58 379,-58 379,-39 515,-39 515,-58"/>
<text text-anchor="middle" x="447" y="-46" font-family="Helvetica,sans-Serif" font-size="10.00">TCPServer::refreshLobby</text>
</a>
</g>
</g>
<!-- Node5&#45;&gt;Node6 -->
<g id="edge5_Node000005_Node000006" class="edge">
<title>Node5&#45;&gt;Node6</title>
<g id="a_edge5_Node000005_Node000006"><a xlink:title=" ">
<path fill="none" stroke="#63b8ff" d="M325.29,-37.15C339.58,-38.49 354.42,-39.89 368.6,-41.22"/>
<polygon fill="#63b8ff" stroke="#63b8ff" points="368.51,-44.73 378.79,-42.18 369.16,-37.76 368.51,-44.73"/>
</a>
</g>
</g>
<!-- Node14 -->
<g id="Node000014" class="node">
<title>Node14</title>
<g id="a_Node000014"><a xlink:href="classSessionManager.html#a8023cf136e039298b1e2ba5fe7cb224b" target="_top" xlink:title="Store the lobby code for a player.">
<polygon fill="white" stroke="#666666" points="533,-21 361,-21 361,-2 533,-2 533,-21"/>
<text text-anchor="middle" x="447" y="-9" font-family="Helvetica,sans-Serif" font-size="10.00">SessionManager::setLobbyCode</text>
</a>
</g>
</g>
<!-- Node5&#45;&gt;Node14 -->
<g id="edge13_Node000005_Node000014" class="edge">
<title>Node5&#45;&gt;Node14</title>
<g id="a_edge13_Node000005_Node000014"><a xlink:title=" ">
<path fill="none" stroke="#63b8ff" d="M325.29,-22.26C333.72,-21.51 342.34,-20.74 350.91,-19.97"/>
<polygon fill="#63b8ff" stroke="#63b8ff" points="351.27,-23.46 360.92,-19.08 350.65,-16.48 351.27,-23.46"/>
</a>
</g>
</g>
<!-- Node7 -->
<g id="Node000007" class="node">
<title>Node7</title>
<g id="a_Node000007"><a xlink:href="classTCPServer.html#aa87b20fb76f60c19df36f39ef3621b05" target="_top" xlink:title="Send the current player list to a single client.">
<polygon fill="white" stroke="#666666" points="712,-63.5 569,-63.5 569,-33.5 712,-33.5 712,-63.5"/>
<text text-anchor="start" x="577" y="-51.5" font-family="Helvetica,sans-Serif" font-size="10.00">TCPServer::sendPlayerList</text>
<text text-anchor="middle" x="640.5" y="-40.5" font-family="Helvetica,sans-Serif" font-size="10.00">ToClient</text>
</a>
</g>
</g>
<!-- Node6&#45;&gt;Node7 -->
<g id="edge6_Node000006_Node000007" class="edge">
<title>Node6&#45;&gt;Node7</title>
<g id="a_edge6_Node000006_Node000007"><a xlink:title=" ">
<path fill="none" stroke="#63b8ff" d="M515.25,-48.5C529.21,-48.5 544.06,-48.5 558.46,-48.5"/>
<polygon fill="#63b8ff" stroke="#63b8ff" points="558.84,-52 568.84,-48.5 558.84,-45 558.84,-52"/>
</a>
</g>
</g>
<!-- Node8 -->
<g id="Node000008" class="node">
<title>Node8</title>
<g id="a_Node000008"><a xlink:href="classTCPServer.html#a196ba30f88f890e9acf0ef1a21a74c71" target="_top" xlink:title="Build the packet containing the list of connected players.">
<polygon fill="white" stroke="#666666" points="892,-85.5 748,-85.5 748,-55.5 892,-55.5 892,-85.5"/>
<text text-anchor="start" x="756" y="-73.5" font-family="Helvetica,sans-Serif" font-size="10.00">TCPServer::buildPlayerList</text>
<text text-anchor="middle" x="820" y="-62.5" font-family="Helvetica,sans-Serif" font-size="10.00">Packet</text>
</a>
</g>
</g>
<!-- Node7&#45;&gt;Node8 -->
<g id="edge7_Node000007_Node000008" class="edge">
<title>Node7&#45;&gt;Node8</title>
<g id="a_edge7_Node000007_Node000008"><a xlink:title=" ">
<path fill="none" stroke="#63b8ff" d="M712.16,-57.26C720.57,-58.3 729.2,-59.37 737.75,-60.43"/>
<polygon fill="#63b8ff" stroke="#63b8ff" points="737.36,-63.91 747.71,-61.66 738.22,-56.96 737.36,-63.91"/>
</a>
</g>
</g>
<!-- Node9 -->
<g id="Node000009" class="node">
<title>Node9</title>
<g id="a_Node000009"><a xlink:href="classTCPServer.html#a9a65a3923e77e48c5f0019b45af8fcb5" target="_top" xlink:title="Send a packet to a specific client fd.">
<polygon fill="white" stroke="#666666" points="883.5,-37 756.5,-37 756.5,-18 883.5,-18 883.5,-37"/>
<text text-anchor="middle" x="820" y="-25" font-family="Helvetica,sans-Serif" font-size="10.00">TCPServer::sendPacket</text>
</a>
</g>
</g>
<!-- Node7&#45;&gt;Node9 -->
<g id="edge8_Node000007_Node000009" class="edge">
<title>Node7&#45;&gt;Node9</title>
<g id="a_edge8_Node000007_Node000009"><a xlink:title=" ">
<path fill="none" stroke="#63b8ff" d="M712.16,-40.14C723.34,-38.82 734.92,-37.45 746.14,-36.12"/>
<polygon fill="#63b8ff" stroke="#63b8ff" points="746.81,-39.57 756.33,-34.91 745.99,-32.61 746.81,-39.57"/>
</a>
</g>
</g>
<!-- Node10 -->
<g id="Node000010" class="node">
<title>Node10</title>
<g id="a_Node000010"><a xlink:href="namespaceProtocol.html#a668bdeed219432868fca095e1b2f2667" target="_top" xlink:title="Build a TCP framed buffer (2 bytes length + serialized packet).">
<polygon fill="white" stroke="#666666" points="1036.5,-56 929.5,-56 929.5,-37 1036.5,-37 1036.5,-56"/>
<text text-anchor="middle" x="983" y="-44" font-family="Helvetica,sans-Serif" font-size="10.00">Protocol::frameTcp</text>
</a>
</g>
</g>
<!-- Node9&#45;&gt;Node10 -->
<g id="edge9_Node000009_Node000010" class="edge">
<title>Node9&#45;&gt;Node10</title>
<g id="a_edge9_Node000009_Node000010"><a xlink:title=" ">
<path fill="none" stroke="#63b8ff" d="M883.71,-34.9C895.39,-36.28 907.59,-37.72 919.27,-39.1"/>
<polygon fill="#63b8ff" stroke="#63b8ff" points="919.03,-42.59 929.37,-40.29 919.85,-35.64 919.03,-42.59"/>
</a>
</g>
</g>
<!-- Node12 -->
<g id="Node000012" class="node">
<title>Node12</title>
<g id="a_Node000012"><a xlink:href="classTCPServer.html#a79e20e1d2821e399fe47dd1055341d5e" target="_top" xlink:title="Ensure the full buffer is written to the socket.">
<polygon fill="white" stroke="#666666" points="1038,-19 928,-19 928,0 1038,0 1038,-19"/>
<text text-anchor="middle" x="983" y="-7" font-family="Helvetica,sans-Serif" font-size="10.00">TCPServer::writeAll</text>
</a>
</g>
</g>
<!-- Node9&#45;&gt;Node12 -->
<g id="edge11_Node000009_Node000012" class="edge">
<title>Node9&#45;&gt;Node12</title>
<g id="a_edge11_Node000009_Node000012"><a xlink:title=" ">
<path fill="none" stroke="#63b8ff" d="M883.71,-20.49C894.86,-19.24 906.5,-17.94 917.69,-16.69"/>
<polygon fill="#63b8ff" stroke="#63b8ff" points="918.28,-20.15 927.83,-15.56 917.5,-13.19 918.28,-20.15"/>
</a>
</g>
</g>
<!-- Node11 -->
<g id="Node000011" class="node">
<title>Node11</title>
<g id="a_Node000011"><a xlink:href="classPacket.html#aa88c2d28796644c8a1d6137996502ca8" target="_top" xlink:title="Serialize the packet to a byte buffer ready to send.">
<polygon fill="white" stroke="#666666" points="1176,-56 1081,-56 1081,-37 1176,-37 1176,-56"/>
<text text-anchor="middle" x="1128.5" y="-44" font-family="Helvetica,sans-Serif" font-size="10.00">Packet::serialize</text>
</a>
</g>
</g>
<!-- Node10&#45;&gt;Node11 -->
<g id="edge10_Node000010_Node000011" class="edge">
<title>Node10&#45;&gt;Node11</title>
<g id="a_edge10_Node000010_Node000011"><a xlink:title=" ">
<path fill="none" stroke="#63b8ff" d="M1036.62,-46.5C1047.64,-46.5 1059.32,-46.5 1070.49,-46.5"/>
<polygon fill="#63b8ff" stroke="#63b8ff" points="1070.58,-50 1080.58,-46.5 1070.58,-43 1070.58,-50"/>
</a>
</g>
</g>
<!-- Node13 -->
<g id="Node000013" class="node">
<title>Node13</title>
<g id="a_Node000013"><a xlink:href="classTCPServer.html#a5b1988f8a542c2d39f3d3556264e71b2" target="_top" xlink:title="Write raw bytes to a socket fd.">
<polygon fill="white" stroke="#666666" points="1183,-19 1074,-19 1074,0 1183,0 1183,-19"/>
<text text-anchor="middle" x="1128.5" y="-7" font-family="Helvetica,sans-Serif" font-size="10.00">TCPServer::writeFd</text>
</a>
</g>
</g>
<!-- Node12&#45;&gt;Node13 -->
<g id="edge12_Node000012_Node000013" class="edge">
<title>Node12&#45;&gt;Node13</title>
<g id="a_edge12_Node000012_Node000013"><a xlink:title=" ">
<path fill="none" stroke="#63b8ff" d="M1038.25,-9.5C1046.49,-9.5 1055.06,-9.5 1063.48,-9.5"/>
<polygon fill="#63b8ff" stroke="#63b8ff" points="1063.65,-13 1073.65,-9.5 1063.65,-6 1063.65,-13"/>
</a>
</g>
</g>
</g>
</svg>
