<?xml version="1.0" encoding="UTF-8" standalone="no"?>
<!DOCTYPE svg PUBLIC "-//W3C//DTD SVG 1.1//EN"
 "http://www.w3.org/Graphics/SVG/1.1/DTD/svg11.dtd">
<!-- Generated by graphviz version 2.43.0 (0)
 -->
<!-- Title: TCPServer::refreshLobby Pages: 1 -->
<svg width="1153pt" height="148pt"
 viewBox="0.00 0.00 1153.00 147.67" xmlns="http://www.w3.org/2000/svg" xmlns:xlink="http://www.w3.org/1999/xlink">
<g id="graph0" class="graph" transform="scale(1 1) rotate(0) translate(4 143.67)">
<title>TCPServer::refreshLobby</title>
<!-- Node1 -->
<g id="Node000001" class="node">
<title>Node1</title>
<g id="a_Node000001"><a xlink:title="Resend the player list to all members of a lobby.">
<polygon fill="#999999" stroke="#666666" points="1145,-103.67 1009,-103.67 1009,-84.67 1145,-84.67 1145,-103.67"/>
<text text-anchor="middle" x="1077" y="-91.67" font-family="Helvetica,sans-Serif" font-size="10.00">TCPServer::refreshLobby</text>
</a>
</g>
</g>
<!-- Node2 -->
<g id="Node000002" class="node">
<title>Node2</title>
<g id="a_Node000002"><a xlink:href="classTCPServer.html#afd78aa179d3b735e82868d800629b354" target="_top" xlink:title="Handle lobby&#45;related packets for a client.">
<polygon fill="white" stroke="#666666" points="564,-139.67 398,-139.67 398,-120.67 564,-120.67 564,-139.67"/>
<text text-anchor="middle" x="481" y="-127.67" font-family="Helvetica,sans-Serif" font-size="10.00">TCPServer::handleLobbyPacket</text>
</a>
</g>
</g>
<!-- Node1&#45;&gt;Node2 -->
<g id="edge1_Node000001_Node000002" class="edge">
<title>Node1&#45;&gt;Node2</title>
<g id="a_edge1_Node000001_Node000002"><a xlink:title=" ">
<path fill="none" stroke="#63b8ff" d="M998.49,-98.87C886.21,-105.68 679.21,-118.22 564.3,-125.19"/>
<polygon fill="#63b8ff" stroke="#63b8ff" points="998.96,-102.35 1008.73,-98.25 998.53,-95.36 998.96,-102.35"/>
</a>
</g>
</g>
<!-- Node6 -->
<g id="Node000006" class="node">
<title>Node6</title>
<g id="a_Node000006"><a xlink:href="classTCPServer.html#a508cc3d7023b0cfe9abed2e3166b1682" target="_top" xlink:title="Remove a client from its current lobby.">
<polygon fill="white" stroke="#666666" points="973,-84.67 809,-84.67 809,-65.67 973,-65.67 973,-84.67"/>
<text text-anchor="middle" x="891" y="-72.67" font-family="Helvetica,sans-Serif" font-size="10.00">TCPServer::removeFromLobby</text>
</a>
</g>
</g>
<!-- Node1&#45;&gt;Node6 -->
<g id="edge5_Node000001_Node000006" class="edge">
<title>Node1&#45;&gt;Node6</title>
<g id="a_edge5_Node000001_Node000006"><a xlink:title=" ">
<path fill="none" stroke="#63b8ff" d="M998.61,-86.18C990.18,-85.31 981.58,-84.42 973.1,-83.55"/>
<polygon fill="#63b8ff" stroke="#63b8ff" points="998.48,-89.69 1008.79,-87.23 999.2,-82.72 998.48,-89.69"/>
</a>
</g>
</g>
<!-- Node3 -->
<g id="Node000003" class="node">
<title>Node3</title>
<g id="a_Node000003"><a xlink:href="classTCPServer.html#ada05a61182a782b4d3326fabd26a19bf" target="_top" xlink:title="Read and handle data for a single client.">
<polygon fill="white" stroke="#666666" points="362,-139.67 201,-139.67 201,-120.67 362,-120.67 362,-139.67"/>
<text text-anchor="middle" x="281.5" y="-127.67" font-family="Helvetica,sans-Serif" font-size="10.00">TCPServer::processClientData</text>
</a>
</g>
</g>
<!-- Node2&#45;&gt;Node3 -->
<g id="edge2_Node000002_Node000003" class="edge">
<title>Node2&#45;&gt;Node3</title>
<g id="a_edge2_Node000002_Node000003"><a xlink:title=" ">
<path fill="none" stroke="#63b8ff" d="M387.88,-130.17C379.25,-130.17 370.56,-130.17 362.07,-130.17"/>
<polygon fill="#63b8ff" stroke="#63b8ff" points="387.96,-133.67 397.96,-130.17 387.96,-126.67 387.96,-133.67"/>
</a>
</g>
</g>
<!-- Node4 -->
<g id="Node000004" class="node">
<title>Node4</title>
<g id="a_Node000004"><a xlink:href="classTCPServer.html#a4e6d2ef05b71c4ecbd0518fc7215ece3" target="_top" xlink:title="Run the main accept/receive loop (blocking).">
<polygon fill="white" stroke="#666666" points="165,-102.67 77,-102.67 77,-83.67 165,-83.67 165,-102.67"/>
<text text-anchor="middle" x="121" y="-90.67" font-family="Helvetica,sans-Serif" font-size="10.00">TCPServer::run</text>
</a>
</g>
</g>
<!-- Node3&#45;&gt;Node4 -->
<g id="edge3_Node000003_Node000004" class="edge">
<title>Node3&#45;&gt;Node4</title>
<g id="a_edge3_Node000003_Node000004"><a xlink:title=" ">
<path fill="none" stroke="#63b8ff" d="M229.71,-118.32C208.14,-113.28 183.32,-107.49 162.95,-102.73"/>
<polygon fill="#63b8ff" stroke="#63b8ff" points="229.15,-121.78 239.68,-120.64 230.74,-114.96 229.15,-121.78"/>
</a>
</g>
</g>
<!-- Node5 -->
<g id="Node000005" class="node">
<title>Node5</title>
<g id="a_Node000005"><a xlink:href="server_8cpp.html#ae66f6b31b5ad750f1fe042a706a4e3d4" target="_top" xlink:title=" ">
<polygon fill="white" stroke="#666666" points="41,-102.67 0,-102.67 0,-83.67 41,-83.67 41,-102.67"/>
<text text-anchor="middle" x="20.5" y="-90.67" font-family="Helvetica,sans-Serif" font-size="10.00">main</text>
</a>
</g>
</g>
<!-- Node4&#45;&gt;Node5 -->
<g id="edge4_Node000004_Node000005" class="edge">
<title>Node4&#45;&gt;Node5</title>
<g id="a_edge4_Node000004_Node000005"><a xlink:title=" ">
<path fill="none" stroke="#63b8ff" d="M66.57,-93.17C57.52,-93.17 48.67,-93.17 41.23,-93.17"/>
<polygon fill="#63b8ff" stroke="#63b8ff" points="66.8,-96.67 76.8,-93.17 66.8,-89.67 66.8,-96.67"/>
</a>
</g>
</g>
<!-- Node7 -->
<g id="Node000007" class="node">
<title>Node7</title>
<g id="a_Node000007"><a xlink:href="classTCPServer.html#a84035146c9257be5714850a1f46d0bfb" target="_top" xlink:title="Assign a client to a lobby (public or private).">
<polygon fill="white" stroke="#666666" points="753,-103.67 620,-103.67 620,-84.67 753,-84.67 753,-103.67"/>
<text text-anchor="middle" x="686.5" y="-91.67" font-family="Helvetica,sans-Serif" font-size="10.00">TCPServer::assignLobby</text>
</a>
</g>
</g>
<!-- Node6&#45;&gt;Node7 -->
<g id="edge6_Node000006_Node000007" class="edge">
<title>Node6&#45;&gt;Node7</title>
<g id="a_edge6_Node000006_Node000007"><a xlink:title=" ">
<path fill="none" stroke="#63b8ff" d="M798.76,-83.73C783.39,-85.18 767.71,-86.65 753.16,-88.01"/>
<polygon fill="#63b8ff" stroke="#63b8ff" points="799.17,-87.21 808.8,-82.79 798.52,-80.24 799.17,-87.21"/>
</a>
</g>
</g>
<!-- Node9 -->
<g id="Node000009" class="node">
<title>Node9</title>
<g id="a_Node000009"><a xlink:href="classTCPServer.html#a2a03b7479e884f287b5a88df03eeb17b" target="_top" xlink:title=" ">
<polygon fill="white" stroke="#666666" points="773,-27.67 600,-27.67 600,-8.67 773,-8.67 773,-27.67"/>
<text text-anchor="middle" x="686.5" y="-15.67" font-family="Helvetica,sans-Serif" font-size="10.00">TCPServer::processIpcMessages</text>
</a>
</g>
</g>
<!-- Node6&#45;&gt;Node9 -->
<g id="edge9_Node000006_Node000009" class="edge">
<title>Node6&#45;&gt;Node9</title>
<g id="a_edge9_Node000006_Node000009"><a xlink:title=" ">
<path fill="none" stroke="#63b8ff" d="M846.48,-62.89C824.46,-56.67 797.31,-49.01 773,-42.17 756.08,-37.41 737.28,-32.13 721.62,-27.74"/>
<polygon fill="#63b8ff" stroke="#63b8ff" points="845.64,-66.28 856.21,-65.63 847.54,-59.55 845.64,-66.28"/>
</a>
</g>
</g>
<!-- Node10 -->
<g id="Node000010" class="node">
<title>Node10</title>
<g id="a_Node000010"><a xlink:href="classTCPServer.html#a435ec8dcd340e15f964ce3c0748c7305" target="_top" xlink:title="Reset client fields and close its socket.">
<polygon fill="white" stroke="#666666" points="543.5,-65.67 418.5,-65.67 418.5,-46.67 543.5,-46.67 543.5,-65.67"/>
<text text-anchor="middle" x="481" y="-53.67" font-family="Helvetica,sans-Serif" font-size="10.00">TCPServer::resetClient</text>
</a>
</g>
</g>
<!-- Node6&#45;&gt;Node10 -->
<g id="edge11_Node000006_Node000010" class="edge">
<title>Node6&#45;&gt;Node10</title>
<g id="a_edge11_Node000006_Node000010"><a xlink:title=" ">
<path fill="none" stroke="#63b8ff" d="M798.63,-70.92C720.9,-67.3 611.39,-62.2 543.65,-59.04"/>
<polygon fill="#63b8ff" stroke="#63b8ff" points="798.75,-74.43 808.9,-71.4 799.08,-67.44 798.75,-74.43"/>
</a>
</g>
</g>
<!-- Node7&#45;&gt;Node2 -->
<g id="edge8_Node000007_Node000002" class="edge">
<title>Node7&#45;&gt;Node2</title>
<g id="a_edge8_Node000007_Node000002"><a xlink:title=" ">
<path fill="none" stroke="#63b8ff" d="M621.83,-105.44C594.29,-110.31 562.4,-115.95 536.03,-120.61"/>
<polygon fill="#63b8ff" stroke="#63b8ff" points="622.53,-108.87 631.77,-103.68 621.31,-101.97 622.53,-108.87"/>
</a>
</g>
</g>
<!-- Node8 -->
<g id="Node000008" class="node">
<title>Node8</title>
<g id="a_Node000008"><a xlink:href="classTCPServer.html#ad6bed785945fc2f21376ff2b58090829" target="_top" xlink:title="Auto&#45;match the client into a public lobby.">
<polygon fill="white" stroke="#666666" points="558.5,-102.67 403.5,-102.67 403.5,-83.67 558.5,-83.67 558.5,-102.67"/>
<text text-anchor="middle" x="481" y="-90.67" font-family="Helvetica,sans-Serif" font-size="10.00">TCPServer::autoAssignPublic</text>
</a>
</g>
</g>
<!-- Node7&#45;&gt;Node8 -->
<g id="edge7_Node000007_Node000008" class="edge">
<title>Node7&#45;&gt;Node8</title>
<g id="a_edge7_Node000007_Node000008"><a xlink:title=" ">
<path fill="none" stroke="#63b8ff" d="M609.76,-93.8C593.1,-93.72 575.44,-93.63 558.74,-93.55"/>
<polygon fill="#63b8ff" stroke="#63b8ff" points="609.97,-97.3 619.99,-93.85 610.01,-90.3 609.97,-97.3"/>
</a>
</g>
</g>
<!-- Node9&#45;&gt;Node4 -->
<g id="edge10_Node000009_Node000004" class="edge">
<title>Node9&#45;&gt;Node4</title>
<g id="a_edge10_Node000009_Node000004"><a xlink:title=" ">
<path fill="none" stroke="#63b8ff" d="M604.46,-7.6C506.13,2.15 336.66,8.98 201,-37.17 172.67,-46.81 145.54,-70.12 131.64,-83.43"/>
<polygon fill="#63b8ff" stroke="#63b8ff" points="604.33,-11.1 614.63,-8.64 605.04,-4.14 604.33,-11.1"/>
</a>
</g>
</g>
<!-- Node10&#45;&gt;Node3 -->
<g id="edge14_Node000010_Node000003" class="edge">
<title>Node10&#45;&gt;Node3</title>
<g id="a_edge14_Node000010_Node000003"><a xlink:title=" ">
<path fill="none" stroke="#63b8ff" d="M408.4,-69.19C404.8,-70.67 401.32,-72.33 398,-74.17 377.95,-85.33 381.95,-99.84 362,-111.17 355.21,-115.03 347.68,-118.11 340.02,-120.56"/>
<polygon fill="#63b8ff" stroke="#63b8ff" points="409.92,-72.36 418.1,-65.64 407.51,-65.79 409.92,-72.36"/>
</a>
</g>
</g>
<!-- Node11 -->
<g id="Node000011" class="node">
<title>Node11</title>
<g id="a_Node000011"><a xlink:href="classTCPServer.html#a867c0e233f62e2d8f181ae99dbcca0a0" target="_top" xlink:title="Disconnect clients whose heartbeat timed out.">
<polygon fill="white" stroke="#666666" points="356,-102.67 207,-102.67 207,-83.67 356,-83.67 356,-102.67"/>
<text text-anchor="middle" x="281.5" y="-90.67" font-family="Helvetica,sans-Serif" font-size="10.00">TCPServer::checkHeartbeat</text>
</a>
</g>
</g>
<!-- Node10&#45;&gt;Node11 -->
<g id="edge12_Node000010_Node000011" class="edge">
<title>Node10&#45;&gt;Node11</title>
<g id="a_edge12_Node000010_Node000011"><a xlink:title=" ">
<path fill="none" stroke="#63b8ff" d="M419.25,-67.55C391.8,-72.7 359.72,-78.71 333.53,-83.61"/>
<polygon fill="#63b8ff" stroke="#63b8ff" points="419.95,-70.98 429.14,-65.7 418.67,-64.1 419.95,-70.98"/>
</a>
</g>
</g>
<!-- Node12 -->
<g id="Node000012" class="node">
<title>Node12</title>
<g id="a_Node000012"><a xlink:href="classTCPServer.html#abc497ac52355e53986a6a1bd1acb9581" target="_top" xlink:title="Destroy the TCPServer, closing the listening socket.">
<polygon fill="white" stroke="#666666" points="346.5,-65.67 216.5,-65.67 216.5,-46.67 346.5,-46.67 346.5,-65.67"/>
<text text-anchor="middle" x="281.5" y="-53.67" font-family="Helvetica,sans-Serif" font-size="10.00">TCPServer::~TCPServer</text>
</a>
</g>
</g>
<!-- Node10&#45;&gt;Node12 -->
<g id="edge15_Node000010_Node000012" class="edge">
<title>Node10&#45;&gt;Node12</title>
<g id="a_edge15_Node000010_Node000012"><a xlink:title=" ">
<path fill="none" stroke="#63b8ff" d="M408.28,-56.17C388.17,-56.17 366.43,-56.17 346.78,-56.17"/>
<polygon fill="#63b8ff" stroke="#63b8ff" points="408.32,-59.67 418.32,-56.17 408.32,-52.67 408.32,-59.67"/>
</a>
</g>
</g>
<!-- Node11&#45;&gt;Node4 -->
<g id="edge13_Node000011_Node000004" class="edge">
<title>Node11&#45;&gt;Node4</title>
<g id="a_edge13_Node000011_Node000004"><a xlink:title=" ">
<path fill="none" stroke="#63b8ff" d="M196.8,-93.17C185.9,-93.17 175.11,-93.17 165.26,-93.17"/>
<polygon fill="#63b8ff" stroke="#63b8ff" points="196.82,-96.67 206.82,-93.17 196.82,-89.67 196.82,-96.67"/>
</a>
</g>
</g>
</g>
</svg>
