<?xml version="1.0" encoding="UTF-8" standalone="no"?>
<!DOCTYPE svg PUBLIC "-//W3C//DTD SVG 1.1//EN"
 "http://www.w3.org/Graphics/SVG/1.1/DTD/svg11.dtd">
<!-- Generated by graphviz version 2.43.0 (0)
 -->
<!-- Title: UDPGameServer::handleInput Pages: 1 -->
<svg width="362pt" height="64pt"
 viewBox="0.00 0.00 362.00 64.00" xmlns="http://www.w3.org/2000/svg" xmlns:xlink="http://www.w3.org/1999/xlink">
<g id="graph0" class="graph" transform="scale(1 1) rotate(0) translate(4 60)">
<title>UDPGameServer::handleInput</title>
<!-- Node1 -->
<g id="Node000001" class="node">
<title>Node1</title>
<g id="a_Node000001"><a xlink:title="Update player inputs (movement/direction).">
<polygon fill="#999999" stroke="#666666" points="162,-37 0,-37 0,-18 162,-18 162,-37"/>
<text text-anchor="middle" x="81" y="-25" font-family="Helvetica,sans-Serif" font-size="10.00">UDPGameServer::handleInput</text>
</a>
</g>
</g>
<!-- Node2 -->
<g id="Node000002" class="node">
<title>Node2</title>
<g id="a_Node000002"><a xlink:href="classSessionManager.html#a48995915db3b90fa7228d357d6293163" target="_top" xlink:title="Lookup a session by player id.">
<polygon fill="white" stroke="#666666" points="354,-56 198,-56 198,-37 354,-37 354,-56"/>
<text text-anchor="middle" x="276" y="-44" font-family="Helvetica,sans-Serif" font-size="10.00">SessionManager::getSession</text>
</a>
</g>
</g>
<!-- Node1&#45;&gt;Node2 -->
<g id="edge1_Node000001_Node000002" class="edge">
<title>Node1&#45;&gt;Node2</title>
<g id="a_edge1_Node000001_Node000002"><a xlink:title=" ">
<path fill="none" stroke="#63b8ff" d="M162.17,-35.39C170.66,-36.23 179.32,-37.08 187.88,-37.92"/>
<polygon fill="#63b8ff" stroke="#63b8ff" points="187.57,-41.41 197.87,-38.91 188.26,-34.44 187.57,-41.41"/>
</a>
</g>
</g>
<!-- Node3 -->
<g id="Node000003" class="node">
<title>Node3</title>
<g id="a_Node000003"><a xlink:href="classUDPGameServer.html#ae610b7c128c3b70e06f3fc1b5a3ecdc5" target="_top" xlink:title=" ">
<polygon fill="white" stroke="#666666" points="349.5,-19 202.5,-19 202.5,0 349.5,0 349.5,-19"/>
<text text-anchor="middle" x="276" y="-7" font-family="Helvetica,sans-Serif" font-size="10.00">UDPGameServer::logPrefix</text>
</a>
</g>
</g>
<!-- Node1&#45;&gt;Node3 -->
<g id="edge2_Node000001_Node000003" class="edge">
<title>Node1&#45;&gt;Node3</title>
<g id="a_edge2_Node000001_Node000003"><a xlink:title=" ">
<path fill="none" stroke="#63b8ff" d="M162.17,-20.02C172.19,-19.09 182.45,-18.13 192.51,-17.19"/>
<polygon fill="#63b8ff" stroke="#63b8ff" points="192.85,-20.68 202.48,-16.26 192.2,-13.71 192.85,-20.68"/>
</a>
</g>
</g>
</g>
</svg>
