<?xml version="1.0" encoding="UTF-8" standalone="no"?>
<!DOCTYPE svg PUBLIC "-//W3C//DTD SVG 1.1//EN"
 "http://www.w3.org/Graphics/SVG/1.1/DTD/svg11.dtd">
<!-- Generated by graphviz version 2.43.0 (0)
 -->
<!-- Title: GraphicClient::processNetworkEvents Pages: 1 -->
<svg width="1299pt" height="626pt"
 viewBox="0.00 0.00 1299.00 625.50" xmlns="http://www.w3.org/2000/svg" xmlns:xlink="http://www.w3.org/1999/xlink">
<g id="graph0" class="graph" transform="scale(1 1) rotate(0) translate(4 621.5)">
<title>GraphicClient::processNetworkEvents</title>
<!-- Node1 -->
<g id="Node000001" class="node">
<title>Node1</title>
<g id="a_Node000001"><a xlink:title="Processes network events and updates game state.">
<polygon fill="#999999" stroke="#666666" points="167,-276.5 0,-276.5 0,-246.5 167,-246.5 167,-276.5"/>
<text text-anchor="start" x="8" y="-264.5" font-family="Helvetica,sans-Serif" font-size="10.00">GraphicClient::processNetwork</text>
<text text-anchor="middle" x="83.5" y="-253.5" font-family="Helvetica,sans-Serif" font-size="10.00">Events</text>
</a>
</g>
</g>
<!-- Node2 -->
<g id="Node000002" class="node">
<title>Node2</title>
<g id="a_Node000002"><a xlink:href="classGameState.html#aa19f7b265ddcdf1c490b1c43556d07e1" target="_top" xlink:title="Clear all cached entities.">
<polygon fill="white" stroke="#666666" points="341.5,-516 240.5,-516 240.5,-497 341.5,-497 341.5,-516"/>
<text text-anchor="middle" x="291" y="-504" font-family="Helvetica,sans-Serif" font-size="10.00">GameState::clear</text>
</a>
</g>
</g>
<!-- Node1&#45;&gt;Node2 -->
<g id="edge1_Node000001_Node000002" class="edge">
<title>Node1&#45;&gt;Node2</title>
<g id="a_edge1_Node000001_Node000002"><a xlink:title=" ">
<path fill="none" stroke="#63b8ff" d="M87.78,-276.76C97.45,-317.9 129.9,-431.76 203,-487.5 211.02,-493.62 220.61,-497.85 230.44,-500.76"/>
<polygon fill="#63b8ff" stroke="#63b8ff" points="229.75,-504.2 240.3,-503.25 231.46,-497.41 229.75,-504.2"/>
</a>
</g>
</g>
<!-- Node3 -->
<g id="Node000003" class="node">
<title>Node3</title>
<g id="a_Node000003"><a xlink:href="classNetworkClient.html#ad93611688c9c99aba516b5396a543cd8" target="_top" xlink:title="Clear queued events.">
<polygon fill="white" stroke="#666666" points="365.5,-479 216.5,-479 216.5,-460 365.5,-460 365.5,-479"/>
<text text-anchor="middle" x="291" y="-467" font-family="Helvetica,sans-Serif" font-size="10.00">NetworkClient::clearEvents</text>
</a>
</g>
</g>
<!-- Node1&#45;&gt;Node3 -->
<g id="edge2_Node000001_Node000003" class="edge">
<title>Node1&#45;&gt;Node3</title>
<g id="a_edge2_Node000001_Node000003"><a xlink:title=" ">
<path fill="none" stroke="#63b8ff" d="M89.37,-276.63C101.86,-312.93 138.69,-405.28 203,-450.5 205.72,-452.41 208.59,-454.14 211.58,-455.69"/>
<polygon fill="#63b8ff" stroke="#63b8ff" points="210.28,-458.94 220.83,-459.87 213.16,-452.56 210.28,-458.94"/>
</a>
</g>
</g>
<!-- Node4 -->
<g id="Node000004" class="node">
<title>Node4</title>
<g id="a_Node000004"><a xlink:href="classGameState.html#a59e8f64ec95841389e7bdbc1a07f718a" target="_top" xlink:title="Clear only player entries.">
<polygon fill="white" stroke="#666666" points="359.5,-442 222.5,-442 222.5,-423 359.5,-423 359.5,-442"/>
<text text-anchor="middle" x="291" y="-430" font-family="Helvetica,sans-Serif" font-size="10.00">GameState::clearPlayers</text>
</a>
</g>
</g>
<!-- Node1&#45;&gt;Node4 -->
<g id="edge3_Node000001_Node000004" class="edge">
<title>Node1&#45;&gt;Node4</title>
<g id="a_edge3_Node000001_Node000004"><a xlink:title=" ">
<path fill="none" stroke="#63b8ff" d="M91.83,-276.88C107.52,-308.02 147.5,-378.56 203,-413.5 206.36,-415.62 209.93,-417.5 213.62,-419.18"/>
<polygon fill="#63b8ff" stroke="#63b8ff" points="212.43,-422.47 223.02,-422.93 215.03,-415.97 212.43,-422.47"/>
</a>
</g>
</g>
<!-- Node5 -->
<g id="Node000005" class="node">
<title>Node5</title>
<g id="a_Node000005"><a xlink:href="classNetworkClient.html#a7f69f5c30fd349d670fae18598737b86" target="_top" xlink:title="Close TCP and UDP sockets and reset state.">
<polygon fill="white" stroke="#666666" points="761.5,-366 616.5,-366 616.5,-347 761.5,-347 761.5,-366"/>
<text text-anchor="middle" x="689" y="-354" font-family="Helvetica,sans-Serif" font-size="10.00">NetworkClient::disconnect</text>
</a>
</g>
</g>
<!-- Node1&#45;&gt;Node5 -->
<g id="edge4_Node000001_Node000005" class="edge">
<title>Node1&#45;&gt;Node5</title>
<g id="a_edge4_Node000001_Node000005"><a xlink:title=" ">
<path fill="none" stroke="#63b8ff" d="M102.3,-276.81C124.28,-294.66 163.62,-323.29 203,-335.5 339.44,-377.82 507.83,-373.3 606.04,-365.42"/>
<polygon fill="#63b8ff" stroke="#63b8ff" points="606.52,-368.89 616.2,-364.57 605.94,-361.92 606.52,-368.89"/>
</a>
</g>
</g>
<!-- Node6 -->
<g id="Node000006" class="node">
<title>Node6</title>
<g id="a_Node000006"><a xlink:href="classNetworkClient.html#a632c4eeb2d8086de97cd616b2be972cf" target="_top" xlink:title="Close UDP socket only.">
<polygon fill="white" stroke="#666666" points="373,-327 209,-327 209,-308 373,-308 373,-327"/>
<text text-anchor="middle" x="291" y="-315" font-family="Helvetica,sans-Serif" font-size="10.00">NetworkClient::disconnectUdp</text>
</a>
</g>
</g>
<!-- Node1&#45;&gt;Node6 -->
<g id="edge5_Node000001_Node000006" class="edge">
<title>Node1&#45;&gt;Node6</title>
<g id="a_edge5_Node000001_Node000006"><a xlink:title=" ">
<path fill="none" stroke="#63b8ff" d="M129.53,-276.58C151.55,-283.69 178.52,-292.02 203,-298.5 212.64,-301.05 222.94,-303.52 232.97,-305.8"/>
<polygon fill="#63b8ff" stroke="#63b8ff" points="232.34,-309.24 242.86,-307.99 233.86,-302.41 232.34,-309.24"/>
</a>
</g>
</g>
<!-- Node7 -->
<g id="Node000007" class="node">
<title>Node7</title>
<g id="a_Node000007"><a xlink:href="classNetworkClient.html#aa443eee7ab598870a1028935b1b8c174" target="_top" xlink:title="Get pending network events.">
<polygon fill="white" stroke="#666666" points="361.5,-290 220.5,-290 220.5,-271 361.5,-271 361.5,-290"/>
<text text-anchor="middle" x="291" y="-278" font-family="Helvetica,sans-Serif" font-size="10.00">NetworkClient::getEvents</text>
</a>
</g>
</g>
<!-- Node1&#45;&gt;Node7 -->
<g id="edge6_Node000001_Node000007" class="edge">
<title>Node1&#45;&gt;Node7</title>
<g id="a_edge6_Node000001_Node000007"><a xlink:title=" ">
<path fill="none" stroke="#63b8ff" d="M167.2,-269.15C181.38,-270.46 196.09,-271.82 210.19,-273.12"/>
<polygon fill="#63b8ff" stroke="#63b8ff" points="210.05,-276.62 220.33,-274.06 210.7,-269.65 210.05,-276.62"/>
</a>
</g>
</g>
<!-- Node8 -->
<g id="Node000008" class="node">
<title>Node8</title>
<g id="a_Node000008"><a xlink:href="classNetworkClient.html#ac79abc81697913608e849a936eee4ada" target="_top" xlink:title="Get last received player list from TCP.">
<polygon fill="white" stroke="#666666" points="379,-253 203,-253 203,-234 379,-234 379,-253"/>
<text text-anchor="middle" x="291" y="-241" font-family="Helvetica,sans-Serif" font-size="10.00">NetworkClient::getLastPlayerList</text>
</a>
</g>
</g>
<!-- Node1&#45;&gt;Node8 -->
<g id="edge7_Node000001_Node000008" class="edge">
<title>Node1&#45;&gt;Node8</title>
<g id="a_edge7_Node000001_Node000008"><a xlink:title=" ">
<path fill="none" stroke="#63b8ff" d="M167.2,-254.26C175.61,-253.52 184.22,-252.77 192.77,-252.02"/>
<polygon fill="#63b8ff" stroke="#63b8ff" points="193.12,-255.5 202.77,-251.14 192.5,-248.53 193.12,-255.5"/>
</a>
</g>
</g>
<!-- Node9 -->
<g id="Node000009" class="node">
<title>Node9</title>
<g id="a_Node000009"><a xlink:href="classNetworkClient.html#a501553ba5f6d381f43855eda057157bf" target="_top" xlink:title="Get last received player snapshots.">
<polygon fill="white" stroke="#666666" points="377.5,-216 204.5,-216 204.5,-197 377.5,-197 377.5,-216"/>
<text text-anchor="middle" x="291" y="-204" font-family="Helvetica,sans-Serif" font-size="10.00">NetworkClient::getLastSnapshot</text>
</a>
</g>
</g>
<!-- Node1&#45;&gt;Node9 -->
<g id="edge8_Node000001_Node000009" class="edge">
<title>Node1&#45;&gt;Node9</title>
<g id="a_edge8_Node000001_Node000009"><a xlink:title=" ">
<path fill="none" stroke="#63b8ff" d="M128.94,-246.48C151.05,-239.3 178.28,-230.9 203,-224.5 211.57,-222.28 220.67,-220.15 229.63,-218.18"/>
<polygon fill="#63b8ff" stroke="#63b8ff" points="230.61,-221.55 239.66,-216.04 229.15,-214.71 230.61,-221.55"/>
</a>
</g>
</g>
<!-- Node10 -->
<g id="Node000010" class="node">
<title>Node10</title>
<g id="a_Node000010"><a xlink:href="classNetworkClient.html#a4b6f0c20c59eeeddf98e738257c8a793" target="_top" xlink:title="Get last received monster snapshots.">
<polygon fill="white" stroke="#666666" points="377.5,-178.5 204.5,-178.5 204.5,-148.5 377.5,-148.5 377.5,-178.5"/>
<text text-anchor="start" x="212.5" y="-166.5" font-family="Helvetica,sans-Serif" font-size="10.00">NetworkClient::getLastSnapshot</text>
<text text-anchor="middle" x="291" y="-155.5" font-family="Helvetica,sans-Serif" font-size="10.00">Monsters</text>
</a>
</g>
</g>
<!-- Node1&#45;&gt;Node10 -->
<g id="edge9_Node000001_Node000010" class="edge">
<title>Node1&#45;&gt;Node10</title>
<g id="a_edge9_Node000001_Node000010"><a xlink:title=" ">
<path fill="none" stroke="#63b8ff" d="M104.47,-246.49C127.25,-230 166.13,-203.69 203,-187.5 207.63,-185.47 212.48,-183.56 217.42,-181.79"/>
<polygon fill="#63b8ff" stroke="#63b8ff" points="218.64,-185.07 226.99,-178.54 216.39,-178.44 218.64,-185.07"/>
</a>
</g>
</g>
<!-- Node11 -->
<g id="Node000011" class="node">
<title>Node11</title>
<g id="a_Node000011"><a xlink:href="classNetworkClient.html#a3a848ca2af9ba2a3008e33ecc39a3622" target="_top" xlink:title="Get server&#45;assigned player id.">
<polygon fill="white" stroke="#666666" points="365,-130 217,-130 217,-111 365,-111 365,-130"/>
<text text-anchor="middle" x="291" y="-118" font-family="Helvetica,sans-Serif" font-size="10.00">NetworkClient::getPlayerId</text>
</a>
</g>
</g>
<!-- Node1&#45;&gt;Node11 -->
<g id="edge10_Node000001_Node000011" class="edge">
<title>Node1&#45;&gt;Node11</title>
<g id="a_edge10_Node000001_Node000011"><a xlink:title=" ">
<path fill="none" stroke="#63b8ff" d="M94.58,-246.38C112.88,-220.19 154.23,-166.62 203,-139.5 207.17,-137.18 211.6,-135.14 216.17,-133.36"/>
<polygon fill="#63b8ff" stroke="#63b8ff" points="217.41,-136.63 225.7,-130.02 215.1,-130.02 217.41,-136.63"/>
</a>
</g>
</g>
<!-- Node12 -->
<g id="Node000012" class="node">
<title>Node12</title>
<g id="a_Node000012"><a xlink:href="classGameState.html#adbedaec4367fbf2705065e66a8909ce5" target="_top" xlink:title="Return a snapshot list of current players.">
<polygon fill="white" stroke="#666666" points="355,-93 227,-93 227,-74 355,-74 355,-93"/>
<text text-anchor="middle" x="291" y="-81" font-family="Helvetica,sans-Serif" font-size="10.00">GameState::listPlayers</text>
</a>
</g>
</g>
<!-- Node1&#45;&gt;Node12 -->
<g id="edge11_Node000001_Node000012" class="edge">
<title>Node1&#45;&gt;Node12</title>
<g id="a_edge11_Node000001_Node000012"><a xlink:title=" ">
<path fill="none" stroke="#63b8ff" d="M91.11,-246.26C105.98,-213.91 145.33,-138.36 203,-101.5 207.44,-98.67 212.23,-96.27 217.22,-94.24"/>
<polygon fill="#63b8ff" stroke="#63b8ff" points="218.74,-97.41 226.99,-90.78 216.4,-90.82 218.74,-97.41"/>
</a>
</g>
</g>
<!-- Node13 -->
<g id="Node000013" class="node">
<title>Node13</title>
<g id="a_Node000013"><a xlink:href="classNetworkClient.html#a1f77ff0729755d9782b4542582cfe214" target="_top" xlink:title="Poll TCP/UDP sockets and handle any received packets.">
<polygon fill="white" stroke="#666666" points="364.5,-405 217.5,-405 217.5,-386 364.5,-386 364.5,-405"/>
<text text-anchor="middle" x="291" y="-393" font-family="Helvetica,sans-Serif" font-size="10.00">NetworkClient::pollPackets</text>
</a>
</g>
</g>
<!-- Node1&#45;&gt;Node13 -->
<g id="edge12_Node000001_Node000013" class="edge">
<title>Node1&#45;&gt;Node13</title>
<g id="a_edge12_Node000001_Node000013"><a xlink:title=" ">
<path fill="none" stroke="#63b8ff" d="M97.1,-276.72C117.16,-300.01 158.66,-344.42 203,-369.5 212.67,-374.97 223.6,-379.39 234.37,-382.94"/>
<polygon fill="#63b8ff" stroke="#63b8ff" points="233.59,-386.36 244.17,-385.95 235.64,-379.67 233.59,-386.36"/>
</a>
</g>
</g>
<!-- Node29 -->
<g id="Node000029" class="node">
<title>Node29</title>
<g id="a_Node000029"><a xlink:href="classGameState.html#a72d25f3760e72101b6c3ddc990da3d04" target="_top" xlink:title="Insert or update a monster entry.">
<polygon fill="white" stroke="#666666" points="365,-56 217,-56 217,-37 365,-37 365,-56"/>
<text text-anchor="middle" x="291" y="-44" font-family="Helvetica,sans-Serif" font-size="10.00">GameState::upsertMonster</text>
</a>
</g>
</g>
<!-- Node1&#45;&gt;Node29 -->
<g id="edge33_Node000001_Node000029" class="edge">
<title>Node1&#45;&gt;Node29</title>
<g id="a_edge33_Node000001_Node000029"><a xlink:title=" ">
<path fill="none" stroke="#63b8ff" d="M88.96,-246.25C100.77,-208.73 136.57,-111.59 203,-64.5 205.09,-63.02 207.28,-61.65 209.54,-60.39"/>
<polygon fill="#63b8ff" stroke="#63b8ff" points="211.08,-63.54 218.58,-56.05 208.05,-57.22 211.08,-63.54"/>
</a>
</g>
</g>
<!-- Node30 -->
<g id="Node000030" class="node">
<title>Node30</title>
<g id="a_Node000030"><a xlink:href="classGameState.html#a9f034439dd565e62cb83be4ac56baba1" target="_top" xlink:title="Insert or update a player entry.">
<polygon fill="white" stroke="#666666" points="360.5,-19 221.5,-19 221.5,0 360.5,0 360.5,-19"/>
<text text-anchor="middle" x="291" y="-7" font-family="Helvetica,sans-Serif" font-size="10.00">GameState::upsertPlayer</text>
</a>
</g>
</g>
<!-- Node1&#45;&gt;Node30 -->
<g id="edge34_Node000001_Node000030" class="edge">
<title>Node1&#45;&gt;Node30</title>
<g id="a_edge34_Node000001_Node000030"><a xlink:title=" ">
<path fill="none" stroke="#63b8ff" d="M87.44,-246.28C96.41,-204.13 127.59,-85.19 203,-27.5 205.84,-25.33 208.88,-23.4 212.07,-21.69"/>
<polygon fill="#63b8ff" stroke="#63b8ff" points="213.72,-24.78 221.35,-17.43 210.81,-18.42 213.72,-24.78"/>
</a>
</g>
</g>
<!-- Node14 -->
<g id="Node000014" class="node">
<title>Node14</title>
<g id="a_Node000014"><a xlink:href="namespaceProtocol.html#a10005c44787f8de2a0e42d395aff8baa" target="_top" xlink:title="Try to extract a complete packet from an accumulated stream buffer.">
<polygon fill="white" stroke="#666666" points="1148,-489 997,-489 997,-470 1148,-470 1148,-489"/>
<text text-anchor="middle" x="1072.5" y="-477" font-family="Helvetica,sans-Serif" font-size="10.00">Protocol::extractFromBuffer</text>
</a>
</g>
</g>
<!-- Node13&#45;&gt;Node14 -->
<g id="edge13_Node000013_Node000014" class="edge">
<title>Node13&#45;&gt;Node14</title>
<g id="a_edge13_Node000013_Node000014"><a xlink:title=" ">
<path fill="none" stroke="#63b8ff" d="M360.64,-405.08C367.07,-407.33 373.31,-410.1 379,-413.5 400.39,-426.29 392.6,-445.56 415,-456.5 513.17,-504.45 832.13,-493.51 986.4,-484.97"/>
<polygon fill="#63b8ff" stroke="#63b8ff" points="986.98,-488.44 996.77,-484.39 986.58,-481.45 986.98,-488.44"/>
</a>
</g>
</g>
<!-- Node16 -->
<g id="Node000016" class="node">
<title>Node16</title>
<g id="a_Node000016"><a xlink:href="classNetworkClient.html#a5bc6fcb253ac9f9d74c649cb4b30d546" target="_top" xlink:title=" ">
<polygon fill="white" stroke="#666666" points="568,-410.5 427,-410.5 427,-380.5 568,-380.5 568,-410.5"/>
<text text-anchor="start" x="435" y="-398.5" font-family="Helvetica,sans-Serif" font-size="10.00">NetworkClient::handleTcp</text>
<text text-anchor="middle" x="497.5" y="-387.5" font-family="Helvetica,sans-Serif" font-size="10.00">Packet</text>
</a>
</g>
</g>
<!-- Node13&#45;&gt;Node16 -->
<g id="edge15_Node000013_Node000016" class="edge">
<title>Node13&#45;&gt;Node16</title>
<g id="a_edge15_Node000013_Node000016"><a xlink:title=" ">
<path fill="none" stroke="#63b8ff" d="M364.67,-395.5C381.41,-395.5 399.3,-395.5 416.33,-395.5"/>
<polygon fill="#63b8ff" stroke="#63b8ff" points="416.8,-399 426.8,-395.5 416.8,-392 416.8,-399"/>
</a>
</g>
</g>
<!-- Node22 -->
<g id="Node000022" class="node">
<title>Node22</title>
<g id="a_Node000022"><a xlink:href="classNetworkClient.html#acfb90d5461a5eb3826a710d6394faba0" target="_top" xlink:title=" ">
<polygon fill="white" stroke="#666666" points="570,-536.5 425,-536.5 425,-506.5 570,-506.5 570,-536.5"/>
<text text-anchor="start" x="433" y="-524.5" font-family="Helvetica,sans-Serif" font-size="10.00">NetworkClient::handleUdp</text>
<text text-anchor="middle" x="497.5" y="-513.5" font-family="Helvetica,sans-Serif" font-size="10.00">Packet</text>
</a>
</g>
</g>
<!-- Node13&#45;&gt;Node22 -->
<g id="edge22_Node000013_Node000022" class="edge">
<title>Node13&#45;&gt;Node22</title>
<g id="a_edge22_Node000013_Node000022"><a xlink:title=" ">
<path fill="none" stroke="#63b8ff" d="M364.71,-404.86C369.82,-407.19 374.66,-410.04 379,-413.5 409.16,-437.57 386.57,-466.41 415,-492.5 418.78,-495.97 422.99,-499.02 427.47,-501.72"/>
<polygon fill="#63b8ff" stroke="#63b8ff" points="425.87,-504.83 436.34,-506.47 429.18,-498.66 425.87,-504.83"/>
</a>
</g>
</g>
<!-- Node24 -->
<g id="Node000024" class="node">
<title>Node24</title>
<g id="a_Node000024"><a xlink:href="classNetworkClient.html#ac0dca5641be17084ead40825063b944e" target="_top" xlink:title=" ">
<polygon fill="white" stroke="#666666" points="578,-448 417,-448 417,-429 578,-429 578,-448"/>
<text text-anchor="middle" x="497.5" y="-436" font-family="Helvetica,sans-Serif" font-size="10.00">NetworkClient::readTcpPacket</text>
</a>
</g>
</g>
<!-- Node13&#45;&gt;Node24 -->
<g id="edge24_Node000013_Node000024" class="edge">
<title>Node13&#45;&gt;Node24</title>
<g id="a_edge24_Node000013_Node000024"><a xlink:title=" ">
<path fill="none" stroke="#63b8ff" d="M338.52,-405.07C351.61,-407.78 365.87,-410.74 379,-413.5 399.6,-417.82 422.23,-422.62 442.08,-426.85"/>
<polygon fill="#63b8ff" stroke="#63b8ff" points="441.37,-430.28 451.88,-428.94 442.83,-423.44 441.37,-430.28"/>
</a>
</g>
</g>
<!-- Node27 -->
<g id="Node000027" class="node">
<title>Node27</title>
<g id="a_Node000027"><a xlink:href="classNetworkClient.html#a101f6ab85ee02ddb9d45a40dad603e29" target="_top" xlink:title=" ">
<polygon fill="white" stroke="#666666" points="580,-574 415,-574 415,-555 580,-555 580,-574"/>
<text text-anchor="middle" x="497.5" y="-562" font-family="Helvetica,sans-Serif" font-size="10.00">NetworkClient::readUdpPacket</text>
</a>
</g>
</g>
<!-- Node13&#45;&gt;Node27 -->
<g id="edge29_Node000013_Node000027" class="edge">
<title>Node13&#45;&gt;Node27</title>
<g id="a_edge29_Node000013_Node000027"><a xlink:title=" ">
<path fill="none" stroke="#63b8ff" d="M364.53,-403.7C369.81,-406.27 374.73,-409.49 379,-413.5 423.32,-455.14 371.21,-503.31 415,-545.5 416.49,-546.94 418.07,-548.27 419.72,-549.51"/>
<polygon fill="#63b8ff" stroke="#63b8ff" points="418.16,-552.67 428.5,-554.96 421.85,-546.72 418.16,-552.67"/>
</a>
</g>
</g>
<!-- Node15 -->
<g id="Node000015" class="node">
<title>Node15</title>
<g id="a_Node000015"><a xlink:href="classPacket.html#abfcd427a2ca434ac71592334517638fb" target="_top" xlink:title="Deserialize a packet from a raw byte buffer.">
<polygon fill="white" stroke="#666666" points="1291,-529 1184,-529 1184,-510 1291,-510 1291,-529"/>
<text text-anchor="middle" x="1237.5" y="-517" font-family="Helvetica,sans-Serif" font-size="10.00">Packet::deserialize</text>
</a>
</g>
</g>
<!-- Node14&#45;&gt;Node15 -->
<g id="edge14_Node000014_Node000015" class="edge">
<title>Node14&#45;&gt;Node15</title>
<g id="a_edge14_Node000014_Node000015"><a xlink:title=" ">
<path fill="none" stroke="#63b8ff" d="M1112.54,-489.08C1135.12,-494.62 1163.74,-501.64 1187.78,-507.54"/>
<polygon fill="#63b8ff" stroke="#63b8ff" points="1187.23,-511.01 1197.78,-510 1188.9,-504.21 1187.23,-511.01"/>
</a>
</g>
</g>
<!-- Node16&#45;&gt;Node5 -->
<g id="edge16_Node000016_Node000005" class="edge">
<title>Node16&#45;&gt;Node5</title>
<g id="a_edge16_Node000016_Node000005"><a xlink:title=" ">
<path fill="none" stroke="#63b8ff" d="M568.26,-381.14C589.2,-376.83 611.9,-372.16 631.85,-368.06"/>
<polygon fill="#63b8ff" stroke="#63b8ff" points="632.61,-371.47 641.7,-366.03 631.2,-364.62 632.61,-371.47"/>
</a>
</g>
</g>
<!-- Node17 -->
<g id="Node000017" class="node">
<title>Node17</title>
<g id="a_Node000017"><a xlink:href="classNetworkClient.html#a28a515bbb5f6f75d6603a5332c217f93" target="_top" xlink:title="Send TCP PONG in response to server PING.">
<polygon fill="white" stroke="#666666" points="759,-403 619,-403 619,-384 759,-384 759,-403"/>
<text text-anchor="middle" x="689" y="-391" font-family="Helvetica,sans-Serif" font-size="10.00">NetworkClient::sendPong</text>
</a>
</g>
</g>
<!-- Node16&#45;&gt;Node17 -->
<g id="edge17_Node000016_Node000017" class="edge">
<title>Node16&#45;&gt;Node17</title>
<g id="a_edge17_Node000016_Node000017"><a xlink:title=" ">
<path fill="none" stroke="#63b8ff" d="M568.26,-394.76C581.37,-394.63 595.18,-394.48 608.57,-394.34"/>
<polygon fill="#63b8ff" stroke="#63b8ff" points="608.75,-397.84 618.71,-394.23 608.67,-390.84 608.75,-397.84"/>
</a>
</g>
</g>
<!-- Node18 -->
<g id="Node000018" class="node">
<title>Node18</title>
<g id="a_Node000018"><a xlink:href="classNetworkClient.html#af150c1b7e0aa8c19cb337fb838479324" target="_top" xlink:title=" ">
<polygon fill="white" stroke="#666666" points="961,-403 798,-403 798,-384 961,-384 961,-403"/>
<text text-anchor="middle" x="879.5" y="-391" font-family="Helvetica,sans-Serif" font-size="10.00">NetworkClient::sendPacketTcp</text>
</a>
</g>
</g>
<!-- Node17&#45;&gt;Node18 -->
<g id="edge18_Node000017_Node000018" class="edge">
<title>Node17&#45;&gt;Node18</title>
<g id="a_edge18_Node000017_Node000018"><a xlink:title=" ">
<path fill="none" stroke="#63b8ff" d="M759.12,-393.5C768.48,-393.5 778.19,-393.5 787.86,-393.5"/>
<polygon fill="#63b8ff" stroke="#63b8ff" points="787.89,-397 797.89,-393.5 787.89,-390 787.89,-397"/>
</a>
</g>
</g>
<!-- Node19 -->
<g id="Node000019" class="node">
<title>Node19</title>
<g id="a_Node000019"><a xlink:href="namespaceProtocol.html#a668bdeed219432868fca095e1b2f2667" target="_top" xlink:title="Build a TCP framed buffer (2 bytes length + serialized packet).">
<polygon fill="white" stroke="#666666" points="1126,-385 1019,-385 1019,-366 1126,-366 1126,-385"/>
<text text-anchor="middle" x="1072.5" y="-373" font-family="Helvetica,sans-Serif" font-size="10.00">Protocol::frameTcp</text>
</a>
</g>
</g>
<!-- Node18&#45;&gt;Node19 -->
<g id="edge19_Node000018_Node000019" class="edge">
<title>Node18&#45;&gt;Node19</title>
<g id="a_edge19_Node000018_Node000019"><a xlink:title=" ">
<path fill="none" stroke="#63b8ff" d="M961.22,-385.89C977.02,-384.4 993.38,-382.86 1008.5,-381.44"/>
<polygon fill="#63b8ff" stroke="#63b8ff" points="1009.12,-384.89 1018.74,-380.47 1008.46,-377.93 1009.12,-384.89"/>
</a>
</g>
</g>
<!-- Node21 -->
<g id="Node000021" class="node">
<title>Node21</title>
<g id="a_Node000021"><a xlink:href="classNetworkClient.html#a844f1f20acd0958f264c7bb67e18d111" target="_top" xlink:title=" ">
<polygon fill="white" stroke="#666666" points="1137.5,-422 1007.5,-422 1007.5,-403 1137.5,-403 1137.5,-422"/>
<text text-anchor="middle" x="1072.5" y="-410" font-family="Helvetica,sans-Serif" font-size="10.00">NetworkClient::writeAll</text>
</a>
</g>
</g>
<!-- Node18&#45;&gt;Node21 -->
<g id="edge21_Node000018_Node000021" class="edge">
<title>Node18&#45;&gt;Node21</title>
<g id="a_edge21_Node000018_Node000021"><a xlink:title=" ">
<path fill="none" stroke="#63b8ff" d="M961.22,-401.53C973.11,-402.71 985.32,-403.93 997.07,-405.1"/>
<polygon fill="#63b8ff" stroke="#63b8ff" points="996.97,-408.6 1007.27,-406.11 997.67,-401.64 996.97,-408.6"/>
</a>
</g>
</g>
<!-- Node20 -->
<g id="Node000020" class="node">
<title>Node20</title>
<g id="a_Node000020"><a xlink:href="classPacket.html#aa88c2d28796644c8a1d6137996502ca8" target="_top" xlink:title="Serialize the packet to a byte buffer ready to send.">
<polygon fill="white" stroke="#666666" points="1285,-385 1190,-385 1190,-366 1285,-366 1285,-385"/>
<text text-anchor="middle" x="1237.5" y="-373" font-family="Helvetica,sans-Serif" font-size="10.00">Packet::serialize</text>
</a>
</g>
</g>
<!-- Node19&#45;&gt;Node20 -->
<g id="edge20_Node000019_Node000020" class="edge">
<title>Node19&#45;&gt;Node20</title>
<g id="a_edge20_Node000019_Node000020"><a xlink:title=" ">
<path fill="none" stroke="#63b8ff" d="M1126.42,-375.5C1143.36,-375.5 1162.18,-375.5 1179.4,-375.5"/>
<polygon fill="#63b8ff" stroke="#63b8ff" points="1179.88,-379 1189.88,-375.5 1179.88,-372 1179.88,-379"/>
</a>
</g>
</g>
<!-- Node23 -->
<g id="Node000023" class="node">
<title>Node23</title>
<g id="a_Node000023"><a xlink:href="classNetworkClient.html#aaf60f1216a17b46ad12539625a1022c2" target="_top" xlink:title=" ">
<polygon fill="white" stroke="#666666" points="752.5,-531 625.5,-531 625.5,-512 752.5,-512 752.5,-531"/>
<text text-anchor="middle" x="689" y="-519" font-family="Helvetica,sans-Serif" font-size="10.00">NetworkClient::nowMs</text>
</a>
</g>
</g>
<!-- Node22&#45;&gt;Node23 -->
<g id="edge23_Node000022_Node000023" class="edge">
<title>Node22&#45;&gt;Node23</title>
<g id="a_edge23_Node000022_Node000023"><a xlink:title=" ">
<path fill="none" stroke="#63b8ff" d="M570.14,-521.5C584.87,-521.5 600.4,-521.5 615.17,-521.5"/>
<polygon fill="#63b8ff" stroke="#63b8ff" points="615.26,-525 625.26,-521.5 615.26,-518 615.26,-525"/>
</a>
</g>
</g>
<!-- Node24&#45;&gt;Node5 -->
<g id="edge25_Node000024_Node000005" class="edge">
<title>Node24&#45;&gt;Node5</title>
<g id="a_edge25_Node000024_Node000005"><a xlink:title=" ">
<path fill="none" stroke="#63b8ff" d="M559.95,-428.92C567,-426.46 573.86,-423.37 580,-419.5 601.67,-405.84 594.44,-388.33 616,-374.5 618.57,-372.85 621.29,-371.35 624.1,-369.99"/>
<polygon fill="#63b8ff" stroke="#63b8ff" points="625.48,-373.2 633.33,-366.09 622.75,-366.75 625.48,-373.2"/>
</a>
</g>
</g>
<!-- Node25 -->
<g id="Node000025" class="node">
<title>Node25</title>
<g id="a_Node000025"><a xlink:href="classNetworkClient.html#ab8fe1bfbcfc0f363bce00cb1dc2a2f88" target="_top" xlink:title=" ">
<polygon fill="white" stroke="#666666" points="761,-451.5 617,-451.5 617,-421.5 761,-421.5 761,-451.5"/>
<text text-anchor="start" x="625" y="-439.5" font-family="Helvetica,sans-Serif" font-size="10.00">NetworkClient::receiveTcp</text>
<text text-anchor="middle" x="689" y="-428.5" font-family="Helvetica,sans-Serif" font-size="10.00">Framed</text>
</a>
</g>
</g>
<!-- Node24&#45;&gt;Node25 -->
<g id="edge26_Node000024_Node000025" class="edge">
<title>Node24&#45;&gt;Node25</title>
<g id="a_edge26_Node000024_Node000025"><a xlink:title=" ">
<path fill="none" stroke="#63b8ff" d="M578.04,-437.66C587.49,-437.56 597.14,-437.46 606.61,-437.36"/>
<polygon fill="#63b8ff" stroke="#63b8ff" points="606.84,-440.86 616.8,-437.25 606.77,-433.86 606.84,-440.86"/>
</a>
</g>
</g>
<!-- Node26 -->
<g id="Node000026" class="node">
<title>Node26</title>
<g id="a_Node000026"><a xlink:href="namespaceProtocol.html#ad768525ca5f0324a5f414440e67679b6" target="_top" xlink:title="Append newly read bytes then attempt extraction.">
<polygon fill="white" stroke="#666666" points="948,-449 811,-449 811,-430 948,-430 948,-449"/>
<text text-anchor="middle" x="879.5" y="-437" font-family="Helvetica,sans-Serif" font-size="10.00">Protocol::consumeChunk</text>
</a>
</g>
</g>
<!-- Node25&#45;&gt;Node26 -->
<g id="edge27_Node000025_Node000026" class="edge">
<title>Node25&#45;&gt;Node26</title>
<g id="a_edge27_Node000025_Node000026"><a xlink:title=" ">
<path fill="none" stroke="#63b8ff" d="M761.26,-437.63C774.1,-437.84 787.54,-438.05 800.55,-438.26"/>
<polygon fill="#63b8ff" stroke="#63b8ff" points="800.82,-441.76 810.87,-438.42 800.93,-434.76 800.82,-441.76"/>
</a>
</g>
</g>
<!-- Node26&#45;&gt;Node14 -->
<g id="edge28_Node000026_Node000014" class="edge">
<title>Node26&#45;&gt;Node14</title>
<g id="a_edge28_Node000026_Node000014"><a xlink:title=" ">
<path fill="none" stroke="#63b8ff" d="M926.25,-449.08C953.3,-454.75 987.74,-461.96 1016.29,-467.94"/>
<polygon fill="#63b8ff" stroke="#63b8ff" points="1015.62,-471.37 1026.12,-470 1017.05,-464.52 1015.62,-471.37"/>
</a>
</g>
</g>
<!-- Node27&#45;&gt;Node15 -->
<g id="edge30_Node000027_Node000015" class="edge">
<title>Node27&#45;&gt;Node15</title>
<g id="a_edge30_Node000027_Node000015"><a xlink:title=" ">
<path fill="none" stroke="#63b8ff" d="M580.3,-559.51C728.98,-550.45 1040.46,-531.45 1173.78,-523.32"/>
<polygon fill="#63b8ff" stroke="#63b8ff" points="1174.06,-526.81 1183.83,-522.71 1173.64,-519.83 1174.06,-526.81"/>
</a>
</g>
</g>
<!-- Node27&#45;&gt;Node23 -->
<g id="edge31_Node000027_Node000023" class="edge">
<title>Node27&#45;&gt;Node23</title>
<g id="a_edge31_Node000027_Node000023"><a xlink:title=" ">
<path fill="none" stroke="#63b8ff" d="M540.56,-554.96C568.77,-548.55 606.12,-540.08 636.17,-533.26"/>
<polygon fill="#63b8ff" stroke="#63b8ff" points="637.08,-536.64 646.06,-531.02 635.53,-529.82 637.08,-536.64"/>
</a>
</g>
</g>
<!-- Node28 -->
<g id="Node000028" class="node">
<title>Node28</title>
<g id="a_Node000028"><a xlink:href="classNetworkClient.html#a36892dcdc8c2523b27947a347ea16022" target="_top" xlink:title=" ">
<polygon fill="white" stroke="#666666" points="762,-617.5 616,-617.5 616,-587.5 762,-587.5 762,-617.5"/>
<text text-anchor="start" x="624" y="-605.5" font-family="Helvetica,sans-Serif" font-size="10.00">NetworkClient::updateUdp</text>
<text text-anchor="middle" x="689" y="-594.5" font-family="Helvetica,sans-Serif" font-size="10.00">Rates</text>
</a>
</g>
</g>
<!-- Node27&#45;&gt;Node28 -->
<g id="edge32_Node000027_Node000028" class="edge">
<title>Node27&#45;&gt;Node28</title>
<g id="a_edge32_Node000027_Node000028"><a xlink:title=" ">
<path fill="none" stroke="#63b8ff" d="M546.32,-574.09C564.41,-577.72 585.56,-581.96 605.91,-586.04"/>
<polygon fill="#63b8ff" stroke="#63b8ff" points="605.32,-589.49 615.82,-588.03 606.7,-582.63 605.32,-589.49"/>
</a>
</g>
</g>
</g>
</svg>
