<?xml version="1.0" encoding="UTF-8" standalone="no"?>
<!DOCTYPE svg PUBLIC "-//W3C//DTD SVG 1.1//EN"
 "http://www.w3.org/Graphics/SVG/1.1/DTD/svg11.dtd">
<!-- Generated by graphviz version 2.43.0 (0)
 -->
<!-- Title: NetworkClient::updateUdpRates Pages: 1 -->
<svg width="1324pt" height="245pt"
 viewBox="0.00 0.00 1324.00 244.90" xmlns="http://www.w3.org/2000/svg" xmlns:xlink="http://www.w3.org/1999/xlink">
<g id="graph0" class="graph" transform="scale(1 1) rotate(0) translate(4 240.9)">
<title>NetworkClient::updateUdpRates</title>
<!-- Node1 -->
<g id="Node000001" class="node">
<title>Node1</title>
<g id="a_Node000001"><a xlink:title=" ">
<polygon fill="#999999" stroke="#666666" points="1316,-81.5 1170,-81.5 1170,-51.5 1316,-51.5 1316,-81.5"/>
<text text-anchor="start" x="1178" y="-69.5" font-family="Helvetica,sans-Serif" font-size="10.00">NetworkClient::updateUdp</text>
<text text-anchor="middle" x="1243" y="-58.5" font-family="Helvetica,sans-Serif" font-size="10.00">Rates</text>
</a>
</g>
</g>
<!-- Node2 -->
<g id="Node000002" class="node">
<title>Node2</title>
<g id="a_Node000002"><a xlink:href="classNetworkClient.html#a14ed76e74eea78d36e9009129f641f79" target="_top" xlink:title="Get current UDP receive rate in Kbps.">
<polygon fill="white" stroke="#666666" points="1132.5,-58 968.5,-58 968.5,-39 1132.5,-39 1132.5,-58"/>
<text text-anchor="middle" x="1050.5" y="-46" font-family="Helvetica,sans-Serif" font-size="10.00">NetworkClient::getUdpRxKbps</text>
</a>
</g>
</g>
<!-- Node1&#45;&gt;Node2 -->
<g id="edge1_Node000001_Node000002" class="edge">
<title>Node1&#45;&gt;Node2</title>
<g id="a_edge1_Node000001_Node000002"><a xlink:title=" ">
<path fill="none" stroke="#63b8ff" d="M1159.85,-58.74C1150.8,-57.88 1141.59,-57.01 1132.56,-56.16"/>
<polygon fill="#63b8ff" stroke="#63b8ff" points="1159.7,-62.24 1169.98,-59.69 1160.35,-55.27 1159.7,-62.24"/>
</a>
</g>
</g>
<!-- Node7 -->
<g id="Node000007" class="node">
<title>Node7</title>
<g id="a_Node000007"><a xlink:href="classNetworkClient.html#ad5c06bb19f3f5959f30bc383d89cb6e4" target="_top" xlink:title="Get current UDP transmit rate in Kbps.">
<polygon fill="white" stroke="#666666" points="1132.5,-20 968.5,-20 968.5,-1 1132.5,-1 1132.5,-20"/>
<text text-anchor="middle" x="1050.5" y="-8" font-family="Helvetica,sans-Serif" font-size="10.00">NetworkClient::getUdpTxKbps</text>
</a>
</g>
</g>
<!-- Node1&#45;&gt;Node7 -->
<g id="edge6_Node000001_Node000007" class="edge">
<title>Node1&#45;&gt;Node7</title>
<g id="a_edge6_Node000001_Node000007"><a xlink:title=" ">
<path fill="none" stroke="#63b8ff" d="M1191.56,-48.01C1173.53,-41.72 1152.97,-34.92 1134,-29.5 1121.99,-26.07 1108.86,-22.82 1096.67,-20.01"/>
<polygon fill="#63b8ff" stroke="#63b8ff" points="1190.69,-51.41 1201.29,-51.44 1193.02,-44.81 1190.69,-51.41"/>
</a>
</g>
</g>
<!-- Node8 -->
<g id="Node000008" class="node">
<title>Node8</title>
<g id="a_Node000008"><a xlink:href="classNetworkClient.html#a101f6ab85ee02ddb9d45a40dad603e29" target="_top" xlink:title=" ">
<polygon fill="white" stroke="#666666" points="1133,-170 968,-170 968,-151 1133,-151 1133,-170"/>
<text text-anchor="middle" x="1050.5" y="-158" font-family="Helvetica,sans-Serif" font-size="10.00">NetworkClient::readUdpPacket</text>
</a>
</g>
</g>
<!-- Node1&#45;&gt;Node8 -->
<g id="edge8_Node000001_Node000008" class="edge">
<title>Node1&#45;&gt;Node8</title>
<g id="a_edge8_Node000001_Node000008"><a xlink:title=" ">
<path fill="none" stroke="#63b8ff" d="M1202.4,-86.04C1162.24,-105.86 1101.76,-135.7 1070.98,-150.89"/>
<polygon fill="#63b8ff" stroke="#63b8ff" points="1203.97,-89.17 1211.39,-81.6 1200.88,-82.89 1203.97,-89.17"/>
</a>
</g>
</g>
<!-- Node13 -->
<g id="Node000013" class="node">
<title>Node13</title>
<g id="a_Node000013"><a xlink:href="classNetworkClient.html#a6c612ab362cc3e4ea8c94ebc2cddc4e6" target="_top" xlink:title=" ">
<polygon fill="white" stroke="#666666" points="1134,-95 967,-95 967,-76 1134,-76 1134,-95"/>
<text text-anchor="middle" x="1050.5" y="-83" font-family="Helvetica,sans-Serif" font-size="10.00">NetworkClient::sendPacketUdp</text>
</a>
</g>
</g>
<!-- Node1&#45;&gt;Node13 -->
<g id="edge16_Node000001_Node000013" class="edge">
<title>Node1&#45;&gt;Node13</title>
<g id="a_edge16_Node000001_Node000013"><a xlink:title=" ">
<path fill="none" stroke="#63b8ff" d="M1160.01,-74.68C1151.45,-75.53 1142.74,-76.4 1134.17,-77.26"/>
<polygon fill="#63b8ff" stroke="#63b8ff" points="1160.38,-78.16 1169.98,-73.68 1159.68,-71.19 1160.38,-78.16"/>
</a>
</g>
</g>
<!-- Node3 -->
<g id="Node000003" class="node">
<title>Node3</title>
<g id="a_Node000003"><a xlink:href="classGraphicClient.html#ab0acd8f5b8996cc62295831d7af1cf59" target="_top" xlink:title="Renders the entire game scene.">
<polygon fill="white" stroke="#666666" points="919.5,-19 799.5,-19 799.5,0 919.5,0 919.5,-19"/>
<text text-anchor="middle" x="859.5" y="-7" font-family="Helvetica,sans-Serif" font-size="10.00">GraphicClient::render</text>
</a>
</g>
</g>
<!-- Node2&#45;&gt;Node3 -->
<g id="edge2_Node000002_Node000003" class="edge">
<title>Node2&#45;&gt;Node3</title>
<g id="a_edge2_Node000002_Node000003"><a xlink:title=" ">
<path fill="none" stroke="#63b8ff" d="M993.34,-36.91C965.68,-31.2 932.74,-24.41 906.58,-19.01"/>
<polygon fill="#63b8ff" stroke="#63b8ff" points="992.76,-40.37 1003.27,-38.96 994.18,-33.51 992.76,-40.37"/>
</a>
</g>
</g>
<!-- Node4 -->
<g id="Node000004" class="node">
<title>Node4</title>
<g id="a_Node000004"><a xlink:href="classGraphicClient.html#a5cb5c37142e62f04824cc6e21dd199b2" target="_top" xlink:title="Main game loop iteration.">
<polygon fill="white" stroke="#666666" points="357,-113 217,-113 217,-94 357,-94 357,-113"/>
<text text-anchor="middle" x="287" y="-101" font-family="Helvetica,sans-Serif" font-size="10.00">GraphicClient::gameLoop</text>
</a>
</g>
</g>
<!-- Node3&#45;&gt;Node4 -->
<g id="edge3_Node000003_Node000004" class="edge">
<title>Node3&#45;&gt;Node4</title>
<g id="a_edge3_Node000003_Node000004"><a xlink:title=" ">
<path fill="none" stroke="#63b8ff" d="M789.23,-5.41C696.74,-2.02 528.83,-3.18 393,-44.5 356.99,-55.45 319.71,-80.17 300.75,-93.88"/>
<polygon fill="#63b8ff" stroke="#63b8ff" points="789.17,-8.91 799.3,-5.81 789.45,-1.91 789.17,-8.91"/>
</a>
</g>
</g>
<!-- Node5 -->
<g id="Node000005" class="node">
<title>Node5</title>
<g id="a_Node000005"><a xlink:href="classGraphicClient.html#ad39a5f1d7ec30752f8d412d6925ef109" target="_top" xlink:title="Main application loop.">
<polygon fill="white" stroke="#666666" points="181,-131 77,-131 77,-112 181,-112 181,-131"/>
<text text-anchor="middle" x="129" y="-119" font-family="Helvetica,sans-Serif" font-size="10.00">GraphicClient::run</text>
</a>
</g>
</g>
<!-- Node4&#45;&gt;Node5 -->
<g id="edge4_Node000004_Node000005" class="edge">
<title>Node4&#45;&gt;Node5</title>
<g id="a_edge4_Node000004_Node000005"><a xlink:title=" ">
<path fill="none" stroke="#63b8ff" d="M206.6,-112.66C198.02,-113.65 189.46,-114.64 181.33,-115.58"/>
<polygon fill="#63b8ff" stroke="#63b8ff" points="207.13,-116.12 216.67,-111.5 206.33,-109.17 207.13,-116.12"/>
</a>
</g>
</g>
<!-- Node6 -->
<g id="Node000006" class="node">
<title>Node6</title>
<g id="a_Node000006"><a xlink:href="client_8cpp.html#ae66f6b31b5ad750f1fe042a706a4e3d4" target="_top" xlink:title=" ">
<polygon fill="white" stroke="#666666" points="41,-131 0,-131 0,-112 41,-112 41,-131"/>
<text text-anchor="middle" x="20.5" y="-119" font-family="Helvetica,sans-Serif" font-size="10.00">main</text>
</a>
</g>
</g>
<!-- Node5&#45;&gt;Node6 -->
<g id="edge5_Node000005_Node000006" class="edge">
<title>Node5&#45;&gt;Node6</title>
<g id="a_edge5_Node000005_Node000006"><a xlink:title=" ">
<path fill="none" stroke="#63b8ff" d="M66.83,-121.5C57.58,-121.5 48.66,-121.5 41.22,-121.5"/>
<polygon fill="#63b8ff" stroke="#63b8ff" points="66.93,-125 76.93,-121.5 66.93,-118 66.93,-125"/>
</a>
</g>
</g>
<!-- Node7&#45;&gt;Node3 -->
<g id="edge7_Node000007_Node000003" class="edge">
<title>Node7&#45;&gt;Node3</title>
<g id="a_edge7_Node000007_Node000003"><a xlink:title=" ">
<path fill="none" stroke="#63b8ff" d="M957.88,-10.02C944.9,-9.95 931.85,-9.88 919.71,-9.81"/>
<polygon fill="#63b8ff" stroke="#63b8ff" points="958.23,-13.52 968.25,-10.07 958.27,-6.52 958.23,-13.52"/>
</a>
</g>
</g>
<!-- Node9 -->
<g id="Node000009" class="node">
<title>Node9</title>
<g id="a_Node000009"><a xlink:href="classNetworkClient.html#a1f77ff0729755d9782b4542582cfe214" target="_top" xlink:title="Poll TCP/UDP sockets and handle any received packets.">
<polygon fill="white" stroke="#666666" points="747.5,-215 600.5,-215 600.5,-196 747.5,-196 747.5,-215"/>
<text text-anchor="middle" x="674" y="-203" font-family="Helvetica,sans-Serif" font-size="10.00">NetworkClient::pollPackets</text>
</a>
</g>
</g>
<!-- Node8&#45;&gt;Node9 -->
<g id="edge9_Node000008_Node000009" class="edge">
<title>Node8&#45;&gt;Node9</title>
<g id="a_edge9_Node000008_Node000009"><a xlink:title=" ">
<path fill="none" stroke="#63b8ff" d="M959.85,-171.27C894.92,-179.07 808.26,-189.49 747.64,-196.77"/>
<polygon fill="#63b8ff" stroke="#63b8ff" points="960.57,-174.71 970.08,-170.04 959.73,-167.76 960.57,-174.71"/>
</a>
</g>
</g>
<!-- Node10 -->
<g id="Node000010" class="node">
<title>Node10</title>
<g id="a_Node000010"><a xlink:href="classGraphicClient.html#a4b416d0d2b3f07134ce30afb0c60adbe" target="_top" xlink:title="Initializes the client (connects to server, shows menus).">
<polygon fill="white" stroke="#666666" points="339,-184 235,-184 235,-165 339,-165 339,-184"/>
<text text-anchor="middle" x="287" y="-172" font-family="Helvetica,sans-Serif" font-size="10.00">GraphicClient::init</text>
</a>
</g>
</g>
<!-- Node9&#45;&gt;Node10 -->
<g id="edge10_Node000009_Node000010" class="edge">
<title>Node9&#45;&gt;Node10</title>
<g id="a_edge10_Node000009_Node000010"><a xlink:title=" ">
<path fill="none" stroke="#63b8ff" d="M628.05,-217.48C572.18,-230.44 474.27,-246.85 393,-227.5 357.84,-219.13 321.11,-197 301.78,-184.14"/>
<polygon fill="#63b8ff" stroke="#63b8ff" points="629.07,-220.83 637.98,-215.1 627.44,-214.02 629.07,-220.83"/>
</a>
</g>
</g>
<!-- Node11 -->
<g id="Node000011" class="node">
<title>Node11</title>
<g id="a_Node000011"><a xlink:href="classGraphicClient.html#a1fa2cfd0c71b32b0b1f0e0675a2e1cb2" target="_top" xlink:title="Processes network events and updates game state.">
<polygon fill="white" stroke="#666666" points="560,-180.5 393,-180.5 393,-150.5 560,-150.5 560,-180.5"/>
<text text-anchor="start" x="401" y="-168.5" font-family="Helvetica,sans-Serif" font-size="10.00">GraphicClient::processNetwork</text>
<text text-anchor="middle" x="476.5" y="-157.5" font-family="Helvetica,sans-Serif" font-size="10.00">Events</text>
</a>
</g>
</g>
<!-- Node9&#45;&gt;Node11 -->
<g id="edge12_Node000009_Node000011" class="edge">
<title>Node9&#45;&gt;Node11</title>
<g id="a_edge12_Node000009_Node000011"><a xlink:title=" ">
<path fill="none" stroke="#63b8ff" d="M616.14,-193.87C595.8,-189.71 572.59,-184.96 551.05,-180.55"/>
<polygon fill="#63b8ff" stroke="#63b8ff" points="615.67,-197.34 626.17,-195.92 617.08,-190.49 615.67,-197.34"/>
</a>
</g>
</g>
<!-- Node12 -->
<g id="Node000012" class="node">
<title>Node12</title>
<g id="a_Node000012"><a xlink:href="classGraphicClient.html#a70229e3e019e7b315f06c9ad74f23be5" target="_top" xlink:title="Shows lobby selection menu.">
<polygon fill="white" stroke="#666666" points="550,-218 403,-218 403,-199 550,-199 550,-218"/>
<text text-anchor="middle" x="476.5" y="-206" font-family="Helvetica,sans-Serif" font-size="10.00">GraphicClient::selectLobby</text>
</a>
</g>
</g>
<!-- Node9&#45;&gt;Node12 -->
<g id="edge14_Node000009_Node000012" class="edge">
<title>Node9&#45;&gt;Node12</title>
<g id="a_edge14_Node000009_Node000012"><a xlink:title=" ">
<path fill="none" stroke="#63b8ff" d="M590.37,-206.77C577.03,-206.97 563.31,-207.18 550.23,-207.38"/>
<polygon fill="#63b8ff" stroke="#63b8ff" points="590.54,-210.27 600.48,-206.61 590.43,-203.27 590.54,-210.27"/>
</a>
</g>
</g>
<!-- Node10&#45;&gt;Node5 -->
<g id="edge11_Node000010_Node000005" class="edge">
<title>Node10&#45;&gt;Node5</title>
<g id="a_edge11_Node000010_Node000005"><a xlink:title=" ">
<path fill="none" stroke="#63b8ff" d="M247.97,-161.58C220.2,-152.14 183.15,-139.56 158.04,-131.03"/>
<polygon fill="#63b8ff" stroke="#63b8ff" points="247.16,-165 257.75,-164.9 249.41,-158.37 247.16,-165"/>
</a>
</g>
</g>
<!-- Node11&#45;&gt;Node4 -->
<g id="edge13_Node000011_Node000004" class="edge">
<title>Node11&#45;&gt;Node4</title>
<g id="a_edge13_Node000011_Node000004"><a xlink:title=" ">
<path fill="none" stroke="#63b8ff" d="M411.71,-147.39C405.37,-145.45 399.05,-143.47 393,-141.5 365.35,-132.49 334.06,-120.99 312.88,-113.01"/>
<polygon fill="#63b8ff" stroke="#63b8ff" points="411.06,-150.85 421.65,-150.38 413.08,-144.14 411.06,-150.85"/>
</a>
</g>
</g>
<!-- Node12&#45;&gt;Node10 -->
<g id="edge15_Node000012_Node000010" class="edge">
<title>Node12&#45;&gt;Node10</title>
<g id="a_edge15_Node000012_Node000010"><a xlink:title=" ">
<path fill="none" stroke="#63b8ff" d="M412.71,-197.11C388.76,-192.77 361.77,-187.88 339.04,-183.76"/>
<polygon fill="#63b8ff" stroke="#63b8ff" points="412.31,-200.6 422.77,-198.94 413.56,-193.71 412.31,-200.6"/>
</a>
</g>
</g>
<!-- Node14 -->
<g id="Node000014" class="node">
<title>Node14</title>
<g id="a_Node000014"><a xlink:href="classNetworkClient.html#aeb3772e8f3674783b14953ee27e1cd39" target="_top" xlink:title="Send UDP hello to register address/port on server.">
<polygon fill="white" stroke="#666666" points="557,-132 396,-132 396,-113 557,-113 557,-132"/>
<text text-anchor="middle" x="476.5" y="-120" font-family="Helvetica,sans-Serif" font-size="10.00">NetworkClient::sendHelloUdp</text>
</a>
</g>
</g>
<!-- Node13&#45;&gt;Node14 -->
<g id="edge17_Node000013_Node000014" class="edge">
<title>Node13&#45;&gt;Node14</title>
<g id="a_edge17_Node000013_Node000014"><a xlink:title=" ">
<path fill="none" stroke="#63b8ff" d="M1026.21,-100.32C1003.09,-114.09 966.12,-133.62 931,-141.5 784.53,-174.37 604.92,-147.8 522.61,-132.05"/>
<polygon fill="#63b8ff" stroke="#63b8ff" points="1028.22,-103.2 1034.94,-95.01 1024.58,-97.22 1028.22,-103.2"/>
</a>
</g>
</g>
<!-- Node15 -->
<g id="Node000015" class="node">
<title>Node15</title>
<g id="a_Node000015"><a xlink:href="classNetworkClient.html#afdfce51c7dbb2e61f5e9280b15368915" target="_top" xlink:title="Send player input over UDP.">
<polygon fill="white" stroke="#666666" points="929.5,-95 789.5,-95 789.5,-76 929.5,-76 929.5,-95"/>
<text text-anchor="middle" x="859.5" y="-83" font-family="Helvetica,sans-Serif" font-size="10.00">NetworkClient::sendInput</text>
</a>
</g>
</g>
<!-- Node13&#45;&gt;Node15 -->
<g id="edge20_Node000013_Node000015" class="edge">
<title>Node13&#45;&gt;Node15</title>
<g id="a_edge20_Node000013_Node000015"><a xlink:title=" ">
<path fill="none" stroke="#63b8ff" d="M956.65,-85.5C947.56,-85.5 938.46,-85.5 929.67,-85.5"/>
<polygon fill="#63b8ff" stroke="#63b8ff" points="956.88,-89 966.88,-85.5 956.88,-82 956.88,-89"/>
</a>
</g>
</g>
<!-- Node18 -->
<g id="Node000018" class="node">
<title>Node18</title>
<g id="a_Node000018"><a xlink:href="classNetworkClient.html#a2773882369d758cbb23aa67b0dda78ed" target="_top" xlink:title="Send a shoot command over UDP.">
<polygon fill="white" stroke="#666666" points="931,-132 788,-132 788,-113 931,-113 931,-132"/>
<text text-anchor="middle" x="859.5" y="-120" font-family="Helvetica,sans-Serif" font-size="10.00">NetworkClient::sendShoot</text>
</a>
</g>
</g>
<!-- Node13&#45;&gt;Node18 -->
<g id="edge24_Node000013_Node000018" class="edge">
<title>Node13&#45;&gt;Node18</title>
<g id="a_edge24_Node000013_Node000018"><a xlink:title=" ">
<path fill="none" stroke="#63b8ff" d="M990.67,-97.02C964.56,-102.13 934.17,-108.08 909.34,-112.94"/>
<polygon fill="#63b8ff" stroke="#63b8ff" points="991.69,-100.38 1000.83,-95.03 990.34,-93.51 991.69,-100.38"/>
</a>
</g>
</g>
<!-- Node19 -->
<g id="Node000019" class="node">
<title>Node19</title>
<g id="a_Node000019"><a xlink:href="classNetworkClient.html#ad087f54b86ec34f0be29053415ab7a46" target="_top" xlink:title="Send a UDP ping with client timestamp.">
<polygon fill="white" stroke="#666666" points="752,-57 596,-57 596,-38 752,-38 752,-57"/>
<text text-anchor="middle" x="674" y="-45" font-family="Helvetica,sans-Serif" font-size="10.00">NetworkClient::sendUdpPing</text>
</a>
</g>
</g>
<!-- Node13&#45;&gt;Node19 -->
<g id="edge26_Node000013_Node000019" class="edge">
<title>Node13&#45;&gt;Node19</title>
<g id="a_edge26_Node000013_Node000019"><a xlink:title=" ">
<path fill="none" stroke="#63b8ff" d="M982.14,-74.4C965.46,-71.89 947.61,-69.41 931,-67.5 871.1,-60.62 803.04,-55.43 752.16,-52.06"/>
<polygon fill="#63b8ff" stroke="#63b8ff" points="981.94,-77.91 992.35,-75.96 983,-70.99 981.94,-77.91"/>
</a>
</g>
</g>
<!-- Node14&#45;&gt;Node4 -->
<g id="edge18_Node000014_Node000004" class="edge">
<title>Node14&#45;&gt;Node4</title>
<g id="a_edge18_Node000014_Node000004"><a xlink:title=" ">
<path fill="none" stroke="#63b8ff" d="M385.97,-113.43C376.32,-112.45 366.62,-111.47 357.26,-110.52"/>
<polygon fill="#63b8ff" stroke="#63b8ff" points="385.68,-116.92 395.98,-114.44 386.39,-109.95 385.68,-116.92"/>
</a>
</g>
</g>
<!-- Node14&#45;&gt;Node10 -->
<g id="edge19_Node000014_Node000010" class="edge">
<title>Node14&#45;&gt;Node10</title>
<g id="a_edge19_Node000014_Node000010"><a xlink:title=" ">
<path fill="none" stroke="#63b8ff" d="M421.46,-134.31C411.94,-136.57 402.16,-139.01 393,-141.5 366.82,-148.62 337.37,-157.99 316.34,-164.93"/>
<polygon fill="#63b8ff" stroke="#63b8ff" points="422.3,-137.71 431.24,-132.02 420.71,-130.89 422.3,-137.71"/>
</a>
</g>
</g>
<!-- Node16 -->
<g id="Node000016" class="node">
<title>Node16</title>
<g id="a_Node000016"><a xlink:href="classInputSystem.html#af7ed09c6bfd5fba6af86af16de00d706" target="_top" xlink:title="Updates input state and sends player commands to the server.">
<polygon fill="white" stroke="#666666" points="733,-95 615,-95 615,-76 733,-76 733,-95"/>
<text text-anchor="middle" x="674" y="-83" font-family="Helvetica,sans-Serif" font-size="10.00">InputSystem::update</text>
</a>
</g>
</g>
<!-- Node15&#45;&gt;Node16 -->
<g id="edge21_Node000015_Node000016" class="edge">
<title>Node15&#45;&gt;Node16</title>
<g id="a_edge21_Node000015_Node000016"><a xlink:title=" ">
<path fill="none" stroke="#63b8ff" d="M779.31,-85.5C763.85,-85.5 747.89,-85.5 733.26,-85.5"/>
<polygon fill="#63b8ff" stroke="#63b8ff" points="779.39,-89 789.39,-85.5 779.39,-82 779.39,-89"/>
</a>
</g>
</g>
<!-- Node17 -->
<g id="Node000017" class="node">
<title>Node17</title>
<g id="a_Node000017"><a xlink:href="classGraphicClient.html#a50072266faf2e76ace99e16c4c7b208a" target="_top" xlink:title="Updates all game entities based on delta time.">
<polygon fill="white" stroke="#666666" points="556,-95 397,-95 397,-76 556,-76 556,-95"/>
<text text-anchor="middle" x="476.5" y="-83" font-family="Helvetica,sans-Serif" font-size="10.00">GraphicClient::updateEntities</text>
</a>
</g>
</g>
<!-- Node16&#45;&gt;Node17 -->
<g id="edge22_Node000016_Node000017" class="edge">
<title>Node16&#45;&gt;Node17</title>
<g id="a_edge22_Node000016_Node000017"><a xlink:title=" ">
<path fill="none" stroke="#63b8ff" d="M604.72,-85.5C589,-85.5 572.15,-85.5 556.04,-85.5"/>
<polygon fill="#63b8ff" stroke="#63b8ff" points="604.87,-89 614.87,-85.5 604.87,-82 604.87,-89"/>
</a>
</g>
</g>
<!-- Node17&#45;&gt;Node4 -->
<g id="edge23_Node000017_Node000004" class="edge">
<title>Node17&#45;&gt;Node4</title>
<g id="a_edge23_Node000017_Node000004"><a xlink:title=" ">
<path fill="none" stroke="#63b8ff" d="M386.58,-94.04C376.74,-94.98 366.82,-95.93 357.27,-96.85"/>
<polygon fill="#63b8ff" stroke="#63b8ff" points="387.18,-97.5 396.8,-93.06 386.51,-90.53 387.18,-97.5"/>
</a>
</g>
</g>
<!-- Node18&#45;&gt;Node16 -->
<g id="edge25_Node000018_Node000016" class="edge">
<title>Node18&#45;&gt;Node16</title>
<g id="a_edge25_Node000018_Node000016"><a xlink:title=" ">
<path fill="none" stroke="#63b8ff" d="M801.39,-110.98C776.03,-105.87 746.53,-99.92 722.41,-95.06"/>
<polygon fill="#63b8ff" stroke="#63b8ff" points="800.75,-114.43 811.24,-112.97 802.13,-107.56 800.75,-114.43"/>
</a>
</g>
</g>
<!-- Node19&#45;&gt;Node4 -->
<g id="edge27_Node000019_Node000004" class="edge">
<title>Node19&#45;&gt;Node4</title>
<g id="a_edge27_Node000019_Node000004"><a xlink:title=" ">
<path fill="none" stroke="#63b8ff" d="M585.74,-47.94C530.1,-49.65 456.73,-54.53 393,-67.5 363.73,-73.46 331.41,-85.4 310.47,-93.89"/>
<polygon fill="#63b8ff" stroke="#63b8ff" points="586.02,-51.44 595.92,-47.66 585.83,-44.44 586.02,-51.44"/>
</a>
</g>
</g>
</g>
</svg>
