<?xml version="1.0" encoding="UTF-8" standalone="no"?>
<!DOCTYPE svg PUBLIC "-//W3C//DTD SVG 1.1//EN"
 "http://www.w3.org/Graphics/SVG/1.1/DTD/svg11.dtd">
<!-- Generated by graphviz version 2.43.0 (0)
 -->
<!-- Title: NetworkClient::sendCreateLobby Pages: 1 -->
<svg width="652pt" height="64pt"
 viewBox="0.00 0.00 652.00 64.00" xmlns="http://www.w3.org/2000/svg" xmlns:xlink="http://www.w3.org/1999/xlink">
<g id="graph0" class="graph" transform="scale(1 1) rotate(0) translate(4 60)">
<title>NetworkClient::sendCreateLobby</title>
<!-- Node1 -->
<g id="Node000001" class="node">
<title>Node1</title>
<g id="a_Node000001"><a xlink:title="Ask the server to create a private lobby.">
<polygon fill="#999999" stroke="#666666" points="148,-42.5 0,-42.5 0,-12.5 148,-12.5 148,-42.5"/>
<text text-anchor="start" x="8" y="-30.5" font-family="Helvetica,sans-Serif" font-size="10.00">NetworkClient::sendCreate</text>
<text text-anchor="middle" x="74" y="-19.5" font-family="Helvetica,sans-Serif" font-size="10.00">Lobby</text>
</a>
</g>
</g>
<!-- Node2 -->
<g id="Node000002" class="node">
<title>Node2</title>
<g id="a_Node000002"><a xlink:href="classNetworkClient.html#af150c1b7e0aa8c19cb337fb838479324" target="_top" xlink:title=" ">
<polygon fill="white" stroke="#666666" points="347,-37 184,-37 184,-18 347,-18 347,-37"/>
<text text-anchor="middle" x="265.5" y="-25" font-family="Helvetica,sans-Serif" font-size="10.00">NetworkClient::sendPacketTcp</text>
</a>
</g>
</g>
<!-- Node1&#45;&gt;Node2 -->
<g id="edge1_Node000001_Node000002" class="edge">
<title>Node1&#45;&gt;Node2</title>
<g id="a_edge1_Node000001_Node000002"><a xlink:title=" ">
<path fill="none" stroke="#63b8ff" d="M148.27,-27.5C156.65,-27.5 165.27,-27.5 173.85,-27.5"/>
<polygon fill="#63b8ff" stroke="#63b8ff" points="173.88,-31 183.88,-27.5 173.88,-24 173.88,-31"/>
</a>
</g>
</g>
<!-- Node3 -->
<g id="Node000003" class="node">
<title>Node3</title>
<g id="a_Node000003"><a xlink:href="namespaceProtocol.html#a668bdeed219432868fca095e1b2f2667" target="_top" xlink:title="Build a TCP framed buffer (2 bytes length + serialized packet).">
<polygon fill="white" stroke="#666666" points="501.5,-56 394.5,-56 394.5,-37 501.5,-37 501.5,-56"/>
<text text-anchor="middle" x="448" y="-44" font-family="Helvetica,sans-Serif" font-size="10.00">Protocol::frameTcp</text>
</a>
</g>
</g>
<!-- Node2&#45;&gt;Node3 -->
<g id="edge2_Node000002_Node000003" class="edge">
<title>Node2&#45;&gt;Node3</title>
<g id="a_edge2_Node000002_Node000003"><a xlink:title=" ">
<path fill="none" stroke="#63b8ff" d="M347.25,-36C359.59,-37.3 372.17,-38.62 384.05,-39.87"/>
<polygon fill="#63b8ff" stroke="#63b8ff" points="383.98,-43.39 394.3,-40.95 384.72,-36.42 383.98,-43.39"/>
</a>
</g>
</g>
<!-- Node5 -->
<g id="Node000005" class="node">
<title>Node5</title>
<g id="a_Node000005"><a xlink:href="classNetworkClient.html#a844f1f20acd0958f264c7bb67e18d111" target="_top" xlink:title=" ">
<polygon fill="white" stroke="#666666" points="513,-19 383,-19 383,0 513,0 513,-19"/>
<text text-anchor="middle" x="448" y="-7" font-family="Helvetica,sans-Serif" font-size="10.00">NetworkClient::writeAll</text>
</a>
</g>
</g>
<!-- Node2&#45;&gt;Node5 -->
<g id="edge4_Node000002_Node000005" class="edge">
<title>Node2&#45;&gt;Node5</title>
<g id="a_edge4_Node000002_Node000005"><a xlink:title=" ">
<path fill="none" stroke="#63b8ff" d="M347.25,-19.45C355.72,-18.6 364.31,-17.75 372.71,-16.91"/>
<polygon fill="#63b8ff" stroke="#63b8ff" points="373.23,-20.37 382.84,-15.9 372.54,-13.41 373.23,-20.37"/>
</a>
</g>
</g>
<!-- Node4 -->
<g id="Node000004" class="node">
<title>Node4</title>
<g id="a_Node000004"><a xlink:href="classPacket.html#aa88c2d28796644c8a1d6137996502ca8" target="_top" xlink:title="Serialize the packet to a byte buffer ready to send.">
<polygon fill="white" stroke="#666666" points="644,-56 549,-56 549,-37 644,-37 644,-56"/>
<text text-anchor="middle" x="596.5" y="-44" font-family="Helvetica,sans-Serif" font-size="10.00">Packet::serialize</text>
</a>
</g>
</g>
<!-- Node3&#45;&gt;Node4 -->
<g id="edge3_Node000003_Node000004" class="edge">
<title>Node3&#45;&gt;Node4</title>
<g id="a_edge3_Node000003_Node000004"><a xlink:title=" ">
<path fill="none" stroke="#63b8ff" d="M501.89,-46.5C513.93,-46.5 526.76,-46.5 538.95,-46.5"/>
<polygon fill="#63b8ff" stroke="#63b8ff" points="539,-50 549,-46.5 539,-43 539,-50"/>
</a>
</g>
</g>
</g>
</svg>
