<?xml version="1.0" encoding="UTF-8" standalone="no"?>
<!DOCTYPE svg PUBLIC "-//W3C//DTD SVG 1.1//EN"
 "http://www.w3.org/Graphics/SVG/1.1/DTD/svg11.dtd">
<!-- Generated by graphviz version 2.43.0 (0)
 -->
<!-- Title: TCPServer::broadcastToLobby Pages: 1 -->
<svg width="578pt" height="101pt"
 viewBox="0.00 0.00 578.00 101.00" xmlns="http://www.w3.org/2000/svg" xmlns:xlink="http://www.w3.org/1999/xlink">
<g id="graph0" class="graph" transform="scale(1 1) rotate(0) translate(4 97)">
<title>TCPServer::broadcastToLobby</title>
<!-- Node1 -->
<g id="Node000001" class="node">
<title>Node1</title>
<g id="a_Node000001"><a xlink:title=" ">
<polygon fill="#999999" stroke="#666666" points="570,-56 410,-56 410,-37 570,-37 570,-56"/>
<text text-anchor="middle" x="490" y="-44" font-family="Helvetica,sans-Serif" font-size="10.00">TCPServer::broadcastToLobby</text>
</a>
</g>
</g>
<!-- Node2 -->
<g id="Node000002" class="node">
<title>Node2</title>
<g id="a_Node000002"><a xlink:href="classTCPServer.html#a867c0e233f62e2d8f181ae99dbcca0a0" target="_top" xlink:title="Disconnect clients whose heartbeat timed out.">
<polygon fill="white" stroke="#666666" points="362,-93 213,-93 213,-74 362,-74 362,-93"/>
<text text-anchor="middle" x="287.5" y="-81" font-family="Helvetica,sans-Serif" font-size="10.00">TCPServer::checkHeartbeat</text>
</a>
</g>
</g>
<!-- Node1&#45;&gt;Node2 -->
<g id="edge1_Node000001_Node000002" class="edge">
<title>Node1&#45;&gt;Node2</title>
<g id="a_edge1_Node000001_Node000002"><a xlink:title=" ">
<path fill="none" stroke="#63b8ff" d="M427.33,-57.88C399.46,-63.02 366.89,-69.03 340.31,-73.94"/>
<polygon fill="#63b8ff" stroke="#63b8ff" points="428.17,-61.29 437.37,-56.03 426.9,-54.4 428.17,-61.29"/>
</a>
</g>
</g>
<!-- Node5 -->
<g id="Node000005" class="node">
<title>Node5</title>
<g id="a_Node000005"><a xlink:href="classTCPServer.html#ada05a61182a782b4d3326fabd26a19bf" target="_top" xlink:title="Read and handle data for a single client.">
<polygon fill="white" stroke="#666666" points="368,-56 207,-56 207,-37 368,-37 368,-56"/>
<text text-anchor="middle" x="287.5" y="-44" font-family="Helvetica,sans-Serif" font-size="10.00">TCPServer::processClientData</text>
</a>
</g>
</g>
<!-- Node1&#45;&gt;Node5 -->
<g id="edge4_Node000001_Node000005" class="edge">
<title>Node1&#45;&gt;Node5</title>
<g id="a_edge4_Node000001_Node000005"><a xlink:title=" ">
<path fill="none" stroke="#63b8ff" d="M399.74,-46.5C389.21,-46.5 378.53,-46.5 368.15,-46.5"/>
<polygon fill="#63b8ff" stroke="#63b8ff" points="399.76,-50 409.76,-46.5 399.76,-43 399.76,-50"/>
</a>
</g>
</g>
<!-- Node6 -->
<g id="Node000006" class="node">
<title>Node6</title>
<g id="a_Node000006"><a xlink:href="classTCPServer.html#a2a03b7479e884f287b5a88df03eeb17b" target="_top" xlink:title=" ">
<polygon fill="white" stroke="#666666" points="374,-19 201,-19 201,0 374,0 374,-19"/>
<text text-anchor="middle" x="287.5" y="-7" font-family="Helvetica,sans-Serif" font-size="10.00">TCPServer::processIpcMessages</text>
</a>
</g>
</g>
<!-- Node1&#45;&gt;Node6 -->
<g id="edge6_Node000001_Node000006" class="edge">
<title>Node1&#45;&gt;Node6</title>
<g id="a_edge6_Node000001_Node000006"><a xlink:title=" ">
<path fill="none" stroke="#63b8ff" d="M427.33,-35.12C399.46,-29.98 366.89,-23.97 340.31,-19.06"/>
<polygon fill="#63b8ff" stroke="#63b8ff" points="426.9,-38.6 437.37,-36.97 428.17,-31.71 426.9,-38.6"/>
</a>
</g>
</g>
<!-- Node3 -->
<g id="Node000003" class="node">
<title>Node3</title>
<g id="a_Node000003"><a xlink:href="classTCPServer.html#a4e6d2ef05b71c4ecbd0518fc7215ece3" target="_top" xlink:title="Run the main accept/receive loop (blocking).">
<polygon fill="white" stroke="#666666" points="165,-56 77,-56 77,-37 165,-37 165,-56"/>
<text text-anchor="middle" x="121" y="-44" font-family="Helvetica,sans-Serif" font-size="10.00">TCPServer::run</text>
</a>
</g>
</g>
<!-- Node2&#45;&gt;Node3 -->
<g id="edge2_Node000002_Node000003" class="edge">
<title>Node2&#45;&gt;Node3</title>
<g id="a_edge2_Node000002_Node000003"><a xlink:title=" ">
<path fill="none" stroke="#63b8ff" d="M229.92,-71.83C220.26,-69.77 210.34,-67.6 201,-65.5 187.93,-62.55 173.68,-59.18 160.93,-56.09"/>
<polygon fill="#63b8ff" stroke="#63b8ff" points="229.35,-75.28 239.85,-73.93 230.8,-68.43 229.35,-75.28"/>
</a>
</g>
</g>
<!-- Node4 -->
<g id="Node000004" class="node">
<title>Node4</title>
<g id="a_Node000004"><a xlink:href="server_8cpp.html#ae66f6b31b5ad750f1fe042a706a4e3d4" target="_top" xlink:title=" ">
<polygon fill="white" stroke="#666666" points="41,-56 0,-56 0,-37 41,-37 41,-56"/>
<text text-anchor="middle" x="20.5" y="-44" font-family="Helvetica,sans-Serif" font-size="10.00">main</text>
</a>
</g>
</g>
<!-- Node3&#45;&gt;Node4 -->
<g id="edge3_Node000003_Node000004" class="edge">
<title>Node3&#45;&gt;Node4</title>
<g id="a_edge3_Node000003_Node000004"><a xlink:title=" ">
<path fill="none" stroke="#63b8ff" d="M66.57,-46.5C57.52,-46.5 48.67,-46.5 41.23,-46.5"/>
<polygon fill="#63b8ff" stroke="#63b8ff" points="66.8,-50 76.8,-46.5 66.8,-43 66.8,-50"/>
</a>
</g>
</g>
<!-- Node5&#45;&gt;Node3 -->
<g id="edge5_Node000005_Node000003" class="edge">
<title>Node5&#45;&gt;Node3</title>
<g id="a_edge5_Node000005_Node000003"><a xlink:title=" ">
<path fill="none" stroke="#63b8ff" d="M196.65,-46.5C185.78,-46.5 175.09,-46.5 165.35,-46.5"/>
<polygon fill="#63b8ff" stroke="#63b8ff" points="196.66,-50 206.66,-46.5 196.66,-43 196.66,-50"/>
</a>
</g>
</g>
<!-- Node6&#45;&gt;Node3 -->
<g id="edge7_Node000006_Node000003" class="edge">
<title>Node6&#45;&gt;Node3</title>
<g id="a_edge7_Node000006_Node000003"><a xlink:title=" ">
<path fill="none" stroke="#63b8ff" d="M233.34,-21.27C222.63,-23.65 211.46,-26.15 201,-28.5 188.92,-31.22 175.81,-34.19 163.81,-36.93"/>
<polygon fill="#63b8ff" stroke="#63b8ff" points="234.43,-24.61 243.43,-19.02 232.91,-17.78 234.43,-24.61"/>
</a>
</g>
</g>
</g>
</svg>
