<?xml version="1.0" encoding="UTF-8" standalone="no"?>
<!DOCTYPE svg PUBLIC "-//W3C//DTD SVG 1.1//EN"
 "http://www.w3.org/Graphics/SVG/1.1/DTD/svg11.dtd">
<!-- Generated by graphviz version 2.43.0 (0)
 -->
<!-- Title: GameWorld::buildSnapshotPacket Pages: 1 -->
<svg width="794pt" height="38pt"
 viewBox="0.00 0.00 794.00 38.00" xmlns="http://www.w3.org/2000/svg" xmlns:xlink="http://www.w3.org/1999/xlink">
<g id="graph0" class="graph" transform="scale(1 1) rotate(0) translate(4 34)">
<title>GameWorld::buildSnapshotPacket</title>
<!-- Node1 -->
<g id="Node000001" class="node">
<title>Node1</title>
<g id="a_Node000001"><a xlink:title="Build a UDP snapshot packet of current world state.">
<polygon fill="#999999" stroke="#666666" points="786,-30 637,-30 637,0 786,0 786,-30"/>
<text text-anchor="start" x="645" y="-18" font-family="Helvetica,sans-Serif" font-size="10.00">GameWorld::buildSnapshot</text>
<text text-anchor="middle" x="711.5" y="-7" font-family="Helvetica,sans-Serif" font-size="10.00">Packet</text>
</a>
</g>
</g>
<!-- Node2 -->
<g id="Node000002" class="node">
<title>Node2</title>
<g id="a_Node000002"><a xlink:href="classUDPGameServer.html#a367b917d572ad28819003841b3be180c" target="_top" xlink:title="Register a new player on receipt of a hello message.">
<polygon fill="white" stroke="#666666" points="601,-24.5 438,-24.5 438,-5.5 601,-5.5 601,-24.5"/>
<text text-anchor="middle" x="519.5" y="-12.5" font-family="Helvetica,sans-Serif" font-size="10.00">UDPGameServer::handleHello</text>
</a>
</g>
</g>
<!-- Node1&#45;&gt;Node2 -->
<g id="edge1_Node000001_Node000002" class="edge">
<title>Node1&#45;&gt;Node2</title>
<g id="a_edge1_Node000001_Node000002"><a xlink:title=" ">
<path fill="none" stroke="#63b8ff" d="M626.54,-15C618.1,-15 609.53,-15 601.12,-15"/>
<polygon fill="#63b8ff" stroke="#63b8ff" points="626.77,-18.5 636.77,-15 626.77,-11.5 626.77,-18.5"/>
</a>
</g>
</g>
<!-- Node3 -->
<g id="Node000003" class="node">
<title>Node3</title>
<g id="a_Node000003"><a xlink:href="classUDPGameServer.html#a9d28a7f4a0c75aba168ea6a58633d1bb" target="_top" xlink:title="Route an incoming packet to the appropriate handler.">
<polygon fill="white" stroke="#666666" points="402,-24.5 233,-24.5 233,-5.5 402,-5.5 402,-24.5"/>
<text text-anchor="middle" x="317.5" y="-12.5" font-family="Helvetica,sans-Serif" font-size="10.00">UDPGameServer::handlePacket</text>
</a>
</g>
</g>
<!-- Node2&#45;&gt;Node3 -->
<g id="edge2_Node000002_Node000003" class="edge">
<title>Node2&#45;&gt;Node3</title>
<g id="a_edge2_Node000002_Node000003"><a xlink:title=" ">
<path fill="none" stroke="#63b8ff" d="M427.5,-15C419.07,-15 410.55,-15 402.18,-15"/>
<polygon fill="#63b8ff" stroke="#63b8ff" points="427.73,-18.5 437.73,-15 427.73,-11.5 427.73,-18.5"/>
</a>
</g>
</g>
<!-- Node4 -->
<g id="Node000004" class="node">
<title>Node4</title>
<g id="a_Node000004"><a xlink:href="classUDPGameServer.html#a476a4f2e8bb0833c788761298eb4a72b" target="_top" xlink:title="Start the main server loop (blocking).">
<polygon fill="white" stroke="#666666" points="197,-24.5 77,-24.5 77,-5.5 197,-5.5 197,-24.5"/>
<text text-anchor="middle" x="137" y="-12.5" font-family="Helvetica,sans-Serif" font-size="10.00">UDPGameServer::run</text>
</a>
</g>
</g>
<!-- Node3&#45;&gt;Node4 -->
<g id="edge3_Node000003_Node000004" class="edge">
<title>Node3&#45;&gt;Node4</title>
<g id="a_edge3_Node000003_Node000004"><a xlink:title=" ">
<path fill="none" stroke="#63b8ff" d="M222.73,-15C213.98,-15 205.29,-15 197,-15"/>
<polygon fill="#63b8ff" stroke="#63b8ff" points="223,-18.5 233,-15 223,-11.5 223,-18.5"/>
</a>
</g>
</g>
<!-- Node5 -->
<g id="Node000005" class="node">
<title>Node5</title>
<g id="a_Node000005"><a xlink:href="game_8cpp.html#a3c04138a5bfe5d72780bb7e82a18e627" target="_top" xlink:title=" ">
<polygon fill="white" stroke="#666666" points="41,-24.5 0,-24.5 0,-5.5 41,-5.5 41,-24.5"/>
<text text-anchor="middle" x="20.5" y="-12.5" font-family="Helvetica,sans-Serif" font-size="10.00">main</text>
</a>
</g>
</g>
<!-- Node4&#45;&gt;Node5 -->
<g id="edge4_Node000004_Node000005" class="edge">
<title>Node4&#45;&gt;Node5</title>
<g id="a_edge4_Node000004_Node000005"><a xlink:title=" ">
<path fill="none" stroke="#63b8ff" d="M66.55,-15C57.28,-15 48.46,-15 41.12,-15"/>
<polygon fill="#63b8ff" stroke="#63b8ff" points="66.74,-18.5 76.74,-15 66.74,-11.5 66.74,-18.5"/>
</a>
</g>
</g>
</g>
</svg>
