<?xml version="1.0" encoding="UTF-8" standalone="no"?>
<!DOCTYPE svg PUBLIC "-//W3C//DTD SVG 1.1//EN"
 "http://www.w3.org/Graphics/SVG/1.1/DTD/svg11.dtd">
<!-- Generated by graphviz version 2.43.0 (0)
 -->
<!-- Title: NetworkClient::disconnect Pages: 1 -->
<svg width="1138pt" height="183pt"
 viewBox="0.00 0.00 1138.00 182.56" xmlns="http://www.w3.org/2000/svg" xmlns:xlink="http://www.w3.org/1999/xlink">
<g id="graph0" class="graph" transform="scale(1 1) rotate(0) translate(4 178.56)">
<title>NetworkClient::disconnect</title>
<!-- Node1 -->
<g id="Node000001" class="node">
<title>Node1</title>
<g id="a_Node000001"><a xlink:title="Close TCP and UDP sockets and reset state.">
<polygon fill="#999999" stroke="#666666" points="1130,-99 985,-99 985,-80 1130,-80 1130,-99"/>
<text text-anchor="middle" x="1057.5" y="-87" font-family="Helvetica,sans-Serif" font-size="10.00">NetworkClient::disconnect</text>
</a>
</g>
</g>
<!-- Node2 -->
<g id="Node000002" class="node">
<title>Node2</title>
<g id="a_Node000002"><a xlink:href="classGraphicClient.html#a5cb5c37142e62f04824cc6e21dd199b2" target="_top" xlink:title="Main game loop iteration.">
<polygon fill="white" stroke="#666666" points="357,-139 217,-139 217,-120 357,-120 357,-139"/>
<text text-anchor="middle" x="287" y="-127" font-family="Helvetica,sans-Serif" font-size="10.00">GraphicClient::gameLoop</text>
</a>
</g>
</g>
<!-- Node1&#45;&gt;Node2 -->
<g id="edge1_Node000001_Node000002" class="edge">
<title>Node1&#45;&gt;Node2</title>
<g id="a_edge1_Node000001_Node000002"><a xlink:title=" ">
<path fill="none" stroke="#63b8ff" d="M1029.41,-103.58C1008.16,-113.88 977.5,-127.13 949,-133.5 707.69,-187.45 638.71,-181.22 393,-153.5 368.66,-150.75 341.73,-144.53 321.24,-139.11"/>
<polygon fill="#63b8ff" stroke="#63b8ff" points="1031.07,-106.67 1038.47,-99.09 1027.96,-100.4 1031.07,-106.67"/>
</a>
</g>
</g>
<!-- Node5 -->
<g id="Node000005" class="node">
<title>Node5</title>
<g id="a_Node000005"><a xlink:href="classNetworkClient.html#a5bc6fcb253ac9f9d74c649cb4b30d546" target="_top" xlink:title=" ">
<polygon fill="white" stroke="#666666" points="934.5,-104.5 793.5,-104.5 793.5,-74.5 934.5,-74.5 934.5,-104.5"/>
<text text-anchor="start" x="801.5" y="-92.5" font-family="Helvetica,sans-Serif" font-size="10.00">NetworkClient::handleTcp</text>
<text text-anchor="middle" x="864" y="-81.5" font-family="Helvetica,sans-Serif" font-size="10.00">Packet</text>
</a>
</g>
</g>
<!-- Node1&#45;&gt;Node5 -->
<g id="edge4_Node000001_Node000005" class="edge">
<title>Node1&#45;&gt;Node5</title>
<g id="a_edge4_Node000001_Node000005"><a xlink:title=" ">
<path fill="none" stroke="#63b8ff" d="M974.78,-89.5C961.4,-89.5 947.64,-89.5 934.59,-89.5"/>
<polygon fill="#63b8ff" stroke="#63b8ff" points="974.92,-93 984.92,-89.5 974.92,-86 974.92,-93"/>
</a>
</g>
</g>
<!-- Node8 -->
<g id="Node000008" class="node">
<title>Node8</title>
<g id="a_Node000008"><a xlink:href="classGraphicClient.html#a1fa2cfd0c71b32b0b1f0e0675a2e1cb2" target="_top" xlink:title="Processes network events and updates game state.">
<polygon fill="white" stroke="#666666" points="560,-144.5 393,-144.5 393,-114.5 560,-114.5 560,-144.5"/>
<text text-anchor="start" x="401" y="-132.5" font-family="Helvetica,sans-Serif" font-size="10.00">GraphicClient::processNetwork</text>
<text text-anchor="middle" x="476.5" y="-121.5" font-family="Helvetica,sans-Serif" font-size="10.00">Events</text>
</a>
</g>
</g>
<!-- Node1&#45;&gt;Node8 -->
<g id="edge12_Node000001_Node000008" class="edge">
<title>Node1&#45;&gt;Node8</title>
<g id="a_edge12_Node000001_Node000008"><a xlink:title=" ">
<path fill="none" stroke="#63b8ff" d="M1011.51,-101.5C992.38,-106.09 969.74,-110.86 949,-113.5 813.52,-130.77 654.49,-132.33 560.07,-131.32"/>
<polygon fill="#63b8ff" stroke="#63b8ff" points="1012.57,-104.84 1021.45,-99.06 1010.9,-98.05 1012.57,-104.84"/>
</a>
</g>
</g>
<!-- Node10 -->
<g id="Node000010" class="node">
<title>Node10</title>
<g id="a_Node000010"><a xlink:href="classNetworkClient.html#ac0dca5641be17084ead40825063b944e" target="_top" xlink:title=" ">
<polygon fill="white" stroke="#666666" points="944.5,-56 783.5,-56 783.5,-37 944.5,-37 944.5,-56"/>
<text text-anchor="middle" x="864" y="-44" font-family="Helvetica,sans-Serif" font-size="10.00">NetworkClient::readTcpPacket</text>
</a>
</g>
</g>
<!-- Node1&#45;&gt;Node10 -->
<g id="edge13_Node000001_Node000010" class="edge">
<title>Node1&#45;&gt;Node10</title>
<g id="a_edge13_Node000001_Node000010"><a xlink:title=" ">
<path fill="none" stroke="#63b8ff" d="M1004,-77.71C973.61,-70.89 935.87,-62.41 907.38,-56.02"/>
<polygon fill="#63b8ff" stroke="#63b8ff" points="1003.48,-81.18 1014,-79.96 1005.01,-74.35 1003.48,-81.18"/>
</a>
</g>
</g>
<!-- Node11 -->
<g id="Node000011" class="node">
<title>Node11</title>
<g id="a_Node000011"><a xlink:href="classNetworkClient.html#ab82fb597494c89b4a7ba9fd0d4b659c4" target="_top" xlink:title="Disconnect on destruction.">
<polygon fill="white" stroke="#666666" points="949,-19 779,-19 779,0 949,0 949,-19"/>
<text text-anchor="middle" x="864" y="-7" font-family="Helvetica,sans-Serif" font-size="10.00">NetworkClient::~NetworkClient</text>
</a>
</g>
</g>
<!-- Node1&#45;&gt;Node11 -->
<g id="edge15_Node000001_Node000011" class="edge">
<title>Node1&#45;&gt;Node11</title>
<g id="a_edge15_Node000001_Node000011"><a xlink:title=" ">
<path fill="none" stroke="#63b8ff" d="M1034.44,-74.01C1013.4,-59.93 980.36,-39.56 949,-27.5 940.23,-24.13 930.69,-21.32 921.29,-19.02"/>
<polygon fill="#63b8ff" stroke="#63b8ff" points="1032.71,-77.07 1042.94,-79.8 1036.65,-71.28 1032.71,-77.07"/>
</a>
</g>
</g>
<!-- Node3 -->
<g id="Node000003" class="node">
<title>Node3</title>
<g id="a_Node000003"><a xlink:href="classGraphicClient.html#ad39a5f1d7ec30752f8d412d6925ef109" target="_top" xlink:title="Main application loop.">
<polygon fill="white" stroke="#666666" points="181,-117 77,-117 77,-98 181,-98 181,-117"/>
<text text-anchor="middle" x="129" y="-105" font-family="Helvetica,sans-Serif" font-size="10.00">GraphicClient::run</text>
</a>
</g>
</g>
<!-- Node2&#45;&gt;Node3 -->
<g id="edge2_Node000002_Node000003" class="edge">
<title>Node2&#45;&gt;Node3</title>
<g id="a_edge2_Node000002_Node000003"><a xlink:title=" ">
<path fill="none" stroke="#63b8ff" d="M208.46,-118.56C199.19,-117.26 189.91,-115.95 181.15,-114.71"/>
<polygon fill="#63b8ff" stroke="#63b8ff" points="208.09,-122.05 218.48,-119.98 209.07,-115.12 208.09,-122.05"/>
</a>
</g>
</g>
<!-- Node4 -->
<g id="Node000004" class="node">
<title>Node4</title>
<g id="a_Node000004"><a xlink:href="client_8cpp.html#ae66f6b31b5ad750f1fe042a706a4e3d4" target="_top" xlink:title=" ">
<polygon fill="white" stroke="#666666" points="41,-117 0,-117 0,-98 41,-98 41,-117"/>
<text text-anchor="middle" x="20.5" y="-105" font-family="Helvetica,sans-Serif" font-size="10.00">main</text>
</a>
</g>
</g>
<!-- Node3&#45;&gt;Node4 -->
<g id="edge3_Node000003_Node000004" class="edge">
<title>Node3&#45;&gt;Node4</title>
<g id="a_edge3_Node000003_Node000004"><a xlink:title=" ">
<path fill="none" stroke="#63b8ff" d="M66.83,-107.5C57.58,-107.5 48.66,-107.5 41.22,-107.5"/>
<polygon fill="#63b8ff" stroke="#63b8ff" points="66.93,-111 76.93,-107.5 66.93,-104 66.93,-111"/>
</a>
</g>
</g>
<!-- Node6 -->
<g id="Node000006" class="node">
<title>Node6</title>
<g id="a_Node000006"><a xlink:href="classNetworkClient.html#a1f77ff0729755d9782b4542582cfe214" target="_top" xlink:title="Poll TCP/UDP sockets and handle any received packets.">
<polygon fill="white" stroke="#666666" points="743,-96 596,-96 596,-77 743,-77 743,-96"/>
<text text-anchor="middle" x="669.5" y="-84" font-family="Helvetica,sans-Serif" font-size="10.00">NetworkClient::pollPackets</text>
</a>
</g>
</g>
<!-- Node5&#45;&gt;Node6 -->
<g id="edge5_Node000005_Node000006" class="edge">
<title>Node5&#45;&gt;Node6</title>
<g id="a_edge5_Node000005_Node000006"><a xlink:title=" ">
<path fill="none" stroke="#63b8ff" d="M783.21,-88.26C769.98,-88.05 756.32,-87.84 743.27,-87.63"/>
<polygon fill="#63b8ff" stroke="#63b8ff" points="783.18,-91.76 793.23,-88.41 783.29,-84.76 783.18,-91.76"/>
</a>
</g>
</g>
<!-- Node7 -->
<g id="Node000007" class="node">
<title>Node7</title>
<g id="a_Node000007"><a xlink:href="classGraphicClient.html#a4b416d0d2b3f07134ce30afb0c60adbe" target="_top" xlink:title="Initializes the client (connects to server, shows menus).">
<polygon fill="white" stroke="#666666" points="339,-96 235,-96 235,-77 339,-77 339,-96"/>
<text text-anchor="middle" x="287" y="-84" font-family="Helvetica,sans-Serif" font-size="10.00">GraphicClient::init</text>
</a>
</g>
</g>
<!-- Node6&#45;&gt;Node7 -->
<g id="edge6_Node000006_Node000007" class="edge">
<title>Node6&#45;&gt;Node7</title>
<g id="a_edge6_Node000006_Node000007"><a xlink:title=" ">
<path fill="none" stroke="#63b8ff" d="M614.45,-75.14C597.14,-72.01 577.84,-69.05 560,-67.5 486.06,-61.07 466.93,-60.87 393,-67.5 372.33,-69.35 349.65,-73.22 330.68,-76.99"/>
<polygon fill="#63b8ff" stroke="#63b8ff" points="613.91,-78.6 624.39,-76.99 615.2,-71.71 613.91,-78.6"/>
</a>
</g>
</g>
<!-- Node6&#45;&gt;Node8 -->
<g id="edge8_Node000006_Node000008" class="edge">
<title>Node6&#45;&gt;Node8</title>
<g id="a_edge8_Node000006_Node000008"><a xlink:title=" ">
<path fill="none" stroke="#63b8ff" d="M616.2,-98.28C593.96,-103.28 567.76,-109.18 544.16,-114.49"/>
<polygon fill="#63b8ff" stroke="#63b8ff" points="617.12,-101.65 626.11,-96.04 615.59,-94.82 617.12,-101.65"/>
</a>
</g>
</g>
<!-- Node9 -->
<g id="Node000009" class="node">
<title>Node9</title>
<g id="a_Node000009"><a xlink:href="classGraphicClient.html#a70229e3e019e7b315f06c9ad74f23be5" target="_top" xlink:title="Shows lobby selection menu.">
<polygon fill="white" stroke="#666666" points="550,-96 403,-96 403,-77 550,-77 550,-96"/>
<text text-anchor="middle" x="476.5" y="-84" font-family="Helvetica,sans-Serif" font-size="10.00">GraphicClient::selectLobby</text>
</a>
</g>
</g>
<!-- Node6&#45;&gt;Node9 -->
<g id="edge10_Node000006_Node000009" class="edge">
<title>Node6&#45;&gt;Node9</title>
<g id="a_edge10_Node000006_Node000009"><a xlink:title=" ">
<path fill="none" stroke="#63b8ff" d="M585.47,-86.5C573.68,-86.5 561.62,-86.5 550.05,-86.5"/>
<polygon fill="#63b8ff" stroke="#63b8ff" points="585.75,-90 595.75,-86.5 585.75,-83 585.75,-90"/>
</a>
</g>
</g>
<!-- Node7&#45;&gt;Node3 -->
<g id="edge7_Node000007_Node000003" class="edge">
<title>Node7&#45;&gt;Node3</title>
<g id="a_edge7_Node000007_Node000003"><a xlink:title=" ">
<path fill="none" stroke="#63b8ff" d="M224.62,-94.76C210.24,-96.7 195.07,-98.74 181.19,-100.61"/>
<polygon fill="#63b8ff" stroke="#63b8ff" points="225.48,-98.18 234.92,-93.38 224.54,-91.24 225.48,-98.18"/>
</a>
</g>
</g>
<!-- Node8&#45;&gt;Node2 -->
<g id="edge9_Node000008_Node000002" class="edge">
<title>Node8&#45;&gt;Node2</title>
<g id="a_edge9_Node000008_Node000002"><a xlink:title=" ">
<path fill="none" stroke="#63b8ff" d="M382.83,-129.5C374.16,-129.5 365.48,-129.5 357.08,-129.5"/>
<polygon fill="#63b8ff" stroke="#63b8ff" points="382.99,-133 392.99,-129.5 382.99,-126 382.99,-133"/>
</a>
</g>
</g>
<!-- Node9&#45;&gt;Node7 -->
<g id="edge11_Node000009_Node000007" class="edge">
<title>Node9&#45;&gt;Node7</title>
<g id="a_edge11_Node000009_Node000007"><a xlink:title=" ">
<path fill="none" stroke="#63b8ff" d="M392.71,-86.5C374.51,-86.5 355.76,-86.5 339.24,-86.5"/>
<polygon fill="#63b8ff" stroke="#63b8ff" points="392.74,-90 402.74,-86.5 392.74,-83 392.74,-90"/>
</a>
</g>
</g>
<!-- Node10&#45;&gt;Node6 -->
<g id="edge14_Node000010_Node000006" class="edge">
<title>Node10&#45;&gt;Node6</title>
<g id="a_edge14_Node000010_Node000006"><a xlink:title=" ">
<path fill="none" stroke="#63b8ff" d="M806.96,-58.14C778.13,-64.14 743.43,-71.35 716.23,-77"/>
<polygon fill="#63b8ff" stroke="#63b8ff" points="807.81,-61.54 816.89,-56.08 806.39,-54.69 807.81,-61.54"/>
</a>
</g>
</g>
</g>
</svg>
