<?xml version="1.0" encoding="UTF-8" standalone="no"?>
<!DOCTYPE svg PUBLIC "-//W3C//DTD SVG 1.1//EN"
 "http://www.w3.org/Graphics/SVG/1.1/DTD/svg11.dtd">
<!-- Generated by graphviz version 2.43.0 (0)
 -->
<!-- Title: NetworkClient::nowMs Pages: 1 -->
<svg width="1323pt" height="266pt"
 viewBox="0.00 0.00 1323.00 266.26" xmlns="http://www.w3.org/2000/svg" xmlns:xlink="http://www.w3.org/1999/xlink">
<g id="graph0" class="graph" transform="scale(1 1) rotate(0) translate(4 262.26)">
<title>NetworkClient::nowMs</title>
<!-- Node1 -->
<g id="Node000001" class="node">
<title>Node1</title>
<g id="a_Node000001"><a xlink:title=" ">
<polygon fill="#999999" stroke="#666666" points="1315,-149.9 1188,-149.9 1188,-130.9 1315,-130.9 1315,-149.9"/>
<text text-anchor="middle" x="1251.5" y="-137.9" font-family="Helvetica,sans-Serif" font-size="10.00">NetworkClient::nowMs</text>
</a>
</g>
</g>
<!-- Node2 -->
<g id="Node000002" class="node">
<title>Node2</title>
<g id="a_Node000002"><a xlink:href="classNetworkClient.html#a14ed76e74eea78d36e9009129f641f79" target="_top" xlink:title="Get current UDP receive rate in Kbps.">
<polygon fill="white" stroke="#666666" points="1150.5,-251.9 986.5,-251.9 986.5,-232.9 1150.5,-232.9 1150.5,-251.9"/>
<text text-anchor="middle" x="1068.5" y="-239.9" font-family="Helvetica,sans-Serif" font-size="10.00">NetworkClient::getUdpRxKbps</text>
</a>
</g>
</g>
<!-- Node1&#45;&gt;Node2 -->
<g id="edge1_Node000001_Node000002" class="edge">
<title>Node1&#45;&gt;Node2</title>
<g id="a_edge1_Node000001_Node000002"><a xlink:title=" ">
<path fill="none" stroke="#63b8ff" d="M1235.58,-157.4C1217.67,-176.69 1185.82,-207.62 1152,-224.4 1145.17,-227.79 1137.71,-230.54 1130.16,-232.78"/>
<polygon fill="#63b8ff" stroke="#63b8ff" points="1238.23,-159.69 1242.36,-149.93 1233.05,-154.98 1238.23,-159.69"/>
</a>
</g>
</g>
<!-- Node7 -->
<g id="Node000007" class="node">
<title>Node7</title>
<g id="a_Node000007"><a xlink:href="classNetworkClient.html#ad5c06bb19f3f5959f30bc383d89cb6e4" target="_top" xlink:title="Get current UDP transmit rate in Kbps.">
<polygon fill="white" stroke="#666666" points="1150.5,-214.9 986.5,-214.9 986.5,-195.9 1150.5,-195.9 1150.5,-214.9"/>
<text text-anchor="middle" x="1068.5" y="-202.9" font-family="Helvetica,sans-Serif" font-size="10.00">NetworkClient::getUdpTxKbps</text>
</a>
</g>
</g>
<!-- Node1&#45;&gt;Node7 -->
<g id="edge6_Node000001_Node000007" class="edge">
<title>Node1&#45;&gt;Node7</title>
<g id="a_edge6_Node000001_Node000007"><a xlink:title=" ">
<path fill="none" stroke="#63b8ff" d="M1223.93,-154.67C1204.46,-164.67 1177.15,-177.74 1152,-186.4 1141.44,-190.03 1129.88,-193.19 1118.84,-195.82"/>
<polygon fill="#63b8ff" stroke="#63b8ff" points="1225.57,-157.77 1232.82,-150.05 1222.33,-151.56 1225.57,-157.77"/>
</a>
</g>
</g>
<!-- Node8 -->
<g id="Node000008" class="node">
<title>Node8</title>
<g id="a_Node000008"><a xlink:href="classNetworkClient.html#acfb90d5461a5eb3826a710d6394faba0" target="_top" xlink:title=" ">
<polygon fill="white" stroke="#666666" points="1141,-177.4 996,-177.4 996,-147.4 1141,-147.4 1141,-177.4"/>
<text text-anchor="start" x="1004" y="-165.4" font-family="Helvetica,sans-Serif" font-size="10.00">NetworkClient::handleUdp</text>
<text text-anchor="middle" x="1068.5" y="-154.4" font-family="Helvetica,sans-Serif" font-size="10.00">Packet</text>
</a>
</g>
</g>
<!-- Node1&#45;&gt;Node8 -->
<g id="edge8_Node000001_Node000008" class="edge">
<title>Node1&#45;&gt;Node8</title>
<g id="a_edge8_Node000001_Node000008"><a xlink:title=" ">
<path fill="none" stroke="#63b8ff" d="M1177.89,-149.22C1165.75,-150.7 1153.16,-152.23 1141.05,-153.7"/>
<polygon fill="#63b8ff" stroke="#63b8ff" points="1178.45,-152.68 1187.96,-148 1177.61,-145.73 1178.45,-152.68"/>
</a>
</g>
</g>
<!-- Node13 -->
<g id="Node000013" class="node">
<title>Node13</title>
<g id="a_Node000013"><a xlink:href="classNetworkClient.html#a101f6ab85ee02ddb9d45a40dad603e29" target="_top" xlink:title=" ">
<polygon fill="white" stroke="#666666" points="1151,-128.9 986,-128.9 986,-109.9 1151,-109.9 1151,-128.9"/>
<text text-anchor="middle" x="1068.5" y="-116.9" font-family="Helvetica,sans-Serif" font-size="10.00">NetworkClient::readUdpPacket</text>
</a>
</g>
</g>
<!-- Node1&#45;&gt;Node13 -->
<g id="edge16_Node000001_Node000013" class="edge">
<title>Node1&#45;&gt;Node13</title>
<g id="a_edge16_Node000001_Node000013"><a xlink:title=" ">
<path fill="none" stroke="#63b8ff" d="M1177.81,-131.96C1169.05,-130.95 1160.07,-129.91 1151.2,-128.88"/>
<polygon fill="#63b8ff" stroke="#63b8ff" points="1177.62,-135.47 1187.96,-133.14 1178.43,-128.51 1177.62,-135.47"/>
</a>
</g>
</g>
<!-- Node14 -->
<g id="Node000014" class="node">
<title>Node14</title>
<g id="a_Node000014"><a xlink:href="classNetworkClient.html#a6c612ab362cc3e4ea8c94ebc2cddc4e6" target="_top" xlink:title=" ">
<polygon fill="white" stroke="#666666" points="1152,-91.9 985,-91.9 985,-72.9 1152,-72.9 1152,-91.9"/>
<text text-anchor="middle" x="1068.5" y="-79.9" font-family="Helvetica,sans-Serif" font-size="10.00">NetworkClient::sendPacketUdp</text>
</a>
</g>
</g>
<!-- Node1&#45;&gt;Node14 -->
<g id="edge18_Node000001_Node000014" class="edge">
<title>Node1&#45;&gt;Node14</title>
<g id="a_edge18_Node000001_Node000014"><a xlink:title=" ">
<path fill="none" stroke="#63b8ff" d="M1219.5,-126.73C1200.31,-118.62 1175.03,-108.56 1152,-101.4 1140.63,-97.86 1128.2,-94.66 1116.51,-91.94"/>
<polygon fill="#63b8ff" stroke="#63b8ff" points="1218.36,-130.05 1228.93,-130.77 1221.11,-123.61 1218.36,-130.05"/>
</a>
</g>
</g>
<!-- Node20 -->
<g id="Node000020" class="node">
<title>Node20</title>
<g id="a_Node000020"><a xlink:href="classNetworkClient.html#ad087f54b86ec34f0be29053415ab7a46" target="_top" xlink:title="Send a UDP ping with client timestamp.">
<polygon fill="white" stroke="#666666" points="949,-21.9 793,-21.9 793,-2.9 949,-2.9 949,-21.9"/>
<text text-anchor="middle" x="871" y="-9.9" font-family="Helvetica,sans-Serif" font-size="10.00">NetworkClient::sendUdpPing</text>
</a>
</g>
</g>
<!-- Node1&#45;&gt;Node20 -->
<g id="edge30_Node000001_Node000020" class="edge">
<title>Node1&#45;&gt;Node20</title>
<g id="a_edge30_Node000001_Node000020"><a xlink:title=" ">
<path fill="none" stroke="#63b8ff" d="M1233.68,-123.29C1215.3,-105.66 1184.15,-78.77 1152,-64.4 1087.23,-35.44 1007.09,-22.61 949.17,-16.92"/>
<polygon fill="#63b8ff" stroke="#63b8ff" points="1231.6,-126.16 1241.19,-130.67 1236.51,-121.16 1231.6,-126.16"/>
</a>
</g>
</g>
<!-- Node3 -->
<g id="Node000003" class="node">
<title>Node3</title>
<g id="a_Node000003"><a xlink:href="classGraphicClient.html#ab0acd8f5b8996cc62295831d7af1cf59" target="_top" xlink:title="Renders the entire game scene.">
<polygon fill="white" stroke="#666666" points="931,-247.9 811,-247.9 811,-228.9 931,-228.9 931,-247.9"/>
<text text-anchor="middle" x="871" y="-235.9" font-family="Helvetica,sans-Serif" font-size="10.00">GraphicClient::render</text>
</a>
</g>
</g>
<!-- Node2&#45;&gt;Node3 -->
<g id="edge2_Node000002_Node000003" class="edge">
<title>Node2&#45;&gt;Node3</title>
<g id="a_edge2_Node000002_Node000003"><a xlink:title=" ">
<path fill="none" stroke="#63b8ff" d="M976.27,-240.53C960.96,-240.22 945.43,-239.9 931.2,-239.61"/>
<polygon fill="#63b8ff" stroke="#63b8ff" points="976.22,-244.03 986.29,-240.74 976.36,-237.03 976.22,-244.03"/>
</a>
</g>
</g>
<!-- Node4 -->
<g id="Node000004" class="node">
<title>Node4</title>
<g id="a_Node000004"><a xlink:href="classGraphicClient.html#a5cb5c37142e62f04824cc6e21dd199b2" target="_top" xlink:title="Main game loop iteration.">
<polygon fill="white" stroke="#666666" points="357,-97.9 217,-97.9 217,-78.9 357,-78.9 357,-97.9"/>
<text text-anchor="middle" x="287" y="-85.9" font-family="Helvetica,sans-Serif" font-size="10.00">GraphicClient::gameLoop</text>
</a>
</g>
</g>
<!-- Node3&#45;&gt;Node4 -->
<g id="edge3_Node000003_Node000004" class="edge">
<title>Node3&#45;&gt;Node4</title>
<g id="a_edge3_Node000003_Node000004"><a xlink:title=" ">
<path fill="none" stroke="#63b8ff" d="M802.29,-249.24C705.95,-261.37 526.24,-271.63 393,-206.4 342.76,-181.8 305.91,-121.47 293.02,-97.98"/>
<polygon fill="#63b8ff" stroke="#63b8ff" points="803.02,-252.67 812.48,-247.91 802.11,-245.73 803.02,-252.67"/>
</a>
</g>
</g>
<!-- Node5 -->
<g id="Node000005" class="node">
<title>Node5</title>
<g id="a_Node000005"><a xlink:href="classGraphicClient.html#ad39a5f1d7ec30752f8d412d6925ef109" target="_top" xlink:title="Main application loop.">
<polygon fill="white" stroke="#666666" points="181,-116.9 77,-116.9 77,-97.9 181,-97.9 181,-116.9"/>
<text text-anchor="middle" x="129" y="-104.9" font-family="Helvetica,sans-Serif" font-size="10.00">GraphicClient::run</text>
</a>
</g>
</g>
<!-- Node4&#45;&gt;Node5 -->
<g id="edge4_Node000004_Node000005" class="edge">
<title>Node4&#45;&gt;Node5</title>
<g id="a_edge4_Node000004_Node000005"><a xlink:title=" ">
<path fill="none" stroke="#63b8ff" d="M206.6,-98.07C198.02,-99.11 189.46,-100.16 181.33,-101.15"/>
<polygon fill="#63b8ff" stroke="#63b8ff" points="207.16,-101.53 216.67,-96.84 206.32,-94.58 207.16,-101.53"/>
</a>
</g>
</g>
<!-- Node6 -->
<g id="Node000006" class="node">
<title>Node6</title>
<g id="a_Node000006"><a xlink:href="client_8cpp.html#ae66f6b31b5ad750f1fe042a706a4e3d4" target="_top" xlink:title=" ">
<polygon fill="white" stroke="#666666" points="41,-116.9 0,-116.9 0,-97.9 41,-97.9 41,-116.9"/>
<text text-anchor="middle" x="20.5" y="-104.9" font-family="Helvetica,sans-Serif" font-size="10.00">main</text>
</a>
</g>
</g>
<!-- Node5&#45;&gt;Node6 -->
<g id="edge5_Node000005_Node000006" class="edge">
<title>Node5&#45;&gt;Node6</title>
<g id="a_edge5_Node000005_Node000006"><a xlink:title=" ">
<path fill="none" stroke="#63b8ff" d="M66.83,-107.4C57.58,-107.4 48.66,-107.4 41.22,-107.4"/>
<polygon fill="#63b8ff" stroke="#63b8ff" points="66.93,-110.9 76.93,-107.4 66.93,-103.9 66.93,-110.9"/>
</a>
</g>
</g>
<!-- Node7&#45;&gt;Node3 -->
<g id="edge7_Node000007_Node000003" class="edge">
<title>Node7&#45;&gt;Node3</title>
<g id="a_edge7_Node000007_Node000003"><a xlink:title=" ">
<path fill="none" stroke="#63b8ff" d="M1001.28,-216.58C977.66,-220.56 951.3,-225.01 928.56,-228.85"/>
<polygon fill="#63b8ff" stroke="#63b8ff" points="1001.94,-220.01 1011.22,-214.9 1000.77,-213.11 1001.94,-220.01"/>
</a>
</g>
</g>
<!-- Node9 -->
<g id="Node000009" class="node">
<title>Node9</title>
<g id="a_Node000009"><a xlink:href="classNetworkClient.html#a1f77ff0729755d9782b4542582cfe214" target="_top" xlink:title="Poll TCP/UDP sockets and handle any received packets.">
<polygon fill="white" stroke="#666666" points="944.5,-171.9 797.5,-171.9 797.5,-152.9 944.5,-152.9 944.5,-171.9"/>
<text text-anchor="middle" x="871" y="-159.9" font-family="Helvetica,sans-Serif" font-size="10.00">NetworkClient::pollPackets</text>
</a>
</g>
</g>
<!-- Node8&#45;&gt;Node9 -->
<g id="edge9_Node000008_Node000009" class="edge">
<title>Node8&#45;&gt;Node9</title>
<g id="a_edge9_Node000008_Node000009"><a xlink:title=" ">
<path fill="none" stroke="#63b8ff" d="M985.54,-162.4C971.97,-162.4 957.98,-162.4 944.66,-162.4"/>
<polygon fill="#63b8ff" stroke="#63b8ff" points="985.81,-165.9 995.81,-162.4 985.81,-158.9 985.81,-165.9"/>
</a>
</g>
</g>
<!-- Node10 -->
<g id="Node000010" class="node">
<title>Node10</title>
<g id="a_Node000010"><a xlink:href="classGraphicClient.html#a4b416d0d2b3f07134ce30afb0c60adbe" target="_top" xlink:title="Initializes the client (connects to server, shows menus).">
<polygon fill="white" stroke="#666666" points="528.5,-135.9 424.5,-135.9 424.5,-116.9 528.5,-116.9 528.5,-135.9"/>
<text text-anchor="middle" x="476.5" y="-123.9" font-family="Helvetica,sans-Serif" font-size="10.00">GraphicClient::init</text>
</a>
</g>
</g>
<!-- Node9&#45;&gt;Node10 -->
<g id="edge10_Node000009_Node000010" class="edge">
<title>Node9&#45;&gt;Node10</title>
<g id="a_edge10_Node000009_Node000010"><a xlink:title=" ">
<path fill="none" stroke="#63b8ff" d="M787.19,-158.24C732.76,-155.11 660.03,-150.2 596,-143.4 573.89,-141.05 549.56,-137.69 528.73,-134.58"/>
<polygon fill="#63b8ff" stroke="#63b8ff" points="787.29,-161.75 797.47,-158.82 787.69,-154.76 787.29,-161.75"/>
</a>
</g>
</g>
<!-- Node11 -->
<g id="Node000011" class="node">
<title>Node11</title>
<g id="a_Node000011"><a xlink:href="classGraphicClient.html#a1fa2cfd0c71b32b0b1f0e0675a2e1cb2" target="_top" xlink:title="Processes network events and updates game state.">
<polygon fill="white" stroke="#666666" points="560,-197.4 393,-197.4 393,-167.4 560,-167.4 560,-197.4"/>
<text text-anchor="start" x="401" y="-185.4" font-family="Helvetica,sans-Serif" font-size="10.00">GraphicClient::processNetwork</text>
<text text-anchor="middle" x="476.5" y="-174.4" font-family="Helvetica,sans-Serif" font-size="10.00">Events</text>
</a>
</g>
</g>
<!-- Node9&#45;&gt;Node11 -->
<g id="edge12_Node000009_Node000011" class="edge">
<title>Node9&#45;&gt;Node11</title>
<g id="a_edge12_Node000009_Node000011"><a xlink:title=" ">
<path fill="none" stroke="#63b8ff" d="M792.06,-173.11C780.33,-174.41 768.36,-175.57 757,-176.4 690.92,-181.19 615.85,-182.58 560.16,-182.83"/>
<polygon fill="#63b8ff" stroke="#63b8ff" points="792.76,-176.55 802.29,-171.93 791.95,-169.59 792.76,-176.55"/>
</a>
</g>
</g>
<!-- Node12 -->
<g id="Node000012" class="node">
<title>Node12</title>
<g id="a_Node000012"><a xlink:href="classGraphicClient.html#a70229e3e019e7b315f06c9ad74f23be5" target="_top" xlink:title="Shows lobby selection menu.">
<polygon fill="white" stroke="#666666" points="750,-133.9 603,-133.9 603,-114.9 750,-114.9 750,-133.9"/>
<text text-anchor="middle" x="676.5" y="-121.9" font-family="Helvetica,sans-Serif" font-size="10.00">GraphicClient::selectLobby</text>
</a>
</g>
</g>
<!-- Node9&#45;&gt;Node12 -->
<g id="edge14_Node000009_Node000012" class="edge">
<title>Node9&#45;&gt;Node12</title>
<g id="a_edge14_Node000009_Node000012"><a xlink:title=" ">
<path fill="none" stroke="#63b8ff" d="M811.55,-150.86C784.09,-145.44 751.76,-139.06 725.73,-133.92"/>
<polygon fill="#63b8ff" stroke="#63b8ff" points="810.94,-154.31 821.42,-152.81 812.29,-147.44 810.94,-154.31"/>
</a>
</g>
</g>
<!-- Node10&#45;&gt;Node5 -->
<g id="edge11_Node000010_Node000005" class="edge">
<title>Node10&#45;&gt;Node5</title>
<g id="a_edge11_Node000010_Node000005"><a xlink:title=" ">
<path fill="none" stroke="#63b8ff" d="M413.83,-123.01C347.44,-119.36 243.04,-113.61 181.07,-110.21"/>
<polygon fill="#63b8ff" stroke="#63b8ff" points="413.97,-126.52 424.15,-123.57 414.36,-119.53 413.97,-126.52"/>
</a>
</g>
</g>
<!-- Node11&#45;&gt;Node4 -->
<g id="edge13_Node000011_Node000004" class="edge">
<title>Node11&#45;&gt;Node4</title>
<g id="a_edge13_Node000011_Node000004"><a xlink:title=" ">
<path fill="none" stroke="#63b8ff" d="M431.05,-163.2C418.65,-157.65 405.22,-151.44 393,-145.4 361.4,-129.76 325.46,-109.76 304.89,-98.08"/>
<polygon fill="#63b8ff" stroke="#63b8ff" points="429.74,-166.45 440.3,-167.31 432.59,-160.06 429.74,-166.45"/>
</a>
</g>
</g>
<!-- Node12&#45;&gt;Node10 -->
<g id="edge15_Node000012_Node000010" class="edge">
<title>Node12&#45;&gt;Node10</title>
<g id="a_edge15_Node000012_Node000010"><a xlink:title=" ">
<path fill="none" stroke="#63b8ff" d="M592.69,-125.23C570.99,-125.45 548.23,-125.68 528.73,-125.88"/>
<polygon fill="#63b8ff" stroke="#63b8ff" points="592.93,-128.73 602.9,-125.13 592.86,-121.73 592.93,-128.73"/>
</a>
</g>
</g>
<!-- Node13&#45;&gt;Node9 -->
<g id="edge17_Node000013_Node000009" class="edge">
<title>Node13&#45;&gt;Node9</title>
<g id="a_edge17_Node000013_Node000009"><a xlink:title=" ">
<path fill="none" stroke="#63b8ff" d="M1014.31,-131.1C983.22,-137.94 944.47,-146.46 915.27,-152.88"/>
<polygon fill="#63b8ff" stroke="#63b8ff" points="1015.1,-134.51 1024.11,-128.94 1013.59,-127.67 1015.1,-134.51"/>
</a>
</g>
</g>
<!-- Node15 -->
<g id="Node000015" class="node">
<title>Node15</title>
<g id="a_Node000015"><a xlink:href="classNetworkClient.html#aeb3772e8f3674783b14953ee27e1cd39" target="_top" xlink:title="Send UDP hello to register address/port on server.">
<polygon fill="white" stroke="#666666" points="757,-96.9 596,-96.9 596,-77.9 757,-77.9 757,-96.9"/>
<text text-anchor="middle" x="676.5" y="-84.9" font-family="Helvetica,sans-Serif" font-size="10.00">NetworkClient::sendHelloUdp</text>
</a>
</g>
</g>
<!-- Node14&#45;&gt;Node15 -->
<g id="edge19_Node000014_Node000015" class="edge">
<title>Node14&#45;&gt;Node15</title>
<g id="a_edge19_Node000014_Node000015"><a xlink:title=" ">
<path fill="none" stroke="#63b8ff" d="M1018.76,-94.04C997.48,-98.56 972.14,-103.17 949,-105.4 879.98,-112.03 862.13,-110.75 793,-105.4 771.45,-103.73 747.84,-100.33 727.62,-96.94"/>
<polygon fill="#63b8ff" stroke="#63b8ff" points="1019.52,-97.46 1028.54,-91.91 1018.03,-90.62 1019.52,-97.46"/>
</a>
</g>
</g>
<!-- Node16 -->
<g id="Node000016" class="node">
<title>Node16</title>
<g id="a_Node000016"><a xlink:href="classNetworkClient.html#afdfce51c7dbb2e61f5e9280b15368915" target="_top" xlink:title="Send player input over UDP.">
<polygon fill="white" stroke="#666666" points="941,-95.9 801,-95.9 801,-76.9 941,-76.9 941,-95.9"/>
<text text-anchor="middle" x="871" y="-83.9" font-family="Helvetica,sans-Serif" font-size="10.00">NetworkClient::sendInput</text>
</a>
</g>
</g>
<!-- Node14&#45;&gt;Node16 -->
<g id="edge22_Node000014_Node000016" class="edge">
<title>Node14&#45;&gt;Node16</title>
<g id="a_edge22_Node000014_Node000016"><a xlink:title=" ">
<path fill="none" stroke="#63b8ff" d="M974.56,-84.3C963.28,-84.53 951.91,-84.76 941.07,-84.98"/>
<polygon fill="#63b8ff" stroke="#63b8ff" points="974.95,-87.79 984.87,-84.09 974.8,-80.79 974.95,-87.79"/>
</a>
</g>
</g>
<!-- Node19 -->
<g id="Node000019" class="node">
<title>Node19</title>
<g id="a_Node000019"><a xlink:href="classNetworkClient.html#a2773882369d758cbb23aa67b0dda78ed" target="_top" xlink:title="Send a shoot command over UDP.">
<polygon fill="white" stroke="#666666" points="942.5,-58.9 799.5,-58.9 799.5,-39.9 942.5,-39.9 942.5,-58.9"/>
<text text-anchor="middle" x="871" y="-46.9" font-family="Helvetica,sans-Serif" font-size="10.00">NetworkClient::sendShoot</text>
</a>
</g>
</g>
<!-- Node14&#45;&gt;Node19 -->
<g id="edge26_Node000014_Node000019" class="edge">
<title>Node14&#45;&gt;Node19</title>
<g id="a_edge26_Node000014_Node000019"><a xlink:title=" ">
<path fill="none" stroke="#63b8ff" d="M1001.28,-71.22C977.66,-67.23 951.3,-62.78 928.56,-58.95"/>
<polygon fill="#63b8ff" stroke="#63b8ff" points="1000.77,-74.68 1011.22,-72.9 1001.94,-67.78 1000.77,-74.68"/>
</a>
</g>
</g>
<!-- Node14&#45;&gt;Node20 -->
<g id="edge28_Node000014_Node000020" class="edge">
<title>Node14&#45;&gt;Node20</title>
<g id="a_edge28_Node000014_Node000020"><a xlink:title=" ">
<path fill="none" stroke="#63b8ff" d="M1039.54,-68.38C1015.89,-56.95 980.85,-41.01 949,-30.4 939.49,-27.23 929.15,-24.41 919.21,-21.99"/>
<polygon fill="#63b8ff" stroke="#63b8ff" points="1038.11,-71.58 1048.63,-72.82 1041.19,-65.29 1038.11,-71.58"/>
</a>
</g>
</g>
<!-- Node15&#45;&gt;Node4 -->
<g id="edge20_Node000015_Node000004" class="edge">
<title>Node15&#45;&gt;Node4</title>
<g id="a_edge20_Node000015_Node000004"><a xlink:title=" ">
<path fill="none" stroke="#63b8ff" d="M585.59,-87.63C515.9,-87.81 420.78,-88.06 357.02,-88.22"/>
<polygon fill="#63b8ff" stroke="#63b8ff" points="585.69,-91.13 595.68,-87.6 585.67,-84.13 585.69,-91.13"/>
</a>
</g>
</g>
<!-- Node15&#45;&gt;Node10 -->
<g id="edge21_Node000015_Node000010" class="edge">
<title>Node15&#45;&gt;Node10</title>
<g id="a_edge21_Node000015_Node000010"><a xlink:title=" ">
<path fill="none" stroke="#63b8ff" d="M617.04,-98.91C587.99,-104.63 553.3,-111.47 525.78,-116.89"/>
<polygon fill="#63b8ff" stroke="#63b8ff" points="617.93,-102.3 627.06,-96.94 616.58,-95.44 617.93,-102.3"/>
</a>
</g>
</g>
<!-- Node17 -->
<g id="Node000017" class="node">
<title>Node17</title>
<g id="a_Node000017"><a xlink:href="classInputSystem.html#af7ed09c6bfd5fba6af86af16de00d706" target="_top" xlink:title="Updates input state and sends player commands to the server.">
<polygon fill="white" stroke="#666666" points="735.5,-59.9 617.5,-59.9 617.5,-40.9 735.5,-40.9 735.5,-59.9"/>
<text text-anchor="middle" x="676.5" y="-47.9" font-family="Helvetica,sans-Serif" font-size="10.00">InputSystem::update</text>
</a>
</g>
</g>
<!-- Node16&#45;&gt;Node17 -->
<g id="edge23_Node000016_Node000017" class="edge">
<title>Node16&#45;&gt;Node17</title>
<g id="a_edge23_Node000016_Node000017"><a xlink:title=" ">
<path fill="none" stroke="#63b8ff" d="M809.09,-75.01C783.19,-70.16 753.34,-64.58 728.61,-59.96"/>
<polygon fill="#63b8ff" stroke="#63b8ff" points="808.7,-78.49 819.17,-76.89 809.98,-71.61 808.7,-78.49"/>
</a>
</g>
</g>
<!-- Node18 -->
<g id="Node000018" class="node">
<title>Node18</title>
<g id="a_Node000018"><a xlink:href="classGraphicClient.html#a50072266faf2e76ace99e16c4c7b208a" target="_top" xlink:title="Updates all game entities based on delta time.">
<polygon fill="white" stroke="#666666" points="556,-59.9 397,-59.9 397,-40.9 556,-40.9 556,-59.9"/>
<text text-anchor="middle" x="476.5" y="-47.9" font-family="Helvetica,sans-Serif" font-size="10.00">GraphicClient::updateEntities</text>
</a>
</g>
</g>
<!-- Node17&#45;&gt;Node18 -->
<g id="edge24_Node000017_Node000018" class="edge">
<title>Node17&#45;&gt;Node18</title>
<g id="a_edge24_Node000017_Node000018"><a xlink:title=" ">
<path fill="none" stroke="#63b8ff" d="M607.35,-50.4C590.85,-50.4 573.09,-50.4 556.16,-50.4"/>
<polygon fill="#63b8ff" stroke="#63b8ff" points="607.43,-53.9 617.43,-50.4 607.43,-46.9 607.43,-53.9"/>
</a>
</g>
</g>
<!-- Node18&#45;&gt;Node4 -->
<g id="edge25_Node000018_Node000004" class="edge">
<title>Node18&#45;&gt;Node4</title>
<g id="a_edge25_Node000018_Node000004"><a xlink:title=" ">
<path fill="none" stroke="#63b8ff" d="M418.22,-62.01C391.55,-67.41 360.22,-73.76 334.97,-78.88"/>
<polygon fill="#63b8ff" stroke="#63b8ff" points="419.08,-65.4 428.19,-59.99 417.69,-58.54 419.08,-65.4"/>
</a>
</g>
</g>
<!-- Node19&#45;&gt;Node17 -->
<g id="edge27_Node000019_Node000017" class="edge">
<title>Node19&#45;&gt;Node17</title>
<g id="a_edge27_Node000019_Node000017"><a xlink:title=" ">
<path fill="none" stroke="#63b8ff" d="M789.24,-49.82C771.29,-49.91 752.61,-50.01 735.77,-50.09"/>
<polygon fill="#63b8ff" stroke="#63b8ff" points="789.43,-53.32 799.41,-49.76 789.4,-46.32 789.43,-53.32"/>
</a>
</g>
</g>
<!-- Node20&#45;&gt;Node4 -->
<g id="edge29_Node000020_Node000004" class="edge">
<title>Node20&#45;&gt;Node4</title>
<g id="a_edge29_Node000020_Node000004"><a xlink:title=" ">
<path fill="none" stroke="#63b8ff" d="M782.71,-4.18C685.66,2.28 525.16,4.98 393,-31.4 357.2,-41.25 320.13,-65.19 301.07,-78.7"/>
<polygon fill="#63b8ff" stroke="#63b8ff" points="782.55,-7.68 792.77,-4.88 783.04,-0.7 782.55,-7.68"/>
</a>
</g>
</g>
</g>
</svg>
