<?xml version="1.0" encoding="UTF-8" standalone="no"?>
<!DOCTYPE svg PUBLIC "-//W3C//DTD SVG 1.1//EN"
 "http://www.w3.org/Graphics/SVG/1.1/DTD/svg11.dtd">
<!-- Generated by graphviz version 2.43.0 (0)
 -->
<!-- Title: TCPServer::assignLobby Pages: 1 -->
<svg width="1207pt" height="249pt"
 viewBox="0.00 0.00 1207.00 248.50" xmlns="http://www.w3.org/2000/svg" xmlns:xlink="http://www.w3.org/1999/xlink">
<g id="graph0" class="graph" transform="scale(1 1) rotate(0) translate(4 244.5)">
<title>TCPServer::assignLobby</title>
<!-- Node1 -->
<g id="Node000001" class="node">
<title>Node1</title>
<g id="a_Node000001"><a xlink:title="Assign a client to a lobby (public or private).">
<polygon fill="#999999" stroke="#666666" points="133,-59 0,-59 0,-40 133,-40 133,-59"/>
<text text-anchor="middle" x="66.5" y="-47" font-family="Helvetica,sans-Serif" font-size="10.00">TCPServer::assignLobby</text>
</a>
</g>
</g>
<!-- Node2 -->
<g id="Node000002" class="node">
<title>Node2</title>
<g id="a_Node000002"><a xlink:href="classTCPServer.html#a30203c2836aa52676f3e6205d8730943" target="_top" xlink:title=" ">
<polygon fill="white" stroke="#666666" points="341,-149 169,-149 169,-130 341,-130 341,-149"/>
<text text-anchor="middle" x="255" y="-137" font-family="Helvetica,sans-Serif" font-size="10.00">TCPServer::ensureLobbyProcess</text>
</a>
</g>
</g>
<!-- Node1&#45;&gt;Node2 -->
<g id="edge1_Node000001_Node000002" class="edge">
<title>Node1&#45;&gt;Node2</title>
<g id="a_edge1_Node000001_Node000002"><a xlink:title=" ">
<path fill="none" stroke="#63b8ff" d="M87.46,-59.13C120.55,-75.1 186.91,-107.12 225.11,-125.56"/>
<polygon fill="#63b8ff" stroke="#63b8ff" points="223.66,-128.74 234.18,-129.94 226.7,-122.44 223.66,-128.74"/>
</a>
</g>
</g>
<!-- Node7 -->
<g id="Node000007" class="node">
<title>Node7</title>
<g id="a_Node000007"><a xlink:href="classTCPServer.html#a508cc3d7023b0cfe9abed2e3166b1682" target="_top" xlink:title="Remove a client from its current lobby.">
<polygon fill="white" stroke="#666666" points="337,-59 173,-59 173,-40 337,-40 337,-59"/>
<text text-anchor="middle" x="255" y="-47" font-family="Helvetica,sans-Serif" font-size="10.00">TCPServer::removeFromLobby</text>
</a>
</g>
</g>
<!-- Node1&#45;&gt;Node7 -->
<g id="edge6_Node000001_Node000007" class="edge">
<title>Node1&#45;&gt;Node7</title>
<g id="a_edge6_Node000001_Node000007"><a xlink:title=" ">
<path fill="none" stroke="#63b8ff" d="M133.25,-49.5C142.75,-49.5 152.66,-49.5 162.55,-49.5"/>
<polygon fill="#63b8ff" stroke="#63b8ff" points="162.82,-53 172.82,-49.5 162.82,-46 162.82,-53"/>
</a>
</g>
</g>
<!-- Node16 -->
<g id="Node000016" class="node">
<title>Node16</title>
<g id="a_Node000016"><a xlink:href="classSessionManager.html#a8023cf136e039298b1e2ba5fe7cb224b" target="_top" xlink:title="Store the lobby code for a player.">
<polygon fill="white" stroke="#666666" points="549,-21 377,-21 377,-2 549,-2 549,-21"/>
<text text-anchor="middle" x="463" y="-9" font-family="Helvetica,sans-Serif" font-size="10.00">SessionManager::setLobbyCode</text>
</a>
</g>
</g>
<!-- Node1&#45;&gt;Node16 -->
<g id="edge16_Node000001_Node000016" class="edge">
<title>Node1&#45;&gt;Node16</title>
<g id="a_edge16_Node000001_Node000016"><a xlink:title=" ">
<path fill="none" stroke="#63b8ff" d="M112.04,-39.96C129.7,-36.5 150.23,-32.86 169,-30.5 234.72,-22.25 309.22,-17.48 366.65,-14.78"/>
<polygon fill="#63b8ff" stroke="#63b8ff" points="366.97,-18.27 376.8,-14.32 366.65,-11.28 366.97,-18.27"/>
</a>
</g>
</g>
<!-- Node3 -->
<g id="Node000003" class="node">
<title>Node3</title>
<g id="a_Node000003"><a xlink:href="classChildProcessManager.html#af9be1ce64da7e05952b231b22df221a0" target="_top" xlink:title=" ">
<polygon fill="white" stroke="#666666" points="524,-240.5 402,-240.5 402,-210.5 524,-210.5 524,-240.5"/>
<text text-anchor="start" x="410" y="-228.5" font-family="Helvetica,sans-Serif" font-size="10.00">ChildProcessManager</text>
<text text-anchor="middle" x="463" y="-217.5" font-family="Helvetica,sans-Serif" font-size="10.00">::activeCount</text>
</a>
</g>
</g>
<!-- Node2&#45;&gt;Node3 -->
<g id="edge2_Node000002_Node000003" class="edge">
<title>Node2&#45;&gt;Node3</title>
<g id="a_edge2_Node000002_Node000003"><a xlink:title=" ">
<path fill="none" stroke="#63b8ff" d="M272.35,-149.2C295.16,-162.43 338.11,-186.22 377,-201.5 382.17,-203.53 387.59,-205.47 393.07,-207.3"/>
<polygon fill="#63b8ff" stroke="#63b8ff" points="392.38,-210.75 402.97,-210.47 394.51,-204.09 392.38,-210.75"/>
</a>
</g>
</g>
<!-- Node4 -->
<g id="Node000004" class="node">
<title>Node4</title>
<g id="a_Node000004"><a xlink:href="classTCPServer.html#a25273652d6d80037ec5bcad8725bd269" target="_top" xlink:title=" ">
<polygon fill="white" stroke="#666666" points="528.5,-192 397.5,-192 397.5,-173 528.5,-173 528.5,-192"/>
<text text-anchor="middle" x="463" y="-180" font-family="Helvetica,sans-Serif" font-size="10.00">TCPServer::allocatePort</text>
</a>
</g>
</g>
<!-- Node2&#45;&gt;Node4 -->
<g id="edge3_Node000002_Node000004" class="edge">
<title>Node2&#45;&gt;Node4</title>
<g id="a_edge3_Node000002_Node000004"><a xlink:title=" ">
<path fill="none" stroke="#63b8ff" d="M301.72,-149.04C332.66,-155.5 373.7,-164.07 406.51,-170.92"/>
<polygon fill="#63b8ff" stroke="#63b8ff" points="405.91,-174.37 416.41,-172.98 407.34,-167.51 405.91,-174.37"/>
</a>
</g>
</g>
<!-- Node5 -->
<g id="Node000005" class="node">
<title>Node5</title>
<g id="a_Node000005"><a xlink:href="classChildProcessManager.html#a3b7c34be0f81b8a841d4ecd28a837bf6" target="_top" xlink:title=" ">
<polygon fill="white" stroke="#666666" points="524,-154.5 402,-154.5 402,-124.5 524,-124.5 524,-154.5"/>
<text text-anchor="start" x="410" y="-142.5" font-family="Helvetica,sans-Serif" font-size="10.00">ChildProcessManager</text>
<text text-anchor="middle" x="463" y="-131.5" font-family="Helvetica,sans-Serif" font-size="10.00">::maxCount</text>
</a>
</g>
</g>
<!-- Node2&#45;&gt;Node5 -->
<g id="edge4_Node000002_Node000005" class="edge">
<title>Node2&#45;&gt;Node5</title>
<g id="a_edge4_Node000002_Node000005"><a xlink:title=" ">
<path fill="none" stroke="#63b8ff" d="M341.28,-139.5C357.98,-139.5 375.33,-139.5 391.49,-139.5"/>
<polygon fill="#63b8ff" stroke="#63b8ff" points="391.92,-143 401.92,-139.5 391.92,-136 391.92,-143"/>
</a>
</g>
</g>
<!-- Node6 -->
<g id="Node000006" class="node">
<title>Node6</title>
<g id="a_Node000006"><a xlink:href="classChildProcessManager.html#a138e2d098e92a2c6d1ad7b35dadd6541" target="_top" xlink:title="Spawn a UDP game server process.">
<polygon fill="white" stroke="#666666" points="524,-106.5 402,-106.5 402,-76.5 524,-76.5 524,-106.5"/>
<text text-anchor="start" x="410" y="-94.5" font-family="Helvetica,sans-Serif" font-size="10.00">ChildProcessManager</text>
<text text-anchor="middle" x="463" y="-83.5" font-family="Helvetica,sans-Serif" font-size="10.00">::spawn</text>
</a>
</g>
</g>
<!-- Node2&#45;&gt;Node6 -->
<g id="edge5_Node000002_Node000006" class="edge">
<title>Node2&#45;&gt;Node6</title>
<g id="a_edge5_Node000002_Node000006"><a xlink:title=" ">
<path fill="none" stroke="#63b8ff" d="M297.19,-129.9C324.21,-123.61 360.23,-115.21 391.7,-107.88"/>
<polygon fill="#63b8ff" stroke="#63b8ff" points="392.8,-111.22 401.74,-105.54 391.21,-104.4 392.8,-111.22"/>
</a>
</g>
</g>
<!-- Node8 -->
<g id="Node000008" class="node">
<title>Node8</title>
<g id="a_Node000008"><a xlink:href="classTCPServer.html#a8d2dcfc8d8337ff577a101c4aee6aac5" target="_top" xlink:title="Resend the player list to all members of a lobby.">
<polygon fill="white" stroke="#666666" points="531,-58 395,-58 395,-39 531,-39 531,-58"/>
<text text-anchor="middle" x="463" y="-46" font-family="Helvetica,sans-Serif" font-size="10.00">TCPServer::refreshLobby</text>
</a>
</g>
</g>
<!-- Node7&#45;&gt;Node8 -->
<g id="edge7_Node000007_Node000008" class="edge">
<title>Node7&#45;&gt;Node8</title>
<g id="a_edge7_Node000007_Node000008"><a xlink:title=" ">
<path fill="none" stroke="#63b8ff" d="M337.12,-49.11C352.82,-49.03 369.23,-48.95 384.81,-48.87"/>
<polygon fill="#63b8ff" stroke="#63b8ff" points="384.92,-52.37 394.9,-48.83 384.88,-45.37 384.92,-52.37"/>
</a>
</g>
</g>
<!-- Node7&#45;&gt;Node16 -->
<g id="edge15_Node000007_Node000016" class="edge">
<title>Node7&#45;&gt;Node16</title>
<g id="a_edge15_Node000007_Node000016"><a xlink:title=" ">
<path fill="none" stroke="#63b8ff" d="M307.72,-39.96C335.76,-34.79 370.6,-28.36 400.08,-22.92"/>
<polygon fill="#63b8ff" stroke="#63b8ff" points="401.06,-26.3 410.26,-21.04 399.79,-19.42 401.06,-26.3"/>
</a>
</g>
</g>
<!-- Node9 -->
<g id="Node000009" class="node">
<title>Node9</title>
<g id="a_Node000009"><a xlink:href="classTCPServer.html#aa87b20fb76f60c19df36f39ef3621b05" target="_top" xlink:title="Send the current player list to a single client.">
<polygon fill="white" stroke="#666666" points="728,-63.5 585,-63.5 585,-33.5 728,-33.5 728,-63.5"/>
<text text-anchor="start" x="593" y="-51.5" font-family="Helvetica,sans-Serif" font-size="10.00">TCPServer::sendPlayerList</text>
<text text-anchor="middle" x="656.5" y="-40.5" font-family="Helvetica,sans-Serif" font-size="10.00">ToClient</text>
</a>
</g>
</g>
<!-- Node8&#45;&gt;Node9 -->
<g id="edge8_Node000008_Node000009" class="edge">
<title>Node8&#45;&gt;Node9</title>
<g id="a_edge8_Node000008_Node000009"><a xlink:title=" ">
<path fill="none" stroke="#63b8ff" d="M531.25,-48.5C545.21,-48.5 560.06,-48.5 574.46,-48.5"/>
<polygon fill="#63b8ff" stroke="#63b8ff" points="574.84,-52 584.84,-48.5 574.84,-45 574.84,-52"/>
</a>
</g>
</g>
<!-- Node10 -->
<g id="Node000010" class="node">
<title>Node10</title>
<g id="a_Node000010"><a xlink:href="classTCPServer.html#a196ba30f88f890e9acf0ef1a21a74c71" target="_top" xlink:title="Build the packet containing the list of connected players.">
<polygon fill="white" stroke="#666666" points="908,-85.5 764,-85.5 764,-55.5 908,-55.5 908,-85.5"/>
<text text-anchor="start" x="772" y="-73.5" font-family="Helvetica,sans-Serif" font-size="10.00">TCPServer::buildPlayerList</text>
<text text-anchor="middle" x="836" y="-62.5" font-family="Helvetica,sans-Serif" font-size="10.00">Packet</text>
</a>
</g>
</g>
<!-- Node9&#45;&gt;Node10 -->
<g id="edge9_Node000009_Node000010" class="edge">
<title>Node9&#45;&gt;Node10</title>
<g id="a_edge9_Node000009_Node000010"><a xlink:title=" ">
<path fill="none" stroke="#63b8ff" d="M728.16,-57.26C736.57,-58.3 745.2,-59.37 753.75,-60.43"/>
<polygon fill="#63b8ff" stroke="#63b8ff" points="753.36,-63.91 763.71,-61.66 754.22,-56.96 753.36,-63.91"/>
</a>
</g>
</g>
<!-- Node11 -->
<g id="Node000011" class="node">
<title>Node11</title>
<g id="a_Node000011"><a xlink:href="classTCPServer.html#a9a65a3923e77e48c5f0019b45af8fcb5" target="_top" xlink:title="Send a packet to a specific client fd.">
<polygon fill="white" stroke="#666666" points="899.5,-37 772.5,-37 772.5,-18 899.5,-18 899.5,-37"/>
<text text-anchor="middle" x="836" y="-25" font-family="Helvetica,sans-Serif" font-size="10.00">TCPServer::sendPacket</text>
</a>
</g>
</g>
<!-- Node9&#45;&gt;Node11 -->
<g id="edge10_Node000009_Node000011" class="edge">
<title>Node9&#45;&gt;Node11</title>
<g id="a_edge10_Node000009_Node000011"><a xlink:title=" ">
<path fill="none" stroke="#63b8ff" d="M728.16,-40.14C739.34,-38.82 750.92,-37.45 762.14,-36.12"/>
<polygon fill="#63b8ff" stroke="#63b8ff" points="762.81,-39.57 772.33,-34.91 761.99,-32.61 762.81,-39.57"/>
</a>
</g>
</g>
<!-- Node12 -->
<g id="Node000012" class="node">
<title>Node12</title>
<g id="a_Node000012"><a xlink:href="namespaceProtocol.html#a668bdeed219432868fca095e1b2f2667" target="_top" xlink:title="Build a TCP framed buffer (2 bytes length + serialized packet).">
<polygon fill="white" stroke="#666666" points="1052.5,-56 945.5,-56 945.5,-37 1052.5,-37 1052.5,-56"/>
<text text-anchor="middle" x="999" y="-44" font-family="Helvetica,sans-Serif" font-size="10.00">Protocol::frameTcp</text>
</a>
</g>
</g>
<!-- Node11&#45;&gt;Node12 -->
<g id="edge11_Node000011_Node000012" class="edge">
<title>Node11&#45;&gt;Node12</title>
<g id="a_edge11_Node000011_Node000012"><a xlink:title=" ">
<path fill="none" stroke="#63b8ff" d="M899.71,-34.9C911.39,-36.28 923.59,-37.72 935.27,-39.1"/>
<polygon fill="#63b8ff" stroke="#63b8ff" points="935.03,-42.59 945.37,-40.29 935.85,-35.64 935.03,-42.59"/>
</a>
</g>
</g>
<!-- Node14 -->
<g id="Node000014" class="node">
<title>Node14</title>
<g id="a_Node000014"><a xlink:href="classTCPServer.html#a79e20e1d2821e399fe47dd1055341d5e" target="_top" xlink:title="Ensure the full buffer is written to the socket.">
<polygon fill="white" stroke="#666666" points="1054,-19 944,-19 944,0 1054,0 1054,-19"/>
<text text-anchor="middle" x="999" y="-7" font-family="Helvetica,sans-Serif" font-size="10.00">TCPServer::writeAll</text>
</a>
</g>
</g>
<!-- Node11&#45;&gt;Node14 -->
<g id="edge13_Node000011_Node000014" class="edge">
<title>Node11&#45;&gt;Node14</title>
<g id="a_edge13_Node000011_Node000014"><a xlink:title=" ">
<path fill="none" stroke="#63b8ff" d="M899.71,-20.49C910.86,-19.24 922.5,-17.94 933.69,-16.69"/>
<polygon fill="#63b8ff" stroke="#63b8ff" points="934.28,-20.15 943.83,-15.56 933.5,-13.19 934.28,-20.15"/>
</a>
</g>
</g>
<!-- Node13 -->
<g id="Node000013" class="node">
<title>Node13</title>
<g id="a_Node000013"><a xlink:href="classPacket.html#aa88c2d28796644c8a1d6137996502ca8" target="_top" xlink:title="Serialize the packet to a byte buffer ready to send.">
<polygon fill="white" stroke="#666666" points="1192,-56 1097,-56 1097,-37 1192,-37 1192,-56"/>
<text text-anchor="middle" x="1144.5" y="-44" font-family="Helvetica,sans-Serif" font-size="10.00">Packet::serialize</text>
</a>
</g>
</g>
<!-- Node12&#45;&gt;Node13 -->
<g id="edge12_Node000012_Node000013" class="edge">
<title>Node12&#45;&gt;Node13</title>
<g id="a_edge12_Node000012_Node000013"><a xlink:title=" ">
<path fill="none" stroke="#63b8ff" d="M1052.62,-46.5C1063.64,-46.5 1075.32,-46.5 1086.49,-46.5"/>
<polygon fill="#63b8ff" stroke="#63b8ff" points="1086.58,-50 1096.58,-46.5 1086.58,-43 1086.58,-50"/>
</a>
</g>
</g>
<!-- Node15 -->
<g id="Node000015" class="node">
<title>Node15</title>
<g id="a_Node000015"><a xlink:href="classTCPServer.html#a5b1988f8a542c2d39f3d3556264e71b2" target="_top" xlink:title="Write raw bytes to a socket fd.">
<polygon fill="white" stroke="#666666" points="1199,-19 1090,-19 1090,0 1199,0 1199,-19"/>
<text text-anchor="middle" x="1144.5" y="-7" font-family="Helvetica,sans-Serif" font-size="10.00">TCPServer::writeFd</text>
</a>
</g>
</g>
<!-- Node14&#45;&gt;Node15 -->
<g id="edge14_Node000014_Node000015" class="edge">
<title>Node14&#45;&gt;Node15</title>
<g id="a_edge14_Node000014_Node000015"><a xlink:title=" ">
<path fill="none" stroke="#63b8ff" d="M1054.25,-9.5C1062.49,-9.5 1071.06,-9.5 1079.48,-9.5"/>
<polygon fill="#63b8ff" stroke="#63b8ff" points="1079.65,-13 1089.65,-9.5 1079.65,-6 1079.65,-13"/>
</a>
</g>
</g>
</g>
</svg>
