<?xml version="1.0" encoding="UTF-8" standalone="no"?>
<!DOCTYPE svg PUBLIC "-//W3C//DTD SVG 1.1//EN"
 "http://www.w3.org/Graphics/SVG/1.1/DTD/svg11.dtd">
<!-- Generated by graphviz version 2.43.0 (0)
 -->
<!-- Title: NetworkClient::receiveTcpFramed Pages: 1 -->
<svg width="655pt" height="38pt"
 viewBox="0.00 0.00 655.00 38.00" xmlns="http://www.w3.org/2000/svg" xmlns:xlink="http://www.w3.org/1999/xlink">
<g id="graph0" class="graph" transform="scale(1 1) rotate(0) translate(4 34)">
<title>NetworkClient::receiveTcpFramed</title>
<!-- Node1 -->
<g id="Node000001" class="node">
<title>Node1</title>
<g id="a_Node000001"><a xlink:title=" ">
<polygon fill="#999999" stroke="#666666" points="144,-30 0,-30 0,0 144,0 144,-30"/>
<text text-anchor="start" x="8" y="-18" font-family="Helvetica,sans-Serif" font-size="10.00">NetworkClient::receiveTcp</text>
<text text-anchor="middle" x="72" y="-7" font-family="Helvetica,sans-Serif" font-size="10.00">Framed</text>
</a>
</g>
</g>
<!-- Node2 -->
<g id="Node000002" class="node">
<title>Node2</title>
<g id="a_Node000002"><a xlink:href="namespaceProtocol.html#ad768525ca5f0324a5f414440e67679b6" target="_top" xlink:title="Append newly read bytes then attempt extraction.">
<polygon fill="white" stroke="#666666" points="317,-24.5 180,-24.5 180,-5.5 317,-5.5 317,-24.5"/>
<text text-anchor="middle" x="248.5" y="-12.5" font-family="Helvetica,sans-Serif" font-size="10.00">Protocol::consumeChunk</text>
</a>
</g>
</g>
<!-- Node1&#45;&gt;Node2 -->
<g id="edge1_Node000001_Node000002" class="edge">
<title>Node1&#45;&gt;Node2</title>
<g id="a_edge1_Node000001_Node000002"><a xlink:title=" ">
<path fill="none" stroke="#63b8ff" d="M144.23,-15C152.6,-15 161.18,-15 169.64,-15"/>
<polygon fill="#63b8ff" stroke="#63b8ff" points="169.88,-18.5 179.88,-15 169.88,-11.5 169.88,-18.5"/>
</a>
</g>
</g>
<!-- Node3 -->
<g id="Node000003" class="node">
<title>Node3</title>
<g id="a_Node000003"><a xlink:href="namespaceProtocol.html#a10005c44787f8de2a0e42d395aff8baa" target="_top" xlink:title="Try to extract a complete packet from an accumulated stream buffer.">
<polygon fill="white" stroke="#666666" points="504,-24.5 353,-24.5 353,-5.5 504,-5.5 504,-24.5"/>
<text text-anchor="middle" x="428.5" y="-12.5" font-family="Helvetica,sans-Serif" font-size="10.00">Protocol::extractFromBuffer</text>
</a>
</g>
</g>
<!-- Node2&#45;&gt;Node3 -->
<g id="edge2_Node000002_Node000003" class="edge">
<title>Node2&#45;&gt;Node3</title>
<g id="a_edge2_Node000002_Node000003"><a xlink:title=" ">
<path fill="none" stroke="#63b8ff" d="M317.05,-15C325.46,-15 334.14,-15 342.77,-15"/>
<polygon fill="#63b8ff" stroke="#63b8ff" points="342.86,-18.5 352.86,-15 342.86,-11.5 342.86,-18.5"/>
</a>
</g>
</g>
<!-- Node4 -->
<g id="Node000004" class="node">
<title>Node4</title>
<g id="a_Node000004"><a xlink:href="classPacket.html#abfcd427a2ca434ac71592334517638fb" target="_top" xlink:title="Deserialize a packet from a raw byte buffer.">
<polygon fill="white" stroke="#666666" points="647,-24.5 540,-24.5 540,-5.5 647,-5.5 647,-24.5"/>
<text text-anchor="middle" x="593.5" y="-12.5" font-family="Helvetica,sans-Serif" font-size="10.00">Packet::deserialize</text>
</a>
</g>
</g>
<!-- Node3&#45;&gt;Node4 -->
<g id="edge3_Node000003_Node000004" class="edge">
<title>Node3&#45;&gt;Node4</title>
<g id="a_edge3_Node000003_Node000004"><a xlink:title=" ">
<path fill="none" stroke="#63b8ff" d="M504.32,-15C512.68,-15 521.13,-15 529.32,-15"/>
<polygon fill="#63b8ff" stroke="#63b8ff" points="529.53,-18.5 539.53,-15 529.53,-11.5 529.53,-18.5"/>
</a>
</g>
</g>
</g>
</svg>
