<?xml version="1.0" encoding="UTF-8" standalone="no"?>
<!DOCTYPE svg PUBLIC "-//W3C//DTD SVG 1.1//EN"
 "http://www.w3.org/Graphics/SVG/1.1/DTD/svg11.dtd">
<!-- Generated by graphviz version 2.43.0 (0)
 -->
<!-- Title: TCPServer::getCurrentTime Pages: 1 -->
<svg width="555pt" height="140pt"
 viewBox="0.00 0.00 555.00 140.00" xmlns="http://www.w3.org/2000/svg" xmlns:xlink="http://www.w3.org/1999/xlink">
<g id="graph0" class="graph" transform="scale(1 1) rotate(0) translate(4 136)">
<title>TCPServer::getCurrentTime</title>
<!-- Node1 -->
<g id="Node000001" class="node">
<title>Node1</title>
<g id="a_Node000001"><a xlink:title="Get current time in milliseconds.">
<polygon fill="#999999" stroke="#666666" points="547,-75 398,-75 398,-56 547,-56 547,-75"/>
<text text-anchor="middle" x="472.5" y="-63" font-family="Helvetica,sans-Serif" font-size="10.00">TCPServer::getCurrentTime</text>
</a>
</g>
</g>
<!-- Node2 -->
<g id="Node000002" class="node">
<title>Node2</title>
<g id="a_Node000002"><a xlink:href="classTCPServer.html#ae0e94f8d712b3c9028fe674100d649b9" target="_top" xlink:title="Accept incoming connection and register a new client slot.">
<polygon fill="white" stroke="#666666" points="359,-132 204,-132 204,-113 359,-113 359,-132"/>
<text text-anchor="middle" x="281.5" y="-120" font-family="Helvetica,sans-Serif" font-size="10.00">TCPServer::acceptNewClient</text>
</a>
</g>
</g>
<!-- Node1&#45;&gt;Node2 -->
<g id="edge1_Node000001_Node000002" class="edge">
<title>Node1&#45;&gt;Node2</title>
<g id="a_edge1_Node000001_Node000002"><a xlink:title=" ">
<path fill="none" stroke="#63b8ff" d="M429.99,-78.02C395.12,-88.54 346.03,-103.34 314.24,-112.93"/>
<polygon fill="#63b8ff" stroke="#63b8ff" points="431.3,-81.28 439.87,-75.04 429.28,-74.58 431.3,-81.28"/>
</a>
</g>
</g>
<!-- Node3 -->
<g id="Node000003" class="node">
<title>Node3</title>
<g id="a_Node000003"><a xlink:href="classTCPServer.html#a4e6d2ef05b71c4ecbd0518fc7215ece3" target="_top" xlink:title="Run the main accept/receive loop (blocking).">
<polygon fill="white" stroke="#666666" points="165,-75 77,-75 77,-56 165,-56 165,-75"/>
<text text-anchor="middle" x="121" y="-63" font-family="Helvetica,sans-Serif" font-size="10.00">TCPServer::run</text>
</a>
</g>
</g>
<!-- Node1&#45;&gt;Node3 -->
<g id="edge8_Node000001_Node000003" class="edge">
<title>Node1&#45;&gt;Node3</title>
<g id="a_edge8_Node000001_Node000003"><a xlink:title=" ">
<path fill="none" stroke="#63b8ff" d="M387.68,-65.5C317.67,-65.5 220.66,-65.5 165.32,-65.5"/>
<polygon fill="#63b8ff" stroke="#63b8ff" points="387.81,-69 397.81,-65.5 387.81,-62 387.81,-69"/>
</a>
</g>
</g>
<!-- Node5 -->
<g id="Node000005" class="node">
<title>Node5</title>
<g id="a_Node000005"><a xlink:href="classTCPServer.html#a867c0e233f62e2d8f181ae99dbcca0a0" target="_top" xlink:title="Disconnect clients whose heartbeat timed out.">
<polygon fill="white" stroke="#666666" points="356,-56 207,-56 207,-37 356,-37 356,-56"/>
<text text-anchor="middle" x="281.5" y="-44" font-family="Helvetica,sans-Serif" font-size="10.00">TCPServer::checkHeartbeat</text>
</a>
</g>
</g>
<!-- Node1&#45;&gt;Node5 -->
<g id="edge4_Node000001_Node000005" class="edge">
<title>Node1&#45;&gt;Node5</title>
<g id="a_edge4_Node000001_Node000005"><a xlink:title=" ">
<path fill="none" stroke="#63b8ff" d="M387.86,-57.09C377.32,-56.03 366.59,-54.95 356.22,-53.91"/>
<polygon fill="#63b8ff" stroke="#63b8ff" points="387.59,-60.58 397.89,-58.1 388.29,-53.62 387.59,-60.58"/>
</a>
</g>
</g>
<!-- Node6 -->
<g id="Node000006" class="node">
<title>Node6</title>
<g id="a_Node000006"><a xlink:href="classTCPServer.html#ada05a61182a782b4d3326fabd26a19bf" target="_top" xlink:title="Read and handle data for a single client.">
<polygon fill="white" stroke="#666666" points="362,-19 201,-19 201,0 362,0 362,-19"/>
<text text-anchor="middle" x="281.5" y="-7" font-family="Helvetica,sans-Serif" font-size="10.00">TCPServer::processClientData</text>
</a>
</g>
</g>
<!-- Node1&#45;&gt;Node6 -->
<g id="edge6_Node000001_Node000006" class="edge">
<title>Node1&#45;&gt;Node6</title>
<g id="a_edge6_Node000001_Node000006"><a xlink:title=" ">
<path fill="none" stroke="#63b8ff" d="M435.57,-52.44C414.33,-44.94 386.8,-35.64 362,-28.5 350.27,-25.12 337.45,-21.87 325.6,-19.04"/>
<polygon fill="#63b8ff" stroke="#63b8ff" points="434.57,-55.79 445.16,-55.85 436.91,-49.2 434.57,-55.79"/>
</a>
</g>
</g>
<!-- Node2&#45;&gt;Node3 -->
<g id="edge2_Node000002_Node000003" class="edge">
<title>Node2&#45;&gt;Node3</title>
<g id="a_edge2_Node000002_Node000003"><a xlink:title=" ">
<path fill="none" stroke="#63b8ff" d="M236.3,-110.04C224.74,-106.53 212.34,-102.57 201,-98.5 181.13,-91.37 159,-82 143.23,-75.06"/>
<polygon fill="#63b8ff" stroke="#63b8ff" points="235.62,-113.48 246.2,-112.98 237.62,-106.77 235.62,-113.48"/>
</a>
</g>
</g>
<!-- Node4 -->
<g id="Node000004" class="node">
<title>Node4</title>
<g id="a_Node000004"><a xlink:href="server_8cpp.html#ae66f6b31b5ad750f1fe042a706a4e3d4" target="_top" xlink:title=" ">
<polygon fill="white" stroke="#666666" points="41,-75 0,-75 0,-56 41,-56 41,-75"/>
<text text-anchor="middle" x="20.5" y="-63" font-family="Helvetica,sans-Serif" font-size="10.00">main</text>
</a>
</g>
</g>
<!-- Node3&#45;&gt;Node4 -->
<g id="edge3_Node000003_Node000004" class="edge">
<title>Node3&#45;&gt;Node4</title>
<g id="a_edge3_Node000003_Node000004"><a xlink:title=" ">
<path fill="none" stroke="#63b8ff" d="M66.57,-65.5C57.52,-65.5 48.67,-65.5 41.23,-65.5"/>
<polygon fill="#63b8ff" stroke="#63b8ff" points="66.8,-69 76.8,-65.5 66.8,-62 66.8,-69"/>
</a>
</g>
</g>
<!-- Node5&#45;&gt;Node3 -->
<g id="edge5_Node000005_Node000003" class="edge">
<title>Node5&#45;&gt;Node3</title>
<g id="a_edge5_Node000005_Node000003"><a xlink:title=" ">
<path fill="none" stroke="#63b8ff" d="M196.8,-56.53C185.9,-57.84 175.11,-59.13 165.26,-60.31"/>
<polygon fill="#63b8ff" stroke="#63b8ff" points="197.31,-60 206.82,-55.33 196.47,-53.05 197.31,-60"/>
</a>
</g>
</g>
<!-- Node6&#45;&gt;Node3 -->
<g id="edge7_Node000006_Node000003" class="edge">
<title>Node6&#45;&gt;Node3</title>
<g id="a_edge7_Node000006_Node000003"><a xlink:title=" ">
<path fill="none" stroke="#63b8ff" d="M223.69,-21.58C215.99,-23.65 208.25,-25.96 201,-28.5 179.27,-36.1 155.49,-47.72 139.76,-55.9"/>
<polygon fill="#63b8ff" stroke="#63b8ff" points="224.57,-24.97 233.38,-19.09 222.82,-18.19 224.57,-24.97"/>
</a>
</g>
</g>
</g>
</svg>
