<?xml version="1.0" encoding="UTF-8" standalone="no"?>
<!DOCTYPE svg PUBLIC "-//W3C//DTD SVG 1.1//EN"
 "http://www.w3.org/Graphics/SVG/1.1/DTD/svg11.dtd">
<!-- Generated by graphviz version 2.43.0 (0)
 -->
<!-- Title: SpriteRenderSystem::setScale Pages: 1 -->
<svg width="673pt" height="38pt"
 viewBox="0.00 0.00 673.00 38.00" xmlns="http://www.w3.org/2000/svg" xmlns:xlink="http://www.w3.org/1999/xlink">
<g id="graph0" class="graph" transform="scale(1 1) rotate(0) translate(4 34)">
<title>SpriteRenderSystem::setScale</title>
<!-- Node1 -->
<g id="Node000001" class="node">
<title>Node1</title>
<g id="a_Node000001"><a xlink:title="Sets the sprite scaling factors.">
<polygon fill="#999999" stroke="#666666" points="665,-30 549,-30 549,0 665,0 665,-30"/>
<text text-anchor="start" x="557" y="-18" font-family="Helvetica,sans-Serif" font-size="10.00">SpriteRenderSystem</text>
<text text-anchor="middle" x="607" y="-7" font-family="Helvetica,sans-Serif" font-size="10.00">::setScale</text>
</a>
</g>
</g>
<!-- Node2 -->
<g id="Node000002" class="node">
<title>Node2</title>
<g id="a_Node000002"><a xlink:href="classGraphicClient.html#ab0acd8f5b8996cc62295831d7af1cf59" target="_top" xlink:title="Renders the entire game scene.">
<polygon fill="white" stroke="#666666" points="513,-24.5 393,-24.5 393,-5.5 513,-5.5 513,-24.5"/>
<text text-anchor="middle" x="453" y="-12.5" font-family="Helvetica,sans-Serif" font-size="10.00">GraphicClient::render</text>
</a>
</g>
</g>
<!-- Node1&#45;&gt;Node2 -->
<g id="edge1_Node000001_Node000002" class="edge">
<title>Node1&#45;&gt;Node2</title>
<g id="a_edge1_Node000001_Node000002"><a xlink:title=" ">
<path fill="none" stroke="#63b8ff" d="M538.96,-15C530.36,-15 521.59,-15 513.13,-15"/>
<polygon fill="#63b8ff" stroke="#63b8ff" points="538.97,-18.5 548.97,-15 538.97,-11.5 538.97,-18.5"/>
</a>
</g>
</g>
<!-- Node3 -->
<g id="Node000003" class="node">
<title>Node3</title>
<g id="a_Node000003"><a xlink:href="classGraphicClient.html#a5cb5c37142e62f04824cc6e21dd199b2" target="_top" xlink:title="Main game loop iteration.">
<polygon fill="white" stroke="#666666" points="357,-24.5 217,-24.5 217,-5.5 357,-5.5 357,-24.5"/>
<text text-anchor="middle" x="287" y="-12.5" font-family="Helvetica,sans-Serif" font-size="10.00">GraphicClient::gameLoop</text>
</a>
</g>
</g>
<!-- Node2&#45;&gt;Node3 -->
<g id="edge2_Node000002_Node000003" class="edge">
<title>Node2&#45;&gt;Node3</title>
<g id="a_edge2_Node000002_Node000003"><a xlink:title=" ">
<path fill="none" stroke="#63b8ff" d="M382.63,-15C374.2,-15 365.59,-15 357.16,-15"/>
<polygon fill="#63b8ff" stroke="#63b8ff" points="382.79,-18.5 392.79,-15 382.79,-11.5 382.79,-18.5"/>
</a>
</g>
</g>
<!-- Node4 -->
<g id="Node000004" class="node">
<title>Node4</title>
<g id="a_Node000004"><a xlink:href="classGraphicClient.html#ad39a5f1d7ec30752f8d412d6925ef109" target="_top" xlink:title="Main application loop.">
<polygon fill="white" stroke="#666666" points="181,-24.5 77,-24.5 77,-5.5 181,-5.5 181,-24.5"/>
<text text-anchor="middle" x="129" y="-12.5" font-family="Helvetica,sans-Serif" font-size="10.00">GraphicClient::run</text>
</a>
</g>
</g>
<!-- Node3&#45;&gt;Node4 -->
<g id="edge3_Node000003_Node000004" class="edge">
<title>Node3&#45;&gt;Node4</title>
<g id="a_edge3_Node000003_Node000004"><a xlink:title=" ">
<path fill="none" stroke="#63b8ff" d="M206.6,-15C198.02,-15 189.46,-15 181.33,-15"/>
<polygon fill="#63b8ff" stroke="#63b8ff" points="206.67,-18.5 216.67,-15 206.67,-11.5 206.67,-18.5"/>
</a>
</g>
</g>
<!-- Node5 -->
<g id="Node000005" class="node">
<title>Node5</title>
<g id="a_Node000005"><a xlink:href="client_8cpp.html#ae66f6b31b5ad750f1fe042a706a4e3d4" target="_top" xlink:title=" ">
<polygon fill="white" stroke="#666666" points="41,-24.5 0,-24.5 0,-5.5 41,-5.5 41,-24.5"/>
<text text-anchor="middle" x="20.5" y="-12.5" font-family="Helvetica,sans-Serif" font-size="10.00">main</text>
</a>
</g>
</g>
<!-- Node4&#45;&gt;Node5 -->
<g id="edge4_Node000004_Node000005" class="edge">
<title>Node4&#45;&gt;Node5</title>
<g id="a_edge4_Node000004_Node000005"><a xlink:title=" ">
<path fill="none" stroke="#63b8ff" d="M66.83,-15C57.58,-15 48.66,-15 41.22,-15"/>
<polygon fill="#63b8ff" stroke="#63b8ff" points="66.93,-18.5 76.93,-15 66.93,-11.5 66.93,-18.5"/>
</a>
</g>
</g>
</g>
</svg>
