<?xml version="1.0" encoding="UTF-8" standalone="no"?>
<!DOCTYPE svg PUBLIC "-//W3C//DTD SVG 1.1//EN"
 "http://www.w3.org/Graphics/SVG/1.1/DTD/svg11.dtd">
<!-- Generated by graphviz version 2.43.0 (0)
 -->
<!-- Title: TCPServer::sendPlayerListToClient Pages: 1 -->
<svg width="1332pt" height="174pt"
 viewBox="0.00 0.00 1332.00 174.17" xmlns="http://www.w3.org/2000/svg" xmlns:xlink="http://www.w3.org/1999/xlink">
<g id="graph0" class="graph" transform="scale(1 1) rotate(0) translate(4 170.17)">
<title>TCPServer::sendPlayerListToClient</title>
<!-- Node1 -->
<g id="Node000001" class="node">
<title>Node1</title>
<g id="a_Node000001"><a xlink:title="Send the current player list to a single client.">
<polygon fill="#999999" stroke="#666666" points="1324,-166.17 1181,-166.17 1181,-136.17 1324,-136.17 1324,-166.17"/>
<text text-anchor="start" x="1189" y="-154.17" font-family="Helvetica,sans-Serif" font-size="10.00">TCPServer::sendPlayerList</text>
<text text-anchor="middle" x="1252.5" y="-143.17" font-family="Helvetica,sans-Serif" font-size="10.00">ToClient</text>
</a>
</g>
</g>
<!-- Node2 -->
<g id="Node000002" class="node">
<title>Node2</title>
<g id="a_Node000002"><a xlink:href="classTCPServer.html#afd78aa179d3b735e82868d800629b354" target="_top" xlink:title="Handle lobby&#45;related packets for a client.">
<polygon fill="white" stroke="#666666" points="564,-140.67 398,-140.67 398,-121.67 564,-121.67 564,-140.67"/>
<text text-anchor="middle" x="481" y="-128.67" font-family="Helvetica,sans-Serif" font-size="10.00">TCPServer::handleLobbyPacket</text>
</a>
</g>
</g>
<!-- Node1&#45;&gt;Node2 -->
<g id="edge1_Node000001_Node000002" class="edge">
<title>Node1&#45;&gt;Node2</title>
<g id="a_edge1_Node000001_Node000002"><a xlink:title=" ">
<path fill="none" stroke="#63b8ff" d="M1170.43,-153.4C1047.09,-156.11 805.01,-158.8 600,-145.17 584.46,-144.14 567.82,-142.5 552.09,-140.7"/>
<polygon fill="#63b8ff" stroke="#63b8ff" points="1170.62,-156.89 1180.54,-153.17 1170.47,-149.9 1170.62,-156.89"/>
</a>
</g>
</g>
<!-- Node6 -->
<g id="Node000006" class="node">
<title>Node6</title>
<g id="a_Node000006"><a xlink:href="classTCPServer.html#a8d2dcfc8d8337ff577a101c4aee6aac5" target="_top" xlink:title="Resend the player list to all members of a lobby.">
<polygon fill="white" stroke="#666666" points="1145,-141.67 1009,-141.67 1009,-122.67 1145,-122.67 1145,-141.67"/>
<text text-anchor="middle" x="1077" y="-129.67" font-family="Helvetica,sans-Serif" font-size="10.00">TCPServer::refreshLobby</text>
</a>
</g>
</g>
<!-- Node1&#45;&gt;Node6 -->
<g id="edge5_Node000001_Node000006" class="edge">
<title>Node1&#45;&gt;Node6</title>
<g id="a_edge5_Node000001_Node000006"><a xlink:title=" ">
<path fill="none" stroke="#63b8ff" d="M1170.88,-142.34C1162.27,-141.4 1153.57,-140.45 1145.14,-139.53"/>
<polygon fill="#63b8ff" stroke="#63b8ff" points="1170.61,-145.84 1180.93,-143.45 1171.37,-138.88 1170.61,-145.84"/>
</a>
</g>
</g>
<!-- Node3 -->
<g id="Node000003" class="node">
<title>Node3</title>
<g id="a_Node000003"><a xlink:href="classTCPServer.html#ada05a61182a782b4d3326fabd26a19bf" target="_top" xlink:title="Read and handle data for a single client.">
<polygon fill="white" stroke="#666666" points="362,-139.67 201,-139.67 201,-120.67 362,-120.67 362,-139.67"/>
<text text-anchor="middle" x="281.5" y="-127.67" font-family="Helvetica,sans-Serif" font-size="10.00">TCPServer::processClientData</text>
</a>
</g>
</g>
<!-- Node2&#45;&gt;Node3 -->
<g id="edge2_Node000002_Node000003" class="edge">
<title>Node2&#45;&gt;Node3</title>
<g id="a_edge2_Node000002_Node000003"><a xlink:title=" ">
<path fill="none" stroke="#63b8ff" d="M387.88,-130.71C379.25,-130.66 370.56,-130.62 362.07,-130.58"/>
<polygon fill="#63b8ff" stroke="#63b8ff" points="387.94,-134.21 397.96,-130.76 387.98,-127.21 387.94,-134.21"/>
</a>
</g>
</g>
<!-- Node4 -->
<g id="Node000004" class="node">
<title>Node4</title>
<g id="a_Node000004"><a xlink:href="classTCPServer.html#a4e6d2ef05b71c4ecbd0518fc7215ece3" target="_top" xlink:title="Run the main accept/receive loop (blocking).">
<polygon fill="white" stroke="#666666" points="165,-102.67 77,-102.67 77,-83.67 165,-83.67 165,-102.67"/>
<text text-anchor="middle" x="121" y="-90.67" font-family="Helvetica,sans-Serif" font-size="10.00">TCPServer::run</text>
</a>
</g>
</g>
<!-- Node3&#45;&gt;Node4 -->
<g id="edge3_Node000003_Node000004" class="edge">
<title>Node3&#45;&gt;Node4</title>
<g id="a_edge3_Node000003_Node000004"><a xlink:title=" ">
<path fill="none" stroke="#63b8ff" d="M227.97,-118.38C218.97,-116.33 209.71,-114.21 201,-112.17 188.09,-109.16 174.01,-105.8 161.36,-102.75"/>
<polygon fill="#63b8ff" stroke="#63b8ff" points="227.45,-121.86 237.98,-120.66 229,-115.03 227.45,-121.86"/>
</a>
</g>
</g>
<!-- Node5 -->
<g id="Node000005" class="node">
<title>Node5</title>
<g id="a_Node000005"><a xlink:href="server_8cpp.html#ae66f6b31b5ad750f1fe042a706a4e3d4" target="_top" xlink:title=" ">
<polygon fill="white" stroke="#666666" points="41,-102.67 0,-102.67 0,-83.67 41,-83.67 41,-102.67"/>
<text text-anchor="middle" x="20.5" y="-90.67" font-family="Helvetica,sans-Serif" font-size="10.00">main</text>
</a>
</g>
</g>
<!-- Node4&#45;&gt;Node5 -->
<g id="edge4_Node000004_Node000005" class="edge">
<title>Node4&#45;&gt;Node5</title>
<g id="a_edge4_Node000004_Node000005"><a xlink:title=" ">
<path fill="none" stroke="#63b8ff" d="M66.57,-93.17C57.52,-93.17 48.67,-93.17 41.23,-93.17"/>
<polygon fill="#63b8ff" stroke="#63b8ff" points="66.8,-96.67 76.8,-93.17 66.8,-89.67 66.8,-96.67"/>
</a>
</g>
</g>
<!-- Node6&#45;&gt;Node2 -->
<g id="edge6_Node000006_Node000002" class="edge">
<title>Node6&#45;&gt;Node2</title>
<g id="a_edge6_Node000006_Node000002"><a xlink:title=" ">
<path fill="none" stroke="#63b8ff" d="M998.49,-132.04C886.21,-131.85 679.21,-131.51 564.3,-131.31"/>
<polygon fill="#63b8ff" stroke="#63b8ff" points="998.72,-135.54 1008.73,-132.06 998.73,-128.54 998.72,-135.54"/>
</a>
</g>
</g>
<!-- Node7 -->
<g id="Node000007" class="node">
<title>Node7</title>
<g id="a_Node000007"><a xlink:href="classTCPServer.html#a508cc3d7023b0cfe9abed2e3166b1682" target="_top" xlink:title="Remove a client from its current lobby.">
<polygon fill="white" stroke="#666666" points="973,-84.67 809,-84.67 809,-65.67 973,-65.67 973,-84.67"/>
<text text-anchor="middle" x="891" y="-72.67" font-family="Helvetica,sans-Serif" font-size="10.00">TCPServer::removeFromLobby</text>
</a>
</g>
</g>
<!-- Node6&#45;&gt;Node7 -->
<g id="edge7_Node000006_Node000007" class="edge">
<title>Node6&#45;&gt;Node7</title>
<g id="a_edge7_Node000006_Node000007"><a xlink:title=" ">
<path fill="none" stroke="#63b8ff" d="M1035.58,-119.65C1001.64,-109.14 953.85,-94.33 922.9,-84.75"/>
<polygon fill="#63b8ff" stroke="#63b8ff" points="1034.61,-123.02 1045.2,-122.63 1036.69,-116.33 1034.61,-123.02"/>
</a>
</g>
</g>
<!-- Node8 -->
<g id="Node000008" class="node">
<title>Node8</title>
<g id="a_Node000008"><a xlink:href="classTCPServer.html#a84035146c9257be5714850a1f46d0bfb" target="_top" xlink:title="Assign a client to a lobby (public or private).">
<polygon fill="white" stroke="#666666" points="753,-103.67 620,-103.67 620,-84.67 753,-84.67 753,-103.67"/>
<text text-anchor="middle" x="686.5" y="-91.67" font-family="Helvetica,sans-Serif" font-size="10.00">TCPServer::assignLobby</text>
</a>
</g>
</g>
<!-- Node7&#45;&gt;Node8 -->
<g id="edge8_Node000007_Node000008" class="edge">
<title>Node7&#45;&gt;Node8</title>
<g id="a_edge8_Node000007_Node000008"><a xlink:title=" ">
<path fill="none" stroke="#63b8ff" d="M798.76,-83.73C783.39,-85.18 767.71,-86.65 753.16,-88.01"/>
<polygon fill="#63b8ff" stroke="#63b8ff" points="799.17,-87.21 808.8,-82.79 798.52,-80.24 799.17,-87.21"/>
</a>
</g>
</g>
<!-- Node10 -->
<g id="Node000010" class="node">
<title>Node10</title>
<g id="a_Node000010"><a xlink:href="classTCPServer.html#a2a03b7479e884f287b5a88df03eeb17b" target="_top" xlink:title=" ">
<polygon fill="white" stroke="#666666" points="773,-27.67 600,-27.67 600,-8.67 773,-8.67 773,-27.67"/>
<text text-anchor="middle" x="686.5" y="-15.67" font-family="Helvetica,sans-Serif" font-size="10.00">TCPServer::processIpcMessages</text>
</a>
</g>
</g>
<!-- Node7&#45;&gt;Node10 -->
<g id="edge11_Node000007_Node000010" class="edge">
<title>Node7&#45;&gt;Node10</title>
<g id="a_edge11_Node000007_Node000010"><a xlink:title=" ">
<path fill="none" stroke="#63b8ff" d="M846.48,-62.89C824.46,-56.67 797.31,-49.01 773,-42.17 756.08,-37.41 737.28,-32.13 721.62,-27.74"/>
<polygon fill="#63b8ff" stroke="#63b8ff" points="845.64,-66.28 856.21,-65.63 847.54,-59.55 845.64,-66.28"/>
</a>
</g>
</g>
<!-- Node11 -->
<g id="Node000011" class="node">
<title>Node11</title>
<g id="a_Node000011"><a xlink:href="classTCPServer.html#a435ec8dcd340e15f964ce3c0748c7305" target="_top" xlink:title="Reset client fields and close its socket.">
<polygon fill="white" stroke="#666666" points="543.5,-65.67 418.5,-65.67 418.5,-46.67 543.5,-46.67 543.5,-65.67"/>
<text text-anchor="middle" x="481" y="-53.67" font-family="Helvetica,sans-Serif" font-size="10.00">TCPServer::resetClient</text>
</a>
</g>
</g>
<!-- Node7&#45;&gt;Node11 -->
<g id="edge13_Node000007_Node000011" class="edge">
<title>Node7&#45;&gt;Node11</title>
<g id="a_edge13_Node000007_Node000011"><a xlink:title=" ">
<path fill="none" stroke="#63b8ff" d="M798.63,-70.92C720.9,-67.3 611.39,-62.2 543.65,-59.04"/>
<polygon fill="#63b8ff" stroke="#63b8ff" points="798.75,-74.43 808.9,-71.4 799.08,-67.44 798.75,-74.43"/>
</a>
</g>
</g>
<!-- Node8&#45;&gt;Node2 -->
<g id="edge10_Node000008_Node000002" class="edge">
<title>Node8&#45;&gt;Node2</title>
<g id="a_edge10_Node000008_Node000002"><a xlink:title=" ">
<path fill="none" stroke="#63b8ff" d="M622.91,-105.55C594.62,-110.7 561.56,-116.71 534.58,-121.61"/>
<polygon fill="#63b8ff" stroke="#63b8ff" points="623.88,-108.93 633.09,-103.7 622.63,-102.05 623.88,-108.93"/>
</a>
</g>
</g>
<!-- Node9 -->
<g id="Node000009" class="node">
<title>Node9</title>
<g id="a_Node000009"><a xlink:href="classTCPServer.html#ad6bed785945fc2f21376ff2b58090829" target="_top" xlink:title="Auto&#45;match the client into a public lobby.">
<polygon fill="white" stroke="#666666" points="558.5,-103.67 403.5,-103.67 403.5,-84.67 558.5,-84.67 558.5,-103.67"/>
<text text-anchor="middle" x="481" y="-91.67" font-family="Helvetica,sans-Serif" font-size="10.00">TCPServer::autoAssignPublic</text>
</a>
</g>
</g>
<!-- Node8&#45;&gt;Node9 -->
<g id="edge9_Node000008_Node000009" class="edge">
<title>Node8&#45;&gt;Node9</title>
<g id="a_edge9_Node000008_Node000009"><a xlink:title=" ">
<path fill="none" stroke="#63b8ff" d="M609.76,-94.17C593.1,-94.17 575.44,-94.17 558.74,-94.17"/>
<polygon fill="#63b8ff" stroke="#63b8ff" points="609.99,-97.67 619.99,-94.17 609.99,-90.67 609.99,-97.67"/>
</a>
</g>
</g>
<!-- Node10&#45;&gt;Node4 -->
<g id="edge12_Node000010_Node000004" class="edge">
<title>Node10&#45;&gt;Node4</title>
<g id="a_edge12_Node000010_Node000004"><a xlink:title=" ">
<path fill="none" stroke="#63b8ff" d="M604.46,-7.6C506.13,2.15 336.66,8.98 201,-37.17 172.67,-46.81 145.54,-70.12 131.64,-83.43"/>
<polygon fill="#63b8ff" stroke="#63b8ff" points="604.33,-11.1 614.63,-8.64 605.04,-4.14 604.33,-11.1"/>
</a>
</g>
</g>
<!-- Node11&#45;&gt;Node3 -->
<g id="edge16_Node000011_Node000003" class="edge">
<title>Node11&#45;&gt;Node3</title>
<g id="a_edge16_Node000011_Node000003"><a xlink:title=" ">
<path fill="none" stroke="#63b8ff" d="M413.5,-69.02C408.11,-71.07 402.87,-73.43 398,-76.17 378.28,-87.27 381.81,-101.25 362,-112.17 355.8,-115.59 349,-118.36 342.05,-120.6"/>
<polygon fill="#63b8ff" stroke="#63b8ff" points="414.97,-72.22 423.31,-65.68 412.72,-65.59 414.97,-72.22"/>
</a>
</g>
</g>
<!-- Node12 -->
<g id="Node000012" class="node">
<title>Node12</title>
<g id="a_Node000012"><a xlink:href="classTCPServer.html#a867c0e233f62e2d8f181ae99dbcca0a0" target="_top" xlink:title="Disconnect clients whose heartbeat timed out.">
<polygon fill="white" stroke="#666666" points="356,-102.67 207,-102.67 207,-83.67 356,-83.67 356,-102.67"/>
<text text-anchor="middle" x="281.5" y="-90.67" font-family="Helvetica,sans-Serif" font-size="10.00">TCPServer::checkHeartbeat</text>
</a>
</g>
</g>
<!-- Node11&#45;&gt;Node12 -->
<g id="edge14_Node000011_Node000012" class="edge">
<title>Node11&#45;&gt;Node12</title>
<g id="a_edge14_Node000011_Node000012"><a xlink:title=" ">
<path fill="none" stroke="#63b8ff" d="M419.25,-67.55C391.8,-72.7 359.72,-78.71 333.53,-83.61"/>
<polygon fill="#63b8ff" stroke="#63b8ff" points="419.95,-70.98 429.14,-65.7 418.67,-64.1 419.95,-70.98"/>
</a>
</g>
</g>
<!-- Node13 -->
<g id="Node000013" class="node">
<title>Node13</title>
<g id="a_Node000013"><a xlink:href="classTCPServer.html#abc497ac52355e53986a6a1bd1acb9581" target="_top" xlink:title="Destroy the TCPServer, closing the listening socket.">
<polygon fill="white" stroke="#666666" points="346.5,-65.67 216.5,-65.67 216.5,-46.67 346.5,-46.67 346.5,-65.67"/>
<text text-anchor="middle" x="281.5" y="-53.67" font-family="Helvetica,sans-Serif" font-size="10.00">TCPServer::~TCPServer</text>
</a>
</g>
</g>
<!-- Node11&#45;&gt;Node13 -->
<g id="edge17_Node000011_Node000013" class="edge">
<title>Node11&#45;&gt;Node13</title>
<g id="a_edge17_Node000011_Node000013"><a xlink:title=" ">
<path fill="none" stroke="#63b8ff" d="M408.28,-56.17C388.17,-56.17 366.43,-56.17 346.78,-56.17"/>
<polygon fill="#63b8ff" stroke="#63b8ff" points="408.32,-59.67 418.32,-56.17 408.32,-52.67 408.32,-59.67"/>
</a>
</g>
</g>
<!-- Node12&#45;&gt;Node4 -->
<g id="edge15_Node000012_Node000004" class="edge">
<title>Node12&#45;&gt;Node4</title>
<g id="a_edge15_Node000012_Node000004"><a xlink:title=" ">
<path fill="none" stroke="#63b8ff" d="M196.8,-93.17C185.9,-93.17 175.11,-93.17 165.26,-93.17"/>
<polygon fill="#63b8ff" stroke="#63b8ff" points="196.82,-96.67 206.82,-93.17 196.82,-89.67 196.82,-96.67"/>
</a>
</g>
</g>
</g>
</svg>
