<?xml version="1.0" encoding="UTF-8" standalone="no"?>
<!DOCTYPE svg PUBLIC "-//W3C//DTD SVG 1.1//EN"
 "http://www.w3.org/Graphics/SVG/1.1/DTD/svg11.dtd">
<!-- Generated by graphviz version 2.43.0 (0)
 -->
<!-- Title: GraphicClient::syncEntities Pages: 1 -->
<svg width="693pt" height="139pt"
 viewBox="0.00 0.00 693.00 139.00" xmlns="http://www.w3.org/2000/svg" xmlns:xlink="http://www.w3.org/1999/xlink">
<g id="graph0" class="graph" transform="scale(1 1) rotate(0) translate(4 135)">
<title>GraphicClient::syncEntities</title>
<!-- Node1 -->
<g id="Node000001" class="node">
<title>Node1</title>
<g id="a_Node000001"><a xlink:title="Synchronizes player entities with server state.">
<polygon fill="#999999" stroke="#666666" points="148,-57 0,-57 0,-38 148,-38 148,-57"/>
<text text-anchor="middle" x="74" y="-45" font-family="Helvetica,sans-Serif" font-size="10.00">GraphicClient::syncEntities</text>
</a>
</g>
</g>
<!-- Node2 -->
<g id="Node000002" class="node">
<title>Node2</title>
<g id="a_Node000002"><a xlink:href="classGraphicClient.html#a1f97bf7f358d1d5a5d65069d641feb5b" target="_top" xlink:title="Creates a player entity at specified position.">
<polygon fill="white" stroke="#666666" points="334,-105.5 184,-105.5 184,-75.5 334,-75.5 334,-105.5"/>
<text text-anchor="start" x="192" y="-93.5" font-family="Helvetica,sans-Serif" font-size="10.00">GraphicClient::createPlayer</text>
<text text-anchor="middle" x="259" y="-82.5" font-family="Helvetica,sans-Serif" font-size="10.00">Entity</text>
</a>
</g>
</g>
<!-- Node1&#45;&gt;Node2 -->
<g id="edge1_Node000001_Node000002" class="edge">
<title>Node1&#45;&gt;Node2</title>
<g id="a_edge1_Node000001_Node000002"><a xlink:title=" ">
<path fill="none" stroke="#63b8ff" d="M115.61,-57.04C135.79,-61.78 160.81,-67.66 184.22,-73.16"/>
<polygon fill="#63b8ff" stroke="#63b8ff" points="183.6,-76.61 194.14,-75.49 185.2,-69.8 183.6,-76.61"/>
</a>
</g>
</g>
<!-- Node7 -->
<g id="Node000007" class="node">
<title>Node7</title>
<g id="a_Node000007"><a xlink:href="classECS.html#ab25123ea5b19ee74c4e120eb6d808a48" target="_top" xlink:title="Retrieves a component from an entity.">
<polygon fill="white" stroke="#666666" points="484.5,-57 371.5,-57 371.5,-38 484.5,-38 484.5,-57"/>
<text text-anchor="middle" x="428" y="-45" font-family="Helvetica,sans-Serif" font-size="10.00">ECS::getComponent</text>
</a>
</g>
</g>
<!-- Node1&#45;&gt;Node7 -->
<g id="edge6_Node000001_Node000007" class="edge">
<title>Node1&#45;&gt;Node7</title>
<g id="a_edge6_Node000001_Node000007"><a xlink:title=" ">
<path fill="none" stroke="#63b8ff" d="M148.36,-47.5C211.12,-47.5 300.64,-47.5 361.14,-47.5"/>
<polygon fill="#63b8ff" stroke="#63b8ff" points="361.34,-51 371.34,-47.5 361.34,-44 361.34,-51"/>
</a>
</g>
</g>
<!-- Node8 -->
<g id="Node000008" class="node">
<title>Node8</title>
<g id="a_Node000008"><a xlink:href="classNetworkClient.html#a3a848ca2af9ba2a3008e33ecc39a3622" target="_top" xlink:title="Get server&#45;assigned player id.">
<polygon fill="white" stroke="#666666" points="333,-19 185,-19 185,0 333,0 333,-19"/>
<text text-anchor="middle" x="259" y="-7" font-family="Helvetica,sans-Serif" font-size="10.00">NetworkClient::getPlayerId</text>
</a>
</g>
</g>
<!-- Node1&#45;&gt;Node8 -->
<g id="edge8_Node000001_Node000008" class="edge">
<title>Node1&#45;&gt;Node8</title>
<g id="a_edge8_Node000001_Node000008"><a xlink:title=" ">
<path fill="none" stroke="#63b8ff" d="M121.18,-37.91C145.76,-32.81 176.19,-26.49 202.1,-21.11"/>
<polygon fill="#63b8ff" stroke="#63b8ff" points="203.07,-24.48 212.15,-19.02 201.65,-17.63 203.07,-24.48"/>
</a>
</g>
</g>
<!-- Node3 -->
<g id="Node000003" class="node">
<title>Node3</title>
<g id="a_Node000003"><a xlink:href="classECS.html#a4fbe0d70b0934255d301ced9df6287e7" target="_top" xlink:title="Adds a component to an entity.">
<polygon fill="white" stroke="#666666" points="486,-131 370,-131 370,-112 486,-112 486,-131"/>
<text text-anchor="middle" x="428" y="-119" font-family="Helvetica,sans-Serif" font-size="10.00">ECS::addComponent</text>
</a>
</g>
</g>
<!-- Node2&#45;&gt;Node3 -->
<g id="edge2_Node000002_Node000003" class="edge">
<title>Node2&#45;&gt;Node3</title>
<g id="a_edge2_Node000002_Node000003"><a xlink:title=" ">
<path fill="none" stroke="#63b8ff" d="M334.22,-104.28C344.67,-106.22 355.32,-108.19 365.5,-110.08"/>
<polygon fill="#63b8ff" stroke="#63b8ff" points="365.03,-113.56 375.5,-111.94 366.31,-106.67 365.03,-113.56"/>
</a>
</g>
</g>
<!-- Node6 -->
<g id="Node000006" class="node">
<title>Node6</title>
<g id="a_Node000006"><a xlink:href="classECS.html#a41b876f3725cbb04aac3f2edd95522c6" target="_top" xlink:title="Creates a new entity.">
<polygon fill="white" stroke="#666666" points="478.5,-94 377.5,-94 377.5,-75 478.5,-75 478.5,-94"/>
<text text-anchor="middle" x="428" y="-82" font-family="Helvetica,sans-Serif" font-size="10.00">ECS::createEntity</text>
</a>
</g>
</g>
<!-- Node2&#45;&gt;Node6 -->
<g id="edge5_Node000002_Node000006" class="edge">
<title>Node2&#45;&gt;Node6</title>
<g id="a_edge5_Node000002_Node000006"><a xlink:title=" ">
<path fill="none" stroke="#63b8ff" d="M334.22,-87.83C345.31,-87.43 356.62,-87.03 367.36,-86.64"/>
<polygon fill="#63b8ff" stroke="#63b8ff" points="367.58,-90.14 377.45,-86.28 367.33,-83.14 367.58,-90.14"/>
</a>
</g>
</g>
<!-- Node4 -->
<g id="Node000004" class="node">
<title>Node4</title>
<g id="a_Node000004"><a xlink:href="classComponentArray.html#a37f484a9d2b6716e2facff9eabe1bb64" target="_top" xlink:title="Adds or updates a component for an entity.">
<polygon fill="white" stroke="#666666" points="664.5,-131 542.5,-131 542.5,-112 664.5,-112 664.5,-131"/>
<text text-anchor="middle" x="603.5" y="-119" font-family="Helvetica,sans-Serif" font-size="10.00">ComponentArray::add</text>
</a>
</g>
</g>
<!-- Node3&#45;&gt;Node4 -->
<g id="edge3_Node000003_Node000004" class="edge">
<title>Node3&#45;&gt;Node4</title>
<g id="a_edge3_Node000003_Node000004"><a xlink:title=" ">
<path fill="none" stroke="#63b8ff" d="M486.29,-121.5C500.89,-121.5 516.75,-121.5 531.92,-121.5"/>
<polygon fill="#63b8ff" stroke="#63b8ff" points="532.29,-125 542.29,-121.5 532.29,-118 532.29,-125"/>
</a>
</g>
</g>
<!-- Node5 -->
<g id="Node000005" class="node">
<title>Node5</title>
<g id="a_Node000005"><a xlink:href="classECS.html#aacd3f4c4db77a1e5ff41711297ec6602" target="_top" xlink:title="Gets the type index for a component type.">
<polygon fill="white" stroke="#666666" points="685,-76 522,-76 522,-57 685,-57 685,-76"/>
<text text-anchor="middle" x="603.5" y="-64" font-family="Helvetica,sans-Serif" font-size="10.00">ECS::getComponentTypeIndex</text>
</a>
</g>
</g>
<!-- Node3&#45;&gt;Node5 -->
<g id="edge4_Node000003_Node000005" class="edge">
<title>Node3&#45;&gt;Node5</title>
<g id="a_edge4_Node000003_Node000005"><a xlink:title=" ">
<path fill="none" stroke="#63b8ff" d="M459.18,-111.98C467.84,-109.25 477.29,-106.26 486,-103.5 511.55,-95.41 540.25,-86.29 562.77,-79.14"/>
<polygon fill="#63b8ff" stroke="#63b8ff" points="563.86,-82.46 572.33,-76.1 561.74,-75.79 563.86,-82.46"/>
</a>
</g>
</g>
<!-- Node7&#45;&gt;Node5 -->
<g id="edge7_Node000007_Node000005" class="edge">
<title>Node7&#45;&gt;Node5</title>
<g id="a_edge7_Node000007_Node000005"><a xlink:title=" ">
<path fill="none" stroke="#63b8ff" d="M484.85,-53.62C493.51,-54.56 502.64,-55.56 511.83,-56.57"/>
<polygon fill="#63b8ff" stroke="#63b8ff" points="511.48,-60.05 521.8,-57.66 512.24,-53.09 511.48,-60.05"/>
</a>
</g>
</g>
</g>
</svg>
