<?xml version="1.0" encoding="UTF-8" standalone="no"?>
<!DOCTYPE svg PUBLIC "-//W3C//DTD SVG 1.1//EN"
 "http://www.w3.org/Graphics/SVG/1.1/DTD/svg11.dtd">
<!-- Generated by graphviz version 2.43.0 (0)
 -->
<!-- Title: NetworkClient::getPlayerId Pages: 1 -->
<svg width="936pt" height="162pt"
 viewBox="0.00 0.00 936.00 161.74" xmlns="http://www.w3.org/2000/svg" xmlns:xlink="http://www.w3.org/1999/xlink">
<g id="graph0" class="graph" transform="scale(1 1) rotate(0) translate(4 157.74)">
<title>NetworkClient::getPlayerId</title>
<!-- Node1 -->
<g id="Node000001" class="node">
<title>Node1</title>
<g id="a_Node000001"><a xlink:title="Get server&#45;assigned player id.">
<polygon fill="#999999" stroke="#666666" points="928,-96 780,-96 780,-77 928,-77 928,-96"/>
<text text-anchor="middle" x="854" y="-84" font-family="Helvetica,sans-Serif" font-size="10.00">NetworkClient::getPlayerId</text>
</a>
</g>
</g>
<!-- Node2 -->
<g id="Node000002" class="node">
<title>Node2</title>
<g id="a_Node000002"><a xlink:href="classGraphicClient.html#a4b416d0d2b3f07134ce30afb0c60adbe" target="_top" xlink:title="Initializes the client (connects to server, shows menus).">
<polygon fill="white" stroke="#666666" points="528.5,-140 424.5,-140 424.5,-121 528.5,-121 528.5,-140"/>
<text text-anchor="middle" x="476.5" y="-128" font-family="Helvetica,sans-Serif" font-size="10.00">GraphicClient::init</text>
</a>
</g>
</g>
<!-- Node1&#45;&gt;Node2 -->
<g id="edge1_Node000001_Node000002" class="edge">
<title>Node1&#45;&gt;Node2</title>
<g id="a_edge1_Node000001_Node000002"><a xlink:title=" ">
<path fill="none" stroke="#63b8ff" d="M831.23,-101.95C810.09,-115.93 776.52,-135.51 744,-143.5 666.85,-162.45 573.47,-150.18 520.22,-140.01"/>
<polygon fill="#63b8ff" stroke="#63b8ff" points="833.44,-104.67 839.75,-96.16 829.51,-98.88 833.44,-104.67"/>
</a>
</g>
</g>
<!-- Node5 -->
<g id="Node000005" class="node">
<title>Node5</title>
<g id="a_Node000005"><a xlink:href="classGraphicClient.html#a1fa2cfd0c71b32b0b1f0e0675a2e1cb2" target="_top" xlink:title="Processes network events and updates game state.">
<polygon fill="white" stroke="#666666" points="560,-65.5 393,-65.5 393,-35.5 560,-35.5 560,-65.5"/>
<text text-anchor="start" x="401" y="-53.5" font-family="Helvetica,sans-Serif" font-size="10.00">GraphicClient::processNetwork</text>
<text text-anchor="middle" x="476.5" y="-42.5" font-family="Helvetica,sans-Serif" font-size="10.00">Events</text>
</a>
</g>
</g>
<!-- Node1&#45;&gt;Node5 -->
<g id="edge4_Node000001_Node000005" class="edge">
<title>Node1&#45;&gt;Node5</title>
<g id="a_edge4_Node000001_Node000005"><a xlink:title=" ">
<path fill="none" stroke="#63b8ff" d="M769.51,-78.5C707.12,-72.51 622.24,-64.38 560.08,-58.42"/>
<polygon fill="#63b8ff" stroke="#63b8ff" points="769.42,-82 779.71,-79.47 770.09,-75.03 769.42,-82"/>
</a>
</g>
</g>
<!-- Node7 -->
<g id="Node000007" class="node">
<title>Node7</title>
<g id="a_Node000007"><a xlink:href="classGraphicClient.html#ab0acd8f5b8996cc62295831d7af1cf59" target="_top" xlink:title="Renders the entire game scene.">
<polygon fill="white" stroke="#666666" points="730,-19 610,-19 610,0 730,0 730,-19"/>
<text text-anchor="middle" x="670" y="-7" font-family="Helvetica,sans-Serif" font-size="10.00">GraphicClient::render</text>
</a>
</g>
</g>
<!-- Node1&#45;&gt;Node7 -->
<g id="edge7_Node000001_Node000007" class="edge">
<title>Node1&#45;&gt;Node7</title>
<g id="a_edge7_Node000001_Node000007"><a xlink:title=" ">
<path fill="none" stroke="#63b8ff" d="M825.38,-72.24C803.58,-61.24 772.24,-46.03 744,-34.5 730.23,-28.88 714.68,-23.43 701.48,-19.07"/>
<polygon fill="#63b8ff" stroke="#63b8ff" points="823.89,-75.4 834.39,-76.81 827.06,-69.16 823.89,-75.4"/>
</a>
</g>
</g>
<!-- Node8 -->
<g id="Node000008" class="node">
<title>Node8</title>
<g id="a_Node000008"><a xlink:href="classGraphicClient.html#aacb31035c31d741d0ae2ca5ec9228b12" target="_top" xlink:title="Synchronizes player entities with server state.">
<polygon fill="white" stroke="#666666" points="744,-134 596,-134 596,-115 744,-115 744,-134"/>
<text text-anchor="middle" x="670" y="-122" font-family="Helvetica,sans-Serif" font-size="10.00">GraphicClient::syncEntities</text>
</a>
</g>
</g>
<!-- Node1&#45;&gt;Node8 -->
<g id="edge9_Node000001_Node000008" class="edge">
<title>Node1&#45;&gt;Node8</title>
<g id="a_edge9_Node000001_Node000008"><a xlink:title=" ">
<path fill="none" stroke="#63b8ff" d="M797.05,-98.18C771.24,-103.57 740.99,-109.89 716.6,-114.98"/>
<polygon fill="#63b8ff" stroke="#63b8ff" points="798,-101.56 807.07,-96.09 796.57,-94.71 798,-101.56"/>
</a>
</g>
</g>
<!-- Node9 -->
<g id="Node000009" class="node">
<title>Node9</title>
<g id="a_Node000009"><a xlink:href="classGraphicClient.html#a50072266faf2e76ace99e16c4c7b208a" target="_top" xlink:title="Updates all game entities based on delta time.">
<polygon fill="white" stroke="#666666" points="556,-103 397,-103 397,-84 556,-84 556,-103"/>
<text text-anchor="middle" x="476.5" y="-91" font-family="Helvetica,sans-Serif" font-size="10.00">GraphicClient::updateEntities</text>
</a>
</g>
</g>
<!-- Node1&#45;&gt;Node9 -->
<g id="edge13_Node000001_Node000009" class="edge">
<title>Node1&#45;&gt;Node9</title>
<g id="a_edge13_Node000001_Node000009"><a xlink:title=" ">
<path fill="none" stroke="#63b8ff" d="M769.69,-88.05C705.95,-89.24 618.65,-90.87 556.11,-92.03"/>
<polygon fill="#63b8ff" stroke="#63b8ff" points="769.78,-91.55 779.71,-87.87 769.64,-84.55 769.78,-91.55"/>
</a>
</g>
</g>
<!-- Node3 -->
<g id="Node000003" class="node">
<title>Node3</title>
<g id="a_Node000003"><a xlink:href="classGraphicClient.html#ad39a5f1d7ec30752f8d412d6925ef109" target="_top" xlink:title="Main application loop.">
<polygon fill="white" stroke="#666666" points="181,-100 77,-100 77,-81 181,-81 181,-100"/>
<text text-anchor="middle" x="129" y="-88" font-family="Helvetica,sans-Serif" font-size="10.00">GraphicClient::run</text>
</a>
</g>
</g>
<!-- Node2&#45;&gt;Node3 -->
<g id="edge2_Node000002_Node000003" class="edge">
<title>Node2&#45;&gt;Node3</title>
<g id="a_edge2_Node000002_Node000003"><a xlink:title=" ">
<path fill="none" stroke="#63b8ff" d="M413.83,-123.36C347.44,-115.67 243.04,-103.59 181.07,-96.41"/>
<polygon fill="#63b8ff" stroke="#63b8ff" points="413.81,-126.88 424.15,-124.55 414.62,-119.93 413.81,-126.88"/>
</a>
</g>
</g>
<!-- Node4 -->
<g id="Node000004" class="node">
<title>Node4</title>
<g id="a_Node000004"><a xlink:href="client_8cpp.html#ae66f6b31b5ad750f1fe042a706a4e3d4" target="_top" xlink:title=" ">
<polygon fill="white" stroke="#666666" points="41,-100 0,-100 0,-81 41,-81 41,-100"/>
<text text-anchor="middle" x="20.5" y="-88" font-family="Helvetica,sans-Serif" font-size="10.00">main</text>
</a>
</g>
</g>
<!-- Node3&#45;&gt;Node4 -->
<g id="edge3_Node000003_Node000004" class="edge">
<title>Node3&#45;&gt;Node4</title>
<g id="a_edge3_Node000003_Node000004"><a xlink:title=" ">
<path fill="none" stroke="#63b8ff" d="M66.83,-90.5C57.58,-90.5 48.66,-90.5 41.22,-90.5"/>
<polygon fill="#63b8ff" stroke="#63b8ff" points="66.93,-94 76.93,-90.5 66.93,-87 66.93,-94"/>
</a>
</g>
</g>
<!-- Node6 -->
<g id="Node000006" class="node">
<title>Node6</title>
<g id="a_Node000006"><a xlink:href="classGraphicClient.html#a5cb5c37142e62f04824cc6e21dd199b2" target="_top" xlink:title="Main game loop iteration.">
<polygon fill="white" stroke="#666666" points="357,-81 217,-81 217,-62 357,-62 357,-81"/>
<text text-anchor="middle" x="287" y="-69" font-family="Helvetica,sans-Serif" font-size="10.00">GraphicClient::gameLoop</text>
</a>
</g>
</g>
<!-- Node5&#45;&gt;Node6 -->
<g id="edge5_Node000005_Node000006" class="edge">
<title>Node5&#45;&gt;Node6</title>
<g id="a_edge5_Node000005_Node000006"><a xlink:title=" ">
<path fill="none" stroke="#63b8ff" d="M382.83,-60.88C374.16,-61.85 365.48,-62.82 357.08,-63.76"/>
<polygon fill="#63b8ff" stroke="#63b8ff" points="383.44,-64.33 392.99,-59.74 382.66,-57.38 383.44,-64.33"/>
</a>
</g>
</g>
<!-- Node6&#45;&gt;Node3 -->
<g id="edge6_Node000006_Node000003" class="edge">
<title>Node6&#45;&gt;Node3</title>
<g id="a_edge6_Node000006_Node000003"><a xlink:title=" ">
<path fill="none" stroke="#63b8ff" d="M206.6,-81.17C198.02,-82.22 189.46,-83.26 181.33,-84.25"/>
<polygon fill="#63b8ff" stroke="#63b8ff" points="207.16,-84.63 216.67,-79.94 206.32,-77.68 207.16,-84.63"/>
</a>
</g>
</g>
<!-- Node7&#45;&gt;Node6 -->
<g id="edge8_Node000007_Node000006" class="edge">
<title>Node7&#45;&gt;Node6</title>
<g id="a_edge8_Node000007_Node000006"><a xlink:title=" ">
<path fill="none" stroke="#63b8ff" d="M599.76,-7.26C543.35,-6.97 462.03,-10.1 393,-26.5 360.58,-34.2 325.49,-51.17 305.2,-61.93"/>
<polygon fill="#63b8ff" stroke="#63b8ff" points="599.97,-10.76 610,-7.35 600.03,-3.76 599.97,-10.76"/>
</a>
</g>
</g>
<!-- Node8&#45;&gt;Node2 -->
<g id="edge10_Node000008_Node000002" class="edge">
<title>Node8&#45;&gt;Node2</title>
<g id="a_edge10_Node000008_Node000002"><a xlink:title=" ">
<path fill="none" stroke="#63b8ff" d="M585.72,-127.11C566.31,-127.72 546.21,-128.35 528.68,-128.9"/>
<polygon fill="#63b8ff" stroke="#63b8ff" points="585.9,-130.61 595.78,-126.79 585.68,-123.61 585.9,-130.61"/>
</a>
</g>
</g>
<!-- Node8&#45;&gt;Node9 -->
<g id="edge11_Node000008_Node000009" class="edge">
<title>Node8&#45;&gt;Node9</title>
<g id="a_edge11_Node000008_Node000009"><a xlink:title=" ">
<path fill="none" stroke="#63b8ff" d="M600.17,-113.36C579.32,-109.98 556.62,-106.31 536.48,-103.05"/>
<polygon fill="#63b8ff" stroke="#63b8ff" points="599.81,-116.85 610.24,-114.99 600.93,-109.94 599.81,-116.85"/>
</a>
</g>
</g>
<!-- Node9&#45;&gt;Node6 -->
<g id="edge12_Node000009_Node000006" class="edge">
<title>Node9&#45;&gt;Node6</title>
<g id="a_edge12_Node000009_Node000006"><a xlink:title=" ">
<path fill="none" stroke="#63b8ff" d="M386.58,-83.07C376.74,-81.91 366.82,-80.75 357.27,-79.63"/>
<polygon fill="#63b8ff" stroke="#63b8ff" points="386.46,-86.58 396.8,-84.27 387.27,-79.62 386.46,-86.58"/>
</a>
</g>
</g>
</g>
</svg>
