<?xml version="1.0" encoding="UTF-8" standalone="no"?>
<!DOCTYPE svg PUBLIC "-//W3C//DTD SVG 1.1//EN"
 "http://www.w3.org/Graphics/SVG/1.1/DTD/svg11.dtd">
<!-- Generated by graphviz version 2.43.0 (0)
 -->
<!-- Title: TCPServer::selectFdSet Pages: 1 -->
<svg width="528pt" height="64pt"
 viewBox="0.00 0.00 528.00 64.00" xmlns="http://www.w3.org/2000/svg" xmlns:xlink="http://www.w3.org/1999/xlink">
<g id="graph0" class="graph" transform="scale(1 1) rotate(0) translate(4 60)">
<title>TCPServer::selectFdSet</title>
<!-- Node1 -->
<g id="Node000001" class="node">
<title>Node1</title>
<g id="a_Node000001"><a xlink:title="Wrapper around select for testability.">
<polygon fill="#999999" stroke="#666666" points="520,-37 391,-37 391,-18 520,-18 520,-37"/>
<text text-anchor="middle" x="455.5" y="-25" font-family="Helvetica,sans-Serif" font-size="10.00">TCPServer::selectFdSet</text>
</a>
</g>
</g>
<!-- Node2 -->
<g id="Node000002" class="node">
<title>Node2</title>
<g id="a_Node000002"><a xlink:href="classTCPServer.html#a5e77543739e5b801384f9fe3e63c2bf8" target="_top" xlink:title="Poll all sockets using select().">
<polygon fill="white" stroke="#666666" points="342,-56 214,-56 214,-37 342,-37 342,-56"/>
<text text-anchor="middle" x="278" y="-44" font-family="Helvetica,sans-Serif" font-size="10.00">TCPServer::pollSockets</text>
</a>
</g>
</g>
<!-- Node1&#45;&gt;Node2 -->
<g id="edge1_Node000001_Node000002" class="edge">
<title>Node1&#45;&gt;Node2</title>
<g id="a_edge1_Node000001_Node000002"><a xlink:title=" ">
<path fill="none" stroke="#63b8ff" d="M380.53,-35.51C367.79,-36.89 354.65,-38.31 342.22,-39.66"/>
<polygon fill="#63b8ff" stroke="#63b8ff" points="381.08,-38.97 390.64,-34.41 380.33,-32.01 381.08,-38.97"/>
</a>
</g>
</g>
<!-- Node5 -->
<g id="Node000005" class="node">
<title>Node5</title>
<g id="a_Node000005"><a xlink:href="classTCPServer.html#a75a51391de5f2f6d4d54f0ae9626d9c9" target="_top" xlink:title="Block until a file descriptor is readable or times out.">
<polygon fill="white" stroke="#666666" points="355,-19 201,-19 201,0 355,0 355,-19"/>
<text text-anchor="middle" x="278" y="-7" font-family="Helvetica,sans-Serif" font-size="10.00">TCPServer::waitForReadable</text>
</a>
</g>
</g>
<!-- Node1&#45;&gt;Node5 -->
<g id="edge4_Node000001_Node000005" class="edge">
<title>Node1&#45;&gt;Node5</title>
<g id="a_edge4_Node000001_Node000005"><a xlink:title=" ">
<path fill="none" stroke="#63b8ff" d="M380.49,-19.91C372.07,-19.05 363.48,-18.16 355.04,-17.3"/>
<polygon fill="#63b8ff" stroke="#63b8ff" points="380.34,-23.41 390.64,-20.95 381.05,-16.45 380.34,-23.41"/>
</a>
</g>
</g>
<!-- Node3 -->
<g id="Node000003" class="node">
<title>Node3</title>
<g id="a_Node000003"><a xlink:href="classTCPServer.html#a4e6d2ef05b71c4ecbd0518fc7215ece3" target="_top" xlink:title="Run the main accept/receive loop (blocking).">
<polygon fill="white" stroke="#666666" points="165,-56 77,-56 77,-37 165,-37 165,-56"/>
<text text-anchor="middle" x="121" y="-44" font-family="Helvetica,sans-Serif" font-size="10.00">TCPServer::run</text>
</a>
</g>
</g>
<!-- Node2&#45;&gt;Node3 -->
<g id="edge2_Node000002_Node000003" class="edge">
<title>Node2&#45;&gt;Node3</title>
<g id="a_edge2_Node000002_Node000003"><a xlink:title=" ">
<path fill="none" stroke="#63b8ff" d="M203.86,-46.5C190.58,-46.5 177.13,-46.5 165.07,-46.5"/>
<polygon fill="#63b8ff" stroke="#63b8ff" points="203.96,-50 213.96,-46.5 203.96,-43 203.96,-50"/>
</a>
</g>
</g>
<!-- Node4 -->
<g id="Node000004" class="node">
<title>Node4</title>
<g id="a_Node000004"><a xlink:href="server_8cpp.html#ae66f6b31b5ad750f1fe042a706a4e3d4" target="_top" xlink:title=" ">
<polygon fill="white" stroke="#666666" points="41,-56 0,-56 0,-37 41,-37 41,-56"/>
<text text-anchor="middle" x="20.5" y="-44" font-family="Helvetica,sans-Serif" font-size="10.00">main</text>
</a>
</g>
</g>
<!-- Node3&#45;&gt;Node4 -->
<g id="edge3_Node000003_Node000004" class="edge">
<title>Node3&#45;&gt;Node4</title>
<g id="a_edge3_Node000003_Node000004"><a xlink:title=" ">
<path fill="none" stroke="#63b8ff" d="M66.57,-46.5C57.52,-46.5 48.67,-46.5 41.23,-46.5"/>
<polygon fill="#63b8ff" stroke="#63b8ff" points="66.8,-50 76.8,-46.5 66.8,-43 66.8,-50"/>
</a>
</g>
</g>
</g>
</svg>
