<?xml version="1.0" encoding="UTF-8" standalone="no"?>
<!DOCTYPE svg PUBLIC "-//W3C//DTD SVG 1.1//EN"
 "http://www.w3.org/Graphics/SVG/1.1/DTD/svg11.dtd">
<!-- Generated by graphviz version 2.43.0 (0)
 -->
<!-- Title: NetworkClient::sendPong Pages: 1 -->
<svg width="644pt" height="64pt"
 viewBox="0.00 0.00 644.00 64.00" xmlns="http://www.w3.org/2000/svg" xmlns:xlink="http://www.w3.org/1999/xlink">
<g id="graph0" class="graph" transform="scale(1 1) rotate(0) translate(4 60)">
<title>NetworkClient::sendPong</title>
<!-- Node1 -->
<g id="Node000001" class="node">
<title>Node1</title>
<g id="a_Node000001"><a xlink:title="Send TCP PONG in response to server PING.">
<polygon fill="#999999" stroke="#666666" points="140,-37 0,-37 0,-18 140,-18 140,-37"/>
<text text-anchor="middle" x="70" y="-25" font-family="Helvetica,sans-Serif" font-size="10.00">NetworkClient::sendPong</text>
</a>
</g>
</g>
<!-- Node2 -->
<g id="Node000002" class="node">
<title>Node2</title>
<g id="a_Node000002"><a xlink:href="classNetworkClient.html#af150c1b7e0aa8c19cb337fb838479324" target="_top" xlink:title=" ">
<polygon fill="white" stroke="#666666" points="339,-37 176,-37 176,-18 339,-18 339,-37"/>
<text text-anchor="middle" x="257.5" y="-25" font-family="Helvetica,sans-Serif" font-size="10.00">NetworkClient::sendPacketTcp</text>
</a>
</g>
</g>
<!-- Node1&#45;&gt;Node2 -->
<g id="edge1_Node000001_Node000002" class="edge">
<title>Node1&#45;&gt;Node2</title>
<g id="a_edge1_Node000001_Node000002"><a xlink:title=" ">
<path fill="none" stroke="#63b8ff" d="M140.07,-27.5C148.44,-27.5 157.08,-27.5 165.7,-27.5"/>
<polygon fill="#63b8ff" stroke="#63b8ff" points="165.79,-31 175.79,-27.5 165.79,-24 165.79,-31"/>
</a>
</g>
</g>
<!-- Node3 -->
<g id="Node000003" class="node">
<title>Node3</title>
<g id="a_Node000003"><a xlink:href="namespaceProtocol.html#a668bdeed219432868fca095e1b2f2667" target="_top" xlink:title="Build a TCP framed buffer (2 bytes length + serialized packet).">
<polygon fill="white" stroke="#666666" points="493.5,-56 386.5,-56 386.5,-37 493.5,-37 493.5,-56"/>
<text text-anchor="middle" x="440" y="-44" font-family="Helvetica,sans-Serif" font-size="10.00">Protocol::frameTcp</text>
</a>
</g>
</g>
<!-- Node2&#45;&gt;Node3 -->
<g id="edge2_Node000002_Node000003" class="edge">
<title>Node2&#45;&gt;Node3</title>
<g id="a_edge2_Node000002_Node000003"><a xlink:title=" ">
<path fill="none" stroke="#63b8ff" d="M339.25,-36C351.59,-37.3 364.17,-38.62 376.05,-39.87"/>
<polygon fill="#63b8ff" stroke="#63b8ff" points="375.98,-43.39 386.3,-40.95 376.72,-36.42 375.98,-43.39"/>
</a>
</g>
</g>
<!-- Node5 -->
<g id="Node000005" class="node">
<title>Node5</title>
<g id="a_Node000005"><a xlink:href="classNetworkClient.html#a844f1f20acd0958f264c7bb67e18d111" target="_top" xlink:title=" ">
<polygon fill="white" stroke="#666666" points="505,-19 375,-19 375,0 505,0 505,-19"/>
<text text-anchor="middle" x="440" y="-7" font-family="Helvetica,sans-Serif" font-size="10.00">NetworkClient::writeAll</text>
</a>
</g>
</g>
<!-- Node2&#45;&gt;Node5 -->
<g id="edge4_Node000002_Node000005" class="edge">
<title>Node2&#45;&gt;Node5</title>
<g id="a_edge4_Node000002_Node000005"><a xlink:title=" ">
<path fill="none" stroke="#63b8ff" d="M339.25,-19.45C347.72,-18.6 356.31,-17.75 364.71,-16.91"/>
<polygon fill="#63b8ff" stroke="#63b8ff" points="365.23,-20.37 374.84,-15.9 364.54,-13.41 365.23,-20.37"/>
</a>
</g>
</g>
<!-- Node4 -->
<g id="Node000004" class="node">
<title>Node4</title>
<g id="a_Node000004"><a xlink:href="classPacket.html#aa88c2d28796644c8a1d6137996502ca8" target="_top" xlink:title="Serialize the packet to a byte buffer ready to send.">
<polygon fill="white" stroke="#666666" points="636,-56 541,-56 541,-37 636,-37 636,-56"/>
<text text-anchor="middle" x="588.5" y="-44" font-family="Helvetica,sans-Serif" font-size="10.00">Packet::serialize</text>
</a>
</g>
</g>
<!-- Node3&#45;&gt;Node4 -->
<g id="edge3_Node000003_Node000004" class="edge">
<title>Node3&#45;&gt;Node4</title>
<g id="a_edge3_Node000003_Node000004"><a xlink:title=" ">
<path fill="none" stroke="#63b8ff" d="M493.89,-46.5C505.93,-46.5 518.76,-46.5 530.95,-46.5"/>
<polygon fill="#63b8ff" stroke="#63b8ff" points="531,-50 541,-46.5 531,-43 531,-50"/>
</a>
</g>
</g>
</g>
</svg>
