<?xml version="1.0" encoding="UTF-8" standalone="no"?>
<!DOCTYPE svg PUBLIC "-//W3C//DTD SVG 1.1//EN"
 "http://www.w3.org/Graphics/SVG/1.1/DTD/svg11.dtd">
<!-- Generated by graphviz version 2.43.0 (0)
 -->
<!-- Title: NetworkClient::pollPackets Pages: 1 -->
<svg width="1067pt" height="239pt"
 viewBox="0.00 0.00 1067.00 238.51" xmlns="http://www.w3.org/2000/svg" xmlns:xlink="http://www.w3.org/1999/xlink">
<g id="graph0" class="graph" transform="scale(1 1) rotate(0) translate(4 234.51)">
<title>NetworkClient::pollPackets</title>
<!-- Node1 -->
<g id="Node000001" class="node">
<title>Node1</title>
<g id="a_Node000001"><a xlink:title="Poll TCP/UDP sockets and handle any received packets.">
<polygon fill="#999999" stroke="#666666" points="147,-133.1 0,-133.1 0,-114.1 147,-114.1 147,-133.1"/>
<text text-anchor="middle" x="73.5" y="-121.1" font-family="Helvetica,sans-Serif" font-size="10.00">NetworkClient::pollPackets</text>
</a>
</g>
</g>
<!-- Node2 -->
<g id="Node000002" class="node">
<title>Node2</title>
<g id="a_Node000002"><a xlink:href="namespaceProtocol.html#a10005c44787f8de2a0e42d395aff8baa" target="_top" xlink:title="Try to extract a complete packet from an accumulated stream buffer.">
<polygon fill="white" stroke="#666666" points="916,-202.1 765,-202.1 765,-183.1 916,-183.1 916,-202.1"/>
<text text-anchor="middle" x="840.5" y="-190.1" font-family="Helvetica,sans-Serif" font-size="10.00">Protocol::extractFromBuffer</text>
</a>
</g>
</g>
<!-- Node1&#45;&gt;Node2 -->
<g id="edge1_Node000001_Node000002" class="edge">
<title>Node1&#45;&gt;Node2</title>
<g id="a_edge1_Node000001_Node000002"><a xlink:title=" ">
<path fill="none" stroke="#63b8ff" d="M87.44,-133.11C107.04,-147.01 145.93,-172.65 183,-185.6 393.21,-259.03 664.89,-224.47 781.82,-203.97"/>
<polygon fill="#63b8ff" stroke="#63b8ff" points="782.75,-207.36 791.98,-202.15 781.52,-200.47 782.75,-207.36"/>
</a>
</g>
</g>
<!-- Node4 -->
<g id="Node000004" class="node">
<title>Node4</title>
<g id="a_Node000004"><a xlink:href="classNetworkClient.html#a5bc6fcb253ac9f9d74c649cb4b30d546" target="_top" xlink:title=" ">
<polygon fill="white" stroke="#666666" points="336,-138.6 195,-138.6 195,-108.6 336,-108.6 336,-138.6"/>
<text text-anchor="start" x="203" y="-126.6" font-family="Helvetica,sans-Serif" font-size="10.00">NetworkClient::handleTcp</text>
<text text-anchor="middle" x="265.5" y="-115.6" font-family="Helvetica,sans-Serif" font-size="10.00">Packet</text>
</a>
</g>
</g>
<!-- Node1&#45;&gt;Node4 -->
<g id="edge3_Node000001_Node000004" class="edge">
<title>Node1&#45;&gt;Node4</title>
<g id="a_edge3_Node000001_Node000004"><a xlink:title=" ">
<path fill="none" stroke="#63b8ff" d="M147.14,-123.6C159.34,-123.6 172.05,-123.6 184.42,-123.6"/>
<polygon fill="#63b8ff" stroke="#63b8ff" points="184.71,-127.1 194.71,-123.6 184.71,-120.1 184.71,-127.1"/>
</a>
</g>
</g>
<!-- Node11 -->
<g id="Node000011" class="node">
<title>Node11</title>
<g id="a_Node000011"><a xlink:href="classNetworkClient.html#acfb90d5461a5eb3826a710d6394faba0" target="_top" xlink:title=" ">
<polygon fill="white" stroke="#666666" points="338,-90.6 193,-90.6 193,-60.6 338,-60.6 338,-90.6"/>
<text text-anchor="start" x="201" y="-78.6" font-family="Helvetica,sans-Serif" font-size="10.00">NetworkClient::handleUdp</text>
<text text-anchor="middle" x="265.5" y="-67.6" font-family="Helvetica,sans-Serif" font-size="10.00">Packet</text>
</a>
</g>
</g>
<!-- Node1&#45;&gt;Node11 -->
<g id="edge10_Node000001_Node000011" class="edge">
<title>Node1&#45;&gt;Node11</title>
<g id="a_edge10_Node000001_Node000011"><a xlink:title=" ">
<path fill="none" stroke="#63b8ff" d="M112.49,-114C136.13,-108.03 167.24,-100.17 195.15,-93.12"/>
<polygon fill="#63b8ff" stroke="#63b8ff" points="196.04,-96.5 204.88,-90.66 194.32,-89.72 196.04,-96.5"/>
</a>
</g>
</g>
<!-- Node13 -->
<g id="Node000013" class="node">
<title>Node13</title>
<g id="a_Node000013"><a xlink:href="classNetworkClient.html#ac0dca5641be17084ead40825063b944e" target="_top" xlink:title=" ">
<polygon fill="white" stroke="#666666" points="346,-176.1 185,-176.1 185,-157.1 346,-157.1 346,-176.1"/>
<text text-anchor="middle" x="265.5" y="-164.1" font-family="Helvetica,sans-Serif" font-size="10.00">NetworkClient::readTcpPacket</text>
</a>
</g>
</g>
<!-- Node1&#45;&gt;Node13 -->
<g id="edge12_Node000001_Node000013" class="edge">
<title>Node1&#45;&gt;Node13</title>
<g id="a_edge12_Node000001_Node000013"><a xlink:title=" ">
<path fill="none" stroke="#63b8ff" d="M116.67,-133.14C144.96,-139.54 182.41,-148.02 212.54,-154.84"/>
<polygon fill="#63b8ff" stroke="#63b8ff" points="211.92,-158.29 222.45,-157.08 213.47,-151.46 211.92,-158.29"/>
</a>
</g>
</g>
<!-- Node16 -->
<g id="Node000016" class="node">
<title>Node16</title>
<g id="a_Node000016"><a xlink:href="classNetworkClient.html#a101f6ab85ee02ddb9d45a40dad603e29" target="_top" xlink:title=" ">
<polygon fill="white" stroke="#666666" points="348,-42.1 183,-42.1 183,-23.1 348,-23.1 348,-42.1"/>
<text text-anchor="middle" x="265.5" y="-30.1" font-family="Helvetica,sans-Serif" font-size="10.00">NetworkClient::readUdpPacket</text>
</a>
</g>
</g>
<!-- Node1&#45;&gt;Node16 -->
<g id="edge17_Node000001_Node000016" class="edge">
<title>Node1&#45;&gt;Node16</title>
<g id="a_edge17_Node000001_Node000016"><a xlink:title=" ">
<path fill="none" stroke="#63b8ff" d="M86.05,-113.88C105.04,-98.39 144.6,-68.17 183,-51.6 188.78,-49.1 194.93,-46.91 201.17,-44.98"/>
<polygon fill="#63b8ff" stroke="#63b8ff" points="202.35,-48.29 211.01,-42.18 200.43,-41.56 202.35,-48.29"/>
</a>
</g>
</g>
<!-- Node3 -->
<g id="Node000003" class="node">
<title>Node3</title>
<g id="a_Node000003"><a xlink:href="classPacket.html#abfcd427a2ca434ac71592334517638fb" target="_top" xlink:title="Deserialize a packet from a raw byte buffer.">
<polygon fill="white" stroke="#666666" points="1059,-42.1 952,-42.1 952,-23.1 1059,-23.1 1059,-42.1"/>
<text text-anchor="middle" x="1005.5" y="-30.1" font-family="Helvetica,sans-Serif" font-size="10.00">Packet::deserialize</text>
</a>
</g>
</g>
<!-- Node2&#45;&gt;Node3 -->
<g id="edge2_Node000002_Node000003" class="edge">
<title>Node2&#45;&gt;Node3</title>
<g id="a_edge2_Node000002_Node000003"><a xlink:title=" ">
<path fill="none" stroke="#63b8ff" d="M865.81,-183.09C881.73,-175.86 902.09,-164.6 916,-149.6 941.13,-122.48 928.99,-103.54 952,-74.6 960.09,-64.42 971.08,-55.15 980.91,-47.92"/>
<polygon fill="#63b8ff" stroke="#63b8ff" points="982.99,-50.74 989.15,-42.12 978.96,-45.02 982.99,-50.74"/>
</a>
</g>
</g>
<!-- Node5 -->
<g id="Node000005" class="node">
<title>Node5</title>
<g id="a_Node000005"><a xlink:href="classNetworkClient.html#a7f69f5c30fd349d670fae18598737b86" target="_top" xlink:title="Close TCP and UDP sockets and reset state.">
<polygon fill="white" stroke="#666666" points="529.5,-159.1 384.5,-159.1 384.5,-140.1 529.5,-140.1 529.5,-159.1"/>
<text text-anchor="middle" x="457" y="-147.1" font-family="Helvetica,sans-Serif" font-size="10.00">NetworkClient::disconnect</text>
</a>
</g>
</g>
<!-- Node4&#45;&gt;Node5 -->
<g id="edge4_Node000004_Node000005" class="edge">
<title>Node4&#45;&gt;Node5</title>
<g id="a_edge4_Node000004_Node000005"><a xlink:title=" ">
<path fill="none" stroke="#63b8ff" d="M336.26,-133.17C349.37,-134.97 363.18,-136.86 376.57,-138.7"/>
<polygon fill="#63b8ff" stroke="#63b8ff" points="376.33,-142.2 386.71,-140.09 377.28,-135.26 376.33,-142.2"/>
</a>
</g>
</g>
<!-- Node6 -->
<g id="Node000006" class="node">
<title>Node6</title>
<g id="a_Node000006"><a xlink:href="classNetworkClient.html#a28a515bbb5f6f75d6603a5332c217f93" target="_top" xlink:title="Send TCP PONG in response to server PING.">
<polygon fill="white" stroke="#666666" points="527,-122.1 387,-122.1 387,-103.1 527,-103.1 527,-122.1"/>
<text text-anchor="middle" x="457" y="-110.1" font-family="Helvetica,sans-Serif" font-size="10.00">NetworkClient::sendPong</text>
</a>
</g>
</g>
<!-- Node4&#45;&gt;Node6 -->
<g id="edge5_Node000004_Node000006" class="edge">
<title>Node4&#45;&gt;Node6</title>
<g id="a_edge5_Node000004_Node000006"><a xlink:title=" ">
<path fill="none" stroke="#63b8ff" d="M336.26,-119.55C349.37,-118.79 363.18,-117.98 376.57,-117.21"/>
<polygon fill="#63b8ff" stroke="#63b8ff" points="376.93,-120.69 386.71,-116.62 376.52,-113.7 376.93,-120.69"/>
</a>
</g>
</g>
<!-- Node7 -->
<g id="Node000007" class="node">
<title>Node7</title>
<g id="a_Node000007"><a xlink:href="classNetworkClient.html#af150c1b7e0aa8c19cb337fb838479324" target="_top" xlink:title=" ">
<polygon fill="white" stroke="#666666" points="729,-122.1 566,-122.1 566,-103.1 729,-103.1 729,-122.1"/>
<text text-anchor="middle" x="647.5" y="-110.1" font-family="Helvetica,sans-Serif" font-size="10.00">NetworkClient::sendPacketTcp</text>
</a>
</g>
</g>
<!-- Node6&#45;&gt;Node7 -->
<g id="edge6_Node000006_Node000007" class="edge">
<title>Node6&#45;&gt;Node7</title>
<g id="a_edge6_Node000006_Node000007"><a xlink:title=" ">
<path fill="none" stroke="#63b8ff" d="M527.12,-112.6C536.48,-112.6 546.19,-112.6 555.86,-112.6"/>
<polygon fill="#63b8ff" stroke="#63b8ff" points="555.89,-116.1 565.89,-112.6 555.89,-109.1 555.89,-116.1"/>
</a>
</g>
</g>
<!-- Node8 -->
<g id="Node000008" class="node">
<title>Node8</title>
<g id="a_Node000008"><a xlink:href="namespaceProtocol.html#a668bdeed219432868fca095e1b2f2667" target="_top" xlink:title="Build a TCP framed buffer (2 bytes length + serialized packet).">
<polygon fill="white" stroke="#666666" points="894,-103.1 787,-103.1 787,-84.1 894,-84.1 894,-103.1"/>
<text text-anchor="middle" x="840.5" y="-91.1" font-family="Helvetica,sans-Serif" font-size="10.00">Protocol::frameTcp</text>
</a>
</g>
</g>
<!-- Node7&#45;&gt;Node8 -->
<g id="edge7_Node000007_Node000008" class="edge">
<title>Node7&#45;&gt;Node8</title>
<g id="a_edge7_Node000007_Node000008"><a xlink:title=" ">
<path fill="none" stroke="#63b8ff" d="M729.22,-104.57C745.02,-102.99 761.38,-101.37 776.5,-99.86"/>
<polygon fill="#63b8ff" stroke="#63b8ff" points="777.14,-103.32 786.74,-98.84 776.45,-96.35 777.14,-103.32"/>
</a>
</g>
</g>
<!-- Node10 -->
<g id="Node000010" class="node">
<title>Node10</title>
<g id="a_Node000010"><a xlink:href="classNetworkClient.html#a844f1f20acd0958f264c7bb67e18d111" target="_top" xlink:title=" ">
<polygon fill="white" stroke="#666666" points="905.5,-140.1 775.5,-140.1 775.5,-121.1 905.5,-121.1 905.5,-140.1"/>
<text text-anchor="middle" x="840.5" y="-128.1" font-family="Helvetica,sans-Serif" font-size="10.00">NetworkClient::writeAll</text>
</a>
</g>
</g>
<!-- Node7&#45;&gt;Node10 -->
<g id="edge9_Node000007_Node000010" class="edge">
<title>Node7&#45;&gt;Node10</title>
<g id="a_edge9_Node000007_Node000010"><a xlink:title=" ">
<path fill="none" stroke="#63b8ff" d="M729.22,-120.2C741.11,-121.32 753.32,-122.47 765.07,-123.58"/>
<polygon fill="#63b8ff" stroke="#63b8ff" points="764.99,-127.09 775.27,-124.54 765.64,-120.12 764.99,-127.09"/>
</a>
</g>
</g>
<!-- Node9 -->
<g id="Node000009" class="node">
<title>Node9</title>
<g id="a_Node000009"><a xlink:href="classPacket.html#aa88c2d28796644c8a1d6137996502ca8" target="_top" xlink:title="Serialize the packet to a byte buffer ready to send.">
<polygon fill="white" stroke="#666666" points="1053,-103.1 958,-103.1 958,-84.1 1053,-84.1 1053,-103.1"/>
<text text-anchor="middle" x="1005.5" y="-91.1" font-family="Helvetica,sans-Serif" font-size="10.00">Packet::serialize</text>
</a>
</g>
</g>
<!-- Node8&#45;&gt;Node9 -->
<g id="edge8_Node000008_Node000009" class="edge">
<title>Node8&#45;&gt;Node9</title>
<g id="a_edge8_Node000008_Node000009"><a xlink:title=" ">
<path fill="none" stroke="#63b8ff" d="M894.42,-93.6C911.36,-93.6 930.18,-93.6 947.4,-93.6"/>
<polygon fill="#63b8ff" stroke="#63b8ff" points="947.88,-97.1 957.88,-93.6 947.88,-90.1 947.88,-97.1"/>
</a>
</g>
</g>
<!-- Node12 -->
<g id="Node000012" class="node">
<title>Node12</title>
<g id="a_Node000012"><a xlink:href="classNetworkClient.html#aaf60f1216a17b46ad12539625a1022c2" target="_top" xlink:title=" ">
<polygon fill="white" stroke="#666666" points="520.5,-85.1 393.5,-85.1 393.5,-66.1 520.5,-66.1 520.5,-85.1"/>
<text text-anchor="middle" x="457" y="-73.1" font-family="Helvetica,sans-Serif" font-size="10.00">NetworkClient::nowMs</text>
</a>
</g>
</g>
<!-- Node11&#45;&gt;Node12 -->
<g id="edge11_Node000011_Node000012" class="edge">
<title>Node11&#45;&gt;Node12</title>
<g id="a_edge11_Node000011_Node000012"><a xlink:title=" ">
<path fill="none" stroke="#63b8ff" d="M338.14,-75.6C352.87,-75.6 368.4,-75.6 383.17,-75.6"/>
<polygon fill="#63b8ff" stroke="#63b8ff" points="383.26,-79.1 393.26,-75.6 383.26,-72.1 383.26,-79.1"/>
</a>
</g>
</g>
<!-- Node13&#45;&gt;Node5 -->
<g id="edge13_Node000013_Node000005" class="edge">
<title>Node13&#45;&gt;Node5</title>
<g id="a_edge13_Node000013_Node000005"><a xlink:title=" ">
<path fill="none" stroke="#63b8ff" d="M346.04,-159.46C355.34,-158.63 364.84,-157.77 374.17,-156.94"/>
<polygon fill="#63b8ff" stroke="#63b8ff" points="374.56,-160.42 384.2,-156.04 373.93,-153.44 374.56,-160.42"/>
</a>
</g>
</g>
<!-- Node14 -->
<g id="Node000014" class="node">
<title>Node14</title>
<g id="a_Node000014"><a xlink:href="classNetworkClient.html#ab8fe1bfbcfc0f363bce00cb1dc2a2f88" target="_top" xlink:title=" ">
<polygon fill="white" stroke="#666666" points="529,-207.6 385,-207.6 385,-177.6 529,-177.6 529,-207.6"/>
<text text-anchor="start" x="393" y="-195.6" font-family="Helvetica,sans-Serif" font-size="10.00">NetworkClient::receiveTcp</text>
<text text-anchor="middle" x="457" y="-184.6" font-family="Helvetica,sans-Serif" font-size="10.00">Framed</text>
</a>
</g>
</g>
<!-- Node13&#45;&gt;Node14 -->
<g id="edge14_Node000013_Node000014" class="edge">
<title>Node13&#45;&gt;Node14</title>
<g id="a_edge14_Node000013_Node000014"><a xlink:title=" ">
<path fill="none" stroke="#63b8ff" d="M335.99,-176.13C348.57,-177.86 361.8,-179.67 374.69,-181.44"/>
<polygon fill="#63b8ff" stroke="#63b8ff" points="374.55,-184.95 384.93,-182.85 375.5,-178.02 374.55,-184.95"/>
</a>
</g>
</g>
<!-- Node15 -->
<g id="Node000015" class="node">
<title>Node15</title>
<g id="a_Node000015"><a xlink:href="namespaceProtocol.html#ad768525ca5f0324a5f414440e67679b6" target="_top" xlink:title="Append newly read bytes then attempt extraction.">
<polygon fill="white" stroke="#666666" points="716,-202.1 579,-202.1 579,-183.1 716,-183.1 716,-202.1"/>
<text text-anchor="middle" x="647.5" y="-190.1" font-family="Helvetica,sans-Serif" font-size="10.00">Protocol::consumeChunk</text>
</a>
</g>
</g>
<!-- Node14&#45;&gt;Node15 -->
<g id="edge15_Node000014_Node000015" class="edge">
<title>Node14&#45;&gt;Node15</title>
<g id="a_edge15_Node000014_Node000015"><a xlink:title=" ">
<path fill="none" stroke="#63b8ff" d="M529.26,-192.6C542.1,-192.6 555.54,-192.6 568.55,-192.6"/>
<polygon fill="#63b8ff" stroke="#63b8ff" points="568.87,-196.1 578.87,-192.6 568.87,-189.1 568.87,-196.1"/>
</a>
</g>
</g>
<!-- Node15&#45;&gt;Node2 -->
<g id="edge16_Node000015_Node000002" class="edge">
<title>Node15&#45;&gt;Node2</title>
<g id="a_edge16_Node000015_Node000002"><a xlink:title=" ">
<path fill="none" stroke="#63b8ff" d="M716.11,-192.6C728.56,-192.6 741.7,-192.6 754.58,-192.6"/>
<polygon fill="#63b8ff" stroke="#63b8ff" points="754.83,-196.1 764.83,-192.6 754.83,-189.1 754.83,-196.1"/>
</a>
</g>
</g>
<!-- Node16&#45;&gt;Node3 -->
<g id="edge18_Node000016_Node000003" class="edge">
<title>Node16&#45;&gt;Node3</title>
<g id="a_edge18_Node000016_Node000003"><a xlink:title=" ">
<path fill="none" stroke="#63b8ff" d="M303.51,-23.04C326.5,-17.61 356.76,-11.35 384,-8.6 587.08,11.93 829.19,-11.03 941.5,-24.39"/>
<polygon fill="#63b8ff" stroke="#63b8ff" points="941.29,-27.89 951.64,-25.61 942.13,-20.94 941.29,-27.89"/>
</a>
</g>
</g>
<!-- Node16&#45;&gt;Node12 -->
<g id="edge19_Node000016_Node000012" class="edge">
<title>Node16&#45;&gt;Node12</title>
<g id="a_edge19_Node000016_Node000012"><a xlink:title=" ">
<path fill="none" stroke="#63b8ff" d="M308.56,-42.14C336.77,-48.54 374.12,-57.02 404.17,-63.84"/>
<polygon fill="#63b8ff" stroke="#63b8ff" points="403.53,-67.28 414.06,-66.08 405.08,-60.45 403.53,-67.28"/>
</a>
</g>
</g>
<!-- Node17 -->
<g id="Node000017" class="node">
<title>Node17</title>
<g id="a_Node000017"><a xlink:href="classNetworkClient.html#a36892dcdc8c2523b27947a347ea16022" target="_top" xlink:title=" ">
<polygon fill="white" stroke="#666666" points="530,-47.6 384,-47.6 384,-17.6 530,-17.6 530,-47.6"/>
<text text-anchor="start" x="392" y="-35.6" font-family="Helvetica,sans-Serif" font-size="10.00">NetworkClient::updateUdp</text>
<text text-anchor="middle" x="457" y="-24.6" font-family="Helvetica,sans-Serif" font-size="10.00">Rates</text>
</a>
</g>
</g>
<!-- Node16&#45;&gt;Node17 -->
<g id="edge20_Node000016_Node000017" class="edge">
<title>Node16&#45;&gt;Node17</title>
<g id="a_edge20_Node000016_Node000017"><a xlink:title=" ">
<path fill="none" stroke="#63b8ff" d="M348.24,-32.6C356.64,-32.6 365.19,-32.6 373.6,-32.6"/>
<polygon fill="#63b8ff" stroke="#63b8ff" points="373.77,-36.1 383.77,-32.6 373.77,-29.1 373.77,-36.1"/>
</a>
</g>
</g>
</g>
</svg>
