<?xml version="1.0" encoding="UTF-8" standalone="no"?>
<!DOCTYPE svg PUBLIC "-//W3C//DTD SVG 1.1//EN"
 "http://www.w3.org/Graphics/SVG/1.1/DTD/svg11.dtd">
<!-- Generated by graphviz version 2.43.0 (0)
 -->
<!-- Title: /home/loic/EPITECH/rtype/Mystic&#45;Type/client.cpp Pages: 1 -->
<svg width="1605pt" height="456pt"
 viewBox="0.00 0.00 1605.00 456.00" xmlns="http://www.w3.org/2000/svg" xmlns:xlink="http://www.w3.org/1999/xlink">
<g id="graph0" class="graph" transform="scale(1 1) rotate(0) translate(4 452)">
<title>/home/loic/EPITECH/rtype/Mystic&#45;Type/client.cpp</title>
<!-- Node1 -->
<g id="Node000001" class="node">
<title>Node1</title>
<g id="a_Node000001"><a xlink:title=" ">
<polygon fill="#999999" stroke="#666666" points="1176,-448 1020,-448 1020,-418 1176,-418 1176,-448"/>
<text text-anchor="start" x="1028" y="-436" font-family="Helvetica,sans-Serif" font-size="10.00">/home/loic/EPITECH</text>
<text text-anchor="middle" x="1098" y="-425" font-family="Helvetica,sans-Serif" font-size="10.00">/rtype/Mystic&#45;Type/client.cpp</text>
</a>
</g>
</g>
<!-- Node2 -->
<g id="Node000002" class="node">
<title>Node2</title>
<g id="a_Node000002"><a xlink:href="GraphicClient_8hpp.html" target="_top" xlink:title=" ">
<polygon fill="white" stroke="#666666" points="1118,-382 942,-382 942,-352 1118,-352 1118,-382"/>
<text text-anchor="start" x="950" y="-370" font-family="Helvetica,sans-Serif" font-size="10.00">src/graphical&#45;client</text>
<text text-anchor="middle" x="1030" y="-359" font-family="Helvetica,sans-Serif" font-size="10.00">/GraphicClient/GraphicClient.hpp</text>
</a>
</g>
</g>
<!-- Node1&#45;&gt;Node2 -->
<g id="edge1_Node000001_Node000002" class="edge">
<title>Node1&#45;&gt;Node2</title>
<g id="a_edge1_Node000001_Node000002"><a xlink:title=" ">
<path fill="none" stroke="#63b8ff" d="M1082.91,-417.8C1073.93,-409.34 1062.37,-398.46 1052.35,-389.03"/>
<polygon fill="#63b8ff" stroke="#63b8ff" points="1054.73,-386.47 1045.05,-382.16 1049.93,-391.57 1054.73,-386.47"/>
</a>
</g>
</g>
<!-- Node33 -->
<g id="Node000033" class="node">
<title>Node33</title>
<g id="a_Node000033"><a xlink:title=" ">
<polygon fill="#e0e0e0" stroke="#999999" points="1196,-376.5 1136,-376.5 1136,-357.5 1196,-357.5 1196,-376.5"/>
<text text-anchor="middle" x="1166" y="-364.5" font-family="Helvetica,sans-Serif" font-size="10.00">iostream</text>
</a>
</g>
</g>
<!-- Node1&#45;&gt;Node33 -->
<g id="edge55_Node000001_Node000033" class="edge">
<title>Node1&#45;&gt;Node33</title>
<g id="a_edge55_Node000001_Node000033"><a xlink:title=" ">
<path fill="none" stroke="#63b8ff" d="M1113.09,-417.8C1123.8,-407.72 1138.17,-394.19 1149.23,-383.78"/>
<polygon fill="#63b8ff" stroke="#63b8ff" points="1151.72,-386.25 1156.6,-376.84 1146.92,-381.15 1151.72,-386.25"/>
</a>
</g>
</g>
<!-- Node3 -->
<g id="Node000003" class="node">
<title>Node3</title>
<g id="a_Node000003"><a xlink:href="Raylib_8hpp.html" target="_top" xlink:title=" ">
<polygon fill="white" stroke="#666666" points="1531.5,-129 1420.5,-129 1420.5,-110 1531.5,-110 1531.5,-129"/>
<text text-anchor="middle" x="1476" y="-117" font-family="Helvetica,sans-Serif" font-size="10.00">../Raylib/Raylib.hpp</text>
</a>
</g>
</g>
<!-- Node2&#45;&gt;Node3 -->
<g id="edge2_Node000002_Node000003" class="edge">
<title>Node2&#45;&gt;Node3</title>
<g id="a_edge2_Node000002_Node000003"><a xlink:title=" ">
<path fill="none" stroke="#63b8ff" d="M1098.49,-351.99C1191.8,-332.02 1353.01,-294.11 1403,-261 1435.07,-239.76 1441.78,-229.4 1459,-195 1467.89,-177.24 1472.19,-154.78 1474.24,-139.19"/>
<polygon fill="#63b8ff" stroke="#63b8ff" points="1477.72,-139.54 1475.36,-129.21 1470.76,-138.76 1477.72,-139.54"/>
</a>
</g>
</g>
<!-- Node5 -->
<g id="Node000005" class="node">
<title>Node5</title>
<g id="a_Node000005"><a xlink:title=" ">
<polygon fill="#e0e0e0" stroke="#999999" points="1376,-74 1332,-74 1332,-55 1376,-55 1376,-74"/>
<text text-anchor="middle" x="1354" y="-62" font-family="Helvetica,sans-Serif" font-size="10.00">string</text>
</a>
</g>
</g>
<!-- Node2&#45;&gt;Node5 -->
<g id="edge52_Node000002_Node000005" class="edge">
<title>Node2&#45;&gt;Node5</title>
<g id="a_edge52_Node000002_Node000005"><a xlink:title=" ">
<path fill="none" stroke="#63b8ff" d="M1022.17,-351.91C999.7,-309.39 940.51,-180.92 1003,-110 1023.94,-86.24 1238.89,-71.88 1321.71,-67.2"/>
<polygon fill="#63b8ff" stroke="#63b8ff" points="1322.02,-70.69 1331.81,-66.64 1321.63,-63.7 1322.02,-70.69"/>
</a>
</g>
</g>
<!-- Node6 -->
<g id="Node000006" class="node">
<title>Node6</title>
<g id="a_Node000006"><a xlink:href="Core_8hpp.html" target="_top" xlink:title=" ">
<polygon fill="white" stroke="#666666" points="1194.5,-189.5 1105.5,-189.5 1105.5,-170.5 1194.5,-170.5 1194.5,-189.5"/>
<text text-anchor="middle" x="1150" y="-177.5" font-family="Helvetica,sans-Serif" font-size="10.00">../ecs/Core.hpp</text>
</a>
</g>
</g>
<!-- Node2&#45;&gt;Node6 -->
<g id="edge5_Node000002_Node000006" class="edge">
<title>Node2&#45;&gt;Node6</title>
<g id="a_edge5_Node000002_Node000006"><a xlink:title=" ">
<path fill="none" stroke="#63b8ff" d="M1039.22,-351.79C1060.98,-318.24 1115.49,-234.2 1138.96,-198.01"/>
<polygon fill="#63b8ff" stroke="#63b8ff" points="1141.96,-199.82 1144.47,-189.53 1136.09,-196.01 1141.96,-199.82"/>
</a>
</g>
</g>
<!-- Node8 -->
<g id="Node000008" class="node">
<title>Node8</title>
<g id="a_Node000008"><a xlink:title=" ">
<polygon fill="#e0e0e0" stroke="#999999" points="885.5,-129 838.5,-129 838.5,-110 885.5,-110 885.5,-129"/>
<text text-anchor="middle" x="862" y="-117" font-family="Helvetica,sans-Serif" font-size="10.00">vector</text>
</a>
</g>
</g>
<!-- Node2&#45;&gt;Node8 -->
<g id="edge54_Node000002_Node000008" class="edge">
<title>Node2&#45;&gt;Node8</title>
<g id="a_edge54_Node000002_Node000008"><a xlink:title=" ">
<path fill="none" stroke="#63b8ff" d="M1006.92,-351.92C967.77,-326.43 889.97,-268.42 863,-195 856.39,-177 857.1,-154.87 858.87,-139.43"/>
<polygon fill="#63b8ff" stroke="#63b8ff" points="862.39,-139.49 860.32,-129.1 855.46,-138.51 862.39,-139.49"/>
</a>
</g>
</g>
<!-- Node9 -->
<g id="Node000009" class="node">
<title>Node9</title>
<g id="a_Node000009"><a xlink:title=" ">
<polygon fill="#e0e0e0" stroke="#999999" points="1104.5,-129 1011.5,-129 1011.5,-110 1104.5,-110 1104.5,-129"/>
<text text-anchor="middle" x="1058" y="-117" font-family="Helvetica,sans-Serif" font-size="10.00">unordered_map</text>
</a>
</g>
</g>
<!-- Node2&#45;&gt;Node9 -->
<g id="edge51_Node000002_Node000009" class="edge">
<title>Node2&#45;&gt;Node9</title>
<g id="a_edge51_Node000002_Node000009"><a xlink:title=" ">
<path fill="none" stroke="#63b8ff" d="M1031.63,-351.74C1036.41,-309.76 1050.46,-186.63 1055.85,-139.32"/>
<polygon fill="#63b8ff" stroke="#63b8ff" points="1059.35,-139.58 1057,-129.25 1052.39,-138.79 1059.35,-139.58"/>
</a>
</g>
</g>
<!-- Node12 -->
<g id="Node000012" class="node">
<title>Node12</title>
<g id="a_Node000012"><a xlink:href="System_8hpp.html" target="_top" xlink:title=" ">
<polygon fill="white" stroke="#666666" points="1217.5,-316 1114.5,-316 1114.5,-297 1217.5,-297 1217.5,-316"/>
<text text-anchor="middle" x="1166" y="-304" font-family="Helvetica,sans-Serif" font-size="10.00">../ecs/System.hpp</text>
</a>
</g>
</g>
<!-- Node2&#45;&gt;Node12 -->
<g id="edge11_Node000002_Node000012" class="edge">
<title>Node2&#45;&gt;Node12</title>
<g id="a_edge11_Node000002_Node000012"><a xlink:title=" ">
<path fill="none" stroke="#63b8ff" d="M1062.58,-351.99C1085.06,-342.31 1114.72,-329.56 1136.51,-320.18"/>
<polygon fill="#63b8ff" stroke="#63b8ff" points="1138.11,-323.31 1145.92,-316.14 1135.35,-316.88 1138.11,-323.31"/>
</a>
</g>
</g>
<!-- Node13 -->
<g id="Node000013" class="node">
<title>Node13</title>
<g id="a_Node000013"><a xlink:href="NetworkClient_8hpp.html" target="_top" xlink:title=" ">
<polygon fill="white" stroke="#666666" points="786,-261 676,-261 676,-231 786,-231 786,-261"/>
<text text-anchor="start" x="684" y="-249" font-family="Helvetica,sans-Serif" font-size="10.00">../../Network/Client</text>
<text text-anchor="middle" x="731" y="-238" font-family="Helvetica,sans-Serif" font-size="10.00">/NetworkClient.hpp</text>
</a>
</g>
</g>
<!-- Node2&#45;&gt;Node13 -->
<g id="edge49_Node000002_Node000013" class="edge">
<title>Node2&#45;&gt;Node13</title>
<g id="a_edge49_Node000002_Node000013"><a xlink:title=" ">
<path fill="none" stroke="#63b8ff" d="M945.49,-351.98C908.95,-344.14 866.33,-332.52 830,-316 802.42,-303.46 774.41,-283.07 755.26,-267.7"/>
<polygon fill="#63b8ff" stroke="#63b8ff" points="757.32,-264.87 747.37,-261.25 752.89,-270.29 757.32,-264.87"/>
</a>
</g>
</g>
<!-- Node28 -->
<g id="Node000028" class="node">
<title>Node28</title>
<g id="a_Node000028"><a xlink:href="GameState_8hpp.html" target="_top" xlink:title=" ">
<polygon fill="white" stroke="#666666" points="964,-189.5 872,-189.5 872,-170.5 964,-170.5 964,-189.5"/>
<text text-anchor="middle" x="918" y="-177.5" font-family="Helvetica,sans-Serif" font-size="10.00">GameState.hpp</text>
</a>
</g>
</g>
<!-- Node2&#45;&gt;Node28 -->
<g id="edge50_Node000002_Node000028" class="edge">
<title>Node2&#45;&gt;Node28</title>
<g id="a_edge50_Node000002_Node000028"><a xlink:title=" ">
<path fill="none" stroke="#63b8ff" d="M1011.9,-351.7C1001.02,-342.41 987.49,-329.53 978,-316 951.47,-278.17 932.56,-226.72 923.69,-199.56"/>
<polygon fill="#63b8ff" stroke="#63b8ff" points="926.96,-198.29 920.6,-189.81 920.29,-200.4 926.96,-198.29"/>
</a>
</g>
</g>
<!-- Node32 -->
<g id="Node000032" class="node">
<title>Node32</title>
<g id="a_Node000032"><a xlink:title=" ">
<polygon fill="#e0e0e0" stroke="#999999" points="1597,-316 1547,-316 1547,-297 1597,-297 1597,-316"/>
<text text-anchor="middle" x="1572" y="-304" font-family="Helvetica,sans-Serif" font-size="10.00">chrono</text>
</a>
</g>
</g>
<!-- Node2&#45;&gt;Node32 -->
<g id="edge53_Node000002_Node000032" class="edge">
<title>Node2&#45;&gt;Node32</title>
<g id="a_edge53_Node000002_Node000032"><a xlink:title=" ">
<path fill="none" stroke="#63b8ff" d="M1118,-353.08C1121.04,-352.71 1124.04,-352.34 1127,-352 1306.94,-331.05 1353.92,-343.34 1533,-316 1534.27,-315.81 1535.56,-315.6 1536.87,-315.37"/>
<polygon fill="#63b8ff" stroke="#63b8ff" points="1537.74,-318.77 1546.91,-313.46 1536.43,-311.89 1537.74,-318.77"/>
</a>
</g>
</g>
<!-- Node4 -->
<g id="Node000004" class="node">
<title>Node4</title>
<g id="a_Node000004"><a xlink:title=" ">
<polygon fill="#e0e0e0" stroke="#999999" points="1544.5,-74 1491.5,-74 1491.5,-55 1544.5,-55 1544.5,-74"/>
<text text-anchor="middle" x="1518" y="-62" font-family="Helvetica,sans-Serif" font-size="10.00">raylib.h</text>
</a>
</g>
</g>
<!-- Node3&#45;&gt;Node4 -->
<g id="edge3_Node000003_Node000004" class="edge">
<title>Node3&#45;&gt;Node4</title>
<g id="a_edge3_Node000003_Node000004"><a xlink:title=" ">
<path fill="none" stroke="#63b8ff" d="M1482.94,-109.75C1488.87,-102.26 1497.57,-91.28 1504.82,-82.13"/>
<polygon fill="#63b8ff" stroke="#63b8ff" points="1507.73,-84.1 1511.19,-74.09 1502.24,-79.75 1507.73,-84.1"/>
</a>
</g>
</g>
<!-- Node3&#45;&gt;Node5 -->
<g id="edge4_Node000003_Node000005" class="edge">
<title>Node3&#45;&gt;Node5</title>
<g id="a_edge4_Node000003_Node000005"><a xlink:title=" ">
<path fill="none" stroke="#63b8ff" d="M1456.4,-109.98C1436.68,-101.42 1406.05,-88.11 1383.42,-78.28"/>
<polygon fill="#63b8ff" stroke="#63b8ff" points="1384.52,-74.94 1373.96,-74.17 1381.74,-81.37 1384.52,-74.94"/>
</a>
</g>
</g>
<!-- Node7 -->
<g id="Node000007" class="node">
<title>Node7</title>
<g id="a_Node000007"><a xlink:title=" ">
<polygon fill="#e0e0e0" stroke="#999999" points="1250,-129 1206,-129 1206,-110 1250,-110 1250,-129"/>
<text text-anchor="middle" x="1228" y="-117" font-family="Helvetica,sans-Serif" font-size="10.00">bitset</text>
</a>
</g>
</g>
<!-- Node6&#45;&gt;Node7 -->
<g id="edge6_Node000006_Node000007" class="edge">
<title>Node6&#45;&gt;Node7</title>
<g id="a_edge6_Node000006_Node000007"><a xlink:title=" ">
<path fill="none" stroke="#63b8ff" d="M1161.51,-170.37C1173.84,-161.12 1193.62,-146.28 1208.41,-135.19"/>
<polygon fill="#63b8ff" stroke="#63b8ff" points="1210.54,-137.97 1216.44,-129.17 1206.34,-132.37 1210.54,-137.97"/>
</a>
</g>
</g>
<!-- Node6&#45;&gt;Node8 -->
<g id="edge7_Node000006_Node000008" class="edge">
<title>Node6&#45;&gt;Node8</title>
<g id="a_edge7_Node000006_Node000008"><a xlink:title=" ">
<path fill="none" stroke="#63b8ff" d="M1108.12,-170.49C1050.64,-158.82 948.44,-138.06 895.64,-127.33"/>
<polygon fill="#63b8ff" stroke="#63b8ff" points="896.27,-123.89 885.77,-125.33 894.87,-130.75 896.27,-123.89"/>
</a>
</g>
</g>
<!-- Node6&#45;&gt;Node9 -->
<g id="edge8_Node000006_Node000009" class="edge">
<title>Node6&#45;&gt;Node9</title>
<g id="a_edge8_Node000006_Node000009"><a xlink:title=" ">
<path fill="none" stroke="#63b8ff" d="M1136.43,-170.37C1121.61,-160.95 1097.67,-145.73 1080.14,-134.58"/>
<polygon fill="#63b8ff" stroke="#63b8ff" points="1081.95,-131.58 1071.63,-129.17 1078.19,-137.49 1081.95,-131.58"/>
</a>
</g>
</g>
<!-- Node10 -->
<g id="Node000010" class="node">
<title>Node10</title>
<g id="a_Node000010"><a xlink:title=" ">
<polygon fill="#e0e0e0" stroke="#999999" points="1187.5,-129 1122.5,-129 1122.5,-110 1187.5,-110 1187.5,-129"/>
<text text-anchor="middle" x="1155" y="-117" font-family="Helvetica,sans-Serif" font-size="10.00">typeindex</text>
</a>
</g>
</g>
<!-- Node6&#45;&gt;Node10 -->
<g id="edge9_Node000006_Node000010" class="edge">
<title>Node6&#45;&gt;Node10</title>
<g id="a_edge9_Node000006_Node000010"><a xlink:title=" ">
<path fill="none" stroke="#63b8ff" d="M1150.74,-170.37C1151.43,-162.25 1152.5,-149.81 1153.39,-139.39"/>
<polygon fill="#63b8ff" stroke="#63b8ff" points="1156.89,-139.43 1154.26,-129.17 1149.92,-138.83 1156.89,-139.43"/>
</a>
</g>
</g>
<!-- Node11 -->
<g id="Node000011" class="node">
<title>Node11</title>
<g id="a_Node000011"><a xlink:title=" ">
<polygon fill="#e0e0e0" stroke="#999999" points="1326,-129 1268,-129 1268,-110 1326,-110 1326,-129"/>
<text text-anchor="middle" x="1297" y="-117" font-family="Helvetica,sans-Serif" font-size="10.00">memory</text>
</a>
</g>
</g>
<!-- Node6&#45;&gt;Node11 -->
<g id="edge10_Node000006_Node000011" class="edge">
<title>Node6&#45;&gt;Node11</title>
<g id="a_edge10_Node000006_Node000011"><a xlink:title=" ">
<path fill="none" stroke="#63b8ff" d="M1171.38,-170.49C1196.31,-160.57 1237.72,-144.09 1266.14,-132.78"/>
<polygon fill="#63b8ff" stroke="#63b8ff" points="1267.6,-135.97 1275.6,-129.02 1265.01,-129.46 1267.6,-135.97"/>
</a>
</g>
</g>
<!-- Node12&#45;&gt;Node3 -->
<g id="edge37_Node000012_Node000003" class="edge">
<title>Node12&#45;&gt;Node3</title>
<g id="a_edge37_Node000012_Node000003"><a xlink:title=" ">
<path fill="none" stroke="#63b8ff" d="M1217.52,-304.48C1261.93,-301.38 1326.11,-291.38 1373,-261 1420.68,-230.1 1453.85,-168.9 1468.13,-138.5"/>
<polygon fill="#63b8ff" stroke="#63b8ff" points="1471.43,-139.69 1472.38,-129.13 1465.06,-136.79 1471.43,-139.69"/>
</a>
</g>
</g>
<!-- Node12&#45;&gt;Node6 -->
<g id="edge46_Node000012_Node000006" class="edge">
<title>Node12&#45;&gt;Node6</title>
<g id="a_edge46_Node000012_Node000006"><a xlink:title=" ">
<path fill="none" stroke="#63b8ff" d="M1177.93,-296.8C1187.83,-288.77 1201.19,-275.87 1207,-261 1211.85,-248.58 1212.5,-243.15 1207,-231 1200.22,-216.04 1186.52,-203.79 1174.25,-195.16"/>
<polygon fill="#63b8ff" stroke="#63b8ff" points="1175.96,-192.1 1165.68,-189.53 1172.12,-197.95 1175.96,-192.1"/>
</a>
</g>
</g>
<!-- Node12&#45;&gt;Node9 -->
<g id="edge48_Node000012_Node000009" class="edge">
<title>Node12&#45;&gt;Node9</title>
<g id="a_edge48_Node000012_Node000009"><a xlink:title=" ">
<path fill="none" stroke="#63b8ff" d="M1156.66,-296.97C1147.74,-288.48 1134.3,-274.75 1125,-261 1097.46,-220.29 1075.24,-166.52 1064.68,-138.78"/>
<polygon fill="#63b8ff" stroke="#63b8ff" points="1067.88,-137.35 1061.1,-129.21 1061.32,-139.8 1067.88,-137.35"/>
</a>
</g>
</g>
<!-- Node12&#45;&gt;Node13 -->
<g id="edge12_Node000012_Node000013" class="edge">
<title>Node12&#45;&gt;Node13</title>
<g id="a_edge12_Node000012_Node000013"><a xlink:title=" ">
<path fill="none" stroke="#63b8ff" d="M1114.39,-298.56C1035.05,-287.89 883.2,-267.47 796.31,-255.78"/>
<polygon fill="#63b8ff" stroke="#63b8ff" points="796.68,-252.3 786.31,-254.44 795.75,-259.24 796.68,-252.3"/>
</a>
</g>
</g>
<!-- Node29 -->
<g id="Node000029" class="node">
<title>Node29</title>
<g id="a_Node000029"><a xlink:href="Components_8hpp.html" target="_top" xlink:title=" ">
<polygon fill="white" stroke="#666666" points="1363.5,-255.5 1264.5,-255.5 1264.5,-236.5 1363.5,-236.5 1363.5,-255.5"/>
<text text-anchor="middle" x="1314" y="-243.5" font-family="Helvetica,sans-Serif" font-size="10.00">Components.hpp</text>
</a>
</g>
</g>
<!-- Node12&#45;&gt;Node29 -->
<g id="edge38_Node000012_Node000029" class="edge">
<title>Node12&#45;&gt;Node29</title>
<g id="a_edge38_Node000012_Node000029"><a xlink:title=" ">
<path fill="none" stroke="#63b8ff" d="M1187.52,-296.99C1212.62,-287.07 1254.32,-270.59 1282.93,-259.28"/>
<polygon fill="#63b8ff" stroke="#63b8ff" points="1284.44,-262.45 1292.45,-255.52 1281.87,-255.94 1284.44,-262.45"/>
</a>
</g>
</g>
<!-- Node31 -->
<g id="Node000031" class="node">
<title>Node31</title>
<g id="a_Node000031"><a xlink:title=" ">
<polygon fill="#e0e0e0" stroke="#999999" points="1198,-255.5 1134,-255.5 1134,-236.5 1198,-236.5 1198,-255.5"/>
<text text-anchor="middle" x="1166" y="-243.5" font-family="Helvetica,sans-Serif" font-size="10.00">algorithm</text>
</a>
</g>
</g>
<!-- Node12&#45;&gt;Node31 -->
<g id="edge47_Node000012_Node000031" class="edge">
<title>Node12&#45;&gt;Node31</title>
<g id="a_edge47_Node000012_Node000031"><a xlink:title=" ">
<path fill="none" stroke="#63b8ff" d="M1166,-296.87C1166,-288.75 1166,-276.31 1166,-265.89"/>
<polygon fill="#63b8ff" stroke="#63b8ff" points="1169.5,-265.67 1166,-255.67 1162.5,-265.67 1169.5,-265.67"/>
</a>
</g>
</g>
<!-- Node13&#45;&gt;Node5 -->
<g id="edge14_Node000013_Node000005" class="edge">
<title>Node13&#45;&gt;Node5</title>
<g id="a_edge14_Node000013_Node000005"><a xlink:title=" ">
<path fill="none" stroke="#63b8ff" d="M749.65,-230.89C761.1,-221.57 775.54,-208.61 786,-195 811.92,-161.27 794.63,-133.63 830,-110 870.87,-82.7 1213.79,-69.84 1321.66,-66.44"/>
<polygon fill="#63b8ff" stroke="#63b8ff" points="1322.03,-69.93 1331.92,-66.13 1321.81,-62.94 1322.03,-69.93"/>
</a>
</g>
</g>
<!-- Node14 -->
<g id="Node000014" class="node">
<title>Node14</title>
<g id="a_Node000014"><a xlink:title=" ">
<polygon fill="#e0e0e0" stroke="#999999" points="730,-19 680,-19 680,0 730,0 730,-19"/>
<text text-anchor="middle" x="705" y="-7" font-family="Helvetica,sans-Serif" font-size="10.00">cstdint</text>
</a>
</g>
</g>
<!-- Node13&#45;&gt;Node14 -->
<g id="edge13_Node000013_Node000014" class="edge">
<title>Node13&#45;&gt;Node14</title>
<g id="a_edge13_Node000013_Node000014"><a xlink:title=" ">
<path fill="none" stroke="#63b8ff" d="M675.9,-235.1C653.03,-227.98 628.68,-215.79 615,-195 576.56,-136.57 649.96,-59.29 686.31,-26.4"/>
<polygon fill="#63b8ff" stroke="#63b8ff" points="689.08,-28.63 694.26,-19.38 684.44,-23.38 689.08,-28.63"/>
</a>
</g>
</g>
<!-- Node15 -->
<g id="Node000015" class="node">
<title>Node15</title>
<g id="a_Node000015"><a xlink:title=" ">
<polygon fill="#e0e0e0" stroke="#999999" points="74,-19 0,-19 0,0 74,0 74,-19"/>
<text text-anchor="middle" x="37" y="-7" font-family="Helvetica,sans-Serif" font-size="10.00">sys/select.h</text>
</a>
</g>
</g>
<!-- Node13&#45;&gt;Node15 -->
<g id="edge15_Node000013_Node000015" class="edge">
<title>Node13&#45;&gt;Node15</title>
<g id="a_edge15_Node000013_Node000015"><a xlink:title=" ">
<path fill="none" stroke="#63b8ff" d="M675.81,-240C615.96,-233.57 518.11,-220.12 437,-195 287.22,-148.62 120.78,-58.18 60.44,-24.01"/>
<polygon fill="#63b8ff" stroke="#63b8ff" points="62.11,-20.93 51.69,-19.03 58.65,-27.02 62.11,-20.93"/>
</a>
</g>
</g>
<!-- Node16 -->
<g id="Node000016" class="node">
<title>Node16</title>
<g id="a_Node000016"><a xlink:href="Packet_8hpp.html" target="_top" xlink:title=" ">
<polygon fill="white" stroke="#666666" points="777.5,-189.5 624.5,-189.5 624.5,-170.5 777.5,-170.5 777.5,-189.5"/>
<text text-anchor="middle" x="701" y="-177.5" font-family="Helvetica,sans-Serif" font-size="10.00">../TransportLayer/Packet.hpp</text>
</a>
</g>
</g>
<!-- Node13&#45;&gt;Node16 -->
<g id="edge16_Node000013_Node000016" class="edge">
<title>Node13&#45;&gt;Node16</title>
<g id="a_edge16_Node000013_Node000016"><a xlink:title=" ">
<path fill="none" stroke="#63b8ff" d="M724.34,-230.8C719.94,-221.41 714.13,-209.02 709.41,-198.95"/>
<polygon fill="#63b8ff" stroke="#63b8ff" points="712.56,-197.41 705.15,-189.84 706.22,-200.38 712.56,-197.41"/>
</a>
</g>
</g>
<!-- Node18 -->
<g id="Node000018" class="node">
<title>Node18</title>
<g id="a_Node000018"><a xlink:href="UDPSocket_8hpp.html" target="_top" xlink:title=" ">
<polygon fill="white" stroke="#666666" points="568,-195 446,-195 446,-165 568,-165 568,-195"/>
<text text-anchor="start" x="454" y="-183" font-family="Helvetica,sans-Serif" font-size="10.00">../TransportLayer/UDP</text>
<text text-anchor="middle" x="507" y="-172" font-family="Helvetica,sans-Serif" font-size="10.00">/UDPSocket.hpp</text>
</a>
</g>
</g>
<!-- Node13&#45;&gt;Node18 -->
<g id="edge20_Node000013_Node000018" class="edge">
<title>Node13&#45;&gt;Node18</title>
<g id="a_edge20_Node000013_Node000018"><a xlink:title=" ">
<path fill="none" stroke="#63b8ff" d="M681.84,-230.95C647.7,-221.2 602.05,-208.16 565.95,-197.84"/>
<polygon fill="#63b8ff" stroke="#63b8ff" points="566.62,-194.39 556.04,-195.01 564.7,-201.12 566.62,-194.39"/>
</a>
</g>
</g>
<!-- Node13&#45;&gt;Node28 -->
<g id="edge33_Node000013_Node000028" class="edge">
<title>Node13&#45;&gt;Node28</title>
<g id="a_edge33_Node000013_Node000028"><a xlink:title=" ">
<path fill="none" stroke="#63b8ff" d="M772.04,-230.95C805.41,-219.53 851.97,-203.6 883.46,-192.82"/>
<polygon fill="#63b8ff" stroke="#63b8ff" points="884.79,-196.07 893.11,-189.52 882.52,-189.44 884.79,-196.07"/>
</a>
</g>
</g>
<!-- Node16&#45;&gt;Node8 -->
<g id="edge19_Node000016_Node000008" class="edge">
<title>Node16&#45;&gt;Node8</title>
<g id="a_edge19_Node000016_Node000008"><a xlink:title=" ">
<path fill="none" stroke="#63b8ff" d="M724.41,-170.49C751.95,-160.49 797.87,-143.8 829.01,-132.49"/>
<polygon fill="#63b8ff" stroke="#63b8ff" points="830.36,-135.72 838.56,-129.02 827.97,-129.14 830.36,-135.72"/>
</a>
</g>
</g>
<!-- Node16&#45;&gt;Node14 -->
<g id="edge17_Node000016_Node000014" class="edge">
<title>Node16&#45;&gt;Node14</title>
<g id="a_edge17_Node000016_Node000014"><a xlink:title=" ">
<path fill="none" stroke="#63b8ff" d="M701.2,-170.41C701.82,-144.39 703.68,-65.97 704.55,-29.51"/>
<polygon fill="#63b8ff" stroke="#63b8ff" points="708.05,-29.35 704.79,-19.27 701.06,-29.19 708.05,-29.35"/>
</a>
</g>
</g>
<!-- Node17 -->
<g id="Node000017" class="node">
<title>Node17</title>
<g id="a_Node000017"><a xlink:title=" ">
<polygon fill="#e0e0e0" stroke="#999999" points="777.5,-129 712.5,-129 712.5,-110 777.5,-110 777.5,-129"/>
<text text-anchor="middle" x="745" y="-117" font-family="Helvetica,sans-Serif" font-size="10.00">stdexcept</text>
</a>
</g>
</g>
<!-- Node16&#45;&gt;Node17 -->
<g id="edge18_Node000016_Node000017" class="edge">
<title>Node16&#45;&gt;Node17</title>
<g id="a_edge18_Node000016_Node000017"><a xlink:title=" ">
<path fill="none" stroke="#63b8ff" d="M707.49,-170.37C713.99,-161.73 724.16,-148.2 732.28,-137.42"/>
<polygon fill="#63b8ff" stroke="#63b8ff" points="735.27,-139.26 738.48,-129.17 729.67,-135.06 735.27,-139.26"/>
</a>
</g>
</g>
<!-- Node18&#45;&gt;Node14 -->
<g id="edge32_Node000018_Node000014" class="edge">
<title>Node18&#45;&gt;Node14</title>
<g id="a_edge32_Node000018_Node000014"><a xlink:title=" ">
<path fill="none" stroke="#63b8ff" d="M511.86,-164.97C521.38,-139.5 544.85,-85.48 582,-55 595.78,-43.69 638.93,-29.52 670.23,-20.24"/>
<polygon fill="#63b8ff" stroke="#63b8ff" points="671.31,-23.58 679.93,-17.42 669.35,-16.86 671.31,-23.58"/>
</a>
</g>
</g>
<!-- Node19 -->
<g id="Node000019" class="node">
<title>Node19</title>
<g id="a_Node000019"><a xlink:href="ASocket_8hpp.html" target="_top" xlink:title=" ">
<polygon fill="white" stroke="#666666" points="439,-129 353,-129 353,-110 439,-110 439,-129"/>
<text text-anchor="middle" x="396" y="-117" font-family="Helvetica,sans-Serif" font-size="10.00">../ASocket.hpp</text>
</a>
</g>
</g>
<!-- Node18&#45;&gt;Node19 -->
<g id="edge21_Node000018_Node000019" class="edge">
<title>Node18&#45;&gt;Node19</title>
<g id="a_edge21_Node000018_Node000019"><a xlink:title=" ">
<path fill="none" stroke="#63b8ff" d="M480.41,-164.99C462.55,-155.58 439.16,-143.24 421.52,-133.95"/>
<polygon fill="#63b8ff" stroke="#63b8ff" points="422.87,-130.71 412.39,-129.14 419.61,-136.9 422.87,-130.71"/>
</a>
</g>
</g>
<!-- Node20 -->
<g id="Node000020" class="node">
<title>Node20</title>
<g id="a_Node000020"><a xlink:href="ISocket_8hpp.html" target="_top" xlink:title=" ">
<polygon fill="white" stroke="#666666" points="429.5,-74 356.5,-74 356.5,-55 429.5,-55 429.5,-74"/>
<text text-anchor="middle" x="393" y="-62" font-family="Helvetica,sans-Serif" font-size="10.00">ISocket.hpp</text>
</a>
</g>
</g>
<!-- Node19&#45;&gt;Node20 -->
<g id="edge22_Node000019_Node000020" class="edge">
<title>Node19&#45;&gt;Node20</title>
<g id="a_edge22_Node000019_Node000020"><a xlink:title=" ">
<path fill="none" stroke="#63b8ff" d="M395.5,-109.75C395.11,-102.8 394.55,-92.85 394.05,-84.13"/>
<polygon fill="#63b8ff" stroke="#63b8ff" points="397.55,-83.88 393.49,-74.09 390.56,-84.27 397.55,-83.88"/>
</a>
</g>
</g>
<!-- Node20&#45;&gt;Node14 -->
<g id="edge24_Node000020_Node000014" class="edge">
<title>Node20&#45;&gt;Node14</title>
<g id="a_edge24_Node000020_Node000014"><a xlink:title=" ">
<path fill="none" stroke="#63b8ff" d="M429.61,-58.67C481.08,-51.65 577.93,-37.62 669.79,-19.1"/>
<polygon fill="#63b8ff" stroke="#63b8ff" points="670.71,-22.48 679.8,-17.06 669.31,-15.62 670.71,-22.48"/>
</a>
</g>
</g>
<!-- Node20&#45;&gt;Node15 -->
<g id="edge28_Node000020_Node000015" class="edge">
<title>Node20&#45;&gt;Node15</title>
<g id="a_edge28_Node000020_Node000015"><a xlink:title=" ">
<path fill="none" stroke="#63b8ff" d="M356.18,-58.7C299.86,-51.26 188.68,-36.14 84.22,-19.14"/>
<polygon fill="#63b8ff" stroke="#63b8ff" points="84.57,-15.65 74.13,-17.49 83.44,-22.56 84.57,-15.65"/>
</a>
</g>
</g>
<!-- Node21 -->
<g id="Node000021" class="node">
<title>Node21</title>
<g id="a_Node000021"><a xlink:title=" ">
<polygon fill="#e0e0e0" stroke="#999999" points="406.5,-19 337.5,-19 337.5,0 406.5,0 406.5,-19"/>
<text text-anchor="middle" x="372" y="-7" font-family="Helvetica,sans-Serif" font-size="10.00">arpa/inet.h</text>
</a>
</g>
</g>
<!-- Node20&#45;&gt;Node21 -->
<g id="edge23_Node000020_Node000021" class="edge">
<title>Node20&#45;&gt;Node21</title>
<g id="a_edge23_Node000020_Node000021"><a xlink:title=" ">
<path fill="none" stroke="#63b8ff" d="M389.53,-54.75C386.72,-47.65 382.66,-37.4 379.15,-28.56"/>
<polygon fill="#63b8ff" stroke="#63b8ff" points="382.34,-27.1 375.4,-19.09 375.83,-29.68 382.34,-27.1"/>
</a>
</g>
</g>
<!-- Node22 -->
<g id="Node000022" class="node">
<title>Node22</title>
<g id="a_Node000022"><a xlink:title=" ">
<polygon fill="#e0e0e0" stroke="#999999" points="475.5,-19 424.5,-19 424.5,0 475.5,0 475.5,-19"/>
<text text-anchor="middle" x="450" y="-7" font-family="Helvetica,sans-Serif" font-size="10.00">errno.h</text>
</a>
</g>
</g>
<!-- Node20&#45;&gt;Node22 -->
<g id="edge25_Node000020_Node000022" class="edge">
<title>Node20&#45;&gt;Node22</title>
<g id="a_edge25_Node000020_Node000022"><a xlink:title=" ">
<path fill="none" stroke="#63b8ff" d="M402.16,-54.98C410.5,-47.23 423.03,-35.58 433.18,-26.14"/>
<polygon fill="#63b8ff" stroke="#63b8ff" points="435.74,-28.54 440.68,-19.17 430.97,-23.42 435.74,-28.54"/>
</a>
</g>
</g>
<!-- Node23 -->
<g id="Node000023" class="node">
<title>Node23</title>
<g id="a_Node000023"><a xlink:title=" ">
<polygon fill="#e0e0e0" stroke="#999999" points="566,-19 494,-19 494,0 566,0 566,-19"/>
<text text-anchor="middle" x="530" y="-7" font-family="Helvetica,sans-Serif" font-size="10.00">netinet/in.h</text>
</a>
</g>
</g>
<!-- Node20&#45;&gt;Node23 -->
<g id="edge26_Node000020_Node000023" class="edge">
<title>Node20&#45;&gt;Node23</title>
<g id="a_edge26_Node000020_Node000023"><a xlink:title=" ">
<path fill="none" stroke="#63b8ff" d="M415.01,-54.98C437.45,-46.3 472.48,-32.75 497.99,-22.88"/>
<polygon fill="#63b8ff" stroke="#63b8ff" points="499.52,-26.04 507.59,-19.17 497,-19.51 499.52,-26.04"/>
</a>
</g>
</g>
<!-- Node24 -->
<g id="Node000024" class="node">
<title>Node24</title>
<g id="a_Node000024"><a xlink:title=" ">
<polygon fill="#e0e0e0" stroke="#999999" points="662,-19 584,-19 584,0 662,0 662,-19"/>
<text text-anchor="middle" x="623" y="-7" font-family="Helvetica,sans-Serif" font-size="10.00">netinet/tcp.h</text>
</a>
</g>
</g>
<!-- Node20&#45;&gt;Node24 -->
<g id="edge27_Node000020_Node000024" class="edge">
<title>Node20&#45;&gt;Node24</title>
<g id="a_edge27_Node000020_Node000024"><a xlink:title=" ">
<path fill="none" stroke="#63b8ff" d="M429.7,-55.04C469.38,-45.9 532.76,-31.29 576.05,-21.32"/>
<polygon fill="#63b8ff" stroke="#63b8ff" points="577.09,-24.67 586.05,-19.01 575.52,-17.85 577.09,-24.67"/>
</a>
</g>
</g>
<!-- Node25 -->
<g id="Node000025" class="node">
<title>Node25</title>
<g id="a_Node000025"><a xlink:title=" ">
<polygon fill="#e0e0e0" stroke="#999999" points="169.5,-19 92.5,-19 92.5,0 169.5,0 169.5,-19"/>
<text text-anchor="middle" x="131" y="-7" font-family="Helvetica,sans-Serif" font-size="10.00">sys/socket.h</text>
</a>
</g>
</g>
<!-- Node20&#45;&gt;Node25 -->
<g id="edge29_Node000020_Node000025" class="edge">
<title>Node20&#45;&gt;Node25</title>
<g id="a_edge29_Node000020_Node000025"><a xlink:title=" ">
<path fill="none" stroke="#63b8ff" d="M356.29,-56.07C310.08,-46.73 230.57,-30.64 179.42,-20.3"/>
<polygon fill="#63b8ff" stroke="#63b8ff" points="180.08,-16.86 169.59,-18.31 178.69,-23.72 180.08,-16.86"/>
</a>
</g>
</g>
<!-- Node26 -->
<g id="Node000026" class="node">
<title>Node26</title>
<g id="a_Node000026"><a xlink:title=" ">
<polygon fill="#e0e0e0" stroke="#999999" points="244.5,-19 187.5,-19 187.5,0 244.5,0 244.5,-19"/>
<text text-anchor="middle" x="216" y="-7" font-family="Helvetica,sans-Serif" font-size="10.00">sys/un.h</text>
</a>
</g>
</g>
<!-- Node20&#45;&gt;Node26 -->
<g id="edge30_Node000020_Node000026" class="edge">
<title>Node20&#45;&gt;Node26</title>
<g id="a_edge30_Node000020_Node000026"><a xlink:title=" ">
<path fill="none" stroke="#63b8ff" d="M364.56,-54.98C334.72,-46.05 287.62,-31.94 254.47,-22.02"/>
<polygon fill="#63b8ff" stroke="#63b8ff" points="255.24,-18.6 244.66,-19.08 253.24,-25.3 255.24,-18.6"/>
</a>
</g>
</g>
<!-- Node27 -->
<g id="Node000027" class="node">
<title>Node27</title>
<g id="a_Node000027"><a xlink:title=" ">
<polygon fill="#e0e0e0" stroke="#999999" points="319,-19 263,-19 263,0 319,0 319,-19"/>
<text text-anchor="middle" x="291" y="-7" font-family="Helvetica,sans-Serif" font-size="10.00">unistd.h</text>
</a>
</g>
</g>
<!-- Node20&#45;&gt;Node27 -->
<g id="edge31_Node000020_Node000027" class="edge">
<title>Node20&#45;&gt;Node27</title>
<g id="a_edge31_Node000020_Node000027"><a xlink:title=" ">
<path fill="none" stroke="#63b8ff" d="M376.61,-54.98C360.43,-46.57 335.43,-33.59 316.62,-23.81"/>
<polygon fill="#63b8ff" stroke="#63b8ff" points="318.17,-20.68 307.69,-19.17 314.95,-26.89 318.17,-20.68"/>
</a>
</g>
</g>
<!-- Node28&#45;&gt;Node8 -->
<g id="edge35_Node000028_Node000008" class="edge">
<title>Node28&#45;&gt;Node8</title>
<g id="a_edge35_Node000028_Node000008"><a xlink:title=" ">
<path fill="none" stroke="#63b8ff" d="M909.74,-170.37C901.22,-161.47 887.74,-147.39 877.27,-136.45"/>
<polygon fill="#63b8ff" stroke="#63b8ff" points="879.74,-133.97 870.3,-129.17 874.68,-138.81 879.74,-133.97"/>
</a>
</g>
</g>
<!-- Node28&#45;&gt;Node9 -->
<g id="edge34_Node000028_Node000009" class="edge">
<title>Node28&#45;&gt;Node9</title>
<g id="a_edge34_Node000028_Node000009"><a xlink:title=" ">
<path fill="none" stroke="#63b8ff" d="M938.36,-170.49C962,-160.62 1001.2,-144.23 1028.25,-132.93"/>
<polygon fill="#63b8ff" stroke="#63b8ff" points="1029.74,-136.1 1037.62,-129.02 1027.04,-129.64 1029.74,-136.1"/>
</a>
</g>
</g>
<!-- Node28&#45;&gt;Node14 -->
<g id="edge36_Node000028_Node000014" class="edge">
<title>Node28&#45;&gt;Node14</title>
<g id="a_edge36_Node000028_Node000014"><a xlink:title=" ">
<path fill="none" stroke="#63b8ff" d="M917.2,-170.36C915.47,-156.21 910.22,-127.89 895,-110 853.56,-61.3 782.21,-33.16 739.74,-19.92"/>
<polygon fill="#63b8ff" stroke="#63b8ff" points="740.69,-16.55 730.11,-17.01 738.67,-23.25 740.69,-16.55"/>
</a>
</g>
</g>
<!-- Node29&#45;&gt;Node4 -->
<g id="edge43_Node000029_Node000004" class="edge">
<title>Node29&#45;&gt;Node4</title>
<g id="a_edge43_Node000029_Node000004"><a xlink:title=" ">
<path fill="none" stroke="#63b8ff" d="M1359.39,-236.48C1413.48,-223.62 1501.5,-193.55 1541,-129 1549.95,-114.37 1541.17,-95.73 1531.99,-82.44"/>
<polygon fill="#63b8ff" stroke="#63b8ff" points="1534.6,-80.09 1525.79,-74.21 1529.01,-84.3 1534.6,-80.09"/>
</a>
</g>
</g>
<!-- Node29&#45;&gt;Node5 -->
<g id="edge45_Node000029_Node000005" class="edge">
<title>Node29&#45;&gt;Node5</title>
<g id="a_edge45_Node000029_Node000005"><a xlink:title=" ">
<path fill="none" stroke="#63b8ff" d="M1336.06,-236.47C1353.13,-228.55 1375.56,-214.96 1386,-195 1405.42,-157.88 1381.42,-108.56 1365.66,-82.81"/>
<polygon fill="#63b8ff" stroke="#63b8ff" points="1368.47,-80.71 1360.13,-74.18 1362.58,-84.49 1368.47,-80.71"/>
</a>
</g>
</g>
<!-- Node29&#45;&gt;Node11 -->
<g id="edge44_Node000029_Node000011" class="edge">
<title>Node29&#45;&gt;Node11</title>
<g id="a_edge44_Node000029_Node000011"><a xlink:title=" ">
<path fill="none" stroke="#63b8ff" d="M1292.24,-236.39C1275.4,-228.42 1253.28,-214.81 1243,-195 1236.86,-183.16 1237.31,-177.06 1243,-165 1249.01,-152.26 1260.66,-141.92 1271.61,-134.44"/>
<polygon fill="#63b8ff" stroke="#63b8ff" points="1273.54,-137.36 1280.11,-129.05 1269.79,-131.44 1273.54,-137.36"/>
</a>
</g>
</g>
<!-- Node30 -->
<g id="Node000030" class="node">
<title>Node30</title>
<g id="a_Node000030"><a xlink:href="Graphic_8hpp.html" target="_top" xlink:title=" ">
<polygon fill="white" stroke="#666666" points="1376.5,-189.5 1251.5,-189.5 1251.5,-170.5 1376.5,-170.5 1376.5,-189.5"/>
<text text-anchor="middle" x="1314" y="-177.5" font-family="Helvetica,sans-Serif" font-size="10.00">../Graphic/Graphic.hpp</text>
</a>
</g>
</g>
<!-- Node29&#45;&gt;Node30 -->
<g id="edge39_Node000029_Node000030" class="edge">
<title>Node29&#45;&gt;Node30</title>
<g id="a_edge39_Node000029_Node000030"><a xlink:title=" ">
<path fill="none" stroke="#63b8ff" d="M1314,-236.37C1314,-227.16 1314,-212.29 1314,-200.27"/>
<polygon fill="#63b8ff" stroke="#63b8ff" points="1317.5,-199.91 1314,-189.91 1310.5,-199.91 1317.5,-199.91"/>
</a>
</g>
</g>
<!-- Node30&#45;&gt;Node3 -->
<g id="edge40_Node000030_Node000003" class="edge">
<title>Node30&#45;&gt;Node3</title>
<g id="a_edge40_Node000030_Node000003"><a xlink:title=" ">
<path fill="none" stroke="#63b8ff" d="M1337.56,-170.49C1365.27,-160.49 1411.47,-143.8 1442.81,-132.49"/>
<polygon fill="#63b8ff" stroke="#63b8ff" points="1444.2,-135.71 1452.42,-129.02 1441.82,-129.12 1444.2,-135.71"/>
</a>
</g>
</g>
<!-- Node30&#45;&gt;Node5 -->
<g id="edge42_Node000030_Node000005" class="edge">
<title>Node30&#45;&gt;Node5</title>
<g id="a_edge42_Node000030_Node000005"><a xlink:title=" ">
<path fill="none" stroke="#63b8ff" d="M1318.01,-170.26C1322.46,-160.37 1329.73,-143.71 1335,-129 1340.35,-114.09 1345.44,-96.85 1349,-84.1"/>
<polygon fill="#63b8ff" stroke="#63b8ff" points="1352.44,-84.79 1351.71,-74.22 1345.69,-82.94 1352.44,-84.79"/>
</a>
</g>
</g>
<!-- Node30&#45;&gt;Node11 -->
<g id="edge41_Node000030_Node000011" class="edge">
<title>Node30&#45;&gt;Node11</title>
<g id="a_edge41_Node000030_Node000011"><a xlink:title=" ">
<path fill="none" stroke="#63b8ff" d="M1311.49,-170.37C1309.11,-162.16 1305.44,-149.54 1302.39,-139.05"/>
<polygon fill="#63b8ff" stroke="#63b8ff" points="1305.67,-137.79 1299.52,-129.17 1298.95,-139.75 1305.67,-137.79"/>
</a>
</g>
</g>
</g>
</svg>
