<?xml version="1.0" encoding="UTF-8" standalone="no"?>
<!DOCTYPE svg PUBLIC "-//W3C//DTD SVG 1.1//EN"
 "http://www.w3.org/Graphics/SVG/1.1/DTD/svg11.dtd">
<!-- Generated by graphviz version 2.43.0 (0)
 -->
<!-- Title: graphical&#45;client/ecs/Components.hpp Pages: 1 -->
<svg width="258pt" height="203pt"
 viewBox="0.00 0.00 257.63 203.00" xmlns="http://www.w3.org/2000/svg" xmlns:xlink="http://www.w3.org/1999/xlink">
<g id="graph0" class="graph" transform="scale(1 1) rotate(0) translate(4 199)">
<title>graphical&#45;client/ecs/Components.hpp</title>
<!-- Node1 -->
<g id="Node000001" class="node">
<title>Node1</title>
<g id="a_Node000001"><a xlink:title=" ">
<polygon fill="#999999" stroke="#666666" points="216,-195 104,-195 104,-165 216,-165 216,-195"/>
<text text-anchor="start" x="112" y="-183" font-family="Helvetica,sans-Serif" font-size="10.00">graphical&#45;client/ecs</text>
<text text-anchor="middle" x="160" y="-172" font-family="Helvetica,sans-Serif" font-size="10.00">/Components.hpp</text>
</a>
</g>
</g>
<!-- Node2 -->
<g id="Node000002" class="node">
<title>Node2</title>
<g id="a_Node000002"><a xlink:href="Graphic_8hpp.html" target="_top" xlink:title=" ">
<polygon fill="white" stroke="#666666" points="171.5,-129 46.5,-129 46.5,-110 171.5,-110 171.5,-129"/>
<text text-anchor="middle" x="109" y="-117" font-family="Helvetica,sans-Serif" font-size="10.00">../Graphic/Graphic.hpp</text>
</a>
</g>
</g>
<!-- Node1&#45;&gt;Node2 -->
<g id="edge1_Node000001_Node000002" class="edge">
<title>Node1&#45;&gt;Node2</title>
<g id="a_edge1_Node000001_Node000002"><a xlink:title=" ">
<path fill="none" stroke="#63b8ff" d="M147.65,-164.84C140.33,-156.43 131,-145.74 123.35,-136.96"/>
<polygon fill="#63b8ff" stroke="#63b8ff" points="125.85,-134.5 116.64,-129.27 120.58,-139.1 125.85,-134.5"/>
</a>
</g>
</g>
<!-- Node4 -->
<g id="Node000004" class="node">
<title>Node4</title>
<g id="a_Node000004"><a xlink:title=" ">
<polygon fill="#e0e0e0" stroke="#999999" points="212.5,-19 159.5,-19 159.5,0 212.5,0 212.5,-19"/>
<text text-anchor="middle" x="186" y="-7" font-family="Helvetica,sans-Serif" font-size="10.00">raylib.h</text>
</a>
</g>
</g>
<!-- Node1&#45;&gt;Node4 -->
<g id="edge7_Node000001_Node000004" class="edge">
<title>Node1&#45;&gt;Node4</title>
<g id="a_edge7_Node000001_Node000004"><a xlink:title=" ">
<path fill="none" stroke="#63b8ff" d="M177.49,-164.88C198.67,-146.54 233.19,-112.31 247,-74 249.86,-66.06 250.83,-62.53 247,-55 240.23,-41.68 227.4,-31.41 215.25,-24.1"/>
<polygon fill="#63b8ff" stroke="#63b8ff" points="216.64,-20.87 206.2,-19.09 213.25,-26.99 216.64,-20.87"/>
</a>
</g>
</g>
<!-- Node5 -->
<g id="Node000005" class="node">
<title>Node5</title>
<g id="a_Node000005"><a xlink:title=" ">
<polygon fill="#e0e0e0" stroke="#999999" points="44,-19 0,-19 0,0 44,0 44,-19"/>
<text text-anchor="middle" x="22" y="-7" font-family="Helvetica,sans-Serif" font-size="10.00">string</text>
</a>
</g>
</g>
<!-- Node1&#45;&gt;Node5 -->
<g id="edge9_Node000001_Node000005" class="edge">
<title>Node1&#45;&gt;Node5</title>
<g id="a_edge9_Node000001_Node000005"><a xlink:title=" ">
<path fill="none" stroke="#63b8ff" d="M103.88,-168.54C80.19,-161.3 54.35,-149.19 38,-129 14.88,-100.46 16.08,-54.78 19.02,-29.27"/>
<polygon fill="#63b8ff" stroke="#63b8ff" points="22.52,-29.49 20.41,-19.11 15.59,-28.54 22.52,-29.49"/>
</a>
</g>
</g>
<!-- Node6 -->
<g id="Node000006" class="node">
<title>Node6</title>
<g id="a_Node000006"><a xlink:title=" ">
<polygon fill="#e0e0e0" stroke="#999999" points="238,-74 180,-74 180,-55 238,-55 238,-74"/>
<text text-anchor="middle" x="209" y="-62" font-family="Helvetica,sans-Serif" font-size="10.00">memory</text>
</a>
</g>
</g>
<!-- Node1&#45;&gt;Node6 -->
<g id="edge8_Node000001_Node000006" class="edge">
<title>Node1&#45;&gt;Node6</title>
<g id="a_edge8_Node000001_Node000006"><a xlink:title=" ">
<path fill="none" stroke="#63b8ff" d="M166.21,-164.63C175.1,-144.03 191.46,-106.12 201.17,-83.63"/>
<polygon fill="#63b8ff" stroke="#63b8ff" points="204.48,-84.8 205.23,-74.23 198.05,-82.02 204.48,-84.8"/>
</a>
</g>
</g>
<!-- Node3 -->
<g id="Node000003" class="node">
<title>Node3</title>
<g id="a_Node000003"><a xlink:href="Raylib_8hpp.html" target="_top" xlink:title=" ">
<polygon fill="white" stroke="#666666" points="161.5,-74 50.5,-74 50.5,-55 161.5,-55 161.5,-74"/>
<text text-anchor="middle" x="106" y="-62" font-family="Helvetica,sans-Serif" font-size="10.00">../Raylib/Raylib.hpp</text>
</a>
</g>
</g>
<!-- Node2&#45;&gt;Node3 -->
<g id="edge2_Node000002_Node000003" class="edge">
<title>Node2&#45;&gt;Node3</title>
<g id="a_edge2_Node000002_Node000003"><a xlink:title=" ">
<path fill="none" stroke="#63b8ff" d="M108.5,-109.75C108.11,-102.8 107.55,-92.85 107.05,-84.13"/>
<polygon fill="#63b8ff" stroke="#63b8ff" points="110.55,-83.88 106.49,-74.09 103.56,-84.27 110.55,-83.88"/>
</a>
</g>
</g>
<!-- Node2&#45;&gt;Node5 -->
<g id="edge6_Node000002_Node000005" class="edge">
<title>Node2&#45;&gt;Node5</title>
<g id="a_edge6_Node000002_Node000005"><a xlink:title=" ">
<path fill="none" stroke="#63b8ff" d="M89.31,-109.94C74.32,-102.48 54.25,-90.29 42,-74 32.12,-60.87 27.05,-42.73 24.49,-29.2"/>
<polygon fill="#63b8ff" stroke="#63b8ff" points="27.91,-28.46 22.88,-19.14 21,-29.56 27.91,-28.46"/>
</a>
</g>
</g>
<!-- Node2&#45;&gt;Node6 -->
<g id="edge5_Node000002_Node000006" class="edge">
<title>Node2&#45;&gt;Node6</title>
<g id="a_edge5_Node000002_Node000006"><a xlink:title=" ">
<path fill="none" stroke="#63b8ff" d="M125.07,-109.98C140.86,-101.61 165.22,-88.7 183.63,-78.95"/>
<polygon fill="#63b8ff" stroke="#63b8ff" points="185.44,-81.95 192.64,-74.17 182.17,-75.76 185.44,-81.95"/>
</a>
</g>
</g>
<!-- Node3&#45;&gt;Node4 -->
<g id="edge3_Node000003_Node000004" class="edge">
<title>Node3&#45;&gt;Node4</title>
<g id="a_edge3_Node000003_Node000004"><a xlink:title=" ">
<path fill="none" stroke="#63b8ff" d="M118.85,-54.98C131.14,-46.84 149.91,-34.41 164.48,-24.76"/>
<polygon fill="#63b8ff" stroke="#63b8ff" points="166.51,-27.61 172.91,-19.17 162.64,-21.78 166.51,-27.61"/>
</a>
</g>
</g>
<!-- Node3&#45;&gt;Node5 -->
<g id="edge4_Node000003_Node000005" class="edge">
<title>Node3&#45;&gt;Node5</title>
<g id="a_edge4_Node000003_Node000005"><a xlink:title=" ">
<path fill="none" stroke="#63b8ff" d="M92.5,-54.98C79.6,-46.84 59.9,-34.41 44.6,-24.76"/>
<polygon fill="#63b8ff" stroke="#63b8ff" points="46.07,-21.55 35.74,-19.17 42.33,-27.47 46.07,-21.55"/>
</a>
</g>
</g>
</g>
</svg>
