<?xml version="1.0" encoding="UTF-8" standalone="no"?>
<!DOCTYPE svg PUBLIC "-//W3C//DTD SVG 1.1//EN"
 "http://www.w3.org/Graphics/SVG/1.1/DTD/svg11.dtd">
<!-- Generated by graphviz version 2.43.0 (0)
 -->
<!-- Title: graphical&#45;client Pages: 1 -->
<svg width="292pt" height="224pt"
 viewBox="0.00 0.00 292.00 224.00" xmlns="http://www.w3.org/2000/svg" xmlns:xlink="http://www.w3.org/1999/xlink">
<g id="graph0" class="graph" transform="scale(1 1) rotate(0) translate(4 220)">
<title>graphical&#45;client</title>
<g id="clust1" class="cluster">
<title>clusterdir_e7958bc4a951510a578029734ca89fee</title>
<g id="a_clust1"><a xlink:href="dir_e7958bc4a951510a578029734ca89fee.html" target="_top">
<polygon fill="#edf0f7" stroke="#404040" stroke-width="2" points="8,-8 8,-208 218,-208 218,-8 8,-8"/>
</a>
</g>
</g>
<!-- dir_e7958bc4a951510a578029734ca89fee -->
<g id="node1" class="node">
<title>dir_e7958bc4a951510a578029734ca89fee</title>
<text text-anchor="middle" x="164" y="-188" font-family="Helvetica,sans-Serif" font-size="10.00">graphical&#45;client</text>
</g>
<!-- dir_f8129dbd3ae2d3b72ab062d666ff244a -->
<g id="node2" class="node">
<title>dir_f8129dbd3ae2d3b72ab062d666ff244a</title>
<g id="a_node2"><a xlink:href="dir_f8129dbd3ae2d3b72ab062d666ff244a.html" target="_top" xlink:title="ecs">
<polygon fill="#a2b4d6" stroke="#404040" points="143.5,-145 110.5,-145 110.5,-126 143.5,-126 143.5,-145"/>
<text text-anchor="middle" x="127" y="-133" font-family="Helvetica,sans-Serif" font-size="10.00">ecs</text>
</a>
</g>
</g>
<!-- dir_b872c0e105a2fc8b4ed88fdf8fe97baa -->
<g id="node3" class="node">
<title>dir_b872c0e105a2fc8b4ed88fdf8fe97baa</title>
<g id="a_node3"><a xlink:href="dir_b872c0e105a2fc8b4ed88fdf8fe97baa.html" target="_top" xlink:title="Graphic">
<polygon fill="#a2b4d6" stroke="#404040" points="131,-90 77,-90 77,-71 131,-71 131,-90"/>
<text text-anchor="middle" x="104" y="-78" font-family="Helvetica,sans-Serif" font-size="10.00">Graphic</text>
</a>
</g>
</g>
<!-- dir_f8129dbd3ae2d3b72ab062d666ff244a&#45;&gt;dir_b872c0e105a2fc8b4ed88fdf8fe97baa -->
<g id="edge3" class="edge">
<title>dir_f8129dbd3ae2d3b72ab062d666ff244a&#45;&gt;dir_b872c0e105a2fc8b4ed88fdf8fe97baa</title>
<g id="a_edge3"><a xlink:href="dir_000001_000002.html" target="_top">
<path fill="none" stroke="#63b8ff" d="M123.2,-125.75C120.09,-118.57 115.58,-108.18 111.71,-99.27"/>
<polygon fill="#63b8ff" stroke="#63b8ff" points="114.92,-97.87 107.73,-90.09 108.5,-100.66 114.92,-97.87"/>
</a>
</g>
<g id="a_edge3&#45;headlabel"><a xlink:href="dir_000001_000002.html" target="_top" xlink:title="1">
<text text-anchor="middle" x="118.95" y="-97.54" font-family="Helvetica,sans-Serif" font-size="10.00" fill="#63b8ff">1</text>
</a>
</g>
</g>
<!-- dir_a77af5e100df803ce29cdf5c84f97a20 -->
<g id="node5" class="node">
<title>dir_a77af5e100df803ce29cdf5c84f97a20</title>
<g id="a_node5"><a xlink:href="dir_a77af5e100df803ce29cdf5c84f97a20.html" target="_top" xlink:title="Raylib">
<polygon fill="#a2b4d6" stroke="#404040" points="127.5,-35 80.5,-35 80.5,-16 127.5,-16 127.5,-35"/>
<text text-anchor="middle" x="104" y="-23" font-family="Helvetica,sans-Serif" font-size="10.00">Raylib</text>
</a>
</g>
</g>
<!-- dir_f8129dbd3ae2d3b72ab062d666ff244a&#45;&gt;dir_a77af5e100df803ce29cdf5c84f97a20 -->
<g id="edge2" class="edge">
<title>dir_f8129dbd3ae2d3b72ab062d666ff244a&#45;&gt;dir_a77af5e100df803ce29cdf5c84f97a20</title>
<g id="a_edge2"><a xlink:href="dir_000001_000006.html" target="_top">
<path fill="none" stroke="#63b8ff" d="M131.75,-125.67C137.79,-113.21 146.68,-89.88 140,-71 136.25,-60.41 128.79,-50.49 121.63,-42.71"/>
<polygon fill="#63b8ff" stroke="#63b8ff" points="123.69,-39.82 114.16,-35.19 118.72,-44.76 123.69,-39.82"/>
</a>
</g>
<g id="a_edge2&#45;headlabel"><a xlink:href="dir_000001_000006.html" target="_top" xlink:title="1">
<text text-anchor="middle" x="128.24" y="-37.88" font-family="Helvetica,sans-Serif" font-size="10.00" fill="#63b8ff">1</text>
</a>
</g>
</g>
<!-- dir_356d85c7fe3a31f6238a1e4b453e8aed -->
<g id="node6" class="node">
<title>dir_356d85c7fe3a31f6238a1e4b453e8aed</title>
<g id="a_node6"><a xlink:href="dir_356d85c7fe3a31f6238a1e4b453e8aed.html" target="_top" xlink:title="Network">
<polygon fill="#edf0f7" stroke="red" points="284,-90 226,-90 226,-71 284,-71 284,-90"/>
<text text-anchor="middle" x="255" y="-78" font-family="Helvetica,sans-Serif" font-size="10.00">Network</text>
</a>
</g>
</g>
<!-- dir_f8129dbd3ae2d3b72ab062d666ff244a&#45;&gt;dir_356d85c7fe3a31f6238a1e4b453e8aed -->
<g id="edge1" class="edge">
<title>dir_f8129dbd3ae2d3b72ab062d666ff244a&#45;&gt;dir_356d85c7fe3a31f6238a1e4b453e8aed</title>
<g id="a_edge1"><a xlink:href="dir_000001_000005.html" target="_top">
<path fill="none" stroke="#63b8ff" d="M143.73,-127.57C164.31,-119.05 199.62,-104.43 224.95,-93.94"/>
<polygon fill="#63b8ff" stroke="#63b8ff" points="226.55,-97.07 234.45,-90.01 223.87,-90.6 226.55,-97.07"/>
</a>
</g>
<g id="a_edge1&#45;headlabel"><a xlink:href="dir_000001_000005.html" target="_top" xlink:title="1">
<text text-anchor="middle" x="224.32" y="-98.57" font-family="Helvetica,sans-Serif" font-size="10.00" fill="#63b8ff">1</text>
</a>
</g>
</g>
<!-- dir_b872c0e105a2fc8b4ed88fdf8fe97baa&#45;&gt;dir_a77af5e100df803ce29cdf5c84f97a20 -->
<g id="edge4" class="edge">
<title>dir_b872c0e105a2fc8b4ed88fdf8fe97baa&#45;&gt;dir_a77af5e100df803ce29cdf5c84f97a20</title>
<g id="a_edge4"><a xlink:href="dir_000002_000006.html" target="_top">
<path fill="none" stroke="#63b8ff" d="M104,-70.75C104,-63.8 104,-53.85 104,-45.13"/>
<polygon fill="#63b8ff" stroke="#63b8ff" points="107.5,-45.09 104,-35.09 100.5,-45.09 107.5,-45.09"/>
</a>
</g>
<g id="a_edge4&#45;headlabel"><a xlink:href="dir_000002_000006.html" target="_top" xlink:title="1">
<text text-anchor="middle" x="110.34" y="-46.18" font-family="Helvetica,sans-Serif" font-size="10.00" fill="#63b8ff">1</text>
</a>
</g>
</g>
<!-- dir_d7b089d80e197b7173c130d051c7dd95 -->
<g id="node4" class="node">
<title>dir_d7b089d80e197b7173c130d051c7dd95</title>
<g id="a_node4"><a xlink:href="dir_d7b089d80e197b7173c130d051c7dd95.html" target="_top" xlink:title="GraphicClient">
<polygon fill="#a2b4d6" stroke="#404040" points="99.5,-200 16.5,-200 16.5,-181 99.5,-181 99.5,-200"/>
<text text-anchor="middle" x="58" y="-188" font-family="Helvetica,sans-Serif" font-size="10.00">GraphicClient</text>
</a>
</g>
</g>
<!-- dir_d7b089d80e197b7173c130d051c7dd95&#45;&gt;dir_f8129dbd3ae2d3b72ab062d666ff244a -->
<g id="edge7" class="edge">
<title>dir_d7b089d80e197b7173c130d051c7dd95&#45;&gt;dir_f8129dbd3ae2d3b72ab062d666ff244a</title>
<g id="a_edge7"><a xlink:href="dir_000004_000001.html" target="_top">
<path fill="none" stroke="#63b8ff" d="M69.09,-180.98C79.49,-173 95.26,-160.88 107.72,-151.31"/>
<polygon fill="#63b8ff" stroke="#63b8ff" points="109.91,-154.04 115.71,-145.17 105.65,-148.49 109.91,-154.04"/>
</a>
</g>
<g id="a_edge7&#45;headlabel"><a xlink:href="dir_000004_000001.html" target="_top" xlink:title="3">
<text text-anchor="middle" x="108.79" y="-155.98" font-family="Helvetica,sans-Serif" font-size="10.00" fill="#63b8ff">3</text>
</a>
</g>
</g>
<!-- dir_d7b089d80e197b7173c130d051c7dd95&#45;&gt;dir_a77af5e100df803ce29cdf5c84f97a20 -->
<g id="edge6" class="edge">
<title>dir_d7b089d80e197b7173c130d051c7dd95&#45;&gt;dir_a77af5e100df803ce29cdf5c84f97a20</title>
<g id="a_edge6"><a xlink:href="dir_000004_000006.html" target="_top">
<path fill="none" stroke="#63b8ff" d="M57.04,-180.77C55.18,-160.6 52.52,-109.5 68,-71 72.24,-60.46 79.87,-50.46 87.01,-42.62"/>
<polygon fill="#63b8ff" stroke="#63b8ff" points="89.67,-44.91 94.13,-35.3 84.65,-40.03 89.67,-44.91"/>
</a>
</g>
<g id="a_edge6&#45;headlabel"><a xlink:href="dir_000004_000006.html" target="_top" xlink:title="1">
<text text-anchor="middle" x="89.2" y="-46.97" font-family="Helvetica,sans-Serif" font-size="10.00" fill="#63b8ff">1</text>
</a>
</g>
</g>
<!-- dir_d7b089d80e197b7173c130d051c7dd95&#45;&gt;dir_356d85c7fe3a31f6238a1e4b453e8aed -->
<g id="edge5" class="edge">
<title>dir_d7b089d80e197b7173c130d051c7dd95&#45;&gt;dir_356d85c7fe3a31f6238a1e4b453e8aed</title>
<g id="a_edge5"><a xlink:href="dir_000004_000005.html" target="_top">
<path fill="none" stroke="#63b8ff" d="M77.99,-180.97C97.45,-172.46 127.71,-158.73 153,-145 181.77,-129.38 213.61,-109.04 233.93,-95.64"/>
<polygon fill="#63b8ff" stroke="#63b8ff" points="236.01,-98.46 242.41,-90.02 232.14,-92.63 236.01,-98.46"/>
</a>
</g>
<g id="a_edge5&#45;headlabel"><a xlink:href="dir_000004_000005.html" target="_top" xlink:title="2">
<text text-anchor="middle" x="234.59" y="-100.32" font-family="Helvetica,sans-Serif" font-size="10.00" fill="#63b8ff">2</text>
</a>
</g>
</g>
</g>
</svg>
