<?xml version="1.0" encoding="UTF-8" standalone="no"?>
<!DOCTYPE svg PUBLIC "-//W3C//DTD SVG 1.1//EN"
 "http://www.w3.org/Graphics/SVG/1.1/DTD/svg11.dtd">
<!-- Generated by graphviz version 2.43.0 (0)
 -->
<!-- Title: /home/loic/EPITECH/rtype/Mystic&#45;Type/game.cpp Pages: 1 -->
<svg width="1298pt" height="379pt"
 viewBox="0.00 0.00 1297.89 379.00" xmlns="http://www.w3.org/2000/svg" xmlns:xlink="http://www.w3.org/1999/xlink">
<g id="graph0" class="graph" transform="scale(1 1) rotate(0) translate(4 375)">
<title>/home/loic/EPITECH/rtype/Mystic&#45;Type/game.cpp</title>
<!-- Node1 -->
<g id="Node000001" class="node">
<title>Node1</title>
<g id="a_Node000001"><a xlink:title=" ">
<polygon fill="#999999" stroke="#666666" points="1100.39,-371 943.39,-371 943.39,-341 1100.39,-341 1100.39,-371"/>
<text text-anchor="start" x="951.39" y="-359" font-family="Helvetica,sans-Serif" font-size="10.00">/home/loic/EPITECH</text>
<text text-anchor="middle" x="1021.89" y="-348" font-family="Helvetica,sans-Serif" font-size="10.00">/rtype/Mystic&#45;Type/game.cpp</text>
</a>
</g>
</g>
<!-- Node2 -->
<g id="Node000002" class="node">
<title>Node2</title>
<g id="a_Node000002"><a xlink:href="UDPGameServer_8hpp.html" target="_top" xlink:title=" ">
<polygon fill="white" stroke="#666666" points="538.89,-305 388.89,-305 388.89,-275 538.89,-275 538.89,-305"/>
<text text-anchor="start" x="396.89" y="-293" font-family="Helvetica,sans-Serif" font-size="10.00">src/Network/TransportLayer</text>
<text text-anchor="middle" x="463.89" y="-282" font-family="Helvetica,sans-Serif" font-size="10.00">/UDP/UDPGameServer.hpp</text>
</a>
</g>
</g>
<!-- Node1&#45;&gt;Node2 -->
<g id="edge1_Node000001_Node000002" class="edge">
<title>Node1&#45;&gt;Node2</title>
<g id="a_edge1_Node000001_Node000002"><a xlink:title=" ">
<path fill="none" stroke="#63b8ff" d="M943.13,-345.97C839.09,-334.03 656.52,-313.09 549.27,-300.79"/>
<polygon fill="#63b8ff" stroke="#63b8ff" points="549.47,-297.29 539.13,-299.63 548.67,-304.25 549.47,-297.29"/>
</a>
</g>
</g>
<!-- Node6 -->
<g id="Node000006" class="node">
<title>Node6</title>
<g id="a_Node000006"><a xlink:title=" ">
<polygon fill="#e0e0e0" stroke="#999999" points="892.89,-184 848.89,-184 848.89,-165 892.89,-165 892.89,-184"/>
<text text-anchor="middle" x="870.89" y="-172" font-family="Helvetica,sans-Serif" font-size="10.00">string</text>
</a>
</g>
</g>
<!-- Node1&#45;&gt;Node6 -->
<g id="edge50_Node000001_Node000006" class="edge">
<title>Node1&#45;&gt;Node6</title>
<g id="a_edge50_Node000001_Node000006"><a xlink:title=" ">
<path fill="none" stroke="#63b8ff" d="M1024.31,-340.88C1028.05,-314.03 1032.07,-255.15 1002.89,-220 996.29,-212.05 939.66,-194.88 902.75,-184.34"/>
<polygon fill="#63b8ff" stroke="#63b8ff" points="903.49,-180.92 892.92,-181.56 901.59,-187.65 903.49,-180.92"/>
</a>
</g>
</g>
<!-- Node11 -->
<g id="Node000011" class="node">
<title>Node11</title>
<g id="a_Node000011"><a xlink:title=" ">
<polygon fill="#e0e0e0" stroke="#999999" points="849.89,-239 801.89,-239 801.89,-220 849.89,-220 849.89,-239"/>
<text text-anchor="middle" x="825.89" y="-227" font-family="Helvetica,sans-Serif" font-size="10.00">thread</text>
</a>
</g>
</g>
<!-- Node1&#45;&gt;Node11 -->
<g id="edge54_Node000001_Node000011" class="edge">
<title>Node1&#45;&gt;Node11</title>
<g id="a_edge54_Node000001_Node000011"><a xlink:title=" ">
<path fill="none" stroke="#63b8ff" d="M999.79,-340.96C962.13,-317.04 885.96,-268.65 848.18,-244.66"/>
<polygon fill="#63b8ff" stroke="#63b8ff" points="849.76,-241.52 839.45,-239.11 846.01,-247.43 849.76,-241.52"/>
</a>
</g>
</g>
<!-- Node27 -->
<g id="Node000027" class="node">
<title>Node27</title>
<g id="a_Node000027"><a xlink:href="SessionManager_8hpp.html" target="_top" xlink:title=" ">
<polygon fill="white" stroke="#666666" points="707.39,-239 572.39,-239 572.39,-220 707.39,-220 707.39,-239"/>
<text text-anchor="middle" x="639.89" y="-227" font-family="Helvetica,sans-Serif" font-size="10.00">../../SessionManager.hpp</text>
</a>
</g>
</g>
<!-- Node1&#45;&gt;Node27 -->
<g id="edge47_Node000001_Node000027" class="edge">
<title>Node1&#45;&gt;Node27</title>
<g id="a_edge47_Node000001_Node000027"><a xlink:title=" ">
<path fill="none" stroke="#63b8ff" d="M978.81,-340.96C902.94,-316.23 746.81,-265.34 676.1,-242.3"/>
<polygon fill="#63b8ff" stroke="#63b8ff" points="676.9,-238.88 666.31,-239.11 674.73,-245.54 676.9,-238.88"/>
</a>
</g>
</g>
<!-- Node28 -->
<g id="Node000028" class="node">
<title>Node28</title>
<g id="a_Node000028"><a xlink:title=" ">
<polygon fill="#e0e0e0" stroke="#999999" points="966.89,-184 910.89,-184 910.89,-165 966.89,-165 966.89,-184"/>
<text text-anchor="middle" x="938.89" y="-172" font-family="Helvetica,sans-Serif" font-size="10.00">optional</text>
</a>
</g>
</g>
<!-- Node1&#45;&gt;Node28 -->
<g id="edge51_Node000001_Node000028" class="edge">
<title>Node1&#45;&gt;Node28</title>
<g id="a_edge51_Node000001_Node000028"><a xlink:title=" ">
<path fill="none" stroke="#63b8ff" d="M1028.84,-340.64C1040.44,-314.39 1060.19,-257.88 1035.89,-220 1022.94,-199.81 998.27,-188.65 977.05,-182.57"/>
<polygon fill="#63b8ff" stroke="#63b8ff" points="977.85,-179.16 967.29,-180.04 976.1,-185.93 977.85,-179.16"/>
</a>
</g>
</g>
<!-- Node30 -->
<g id="Node000030" class="node">
<title>Node30</title>
<g id="a_Node000030"><a xlink:href="IpcChannel_8hpp.html" target="_top" xlink:title=" ">
<polygon fill="white" stroke="#666666" points="993.39,-239 868.39,-239 868.39,-220 993.39,-220 993.39,-239"/>
<text text-anchor="middle" x="930.89" y="-227" font-family="Helvetica,sans-Serif" font-size="10.00">server/IpcChannel.hpp</text>
</a>
</g>
</g>
<!-- Node1&#45;&gt;Node30 -->
<g id="edge48_Node000001_Node000030" class="edge">
<title>Node1&#45;&gt;Node30</title>
<g id="a_edge48_Node000001_Node000030"><a xlink:title=" ">
<path fill="none" stroke="#63b8ff" d="M1011.45,-340.72C994.56,-317.61 961.32,-272.13 943.27,-247.43"/>
<polygon fill="#63b8ff" stroke="#63b8ff" points="945.88,-245.08 937.16,-239.07 940.23,-249.21 945.88,-245.08"/>
</a>
</g>
</g>
<!-- Node31 -->
<g id="Node000031" class="node">
<title>Node31</title>
<g id="a_Node000031"><a xlink:title=" ">
<polygon fill="#e0e0e0" stroke="#999999" points="1147.89,-299.5 1087.89,-299.5 1087.89,-280.5 1147.89,-280.5 1147.89,-299.5"/>
<text text-anchor="middle" x="1117.89" y="-287.5" font-family="Helvetica,sans-Serif" font-size="10.00">iostream</text>
</a>
</g>
</g>
<!-- Node1&#45;&gt;Node31 -->
<g id="edge49_Node000001_Node000031" class="edge">
<title>Node1&#45;&gt;Node31</title>
<g id="a_edge49_Node000001_Node000031"><a xlink:title=" ">
<path fill="none" stroke="#63b8ff" d="M1043.2,-340.8C1058.99,-330.27 1080.43,-315.97 1096.3,-305.4"/>
<polygon fill="#63b8ff" stroke="#63b8ff" points="1098.53,-308.12 1104.9,-299.66 1094.64,-302.29 1098.53,-308.12"/>
</a>
</g>
</g>
<!-- Node32 -->
<g id="Node000032" class="node">
<title>Node32</title>
<g id="a_Node000032"><a xlink:title=" ">
<polygon fill="#e0e0e0" stroke="#999999" points="1215.39,-299.5 1166.39,-299.5 1166.39,-280.5 1215.39,-280.5 1215.39,-299.5"/>
<text text-anchor="middle" x="1190.89" y="-287.5" font-family="Helvetica,sans-Serif" font-size="10.00">cstdlib</text>
</a>
</g>
</g>
<!-- Node1&#45;&gt;Node32 -->
<g id="edge52_Node000001_Node000032" class="edge">
<title>Node1&#45;&gt;Node32</title>
<g id="a_edge52_Node000001_Node000032"><a xlink:title=" ">
<path fill="none" stroke="#63b8ff" d="M1061.02,-340.93C1088.05,-331.11 1124.77,-317.56 1156.89,-305 1158.27,-304.46 1159.67,-303.91 1161.09,-303.34"/>
<polygon fill="#63b8ff" stroke="#63b8ff" points="1162.49,-306.55 1170.44,-299.56 1159.86,-300.06 1162.49,-306.55"/>
</a>
</g>
</g>
<!-- Node33 -->
<g id="Node000033" class="node">
<title>Node33</title>
<g id="a_Node000033"><a xlink:title=" ">
<polygon fill="#e0e0e0" stroke="#999999" points="1289.89,-299.5 1233.89,-299.5 1233.89,-280.5 1289.89,-280.5 1289.89,-299.5"/>
<text text-anchor="middle" x="1261.89" y="-287.5" font-family="Helvetica,sans-Serif" font-size="10.00">sstream</text>
</a>
</g>
</g>
<!-- Node1&#45;&gt;Node33 -->
<g id="edge53_Node000001_Node000033" class="edge">
<title>Node1&#45;&gt;Node33</title>
<g id="a_edge53_Node000001_Node000033"><a xlink:title=" ">
<path fill="none" stroke="#63b8ff" d="M1087.35,-340.98C1127.4,-331.89 1179.49,-319.12 1224.89,-305 1226.81,-304.4 1228.77,-303.76 1230.75,-303.09"/>
<polygon fill="#63b8ff" stroke="#63b8ff" points="1232.29,-306.25 1240.52,-299.58 1229.93,-299.66 1232.29,-306.25"/>
</a>
</g>
</g>
<!-- Node3 -->
<g id="Node000003" class="node">
<title>Node3</title>
<g id="a_Node000003"><a xlink:title=" ">
<polygon fill="#e0e0e0" stroke="#999999" points="456.39,-184 363.39,-184 363.39,-165 456.39,-165 456.39,-184"/>
<text text-anchor="middle" x="409.89" y="-172" font-family="Helvetica,sans-Serif" font-size="10.00">unordered_map</text>
</a>
</g>
</g>
<!-- Node2&#45;&gt;Node3 -->
<g id="edge2_Node000002_Node000003" class="edge">
<title>Node2&#45;&gt;Node3</title>
<g id="a_edge2_Node000002_Node000003"><a xlink:title=" ">
<path fill="none" stroke="#63b8ff" d="M448.84,-274.59C439.96,-265.25 429.26,-252.38 422.89,-239 416.16,-224.86 412.9,-207.32 411.34,-194.26"/>
<polygon fill="#63b8ff" stroke="#63b8ff" points="414.8,-193.74 410.35,-184.13 407.84,-194.42 414.8,-193.74"/>
</a>
</g>
</g>
<!-- Node4 -->
<g id="Node000004" class="node">
<title>Node4</title>
<g id="a_Node000004"><a xlink:title=" ">
<polygon fill="#e0e0e0" stroke="#999999" points="268.39,-129 221.39,-129 221.39,-110 268.39,-110 268.39,-129"/>
<text text-anchor="middle" x="244.89" y="-117" font-family="Helvetica,sans-Serif" font-size="10.00">vector</text>
</a>
</g>
</g>
<!-- Node2&#45;&gt;Node4 -->
<g id="edge3_Node000002_Node000004" class="edge">
<title>Node2&#45;&gt;Node4</title>
<g id="a_edge3_Node000002_Node000004"><a xlink:title=" ">
<path fill="none" stroke="#63b8ff" d="M388.65,-282.2C331.05,-275.26 258.42,-262.13 239.89,-239 216.91,-210.32 228.41,-164.02 237.48,-138.62"/>
<polygon fill="#63b8ff" stroke="#63b8ff" points="240.8,-139.71 241.11,-129.12 234.27,-137.21 240.8,-139.71"/>
</a>
</g>
</g>
<!-- Node5 -->
<g id="Node000005" class="node">
<title>Node5</title>
<g id="a_Node000005"><a xlink:title=" ">
<polygon fill="#e0e0e0" stroke="#999999" points="488.89,-239 438.89,-239 438.89,-220 488.89,-220 488.89,-239"/>
<text text-anchor="middle" x="463.89" y="-227" font-family="Helvetica,sans-Serif" font-size="10.00">chrono</text>
</a>
</g>
</g>
<!-- Node2&#45;&gt;Node5 -->
<g id="edge4_Node000002_Node000005" class="edge">
<title>Node2&#45;&gt;Node5</title>
<g id="a_edge4_Node000002_Node000005"><a xlink:title=" ">
<path fill="none" stroke="#63b8ff" d="M463.89,-274.84C463.89,-267.21 463.89,-257.7 463.89,-249.45"/>
<polygon fill="#63b8ff" stroke="#63b8ff" points="467.39,-249.27 463.89,-239.27 460.39,-249.27 467.39,-249.27"/>
</a>
</g>
</g>
<!-- Node2&#45;&gt;Node6 -->
<g id="edge5_Node000002_Node000006" class="edge">
<title>Node2&#45;&gt;Node6</title>
<g id="a_edge5_Node000002_Node000006"><a xlink:title=" ">
<path fill="none" stroke="#63b8ff" d="M539.02,-281.51C596.24,-274.4 676.4,-261.38 743.89,-239 782.28,-226.27 823.62,-203.78 848.36,-189.27"/>
<polygon fill="#63b8ff" stroke="#63b8ff" points="850.19,-192.25 856.99,-184.13 846.61,-186.24 850.19,-192.25"/>
</a>
</g>
</g>
<!-- Node7 -->
<g id="Node000007" class="node">
<title>Node7</title>
<g id="a_Node000007"><a xlink:title=" ">
<polygon fill="#e0e0e0" stroke="#999999" points="554.39,-239 507.39,-239 507.39,-220 554.39,-220 554.39,-239"/>
<text text-anchor="middle" x="530.89" y="-227" font-family="Helvetica,sans-Serif" font-size="10.00">queue</text>
</a>
</g>
</g>
<!-- Node2&#45;&gt;Node7 -->
<g id="edge6_Node000002_Node000007" class="edge">
<title>Node2&#45;&gt;Node7</title>
<g id="a_edge6_Node000002_Node000007"><a xlink:title=" ">
<path fill="none" stroke="#63b8ff" d="M480.11,-274.84C490.13,-266.09 503,-254.85 513.27,-245.88"/>
<polygon fill="#63b8ff" stroke="#63b8ff" points="515.62,-248.48 520.85,-239.27 511.02,-243.21 515.62,-248.48"/>
</a>
</g>
</g>
<!-- Node8 -->
<g id="Node000008" class="node">
<title>Node8</title>
<g id="a_Node000008"><a xlink:title=" ">
<polygon fill="#e0e0e0" stroke="#999999" points="522.89,-184 474.89,-184 474.89,-165 522.89,-165 522.89,-184"/>
<text text-anchor="middle" x="498.89" y="-172" font-family="Helvetica,sans-Serif" font-size="10.00">mutex</text>
</a>
</g>
</g>
<!-- Node2&#45;&gt;Node8 -->
<g id="edge7_Node000002_Node000008" class="edge">
<title>Node2&#45;&gt;Node8</title>
<g id="a_edge7_Node000002_Node000008"><a xlink:title=" ">
<path fill="none" stroke="#63b8ff" d="M448.57,-274.82C435.31,-260.75 419.73,-238.64 429.89,-220 437.6,-205.86 451.93,-195.54 465.55,-188.42"/>
<polygon fill="#63b8ff" stroke="#63b8ff" points="467.27,-191.47 474.77,-183.99 464.24,-185.16 467.27,-191.47"/>
</a>
</g>
</g>
<!-- Node9 -->
<g id="Node000009" class="node">
<title>Node9</title>
<g id="a_Node000009"><a xlink:title=" ">
<polygon fill="#e0e0e0" stroke="#999999" points="124.39,-239 17.39,-239 17.39,-220 124.39,-220 124.39,-239"/>
<text text-anchor="middle" x="70.89" y="-227" font-family="Helvetica,sans-Serif" font-size="10.00">condition_variable</text>
</a>
</g>
</g>
<!-- Node2&#45;&gt;Node9 -->
<g id="edge8_Node000002_Node000009" class="edge">
<title>Node2&#45;&gt;Node9</title>
<g id="a_edge8_Node000002_Node000009"><a xlink:title=" ">
<path fill="none" stroke="#63b8ff" d="M388.58,-277.79C314.87,-266.82 203.83,-250.29 134.44,-239.96"/>
<polygon fill="#63b8ff" stroke="#63b8ff" points="134.92,-236.49 124.51,-238.48 133.89,-243.42 134.92,-236.49"/>
</a>
</g>
</g>
<!-- Node10 -->
<g id="Node000010" class="node">
<title>Node10</title>
<g id="a_Node000010"><a xlink:title=" ">
<polygon fill="#e0e0e0" stroke="#999999" points="192.89,-239 142.89,-239 142.89,-220 192.89,-220 192.89,-239"/>
<text text-anchor="middle" x="167.89" y="-227" font-family="Helvetica,sans-Serif" font-size="10.00">atomic</text>
</a>
</g>
</g>
<!-- Node2&#45;&gt;Node10 -->
<g id="edge9_Node000002_Node000010" class="edge">
<title>Node2&#45;&gt;Node10</title>
<g id="a_edge9_Node000002_Node000010"><a xlink:title=" ">
<path fill="none" stroke="#63b8ff" d="M389.58,-275C338.21,-265.21 268.33,-251.67 206.89,-239 205.63,-238.74 204.35,-238.47 203.06,-238.2"/>
<polygon fill="#63b8ff" stroke="#63b8ff" points="203.56,-234.73 193.05,-236.07 202.1,-241.58 203.56,-234.73"/>
</a>
</g>
</g>
<!-- Node2&#45;&gt;Node11 -->
<g id="edge10_Node000002_Node000011" class="edge">
<title>Node2&#45;&gt;Node11</title>
<g id="a_edge10_Node000002_Node000011"><a xlink:title=" ">
<path fill="none" stroke="#63b8ff" d="M539.1,-278.85C604.92,-269.62 703.02,-255.02 787.89,-239 789.16,-238.76 790.46,-238.51 791.76,-238.25"/>
<polygon fill="#63b8ff" stroke="#63b8ff" points="792.75,-241.62 801.82,-236.14 791.31,-234.77 792.75,-241.62"/>
</a>
</g>
</g>
<!-- Node12 -->
<g id="Node000012" class="node">
<title>Node12</title>
<g id="a_Node000012"><a xlink:href="UDPSocket_8hpp.html" target="_top" xlink:title=" ">
<polygon fill="white" stroke="#666666" points="830.39,-184 739.39,-184 739.39,-165 830.39,-165 830.39,-184"/>
<text text-anchor="middle" x="784.89" y="-172" font-family="Helvetica,sans-Serif" font-size="10.00">UDPSocket.hpp</text>
</a>
</g>
</g>
<!-- Node2&#45;&gt;Node12 -->
<g id="edge11_Node000002_Node000012" class="edge">
<title>Node2&#45;&gt;Node12</title>
<g id="a_edge11_Node000002_Node000012"><a xlink:title=" ">
<path fill="none" stroke="#63b8ff" d="M539.13,-285.01C591.42,-279.71 661.4,-267.41 716.89,-239 739.25,-227.56 759.53,-206.59 772.01,-191.89"/>
<polygon fill="#63b8ff" stroke="#63b8ff" points="774.79,-194.03 778.42,-184.08 769.37,-189.59 774.79,-194.03"/>
</a>
</g>
</g>
<!-- Node24 -->
<g id="Node000024" class="node">
<title>Node24</title>
<g id="a_Node000024"><a xlink:href="Packet_8hpp.html" target="_top" xlink:title=" ">
<polygon fill="white" stroke="#666666" points="192.89,-184 114.89,-184 114.89,-165 192.89,-165 192.89,-184"/>
<text text-anchor="middle" x="153.89" y="-172" font-family="Helvetica,sans-Serif" font-size="10.00">../Packet.hpp</text>
</a>
</g>
</g>
<!-- Node2&#45;&gt;Node24 -->
<g id="edge24_Node000002_Node000024" class="edge">
<title>Node2&#45;&gt;Node24</title>
<g id="a_edge24_Node000002_Node000024"><a xlink:title=" ">
<path fill="none" stroke="#63b8ff" d="M388.77,-286.15C265.84,-280.7 32.81,-266.8 7.89,-239 -23.39,-204.1 50.83,-187.57 104.51,-180.39"/>
<polygon fill="#63b8ff" stroke="#63b8ff" points="105.11,-183.84 114.6,-179.12 104.24,-176.9 105.11,-183.84"/>
</a>
</g>
</g>
<!-- Node26 -->
<g id="Node000026" class="node">
<title>Node26</title>
<g id="a_Node000026"><a xlink:href="GameWorld_8hpp.html" target="_top" xlink:title=" ">
<polygon fill="white" stroke="#666666" points="344.39,-239 249.39,-239 249.39,-220 344.39,-220 344.39,-239"/>
<text text-anchor="middle" x="296.89" y="-227" font-family="Helvetica,sans-Serif" font-size="10.00">GameWorld.hpp</text>
</a>
</g>
</g>
<!-- Node2&#45;&gt;Node26 -->
<g id="edge28_Node000002_Node000026" class="edge">
<title>Node2&#45;&gt;Node26</title>
<g id="a_edge28_Node000002_Node000026"><a xlink:title=" ">
<path fill="none" stroke="#63b8ff" d="M423.89,-274.99C395.66,-265.1 358.21,-251.98 331.31,-242.56"/>
<polygon fill="#63b8ff" stroke="#63b8ff" points="332.15,-239.14 321.55,-239.14 329.84,-245.75 332.15,-239.14"/>
</a>
</g>
</g>
<!-- Node2&#45;&gt;Node27 -->
<g id="edge34_Node000002_Node000027" class="edge">
<title>Node2&#45;&gt;Node27</title>
<g id="a_edge34_Node000002_Node000027"><a xlink:title=" ">
<path fill="none" stroke="#63b8ff" d="M506.05,-274.99C536.16,-264.98 576.21,-251.67 604.63,-242.22"/>
<polygon fill="#63b8ff" stroke="#63b8ff" points="605.77,-245.53 614.16,-239.05 603.56,-238.89 605.77,-245.53"/>
</a>
</g>
</g>
<!-- Node2&#45;&gt;Node30 -->
<g id="edge43_Node000002_Node000030" class="edge">
<title>Node2&#45;&gt;Node30</title>
<g id="a_edge43_Node000002_Node000030"><a xlink:title=" ">
<path fill="none" stroke="#63b8ff" d="M538.92,-279.6C626.84,-268.59 771.52,-250.46 858.35,-239.59"/>
<polygon fill="#63b8ff" stroke="#63b8ff" points="858.9,-243.05 868.39,-238.33 858.03,-236.1 858.9,-243.05"/>
</a>
</g>
</g>
<!-- Node13 -->
<g id="Node000013" class="node">
<title>Node13</title>
<g id="a_Node000013"><a xlink:href="ASocket_8hpp.html" target="_top" xlink:title=" ">
<polygon fill="white" stroke="#666666" points="862.89,-129 776.89,-129 776.89,-110 862.89,-110 862.89,-129"/>
<text text-anchor="middle" x="819.89" y="-117" font-family="Helvetica,sans-Serif" font-size="10.00">../ASocket.hpp</text>
</a>
</g>
</g>
<!-- Node12&#45;&gt;Node13 -->
<g id="edge12_Node000012_Node000013" class="edge">
<title>Node12&#45;&gt;Node13</title>
<g id="a_edge12_Node000012_Node000013"><a xlink:title=" ">
<path fill="none" stroke="#63b8ff" d="M790.67,-164.75C795.51,-157.42 802.57,-146.73 808.54,-137.7"/>
<polygon fill="#63b8ff" stroke="#63b8ff" points="811.63,-139.36 814.22,-129.09 805.79,-135.5 811.63,-139.36"/>
</a>
</g>
</g>
<!-- Node16 -->
<g id="Node000016" class="node">
<title>Node16</title>
<g id="a_Node000016"><a xlink:title=" ">
<polygon fill="#e0e0e0" stroke="#999999" points="515.89,-19 465.89,-19 465.89,0 515.89,0 515.89,-19"/>
<text text-anchor="middle" x="490.89" y="-7" font-family="Helvetica,sans-Serif" font-size="10.00">cstdint</text>
</a>
</g>
</g>
<!-- Node12&#45;&gt;Node16 -->
<g id="edge23_Node000012_Node000016" class="edge">
<title>Node12&#45;&gt;Node16</title>
<g id="a_edge23_Node000012_Node000016"><a xlink:title=" ">
<path fill="none" stroke="#63b8ff" d="M773.46,-164.89C745.48,-144.08 670.86,-90.19 602.89,-55 577.8,-42.01 548.02,-30.35 525.48,-22.22"/>
<polygon fill="#63b8ff" stroke="#63b8ff" points="526.58,-18.9 515.99,-18.85 524.24,-25.49 526.58,-18.9"/>
</a>
</g>
</g>
<!-- Node14 -->
<g id="Node000014" class="node">
<title>Node14</title>
<g id="a_Node000014"><a xlink:href="ISocket_8hpp.html" target="_top" xlink:title=" ">
<polygon fill="white" stroke="#666666" points="856.39,-74 783.39,-74 783.39,-55 856.39,-55 856.39,-74"/>
<text text-anchor="middle" x="819.89" y="-62" font-family="Helvetica,sans-Serif" font-size="10.00">ISocket.hpp</text>
</a>
</g>
</g>
<!-- Node13&#45;&gt;Node14 -->
<g id="edge13_Node000013_Node000014" class="edge">
<title>Node13&#45;&gt;Node14</title>
<g id="a_edge13_Node000013_Node000014"><a xlink:title=" ">
<path fill="none" stroke="#63b8ff" d="M819.89,-109.75C819.89,-102.8 819.89,-92.85 819.89,-84.13"/>
<polygon fill="#63b8ff" stroke="#63b8ff" points="823.39,-84.09 819.89,-74.09 816.39,-84.09 823.39,-84.09"/>
</a>
</g>
</g>
<!-- Node15 -->
<g id="Node000015" class="node">
<title>Node15</title>
<g id="a_Node000015"><a xlink:title=" ">
<polygon fill="#e0e0e0" stroke="#999999" points="693.39,-19 624.39,-19 624.39,0 693.39,0 693.39,-19"/>
<text text-anchor="middle" x="658.89" y="-7" font-family="Helvetica,sans-Serif" font-size="10.00">arpa/inet.h</text>
</a>
</g>
</g>
<!-- Node14&#45;&gt;Node15 -->
<g id="edge14_Node000014_Node000015" class="edge">
<title>Node14&#45;&gt;Node15</title>
<g id="a_edge14_Node000014_Node000015"><a xlink:title=" ">
<path fill="none" stroke="#63b8ff" d="M794.02,-54.98C767.11,-46.13 724.77,-32.19 694.66,-22.28"/>
<polygon fill="#63b8ff" stroke="#63b8ff" points="695.56,-18.88 684.96,-19.08 693.37,-25.53 695.56,-18.88"/>
</a>
</g>
</g>
<!-- Node14&#45;&gt;Node16 -->
<g id="edge15_Node000014_Node000016" class="edge">
<title>Node14&#45;&gt;Node16</title>
<g id="a_edge15_Node000014_Node000016"><a xlink:title=" ">
<path fill="none" stroke="#63b8ff" d="M783.18,-58.01C713.87,-47.63 567.54,-25.71 526.15,-18.85"/>
<polygon fill="#63b8ff" stroke="#63b8ff" points="526.54,-15.37 516.08,-17.08 525.32,-22.26 526.54,-15.37"/>
</a>
</g>
</g>
<!-- Node17 -->
<g id="Node000017" class="node">
<title>Node17</title>
<g id="a_Node000017"><a xlink:title=" ">
<polygon fill="#e0e0e0" stroke="#999999" points="762.39,-19 711.39,-19 711.39,0 762.39,0 762.39,-19"/>
<text text-anchor="middle" x="736.89" y="-7" font-family="Helvetica,sans-Serif" font-size="10.00">errno.h</text>
</a>
</g>
</g>
<!-- Node14&#45;&gt;Node17 -->
<g id="edge16_Node000014_Node000017" class="edge">
<title>Node14&#45;&gt;Node17</title>
<g id="a_edge16_Node000014_Node000017"><a xlink:title=" ">
<path fill="none" stroke="#63b8ff" d="M806.56,-54.98C793.81,-46.84 774.34,-34.41 759.22,-24.76"/>
<polygon fill="#63b8ff" stroke="#63b8ff" points="760.78,-21.6 750.47,-19.17 757.01,-27.5 760.78,-21.6"/>
</a>
</g>
</g>
<!-- Node18 -->
<g id="Node000018" class="node">
<title>Node18</title>
<g id="a_Node000018"><a xlink:title=" ">
<polygon fill="#e0e0e0" stroke="#999999" points="605.89,-19 533.89,-19 533.89,0 605.89,0 605.89,-19"/>
<text text-anchor="middle" x="569.89" y="-7" font-family="Helvetica,sans-Serif" font-size="10.00">netinet/in.h</text>
</a>
</g>
</g>
<!-- Node14&#45;&gt;Node18 -->
<g id="edge17_Node000014_Node000018" class="edge">
<title>Node14&#45;&gt;Node18</title>
<g id="a_edge17_Node000014_Node000018"><a xlink:title=" ">
<path fill="none" stroke="#63b8ff" d="M783.27,-55.74C738.96,-46.34 664.3,-30.51 616.07,-20.29"/>
<polygon fill="#63b8ff" stroke="#63b8ff" points="616.71,-16.85 606.2,-18.2 615.26,-23.7 616.71,-16.85"/>
</a>
</g>
</g>
<!-- Node19 -->
<g id="Node000019" class="node">
<title>Node19</title>
<g id="a_Node000019"><a xlink:title=" ">
<polygon fill="#e0e0e0" stroke="#999999" points="858.89,-19 780.89,-19 780.89,0 858.89,0 858.89,-19"/>
<text text-anchor="middle" x="819.89" y="-7" font-family="Helvetica,sans-Serif" font-size="10.00">netinet/tcp.h</text>
</a>
</g>
</g>
<!-- Node14&#45;&gt;Node19 -->
<g id="edge18_Node000014_Node000019" class="edge">
<title>Node14&#45;&gt;Node19</title>
<g id="a_edge18_Node000014_Node000019"><a xlink:title=" ">
<path fill="none" stroke="#63b8ff" d="M819.89,-54.75C819.89,-47.8 819.89,-37.85 819.89,-29.13"/>
<polygon fill="#63b8ff" stroke="#63b8ff" points="823.39,-29.09 819.89,-19.09 816.39,-29.09 823.39,-29.09"/>
</a>
</g>
</g>
<!-- Node20 -->
<g id="Node000020" class="node">
<title>Node20</title>
<g id="a_Node000020"><a xlink:title=" ">
<polygon fill="#e0e0e0" stroke="#999999" points="950.89,-19 876.89,-19 876.89,0 950.89,0 950.89,-19"/>
<text text-anchor="middle" x="913.89" y="-7" font-family="Helvetica,sans-Serif" font-size="10.00">sys/select.h</text>
</a>
</g>
</g>
<!-- Node14&#45;&gt;Node20 -->
<g id="edge19_Node000014_Node000020" class="edge">
<title>Node14&#45;&gt;Node20</title>
<g id="a_edge19_Node000014_Node000020"><a xlink:title=" ">
<path fill="none" stroke="#63b8ff" d="M834.99,-54.98C849.71,-46.69 872.32,-33.94 889.57,-24.22"/>
<polygon fill="#63b8ff" stroke="#63b8ff" points="891.52,-27.13 898.51,-19.17 888.08,-21.03 891.52,-27.13"/>
</a>
</g>
</g>
<!-- Node21 -->
<g id="Node000021" class="node">
<title>Node21</title>
<g id="a_Node000021"><a xlink:title=" ">
<polygon fill="#e0e0e0" stroke="#999999" points="1046.39,-19 969.39,-19 969.39,0 1046.39,0 1046.39,-19"/>
<text text-anchor="middle" x="1007.89" y="-7" font-family="Helvetica,sans-Serif" font-size="10.00">sys/socket.h</text>
</a>
</g>
</g>
<!-- Node14&#45;&gt;Node21 -->
<g id="edge20_Node000014_Node000021" class="edge">
<title>Node14&#45;&gt;Node21</title>
<g id="a_edge20_Node000014_Node000021"><a xlink:title=" ">
<path fill="none" stroke="#63b8ff" d="M850.1,-54.98C881.93,-46.01 932.26,-31.82 967.49,-21.89"/>
<polygon fill="#63b8ff" stroke="#63b8ff" points="968.77,-25.16 977.45,-19.08 966.88,-18.43 968.77,-25.16"/>
</a>
</g>
</g>
<!-- Node22 -->
<g id="Node000022" class="node">
<title>Node22</title>
<g id="a_Node000022"><a xlink:title=" ">
<polygon fill="#e0e0e0" stroke="#999999" points="1121.39,-19 1064.39,-19 1064.39,0 1121.39,0 1121.39,-19"/>
<text text-anchor="middle" x="1092.89" y="-7" font-family="Helvetica,sans-Serif" font-size="10.00">sys/un.h</text>
</a>
</g>
</g>
<!-- Node14&#45;&gt;Node22 -->
<g id="edge21_Node000014_Node000022" class="edge">
<title>Node14&#45;&gt;Node22</title>
<g id="a_edge21_Node000014_Node000022"><a xlink:title=" ">
<path fill="none" stroke="#63b8ff" d="M856.77,-57.01C901.29,-49.07 978.68,-34.96 1054.09,-19.32"/>
<polygon fill="#63b8ff" stroke="#63b8ff" points="1055.16,-22.67 1064.23,-17.2 1053.73,-15.82 1055.16,-22.67"/>
</a>
</g>
</g>
<!-- Node23 -->
<g id="Node000023" class="node">
<title>Node23</title>
<g id="a_Node000023"><a xlink:title=" ">
<polygon fill="#e0e0e0" stroke="#999999" points="1195.89,-19 1139.89,-19 1139.89,0 1195.89,0 1195.89,-19"/>
<text text-anchor="middle" x="1167.89" y="-7" font-family="Helvetica,sans-Serif" font-size="10.00">unistd.h</text>
</a>
</g>
</g>
<!-- Node14&#45;&gt;Node23 -->
<g id="edge22_Node000014_Node000023" class="edge">
<title>Node14&#45;&gt;Node23</title>
<g id="a_edge22_Node000014_Node000023"><a xlink:title=" ">
<path fill="none" stroke="#63b8ff" d="M856.44,-59.28C912.91,-52.53 1024.94,-38.29 1129.56,-19.11"/>
<polygon fill="#63b8ff" stroke="#63b8ff" points="1130.47,-22.5 1139.66,-17.24 1129.19,-15.62 1130.47,-22.5"/>
</a>
</g>
</g>
<!-- Node24&#45;&gt;Node4 -->
<g id="edge27_Node000024_Node000004" class="edge">
<title>Node24&#45;&gt;Node4</title>
<g id="a_edge27_Node000024_Node000004"><a xlink:title=" ">
<path fill="none" stroke="#63b8ff" d="M168.51,-164.98C182.76,-156.69 204.64,-143.94 221.34,-134.22"/>
<polygon fill="#63b8ff" stroke="#63b8ff" points="223.13,-137.23 230.01,-129.17 219.6,-131.18 223.13,-137.23"/>
</a>
</g>
</g>
<!-- Node24&#45;&gt;Node16 -->
<g id="edge25_Node000024_Node000016" class="edge">
<title>Node24&#45;&gt;Node16</title>
<g id="a_edge25_Node000024_Node000016"><a xlink:title=" ">
<path fill="none" stroke="#63b8ff" d="M160.23,-164.73C177.17,-142.04 226.08,-81.4 282.89,-55 339.85,-28.54 412.94,-17.59 455.58,-13.23"/>
<polygon fill="#63b8ff" stroke="#63b8ff" points="456.12,-16.69 465.74,-12.26 455.45,-9.73 456.12,-16.69"/>
</a>
</g>
</g>
<!-- Node25 -->
<g id="Node000025" class="node">
<title>Node25</title>
<g id="a_Node000025"><a xlink:title=" ">
<polygon fill="#e0e0e0" stroke="#999999" points="164.39,-129 99.39,-129 99.39,-110 164.39,-110 164.39,-129"/>
<text text-anchor="middle" x="131.89" y="-117" font-family="Helvetica,sans-Serif" font-size="10.00">stdexcept</text>
</a>
</g>
</g>
<!-- Node24&#45;&gt;Node25 -->
<g id="edge26_Node000024_Node000025" class="edge">
<title>Node24&#45;&gt;Node25</title>
<g id="a_edge26_Node000024_Node000025"><a xlink:title=" ">
<path fill="none" stroke="#63b8ff" d="M150.26,-164.75C147.31,-157.65 143.06,-147.4 139.39,-138.56"/>
<polygon fill="#63b8ff" stroke="#63b8ff" points="142.52,-136.98 135.46,-129.09 136.06,-139.67 142.52,-136.98"/>
</a>
</g>
</g>
<!-- Node26&#45;&gt;Node3 -->
<g id="edge31_Node000026_Node000003" class="edge">
<title>Node26&#45;&gt;Node3</title>
<g id="a_edge31_Node000026_Node000003"><a xlink:title=" ">
<path fill="none" stroke="#63b8ff" d="M315.05,-219.98C333.14,-211.5 361.18,-198.35 382.08,-188.54"/>
<polygon fill="#63b8ff" stroke="#63b8ff" points="383.84,-191.59 391.41,-184.17 380.87,-185.25 383.84,-191.59"/>
</a>
</g>
</g>
<!-- Node26&#45;&gt;Node4 -->
<g id="edge32_Node000026_Node000004" class="edge">
<title>Node26&#45;&gt;Node4</title>
<g id="a_edge32_Node000026_Node000004"><a xlink:title=" ">
<path fill="none" stroke="#63b8ff" d="M292.64,-219.66C284.1,-201.93 264.74,-161.73 253.47,-138.32"/>
<polygon fill="#63b8ff" stroke="#63b8ff" points="256.55,-136.65 249.06,-129.16 250.25,-139.69 256.55,-136.65"/>
</a>
</g>
</g>
<!-- Node26&#45;&gt;Node16 -->
<g id="edge33_Node000026_Node000016" class="edge">
<title>Node26&#45;&gt;Node16</title>
<g id="a_edge33_Node000026_Node000016"><a xlink:title=" ">
<path fill="none" stroke="#63b8ff" d="M295.13,-219.95C289.94,-192.21 277.69,-103.66 320.89,-55 338.57,-35.09 411.14,-21.65 455.55,-15.11"/>
<polygon fill="#63b8ff" stroke="#63b8ff" points="456.24,-18.54 465.65,-13.67 455.26,-11.61 456.24,-18.54"/>
</a>
</g>
</g>
<!-- Node26&#45;&gt;Node18 -->
<g id="edge30_Node000026_Node000018" class="edge">
<title>Node26&#45;&gt;Node18</title>
<g id="a_edge30_Node000026_Node000018"><a xlink:title=" ">
<path fill="none" stroke="#63b8ff" d="M303.73,-219.74C313.92,-206.95 334.02,-182.78 353.89,-165 419.07,-106.66 506.27,-49.94 547.06,-24.47"/>
<polygon fill="#63b8ff" stroke="#63b8ff" points="549.06,-27.35 555.71,-19.11 545.37,-21.4 549.06,-27.35"/>
</a>
</g>
</g>
<!-- Node26&#45;&gt;Node24 -->
<g id="edge29_Node000026_Node000024" class="edge">
<title>Node26&#45;&gt;Node24</title>
<g id="a_edge29_Node000026_Node000024"><a xlink:title=" ">
<path fill="none" stroke="#63b8ff" d="M273.92,-219.98C250.39,-211.27 213.61,-197.63 186.95,-187.75"/>
<polygon fill="#63b8ff" stroke="#63b8ff" points="187.88,-184.36 177.29,-184.17 185.45,-190.93 187.88,-184.36"/>
</a>
</g>
</g>
<!-- Node27&#45;&gt;Node3 -->
<g id="edge36_Node000027_Node000003" class="edge">
<title>Node27&#45;&gt;Node3</title>
<g id="a_edge36_Node000027_Node000003"><a xlink:title=" ">
<path fill="none" stroke="#63b8ff" d="M602.94,-219.98C563.32,-210.86 500.31,-196.33 457.12,-186.38"/>
<polygon fill="#63b8ff" stroke="#63b8ff" points="457.67,-182.92 447.14,-184.08 456.09,-189.74 457.67,-182.92"/>
</a>
</g>
</g>
<!-- Node27&#45;&gt;Node4 -->
<g id="edge41_Node000027_Node000004" class="edge">
<title>Node27&#45;&gt;Node4</title>
<g id="a_edge41_Node000027_Node000004"><a xlink:title=" ">
<path fill="none" stroke="#63b8ff" d="M628.63,-219.9C609.74,-205.96 570,-178.59 531.89,-165 444.18,-133.71 333.65,-124.41 278.88,-121.65"/>
<polygon fill="#63b8ff" stroke="#63b8ff" points="278.84,-118.15 268.69,-121.18 278.52,-125.14 278.84,-118.15"/>
</a>
</g>
</g>
<!-- Node27&#45;&gt;Node6 -->
<g id="edge42_Node000027_Node000006" class="edge">
<title>Node27&#45;&gt;Node6</title>
<g id="a_edge42_Node000027_Node000006"><a xlink:title=" ">
<path fill="none" stroke="#63b8ff" d="M681.01,-219.96C719.41,-211.85 778.53,-199.02 838.55,-184.24"/>
<polygon fill="#63b8ff" stroke="#63b8ff" points="839.71,-187.56 848.58,-181.76 838.03,-180.77 839.71,-187.56"/>
</a>
</g>
</g>
<!-- Node27&#45;&gt;Node8 -->
<g id="edge37_Node000027_Node000008" class="edge">
<title>Node27&#45;&gt;Node8</title>
<g id="a_edge37_Node000027_Node000008"><a xlink:title=" ">
<path fill="none" stroke="#63b8ff" d="M617.24,-219.98C594.04,-211.27 557.77,-197.63 531.49,-187.75"/>
<polygon fill="#63b8ff" stroke="#63b8ff" points="532.55,-184.41 521.96,-184.17 530.09,-190.97 532.55,-184.41"/>
</a>
</g>
</g>
<!-- Node27&#45;&gt;Node16 -->
<g id="edge40_Node000027_Node000016" class="edge">
<title>Node27&#45;&gt;Node16</title>
<g id="a_edge40_Node000027_Node000016"><a xlink:title=" ">
<path fill="none" stroke="#63b8ff" d="M633.44,-219.69C626.92,-210.75 616.59,-196.49 607.89,-184 568.38,-127.26 522.95,-59 502.24,-27.7"/>
<polygon fill="#63b8ff" stroke="#63b8ff" points="505.08,-25.64 496.64,-19.23 499.24,-29.5 505.08,-25.64"/>
</a>
</g>
</g>
<!-- Node27&#45;&gt;Node18 -->
<g id="edge35_Node000027_Node000018" class="edge">
<title>Node27&#45;&gt;Node18</title>
<g id="a_edge35_Node000027_Node000018"><a xlink:title=" ">
<path fill="none" stroke="#63b8ff" d="M655.92,-219.95C668.31,-212.35 684.54,-199.97 691.89,-184 695.42,-176.33 694.66,-172.98 691.89,-165 671.18,-105.35 616.82,-51.32 588.16,-25.88"/>
<polygon fill="#63b8ff" stroke="#63b8ff" points="590.33,-23.12 580.49,-19.2 585.74,-28.4 590.33,-23.12"/>
</a>
</g>
</g>
<!-- Node27&#45;&gt;Node28 -->
<g id="edge38_Node000027_Node000028" class="edge">
<title>Node27&#45;&gt;Node28</title>
<g id="a_edge38_Node000027_Node000028"><a xlink:title=" ">
<path fill="none" stroke="#63b8ff" d="M695.77,-219.96C746.65,-211.98 824.08,-199.28 900.38,-184.21"/>
<polygon fill="#63b8ff" stroke="#63b8ff" points="901.52,-187.55 910.65,-182.17 900.16,-180.69 901.52,-187.55"/>
</a>
</g>
</g>
<!-- Node29 -->
<g id="Node000029" class="node">
<title>Node29</title>
<g id="a_Node000029"><a xlink:title=" ">
<polygon fill="#e0e0e0" stroke="#999999" points="682.39,-184 617.39,-184 617.39,-165 682.39,-165 682.39,-184"/>
<text text-anchor="middle" x="649.89" y="-172" font-family="Helvetica,sans-Serif" font-size="10.00">functional</text>
</a>
</g>
</g>
<!-- Node27&#45;&gt;Node29 -->
<g id="edge39_Node000027_Node000029" class="edge">
<title>Node27&#45;&gt;Node29</title>
<g id="a_edge39_Node000027_Node000029"><a xlink:title=" ">
<path fill="none" stroke="#63b8ff" d="M641.54,-219.75C642.85,-212.8 644.73,-202.85 646.38,-194.13"/>
<polygon fill="#63b8ff" stroke="#63b8ff" points="649.86,-194.56 648.27,-184.09 642.98,-193.27 649.86,-194.56"/>
</a>
</g>
</g>
<!-- Node30&#45;&gt;Node6 -->
<g id="edge44_Node000030_Node000006" class="edge">
<title>Node30&#45;&gt;Node6</title>
<g id="a_edge44_Node000030_Node000006"><a xlink:title=" ">
<path fill="none" stroke="#63b8ff" d="M921.25,-219.98C912.38,-212.15 899.02,-200.34 888.28,-190.86"/>
<polygon fill="#63b8ff" stroke="#63b8ff" points="890.52,-188.17 880.71,-184.17 885.89,-193.41 890.52,-188.17"/>
</a>
</g>
</g>
<!-- Node30&#45;&gt;Node12 -->
<g id="edge46_Node000030_Node000012" class="edge">
<title>Node30&#45;&gt;Node12</title>
<g id="a_edge46_Node000030_Node000012"><a xlink:title=" ">
<path fill="none" stroke="#63b8ff" d="M907.43,-219.98C883.31,-211.23 845.53,-197.51 818.29,-187.62"/>
<polygon fill="#63b8ff" stroke="#63b8ff" points="819.37,-184.29 808.78,-184.17 816.98,-190.87 819.37,-184.29"/>
</a>
</g>
</g>
<!-- Node30&#45;&gt;Node28 -->
<g id="edge45_Node000030_Node000028" class="edge">
<title>Node30&#45;&gt;Node28</title>
<g id="a_edge45_Node000030_Node000028"><a xlink:title=" ">
<path fill="none" stroke="#63b8ff" d="M932.21,-219.75C933.26,-212.8 934.76,-202.85 936.08,-194.13"/>
<polygon fill="#63b8ff" stroke="#63b8ff" points="939.56,-194.5 937.6,-184.09 932.64,-193.45 939.56,-194.5"/>
</a>
</g>
</g>
</g>
</svg>
