<?xml version="1.0" encoding="UTF-8" standalone="no"?>
<!DOCTYPE svg PUBLIC "-//W3C//DTD SVG 1.1//EN"
 "http://www.w3.org/Graphics/SVG/1.1/DTD/svg11.dtd">
<!-- Generated by graphviz version 2.43.0 (0)
 -->
<!-- Title: main Pages: 1 -->
<svg width="1034pt" height="562pt"
 viewBox="0.00 0.00 1034.00 562.00" xmlns="http://www.w3.org/2000/svg" xmlns:xlink="http://www.w3.org/1999/xlink">
<g id="graph0" class="graph" transform="scale(1 1) rotate(0) translate(4 558)">
<title>main</title>
<!-- Node1 -->
<g id="Node000001" class="node">
<title>Node1</title>
<g id="a_Node000001"><a xlink:title=" ">
<polygon fill="#999999" stroke="#666666" points="41,-95 0,-95 0,-76 41,-76 41,-95"/>
<text text-anchor="middle" x="20.5" y="-83" font-family="Helvetica,sans-Serif" font-size="10.00">main</text>
</a>
</g>
</g>
<!-- Node2 -->
<g id="Node000002" class="node">
<title>Node2</title>
<g id="a_Node000002"><a xlink:href="classIpcChannel.html#afa8b95326afd4d66bb573f333e124d33" target="_top" xlink:title="Create a socket and connect to a path (client side).">
<polygon fill="white" stroke="#666666" points="220,-189 77,-189 77,-170 220,-170 220,-189"/>
<text text-anchor="middle" x="148.5" y="-177" font-family="Helvetica,sans-Serif" font-size="10.00">IpcChannel::connectClient</text>
</a>
</g>
</g>
<!-- Node1&#45;&gt;Node2 -->
<g id="edge1_Node000001_Node000002" class="edge">
<title>Node1&#45;&gt;Node2</title>
<g id="a_edge1_Node000001_Node000002"><a xlink:title=" ">
<path fill="none" stroke="#63b8ff" d="M25.78,-95.09C33.56,-111.37 51.56,-144.28 77,-161.5 79.28,-163.04 81.67,-164.45 84.16,-165.74"/>
<polygon fill="#63b8ff" stroke="#63b8ff" points="82.89,-169.01 93.45,-169.89 85.75,-162.62 82.89,-169.01"/>
</a>
</g>
</g>
<!-- Node3 -->
<g id="Node000003" class="node">
<title>Node3</title>
<g id="a_Node000003"><a xlink:href="classUDPGameServer.html#a476a4f2e8bb0833c788761298eb4a72b" target="_top" xlink:title="Start the main server loop (blocking).">
<polygon fill="white" stroke="#666666" points="208.5,-152 88.5,-152 88.5,-133 208.5,-133 208.5,-152"/>
<text text-anchor="middle" x="148.5" y="-140" font-family="Helvetica,sans-Serif" font-size="10.00">UDPGameServer::run</text>
</a>
</g>
</g>
<!-- Node1&#45;&gt;Node3 -->
<g id="edge2_Node000001_Node000003" class="edge">
<title>Node1&#45;&gt;Node3</title>
<g id="a_edge2_Node000001_Node000003"><a xlink:title=" ">
<path fill="none" stroke="#63b8ff" d="M41.19,-94.41C61.51,-103.6 93.47,-118.06 117.05,-128.73"/>
<polygon fill="#63b8ff" stroke="#63b8ff" points="115.71,-131.96 126.27,-132.9 118.6,-125.58 115.71,-131.96"/>
</a>
</g>
</g>
<!-- Node24 -->
<g id="Node000024" class="node">
<title>Node24</title>
<g id="a_Node000024"><a xlink:href="classIpcChannel.html#a35498032e830b79724747de4e7b6ca1b" target="_top" xlink:title="Send a text message (limited to 1024 bytes).">
<polygon fill="white" stroke="#666666" points="615.5,-90 515.5,-90 515.5,-71 615.5,-71 615.5,-90"/>
<text text-anchor="middle" x="565.5" y="-78" font-family="Helvetica,sans-Serif" font-size="10.00">IpcChannel::send</text>
</a>
</g>
</g>
<!-- Node1&#45;&gt;Node24 -->
<g id="edge33_Node000001_Node000024" class="edge">
<title>Node1&#45;&gt;Node24</title>
<g id="a_edge33_Node000001_Node000024"><a xlink:title=" ">
<path fill="none" stroke="#63b8ff" d="M41.26,-84.71C81.61,-83.14 176.38,-79.69 256,-78.5 340.88,-77.23 362.11,-77.78 447,-78.5 465.94,-78.66 486.58,-78.97 505.22,-79.29"/>
<polygon fill="#63b8ff" stroke="#63b8ff" points="505.28,-82.8 515.34,-79.48 505.4,-75.8 505.28,-82.8"/>
</a>
</g>
</g>
<!-- Node26 -->
<g id="Node000026" class="node">
<title>Node26</title>
<g id="a_Node000026"><a xlink:href="classUDPGameServer.html#a33e8d20721c5a01eafc5f466ecd9e1b7" target="_top" xlink:title=" ">
<polygon fill="white" stroke="#666666" points="215.5,-19 81.5,-19 81.5,0 215.5,0 215.5,-19"/>
<text text-anchor="middle" x="148.5" y="-7" font-family="Helvetica,sans-Serif" font-size="10.00">UDPGameServer::setIpc</text>
</a>
</g>
</g>
<!-- Node1&#45;&gt;Node26 -->
<g id="edge34_Node000001_Node000026" class="edge">
<title>Node1&#45;&gt;Node26</title>
<g id="a_edge34_Node000001_Node000026"><a xlink:title=" ">
<path fill="none" stroke="#63b8ff" d="M29.57,-75.75C39.59,-64.19 57.75,-45.05 77,-33.5 84.25,-29.15 92.4,-25.45 100.51,-22.36"/>
<polygon fill="#63b8ff" stroke="#63b8ff" points="101.71,-25.65 109.96,-19.01 99.37,-19.06 101.71,-25.65"/>
</a>
</g>
</g>
<!-- Node4 -->
<g id="Node000004" class="node">
<title>Node4</title>
<g id="a_Node000004"><a xlink:href="classUDPGameServer.html#a19fbc481d5a9467da80ef95a4e3872e5" target="_top" xlink:title="Broadcast the current snapshot to all connected players.">
<polygon fill="white" stroke="#666666" points="427.5,-480.5 275.5,-480.5 275.5,-450.5 427.5,-450.5 427.5,-480.5"/>
<text text-anchor="start" x="283.5" y="-468.5" font-family="Helvetica,sans-Serif" font-size="10.00">UDPGameServer::broadcast</text>
<text text-anchor="middle" x="351.5" y="-457.5" font-family="Helvetica,sans-Serif" font-size="10.00">Snapshot</text>
</a>
</g>
</g>
<!-- Node3&#45;&gt;Node4 -->
<g id="edge3_Node000003_Node000004" class="edge">
<title>Node3&#45;&gt;Node4</title>
<g id="a_edge3_Node000003_Node000004"><a xlink:title=" ">
<path fill="none" stroke="#63b8ff" d="M207.79,-152.03C212.34,-154.53 216.52,-157.64 220,-161.5 286.97,-235.71 207.34,-296.19 256,-383.5 270.22,-409.01 295.58,-430.35 316.44,-444.86"/>
<polygon fill="#63b8ff" stroke="#63b8ff" points="314.52,-447.78 324.77,-450.46 318.43,-441.97 314.52,-447.78"/>
</a>
</g>
</g>
<!-- Node8 -->
<g id="Node000008" class="node">
<title>Node8</title>
<g id="a_Node000008"><a xlink:href="classUDPGameServer.html#a9d28a7f4a0c75aba168ea6a58633d1bb" target="_top" xlink:title="Route an incoming packet to the appropriate handler.">
<polygon fill="white" stroke="#666666" points="436,-374 267,-374 267,-355 436,-355 436,-374"/>
<text text-anchor="middle" x="351.5" y="-362" font-family="Helvetica,sans-Serif" font-size="10.00">UDPGameServer::handlePacket</text>
</a>
</g>
</g>
<!-- Node3&#45;&gt;Node8 -->
<g id="edge7_Node000003_Node000008" class="edge">
<title>Node3&#45;&gt;Node8</title>
<g id="a_edge7_Node000003_Node000008"><a xlink:title=" ">
<path fill="none" stroke="#63b8ff" d="M202.82,-152.01C208.96,-154.48 214.86,-157.59 220,-161.5 245.05,-180.56 239.27,-195.83 256,-222.5 284.43,-267.83 319.81,-319.92 338.16,-346.63"/>
<polygon fill="#63b8ff" stroke="#63b8ff" points="335.35,-348.72 343.9,-354.98 341.11,-344.75 335.35,-348.72"/>
</a>
</g>
</g>
<!-- Node18 -->
<g id="Node000018" class="node">
<title>Node18</title>
<g id="a_Node000018"><a xlink:href="classUDPGameServer.html#a7f3a37004641222f4d30d55614f05029" target="_top" xlink:title="Thread loop to read incoming UDP packets without blocking the simulation tick.">
<polygon fill="white" stroke="#666666" points="435,-213 268,-213 268,-194 435,-194 435,-213"/>
<text text-anchor="middle" x="351.5" y="-201" font-family="Helvetica,sans-Serif" font-size="10.00">UDPGameServer::networkLoop</text>
</a>
</g>
</g>
<!-- Node3&#45;&gt;Node18 -->
<g id="edge22_Node000003_Node000018" class="edge">
<title>Node3&#45;&gt;Node18</title>
<g id="a_edge22_Node000003_Node000018"><a xlink:title=" ">
<path fill="none" stroke="#63b8ff" d="M187.77,-152.01C198.29,-154.84 209.64,-158.1 220,-161.5 236.31,-166.85 239.76,-169.95 256,-175.5 272.07,-181 289.89,-186.44 305.68,-191.04"/>
<polygon fill="#63b8ff" stroke="#63b8ff" points="305.14,-194.53 315.72,-193.94 307.08,-187.81 305.14,-194.53"/>
</a>
</g>
</g>
<!-- Node23 -->
<g id="Node000023" class="node">
<title>Node23</title>
<g id="a_Node000023"><a xlink:href="classUDPGameServer.html#a04aa4dac3d2e7571a2d092c0a37e75ef" target="_top" xlink:title="Monotonic time helper in milliseconds.">
<polygon fill="white" stroke="#666666" points="635,-127 496,-127 496,-108 635,-108 635,-127"/>
<text text-anchor="middle" x="565.5" y="-115" font-family="Helvetica,sans-Serif" font-size="10.00">UDPGameServer::nowMs</text>
</a>
</g>
</g>
<!-- Node3&#45;&gt;Node23 -->
<g id="edge28_Node000003_Node000023" class="edge">
<title>Node3&#45;&gt;Node23</title>
<g id="a_edge28_Node000003_Node000023"><a xlink:title=" ">
<path fill="none" stroke="#63b8ff" d="M208.68,-146.13C268.85,-148.98 364.69,-151.16 447,-142.5 460,-141.13 488.44,-135.11 514.09,-129.32"/>
<polygon fill="#63b8ff" stroke="#63b8ff" points="515.14,-132.67 524.11,-127.04 513.58,-125.84 515.14,-132.67"/>
</a>
</g>
</g>
<!-- Node3&#45;&gt;Node24 -->
<g id="edge29_Node000003_Node000024" class="edge">
<title>Node3&#45;&gt;Node24</title>
<g id="a_edge29_Node000003_Node000024"><a xlink:title=" ">
<path fill="none" stroke="#63b8ff" d="M171.04,-132.9C192.21,-123.93 225.67,-110.97 256,-104.5 341.35,-86.29 442.61,-81.53 505.22,-80.48"/>
<polygon fill="#63b8ff" stroke="#63b8ff" points="505.36,-83.98 515.31,-80.34 505.26,-76.98 505.36,-83.98"/>
</a>
</g>
</g>
<!-- Node25 -->
<g id="Node000025" class="node">
<title>Node25</title>
<g id="a_Node000025"><a xlink:href="classUDPGameServer.html#aa1c969e983f12d8e36bfb2465f7fe5d6" target="_top" xlink:title="Advance the local simulation based on elapsed time.">
<polygon fill="white" stroke="#666666" points="447,-133 256,-133 256,-114 447,-114 447,-133"/>
<text text-anchor="middle" x="351.5" y="-121" font-family="Helvetica,sans-Serif" font-size="10.00">UDPGameServer::updateSimulation</text>
</a>
</g>
</g>
<!-- Node3&#45;&gt;Node25 -->
<g id="edge30_Node000003_Node000025" class="edge">
<title>Node3&#45;&gt;Node25</title>
<g id="a_edge30_Node000003_Node000025"><a xlink:title=" ">
<path fill="none" stroke="#63b8ff" d="M208.72,-136.9C220.42,-135.8 233.01,-134.61 245.7,-133.41"/>
<polygon fill="#63b8ff" stroke="#63b8ff" points="246.26,-136.87 255.89,-132.44 245.6,-129.9 246.26,-136.87"/>
</a>
</g>
</g>
<!-- Node5 -->
<g id="Node000005" class="node">
<title>Node5</title>
<g id="a_Node000005"><a xlink:href="classUDPGameServer.html#a602889e958a3ff926bb8de325c982a62" target="_top" xlink:title="Send a packet to a single endpoint.">
<polygon fill="white" stroke="#666666" points="854,-533 684,-533 684,-514 854,-514 854,-533"/>
<text text-anchor="middle" x="769" y="-521" font-family="Helvetica,sans-Serif" font-size="10.00">UDPGameServer::sendPacketTo</text>
</a>
</g>
</g>
<!-- Node4&#45;&gt;Node5 -->
<g id="edge4_Node000004_Node000005" class="edge">
<title>Node4&#45;&gt;Node5</title>
<g id="a_edge4_Node000004_Node000005"><a xlink:title=" ">
<path fill="none" stroke="#63b8ff" d="M427.74,-476C501.79,-486.34 614.37,-502.05 689.51,-512.54"/>
<polygon fill="#63b8ff" stroke="#63b8ff" points="689.47,-516.07 699.86,-513.99 690.44,-509.14 689.47,-516.07"/>
</a>
</g>
</g>
<!-- Node6 -->
<g id="Node000006" class="node">
<title>Node6</title>
<g id="a_Node000006"><a xlink:href="classPacket.html#aa88c2d28796644c8a1d6137996502ca8" target="_top" xlink:title="Serialize the packet to a byte buffer ready to send.">
<polygon fill="white" stroke="#666666" points="1005.5,-554 910.5,-554 910.5,-535 1005.5,-535 1005.5,-554"/>
<text text-anchor="middle" x="958" y="-542" font-family="Helvetica,sans-Serif" font-size="10.00">Packet::serialize</text>
</a>
</g>
</g>
<!-- Node5&#45;&gt;Node6 -->
<g id="edge5_Node000005_Node000006" class="edge">
<title>Node5&#45;&gt;Node6</title>
<g id="a_edge5_Node000005_Node000006"><a xlink:title=" ">
<path fill="none" stroke="#63b8ff" d="M854.2,-532.96C869.72,-534.7 885.59,-536.48 900.07,-538.11"/>
<polygon fill="#63b8ff" stroke="#63b8ff" points="900.02,-541.62 910.35,-539.26 900.8,-534.67 900.02,-541.62"/>
</a>
</g>
</g>
<!-- Node7 -->
<g id="Node000007" class="node">
<title>Node7</title>
<g id="a_Node000007"><a xlink:href="classNetwork_1_1TransportLayer_1_1UDPSocket.html#a887cf24e71c890759f907c074f5b3505" target="_top" xlink:title="Write bytes to the UDP socket.">
<polygon fill="white" stroke="#666666" points="1026,-516.5 890,-516.5 890,-486.5 1026,-486.5 1026,-516.5"/>
<text text-anchor="start" x="898" y="-504.5" font-family="Helvetica,sans-Serif" font-size="10.00">Network::TransportLayer</text>
<text text-anchor="middle" x="958" y="-493.5" font-family="Helvetica,sans-Serif" font-size="10.00">::UDPSocket::writeByte</text>
</a>
</g>
</g>
<!-- Node5&#45;&gt;Node7 -->
<g id="edge6_Node000005_Node000007" class="edge">
<title>Node5&#45;&gt;Node7</title>
<g id="a_edge6_Node000005_Node000007"><a xlink:title=" ">
<path fill="none" stroke="#63b8ff" d="M850.93,-513.98C860.5,-512.85 870.25,-511.71 879.76,-510.59"/>
<polygon fill="#63b8ff" stroke="#63b8ff" points="880.46,-514.03 889.98,-509.38 879.64,-507.08 880.46,-514.03"/>
</a>
</g>
</g>
<!-- Node8&#45;&gt;Node5 -->
<g id="edge21_Node000008_Node000005" class="edge">
<title>Node8&#45;&gt;Node5</title>
<g id="a_edge21_Node000008_Node000005"><a xlink:title=" ">
<path fill="none" stroke="#63b8ff" d="M372.14,-374.1C397.46,-386.32 442.99,-407.71 483,-423.5 555.03,-451.93 579.18,-443.99 648,-479.5 665.54,-488.55 665.97,-497.48 684,-505.5 688.65,-507.57 693.55,-509.4 698.56,-511.03"/>
<polygon fill="#63b8ff" stroke="#63b8ff" points="697.69,-514.43 708.27,-513.92 699.69,-507.72 697.69,-514.43"/>
</a>
</g>
</g>
<!-- Node9 -->
<g id="Node000009" class="node">
<title>Node9</title>
<g id="a_Node000009"><a xlink:href="classUDPGameServer.html#a367b917d572ad28819003841b3be180c" target="_top" xlink:title="Register a new player on receipt of a hello message.">
<polygon fill="white" stroke="#666666" points="647,-414 484,-414 484,-395 647,-395 647,-414"/>
<text text-anchor="middle" x="565.5" y="-402" font-family="Helvetica,sans-Serif" font-size="10.00">UDPGameServer::handleHello</text>
</a>
</g>
</g>
<!-- Node8&#45;&gt;Node9 -->
<g id="edge8_Node000008_Node000009" class="edge">
<title>Node8&#45;&gt;Node9</title>
<g id="a_edge8_Node000008_Node000009"><a xlink:title=" ">
<path fill="none" stroke="#63b8ff" d="M403.01,-374.03C433.29,-379.74 471.98,-387.04 503.9,-393.07"/>
<polygon fill="#63b8ff" stroke="#63b8ff" points="503.53,-396.56 514.01,-394.97 504.83,-389.68 503.53,-396.56"/>
</a>
</g>
</g>
<!-- Node16 -->
<g id="Node000016" class="node">
<title>Node16</title>
<g id="a_Node000016"><a xlink:href="classUDPGameServer.html#abe9913c5eaa12c361bdcc9ce68bdc835" target="_top" xlink:title="Update player inputs (movement/direction).">
<polygon fill="white" stroke="#666666" points="646.5,-337 484.5,-337 484.5,-318 646.5,-318 646.5,-337"/>
<text text-anchor="middle" x="565.5" y="-325" font-family="Helvetica,sans-Serif" font-size="10.00">UDPGameServer::handleInput</text>
</a>
</g>
</g>
<!-- Node8&#45;&gt;Node16 -->
<g id="edge16_Node000008_Node000016" class="edge">
<title>Node8&#45;&gt;Node16</title>
<g id="a_edge16_Node000008_Node000016"><a xlink:title=" ">
<path fill="none" stroke="#63b8ff" d="M407.1,-354.97C435.3,-350.05 469.91,-344.01 499.49,-338.85"/>
<polygon fill="#63b8ff" stroke="#63b8ff" points="500.47,-342.23 509.72,-337.06 499.27,-335.33 500.47,-342.23"/>
</a>
</g>
</g>
<!-- Node17 -->
<g id="Node000017" class="node">
<title>Node17</title>
<g id="a_Node000017"><a xlink:href="classUDPGameServer.html#a0117b7531413f5b7b161675f9e9efd3d" target="_top" xlink:title="Handle a shoot command (spawn a bullet).">
<polygon fill="white" stroke="#666666" points="648,-374 483,-374 483,-355 648,-355 648,-374"/>
<text text-anchor="middle" x="565.5" y="-362" font-family="Helvetica,sans-Serif" font-size="10.00">UDPGameServer::handleShoot</text>
</a>
</g>
</g>
<!-- Node8&#45;&gt;Node17 -->
<g id="edge19_Node000008_Node000017" class="edge">
<title>Node8&#45;&gt;Node17</title>
<g id="a_edge19_Node000008_Node000017"><a xlink:title=" ">
<path fill="none" stroke="#63b8ff" d="M436.29,-364.5C448.22,-364.5 460.55,-364.5 472.63,-364.5"/>
<polygon fill="#63b8ff" stroke="#63b8ff" points="472.71,-368 482.71,-364.5 472.71,-361 472.71,-368"/>
</a>
</g>
</g>
<!-- Node9&#45;&gt;Node5 -->
<g id="edge13_Node000009_Node000005" class="edge">
<title>Node9&#45;&gt;Node5</title>
<g id="a_edge13_Node000009_Node000005"><a xlink:title=" ">
<path fill="none" stroke="#63b8ff" d="M599.43,-414.06C615.49,-419.98 634.26,-428.9 648,-441.5 672.05,-463.56 657.72,-486.15 684,-505.5 685.85,-506.87 687.79,-508.13 689.79,-509.31"/>
<polygon fill="#63b8ff" stroke="#63b8ff" points="688.42,-512.53 698.93,-513.88 691.56,-506.28 688.42,-512.53"/>
</a>
</g>
</g>
<!-- Node10 -->
<g id="Node000010" class="node">
<title>Node10</title>
<g id="a_Node000010"><a xlink:href="classGameWorld.html#a9a877bcf4eed6527b0896242463a3dfa" target="_top" xlink:title="Build a UDP snapshot packet of current world state.">
<polygon fill="white" stroke="#666666" points="843.5,-421.5 694.5,-421.5 694.5,-391.5 843.5,-391.5 843.5,-421.5"/>
<text text-anchor="start" x="702.5" y="-409.5" font-family="Helvetica,sans-Serif" font-size="10.00">GameWorld::buildSnapshot</text>
<text text-anchor="middle" x="769" y="-398.5" font-family="Helvetica,sans-Serif" font-size="10.00">Packet</text>
</a>
</g>
</g>
<!-- Node9&#45;&gt;Node10 -->
<g id="edge9_Node000009_Node000010" class="edge">
<title>Node9&#45;&gt;Node10</title>
<g id="a_edge9_Node000009_Node000010"><a xlink:title=" ">
<path fill="none" stroke="#63b8ff" d="M647.01,-405.3C659.25,-405.42 671.92,-405.55 684.23,-405.67"/>
<polygon fill="#63b8ff" stroke="#63b8ff" points="684.44,-409.17 694.48,-405.77 684.51,-402.17 684.44,-409.17"/>
</a>
</g>
</g>
<!-- Node11 -->
<g id="Node000011" class="node">
<title>Node11</title>
<g id="a_Node000011"><a xlink:href="classSessionManager.html#a48995915db3b90fa7228d357d6293163" target="_top" xlink:title="Lookup a session by player id.">
<polygon fill="white" stroke="#666666" points="847,-336 691,-336 691,-317 847,-317 847,-336"/>
<text text-anchor="middle" x="769" y="-324" font-family="Helvetica,sans-Serif" font-size="10.00">SessionManager::getSession</text>
</a>
</g>
</g>
<!-- Node9&#45;&gt;Node11 -->
<g id="edge10_Node000009_Node000011" class="edge">
<title>Node9&#45;&gt;Node11</title>
<g id="a_edge10_Node000009_Node000011"><a xlink:title=" ">
<path fill="none" stroke="#63b8ff" d="M621.24,-394.92C630.53,-392.05 639.82,-388.32 648,-383.5 668.05,-371.69 663.78,-357.01 684,-345.5 687.91,-343.28 692.05,-341.31 696.33,-339.58"/>
<polygon fill="#63b8ff" stroke="#63b8ff" points="697.64,-342.83 705.86,-336.14 695.27,-336.24 697.64,-342.83"/>
</a>
</g>
</g>
<!-- Node12 -->
<g id="Node000012" class="node">
<title>Node12</title>
<g id="a_Node000012"><a xlink:href="classUDPGameServer.html#ae610b7c128c3b70e06f3fc1b5a3ecdc5" target="_top" xlink:title=" ">
<polygon fill="white" stroke="#666666" points="842.5,-299 695.5,-299 695.5,-280 842.5,-280 842.5,-299"/>
<text text-anchor="middle" x="769" y="-287" font-family="Helvetica,sans-Serif" font-size="10.00">UDPGameServer::logPrefix</text>
</a>
</g>
</g>
<!-- Node9&#45;&gt;Node12 -->
<g id="edge11_Node000009_Node000012" class="edge">
<title>Node9&#45;&gt;Node12</title>
<g id="a_edge11_Node000009_Node000012"><a xlink:title=" ">
<path fill="none" stroke="#63b8ff" d="M628.09,-394.94C635.28,-392.05 642.13,-388.32 648,-383.5 676.57,-360.03 655.08,-331.54 684,-308.5 686.1,-306.83 688.31,-305.3 690.62,-303.9"/>
<polygon fill="#63b8ff" stroke="#63b8ff" points="692.63,-306.8 699.92,-299.11 689.43,-300.58 692.63,-306.8"/>
</a>
</g>
</g>
<!-- Node13 -->
<g id="Node000013" class="node">
<title>Node13</title>
<g id="a_Node000013"><a xlink:href="classGameWorld.html#aaebb0cdb6bcf4382893ce438832db63e" target="_top" xlink:title="Register a player on HELLO_UDP.">
<polygon fill="white" stroke="#666666" points="843,-373 695,-373 695,-354 843,-354 843,-373"/>
<text text-anchor="middle" x="769" y="-361" font-family="Helvetica,sans-Serif" font-size="10.00">GameWorld::registerPlayer</text>
</a>
</g>
</g>
<!-- Node9&#45;&gt;Node13 -->
<g id="edge12_Node000009_Node000013" class="edge">
<title>Node9&#45;&gt;Node13</title>
<g id="a_edge12_Node000009_Node000013"><a xlink:title=" ">
<path fill="none" stroke="#63b8ff" d="M613.23,-394.99C642.38,-389.06 680.08,-381.39 710.98,-375.1"/>
<polygon fill="#63b8ff" stroke="#63b8ff" points="712.07,-378.45 721.17,-373.03 710.67,-371.59 712.07,-378.45"/>
</a>
</g>
</g>
<!-- Node14 -->
<g id="Node000014" class="node">
<title>Node14</title>
<g id="a_Node000014"><a xlink:href="classGameWorld.html#a163fb2fed54650ebba995df1e64c39db" target="_top" xlink:title="Prefix used in log output.">
<polygon fill="white" stroke="#666666" points="839,-496 699,-496 699,-477 839,-477 839,-496"/>
<text text-anchor="middle" x="769" y="-484" font-family="Helvetica,sans-Serif" font-size="10.00">GameWorld::setLogPrefix</text>
</a>
</g>
</g>
<!-- Node9&#45;&gt;Node14 -->
<g id="edge14_Node000009_Node000014" class="edge">
<title>Node9&#45;&gt;Node14</title>
<g id="a_edge14_Node000009_Node000014"><a xlink:title=" ">
<path fill="none" stroke="#63b8ff" d="M591.09,-414.02C607.63,-420.82 629.68,-430.65 648,-441.5 665.21,-451.69 665.8,-460.21 684,-468.5 688.43,-470.52 693.1,-472.31 697.87,-473.91"/>
<polygon fill="#63b8ff" stroke="#63b8ff" points="697.19,-477.36 707.77,-476.92 699.22,-470.66 697.19,-477.36"/>
</a>
</g>
</g>
<!-- Node15 -->
<g id="Node000015" class="node">
<title>Node15</title>
<g id="a_Node000015"><a xlink:href="classSessionManager.html#af2596853b8042076df0c1022468eaec3" target="_top" xlink:title="Register the client&#39;s UDP address.">
<polygon fill="white" stroke="#666666" points="849,-459 689,-459 689,-440 849,-440 849,-459"/>
<text text-anchor="middle" x="769" y="-447" font-family="Helvetica,sans-Serif" font-size="10.00">SessionManager::setUdpAddr</text>
</a>
</g>
</g>
<!-- Node9&#45;&gt;Node15 -->
<g id="edge15_Node000009_Node000015" class="edge">
<title>Node9&#45;&gt;Node15</title>
<g id="a_edge15_Node000009_Node000015"><a xlink:title=" ">
<path fill="none" stroke="#63b8ff" d="M609.23,-414.04C640.22,-420.96 682.32,-430.37 715.38,-437.75"/>
<polygon fill="#63b8ff" stroke="#63b8ff" points="714.81,-441.21 725.33,-439.97 716.33,-434.37 714.81,-441.21"/>
</a>
</g>
</g>
<!-- Node16&#45;&gt;Node11 -->
<g id="edge17_Node000016_Node000011" class="edge">
<title>Node16&#45;&gt;Node11</title>
<g id="a_edge17_Node000016_Node000011"><a xlink:title=" ">
<path fill="none" stroke="#63b8ff" d="M646.72,-327.1C657.81,-327.05 669.25,-326.99 680.46,-326.93"/>
<polygon fill="#63b8ff" stroke="#63b8ff" points="680.7,-330.43 690.68,-326.88 680.67,-323.43 680.7,-330.43"/>
</a>
</g>
</g>
<!-- Node16&#45;&gt;Node12 -->
<g id="edge18_Node000016_Node000012" class="edge">
<title>Node16&#45;&gt;Node12</title>
<g id="a_edge18_Node000016_Node000012"><a xlink:title=" ">
<path fill="none" stroke="#63b8ff" d="M617.09,-317.96C644.51,-312.79 678.6,-306.36 707.43,-300.92"/>
<polygon fill="#63b8ff" stroke="#63b8ff" points="708.21,-304.34 717.39,-299.04 706.92,-297.46 708.21,-304.34"/>
</a>
</g>
</g>
<!-- Node17&#45;&gt;Node11 -->
<g id="edge20_Node000017_Node000011" class="edge">
<title>Node17&#45;&gt;Node11</title>
<g id="a_edge20_Node000017_Node000011"><a xlink:title=" ">
<path fill="none" stroke="#63b8ff" d="M617.09,-354.96C644.51,-349.79 678.6,-343.36 707.43,-337.92"/>
<polygon fill="#63b8ff" stroke="#63b8ff" points="708.21,-341.34 717.39,-336.04 706.92,-334.46 708.21,-341.34"/>
</a>
</g>
</g>
<!-- Node18&#45;&gt;Node12 -->
<g id="edge25_Node000018_Node000012" class="edge">
<title>Node18&#45;&gt;Node12</title>
<g id="a_edge25_Node000018_Node000012"><a xlink:title=" ">
<path fill="none" stroke="#63b8ff" d="M366.57,-213.2C389.66,-228.53 437.6,-257.91 483,-270.5 549.38,-288.9 627.64,-292.93 685.33,-292.76"/>
<polygon fill="#63b8ff" stroke="#63b8ff" points="685.52,-296.26 695.5,-292.69 685.47,-289.26 685.52,-296.26"/>
</a>
</g>
</g>
<!-- Node19 -->
<g id="Node000019" class="node">
<title>Node19</title>
<g id="a_Node000019"><a xlink:href="classPacket.html#abfcd427a2ca434ac71592334517638fb" target="_top" xlink:title="Deserialize a packet from a raw byte buffer.">
<polygon fill="white" stroke="#666666" points="619,-213 512,-213 512,-194 619,-194 619,-213"/>
<text text-anchor="middle" x="565.5" y="-201" font-family="Helvetica,sans-Serif" font-size="10.00">Packet::deserialize</text>
</a>
</g>
</g>
<!-- Node18&#45;&gt;Node19 -->
<g id="edge23_Node000018_Node000019" class="edge">
<title>Node18&#45;&gt;Node19</title>
<g id="a_edge23_Node000018_Node000019"><a xlink:title=" ">
<path fill="none" stroke="#63b8ff" d="M435.07,-203.5C457.25,-203.5 480.87,-203.5 501.78,-203.5"/>
<polygon fill="#63b8ff" stroke="#63b8ff" points="501.81,-207 511.81,-203.5 501.81,-200 501.81,-207"/>
</a>
</g>
</g>
<!-- Node20 -->
<g id="Node000020" class="node">
<title>Node20</title>
<g id="a_Node000020"><a xlink:href="classNetwork_1_1TransportLayer_1_1UDPSocket.html#a429dc0b0e539ab051d785b7145e42bf7" target="_top" xlink:title="Get the sender address of the last received packet.">
<polygon fill="white" stroke="#666666" points="642.5,-175.5 488.5,-175.5 488.5,-145.5 642.5,-145.5 642.5,-175.5"/>
<text text-anchor="start" x="496.5" y="-163.5" font-family="Helvetica,sans-Serif" font-size="10.00">Network::TransportLayer</text>
<text text-anchor="middle" x="565.5" y="-152.5" font-family="Helvetica,sans-Serif" font-size="10.00">::UDPSocket::getSenderAddr</text>
</a>
</g>
</g>
<!-- Node18&#45;&gt;Node20 -->
<g id="edge24_Node000018_Node000020" class="edge">
<title>Node18&#45;&gt;Node20</title>
<g id="a_edge24_Node000018_Node000020"><a xlink:title=" ">
<path fill="none" stroke="#63b8ff" d="M399.55,-193.96C423.34,-189.13 452.95,-183.13 480.48,-177.54"/>
<polygon fill="#63b8ff" stroke="#63b8ff" points="481.41,-180.92 490.52,-175.51 480.02,-174.06 481.41,-180.92"/>
</a>
</g>
</g>
<!-- Node21 -->
<g id="Node000021" class="node">
<title>Node21</title>
<g id="a_Node000021"><a xlink:href="classNetwork_1_1TransportLayer_1_1UDPSocket.html#a34b53ce1224f81fc6809a24412854294" target="_top" xlink:title="Read bytes from the UDP socket.">
<polygon fill="white" stroke="#666666" points="633.5,-261.5 497.5,-261.5 497.5,-231.5 633.5,-231.5 633.5,-261.5"/>
<text text-anchor="start" x="505.5" y="-249.5" font-family="Helvetica,sans-Serif" font-size="10.00">Network::TransportLayer</text>
<text text-anchor="middle" x="565.5" y="-238.5" font-family="Helvetica,sans-Serif" font-size="10.00">::UDPSocket::readByte</text>
</a>
</g>
</g>
<!-- Node18&#45;&gt;Node21 -->
<g id="edge26_Node000018_Node000021" class="edge">
<title>Node18&#45;&gt;Node21</title>
<g id="a_edge26_Node000018_Node000021"><a xlink:title=" ">
<path fill="none" stroke="#63b8ff" d="M399.55,-213.04C425.41,-218.29 458.15,-224.93 487.62,-230.91"/>
<polygon fill="#63b8ff" stroke="#63b8ff" points="486.98,-234.35 497.48,-232.91 488.37,-227.49 486.98,-234.35"/>
</a>
</g>
</g>
<!-- Node22 -->
<g id="Node000022" class="node">
<title>Node22</title>
<g id="a_Node000022"><a xlink:href="classNetwork_1_1TransportLayer_1_1ASocket.html#a50cace88b622aa442d901434ecc33bd8" target="_top" xlink:title="Check the socket state for read, write, or exception.">
<polygon fill="white" stroke="#666666" points="837,-261.5 701,-261.5 701,-231.5 837,-231.5 837,-261.5"/>
<text text-anchor="start" x="709" y="-249.5" font-family="Helvetica,sans-Serif" font-size="10.00">Network::TransportLayer</text>
<text text-anchor="middle" x="769" y="-238.5" font-family="Helvetica,sans-Serif" font-size="10.00">::ASocket::sockState</text>
</a>
</g>
</g>
<!-- Node21&#45;&gt;Node22 -->
<g id="edge27_Node000021_Node000022" class="edge">
<title>Node21&#45;&gt;Node22</title>
<g id="a_edge27_Node000021_Node000022"><a xlink:title=" ">
<path fill="none" stroke="#63b8ff" d="M633.6,-246.5C651.94,-246.5 671.96,-246.5 690.82,-246.5"/>
<polygon fill="#63b8ff" stroke="#63b8ff" points="690.85,-250 700.85,-246.5 690.85,-243 690.85,-250"/>
</a>
</g>
</g>
<!-- Node25&#45;&gt;Node23 -->
<g id="edge31_Node000025_Node000023" class="edge">
<title>Node25&#45;&gt;Node23</title>
<g id="a_edge31_Node000025_Node000023"><a xlink:title=" ">
<path fill="none" stroke="#63b8ff" d="M447.03,-120.82C460.01,-120.46 473.23,-120.08 485.88,-119.73"/>
<polygon fill="#63b8ff" stroke="#63b8ff" points="486,-123.22 495.89,-119.44 485.8,-116.23 486,-123.22"/>
</a>
</g>
</g>
<!-- Node25&#45;&gt;Node24 -->
<g id="edge32_Node000025_Node000024" class="edge">
<title>Node25&#45;&gt;Node24</title>
<g id="a_edge32_Node000025_Node000024"><a xlink:title=" ">
<path fill="none" stroke="#63b8ff" d="M399.55,-113.96C431.39,-107.5 473.63,-98.93 507.4,-92.08"/>
<polygon fill="#63b8ff" stroke="#63b8ff" points="508.48,-95.43 517.58,-90.02 507.09,-88.57 508.48,-95.43"/>
</a>
</g>
</g>
</g>
</svg>
