<?xml version="1.0" encoding="UTF-8" standalone="no"?>
<!DOCTYPE svg PUBLIC "-//W3C//DTD SVG 1.1//EN"
 "http://www.w3.org/Graphics/SVG/1.1/DTD/svg11.dtd">
<!-- Generated by graphviz version 2.43.0 (0)
 -->
<!-- Title: Network/Client/GameState.hpp Pages: 1 -->
<svg width="451pt" height="280pt"
 viewBox="0.00 0.00 451.00 280.00" xmlns="http://www.w3.org/2000/svg" xmlns:xlink="http://www.w3.org/1999/xlink">
<g id="graph0" class="graph" transform="scale(1 1) rotate(0) translate(4 276)">
<title>Network/Client/GameState.hpp</title>
<!-- Node1 -->
<g id="Node000001" class="node">
<title>Node1</title>
<g id="a_Node000001"><a xlink:title=" ">
<polygon fill="#999999" stroke="#666666" points="295,-272 127,-272 127,-253 295,-253 295,-272"/>
<text text-anchor="middle" x="211" y="-260" font-family="Helvetica,sans-Serif" font-size="10.00">Network/Client/GameState.hpp</text>
</a>
</g>
</g>
<!-- Node2 -->
<g id="Node000002" class="node">
<title>Node2</title>
<g id="a_Node000002"><a xlink:href="NetworkClient_8cpp.html" target="_top" xlink:title=" ">
<polygon fill="white" stroke="#666666" points="182,-156.5 0,-156.5 0,-137.5 182,-137.5 182,-156.5"/>
<text text-anchor="middle" x="91" y="-144.5" font-family="Helvetica,sans-Serif" font-size="10.00">Network/Client/NetworkClient.cpp</text>
</a>
</g>
</g>
<!-- Node1&#45;&gt;Node2 -->
<g id="edge1_Node000001_Node000002" class="edge">
<title>Node1&#45;&gt;Node2</title>
<g id="a_edge1_Node000001_Node000002"><a xlink:title=" ">
<path fill="none" stroke="#63b8ff" d="M162.18,-249.73C143.51,-242.98 123.49,-232.62 110,-217 94.9,-199.51 91.71,-171.01 91.1,-156.73"/>
<polygon fill="#63b8ff" stroke="#63b8ff" points="161.18,-253.09 171.77,-252.94 163.4,-246.45 161.18,-253.09"/>
</a>
</g>
</g>
<!-- Node3 -->
<g id="Node000003" class="node">
<title>Node3</title>
<g id="a_Node000003"><a xlink:href="NetworkClient_8hpp.html" target="_top" xlink:title=" ">
<polygon fill="white" stroke="#666666" points="302.5,-217 119.5,-217 119.5,-198 302.5,-198 302.5,-217"/>
<text text-anchor="middle" x="211" y="-205" font-family="Helvetica,sans-Serif" font-size="10.00">Network/Client/NetworkClient.hpp</text>
</a>
</g>
</g>
<!-- Node1&#45;&gt;Node3 -->
<g id="edge2_Node000001_Node000003" class="edge">
<title>Node1&#45;&gt;Node3</title>
<g id="a_edge2_Node000001_Node000003"><a xlink:title=" ">
<path fill="none" stroke="#63b8ff" d="M211,-242.66C211,-233.93 211,-223.99 211,-217.09"/>
<polygon fill="#63b8ff" stroke="#63b8ff" points="207.5,-242.75 211,-252.75 214.5,-242.75 207.5,-242.75"/>
</a>
</g>
</g>
<!-- Node4 -->
<g id="Node000004" class="node">
<title>Node4</title>
<g id="a_Node000004"><a xlink:href="GraphicClient_8hpp.html" target="_top" xlink:title=" ">
<polygon fill="white" stroke="#666666" points="361.5,-96 226.5,-96 226.5,-66 361.5,-66 361.5,-96"/>
<text text-anchor="start" x="234.5" y="-84" font-family="Helvetica,sans-Serif" font-size="10.00">graphical&#45;client/Graphic</text>
<text text-anchor="middle" x="294" y="-73" font-family="Helvetica,sans-Serif" font-size="10.00">Client/GraphicClient.hpp</text>
</a>
</g>
</g>
<!-- Node1&#45;&gt;Node4 -->
<g id="edge9_Node000001_Node000004" class="edge">
<title>Node1&#45;&gt;Node4</title>
<g id="a_edge9_Node000001_Node000004"><a xlink:title=" ">
<path fill="none" stroke="#63b8ff" d="M250.68,-249.51C288.32,-235.56 341.64,-208.3 359,-162 363.68,-149.52 364.89,-143.96 359,-132 351.39,-116.55 336.45,-104.53 322.81,-96.16"/>
<polygon fill="#63b8ff" stroke="#63b8ff" points="249.26,-246.3 241,-252.94 251.6,-252.9 249.26,-246.3"/>
</a>
</g>
</g>
<!-- Node3&#45;&gt;Node2 -->
<g id="edge3_Node000003_Node000002" class="edge">
<title>Node3&#45;&gt;Node2</title>
<g id="a_edge3_Node000003_Node000002"><a xlink:title=" ">
<path fill="none" stroke="#63b8ff" d="M184.3,-193.48C161.17,-182.21 128.39,-166.23 108.47,-156.52"/>
<polygon fill="#63b8ff" stroke="#63b8ff" points="183.03,-196.76 193.55,-197.99 186.1,-190.47 183.03,-196.76"/>
</a>
</g>
</g>
<!-- Node3&#45;&gt;Node4 -->
<g id="edge4_Node000003_Node000004" class="edge">
<title>Node3&#45;&gt;Node4</title>
<g id="a_edge4_Node000003_Node000004"><a xlink:title=" ">
<path fill="none" stroke="#63b8ff" d="M212.07,-187.77C213.74,-171.83 218.03,-148.88 229,-132 238.69,-117.08 254.42,-104.81 267.97,-96.15"/>
<polygon fill="#63b8ff" stroke="#63b8ff" points="208.56,-187.72 211.25,-197.96 215.54,-188.27 208.56,-187.72"/>
</a>
</g>
</g>
<!-- Node7 -->
<g id="Node000007" class="node">
<title>Node7</title>
<g id="a_Node000007"><a xlink:href="System_8hpp.html" target="_top" xlink:title=" ">
<polygon fill="white" stroke="#666666" points="350,-162 238,-162 238,-132 350,-132 350,-162"/>
<text text-anchor="start" x="246" y="-150" font-family="Helvetica,sans-Serif" font-size="10.00">graphical&#45;client/ecs</text>
<text text-anchor="middle" x="294" y="-139" font-family="Helvetica,sans-Serif" font-size="10.00">/System.hpp</text>
</a>
</g>
</g>
<!-- Node3&#45;&gt;Node7 -->
<g id="edge7_Node000003_Node000007" class="edge">
<title>Node3&#45;&gt;Node7</title>
<g id="a_edge7_Node000003_Node000007"><a xlink:title=" ">
<path fill="none" stroke="#63b8ff" d="M231.53,-192.03C244.48,-182.9 261.12,-171.17 273.97,-162.11"/>
<polygon fill="#63b8ff" stroke="#63b8ff" points="229.4,-189.25 223.25,-197.87 233.44,-194.97 229.4,-189.25"/>
</a>
</g>
</g>
<!-- Node5 -->
<g id="Node000005" class="node">
<title>Node5</title>
<g id="a_Node000005"><a xlink:href="client_8cpp.html" target="_top" xlink:title=" ">
<polygon fill="white" stroke="#666666" points="291,-30 135,-30 135,0 291,0 291,-30"/>
<text text-anchor="start" x="143" y="-18" font-family="Helvetica,sans-Serif" font-size="10.00">/home/loic/EPITECH</text>
<text text-anchor="middle" x="213" y="-7" font-family="Helvetica,sans-Serif" font-size="10.00">/rtype/Mystic&#45;Type/client.cpp</text>
</a>
</g>
</g>
<!-- Node4&#45;&gt;Node5 -->
<g id="edge5_Node000004_Node000005" class="edge">
<title>Node4&#45;&gt;Node5</title>
<g id="a_edge5_Node000004_Node000005"><a xlink:title=" ">
<path fill="none" stroke="#63b8ff" d="M268.03,-59.48C255.92,-49.91 241.82,-38.77 230.93,-30.16"/>
<polygon fill="#63b8ff" stroke="#63b8ff" points="266.01,-62.34 276.02,-65.8 270.35,-56.85 266.01,-62.34"/>
</a>
</g>
</g>
<!-- Node6 -->
<g id="Node000006" class="node">
<title>Node6</title>
<g id="a_Node000006"><a xlink:href="GraphicClient_8cpp.html" target="_top" xlink:title=" ">
<polygon fill="white" stroke="#666666" points="443,-30 309,-30 309,0 443,0 443,-30"/>
<text text-anchor="start" x="317" y="-18" font-family="Helvetica,sans-Serif" font-size="10.00">graphical&#45;client/Graphic</text>
<text text-anchor="middle" x="376" y="-7" font-family="Helvetica,sans-Serif" font-size="10.00">Client/GraphicClient.cpp</text>
</a>
</g>
</g>
<!-- Node4&#45;&gt;Node6 -->
<g id="edge6_Node000004_Node000006" class="edge">
<title>Node4&#45;&gt;Node6</title>
<g id="a_edge6_Node000004_Node000006"><a xlink:title=" ">
<path fill="none" stroke="#63b8ff" d="M320.29,-59.48C332.55,-49.91 346.82,-38.77 357.85,-30.16"/>
<polygon fill="#63b8ff" stroke="#63b8ff" points="317.93,-56.88 312.2,-65.8 322.24,-62.4 317.93,-56.88"/>
</a>
</g>
</g>
<!-- Node7&#45;&gt;Node4 -->
<g id="edge8_Node000007_Node000004" class="edge">
<title>Node7&#45;&gt;Node4</title>
<g id="a_edge8_Node000007_Node000004"><a xlink:title=" ">
<path fill="none" stroke="#63b8ff" d="M294,-121.54C294,-112.96 294,-103.61 294,-96.16"/>
<polygon fill="#63b8ff" stroke="#63b8ff" points="290.5,-121.8 294,-131.8 297.5,-121.8 290.5,-121.8"/>
</a>
</g>
</g>
</g>
</svg>
