<?xml version="1.0" encoding="UTF-8" standalone="no"?>
<!DOCTYPE svg PUBLIC "-//W3C//DTD SVG 1.1//EN"
 "http://www.w3.org/Graphics/SVG/1.1/DTD/svg11.dtd">
<!-- Generated by graphviz version 2.43.0 (0)
 -->
<!-- Title: Network/TransportLayer/UDP/GameWorld.hpp Pages: 1 -->
<svg width="505pt" height="170pt"
 viewBox="0.00 0.00 505.00 170.00" xmlns="http://www.w3.org/2000/svg" xmlns:xlink="http://www.w3.org/1999/xlink">
<g id="graph0" class="graph" transform="scale(1 1) rotate(0) translate(4 166)">
<title>Network/TransportLayer/UDP/GameWorld.hpp</title>
<!-- Node1 -->
<g id="Node000001" class="node">
<title>Node1</title>
<g id="a_Node000001"><a xlink:title=" ">
<polygon fill="#999999" stroke="#666666" points="242,-162 109,-162 109,-132 242,-132 242,-162"/>
<text text-anchor="start" x="117" y="-150" font-family="Helvetica,sans-Serif" font-size="10.00">Network/TransportLayer</text>
<text text-anchor="middle" x="175.5" y="-139" font-family="Helvetica,sans-Serif" font-size="10.00">/UDP/GameWorld.hpp</text>
</a>
</g>
</g>
<!-- Node2 -->
<g id="Node000002" class="node">
<title>Node2</title>
<g id="a_Node000002"><a xlink:href="GameWorld_8cpp.html" target="_top" xlink:title=" ">
<polygon fill="white" stroke="#666666" points="163,-96 30,-96 30,-66 163,-66 163,-96"/>
<text text-anchor="start" x="38" y="-84" font-family="Helvetica,sans-Serif" font-size="10.00">Network/TransportLayer</text>
<text text-anchor="middle" x="96.5" y="-73" font-family="Helvetica,sans-Serif" font-size="10.00">/UDP/GameWorld.cpp</text>
</a>
</g>
</g>
<!-- Node1&#45;&gt;Node2 -->
<g id="edge1_Node000001_Node000002" class="edge">
<title>Node1&#45;&gt;Node2</title>
<g id="a_edge1_Node000001_Node000002"><a xlink:title=" ">
<path fill="none" stroke="#63b8ff" d="M150.17,-125.48C138.36,-115.91 124.61,-104.77 113.98,-96.16"/>
<polygon fill="#63b8ff" stroke="#63b8ff" points="147.99,-128.22 157.97,-131.8 152.4,-122.78 147.99,-128.22"/>
</a>
</g>
</g>
<!-- Node3 -->
<g id="Node000003" class="node">
<title>Node3</title>
<g id="a_Node000003"><a xlink:href="UDPGameServer_8hpp.html" target="_top" xlink:title=" ">
<polygon fill="white" stroke="#666666" points="327.5,-96 181.5,-96 181.5,-66 327.5,-66 327.5,-96"/>
<text text-anchor="start" x="189.5" y="-84" font-family="Helvetica,sans-Serif" font-size="10.00">Network/TransportLayer</text>
<text text-anchor="middle" x="254.5" y="-73" font-family="Helvetica,sans-Serif" font-size="10.00">/UDP/UDPGameServer.hpp</text>
</a>
</g>
</g>
<!-- Node1&#45;&gt;Node3 -->
<g id="edge2_Node000001_Node000003" class="edge">
<title>Node1&#45;&gt;Node3</title>
<g id="a_edge2_Node000001_Node000003"><a xlink:title=" ">
<path fill="none" stroke="#63b8ff" d="M200.83,-125.48C212.64,-115.91 226.39,-104.77 237.02,-96.16"/>
<polygon fill="#63b8ff" stroke="#63b8ff" points="198.6,-122.78 193.03,-131.8 203.01,-128.22 198.6,-122.78"/>
</a>
</g>
</g>
<!-- Node4 -->
<g id="Node000004" class="node">
<title>Node4</title>
<g id="a_Node000004"><a xlink:href="game_8cpp.html" target="_top" xlink:title=" ">
<polygon fill="white" stroke="#666666" points="157,-30 0,-30 0,0 157,0 157,-30"/>
<text text-anchor="start" x="8" y="-18" font-family="Helvetica,sans-Serif" font-size="10.00">/home/loic/EPITECH</text>
<text text-anchor="middle" x="78.5" y="-7" font-family="Helvetica,sans-Serif" font-size="10.00">/rtype/Mystic&#45;Type/game.cpp</text>
</a>
</g>
</g>
<!-- Node3&#45;&gt;Node4 -->
<g id="edge3_Node000003_Node000004" class="edge">
<title>Node3&#45;&gt;Node4</title>
<g id="a_edge3_Node000003_Node000004"><a xlink:title=" ">
<path fill="none" stroke="#63b8ff" d="M206.26,-62.46C178.18,-52.25 143.26,-39.55 117.03,-30.01"/>
<polygon fill="#63b8ff" stroke="#63b8ff" points="205.28,-65.83 215.88,-65.95 207.67,-59.25 205.28,-65.83"/>
</a>
</g>
</g>
<!-- Node5 -->
<g id="Node000005" class="node">
<title>Node5</title>
<g id="a_Node000005"><a xlink:href="server_8cpp.html" target="_top" xlink:title=" ">
<polygon fill="white" stroke="#666666" points="334,-30 175,-30 175,0 334,0 334,-30"/>
<text text-anchor="start" x="183" y="-18" font-family="Helvetica,sans-Serif" font-size="10.00">/home/loic/EPITECH</text>
<text text-anchor="middle" x="254.5" y="-7" font-family="Helvetica,sans-Serif" font-size="10.00">/rtype/Mystic&#45;Type/server.cpp</text>
</a>
</g>
</g>
<!-- Node3&#45;&gt;Node5 -->
<g id="edge4_Node000003_Node000005" class="edge">
<title>Node3&#45;&gt;Node5</title>
<g id="a_edge4_Node000003_Node000005"><a xlink:title=" ">
<path fill="none" stroke="#63b8ff" d="M254.5,-55.54C254.5,-46.96 254.5,-37.61 254.5,-30.16"/>
<polygon fill="#63b8ff" stroke="#63b8ff" points="251,-55.8 254.5,-65.8 258,-55.8 251,-55.8"/>
</a>
</g>
</g>
<!-- Node6 -->
<g id="Node000006" class="node">
<title>Node6</title>
<g id="a_Node000006"><a xlink:href="UDPGameServer_8cpp.html" target="_top" xlink:title=" ">
<polygon fill="white" stroke="#666666" points="497,-30 352,-30 352,0 497,0 497,-30"/>
<text text-anchor="start" x="360" y="-18" font-family="Helvetica,sans-Serif" font-size="10.00">Network/TransportLayer</text>
<text text-anchor="middle" x="424.5" y="-7" font-family="Helvetica,sans-Serif" font-size="10.00">/UDP/UDPGameServer.cpp</text>
</a>
</g>
</g>
<!-- Node3&#45;&gt;Node6 -->
<g id="edge5_Node000003_Node000006" class="edge">
<title>Node3&#45;&gt;Node6</title>
<g id="a_edge5_Node000003_Node000006"><a xlink:title=" ">
<path fill="none" stroke="#63b8ff" d="M301.46,-62.32C328.51,-52.14 362.05,-39.51 387.28,-30.01"/>
<polygon fill="#63b8ff" stroke="#63b8ff" points="299.93,-59.16 291.81,-65.95 302.4,-65.71 299.93,-59.16"/>
</a>
</g>
</g>
</g>
</svg>
