<?xml version="1.0" encoding="UTF-8" standalone="no"?>
<!DOCTYPE svg PUBLIC "-//W3C//DTD SVG 1.1//EN"
 "http://www.w3.org/Graphics/SVG/1.1/DTD/svg11.dtd">
<!-- Generated by graphviz version 2.43.0 (0)
 -->
<!-- Title: graphical&#45;client/GraphicClient/GraphicClient.cpp Pages: 1 -->
<svg width="1497pt" height="456pt"
 viewBox="0.00 0.00 1497.00 456.00" xmlns="http://www.w3.org/2000/svg" xmlns:xlink="http://www.w3.org/1999/xlink">
<g id="graph0" class="graph" transform="scale(1 1) rotate(0) translate(4 452)">
<title>graphical&#45;client/GraphicClient/GraphicClient.cpp</title>
<!-- Node1 -->
<g id="Node000001" class="node">
<title>Node1</title>
<g id="a_Node000001"><a xlink:title=" ">
<polygon fill="#999999" stroke="#666666" points="930,-448 796,-448 796,-418 930,-418 930,-448"/>
<text text-anchor="start" x="804" y="-436" font-family="Helvetica,sans-Serif" font-size="10.00">graphical&#45;client/Graphic</text>
<text text-anchor="middle" x="863" y="-425" font-family="Helvetica,sans-Serif" font-size="10.00">Client/GraphicClient.cpp</text>
</a>
</g>
</g>
<!-- Node2 -->
<g id="Node000002" class="node">
<title>Node2</title>
<g id="a_Node000002"><a xlink:href="GraphicClient_8hpp.html" target="_top" xlink:title=" ">
<polygon fill="white" stroke="#666666" points="671.5,-382 536.5,-382 536.5,-352 671.5,-352 671.5,-382"/>
<text text-anchor="start" x="544.5" y="-370" font-family="Helvetica,sans-Serif" font-size="10.00">graphical&#45;client/Graphic</text>
<text text-anchor="middle" x="604" y="-359" font-family="Helvetica,sans-Serif" font-size="10.00">Client/GraphicClient.hpp</text>
</a>
</g>
</g>
<!-- Node1&#45;&gt;Node2 -->
<g id="edge1_Node000001_Node000002" class="edge">
<title>Node1&#45;&gt;Node2</title>
<g id="a_edge1_Node000001_Node000002"><a xlink:title=" ">
<path fill="none" stroke="#63b8ff" d="M806.16,-417.95C766.18,-408.08 712.54,-394.82 670.56,-384.45"/>
<polygon fill="#63b8ff" stroke="#63b8ff" points="671.25,-381.01 660.71,-382.01 669.57,-387.81 671.25,-381.01"/>
</a>
</g>
</g>
<!-- Node11 -->
<g id="Node000011" class="node">
<title>Node11</title>
<g id="a_Node000011"><a xlink:title=" ">
<polygon fill="#e0e0e0" stroke="#999999" points="84,-129 26,-129 26,-110 84,-110 84,-129"/>
<text text-anchor="middle" x="55" y="-117" font-family="Helvetica,sans-Serif" font-size="10.00">memory</text>
</a>
</g>
</g>
<!-- Node1&#45;&gt;Node11 -->
<g id="edge62_Node000001_Node000011" class="edge">
<title>Node1&#45;&gt;Node11</title>
<g id="a_edge62_Node000001_Node000011"><a xlink:title=" ">
<path fill="none" stroke="#63b8ff" d="M796,-429.37C593.23,-420.54 0,-387.82 0,-307.5 0,-307.5 0,-307.5 0,-245 0,-203.67 25.67,-160.7 41.94,-137.62"/>
<polygon fill="#63b8ff" stroke="#63b8ff" points="44.96,-139.41 48.03,-129.27 39.31,-135.29 44.96,-139.41"/>
</a>
</g>
</g>
<!-- Node29 -->
<g id="Node000029" class="node">
<title>Node29</title>
<g id="a_Node000029"><a xlink:href="Components_8hpp.html" target="_top" xlink:title=" ">
<polygon fill="white" stroke="#666666" points="201.5,-255.5 102.5,-255.5 102.5,-236.5 201.5,-236.5 201.5,-255.5"/>
<text text-anchor="middle" x="152" y="-243.5" font-family="Helvetica,sans-Serif" font-size="10.00">Components.hpp</text>
</a>
</g>
</g>
<!-- Node1&#45;&gt;Node29 -->
<g id="edge55_Node000001_Node000029" class="edge">
<title>Node1&#45;&gt;Node29</title>
<g id="a_edge55_Node000001_Node000029"><a xlink:title=" ">
<path fill="none" stroke="#63b8ff" d="M795.56,-430.21C678.13,-424.78 430.82,-403.02 244,-316 214.76,-302.38 185.78,-278.47 168.39,-262.68"/>
<polygon fill="#63b8ff" stroke="#63b8ff" points="170.53,-259.9 160.82,-255.66 165.77,-265.03 170.53,-259.9"/>
</a>
</g>
</g>
<!-- Node31 -->
<g id="Node000031" class="node">
<title>Node31</title>
<g id="a_Node000031"><a xlink:title=" ">
<polygon fill="#e0e0e0" stroke="#999999" points="526,-255.5 462,-255.5 462,-236.5 526,-236.5 526,-255.5"/>
<text text-anchor="middle" x="494" y="-243.5" font-family="Helvetica,sans-Serif" font-size="10.00">algorithm</text>
</a>
</g>
</g>
<!-- Node1&#45;&gt;Node31 -->
<g id="edge56_Node000001_Node000031" class="edge">
<title>Node1&#45;&gt;Node31</title>
<g id="a_edge56_Node000001_Node000031"><a xlink:title=" ">
<path fill="none" stroke="#63b8ff" d="M834.25,-417.86C814.41,-408 787.48,-394.44 764,-382 695.27,-345.57 680.86,-331.22 611,-297 582.53,-283.06 549.22,-269.03 525.43,-259.4"/>
<polygon fill="#63b8ff" stroke="#63b8ff" points="526.45,-256.04 515.87,-255.56 523.84,-262.53 526.45,-256.04"/>
</a>
</g>
</g>
<!-- Node33 -->
<g id="Node000033" class="node">
<title>Node33</title>
<g id="a_Node000033"><a xlink:title=" ">
<polygon fill="#e0e0e0" stroke="#999999" points="821.5,-376.5 772.5,-376.5 772.5,-357.5 821.5,-357.5 821.5,-376.5"/>
<text text-anchor="middle" x="797" y="-364.5" font-family="Helvetica,sans-Serif" font-size="10.00">cctype</text>
</a>
</g>
</g>
<!-- Node1&#45;&gt;Node33 -->
<g id="edge57_Node000001_Node000033" class="edge">
<title>Node1&#45;&gt;Node33</title>
<g id="a_edge57_Node000001_Node000033"><a xlink:title=" ">
<path fill="none" stroke="#63b8ff" d="M848.35,-417.8C838.06,-407.82 824.28,-394.46 813.59,-384.09"/>
<polygon fill="#63b8ff" stroke="#63b8ff" points="815.74,-381.29 806.12,-376.84 810.86,-386.32 815.74,-381.29"/>
</a>
</g>
</g>
<!-- Node34 -->
<g id="Node000034" class="node">
<title>Node34</title>
<g id="a_Node000034"><a xlink:title=" ">
<polygon fill="#e0e0e0" stroke="#999999" points="886.5,-376.5 839.5,-376.5 839.5,-357.5 886.5,-357.5 886.5,-376.5"/>
<text text-anchor="middle" x="863" y="-364.5" font-family="Helvetica,sans-Serif" font-size="10.00">cmath</text>
</a>
</g>
</g>
<!-- Node1&#45;&gt;Node34 -->
<g id="edge58_Node000001_Node000034" class="edge">
<title>Node1&#45;&gt;Node34</title>
<g id="a_edge58_Node000001_Node000034"><a xlink:title=" ">
<path fill="none" stroke="#63b8ff" d="M863,-417.8C863,-408.7 863,-396.79 863,-386.9"/>
<polygon fill="#63b8ff" stroke="#63b8ff" points="866.5,-386.84 863,-376.84 859.5,-386.84 866.5,-386.84"/>
</a>
</g>
</g>
<!-- Node35 -->
<g id="Node000035" class="node">
<title>Node35</title>
<g id="a_Node000035"><a xlink:title=" ">
<polygon fill="#e0e0e0" stroke="#999999" points="955,-376.5 905,-376.5 905,-357.5 955,-357.5 955,-376.5"/>
<text text-anchor="middle" x="930" y="-364.5" font-family="Helvetica,sans-Serif" font-size="10.00">cstring</text>
</a>
</g>
</g>
<!-- Node1&#45;&gt;Node35 -->
<g id="edge59_Node000001_Node000035" class="edge">
<title>Node1&#45;&gt;Node35</title>
<g id="a_edge59_Node000001_Node000035"><a xlink:title=" ">
<path fill="none" stroke="#63b8ff" d="M877.87,-417.8C888.42,-407.72 902.58,-394.19 913.48,-383.78"/>
<polygon fill="#63b8ff" stroke="#63b8ff" points="915.93,-386.28 920.74,-376.84 911.09,-381.22 915.93,-386.28"/>
</a>
</g>
</g>
<!-- Node36 -->
<g id="Node000036" class="node">
<title>Node36</title>
<g id="a_Node000036"><a xlink:title=" ">
<polygon fill="#e0e0e0" stroke="#999999" points="1033,-376.5 973,-376.5 973,-357.5 1033,-357.5 1033,-376.5"/>
<text text-anchor="middle" x="1003" y="-364.5" font-family="Helvetica,sans-Serif" font-size="10.00">iostream</text>
</a>
</g>
</g>
<!-- Node1&#45;&gt;Node36 -->
<g id="edge60_Node000001_Node000036" class="edge">
<title>Node1&#45;&gt;Node36</title>
<g id="a_edge60_Node000001_Node000036"><a xlink:title=" ">
<path fill="none" stroke="#63b8ff" d="M893.72,-417.95C917.95,-406.88 951.46,-391.56 974.96,-380.82"/>
<polygon fill="#63b8ff" stroke="#63b8ff" points="976.73,-383.86 984.37,-376.52 973.82,-377.49 976.73,-383.86"/>
</a>
</g>
</g>
<!-- Node37 -->
<g id="Node000037" class="node">
<title>Node37</title>
<g id="a_Node000037"><a xlink:title=" ">
<polygon fill="#e0e0e0" stroke="#999999" points="1095,-376.5 1051,-376.5 1051,-357.5 1095,-357.5 1095,-376.5"/>
<text text-anchor="middle" x="1073" y="-364.5" font-family="Helvetica,sans-Serif" font-size="10.00">limits</text>
</a>
</g>
</g>
<!-- Node1&#45;&gt;Node37 -->
<g id="edge61_Node000001_Node000037" class="edge">
<title>Node1&#45;&gt;Node37</title>
<g id="a_edge61_Node000001_Node000037"><a xlink:title=" ">
<path fill="none" stroke="#63b8ff" d="M921.75,-417.99C957.03,-408.99 1002.57,-396.32 1042,-382 1043.22,-381.56 1044.45,-381.09 1045.7,-380.6"/>
<polygon fill="#63b8ff" stroke="#63b8ff" points="1047.3,-383.72 1055.16,-376.61 1044.59,-377.27 1047.3,-383.72"/>
</a>
</g>
</g>
<!-- Node38 -->
<g id="Node000038" class="node">
<title>Node38</title>
<g id="a_Node000038"><a xlink:title=" ">
<polygon fill="#e0e0e0" stroke="#999999" points="1161,-376.5 1113,-376.5 1113,-357.5 1161,-357.5 1161,-376.5"/>
<text text-anchor="middle" x="1137" y="-364.5" font-family="Helvetica,sans-Serif" font-size="10.00">thread</text>
</a>
</g>
</g>
<!-- Node1&#45;&gt;Node38 -->
<g id="edge63_Node000001_Node000038" class="edge">
<title>Node1&#45;&gt;Node38</title>
<g id="a_edge63_Node000001_Node000038"><a xlink:title=" ">
<path fill="none" stroke="#63b8ff" d="M930.13,-421.72C978.98,-413.36 1046.39,-400 1104,-382 1105.67,-381.48 1107.38,-380.9 1109.09,-380.29"/>
<polygon fill="#63b8ff" stroke="#63b8ff" points="1110.71,-383.41 1118.74,-376.5 1108.15,-376.89 1110.71,-383.41"/>
</a>
</g>
</g>
<!-- Node39 -->
<g id="Node000039" class="node">
<title>Node39</title>
<g id="a_Node000039"><a xlink:title=" ">
<polygon fill="#e0e0e0" stroke="#999999" points="1265,-376.5 1179,-376.5 1179,-357.5 1265,-357.5 1265,-376.5"/>
<text text-anchor="middle" x="1222" y="-364.5" font-family="Helvetica,sans-Serif" font-size="10.00">unordered_set</text>
</a>
</g>
</g>
<!-- Node1&#45;&gt;Node39 -->
<g id="edge64_Node000001_Node000039" class="edge">
<title>Node1&#45;&gt;Node39</title>
<g id="a_edge64_Node000001_Node000039"><a xlink:title=" ">
<path fill="none" stroke="#63b8ff" d="M930.14,-423.07C992.58,-414.29 1088.04,-399.66 1170,-382 1174.11,-381.11 1178.39,-380.11 1182.64,-379.05"/>
<polygon fill="#63b8ff" stroke="#63b8ff" points="1183.62,-382.41 1192.43,-376.52 1181.87,-375.63 1183.62,-382.41"/>
</a>
</g>
</g>
<!-- Node3 -->
<g id="Node000003" class="node">
<title>Node3</title>
<g id="a_Node000003"><a xlink:href="Raylib_8hpp.html" target="_top" xlink:title=" ">
<polygon fill="white" stroke="#666666" points="306.5,-129 195.5,-129 195.5,-110 306.5,-110 306.5,-129"/>
<text text-anchor="middle" x="251" y="-117" font-family="Helvetica,sans-Serif" font-size="10.00">../Raylib/Raylib.hpp</text>
</a>
</g>
</g>
<!-- Node2&#45;&gt;Node3 -->
<g id="edge2_Node000002_Node000003" class="edge">
<title>Node2&#45;&gt;Node3</title>
<g id="a_edge2_Node000002_Node000003"><a xlink:title=" ">
<path fill="none" stroke="#63b8ff" d="M536.24,-365.64C484.71,-362.31 414.19,-350.91 363,-316 298.9,-272.29 266.89,-178.95 255.73,-139.13"/>
<polygon fill="#63b8ff" stroke="#63b8ff" points="259.09,-138.15 253.12,-129.4 252.33,-139.96 259.09,-138.15"/>
</a>
</g>
</g>
<!-- Node5 -->
<g id="Node000005" class="node">
<title>Node5</title>
<g id="a_Node000005"><a xlink:title=" ">
<polygon fill="#e0e0e0" stroke="#999999" points="273,-74 229,-74 229,-55 273,-55 273,-74"/>
<text text-anchor="middle" x="251" y="-62" font-family="Helvetica,sans-Serif" font-size="10.00">string</text>
</a>
</g>
</g>
<!-- Node2&#45;&gt;Node5 -->
<g id="edge52_Node000002_Node000005" class="edge">
<title>Node2&#45;&gt;Node5</title>
<g id="a_edge52_Node000002_Node000005"><a xlink:title=" ">
<path fill="none" stroke="#63b8ff" d="M607.08,-351.99C609.75,-338.05 612.92,-316.05 611,-297 602.51,-212.62 634.83,-168.05 573,-110 531.63,-71.16 356.54,-65.88 283.36,-65.4"/>
<polygon fill="#63b8ff" stroke="#63b8ff" points="283.34,-61.9 273.33,-65.36 283.31,-68.9 283.34,-61.9"/>
</a>
</g>
</g>
<!-- Node6 -->
<g id="Node000006" class="node">
<title>Node6</title>
<g id="a_Node000006"><a xlink:href="Core_8hpp.html" target="_top" xlink:title=" ">
<polygon fill="white" stroke="#666666" points="413.5,-189.5 324.5,-189.5 324.5,-170.5 413.5,-170.5 413.5,-189.5"/>
<text text-anchor="middle" x="369" y="-177.5" font-family="Helvetica,sans-Serif" font-size="10.00">../ecs/Core.hpp</text>
</a>
</g>
</g>
<!-- Node2&#45;&gt;Node6 -->
<g id="edge5_Node000002_Node000006" class="edge">
<title>Node2&#45;&gt;Node6</title>
<g id="a_edge5_Node000002_Node000006"><a xlink:title=" ">
<path fill="none" stroke="#63b8ff" d="M536.27,-359.89C477.37,-353.05 398.36,-339.7 378,-316 349.89,-283.28 357.48,-228.04 364.01,-199.43"/>
<polygon fill="#63b8ff" stroke="#63b8ff" points="367.45,-200.1 366.47,-189.55 360.66,-198.41 367.45,-200.1"/>
</a>
</g>
</g>
<!-- Node8 -->
<g id="Node000008" class="node">
<title>Node8</title>
<g id="a_Node000008"><a xlink:title=" ">
<polygon fill="#e0e0e0" stroke="#999999" points="870.5,-129 823.5,-129 823.5,-110 870.5,-110 870.5,-129"/>
<text text-anchor="middle" x="847" y="-117" font-family="Helvetica,sans-Serif" font-size="10.00">vector</text>
</a>
</g>
</g>
<!-- Node2&#45;&gt;Node8 -->
<g id="edge54_Node000002_Node000008" class="edge">
<title>Node2&#45;&gt;Node8</title>
<g id="a_edge54_Node000002_Node000008"><a xlink:title=" ">
<path fill="none" stroke="#63b8ff" d="M671.65,-356.47C758.01,-340.26 903.97,-298.36 969,-195 976.1,-183.71 976.64,-175.92 969,-165 949.2,-136.7 909.41,-126.34 880.65,-122.57"/>
<polygon fill="#63b8ff" stroke="#63b8ff" points="880.93,-119.08 870.61,-121.47 880.16,-126.04 880.93,-119.08"/>
</a>
</g>
</g>
<!-- Node9 -->
<g id="Node000009" class="node">
<title>Node9</title>
<g id="a_Node000009"><a xlink:title=" ">
<polygon fill="#e0e0e0" stroke="#999999" points="563.5,-129 470.5,-129 470.5,-110 563.5,-110 563.5,-129"/>
<text text-anchor="middle" x="517" y="-117" font-family="Helvetica,sans-Serif" font-size="10.00">unordered_map</text>
</a>
</g>
</g>
<!-- Node2&#45;&gt;Node9 -->
<g id="edge51_Node000002_Node000009" class="edge">
<title>Node2&#45;&gt;Node9</title>
<g id="a_edge51_Node000002_Node000009"><a xlink:title=" ">
<path fill="none" stroke="#63b8ff" d="M578.74,-351.99C565.77,-343.39 551.04,-331.11 543,-316 525.18,-282.5 539.83,-268.64 535,-231 530.83,-198.49 524.34,-160.87 520.4,-138.98"/>
<polygon fill="#63b8ff" stroke="#63b8ff" points="523.83,-138.28 518.6,-129.07 516.95,-139.53 523.83,-138.28"/>
</a>
</g>
</g>
<!-- Node12 -->
<g id="Node000012" class="node">
<title>Node12</title>
<g id="a_Node000012"><a xlink:href="System_8hpp.html" target="_top" xlink:title=" ">
<polygon fill="white" stroke="#666666" points="489.5,-316 386.5,-316 386.5,-297 489.5,-297 489.5,-316"/>
<text text-anchor="middle" x="438" y="-304" font-family="Helvetica,sans-Serif" font-size="10.00">../ecs/System.hpp</text>
</a>
</g>
</g>
<!-- Node2&#45;&gt;Node12 -->
<g id="edge11_Node000002_Node000012" class="edge">
<title>Node2&#45;&gt;Node12</title>
<g id="a_edge11_Node000002_Node000012"><a xlink:title=" ">
<path fill="none" stroke="#63b8ff" d="M564.24,-351.99C536.17,-342.1 498.95,-328.98 472.21,-319.56"/>
<polygon fill="#63b8ff" stroke="#63b8ff" points="473.11,-316.16 462.51,-316.14 470.78,-322.76 473.11,-316.16"/>
</a>
</g>
</g>
<!-- Node13 -->
<g id="Node000013" class="node">
<title>Node13</title>
<g id="a_Node000013"><a xlink:href="NetworkClient_8hpp.html" target="_top" xlink:title=" ">
<polygon fill="white" stroke="#666666" points="730,-261 620,-261 620,-231 730,-231 730,-261"/>
<text text-anchor="start" x="628" y="-249" font-family="Helvetica,sans-Serif" font-size="10.00">../../Network/Client</text>
<text text-anchor="middle" x="675" y="-238" font-family="Helvetica,sans-Serif" font-size="10.00">/NetworkClient.hpp</text>
</a>
</g>
</g>
<!-- Node2&#45;&gt;Node13 -->
<g id="edge49_Node000002_Node000013" class="edge">
<title>Node2&#45;&gt;Node13</title>
<g id="a_edge49_Node000002_Node000013"><a xlink:title=" ">
<path fill="none" stroke="#63b8ff" d="M616.93,-351.84C625.32,-342.21 636.12,-328.9 644,-316 652.79,-301.62 660.55,-284.33 666.11,-270.65"/>
<polygon fill="#63b8ff" stroke="#63b8ff" points="669.5,-271.59 669.92,-261 662.99,-269.02 669.5,-271.59"/>
</a>
</g>
</g>
<!-- Node28 -->
<g id="Node000028" class="node">
<title>Node28</title>
<g id="a_Node000028"><a xlink:href="GameState_8hpp.html" target="_top" xlink:title=" ">
<polygon fill="white" stroke="#666666" points="960,-189.5 868,-189.5 868,-170.5 960,-170.5 960,-189.5"/>
<text text-anchor="middle" x="914" y="-177.5" font-family="Helvetica,sans-Serif" font-size="10.00">GameState.hpp</text>
</a>
</g>
</g>
<!-- Node2&#45;&gt;Node28 -->
<g id="edge50_Node000002_Node000028" class="edge">
<title>Node2&#45;&gt;Node28</title>
<g id="a_edge50_Node000002_Node000028"><a xlink:title=" ">
<path fill="none" stroke="#63b8ff" d="M627.55,-351.94C685.38,-317.44 833.75,-228.89 890.99,-194.73"/>
<polygon fill="#63b8ff" stroke="#63b8ff" points="892.88,-197.68 899.68,-189.55 889.3,-191.67 892.88,-197.68"/>
</a>
</g>
</g>
<!-- Node32 -->
<g id="Node000032" class="node">
<title>Node32</title>
<g id="a_Node000032"><a xlink:title=" ">
<polygon fill="#e0e0e0" stroke="#999999" points="602,-316 552,-316 552,-297 602,-297 602,-316"/>
<text text-anchor="middle" x="577" y="-304" font-family="Helvetica,sans-Serif" font-size="10.00">chrono</text>
</a>
</g>
</g>
<!-- Node2&#45;&gt;Node32 -->
<g id="edge53_Node000002_Node000032" class="edge">
<title>Node2&#45;&gt;Node32</title>
<g id="a_edge53_Node000002_Node000032"><a xlink:title=" ">
<path fill="none" stroke="#63b8ff" d="M597.46,-351.84C593.82,-343.95 589.26,-334.05 585.36,-325.61"/>
<polygon fill="#63b8ff" stroke="#63b8ff" points="588.41,-323.88 581.05,-316.27 582.06,-326.81 588.41,-323.88"/>
</a>
</g>
</g>
<!-- Node4 -->
<g id="Node000004" class="node">
<title>Node4</title>
<g id="a_Node000004"><a xlink:title=" ">
<polygon fill="#e0e0e0" stroke="#999999" points="99.5,-74 46.5,-74 46.5,-55 99.5,-55 99.5,-74"/>
<text text-anchor="middle" x="73" y="-62" font-family="Helvetica,sans-Serif" font-size="10.00">raylib.h</text>
</a>
</g>
</g>
<!-- Node3&#45;&gt;Node4 -->
<g id="edge3_Node000003_Node000004" class="edge">
<title>Node3&#45;&gt;Node4</title>
<g id="a_edge3_Node000003_Node000004"><a xlink:title=" ">
<path fill="none" stroke="#63b8ff" d="M222.4,-109.98C191.76,-100.86 143.05,-86.36 109.63,-76.41"/>
<polygon fill="#63b8ff" stroke="#63b8ff" points="110.36,-72.97 99.78,-73.47 108.37,-79.68 110.36,-72.97"/>
</a>
</g>
</g>
<!-- Node3&#45;&gt;Node5 -->
<g id="edge4_Node000003_Node000005" class="edge">
<title>Node3&#45;&gt;Node5</title>
<g id="a_edge4_Node000003_Node000005"><a xlink:title=" ">
<path fill="none" stroke="#63b8ff" d="M251,-109.75C251,-102.8 251,-92.85 251,-84.13"/>
<polygon fill="#63b8ff" stroke="#63b8ff" points="254.5,-84.09 251,-74.09 247.5,-84.09 254.5,-84.09"/>
</a>
</g>
</g>
<!-- Node7 -->
<g id="Node000007" class="node">
<title>Node7</title>
<g id="a_Node000007"><a xlink:title=" ">
<polygon fill="#e0e0e0" stroke="#999999" points="452,-129 408,-129 408,-110 452,-110 452,-129"/>
<text text-anchor="middle" x="430" y="-117" font-family="Helvetica,sans-Serif" font-size="10.00">bitset</text>
</a>
</g>
</g>
<!-- Node6&#45;&gt;Node7 -->
<g id="edge6_Node000006_Node000007" class="edge">
<title>Node6&#45;&gt;Node7</title>
<g id="a_edge6_Node000006_Node000007"><a xlink:title=" ">
<path fill="none" stroke="#63b8ff" d="M378,-170.37C387.37,-161.38 402.25,-147.11 413.7,-136.14"/>
<polygon fill="#63b8ff" stroke="#63b8ff" points="416.17,-138.62 420.96,-129.17 411.32,-133.56 416.17,-138.62"/>
</a>
</g>
</g>
<!-- Node6&#45;&gt;Node8 -->
<g id="edge7_Node000006_Node000008" class="edge">
<title>Node6&#45;&gt;Node8</title>
<g id="a_edge7_Node000006_Node000008"><a xlink:title=" ">
<path fill="none" stroke="#63b8ff" d="M413.54,-173.55C508.44,-161.93 728.8,-134.97 813.24,-124.63"/>
<polygon fill="#63b8ff" stroke="#63b8ff" points="813.81,-128.09 823.31,-123.4 812.96,-121.14 813.81,-128.09"/>
</a>
</g>
</g>
<!-- Node6&#45;&gt;Node9 -->
<g id="edge8_Node000006_Node000009" class="edge">
<title>Node6&#45;&gt;Node9</title>
<g id="a_edge8_Node000006_Node000009"><a xlink:title=" ">
<path fill="none" stroke="#63b8ff" d="M390.52,-170.49C415.62,-160.57 457.32,-144.09 485.93,-132.78"/>
<polygon fill="#63b8ff" stroke="#63b8ff" points="487.44,-135.95 495.45,-129.02 484.87,-129.44 487.44,-135.95"/>
</a>
</g>
</g>
<!-- Node10 -->
<g id="Node000010" class="node">
<title>Node10</title>
<g id="a_Node000010"><a xlink:title=" ">
<polygon fill="#e0e0e0" stroke="#999999" points="389.5,-129 324.5,-129 324.5,-110 389.5,-110 389.5,-129"/>
<text text-anchor="middle" x="357" y="-117" font-family="Helvetica,sans-Serif" font-size="10.00">typeindex</text>
</a>
</g>
</g>
<!-- Node6&#45;&gt;Node10 -->
<g id="edge9_Node000006_Node000010" class="edge">
<title>Node6&#45;&gt;Node10</title>
<g id="a_edge9_Node000006_Node000010"><a xlink:title=" ">
<path fill="none" stroke="#63b8ff" d="M367.23,-170.37C365.55,-162.16 362.96,-149.54 360.81,-139.05"/>
<polygon fill="#63b8ff" stroke="#63b8ff" points="364.22,-138.26 358.78,-129.17 357.36,-139.67 364.22,-138.26"/>
</a>
</g>
</g>
<!-- Node6&#45;&gt;Node11 -->
<g id="edge10_Node000006_Node000011" class="edge">
<title>Node6&#45;&gt;Node11</title>
<g id="a_edge10_Node000006_Node000011"><a xlink:title=" ">
<path fill="none" stroke="#63b8ff" d="M324.34,-170.68C262.69,-159.19 152.5,-138.66 93.99,-127.76"/>
<polygon fill="#63b8ff" stroke="#63b8ff" points="94.51,-124.3 84.03,-125.91 93.22,-131.18 94.51,-124.3"/>
</a>
</g>
</g>
<!-- Node12&#45;&gt;Node3 -->
<g id="edge37_Node000012_Node000003" class="edge">
<title>Node12&#45;&gt;Node3</title>
<g id="a_edge37_Node000012_Node000003"><a xlink:title=" ">
<path fill="none" stroke="#63b8ff" d="M427.83,-297C406.42,-278.95 355.44,-235.18 316,-195 297.3,-175.95 277.34,-152.56 264.55,-137.13"/>
<polygon fill="#63b8ff" stroke="#63b8ff" points="266.96,-134.55 257.91,-129.05 261.55,-139 266.96,-134.55"/>
</a>
</g>
</g>
<!-- Node12&#45;&gt;Node6 -->
<g id="edge46_Node000012_Node000006" class="edge">
<title>Node12&#45;&gt;Node6</title>
<g id="a_edge46_Node000012_Node000006"><a xlink:title=" ">
<path fill="none" stroke="#63b8ff" d="M433.26,-296.94C422.03,-276.69 393.65,-225.47 378.64,-198.4"/>
<polygon fill="#63b8ff" stroke="#63b8ff" points="381.68,-196.67 373.78,-189.62 375.56,-200.06 381.68,-196.67"/>
</a>
</g>
</g>
<!-- Node12&#45;&gt;Node9 -->
<g id="edge48_Node000012_Node000009" class="edge">
<title>Node12&#45;&gt;Node9</title>
<g id="a_edge48_Node000012_Node000009"><a xlink:title=" ">
<path fill="none" stroke="#63b8ff" d="M438.8,-296.98C440.33,-282.88 444.31,-253.95 453,-231 466.34,-195.76 490.18,-158.6 504.69,-137.61"/>
<polygon fill="#63b8ff" stroke="#63b8ff" points="507.74,-139.36 510.64,-129.17 502.02,-135.33 507.74,-139.36"/>
</a>
</g>
</g>
<!-- Node12&#45;&gt;Node13 -->
<g id="edge12_Node000012_Node000013" class="edge">
<title>Node12&#45;&gt;Node13</title>
<g id="a_edge12_Node000012_Node000013"><a xlink:title=" ">
<path fill="none" stroke="#63b8ff" d="M472.46,-296.99C508.39,-288.13 565.55,-274.02 609.99,-263.05"/>
<polygon fill="#63b8ff" stroke="#63b8ff" points="610.98,-266.41 619.85,-260.61 609.3,-259.61 610.98,-266.41"/>
</a>
</g>
</g>
<!-- Node12&#45;&gt;Node29 -->
<g id="edge38_Node000012_Node000029" class="edge">
<title>Node12&#45;&gt;Node29</title>
<g id="a_edge38_Node000012_Node000029"><a xlink:title=" ">
<path fill="none" stroke="#63b8ff" d="M396.41,-296.99C345.37,-286.55 258.8,-268.85 203.57,-257.55"/>
<polygon fill="#63b8ff" stroke="#63b8ff" points="204.14,-254.09 193.64,-255.52 202.73,-260.95 204.14,-254.09"/>
</a>
</g>
</g>
<!-- Node12&#45;&gt;Node31 -->
<g id="edge47_Node000012_Node000031" class="edge">
<title>Node12&#45;&gt;Node31</title>
<g id="a_edge47_Node000012_Node000031"><a xlink:title=" ">
<path fill="none" stroke="#63b8ff" d="M446.26,-296.87C454.78,-287.97 468.26,-273.89 478.73,-262.95"/>
<polygon fill="#63b8ff" stroke="#63b8ff" points="481.32,-265.31 485.7,-255.67 476.26,-260.47 481.32,-265.31"/>
</a>
</g>
</g>
<!-- Node13&#45;&gt;Node5 -->
<g id="edge14_Node000013_Node000005" class="edge">
<title>Node13&#45;&gt;Node5</title>
<g id="a_edge14_Node000013_Node000005"><a xlink:title=" ">
<path fill="none" stroke="#63b8ff" d="M668.54,-230.53C653.55,-197.27 616.88,-117.63 606,-110 554.27,-73.73 360.58,-67 283.22,-65.77"/>
<polygon fill="#63b8ff" stroke="#63b8ff" points="283.15,-62.27 273.1,-65.63 283.05,-69.27 283.15,-62.27"/>
</a>
</g>
</g>
<!-- Node14 -->
<g id="Node000014" class="node">
<title>Node14</title>
<g id="a_Node000014"><a xlink:title=" ">
<polygon fill="#e0e0e0" stroke="#999999" points="809,-19 759,-19 759,0 809,0 809,-19"/>
<text text-anchor="middle" x="784" y="-7" font-family="Helvetica,sans-Serif" font-size="10.00">cstdint</text>
</a>
</g>
</g>
<!-- Node13&#45;&gt;Node14 -->
<g id="edge13_Node000013_Node000014" class="edge">
<title>Node13&#45;&gt;Node14</title>
<g id="a_edge13_Node000013_Node000014"><a xlink:title=" ">
<path fill="none" stroke="#63b8ff" d="M673.41,-230.81C671.19,-205.31 669.28,-150.63 688,-110 704.74,-73.66 740.39,-42.45 763.22,-25.11"/>
<polygon fill="#63b8ff" stroke="#63b8ff" points="765.31,-27.91 771.28,-19.16 761.15,-22.28 765.31,-27.91"/>
</a>
</g>
</g>
<!-- Node15 -->
<g id="Node000015" class="node">
<title>Node15</title>
<g id="a_Node000015"><a xlink:title=" ">
<polygon fill="#e0e0e0" stroke="#999999" points="1489,-19 1415,-19 1415,0 1489,0 1489,-19"/>
<text text-anchor="middle" x="1452" y="-7" font-family="Helvetica,sans-Serif" font-size="10.00">sys/select.h</text>
</a>
</g>
</g>
<!-- Node13&#45;&gt;Node15 -->
<g id="edge15_Node000013_Node000015" class="edge">
<title>Node13&#45;&gt;Node15</title>
<g id="a_edge15_Node000013_Node000015"><a xlink:title=" ">
<path fill="none" stroke="#63b8ff" d="M730.07,-242.18C837.45,-236.19 1070.96,-220.6 1147,-195 1266.32,-154.83 1388.61,-61.99 1433.8,-25.56"/>
<polygon fill="#63b8ff" stroke="#63b8ff" points="1436.24,-28.09 1441.78,-19.06 1431.82,-22.66 1436.24,-28.09"/>
</a>
</g>
</g>
<!-- Node16 -->
<g id="Node000016" class="node">
<title>Node16</title>
<g id="a_Node000016"><a xlink:href="Packet_8hpp.html" target="_top" xlink:title=" ">
<polygon fill="white" stroke="#666666" points="849.5,-189.5 696.5,-189.5 696.5,-170.5 849.5,-170.5 849.5,-189.5"/>
<text text-anchor="middle" x="773" y="-177.5" font-family="Helvetica,sans-Serif" font-size="10.00">../TransportLayer/Packet.hpp</text>
</a>
</g>
</g>
<!-- Node13&#45;&gt;Node16 -->
<g id="edge16_Node000013_Node000016" class="edge">
<title>Node13&#45;&gt;Node16</title>
<g id="a_edge16_Node000013_Node000016"><a xlink:title=" ">
<path fill="none" stroke="#63b8ff" d="M696.75,-230.8C712.87,-220.27 734.76,-205.97 750.95,-195.4"/>
<polygon fill="#63b8ff" stroke="#63b8ff" points="753.28,-198.06 759.74,-189.66 749.46,-192.2 753.28,-198.06"/>
</a>
</g>
</g>
<!-- Node18 -->
<g id="Node000018" class="node">
<title>Node18</title>
<g id="a_Node000018"><a xlink:href="UDPSocket_8hpp.html" target="_top" xlink:title=" ">
<polygon fill="white" stroke="#666666" points="1138,-195 1016,-195 1016,-165 1138,-165 1138,-195"/>
<text text-anchor="start" x="1024" y="-183" font-family="Helvetica,sans-Serif" font-size="10.00">../TransportLayer/UDP</text>
<text text-anchor="middle" x="1077" y="-172" font-family="Helvetica,sans-Serif" font-size="10.00">/UDPSocket.hpp</text>
</a>
</g>
</g>
<!-- Node13&#45;&gt;Node18 -->
<g id="edge20_Node000013_Node000018" class="edge">
<title>Node13&#45;&gt;Node18</title>
<g id="a_edge20_Node000013_Node000018"><a xlink:title=" ">
<path fill="none" stroke="#63b8ff" d="M730.05,-236.24C801.57,-224.85 926.56,-204.95 1005.38,-192.4"/>
<polygon fill="#63b8ff" stroke="#63b8ff" points="1006.39,-195.79 1015.71,-190.76 1005.29,-188.87 1006.39,-195.79"/>
</a>
</g>
</g>
<!-- Node13&#45;&gt;Node28 -->
<g id="edge33_Node000013_Node000028" class="edge">
<title>Node13&#45;&gt;Node28</title>
<g id="a_edge33_Node000013_Node000028"><a xlink:title=" ">
<path fill="none" stroke="#63b8ff" d="M727.45,-230.95C771.03,-219.29 832.19,-202.91 872.44,-192.13"/>
<polygon fill="#63b8ff" stroke="#63b8ff" points="873.44,-195.48 882.19,-189.52 871.63,-188.72 873.44,-195.48"/>
</a>
</g>
</g>
<!-- Node16&#45;&gt;Node8 -->
<g id="edge19_Node000016_Node000008" class="edge">
<title>Node16&#45;&gt;Node8</title>
<g id="a_edge19_Node000016_Node000008"><a xlink:title=" ">
<path fill="none" stroke="#63b8ff" d="M783.92,-170.37C795.51,-161.21 814.03,-146.56 828.02,-135.51"/>
<polygon fill="#63b8ff" stroke="#63b8ff" points="830.36,-138.11 836.04,-129.17 826.02,-132.62 830.36,-138.11"/>
</a>
</g>
</g>
<!-- Node16&#45;&gt;Node14 -->
<g id="edge17_Node000016_Node000014" class="edge">
<title>Node16&#45;&gt;Node14</title>
<g id="a_edge17_Node000016_Node000014"><a xlink:title=" ">
<path fill="none" stroke="#63b8ff" d="M773.56,-170.41C775.26,-144.39 780.38,-65.97 782.76,-29.51"/>
<polygon fill="#63b8ff" stroke="#63b8ff" points="786.27,-29.48 783.43,-19.27 779.28,-29.02 786.27,-29.48"/>
</a>
</g>
</g>
<!-- Node17 -->
<g id="Node000017" class="node">
<title>Node17</title>
<g id="a_Node000017"><a xlink:title=" ">
<polygon fill="#e0e0e0" stroke="#999999" points="761.5,-129 696.5,-129 696.5,-110 761.5,-110 761.5,-129"/>
<text text-anchor="middle" x="729" y="-117" font-family="Helvetica,sans-Serif" font-size="10.00">stdexcept</text>
</a>
</g>
</g>
<!-- Node16&#45;&gt;Node17 -->
<g id="edge18_Node000016_Node000017" class="edge">
<title>Node16&#45;&gt;Node17</title>
<g id="a_edge18_Node000016_Node000017"><a xlink:title=" ">
<path fill="none" stroke="#63b8ff" d="M766.51,-170.37C760.01,-161.73 749.84,-148.2 741.72,-137.42"/>
<polygon fill="#63b8ff" stroke="#63b8ff" points="744.33,-135.06 735.52,-129.17 738.73,-139.26 744.33,-135.06"/>
</a>
</g>
</g>
<!-- Node18&#45;&gt;Node14 -->
<g id="edge32_Node000018_Node000014" class="edge">
<title>Node18&#45;&gt;Node14</title>
<g id="a_edge32_Node000018_Node000014"><a xlink:title=" ">
<path fill="none" stroke="#63b8ff" d="M1052.52,-164.92C997.12,-133.06 862.69,-55.75 807.87,-24.23"/>
<polygon fill="#63b8ff" stroke="#63b8ff" points="809.3,-21.01 798.89,-19.06 805.81,-27.08 809.3,-21.01"/>
</a>
</g>
</g>
<!-- Node19 -->
<g id="Node000019" class="node">
<title>Node19</title>
<g id="a_Node000019"><a xlink:href="ASocket_8hpp.html" target="_top" xlink:title=" ">
<polygon fill="white" stroke="#666666" points="1130,-129 1044,-129 1044,-110 1130,-110 1130,-129"/>
<text text-anchor="middle" x="1087" y="-117" font-family="Helvetica,sans-Serif" font-size="10.00">../ASocket.hpp</text>
</a>
</g>
</g>
<!-- Node18&#45;&gt;Node19 -->
<g id="edge21_Node000018_Node000019" class="edge">
<title>Node18&#45;&gt;Node19</title>
<g id="a_edge21_Node000018_Node000019"><a xlink:title=" ">
<path fill="none" stroke="#63b8ff" d="M1079.42,-164.84C1080.74,-157.13 1082.39,-147.49 1083.81,-139.17"/>
<polygon fill="#63b8ff" stroke="#63b8ff" points="1087.27,-139.71 1085.5,-129.27 1080.37,-138.53 1087.27,-139.71"/>
</a>
</g>
</g>
<!-- Node20 -->
<g id="Node000020" class="node">
<title>Node20</title>
<g id="a_Node000020"><a xlink:href="ISocket_8hpp.html" target="_top" xlink:title=" ">
<polygon fill="white" stroke="#666666" points="1128.5,-74 1055.5,-74 1055.5,-55 1128.5,-55 1128.5,-74"/>
<text text-anchor="middle" x="1092" y="-62" font-family="Helvetica,sans-Serif" font-size="10.00">ISocket.hpp</text>
</a>
</g>
</g>
<!-- Node19&#45;&gt;Node20 -->
<g id="edge22_Node000019_Node000020" class="edge">
<title>Node19&#45;&gt;Node20</title>
<g id="a_edge22_Node000019_Node000020"><a xlink:title=" ">
<path fill="none" stroke="#63b8ff" d="M1087.83,-109.75C1088.48,-102.8 1089.42,-92.85 1090.24,-84.13"/>
<polygon fill="#63b8ff" stroke="#63b8ff" points="1093.73,-84.37 1091.19,-74.09 1086.77,-83.72 1093.73,-84.37"/>
</a>
</g>
</g>
<!-- Node20&#45;&gt;Node14 -->
<g id="edge24_Node000020_Node000014" class="edge">
<title>Node20&#45;&gt;Node14</title>
<g id="a_edge24_Node000020_Node000014"><a xlink:title=" ">
<path fill="none" stroke="#63b8ff" d="M1055.19,-58.41C1002.59,-50.94 903.01,-36.02 819,-19 818.9,-18.98 818.8,-18.96 818.7,-18.94"/>
<polygon fill="#63b8ff" stroke="#63b8ff" points="819.7,-15.58 809.18,-16.86 818.21,-22.41 819.7,-15.58"/>
</a>
</g>
</g>
<!-- Node20&#45;&gt;Node15 -->
<g id="edge28_Node000020_Node000015" class="edge">
<title>Node20&#45;&gt;Node15</title>
<g id="a_edge28_Node000020_Node000015"><a xlink:title=" ">
<path fill="none" stroke="#63b8ff" d="M1128.82,-58.79C1185.77,-51.4 1298.9,-36.27 1404.96,-19.11"/>
<polygon fill="#63b8ff" stroke="#63b8ff" points="1405.56,-22.56 1414.87,-17.5 1404.43,-15.65 1405.56,-22.56"/>
</a>
</g>
</g>
<!-- Node21 -->
<g id="Node000021" class="node">
<title>Node21</title>
<g id="a_Node000021"><a xlink:title=" ">
<polygon fill="#e0e0e0" stroke="#999999" points="896.5,-19 827.5,-19 827.5,0 896.5,0 896.5,-19"/>
<text text-anchor="middle" x="862" y="-7" font-family="Helvetica,sans-Serif" font-size="10.00">arpa/inet.h</text>
</a>
</g>
</g>
<!-- Node20&#45;&gt;Node21 -->
<g id="edge23_Node000020_Node000021" class="edge">
<title>Node20&#45;&gt;Node21</title>
<g id="a_edge23_Node000020_Node000021"><a xlink:title=" ">
<path fill="none" stroke="#63b8ff" d="M1055.3,-55.04C1014.91,-45.74 949.98,-30.77 906.66,-20.79"/>
<polygon fill="#63b8ff" stroke="#63b8ff" points="907.22,-17.33 896.69,-18.49 905.64,-24.15 907.22,-17.33"/>
</a>
</g>
</g>
<!-- Node22 -->
<g id="Node000022" class="node">
<title>Node22</title>
<g id="a_Node000022"><a xlink:title=" ">
<polygon fill="#e0e0e0" stroke="#999999" points="965.5,-19 914.5,-19 914.5,0 965.5,0 965.5,-19"/>
<text text-anchor="middle" x="940" y="-7" font-family="Helvetica,sans-Serif" font-size="10.00">errno.h</text>
</a>
</g>
</g>
<!-- Node20&#45;&gt;Node22 -->
<g id="edge25_Node000020_Node000022" class="edge">
<title>Node20&#45;&gt;Node22</title>
<g id="a_edge25_Node000020_Node000022"><a xlink:title=" ">
<path fill="none" stroke="#63b8ff" d="M1067.58,-54.98C1042.28,-46.16 1002.55,-32.31 974.14,-22.41"/>
<polygon fill="#63b8ff" stroke="#63b8ff" points="975.21,-19.07 964.61,-19.08 972.9,-25.68 975.21,-19.07"/>
</a>
</g>
</g>
<!-- Node23 -->
<g id="Node000023" class="node">
<title>Node23</title>
<g id="a_Node000023"><a xlink:title=" ">
<polygon fill="#e0e0e0" stroke="#999999" points="1056,-19 984,-19 984,0 1056,0 1056,-19"/>
<text text-anchor="middle" x="1020" y="-7" font-family="Helvetica,sans-Serif" font-size="10.00">netinet/in.h</text>
</a>
</g>
</g>
<!-- Node20&#45;&gt;Node23 -->
<g id="edge26_Node000020_Node000023" class="edge">
<title>Node20&#45;&gt;Node23</title>
<g id="a_edge26_Node000020_Node000023"><a xlink:title=" ">
<path fill="none" stroke="#63b8ff" d="M1080.43,-54.98C1069.58,-47 1053.12,-34.88 1040.12,-25.31"/>
<polygon fill="#63b8ff" stroke="#63b8ff" points="1041.91,-22.28 1031.78,-19.17 1037.76,-27.92 1041.91,-22.28"/>
</a>
</g>
</g>
<!-- Node24 -->
<g id="Node000024" class="node">
<title>Node24</title>
<g id="a_Node000024"><a xlink:title=" ">
<polygon fill="#e0e0e0" stroke="#999999" points="1152,-19 1074,-19 1074,0 1152,0 1152,-19"/>
<text text-anchor="middle" x="1113" y="-7" font-family="Helvetica,sans-Serif" font-size="10.00">netinet/tcp.h</text>
</a>
</g>
</g>
<!-- Node20&#45;&gt;Node24 -->
<g id="edge27_Node000020_Node000024" class="edge">
<title>Node20&#45;&gt;Node24</title>
<g id="a_edge27_Node000020_Node000024"><a xlink:title=" ">
<path fill="none" stroke="#63b8ff" d="M1095.47,-54.75C1098.28,-47.65 1102.34,-37.4 1105.85,-28.56"/>
<polygon fill="#63b8ff" stroke="#63b8ff" points="1109.17,-29.68 1109.6,-19.09 1102.66,-27.1 1109.17,-29.68"/>
</a>
</g>
</g>
<!-- Node25 -->
<g id="Node000025" class="node">
<title>Node25</title>
<g id="a_Node000025"><a xlink:title=" ">
<polygon fill="#e0e0e0" stroke="#999999" points="1247.5,-19 1170.5,-19 1170.5,0 1247.5,0 1247.5,-19"/>
<text text-anchor="middle" x="1209" y="-7" font-family="Helvetica,sans-Serif" font-size="10.00">sys/socket.h</text>
</a>
</g>
</g>
<!-- Node20&#45;&gt;Node25 -->
<g id="edge29_Node000020_Node000025" class="edge">
<title>Node20&#45;&gt;Node25</title>
<g id="a_edge29_Node000020_Node000025"><a xlink:title=" ">
<path fill="none" stroke="#63b8ff" d="M1110.8,-54.98C1129.62,-46.46 1158.82,-33.23 1180.5,-23.41"/>
<polygon fill="#63b8ff" stroke="#63b8ff" points="1182.2,-26.48 1189.86,-19.17 1179.31,-20.11 1182.2,-26.48"/>
</a>
</g>
</g>
<!-- Node26 -->
<g id="Node000026" class="node">
<title>Node26</title>
<g id="a_Node000026"><a xlink:title=" ">
<polygon fill="#e0e0e0" stroke="#999999" points="1322.5,-19 1265.5,-19 1265.5,0 1322.5,0 1322.5,-19"/>
<text text-anchor="middle" x="1294" y="-7" font-family="Helvetica,sans-Serif" font-size="10.00">sys/un.h</text>
</a>
</g>
</g>
<!-- Node20&#45;&gt;Node26 -->
<g id="edge30_Node000020_Node000026" class="edge">
<title>Node20&#45;&gt;Node26</title>
<g id="a_edge30_Node000020_Node000026"><a xlink:title=" ">
<path fill="none" stroke="#63b8ff" d="M1124.45,-54.98C1160.18,-45.61 1217.58,-30.55 1255.54,-20.59"/>
<polygon fill="#63b8ff" stroke="#63b8ff" points="1256.44,-23.97 1265.22,-18.05 1254.66,-17.2 1256.44,-23.97"/>
</a>
</g>
</g>
<!-- Node27 -->
<g id="Node000027" class="node">
<title>Node27</title>
<g id="a_Node000027"><a xlink:title=" ">
<polygon fill="#e0e0e0" stroke="#999999" points="1397,-19 1341,-19 1341,0 1397,0 1397,-19"/>
<text text-anchor="middle" x="1369" y="-7" font-family="Helvetica,sans-Serif" font-size="10.00">unistd.h</text>
</a>
</g>
</g>
<!-- Node20&#45;&gt;Node27 -->
<g id="edge31_Node000020_Node000027" class="edge">
<title>Node20&#45;&gt;Node27</title>
<g id="a_edge31_Node000020_Node000027"><a xlink:title=" ">
<path fill="none" stroke="#63b8ff" d="M1128.69,-57.2C1173.92,-49.32 1253.36,-35.12 1330.82,-19.18"/>
<polygon fill="#63b8ff" stroke="#63b8ff" points="1331.66,-22.58 1340.75,-17.12 1330.24,-15.72 1331.66,-22.58"/>
</a>
</g>
</g>
<!-- Node28&#45;&gt;Node8 -->
<g id="edge35_Node000028_Node000008" class="edge">
<title>Node28&#45;&gt;Node8</title>
<g id="a_edge35_Node000028_Node000008"><a xlink:title=" ">
<path fill="none" stroke="#63b8ff" d="M904.11,-170.37C893.72,-161.3 877.16,-146.84 864.55,-135.82"/>
<polygon fill="#63b8ff" stroke="#63b8ff" points="866.76,-133.11 856.93,-129.17 862.16,-138.38 866.76,-133.11"/>
</a>
</g>
</g>
<!-- Node28&#45;&gt;Node9 -->
<g id="edge34_Node000028_Node000009" class="edge">
<title>Node28&#45;&gt;Node9</title>
<g id="a_edge34_Node000028_Node000009"><a xlink:title=" ">
<path fill="none" stroke="#63b8ff" d="M883.31,-170.5C875.43,-168.5 866.94,-166.52 859,-165 759.44,-145.92 641.98,-132.61 573.84,-125.79"/>
<polygon fill="#63b8ff" stroke="#63b8ff" points="574.05,-122.29 563.75,-124.79 573.36,-129.26 574.05,-122.29"/>
</a>
</g>
</g>
<!-- Node28&#45;&gt;Node14 -->
<g id="edge36_Node000028_Node000014" class="edge">
<title>Node28&#45;&gt;Node14</title>
<g id="a_edge36_Node000028_Node000014"><a xlink:title=" ">
<path fill="none" stroke="#63b8ff" d="M910.8,-170.47C905.51,-156.95 894.13,-130.1 880,-110 856.83,-77.03 822.77,-44.52 802.06,-26.04"/>
<polygon fill="#63b8ff" stroke="#63b8ff" points="804.15,-23.21 794.33,-19.23 799.52,-28.47 804.15,-23.21"/>
</a>
</g>
</g>
<!-- Node29&#45;&gt;Node4 -->
<g id="edge43_Node000029_Node000004" class="edge">
<title>Node29&#45;&gt;Node4</title>
<g id="a_edge43_Node000029_Node000004"><a xlink:title=" ">
<path fill="none" stroke="#63b8ff" d="M118.77,-236.39C95.49,-228.86 65.07,-215.81 45,-195 17.38,-166.37 -0.29,-145.82 17,-110 23.22,-97.12 35.18,-86.82 46.46,-79.38"/>
<polygon fill="#63b8ff" stroke="#63b8ff" points="48.51,-82.23 55.23,-74.04 44.87,-76.25 48.51,-82.23"/>
</a>
</g>
</g>
<!-- Node29&#45;&gt;Node5 -->
<g id="edge45_Node000029_Node000005" class="edge">
<title>Node29&#45;&gt;Node5</title>
<g id="a_edge45_Node000029_Node000005"><a xlink:title=" ">
<path fill="none" stroke="#63b8ff" d="M164.6,-236.38C176.28,-227.55 192.9,-212.64 200,-195 211.16,-167.26 192.15,-158.45 187,-129 185.54,-120.68 183.09,-117.48 187,-110 194.11,-96.39 207.49,-86.1 220.19,-78.87"/>
<polygon fill="#63b8ff" stroke="#63b8ff" points="221.98,-81.88 229.21,-74.13 218.73,-75.68 221.98,-81.88"/>
</a>
</g>
</g>
<!-- Node29&#45;&gt;Node11 -->
<g id="edge44_Node000029_Node000011" class="edge">
<title>Node29&#45;&gt;Node11</title>
<g id="a_edge44_Node000029_Node000011"><a xlink:title=" ">
<path fill="none" stroke="#63b8ff" d="M117.3,-236.37C95.98,-229.1 70.29,-216.36 57,-195 46.66,-178.38 47.84,-155.39 50.54,-139.36"/>
<polygon fill="#63b8ff" stroke="#63b8ff" points="54.06,-139.6 52.63,-129.11 47.2,-138.2 54.06,-139.6"/>
</a>
</g>
</g>
<!-- Node30 -->
<g id="Node000030" class="node">
<title>Node30</title>
<g id="a_Node000030"><a xlink:href="Graphic_8hpp.html" target="_top" xlink:title=" ">
<polygon fill="white" stroke="#666666" points="191.5,-189.5 66.5,-189.5 66.5,-170.5 191.5,-170.5 191.5,-189.5"/>
<text text-anchor="middle" x="129" y="-177.5" font-family="Helvetica,sans-Serif" font-size="10.00">../Graphic/Graphic.hpp</text>
</a>
</g>
</g>
<!-- Node29&#45;&gt;Node30 -->
<g id="edge39_Node000029_Node000030" class="edge">
<title>Node29&#45;&gt;Node30</title>
<g id="a_edge39_Node000029_Node000030"><a xlink:title=" ">
<path fill="none" stroke="#63b8ff" d="M148.9,-236.37C145.52,-226.97 140.02,-211.67 135.66,-199.53"/>
<polygon fill="#63b8ff" stroke="#63b8ff" points="138.88,-198.13 132.2,-189.91 132.29,-200.5 138.88,-198.13"/>
</a>
</g>
</g>
<!-- Node30&#45;&gt;Node3 -->
<g id="edge40_Node000030_Node000003" class="edge">
<title>Node30&#45;&gt;Node3</title>
<g id="a_edge40_Node000030_Node000003"><a xlink:title=" ">
<path fill="none" stroke="#63b8ff" d="M146.74,-170.49C167.07,-160.75 200.61,-144.66 224.14,-133.38"/>
<polygon fill="#63b8ff" stroke="#63b8ff" points="225.74,-136.5 233.24,-129.02 222.71,-130.18 225.74,-136.5"/>
</a>
</g>
</g>
<!-- Node30&#45;&gt;Node5 -->
<g id="edge42_Node000030_Node000005" class="edge">
<title>Node30&#45;&gt;Node5</title>
<g id="a_edge42_Node000030_Node000005"><a xlink:title=" ">
<path fill="none" stroke="#63b8ff" d="M129.84,-170.25C131.63,-155.95 137.1,-127.43 153,-110 170.51,-90.81 197.89,-79.34 219.27,-72.87"/>
<polygon fill="#63b8ff" stroke="#63b8ff" points="220.23,-76.23 228.91,-70.15 218.33,-69.49 220.23,-76.23"/>
</a>
</g>
</g>
<!-- Node30&#45;&gt;Node11 -->
<g id="edge41_Node000030_Node000011" class="edge">
<title>Node30&#45;&gt;Node11</title>
<g id="a_edge41_Node000030_Node000011"><a xlink:title=" ">
<path fill="none" stroke="#63b8ff" d="M118.08,-170.37C106.49,-161.21 87.97,-146.56 73.98,-135.51"/>
<polygon fill="#63b8ff" stroke="#63b8ff" points="75.98,-132.62 65.96,-129.17 71.64,-138.11 75.98,-132.62"/>
</a>
</g>
</g>
</g>
</svg>
