<?xml version="1.0" encoding="UTF-8" standalone="no"?>
<!DOCTYPE svg PUBLIC "-//W3C//DTD SVG 1.1//EN"
 "http://www.w3.org/Graphics/SVG/1.1/DTD/svg11.dtd">
<!-- Generated by graphviz version 2.43.0 (0)
 -->
<!-- Title: server/IpcChannel.cpp Pages: 1 -->
<svg width="738pt" height="313pt"
 viewBox="0.00 0.00 738.00 313.00" xmlns="http://www.w3.org/2000/svg" xmlns:xlink="http://www.w3.org/1999/xlink">
<g id="graph0" class="graph" transform="scale(1 1) rotate(0) translate(4 309)">
<title>server/IpcChannel.cpp</title>
<!-- Node1 -->
<g id="Node000001" class="node">
<title>Node1</title>
<g id="a_Node000001"><a xlink:title=" ">
<polygon fill="#999999" stroke="#666666" points="244.5,-305 119.5,-305 119.5,-286 244.5,-286 244.5,-305"/>
<text text-anchor="middle" x="182" y="-293" font-family="Helvetica,sans-Serif" font-size="10.00">server/IpcChannel.cpp</text>
</a>
</g>
</g>
<!-- Node2 -->
<g id="Node000002" class="node">
<title>Node2</title>
<g id="a_Node000002"><a xlink:href="IpcChannel_8hpp.html" target="_top" xlink:title=" ">
<polygon fill="white" stroke="#666666" points="139,-250 47,-250 47,-231 139,-231 139,-250"/>
<text text-anchor="middle" x="93" y="-238" font-family="Helvetica,sans-Serif" font-size="10.00">IpcChannel.hpp</text>
</a>
</g>
</g>
<!-- Node1&#45;&gt;Node2 -->
<g id="edge1_Node000001_Node000002" class="edge">
<title>Node1&#45;&gt;Node2</title>
<g id="a_edge1_Node000001_Node000002"><a xlink:title=" ">
<path fill="none" stroke="#63b8ff" d="M167.7,-285.98C153.9,-277.77 132.76,-265.18 116.49,-255.49"/>
<polygon fill="#63b8ff" stroke="#63b8ff" points="117.94,-252.28 107.56,-250.17 114.36,-258.29 117.94,-252.28"/>
</a>
</g>
</g>
<!-- Node17 -->
<g id="Node000017" class="node">
<title>Node17</title>
<g id="a_Node000017"><a xlink:title=" ">
<polygon fill="#e0e0e0" stroke="#999999" points="207,-250 157,-250 157,-231 207,-231 207,-250"/>
<text text-anchor="middle" x="182" y="-238" font-family="Helvetica,sans-Serif" font-size="10.00">cstring</text>
</a>
</g>
</g>
<!-- Node1&#45;&gt;Node17 -->
<g id="edge17_Node000001_Node000017" class="edge">
<title>Node1&#45;&gt;Node17</title>
<g id="a_edge17_Node000001_Node000017"><a xlink:title=" ">
<path fill="none" stroke="#63b8ff" d="M182,-285.75C182,-278.8 182,-268.85 182,-260.13"/>
<polygon fill="#63b8ff" stroke="#63b8ff" points="185.5,-260.09 182,-250.09 178.5,-260.09 185.5,-260.09"/>
</a>
</g>
</g>
<!-- Node18 -->
<g id="Node000018" class="node">
<title>Node18</title>
<g id="a_Node000018"><a xlink:title=" ">
<polygon fill="#e0e0e0" stroke="#999999" points="285,-250 225,-250 225,-231 285,-231 285,-250"/>
<text text-anchor="middle" x="255" y="-238" font-family="Helvetica,sans-Serif" font-size="10.00">iostream</text>
</a>
</g>
</g>
<!-- Node1&#45;&gt;Node18 -->
<g id="edge18_Node000001_Node000018" class="edge">
<title>Node1&#45;&gt;Node18</title>
<g id="a_edge18_Node000001_Node000018"><a xlink:title=" ">
<path fill="none" stroke="#63b8ff" d="M193.73,-285.98C204.73,-278 221.42,-265.88 234.6,-256.31"/>
<polygon fill="#63b8ff" stroke="#63b8ff" points="237.02,-258.88 243.06,-250.17 232.91,-253.21 237.02,-258.88"/>
</a>
</g>
</g>
<!-- Node3 -->
<g id="Node000003" class="node">
<title>Node3</title>
<g id="a_Node000003"><a xlink:title=" ">
<polygon fill="#e0e0e0" stroke="#999999" points="47,-189.5 3,-189.5 3,-170.5 47,-170.5 47,-189.5"/>
<text text-anchor="middle" x="25" y="-177.5" font-family="Helvetica,sans-Serif" font-size="10.00">string</text>
</a>
</g>
</g>
<!-- Node2&#45;&gt;Node3 -->
<g id="edge2_Node000002_Node000003" class="edge">
<title>Node2&#45;&gt;Node3</title>
<g id="a_edge2_Node000002_Node000003"><a xlink:title=" ">
<path fill="none" stroke="#63b8ff" d="M82.97,-230.87C72.42,-221.8 55.61,-207.34 42.81,-196.32"/>
<polygon fill="#63b8ff" stroke="#63b8ff" points="44.94,-193.54 35.07,-189.67 40.37,-198.84 44.94,-193.54"/>
</a>
</g>
</g>
<!-- Node4 -->
<g id="Node000004" class="node">
<title>Node4</title>
<g id="a_Node000004"><a xlink:title=" ">
<polygon fill="#e0e0e0" stroke="#999999" points="121,-189.5 65,-189.5 65,-170.5 121,-170.5 121,-189.5"/>
<text text-anchor="middle" x="93" y="-177.5" font-family="Helvetica,sans-Serif" font-size="10.00">optional</text>
</a>
</g>
</g>
<!-- Node2&#45;&gt;Node4 -->
<g id="edge3_Node000002_Node000004" class="edge">
<title>Node2&#45;&gt;Node4</title>
<g id="a_edge3_Node000002_Node000004"><a xlink:title=" ">
<path fill="none" stroke="#63b8ff" d="M93,-230.87C93,-222.75 93,-210.31 93,-199.89"/>
<polygon fill="#63b8ff" stroke="#63b8ff" points="96.5,-199.67 93,-189.67 89.5,-199.67 96.5,-199.67"/>
</a>
</g>
</g>
<!-- Node5 -->
<g id="Node000005" class="node">
<title>Node5</title>
<g id="a_Node000005"><a xlink:href="UDPSocket_8hpp.html" target="_top" xlink:title=" ">
<polygon fill="white" stroke="#666666" points="281,-195 139,-195 139,-165 281,-165 281,-195"/>
<text text-anchor="start" x="147" y="-183" font-family="Helvetica,sans-Serif" font-size="10.00">../Network/TransportLayer</text>
<text text-anchor="middle" x="210" y="-172" font-family="Helvetica,sans-Serif" font-size="10.00">/UDP/UDPSocket.hpp</text>
</a>
</g>
</g>
<!-- Node2&#45;&gt;Node5 -->
<g id="edge4_Node000002_Node000005" class="edge">
<title>Node2&#45;&gt;Node5</title>
<g id="a_edge4_Node000002_Node000005"><a xlink:title=" ">
<path fill="none" stroke="#63b8ff" d="M110.01,-230.99C126.35,-222.82 151.59,-210.2 172.63,-199.69"/>
<polygon fill="#63b8ff" stroke="#63b8ff" points="174.27,-202.78 181.64,-195.18 171.14,-196.52 174.27,-202.78"/>
</a>
</g>
</g>
<!-- Node6 -->
<g id="Node000006" class="node">
<title>Node6</title>
<g id="a_Node000006"><a xlink:href="ASocket_8hpp.html" target="_top" xlink:title=" ">
<polygon fill="white" stroke="#666666" points="309,-129 223,-129 223,-110 309,-110 309,-129"/>
<text text-anchor="middle" x="266" y="-117" font-family="Helvetica,sans-Serif" font-size="10.00">../ASocket.hpp</text>
</a>
</g>
</g>
<!-- Node5&#45;&gt;Node6 -->
<g id="edge5_Node000005_Node000006" class="edge">
<title>Node5&#45;&gt;Node6</title>
<g id="a_edge5_Node000005_Node000006"><a xlink:title=" ">
<path fill="none" stroke="#63b8ff" d="M223.56,-164.84C231.68,-156.35 242.05,-145.52 250.5,-136.69"/>
<polygon fill="#63b8ff" stroke="#63b8ff" points="253.22,-138.91 257.61,-129.27 248.17,-134.07 253.22,-138.91"/>
</a>
</g>
</g>
<!-- Node9 -->
<g id="Node000009" class="node">
<title>Node9</title>
<g id="a_Node000009"><a xlink:title=" ">
<polygon fill="#e0e0e0" stroke="#999999" points="50,-19 0,-19 0,0 50,0 50,-19"/>
<text text-anchor="middle" x="25" y="-7" font-family="Helvetica,sans-Serif" font-size="10.00">cstdint</text>
</a>
</g>
</g>
<!-- Node5&#45;&gt;Node9 -->
<g id="edge16_Node000005_Node000009" class="edge">
<title>Node5&#45;&gt;Node9</title>
<g id="a_edge16_Node000005_Node000009"><a xlink:title=" ">
<path fill="none" stroke="#63b8ff" d="M194.55,-164.92C160.3,-133.73 78.21,-58.97 42.31,-26.27"/>
<polygon fill="#63b8ff" stroke="#63b8ff" points="44.36,-23.4 34.61,-19.25 39.65,-28.58 44.36,-23.4"/>
</a>
</g>
</g>
<!-- Node7 -->
<g id="Node000007" class="node">
<title>Node7</title>
<g id="a_Node000007"><a xlink:href="ISocket_8hpp.html" target="_top" xlink:title=" ">
<polygon fill="white" stroke="#666666" points="343.5,-74 270.5,-74 270.5,-55 343.5,-55 343.5,-74"/>
<text text-anchor="middle" x="307" y="-62" font-family="Helvetica,sans-Serif" font-size="10.00">ISocket.hpp</text>
</a>
</g>
</g>
<!-- Node6&#45;&gt;Node7 -->
<g id="edge6_Node000006_Node000007" class="edge">
<title>Node6&#45;&gt;Node7</title>
<g id="a_edge6_Node000006_Node000007"><a xlink:title=" ">
<path fill="none" stroke="#63b8ff" d="M272.77,-109.75C278.56,-102.26 287.06,-91.28 294.14,-82.13"/>
<polygon fill="#63b8ff" stroke="#63b8ff" points="297.01,-84.14 300.36,-74.09 291.47,-79.86 297.01,-84.14"/>
</a>
</g>
</g>
<!-- Node8 -->
<g id="Node000008" class="node">
<title>Node8</title>
<g id="a_Node000008"><a xlink:title=" ">
<polygon fill="#e0e0e0" stroke="#999999" points="137.5,-19 68.5,-19 68.5,0 137.5,0 137.5,-19"/>
<text text-anchor="middle" x="103" y="-7" font-family="Helvetica,sans-Serif" font-size="10.00">arpa/inet.h</text>
</a>
</g>
</g>
<!-- Node7&#45;&gt;Node8 -->
<g id="edge7_Node000007_Node000008" class="edge">
<title>Node7&#45;&gt;Node8</title>
<g id="a_edge7_Node000007_Node000008"><a xlink:title=" ">
<path fill="none" stroke="#63b8ff" d="M274.22,-54.98C239.38,-45.93 184.13,-31.58 145.86,-21.64"/>
<polygon fill="#63b8ff" stroke="#63b8ff" points="146.59,-18.21 136.03,-19.08 144.83,-24.98 146.59,-18.21"/>
</a>
</g>
</g>
<!-- Node7&#45;&gt;Node9 -->
<g id="edge8_Node000007_Node000009" class="edge">
<title>Node7&#45;&gt;Node9</title>
<g id="a_edge8_Node000007_Node000009"><a xlink:title=" ">
<path fill="none" stroke="#63b8ff" d="M270.29,-57.71C223.65,-50.17 140.46,-36.16 60,-19.1"/>
<polygon fill="#63b8ff" stroke="#63b8ff" points="60.72,-15.67 50.21,-17 59.25,-22.52 60.72,-15.67"/>
</a>
</g>
</g>
<!-- Node10 -->
<g id="Node000010" class="node">
<title>Node10</title>
<g id="a_Node000010"><a xlink:title=" ">
<polygon fill="#e0e0e0" stroke="#999999" points="206.5,-19 155.5,-19 155.5,0 206.5,0 206.5,-19"/>
<text text-anchor="middle" x="181" y="-7" font-family="Helvetica,sans-Serif" font-size="10.00">errno.h</text>
</a>
</g>
</g>
<!-- Node7&#45;&gt;Node10 -->
<g id="edge9_Node000007_Node000010" class="edge">
<title>Node7&#45;&gt;Node10</title>
<g id="a_edge9_Node000007_Node000010"><a xlink:title=" ">
<path fill="none" stroke="#63b8ff" d="M286.76,-54.98C266.3,-46.38 234.47,-32.99 211.07,-23.15"/>
<polygon fill="#63b8ff" stroke="#63b8ff" points="212.19,-19.82 201.61,-19.17 209.47,-26.27 212.19,-19.82"/>
</a>
</g>
</g>
<!-- Node11 -->
<g id="Node000011" class="node">
<title>Node11</title>
<g id="a_Node000011"><a xlink:title=" ">
<polygon fill="#e0e0e0" stroke="#999999" points="297,-19 225,-19 225,0 297,0 297,-19"/>
<text text-anchor="middle" x="261" y="-7" font-family="Helvetica,sans-Serif" font-size="10.00">netinet/in.h</text>
</a>
</g>
</g>
<!-- Node7&#45;&gt;Node11 -->
<g id="edge10_Node000007_Node000011" class="edge">
<title>Node7&#45;&gt;Node11</title>
<g id="a_edge10_Node000007_Node000011"><a xlink:title=" ">
<path fill="none" stroke="#63b8ff" d="M299.4,-54.75C292.84,-47.18 283.18,-36.05 275.19,-26.84"/>
<polygon fill="#63b8ff" stroke="#63b8ff" points="277.65,-24.35 268.45,-19.09 272.37,-28.94 277.65,-24.35"/>
</a>
</g>
</g>
<!-- Node12 -->
<g id="Node000012" class="node">
<title>Node12</title>
<g id="a_Node000012"><a xlink:title=" ">
<polygon fill="#e0e0e0" stroke="#999999" points="393,-19 315,-19 315,0 393,0 393,-19"/>
<text text-anchor="middle" x="354" y="-7" font-family="Helvetica,sans-Serif" font-size="10.00">netinet/tcp.h</text>
</a>
</g>
</g>
<!-- Node7&#45;&gt;Node12 -->
<g id="edge11_Node000007_Node000012" class="edge">
<title>Node7&#45;&gt;Node12</title>
<g id="a_edge11_Node000007_Node000012"><a xlink:title=" ">
<path fill="none" stroke="#63b8ff" d="M314.76,-54.75C321.47,-47.18 331.34,-36.05 339.51,-26.84"/>
<polygon fill="#63b8ff" stroke="#63b8ff" points="342.37,-28.89 346.38,-19.09 337.13,-24.25 342.37,-28.89"/>
</a>
</g>
</g>
<!-- Node13 -->
<g id="Node000013" class="node">
<title>Node13</title>
<g id="a_Node000013"><a xlink:title=" ">
<polygon fill="#e0e0e0" stroke="#999999" points="485,-19 411,-19 411,0 485,0 485,-19"/>
<text text-anchor="middle" x="448" y="-7" font-family="Helvetica,sans-Serif" font-size="10.00">sys/select.h</text>
</a>
</g>
</g>
<!-- Node7&#45;&gt;Node13 -->
<g id="edge12_Node000007_Node000013" class="edge">
<title>Node7&#45;&gt;Node13</title>
<g id="a_edge12_Node000007_Node000013"><a xlink:title=" ">
<path fill="none" stroke="#63b8ff" d="M329.65,-54.98C352.85,-46.27 389.12,-32.63 415.4,-22.75"/>
<polygon fill="#63b8ff" stroke="#63b8ff" points="416.8,-25.97 424.93,-19.17 414.34,-19.41 416.8,-25.97"/>
</a>
</g>
</g>
<!-- Node14 -->
<g id="Node000014" class="node">
<title>Node14</title>
<g id="a_Node000014"><a xlink:title=" ">
<polygon fill="#e0e0e0" stroke="#999999" points="580.5,-19 503.5,-19 503.5,0 580.5,0 580.5,-19"/>
<text text-anchor="middle" x="542" y="-7" font-family="Helvetica,sans-Serif" font-size="10.00">sys/socket.h</text>
</a>
</g>
</g>
<!-- Node7&#45;&gt;Node14 -->
<g id="edge13_Node000007_Node000014" class="edge">
<title>Node7&#45;&gt;Node14</title>
<g id="a_edge13_Node000007_Node000014"><a xlink:title=" ">
<path fill="none" stroke="#63b8ff" d="M343.72,-55.22C384.2,-46.09 449.47,-31.37 493.98,-21.33"/>
<polygon fill="#63b8ff" stroke="#63b8ff" points="495,-24.69 503.98,-19.07 493.46,-17.86 495,-24.69"/>
</a>
</g>
</g>
<!-- Node15 -->
<g id="Node000015" class="node">
<title>Node15</title>
<g id="a_Node000015"><a xlink:title=" ">
<polygon fill="#e0e0e0" stroke="#999999" points="655.5,-19 598.5,-19 598.5,0 655.5,0 655.5,-19"/>
<text text-anchor="middle" x="627" y="-7" font-family="Helvetica,sans-Serif" font-size="10.00">sys/un.h</text>
</a>
</g>
</g>
<!-- Node7&#45;&gt;Node15 -->
<g id="edge14_Node000007_Node000015" class="edge">
<title>Node7&#45;&gt;Node15</title>
<g id="a_edge14_Node000007_Node000015"><a xlink:title=" ">
<path fill="none" stroke="#63b8ff" d="M343.78,-58.55C396.05,-51.34 495.04,-37.01 588.46,-19.19"/>
<polygon fill="#63b8ff" stroke="#63b8ff" points="589.2,-22.61 598.36,-17.29 587.88,-15.74 589.2,-22.61"/>
</a>
</g>
</g>
<!-- Node16 -->
<g id="Node000016" class="node">
<title>Node16</title>
<g id="a_Node000016"><a xlink:title=" ">
<polygon fill="#e0e0e0" stroke="#999999" points="730,-19 674,-19 674,0 730,0 730,-19"/>
<text text-anchor="middle" x="702" y="-7" font-family="Helvetica,sans-Serif" font-size="10.00">unistd.h</text>
</a>
</g>
</g>
<!-- Node7&#45;&gt;Node16 -->
<g id="edge15_Node000007_Node000016" class="edge">
<title>Node7&#45;&gt;Node16</title>
<g id="a_edge15_Node000007_Node000016"><a xlink:title=" ">
<path fill="none" stroke="#63b8ff" d="M343.52,-60.2C406.77,-54.23 540.96,-40.36 663.82,-19.04"/>
<polygon fill="#63b8ff" stroke="#63b8ff" points="664.54,-22.47 673.78,-17.3 663.32,-15.58 664.54,-22.47"/>
</a>
</g>
</g>
</g>
</svg>
