<?xml version="1.0" encoding="UTF-8" standalone="no"?>
<!DOCTYPE svg PUBLIC "-//W3C//DTD SVG 1.1//EN"
 "http://www.w3.org/Graphics/SVG/1.1/DTD/svg11.dtd">
<!-- Generated by graphviz version 2.43.0 (0)
 -->
<!-- Title: server/IpcChannel.hpp Pages: 1 -->
<svg width="661pt" height="159pt"
 viewBox="0.00 0.00 661.00 159.00" xmlns="http://www.w3.org/2000/svg" xmlns:xlink="http://www.w3.org/1999/xlink">
<g id="graph0" class="graph" transform="scale(1 1) rotate(0) translate(4 155)">
<title>server/IpcChannel.hpp</title>
<!-- Node1 -->
<g id="Node000001" class="node">
<title>Node1</title>
<g id="a_Node000001"><a xlink:title=" ">
<polygon fill="#999999" stroke="#666666" points="411,-151 286,-151 286,-132 411,-132 411,-151"/>
<text text-anchor="middle" x="348.5" y="-139" font-family="Helvetica,sans-Serif" font-size="10.00">server/IpcChannel.hpp</text>
</a>
</g>
</g>
<!-- Node2 -->
<g id="Node000002" class="node">
<title>Node2</title>
<g id="a_Node000002"><a xlink:href="game_8cpp.html" target="_top" xlink:title=" ">
<polygon fill="white" stroke="#666666" points="157,-30 0,-30 0,0 157,0 157,-30"/>
<text text-anchor="start" x="8" y="-18" font-family="Helvetica,sans-Serif" font-size="10.00">/home/loic/EPITECH</text>
<text text-anchor="middle" x="78.5" y="-7" font-family="Helvetica,sans-Serif" font-size="10.00">/rtype/Mystic&#45;Type/game.cpp</text>
</a>
</g>
</g>
<!-- Node1&#45;&gt;Node2 -->
<g id="edge1_Node000001_Node000002" class="edge">
<title>Node1&#45;&gt;Node2</title>
<g id="a_edge1_Node000001_Node000002"><a xlink:title=" ">
<path fill="none" stroke="#63b8ff" d="M275.84,-131.49C240.97,-125.04 199.48,-114.17 165.5,-96 134.01,-79.16 105.14,-48.26 89.87,-30.18"/>
<polygon fill="#63b8ff" stroke="#63b8ff" points="275.51,-134.98 285.96,-133.27 276.72,-128.09 275.51,-134.98"/>
</a>
</g>
</g>
<!-- Node3 -->
<g id="Node000003" class="node">
<title>Node3</title>
<g id="a_Node000003"><a xlink:href="server_8cpp.html" target="_top" xlink:title=" ">
<polygon fill="white" stroke="#666666" points="497,-30 338,-30 338,0 497,0 497,-30"/>
<text text-anchor="start" x="346" y="-18" font-family="Helvetica,sans-Serif" font-size="10.00">/home/loic/EPITECH</text>
<text text-anchor="middle" x="417.5" y="-7" font-family="Helvetica,sans-Serif" font-size="10.00">/rtype/Mystic&#45;Type/server.cpp</text>
</a>
</g>
</g>
<!-- Node1&#45;&gt;Node3 -->
<g id="edge2_Node000001_Node000003" class="edge">
<title>Node1&#45;&gt;Node3</title>
<g id="a_edge2_Node000001_Node000003"><a xlink:title=" ">
<path fill="none" stroke="#63b8ff" d="M350.49,-121.61C352.79,-105.89 357.62,-83.36 367.5,-66 375.4,-52.13 388.17,-39.45 398.82,-30.33"/>
<polygon fill="#63b8ff" stroke="#63b8ff" points="347,-121.32 349.23,-131.68 353.95,-122.19 347,-121.32"/>
</a>
</g>
</g>
<!-- Node4 -->
<g id="Node000004" class="node">
<title>Node4</title>
<g id="a_Node000004"><a xlink:href="TCPServer_8hpp.html" target="_top" xlink:title=" ">
<polygon fill="white" stroke="#666666" points="510,-96 377,-96 377,-66 510,-66 510,-96"/>
<text text-anchor="start" x="385" y="-84" font-family="Helvetica,sans-Serif" font-size="10.00">Network/TransportLayer</text>
<text text-anchor="middle" x="443.5" y="-73" font-family="Helvetica,sans-Serif" font-size="10.00">/TCP/TCPServer.hpp</text>
</a>
</g>
</g>
<!-- Node1&#45;&gt;Node4 -->
<g id="edge3_Node000001_Node000004" class="edge">
<title>Node1&#45;&gt;Node4</title>
<g id="a_edge3_Node000001_Node000004"><a xlink:title=" ">
<path fill="none" stroke="#63b8ff" d="M371.15,-126.55C386.08,-117.36 405.59,-105.35 420.58,-96.11"/>
<polygon fill="#63b8ff" stroke="#63b8ff" points="369.2,-123.64 362.52,-131.87 372.87,-129.6 369.2,-123.64"/>
</a>
</g>
</g>
<!-- Node6 -->
<g id="Node000006" class="node">
<title>Node6</title>
<g id="a_Node000006"><a xlink:href="UDPGameServer_8hpp.html" target="_top" xlink:title=" ">
<polygon fill="white" stroke="#666666" points="320.5,-96 174.5,-96 174.5,-66 320.5,-66 320.5,-96"/>
<text text-anchor="start" x="182.5" y="-84" font-family="Helvetica,sans-Serif" font-size="10.00">Network/TransportLayer</text>
<text text-anchor="middle" x="247.5" y="-73" font-family="Helvetica,sans-Serif" font-size="10.00">/UDP/UDPGameServer.hpp</text>
</a>
</g>
</g>
<!-- Node1&#45;&gt;Node6 -->
<g id="edge6_Node000001_Node000006" class="edge">
<title>Node1&#45;&gt;Node6</title>
<g id="a_edge6_Node000001_Node000006"><a xlink:title=" ">
<path fill="none" stroke="#63b8ff" d="M324.87,-126.81C308.93,-117.58 287.96,-105.43 271.87,-96.11"/>
<polygon fill="#63b8ff" stroke="#63b8ff" points="323.19,-129.88 333.6,-131.87 326.7,-123.83 323.19,-129.88"/>
</a>
</g>
</g>
<!-- Node8 -->
<g id="Node000008" class="node">
<title>Node8</title>
<g id="a_Node000008"><a xlink:href="IpcChannel_8cpp.html" target="_top" xlink:title=" ">
<polygon fill="white" stroke="#666666" points="653,-90.5 528,-90.5 528,-71.5 653,-71.5 653,-90.5"/>
<text text-anchor="middle" x="590.5" y="-78.5" font-family="Helvetica,sans-Serif" font-size="10.00">server/IpcChannel.cpp</text>
</a>
</g>
</g>
<!-- Node1&#45;&gt;Node8 -->
<g id="edge10_Node000001_Node000008" class="edge">
<title>Node1&#45;&gt;Node8</title>
<g id="a_edge10_Node000001_Node000008"><a xlink:title=" ">
<path fill="none" stroke="#63b8ff" d="M393.55,-129.61C440.32,-118.3 512.5,-100.85 555.27,-90.52"/>
<polygon fill="#63b8ff" stroke="#63b8ff" points="392.59,-126.24 383.69,-131.99 394.23,-133.05 392.59,-126.24"/>
</a>
</g>
</g>
<!-- Node4&#45;&gt;Node3 -->
<g id="edge4_Node000004_Node000003" class="edge">
<title>Node4&#45;&gt;Node3</title>
<g id="a_edge4_Node000004_Node000003"><a xlink:title=" ">
<path fill="none" stroke="#63b8ff" d="M433.91,-56.39C430.33,-47.59 426.38,-37.86 423.25,-30.16"/>
<polygon fill="#63b8ff" stroke="#63b8ff" points="430.72,-57.85 437.73,-65.8 437.21,-55.21 430.72,-57.85"/>
</a>
</g>
</g>
<!-- Node5 -->
<g id="Node000005" class="node">
<title>Node5</title>
<g id="a_Node000005"><a xlink:href="TCPServer_8cpp.html" target="_top" xlink:title=" ">
<polygon fill="white" stroke="#666666" points="648,-30 515,-30 515,0 648,0 648,-30"/>
<text text-anchor="start" x="523" y="-18" font-family="Helvetica,sans-Serif" font-size="10.00">Network/TransportLayer</text>
<text text-anchor="middle" x="581.5" y="-7" font-family="Helvetica,sans-Serif" font-size="10.00">/TCP/TCPServer.cpp</text>
</a>
</g>
</g>
<!-- Node4&#45;&gt;Node5 -->
<g id="edge5_Node000004_Node000005" class="edge">
<title>Node4&#45;&gt;Node5</title>
<g id="a_edge5_Node000004_Node000005"><a xlink:title=" ">
<path fill="none" stroke="#63b8ff" d="M483.07,-61.65C504.77,-51.58 531.26,-39.3 551.29,-30.01"/>
<polygon fill="#63b8ff" stroke="#63b8ff" points="481.38,-58.57 473.78,-65.95 484.33,-64.92 481.38,-58.57"/>
</a>
</g>
</g>
<!-- Node6&#45;&gt;Node2 -->
<g id="edge7_Node000006_Node000002" class="edge">
<title>Node6&#45;&gt;Node2</title>
<g id="a_edge7_Node000006_Node000002"><a xlink:title=" ">
<path fill="none" stroke="#63b8ff" d="M200.82,-62.32C173.92,-52.14 140.58,-39.51 115.5,-30.01"/>
<polygon fill="#63b8ff" stroke="#63b8ff" points="199.82,-65.69 210.41,-65.95 202.3,-59.14 199.82,-65.69"/>
</a>
</g>
</g>
<!-- Node6&#45;&gt;Node3 -->
<g id="edge8_Node000006_Node000003" class="edge">
<title>Node6&#45;&gt;Node3</title>
<g id="a_edge8_Node000006_Node000003"><a xlink:title=" ">
<path fill="none" stroke="#63b8ff" d="M294.46,-62.32C321.51,-52.14 355.05,-39.51 380.28,-30.01"/>
<polygon fill="#63b8ff" stroke="#63b8ff" points="292.93,-59.16 284.81,-65.95 295.4,-65.71 292.93,-59.16"/>
</a>
</g>
</g>
<!-- Node7 -->
<g id="Node000007" class="node">
<title>Node7</title>
<g id="a_Node000007"><a xlink:href="UDPGameServer_8cpp.html" target="_top" xlink:title=" ">
<polygon fill="white" stroke="#666666" points="320,-30 175,-30 175,0 320,0 320,-30"/>
<text text-anchor="start" x="183" y="-18" font-family="Helvetica,sans-Serif" font-size="10.00">Network/TransportLayer</text>
<text text-anchor="middle" x="247.5" y="-7" font-family="Helvetica,sans-Serif" font-size="10.00">/UDP/UDPGameServer.cpp</text>
</a>
</g>
</g>
<!-- Node6&#45;&gt;Node7 -->
<g id="edge9_Node000006_Node000007" class="edge">
<title>Node6&#45;&gt;Node7</title>
<g id="a_edge9_Node000006_Node000007"><a xlink:title=" ">
<path fill="none" stroke="#63b8ff" d="M247.5,-55.54C247.5,-46.96 247.5,-37.61 247.5,-30.16"/>
<polygon fill="#63b8ff" stroke="#63b8ff" points="244,-55.8 247.5,-65.8 251,-55.8 244,-55.8"/>
</a>
</g>
</g>
</g>
</svg>
