<?xml version="1.0" encoding="UTF-8" standalone="no"?>
<!DOCTYPE svg PUBLIC "-//W3C//DTD SVG 1.1//EN"
 "http://www.w3.org/Graphics/SVG/1.1/DTD/svg11.dtd">
<!-- Generated by graphviz version 2.43.0 (0)
 -->
<!-- Title: Protocol::consumeChunk Pages: 1 -->
<svg width="1339pt" height="191pt"
 viewBox="0.00 0.00 1339.00 190.50" xmlns="http://www.w3.org/2000/svg" xmlns:xlink="http://www.w3.org/1999/xlink">
<g id="graph0" class="graph" transform="scale(1 1) rotate(0) translate(4 186.5)">
<title>Protocol::consumeChunk</title>
<!-- Node1 -->
<g id="Node000001" class="node">
<title>Node1</title>
<g id="a_Node000001"><a xlink:title="Append newly read bytes then attempt extraction.">
<polygon fill="#999999" stroke="#666666" points="1331,-160.5 1194,-160.5 1194,-141.5 1331,-141.5 1331,-160.5"/>
<text text-anchor="middle" x="1262.5" y="-148.5" font-family="Helvetica,sans-Serif" font-size="10.00">Protocol::consumeChunk</text>
</a>
</g>
</g>
<!-- Node2 -->
<g id="Node000002" class="node">
<title>Node2</title>
<g id="a_Node000002"><a xlink:href="classTCPServer.html#ae9543e5003c04975a7e06a9bb85c7723" target="_top" xlink:title="Receive and parse a packet from a client socket.">
<polygon fill="white" stroke="#666666" points="1156,-182.5 1016,-182.5 1016,-163.5 1156,-163.5 1156,-182.5"/>
<text text-anchor="middle" x="1086" y="-170.5" font-family="Helvetica,sans-Serif" font-size="10.00">TCPServer::receivePacket</text>
</a>
</g>
</g>
<!-- Node1&#45;&gt;Node2 -->
<g id="edge1_Node000001_Node000002" class="edge">
<title>Node1&#45;&gt;Node2</title>
<g id="a_edge1_Node000001_Node000002"><a xlink:title=" ">
<path fill="none" stroke="#63b8ff" d="M1183.39,-160.85C1174.33,-161.99 1165.14,-163.15 1156.22,-164.27"/>
<polygon fill="#63b8ff" stroke="#63b8ff" points="1184.05,-164.29 1193.53,-159.57 1183.17,-157.35 1184.05,-164.29"/>
</a>
</g>
</g>
<!-- Node6 -->
<g id="Node000006" class="node">
<title>Node6</title>
<g id="a_Node000006"><a xlink:href="classNetworkClient.html#ab8fe1bfbcfc0f363bce00cb1dc2a2f88" target="_top" xlink:title=" ">
<polygon fill="white" stroke="#666666" points="1158,-145 1014,-145 1014,-115 1158,-115 1158,-145"/>
<text text-anchor="start" x="1022" y="-133" font-family="Helvetica,sans-Serif" font-size="10.00">NetworkClient::receiveTcp</text>
<text text-anchor="middle" x="1086" y="-122" font-family="Helvetica,sans-Serif" font-size="10.00">Framed</text>
</a>
</g>
</g>
<!-- Node1&#45;&gt;Node6 -->
<g id="edge5_Node000001_Node000006" class="edge">
<title>Node1&#45;&gt;Node6</title>
<g id="a_edge5_Node000001_Node000006"><a xlink:title=" ">
<path fill="none" stroke="#63b8ff" d="M1183.39,-141.6C1175.02,-140.59 1166.53,-139.57 1158.24,-138.57"/>
<polygon fill="#63b8ff" stroke="#63b8ff" points="1183.19,-145.1 1193.53,-142.82 1184.02,-138.15 1183.19,-145.1"/>
</a>
</g>
</g>
<!-- Node3 -->
<g id="Node000003" class="node">
<title>Node3</title>
<g id="a_Node000003"><a xlink:href="classTCPServer.html#ada05a61182a782b4d3326fabd26a19bf" target="_top" xlink:title="Read and handle data for a single client.">
<polygon fill="white" stroke="#666666" points="978,-182.5 817,-182.5 817,-163.5 978,-163.5 978,-182.5"/>
<text text-anchor="middle" x="897.5" y="-170.5" font-family="Helvetica,sans-Serif" font-size="10.00">TCPServer::processClientData</text>
</a>
</g>
</g>
<!-- Node2&#45;&gt;Node3 -->
<g id="edge2_Node000002_Node000003" class="edge">
<title>Node2&#45;&gt;Node3</title>
<g id="a_edge2_Node000002_Node000003"><a xlink:title=" ">
<path fill="none" stroke="#63b8ff" d="M1005.67,-173C996.6,-173 987.34,-173 978.27,-173"/>
<polygon fill="#63b8ff" stroke="#63b8ff" points="1005.82,-176.5 1015.82,-173 1005.82,-169.5 1005.82,-176.5"/>
</a>
</g>
</g>
<!-- Node4 -->
<g id="Node000004" class="node">
<title>Node4</title>
<g id="a_Node000004"><a xlink:href="classTCPServer.html#a4e6d2ef05b71c4ecbd0518fc7215ece3" target="_top" xlink:title="Run the main accept/receive loop (blocking).">
<polygon fill="white" stroke="#666666" points="732.5,-182.5 644.5,-182.5 644.5,-163.5 732.5,-163.5 732.5,-182.5"/>
<text text-anchor="middle" x="688.5" y="-170.5" font-family="Helvetica,sans-Serif" font-size="10.00">TCPServer::run</text>
</a>
</g>
</g>
<!-- Node3&#45;&gt;Node4 -->
<g id="edge3_Node000003_Node000004" class="edge">
<title>Node3&#45;&gt;Node4</title>
<g id="a_edge3_Node000003_Node000004"><a xlink:title=" ">
<path fill="none" stroke="#63b8ff" d="M806.62,-173C780.97,-173 754.18,-173 732.71,-173"/>
<polygon fill="#63b8ff" stroke="#63b8ff" points="806.76,-176.5 816.76,-173 806.76,-169.5 806.76,-176.5"/>
</a>
</g>
</g>
<!-- Node5 -->
<g id="Node000005" class="node">
<title>Node5</title>
<g id="a_Node000005"><a xlink:href="server_8cpp.html#ae66f6b31b5ad750f1fe042a706a4e3d4" target="_top" xlink:title=" ">
<polygon fill="white" stroke="#666666" points="497,-182.5 456,-182.5 456,-163.5 497,-163.5 497,-182.5"/>
<text text-anchor="middle" x="476.5" y="-170.5" font-family="Helvetica,sans-Serif" font-size="10.00">main</text>
</a>
</g>
</g>
<!-- Node4&#45;&gt;Node5 -->
<g id="edge4_Node000004_Node000005" class="edge">
<title>Node4&#45;&gt;Node5</title>
<g id="a_edge4_Node000004_Node000005"><a xlink:title=" ">
<path fill="none" stroke="#63b8ff" d="M634.36,-173C589.6,-173 528.05,-173 497.04,-173"/>
<polygon fill="#63b8ff" stroke="#63b8ff" points="634.5,-176.5 644.5,-173 634.5,-169.5 634.5,-176.5"/>
</a>
</g>
</g>
<!-- Node7 -->
<g id="Node000007" class="node">
<title>Node7</title>
<g id="a_Node000007"><a xlink:href="classNetworkClient.html#a1773337e67c321eece590156e1a7b38a" target="_top" xlink:title="Perform the application handshake over TCP.">
<polygon fill="white" stroke="#666666" points="781,-142.5 596,-142.5 596,-123.5 781,-123.5 781,-142.5"/>
<text text-anchor="middle" x="688.5" y="-130.5" font-family="Helvetica,sans-Serif" font-size="10.00">NetworkClient::performHandshake</text>
</a>
</g>
</g>
<!-- Node6&#45;&gt;Node7 -->
<g id="edge6_Node000006_Node000007" class="edge">
<title>Node6&#45;&gt;Node7</title>
<g id="a_edge6_Node000006_Node000007"><a xlink:title=" ">
<path fill="none" stroke="#63b8ff" d="M1003.69,-130.62C939.04,-131.11 848.61,-131.79 781.35,-132.3"/>
<polygon fill="#63b8ff" stroke="#63b8ff" points="1003.86,-134.12 1013.84,-130.54 1003.81,-127.12 1003.86,-134.12"/>
</a>
</g>
</g>
<!-- Node11 -->
<g id="Node000011" class="node">
<title>Node11</title>
<g id="a_Node000011"><a xlink:href="classNetworkClient.html#ac0dca5641be17084ead40825063b944e" target="_top" xlink:title=" ">
<polygon fill="white" stroke="#666666" points="978,-85.5 817,-85.5 817,-66.5 978,-66.5 978,-85.5"/>
<text text-anchor="middle" x="897.5" y="-73.5" font-family="Helvetica,sans-Serif" font-size="10.00">NetworkClient::readTcpPacket</text>
</a>
</g>
</g>
<!-- Node6&#45;&gt;Node11 -->
<g id="edge10_Node000006_Node000011" class="edge">
<title>Node6&#45;&gt;Node11</title>
<g id="a_edge10_Node000006_Node000011"><a xlink:title=" ">
<path fill="none" stroke="#63b8ff" d="M1023.29,-112.13C992.62,-103.25 956.79,-92.88 931.41,-85.53"/>
<polygon fill="#63b8ff" stroke="#63b8ff" points="1022.47,-115.54 1033.05,-114.96 1024.42,-108.81 1022.47,-115.54"/>
</a>
</g>
</g>
<!-- Node8 -->
<g id="Node000008" class="node">
<title>Node8</title>
<g id="a_Node000008"><a xlink:href="classGraphicClient.html#a4b416d0d2b3f07134ce30afb0c60adbe" target="_top" xlink:title="Initializes the client (connects to server, shows menus).">
<polygon fill="white" stroke="#666666" points="339,-86.5 235,-86.5 235,-67.5 339,-67.5 339,-86.5"/>
<text text-anchor="middle" x="287" y="-74.5" font-family="Helvetica,sans-Serif" font-size="10.00">GraphicClient::init</text>
</a>
</g>
</g>
<!-- Node7&#45;&gt;Node8 -->
<g id="edge7_Node000007_Node000008" class="edge">
<title>Node7&#45;&gt;Node8</title>
<g id="a_edge7_Node000007_Node000008"><a xlink:title=" ">
<path fill="none" stroke="#63b8ff" d="M608.42,-122.07C549.12,-113.85 465.96,-102.29 393,-92 375.5,-89.53 356.35,-86.8 339.26,-84.36"/>
<polygon fill="#63b8ff" stroke="#63b8ff" points="608.08,-125.55 618.47,-123.46 609.04,-118.62 608.08,-125.55"/>
</a>
</g>
</g>
<!-- Node9 -->
<g id="Node000009" class="node">
<title>Node9</title>
<g id="a_Node000009"><a xlink:href="classGraphicClient.html#ad39a5f1d7ec30752f8d412d6925ef109" target="_top" xlink:title="Main application loop.">
<polygon fill="white" stroke="#666666" points="181,-64.5 77,-64.5 77,-45.5 181,-45.5 181,-64.5"/>
<text text-anchor="middle" x="129" y="-52.5" font-family="Helvetica,sans-Serif" font-size="10.00">GraphicClient::run</text>
</a>
</g>
</g>
<!-- Node8&#45;&gt;Node9 -->
<g id="edge8_Node000008_Node000009" class="edge">
<title>Node8&#45;&gt;Node9</title>
<g id="a_edge8_Node000008_Node000009"><a xlink:title=" ">
<path fill="none" stroke="#63b8ff" d="M224.62,-68.34C210.24,-66.32 195.07,-64.18 181.19,-62.22"/>
<polygon fill="#63b8ff" stroke="#63b8ff" points="224.53,-71.87 234.92,-69.8 225.51,-64.93 224.53,-71.87"/>
</a>
</g>
</g>
<!-- Node10 -->
<g id="Node000010" class="node">
<title>Node10</title>
<g id="a_Node000010"><a xlink:href="client_8cpp.html#ae66f6b31b5ad750f1fe042a706a4e3d4" target="_top" xlink:title=" ">
<polygon fill="white" stroke="#666666" points="41,-64.5 0,-64.5 0,-45.5 41,-45.5 41,-64.5"/>
<text text-anchor="middle" x="20.5" y="-52.5" font-family="Helvetica,sans-Serif" font-size="10.00">main</text>
</a>
</g>
</g>
<!-- Node9&#45;&gt;Node10 -->
<g id="edge9_Node000009_Node000010" class="edge">
<title>Node9&#45;&gt;Node10</title>
<g id="a_edge9_Node000009_Node000010"><a xlink:title=" ">
<path fill="none" stroke="#63b8ff" d="M66.83,-55C57.58,-55 48.66,-55 41.22,-55"/>
<polygon fill="#63b8ff" stroke="#63b8ff" points="66.93,-58.5 76.93,-55 66.93,-51.5 66.93,-58.5"/>
</a>
</g>
</g>
<!-- Node12 -->
<g id="Node000012" class="node">
<title>Node12</title>
<g id="a_Node000012"><a xlink:href="classNetworkClient.html#a1f77ff0729755d9782b4542582cfe214" target="_top" xlink:title="Poll TCP/UDP sockets and handle any received packets.">
<polygon fill="white" stroke="#666666" points="762,-76.5 615,-76.5 615,-57.5 762,-57.5 762,-76.5"/>
<text text-anchor="middle" x="688.5" y="-64.5" font-family="Helvetica,sans-Serif" font-size="10.00">NetworkClient::pollPackets</text>
</a>
</g>
</g>
<!-- Node11&#45;&gt;Node12 -->
<g id="edge11_Node000011_Node000012" class="edge">
<title>Node11&#45;&gt;Node12</title>
<g id="a_edge11_Node000011_Node000012"><a xlink:title=" ">
<path fill="none" stroke="#63b8ff" d="M806.55,-72.09C791.69,-71.44 776.45,-70.78 762.08,-70.16"/>
<polygon fill="#63b8ff" stroke="#63b8ff" points="806.62,-75.6 816.76,-72.53 806.93,-68.6 806.62,-75.6"/>
</a>
</g>
</g>
<!-- Node12&#45;&gt;Node8 -->
<g id="edge12_Node000012_Node000008" class="edge">
<title>Node12&#45;&gt;Node8</title>
<g id="a_edge12_Node000012_Node000008"><a xlink:title=" ">
<path fill="none" stroke="#63b8ff" d="M604.56,-73.66C589.73,-74.62 574.41,-75.47 560,-76 483.08,-78.85 393.84,-78.48 339.15,-77.83"/>
<polygon fill="#63b8ff" stroke="#63b8ff" points="604.98,-77.14 614.73,-72.98 604.51,-70.16 604.98,-77.14"/>
</a>
</g>
</g>
<!-- Node13 -->
<g id="Node000013" class="node">
<title>Node13</title>
<g id="a_Node000013"><a xlink:href="classGraphicClient.html#a1fa2cfd0c71b32b0b1f0e0675a2e1cb2" target="_top" xlink:title="Processes network events and updates game state.">
<polygon fill="white" stroke="#666666" points="560,-30 393,-30 393,0 560,0 560,-30"/>
<text text-anchor="start" x="401" y="-18" font-family="Helvetica,sans-Serif" font-size="10.00">GraphicClient::processNetwork</text>
<text text-anchor="middle" x="476.5" y="-7" font-family="Helvetica,sans-Serif" font-size="10.00">Events</text>
</a>
</g>
</g>
<!-- Node12&#45;&gt;Node13 -->
<g id="edge13_Node000012_Node000013" class="edge">
<title>Node12&#45;&gt;Node13</title>
<g id="a_edge13_Node000012_Node000013"><a xlink:title=" ">
<path fill="none" stroke="#63b8ff" d="M639.18,-55.04C609.23,-47.62 570.5,-38.03 538.45,-30.09"/>
<polygon fill="#63b8ff" stroke="#63b8ff" points="638.43,-58.46 648.98,-57.46 640.12,-51.66 638.43,-58.46"/>
</a>
</g>
</g>
<!-- Node15 -->
<g id="Node000015" class="node">
<title>Node15</title>
<g id="a_Node000015"><a xlink:href="classGraphicClient.html#a70229e3e019e7b315f06c9ad74f23be5" target="_top" xlink:title="Shows lobby selection menu.">
<polygon fill="white" stroke="#666666" points="550,-67.5 403,-67.5 403,-48.5 550,-48.5 550,-67.5"/>
<text text-anchor="middle" x="476.5" y="-55.5" font-family="Helvetica,sans-Serif" font-size="10.00">GraphicClient::selectLobby</text>
</a>
</g>
</g>
<!-- Node12&#45;&gt;Node15 -->
<g id="edge16_Node000012_Node000015" class="edge">
<title>Node12&#45;&gt;Node15</title>
<g id="a_edge16_Node000012_Node000015"><a xlink:title=" ">
<path fill="none" stroke="#63b8ff" d="M604.72,-63.45C586.67,-62.68 567.69,-61.87 550.07,-61.11"/>
<polygon fill="#63b8ff" stroke="#63b8ff" points="604.8,-66.96 614.94,-63.89 605.09,-59.97 604.8,-66.96"/>
</a>
</g>
</g>
<!-- Node14 -->
<g id="Node000014" class="node">
<title>Node14</title>
<g id="a_Node000014"><a xlink:href="classGraphicClient.html#a5cb5c37142e62f04824cc6e21dd199b2" target="_top" xlink:title="Main game loop iteration.">
<polygon fill="white" stroke="#666666" points="357,-46.5 217,-46.5 217,-27.5 357,-27.5 357,-46.5"/>
<text text-anchor="middle" x="287" y="-34.5" font-family="Helvetica,sans-Serif" font-size="10.00">GraphicClient::gameLoop</text>
</a>
</g>
</g>
<!-- Node13&#45;&gt;Node14 -->
<g id="edge14_Node000013_Node000014" class="edge">
<title>Node13&#45;&gt;Node14</title>
<g id="a_edge14_Node000013_Node000014"><a xlink:title=" ">
<path fill="none" stroke="#63b8ff" d="M382.83,-25.87C374.16,-26.89 365.48,-27.91 357.08,-28.89"/>
<polygon fill="#63b8ff" stroke="#63b8ff" points="383.46,-29.32 392.99,-24.68 382.65,-22.37 383.46,-29.32"/>
</a>
</g>
</g>
<!-- Node14&#45;&gt;Node9 -->
<g id="edge15_Node000014_Node000009" class="edge">
<title>Node14&#45;&gt;Node9</title>
<g id="a_edge15_Node000014_Node000009"><a xlink:title=" ">
<path fill="none" stroke="#63b8ff" d="M206.6,-46.16C198.02,-47.15 189.46,-48.14 181.33,-49.08"/>
<polygon fill="#63b8ff" stroke="#63b8ff" points="207.13,-49.62 216.67,-45 206.33,-42.67 207.13,-49.62"/>
</a>
</g>
</g>
<!-- Node15&#45;&gt;Node8 -->
<g id="edge17_Node000015_Node000008" class="edge">
<title>Node15&#45;&gt;Node8</title>
<g id="a_edge17_Node000015_Node000008"><a xlink:title=" ">
<path fill="none" stroke="#63b8ff" d="M392.71,-66.39C374.51,-68.23 355.76,-70.13 339.24,-71.81"/>
<polygon fill="#63b8ff" stroke="#63b8ff" points="393.14,-69.86 402.74,-65.37 392.44,-62.9 393.14,-69.86"/>
</a>
</g>
</g>
</g>
</svg>
