<?xml version="1.0" encoding="UTF-8" standalone="no"?>
<!DOCTYPE svg PUBLIC "-//W3C//DTD SVG 1.1//EN"
 "http://www.w3.org/Graphics/SVG/1.1/DTD/svg11.dtd">
<!-- Generated by graphviz version 2.43.0 (0)
 -->
<!-- Title: Protocol::frameTcp Pages: 1 -->
<svg width="1752pt" height="762pt"
 viewBox="0.00 0.00 1752.00 762.40" xmlns="http://www.w3.org/2000/svg" xmlns:xlink="http://www.w3.org/1999/xlink">
<g id="graph0" class="graph" transform="scale(1 1) rotate(0) translate(4 758.4)">
<title>Protocol::frameTcp</title>
<!-- Node1 -->
<g id="Node000001" class="node">
<title>Node1</title>
<g id="a_Node000001"><a xlink:title="Build a TCP framed buffer (2 bytes length + serialized packet).">
<polygon fill="#999999" stroke="#666666" points="1744,-312 1637,-312 1637,-293 1744,-293 1744,-312"/>
<text text-anchor="middle" x="1690.5" y="-300" font-family="Helvetica,sans-Serif" font-size="10.00">Protocol::frameTcp</text>
</a>
</g>
</g>
<!-- Node2 -->
<g id="Node000002" class="node">
<title>Node2</title>
<g id="a_Node000002"><a xlink:href="classTCPServer.html#a9a65a3923e77e48c5f0019b45af8fcb5" target="_top" xlink:title="Send a packet to a specific client fd.">
<polygon fill="white" stroke="#666666" points="1583,-466 1456,-466 1456,-447 1583,-447 1583,-466"/>
<text text-anchor="middle" x="1519.5" y="-454" font-family="Helvetica,sans-Serif" font-size="10.00">TCPServer::sendPacket</text>
</a>
</g>
</g>
<!-- Node1&#45;&gt;Node2 -->
<g id="edge1_Node000001_Node000002" class="edge">
<title>Node1&#45;&gt;Node2</title>
<g id="a_edge1_Node000001_Node000002"><a xlink:title=" ">
<path fill="none" stroke="#63b8ff" d="M1671.28,-319.1C1635.95,-351.29 1559.16,-421.27 1531.07,-446.87"/>
<polygon fill="#63b8ff" stroke="#63b8ff" points="1673.89,-321.46 1678.93,-312.13 1669.18,-316.28 1673.89,-321.46"/>
</a>
</g>
</g>
<!-- Node20 -->
<g id="Node000020" class="node">
<title>Node20</title>
<g id="a_Node000020"><a xlink:href="classNetworkClient.html#af150c1b7e0aa8c19cb337fb838479324" target="_top" xlink:title=" ">
<polygon fill="white" stroke="#666666" points="1601,-198 1438,-198 1438,-179 1601,-179 1601,-198"/>
<text text-anchor="middle" x="1519.5" y="-186" font-family="Helvetica,sans-Serif" font-size="10.00">NetworkClient::sendPacketTcp</text>
</a>
</g>
</g>
<!-- Node1&#45;&gt;Node20 -->
<g id="edge34_Node000001_Node000020" class="edge">
<title>Node1&#45;&gt;Node20</title>
<g id="a_edge34_Node000001_Node000020"><a xlink:title=" ">
<path fill="none" stroke="#63b8ff" d="M1666.71,-287.13C1631.37,-263.29 1564.34,-218.07 1534.94,-198.24"/>
<polygon fill="#63b8ff" stroke="#63b8ff" points="1665.13,-290.29 1675.38,-292.98 1669.05,-284.48 1665.13,-290.29"/>
</a>
</g>
</g>
<!-- Node3 -->
<g id="Node000003" class="node">
<title>Node3</title>
<g id="a_Node000003"><a xlink:href="classTCPServer.html#ae0e94f8d712b3c9028fe674100d649b9" target="_top" xlink:title="Accept incoming connection and register a new client slot.">
<polygon fill="white" stroke="#666666" points="1194,-750 1039,-750 1039,-731 1194,-731 1194,-750"/>
<text text-anchor="middle" x="1116.5" y="-738" font-family="Helvetica,sans-Serif" font-size="10.00">TCPServer::acceptNewClient</text>
</a>
</g>
</g>
<!-- Node2&#45;&gt;Node3 -->
<g id="edge2_Node000002_Node000003" class="edge">
<title>Node2&#45;&gt;Node3</title>
<g id="a_edge2_Node000002_Node000003"><a xlink:title=" ">
<path fill="none" stroke="#63b8ff" d="M1516.08,-476.22C1508.91,-525.36 1482.92,-653.49 1402,-711.5 1334.81,-759.66 1234.68,-757.44 1172.87,-750"/>
<polygon fill="#63b8ff" stroke="#63b8ff" points="1519.56,-476.62 1517.43,-466.24 1512.62,-475.68 1519.56,-476.62"/>
</a>
</g>
</g>
<!-- Node6 -->
<g id="Node000006" class="node">
<title>Node6</title>
<g id="a_Node000006"><a xlink:href="classTCPServer.html#aee3fb51b52375d68f548f60cc7005ef0" target="_top" xlink:title="Notify all clients of a newly connected player.">
<polygon fill="white" stroke="#666666" points="1203,-712 1030,-712 1030,-693 1203,-693 1203,-712"/>
<text text-anchor="middle" x="1116.5" y="-700" font-family="Helvetica,sans-Serif" font-size="10.00">TCPServer::broadcastNewPlayer</text>
</a>
</g>
</g>
<!-- Node2&#45;&gt;Node6 -->
<g id="edge5_Node000002_Node000006" class="edge">
<title>Node2&#45;&gt;Node6</title>
<g id="a_edge5_Node000002_Node000006"><a xlink:title=" ">
<path fill="none" stroke="#63b8ff" d="M1514.77,-476.16C1505.13,-520.89 1474.89,-630.14 1402,-678.5 1331.89,-725.02 1229.67,-720.4 1168.75,-712.01"/>
<polygon fill="#63b8ff" stroke="#63b8ff" points="1518.22,-476.75 1516.79,-466.25 1511.36,-475.35 1518.22,-476.75"/>
</a>
</g>
</g>
<!-- Node7 -->
<g id="Node000007" class="node">
<title>Node7</title>
<g id="a_Node000007"><a xlink:href="classTCPServer.html#afd78aa179d3b735e82868d800629b354" target="_top" xlink:title="Handle lobby&#45;related packets for a client.">
<polygon fill="white" stroke="#666666" points="564,-636 398,-636 398,-617 564,-617 564,-636"/>
<text text-anchor="middle" x="481" y="-624" font-family="Helvetica,sans-Serif" font-size="10.00">TCPServer::handleLobbyPacket</text>
</a>
</g>
</g>
<!-- Node2&#45;&gt;Node7 -->
<g id="edge16_Node000002_Node000007" class="edge">
<title>Node2&#45;&gt;Node7</title>
<g id="a_edge16_Node000002_Node000007"><a xlink:title=" ">
<path fill="none" stroke="#63b8ff" d="M1506.98,-474.61C1488.34,-502.45 1448.86,-555.56 1402,-584.5 1290.25,-653.52 1248.85,-664.5 1117.5,-664.5 1117.5,-664.5 1117.5,-664.5 900.5,-664.5 774.83,-664.5 628.81,-647.3 546.72,-636.04"/>
<polygon fill="#63b8ff" stroke="#63b8ff" points="1509.93,-476.49 1512.49,-466.21 1504.08,-472.66 1509.93,-476.49"/>
</a>
</g>
</g>
<!-- Node8 -->
<g id="Node000008" class="node">
<title>Node8</title>
<g id="a_Node000008"><a xlink:href="classTCPServer.html#ada05a61182a782b4d3326fabd26a19bf" target="_top" xlink:title="Read and handle data for a single client.">
<polygon fill="white" stroke="#666666" points="362,-485 201,-485 201,-466 362,-466 362,-485"/>
<text text-anchor="middle" x="281.5" y="-473" font-family="Helvetica,sans-Serif" font-size="10.00">TCPServer::processClientData</text>
</a>
</g>
</g>
<!-- Node2&#45;&gt;Node8 -->
<g id="edge17_Node000002_Node000008" class="edge">
<title>Node2&#45;&gt;Node8</title>
<g id="a_edge17_Node000002_Node000008"><a xlink:title=" ">
<path fill="none" stroke="#63b8ff" d="M1445.68,-462.03C1365.36,-467.64 1232.29,-475.5 1117.5,-475.5 1117.5,-475.5 1117.5,-475.5 685.5,-475.5 573.21,-475.5 443.31,-475.5 362.02,-475.5"/>
<polygon fill="#63b8ff" stroke="#63b8ff" points="1445.96,-465.51 1455.69,-461.32 1445.47,-458.53 1445.96,-465.51"/>
</a>
</g>
</g>
<!-- Node9 -->
<g id="Node000009" class="node">
<title>Node9</title>
<g id="a_Node000009"><a xlink:href="classTCPServer.html#afb22938cbabd280ec30b3ffab25aeb56" target="_top" xlink:title=" ">
<polygon fill="white" stroke="#666666" points="981.5,-447 821.5,-447 821.5,-428 981.5,-428 981.5,-447"/>
<text text-anchor="middle" x="901.5" y="-435" font-family="Helvetica,sans-Serif" font-size="10.00">TCPServer::broadcastToLobby</text>
</a>
</g>
</g>
<!-- Node2&#45;&gt;Node9 -->
<g id="edge9_Node000002_Node000009" class="edge">
<title>Node2&#45;&gt;Node9</title>
<g id="a_edge9_Node000002_Node000009"><a xlink:title=" ">
<path fill="none" stroke="#63b8ff" d="M1445.52,-454.25C1329.02,-450.66 1101.96,-443.65 981.67,-439.94"/>
<polygon fill="#63b8ff" stroke="#63b8ff" points="1445.66,-457.75 1455.76,-454.56 1445.87,-450.76 1445.66,-457.75"/>
</a>
</g>
</g>
<!-- Node10 -->
<g id="Node000010" class="node">
<title>Node10</title>
<g id="a_Node000010"><a xlink:href="classTCPServer.html#a867c0e233f62e2d8f181ae99dbcca0a0" target="_top" xlink:title="Disconnect clients whose heartbeat timed out.">
<polygon fill="white" stroke="#666666" points="555.5,-371 406.5,-371 406.5,-352 555.5,-352 555.5,-371"/>
<text text-anchor="middle" x="481" y="-359" font-family="Helvetica,sans-Serif" font-size="10.00">TCPServer::checkHeartbeat</text>
</a>
</g>
</g>
<!-- Node2&#45;&gt;Node10 -->
<g id="edge15_Node000002_Node000010" class="edge">
<title>Node2&#45;&gt;Node10</title>
<g id="a_edge15_Node000002_Node000010"><a xlink:title=" ">
<path fill="none" stroke="#63b8ff" d="M1493.32,-441.83C1431.52,-407.24 1266.49,-323.5 1117.5,-323.5 1117.5,-323.5 1117.5,-323.5 900.5,-323.5 774.83,-323.5 628.81,-340.7 546.72,-351.96"/>
<polygon fill="#63b8ff" stroke="#63b8ff" points="1491.91,-445.05 1502.34,-446.93 1495.36,-438.96 1491.91,-445.05"/>
</a>
</g>
</g>
<!-- Node11 -->
<g id="Node000011" class="node">
<title>Node11</title>
<g id="a_Node000011"><a xlink:href="classTCPServer.html#a2a03b7479e884f287b5a88df03eeb17b" target="_top" xlink:title=" ">
<polygon fill="white" stroke="#666666" points="773,-409 600,-409 600,-390 773,-390 773,-409"/>
<text text-anchor="middle" x="686.5" y="-397" font-family="Helvetica,sans-Serif" font-size="10.00">TCPServer::processIpcMessages</text>
</a>
</g>
</g>
<!-- Node2&#45;&gt;Node11 -->
<g id="edge18_Node000002_Node000011" class="edge">
<title>Node2&#45;&gt;Node11</title>
<g id="a_edge18_Node000002_Node000011"><a xlink:title=" ">
<path fill="none" stroke="#63b8ff" d="M1446.02,-447.85C1431.46,-446.27 1416.25,-444.73 1402,-443.5 1175.26,-423.88 907.3,-409.81 773.11,-403.4"/>
<polygon fill="#63b8ff" stroke="#63b8ff" points="1445.66,-451.33 1455.98,-448.95 1446.42,-444.37 1445.66,-451.33"/>
</a>
</g>
</g>
<!-- Node12 -->
<g id="Node000012" class="node">
<title>Node12</title>
<g id="a_Node000012"><a xlink:href="classTCPServer.html#a1ef2aa5cce99901889e64fce86fbac33" target="_top" xlink:title="Send a ping packet to every connected client.">
<polygon fill="white" stroke="#666666" points="351.5,-314 211.5,-314 211.5,-295 351.5,-295 351.5,-314"/>
<text text-anchor="middle" x="281.5" y="-302" font-family="Helvetica,sans-Serif" font-size="10.00">TCPServer::sendPingToAll</text>
</a>
</g>
</g>
<!-- Node2&#45;&gt;Node12 -->
<g id="edge19_Node000002_Node000012" class="edge">
<title>Node2&#45;&gt;Node12</title>
<g id="a_edge19_Node000002_Node000012"><a xlink:title=" ">
<path fill="none" stroke="#63b8ff" d="M1506.54,-438.08C1487.79,-410.85 1448.74,-360.38 1402,-335.5 1288.67,-275.18 1245.88,-285.5 1117.5,-285.5 1117.5,-285.5 1117.5,-285.5 685.5,-285.5 568.18,-285.5 431.86,-293.63 351.62,-299.26"/>
<polygon fill="#63b8ff" stroke="#63b8ff" points="1503.83,-440.31 1512.31,-446.67 1509.64,-436.41 1503.83,-440.31"/>
</a>
</g>
</g>
<!-- Node13 -->
<g id="Node000013" class="node">
<title>Node13</title>
<g id="a_Node000013"><a xlink:href="classTCPServer.html#aa87b20fb76f60c19df36f39ef3621b05" target="_top" xlink:title="Send the current player list to a single client.">
<polygon fill="white" stroke="#666666" points="1392,-575.5 1249,-575.5 1249,-545.5 1392,-545.5 1392,-575.5"/>
<text text-anchor="start" x="1257" y="-563.5" font-family="Helvetica,sans-Serif" font-size="10.00">TCPServer::sendPlayerList</text>
<text text-anchor="middle" x="1320.5" y="-552.5" font-family="Helvetica,sans-Serif" font-size="10.00">ToClient</text>
</a>
</g>
</g>
<!-- Node2&#45;&gt;Node13 -->
<g id="edge21_Node000002_Node000013" class="edge">
<title>Node2&#45;&gt;Node13</title>
<g id="a_edge21_Node000002_Node000013"><a xlink:title=" ">
<path fill="none" stroke="#63b8ff" d="M1491.08,-470.97C1453.89,-490.61 1387.77,-525.52 1350.01,-545.45"/>
<polygon fill="#63b8ff" stroke="#63b8ff" points="1493.11,-473.86 1500.32,-466.1 1489.84,-467.67 1493.11,-473.86"/>
</a>
</g>
</g>
<!-- Node4 -->
<g id="Node000004" class="node">
<title>Node4</title>
<g id="a_Node000004"><a xlink:href="classTCPServer.html#a4e6d2ef05b71c4ecbd0518fc7215ece3" target="_top" xlink:title="Run the main accept/receive loop (blocking).">
<polygon fill="white" stroke="#666666" points="165,-409 77,-409 77,-390 165,-390 165,-409"/>
<text text-anchor="middle" x="121" y="-397" font-family="Helvetica,sans-Serif" font-size="10.00">TCPServer::run</text>
</a>
</g>
</g>
<!-- Node3&#45;&gt;Node4 -->
<g id="edge3_Node000003_Node000004" class="edge">
<title>Node3&#45;&gt;Node4</title>
<g id="a_edge3_Node000003_Node000004"><a xlink:title=" ">
<path fill="none" stroke="#63b8ff" d="M1028.93,-740.5C942.47,-740.5 805.79,-740.5 687.5,-740.5 687.5,-740.5 687.5,-740.5 480,-740.5 282.58,-740.5 150.92,-465.25 126.22,-409.34"/>
<polygon fill="#63b8ff" stroke="#63b8ff" points="1028.96,-744 1038.96,-740.5 1028.96,-737 1028.96,-744"/>
</a>
</g>
</g>
<!-- Node5 -->
<g id="Node000005" class="node">
<title>Node5</title>
<g id="a_Node000005"><a xlink:href="server_8cpp.html#ae66f6b31b5ad750f1fe042a706a4e3d4" target="_top" xlink:title=" ">
<polygon fill="white" stroke="#666666" points="41,-409 0,-409 0,-390 41,-390 41,-409"/>
<text text-anchor="middle" x="20.5" y="-397" font-family="Helvetica,sans-Serif" font-size="10.00">main</text>
</a>
</g>
</g>
<!-- Node4&#45;&gt;Node5 -->
<g id="edge4_Node000004_Node000005" class="edge">
<title>Node4&#45;&gt;Node5</title>
<g id="a_edge4_Node000004_Node000005"><a xlink:title=" ">
<path fill="none" stroke="#63b8ff" d="M66.57,-399.5C57.52,-399.5 48.67,-399.5 41.23,-399.5"/>
<polygon fill="#63b8ff" stroke="#63b8ff" points="66.8,-403 76.8,-399.5 66.8,-396 66.8,-403"/>
</a>
</g>
</g>
<!-- Node6&#45;&gt;Node7 -->
<g id="edge6_Node000006_Node000007" class="edge">
<title>Node6&#45;&gt;Node7</title>
<g id="a_edge6_Node000006_Node000007"><a xlink:title=" ">
<path fill="none" stroke="#63b8ff" d="M1019.58,-708.43C914.95,-712.51 743.28,-712.17 600,-678.5 561.86,-669.54 520.72,-648.53 498.51,-636.13"/>
<polygon fill="#63b8ff" stroke="#63b8ff" points="1019.95,-711.92 1029.8,-708.01 1019.67,-704.92 1019.95,-711.92"/>
</a>
</g>
</g>
<!-- Node7&#45;&gt;Node8 -->
<g id="edge7_Node000007_Node000008" class="edge">
<title>Node7&#45;&gt;Node8</title>
<g id="a_edge7_Node000007_Node000008"><a xlink:title=" ">
<path fill="none" stroke="#63b8ff" d="M409.6,-613.36C405.57,-611.64 401.67,-609.7 398,-607.5 344.45,-575.41 302.6,-510.07 288.05,-485.31"/>
<polygon fill="#63b8ff" stroke="#63b8ff" points="408.6,-616.72 419.19,-616.97 411.07,-610.17 408.6,-616.72"/>
</a>
</g>
</g>
<!-- Node8&#45;&gt;Node4 -->
<g id="edge8_Node000008_Node000004" class="edge">
<title>Node8&#45;&gt;Node4</title>
<g id="a_edge8_Node000008_Node000004"><a xlink:title=" ">
<path fill="none" stroke="#63b8ff" d="M251.18,-461.44C219.37,-446.19 169.45,-422.25 141.91,-409.05"/>
<polygon fill="#63b8ff" stroke="#63b8ff" points="249.9,-464.71 260.43,-465.87 252.92,-458.39 249.9,-464.71"/>
</a>
</g>
</g>
<!-- Node9&#45;&gt;Node8 -->
<g id="edge12_Node000009_Node000008" class="edge">
<title>Node9&#45;&gt;Node8</title>
<g id="a_edge12_Node000009_Node000008"><a xlink:title=" ">
<path fill="none" stroke="#63b8ff" d="M811.06,-439.8C710.47,-442.85 542.3,-449.32 398,-461.5 383.81,-462.7 368.68,-464.3 354.19,-465.99"/>
<polygon fill="#63b8ff" stroke="#63b8ff" points="811.29,-443.3 821.18,-439.5 811.08,-436.3 811.29,-443.3"/>
</a>
</g>
</g>
<!-- Node9&#45;&gt;Node10 -->
<g id="edge10_Node000009_Node000010" class="edge">
<title>Node9&#45;&gt;Node10</title>
<g id="a_edge10_Node000009_Node000010"><a xlink:title=" ">
<path fill="none" stroke="#63b8ff" d="M874.98,-423.13C849.88,-409.78 810.05,-390.62 773,-381.5 700.59,-363.69 615.2,-359.75 555.72,-359.62"/>
<polygon fill="#63b8ff" stroke="#63b8ff" points="873.38,-426.25 883.84,-427.94 876.72,-420.09 873.38,-426.25"/>
</a>
</g>
</g>
<!-- Node9&#45;&gt;Node11 -->
<g id="edge13_Node000009_Node000011" class="edge">
<title>Node9&#45;&gt;Node11</title>
<g id="a_edge13_Node000009_Node000011"><a xlink:title=" ">
<path fill="none" stroke="#63b8ff" d="M836.9,-426.15C806.34,-420.7 770.12,-414.24 741,-409.04"/>
<polygon fill="#63b8ff" stroke="#63b8ff" points="836.57,-429.65 847.03,-427.96 837.8,-422.76 836.57,-429.65"/>
</a>
</g>
</g>
<!-- Node10&#45;&gt;Node4 -->
<g id="edge11_Node000010_Node000004" class="edge">
<title>Node10&#45;&gt;Node4</title>
<g id="a_edge11_Node000010_Node000004"><a xlink:title=" ">
<path fill="none" stroke="#63b8ff" d="M396.24,-366.74C340.72,-370.69 266.34,-376.92 201,-385.5 189.4,-387.02 176.91,-389.05 165.35,-391.1"/>
<polygon fill="#63b8ff" stroke="#63b8ff" points="396.65,-370.22 406.38,-366.03 396.16,-363.24 396.65,-370.22"/>
</a>
</g>
</g>
<!-- Node11&#45;&gt;Node4 -->
<g id="edge14_Node000011_Node000004" class="edge">
<title>Node11&#45;&gt;Node4</title>
<g id="a_edge14_Node000011_Node000004"><a xlink:title=" ">
<path fill="none" stroke="#63b8ff" d="M589.68,-399.5C465.75,-399.5 255.14,-399.5 165,-399.5"/>
<polygon fill="#63b8ff" stroke="#63b8ff" points="589.92,-403 599.92,-399.5 589.92,-396 589.92,-403"/>
</a>
</g>
</g>
<!-- Node12&#45;&gt;Node4 -->
<g id="edge20_Node000012_Node000004" class="edge">
<title>Node12&#45;&gt;Node4</title>
<g id="a_edge20_Node000012_Node000004"><a xlink:title=" ">
<path fill="none" stroke="#63b8ff" d="M252.59,-318.84C237.2,-326.94 217.84,-337.43 201,-347.5 177.61,-361.49 151.33,-379.2 135.75,-389.93"/>
<polygon fill="#63b8ff" stroke="#63b8ff" points="254.37,-321.86 261.61,-314.13 251.13,-315.66 254.37,-321.86"/>
</a>
</g>
</g>
<!-- Node13&#45;&gt;Node7 -->
<g id="edge22_Node000013_Node000007" class="edge">
<title>Node13&#45;&gt;Node7</title>
<g id="a_edge22_Node000013_Node000007"><a xlink:title=" ">
<path fill="none" stroke="#63b8ff" d="M1238.8,-574.57C1226.82,-576.4 1214.6,-578.11 1203,-579.5 972.43,-607.1 698.29,-619.36 564.17,-624.03"/>
<polygon fill="#63b8ff" stroke="#63b8ff" points="1239.44,-578.02 1248.79,-573.02 1238.37,-571.1 1239.44,-578.02"/>
</a>
</g>
</g>
<!-- Node14 -->
<g id="Node000014" class="node">
<title>Node14</title>
<g id="a_Node000014"><a xlink:href="classTCPServer.html#a8d2dcfc8d8337ff577a101c4aee6aac5" target="_top" xlink:title="Resend the player list to all members of a lobby.">
<polygon fill="white" stroke="#666666" points="1184.5,-570 1048.5,-570 1048.5,-551 1184.5,-551 1184.5,-570"/>
<text text-anchor="middle" x="1116.5" y="-558" font-family="Helvetica,sans-Serif" font-size="10.00">TCPServer::refreshLobby</text>
</a>
</g>
</g>
<!-- Node13&#45;&gt;Node14 -->
<g id="edge23_Node000013_Node000014" class="edge">
<title>Node13&#45;&gt;Node14</title>
<g id="a_edge23_Node000013_Node000014"><a xlink:title=" ">
<path fill="none" stroke="#63b8ff" d="M1238.72,-560.5C1220.81,-560.5 1202.01,-560.5 1184.71,-560.5"/>
<polygon fill="#63b8ff" stroke="#63b8ff" points="1238.85,-564 1248.85,-560.5 1238.85,-557 1238.85,-564"/>
</a>
</g>
</g>
<!-- Node14&#45;&gt;Node7 -->
<g id="edge24_Node000014_Node000007" class="edge">
<title>Node14&#45;&gt;Node7</title>
<g id="a_edge24_Node000014_Node000007"><a xlink:title=" ">
<path fill="none" stroke="#63b8ff" d="M1038.22,-567.87C937.36,-577.58 755.38,-595.45 600,-612.5 587.29,-613.9 573.81,-615.44 560.68,-616.97"/>
<polygon fill="#63b8ff" stroke="#63b8ff" points="1038.7,-571.34 1048.32,-566.9 1038.03,-564.37 1038.7,-571.34"/>
</a>
</g>
</g>
<!-- Node15 -->
<g id="Node000015" class="node">
<title>Node15</title>
<g id="a_Node000015"><a xlink:href="classTCPServer.html#a508cc3d7023b0cfe9abed2e3166b1682" target="_top" xlink:title="Remove a client from its current lobby.">
<polygon fill="white" stroke="#666666" points="983.5,-542 819.5,-542 819.5,-523 983.5,-523 983.5,-542"/>
<text text-anchor="middle" x="901.5" y="-530" font-family="Helvetica,sans-Serif" font-size="10.00">TCPServer::removeFromLobby</text>
</a>
</g>
</g>
<!-- Node14&#45;&gt;Node15 -->
<g id="edge25_Node000014_Node000015" class="edge">
<title>Node14&#45;&gt;Node15</title>
<g id="a_edge25_Node000014_Node000015"><a xlink:title=" ">
<path fill="none" stroke="#63b8ff" d="M1038.36,-550.36C1017.62,-547.63 995.27,-544.69 974.8,-542"/>
<polygon fill="#63b8ff" stroke="#63b8ff" points="1038.03,-553.85 1048.4,-551.68 1038.94,-546.91 1038.03,-553.85"/>
</a>
</g>
</g>
<!-- Node15&#45;&gt;Node11 -->
<g id="edge29_Node000015_Node000011" class="edge">
<title>Node15&#45;&gt;Node11</title>
<g id="a_edge29_Node000015_Node000011"><a xlink:title=" ">
<path fill="none" stroke="#63b8ff" d="M876.56,-517.55C832.49,-490.04 739.72,-432.11 702.97,-409.16"/>
<polygon fill="#63b8ff" stroke="#63b8ff" points="874.85,-520.61 885.18,-522.93 878.55,-514.67 874.85,-520.61"/>
</a>
</g>
</g>
<!-- Node16 -->
<g id="Node000016" class="node">
<title>Node16</title>
<g id="a_Node000016"><a xlink:href="classTCPServer.html#a84035146c9257be5714850a1f46d0bfb" target="_top" xlink:title="Assign a client to a lobby (public or private).">
<polygon fill="white" stroke="#666666" points="753,-560 620,-560 620,-541 753,-541 753,-560"/>
<text text-anchor="middle" x="686.5" y="-548" font-family="Helvetica,sans-Serif" font-size="10.00">TCPServer::assignLobby</text>
</a>
</g>
</g>
<!-- Node15&#45;&gt;Node16 -->
<g id="edge26_Node000015_Node000016" class="edge">
<title>Node15&#45;&gt;Node16</title>
<g id="a_edge26_Node000015_Node000016"><a xlink:title=" ">
<path fill="none" stroke="#63b8ff" d="M809.28,-540.21C790.43,-541.8 770.93,-543.45 753.21,-544.95"/>
<polygon fill="#63b8ff" stroke="#63b8ff" points="809.7,-543.69 819.37,-539.36 809.11,-536.71 809.7,-543.69"/>
</a>
</g>
</g>
<!-- Node18 -->
<g id="Node000018" class="node">
<title>Node18</title>
<g id="a_Node000018"><a xlink:href="classTCPServer.html#a435ec8dcd340e15f964ce3c0748c7305" target="_top" xlink:title="Reset client fields and close its socket.">
<polygon fill="white" stroke="#666666" points="749,-523 624,-523 624,-504 749,-504 749,-523"/>
<text text-anchor="middle" x="686.5" y="-511" font-family="Helvetica,sans-Serif" font-size="10.00">TCPServer::resetClient</text>
</a>
</g>
</g>
<!-- Node15&#45;&gt;Node18 -->
<g id="edge30_Node000015_Node000018" class="edge">
<title>Node15&#45;&gt;Node18</title>
<g id="a_edge30_Node000015_Node000018"><a xlink:title=" ">
<path fill="none" stroke="#63b8ff" d="M809.18,-524.35C788.93,-522.55 767.93,-520.67 749.19,-519"/>
<polygon fill="#63b8ff" stroke="#63b8ff" points="809.09,-527.86 819.37,-525.26 809.72,-520.89 809.09,-527.86"/>
</a>
</g>
</g>
<!-- Node16&#45;&gt;Node7 -->
<g id="edge28_Node000016_Node000007" class="edge">
<title>Node16&#45;&gt;Node7</title>
<g id="a_edge28_Node000016_Node000007"><a xlink:title=" ">
<path fill="none" stroke="#63b8ff" d="M626.83,-563.01C617.55,-566.1 608.3,-569.88 600,-574.5 581.03,-585.05 583.2,-597.38 564,-607.5 556.63,-611.38 548.48,-614.48 540.25,-616.94"/>
<polygon fill="#63b8ff" stroke="#63b8ff" points="627.93,-566.33 636.45,-560.04 625.87,-559.64 627.93,-566.33"/>
</a>
</g>
</g>
<!-- Node17 -->
<g id="Node000017" class="node">
<title>Node17</title>
<g id="a_Node000017"><a xlink:href="classTCPServer.html#ad6bed785945fc2f21376ff2b58090829" target="_top" xlink:title="Auto&#45;match the client into a public lobby.">
<polygon fill="white" stroke="#666666" points="558.5,-598 403.5,-598 403.5,-579 558.5,-579 558.5,-598"/>
<text text-anchor="middle" x="481" y="-586" font-family="Helvetica,sans-Serif" font-size="10.00">TCPServer::autoAssignPublic</text>
</a>
</g>
</g>
<!-- Node16&#45;&gt;Node17 -->
<g id="edge27_Node000016_Node000017" class="edge">
<title>Node16&#45;&gt;Node17</title>
<g id="a_edge27_Node000016_Node000017"><a xlink:title=" ">
<path fill="none" stroke="#63b8ff" d="M624.35,-561.92C595.24,-567.36 560.81,-573.78 533.11,-578.96"/>
<polygon fill="#63b8ff" stroke="#63b8ff" points="625.22,-565.32 634.41,-560.04 623.94,-558.44 625.22,-565.32"/>
</a>
</g>
</g>
<!-- Node18&#45;&gt;Node8 -->
<g id="edge32_Node000018_Node000008" class="edge">
<title>Node18&#45;&gt;Node8</title>
<g id="a_edge32_Node000018_Node000008"><a xlink:title=" ">
<path fill="none" stroke="#63b8ff" d="M613.55,-508.24C555.36,-503.81 471.33,-497 398,-489.5 384.94,-488.16 371.06,-486.6 357.63,-485.02"/>
<polygon fill="#63b8ff" stroke="#63b8ff" points="613.51,-511.75 623.75,-509.02 614.04,-504.77 613.51,-511.75"/>
</a>
</g>
</g>
<!-- Node18&#45;&gt;Node10 -->
<g id="edge31_Node000018_Node000010" class="edge">
<title>Node18&#45;&gt;Node10</title>
<g id="a_edge31_Node000018_Node000010"><a xlink:title=" ">
<path fill="none" stroke="#63b8ff" d="M664.62,-497.91C622.59,-466.51 528.84,-396.48 494.73,-371"/>
<polygon fill="#63b8ff" stroke="#63b8ff" points="662.66,-500.81 672.77,-503.99 666.85,-495.2 662.66,-500.81"/>
</a>
</g>
</g>
<!-- Node19 -->
<g id="Node000019" class="node">
<title>Node19</title>
<g id="a_Node000019"><a xlink:href="classTCPServer.html#abc497ac52355e53986a6a1bd1acb9581" target="_top" xlink:title="Destroy the TCPServer, closing the listening socket.">
<polygon fill="white" stroke="#666666" points="546,-561 416,-561 416,-542 546,-542 546,-561"/>
<text text-anchor="middle" x="481" y="-549" font-family="Helvetica,sans-Serif" font-size="10.00">TCPServer::~TCPServer</text>
</a>
</g>
</g>
<!-- Node18&#45;&gt;Node19 -->
<g id="edge33_Node000018_Node000019" class="edge">
<title>Node18&#45;&gt;Node19</title>
<g id="a_edge33_Node000018_Node000019"><a xlink:title=" ">
<path fill="none" stroke="#63b8ff" d="M624.35,-524.92C595.24,-530.36 560.81,-536.78 533.11,-541.96"/>
<polygon fill="#63b8ff" stroke="#63b8ff" points="625.22,-528.32 634.41,-523.04 623.94,-521.44 625.22,-528.32"/>
</a>
</g>
</g>
<!-- Node21 -->
<g id="Node000021" class="node">
<title>Node21</title>
<g id="a_Node000021"><a xlink:href="classNetworkClient.html#a1773337e67c321eece590156e1a7b38a" target="_top" xlink:title="Perform the application handshake over TCP.">
<polygon fill="white" stroke="#666666" points="994,-257 809,-257 809,-238 994,-238 994,-257"/>
<text text-anchor="middle" x="901.5" y="-245" font-family="Helvetica,sans-Serif" font-size="10.00">NetworkClient::performHandshake</text>
</a>
</g>
</g>
<!-- Node20&#45;&gt;Node21 -->
<g id="edge35_Node000020_Node000021" class="edge">
<title>Node20&#45;&gt;Node21</title>
<g id="a_edge35_Node000020_Node000021"><a xlink:title=" ">
<path fill="none" stroke="#63b8ff" d="M1487.41,-201.97C1464.32,-211.28 1431.8,-222.94 1402,-228.5 1261.45,-254.71 1094.93,-255.06 994.08,-251.97"/>
<polygon fill="#63b8ff" stroke="#63b8ff" points="1488.77,-205.19 1496.69,-198.15 1486.11,-198.72 1488.77,-205.19"/>
</a>
</g>
</g>
<!-- Node25 -->
<g id="Node000025" class="node">
<title>Node25</title>
<g id="a_Node000025"><a xlink:href="classNetworkClient.html#ae93ee27e05eea56b96d34c4789a01f41" target="_top" xlink:title="Send a chat message over TCP.">
<polygon fill="white" stroke="#666666" points="1185.5,-19 1047.5,-19 1047.5,0 1185.5,0 1185.5,-19"/>
<text text-anchor="middle" x="1116.5" y="-7" font-family="Helvetica,sans-Serif" font-size="10.00">NetworkClient::sendChat</text>
</a>
</g>
</g>
<!-- Node20&#45;&gt;Node25 -->
<g id="edge39_Node000020_Node000025" class="edge">
<title>Node20&#45;&gt;Node25</title>
<g id="a_edge39_Node000020_Node000025"><a xlink:title=" ">
<path fill="none" stroke="#63b8ff" d="M1503.05,-171.43C1482.19,-149.39 1442.9,-111.28 1402,-89.5 1330.67,-51.52 1239.43,-29.99 1179.77,-19.05"/>
<polygon fill="#63b8ff" stroke="#63b8ff" points="1500.5,-173.82 1509.87,-178.76 1505.62,-169.06 1500.5,-173.82"/>
</a>
</g>
</g>
<!-- Node27 -->
<g id="Node000027" class="node">
<title>Node27</title>
<g id="a_Node000027"><a xlink:href="classNetworkClient.html#a69d86a3b406a767d3feb704be440343a" target="_top" xlink:title="Ask the server to create a private lobby.">
<polygon fill="white" stroke="#666666" points="1394.5,-181.5 1246.5,-181.5 1246.5,-151.5 1394.5,-151.5 1394.5,-181.5"/>
<text text-anchor="start" x="1254.5" y="-169.5" font-family="Helvetica,sans-Serif" font-size="10.00">NetworkClient::sendCreate</text>
<text text-anchor="middle" x="1320.5" y="-158.5" font-family="Helvetica,sans-Serif" font-size="10.00">Lobby</text>
</a>
</g>
</g>
<!-- Node20&#45;&gt;Node27 -->
<g id="edge42_Node000020_Node000027" class="edge">
<title>Node20&#45;&gt;Node27</title>
<g id="a_edge42_Node000020_Node000027"><a xlink:title=" ">
<path fill="none" stroke="#63b8ff" d="M1427.72,-178.36C1416.69,-177.13 1405.53,-175.88 1394.79,-174.68"/>
<polygon fill="#63b8ff" stroke="#63b8ff" points="1427.48,-181.86 1437.8,-179.49 1428.25,-174.9 1427.48,-181.86"/>
</a>
</g>
</g>
<!-- Node29 -->
<g id="Node000029" class="node">
<title>Node29</title>
<g id="a_Node000029"><a xlink:href="classNetworkClient.html#ab66ff3a3c9bb96ad56e141d3713914bd" target="_top" xlink:title="Ask the server to join an existing lobby.">
<polygon fill="white" stroke="#666666" points="1402,-219 1239,-219 1239,-200 1402,-200 1402,-219"/>
<text text-anchor="middle" x="1320.5" y="-207" font-family="Helvetica,sans-Serif" font-size="10.00">NetworkClient::sendJoinLobby</text>
</a>
</g>
</g>
<!-- Node20&#45;&gt;Node29 -->
<g id="edge45_Node000020_Node000029" class="edge">
<title>Node20&#45;&gt;Node29</title>
<g id="a_edge45_Node000020_Node000029"><a xlink:title=" ">
<path fill="none" stroke="#63b8ff" d="M1427.78,-198.17C1419.2,-199.08 1410.55,-200.01 1402.07,-200.91"/>
<polygon fill="#63b8ff" stroke="#63b8ff" points="1428.23,-201.64 1437.8,-197.1 1427.49,-194.68 1428.23,-201.64"/>
</a>
</g>
</g>
<!-- Node30 -->
<g id="Node000030" class="node">
<title>Node30</title>
<g id="a_Node000030"><a xlink:href="classNetworkClient.html#a28a515bbb5f6f75d6603a5332c217f93" target="_top" xlink:title="Send TCP PONG in response to server PING.">
<polygon fill="white" stroke="#666666" points="1390.5,-117 1250.5,-117 1250.5,-98 1390.5,-98 1390.5,-117"/>
<text text-anchor="middle" x="1320.5" y="-105" font-family="Helvetica,sans-Serif" font-size="10.00">NetworkClient::sendPong</text>
</a>
</g>
</g>
<!-- Node20&#45;&gt;Node30 -->
<g id="edge47_Node000020_Node000030" class="edge">
<title>Node20&#45;&gt;Node30</title>
<g id="a_edge47_Node000020_Node000030"><a xlink:title=" ">
<path fill="none" stroke="#63b8ff" d="M1485.86,-175.08C1446.08,-158.72 1379.85,-131.49 1344.84,-117.1"/>
<polygon fill="#63b8ff" stroke="#63b8ff" points="1484.55,-178.32 1495.13,-178.89 1487.21,-171.85 1484.55,-178.32"/>
</a>
</g>
</g>
<!-- Node22 -->
<g id="Node000022" class="node">
<title>Node22</title>
<g id="a_Node000022"><a xlink:href="classGraphicClient.html#a4b416d0d2b3f07134ce30afb0c60adbe" target="_top" xlink:title="Initializes the client (connects to server, shows menus).">
<polygon fill="white" stroke="#666666" points="533,-162 429,-162 429,-143 533,-143 533,-162"/>
<text text-anchor="middle" x="481" y="-150" font-family="Helvetica,sans-Serif" font-size="10.00">GraphicClient::init</text>
</a>
</g>
</g>
<!-- Node21&#45;&gt;Node22 -->
<g id="edge36_Node000021_Node000022" class="edge">
<title>Node21&#45;&gt;Node22</title>
<g id="a_edge36_Node000021_Node000022"><a xlink:title=" ">
<path fill="none" stroke="#63b8ff" d="M828.19,-236.37C766.97,-226.34 677.14,-210.15 600,-190.5 568.09,-182.37 532.17,-170.38 508.44,-162.06"/>
<polygon fill="#63b8ff" stroke="#63b8ff" points="827.71,-239.84 838.14,-237.99 828.83,-232.93 827.71,-239.84"/>
</a>
</g>
</g>
<!-- Node23 -->
<g id="Node000023" class="node">
<title>Node23</title>
<g id="a_Node000023"><a xlink:href="classGraphicClient.html#ad39a5f1d7ec30752f8d412d6925ef109" target="_top" xlink:title="Main application loop.">
<polygon fill="white" stroke="#666666" points="333.5,-122 229.5,-122 229.5,-103 333.5,-103 333.5,-122"/>
<text text-anchor="middle" x="281.5" y="-110" font-family="Helvetica,sans-Serif" font-size="10.00">GraphicClient::run</text>
</a>
</g>
</g>
<!-- Node22&#45;&gt;Node23 -->
<g id="edge37_Node000022_Node000023" class="edge">
<title>Node22&#45;&gt;Node23</title>
<g id="a_edge37_Node000022_Node000023"><a xlink:title=" ">
<path fill="none" stroke="#63b8ff" d="M423.14,-140.98C393.48,-134.98 357.62,-127.71 329.54,-122.03"/>
<polygon fill="#63b8ff" stroke="#63b8ff" points="422.45,-144.42 432.94,-142.97 423.84,-137.55 422.45,-144.42"/>
</a>
</g>
</g>
<!-- Node24 -->
<g id="Node000024" class="node">
<title>Node24</title>
<g id="a_Node000024"><a xlink:href="client_8cpp.html#ae66f6b31b5ad750f1fe042a706a4e3d4" target="_top" xlink:title=" ">
<polygon fill="white" stroke="#666666" points="141.5,-122 100.5,-122 100.5,-103 141.5,-103 141.5,-122"/>
<text text-anchor="middle" x="121" y="-110" font-family="Helvetica,sans-Serif" font-size="10.00">main</text>
</a>
</g>
</g>
<!-- Node23&#45;&gt;Node24 -->
<g id="edge38_Node000023_Node000024" class="edge">
<title>Node23&#45;&gt;Node24</title>
<g id="a_edge38_Node000023_Node000024"><a xlink:title=" ">
<path fill="none" stroke="#63b8ff" d="M219.12,-112.5C191.64,-112.5 161.12,-112.5 141.77,-112.5"/>
<polygon fill="#63b8ff" stroke="#63b8ff" points="219.48,-116 229.48,-112.5 219.48,-109 219.48,-116"/>
</a>
</g>
</g>
<!-- Node26 -->
<g id="Node000026" class="node">
<title>Node26</title>
<g id="a_Node000026"><a xlink:href="classGraphicClient.html#a5cb5c37142e62f04824cc6e21dd199b2" target="_top" xlink:title="Main game loop iteration.">
<polygon fill="white" stroke="#666666" points="551,-79 411,-79 411,-60 551,-60 551,-79"/>
<text text-anchor="middle" x="481" y="-67" font-family="Helvetica,sans-Serif" font-size="10.00">GraphicClient::gameLoop</text>
</a>
</g>
</g>
<!-- Node25&#45;&gt;Node26 -->
<g id="edge40_Node000025_Node000026" class="edge">
<title>Node25&#45;&gt;Node26</title>
<g id="a_edge40_Node000025_Node000026"><a xlink:title=" ">
<path fill="none" stroke="#63b8ff" d="M1037.19,-7.12C935.59,-5.4 753.2,-6.99 600,-33.5 567.08,-39.2 530.46,-51.32 506.88,-59.92"/>
<polygon fill="#63b8ff" stroke="#63b8ff" points="1037.3,-10.62 1047.36,-7.3 1037.43,-3.62 1037.3,-10.62"/>
</a>
</g>
</g>
<!-- Node26&#45;&gt;Node23 -->
<g id="edge41_Node000026_Node000023" class="edge">
<title>Node26&#45;&gt;Node23</title>
<g id="a_edge41_Node000026_Node000023"><a xlink:title=" ">
<path fill="none" stroke="#63b8ff" d="M426.26,-81.2C394.85,-88.04 355.72,-96.56 326.21,-102.98"/>
<polygon fill="#63b8ff" stroke="#63b8ff" points="427.14,-84.59 436.17,-79.04 425.65,-77.75 427.14,-84.59"/>
</a>
</g>
</g>
<!-- Node28 -->
<g id="Node000028" class="node">
<title>Node28</title>
<g id="a_Node000028"><a xlink:href="classGraphicClient.html#a70229e3e019e7b315f06c9ad74f23be5" target="_top" xlink:title="Shows lobby selection menu.">
<polygon fill="white" stroke="#666666" points="760,-181 613,-181 613,-162 760,-162 760,-181"/>
<text text-anchor="middle" x="686.5" y="-169" font-family="Helvetica,sans-Serif" font-size="10.00">GraphicClient::selectLobby</text>
</a>
</g>
</g>
<!-- Node27&#45;&gt;Node28 -->
<g id="edge43_Node000027_Node000028" class="edge">
<title>Node27&#45;&gt;Node28</title>
<g id="a_edge43_Node000027_Node000028"><a xlink:title=" ">
<path fill="none" stroke="#63b8ff" d="M1236.14,-167.16C1111.52,-168.15 878.69,-169.99 760.45,-170.92"/>
<polygon fill="#63b8ff" stroke="#63b8ff" points="1236.41,-170.66 1246.38,-167.08 1236.36,-163.66 1236.41,-170.66"/>
</a>
</g>
</g>
<!-- Node28&#45;&gt;Node22 -->
<g id="edge44_Node000028_Node000022" class="edge">
<title>Node28&#45;&gt;Node22</title>
<g id="a_edge44_Node000028_Node000022"><a xlink:title=" ">
<path fill="none" stroke="#63b8ff" d="M602.89,-163.79C579.3,-161.58 554.29,-159.25 533.18,-157.28"/>
<polygon fill="#63b8ff" stroke="#63b8ff" points="602.61,-167.28 612.89,-164.72 603.26,-160.31 602.61,-167.28"/>
</a>
</g>
</g>
<!-- Node29&#45;&gt;Node28 -->
<g id="edge46_Node000029_Node000028" class="edge">
<title>Node29&#45;&gt;Node28</title>
<g id="a_edge46_Node000029_Node000028"><a xlink:title=" ">
<path fill="none" stroke="#63b8ff" d="M1228.69,-206.18C1126.54,-202.14 955.73,-194.48 809,-183.5 793.15,-182.31 776.15,-180.79 760.05,-179.24"/>
<polygon fill="#63b8ff" stroke="#63b8ff" points="1228.84,-209.69 1238.97,-206.58 1229.11,-202.69 1228.84,-209.69"/>
</a>
</g>
</g>
<!-- Node30&#45;&gt;Node26 -->
<g id="edge48_Node000030_Node000026" class="edge">
<title>Node30&#45;&gt;Node26</title>
<g id="a_edge48_Node000030_Node000026"><a xlink:title=" ">
<path fill="none" stroke="#63b8ff" d="M1289.77,-93.89C1266.66,-84.09 1233.51,-71.71 1203,-66.5 966.71,-26.14 680.48,-47.84 551.25,-61.34"/>
<polygon fill="#63b8ff" stroke="#63b8ff" points="1288.46,-97.13 1299.02,-97.9 1291.24,-90.71 1288.46,-97.13"/>
</a>
</g>
</g>
<!-- Node30&#45;&gt;Node28 -->
<g id="edge55_Node000030_Node000028" class="edge">
<title>Node30&#45;&gt;Node28</title>
<g id="a_edge55_Node000030_Node000028"><a xlink:title=" ">
<path fill="none" stroke="#63b8ff" d="M1240.2,-115.53C1116.51,-128.06 879.47,-152.06 760.05,-164.15"/>
<polygon fill="#63b8ff" stroke="#63b8ff" points="1240.76,-118.99 1250.36,-114.5 1240.06,-112.03 1240.76,-118.99"/>
</a>
</g>
</g>
<!-- Node31 -->
<g id="Node000031" class="node">
<title>Node31</title>
<g id="a_Node000031"><a xlink:href="classNetworkClient.html#a5bc6fcb253ac9f9d74c649cb4b30d546" target="_top" xlink:title=" ">
<polygon fill="white" stroke="#666666" points="1187,-105.5 1046,-105.5 1046,-75.5 1187,-75.5 1187,-105.5"/>
<text text-anchor="start" x="1054" y="-93.5" font-family="Helvetica,sans-Serif" font-size="10.00">NetworkClient::handleTcp</text>
<text text-anchor="middle" x="1116.5" y="-82.5" font-family="Helvetica,sans-Serif" font-size="10.00">Packet</text>
</a>
</g>
</g>
<!-- Node30&#45;&gt;Node31 -->
<g id="edge49_Node000030_Node000031" class="edge">
<title>Node30&#45;&gt;Node31</title>
<g id="a_edge49_Node000030_Node000031"><a xlink:title=" ">
<path fill="none" stroke="#63b8ff" d="M1240.12,-100.82C1222.69,-99.35 1204.35,-97.81 1187.33,-96.38"/>
<polygon fill="#63b8ff" stroke="#63b8ff" points="1240.01,-104.32 1250.27,-101.67 1240.59,-97.35 1240.01,-104.32"/>
</a>
</g>
</g>
<!-- Node32 -->
<g id="Node000032" class="node">
<title>Node32</title>
<g id="a_Node000032"><a xlink:href="classNetworkClient.html#a1f77ff0729755d9782b4542582cfe214" target="_top" xlink:title="Poll TCP/UDP sockets and handle any received packets.">
<polygon fill="white" stroke="#666666" points="975,-102 828,-102 828,-83 975,-83 975,-102"/>
<text text-anchor="middle" x="901.5" y="-90" font-family="Helvetica,sans-Serif" font-size="10.00">NetworkClient::pollPackets</text>
</a>
</g>
</g>
<!-- Node31&#45;&gt;Node32 -->
<g id="edge50_Node000031_Node000032" class="edge">
<title>Node31&#45;&gt;Node32</title>
<g id="a_edge50_Node000031_Node000032"><a xlink:title=" ">
<path fill="none" stroke="#63b8ff" d="M1035.56,-91.25C1015.79,-91.44 994.73,-91.63 975.33,-91.82"/>
<polygon fill="#63b8ff" stroke="#63b8ff" points="1035.79,-94.75 1045.76,-91.15 1035.72,-87.75 1035.79,-94.75"/>
</a>
</g>
</g>
<!-- Node32&#45;&gt;Node22 -->
<g id="edge51_Node000032_Node000022" class="edge">
<title>Node32&#45;&gt;Node22</title>
<g id="a_edge51_Node000032_Node000022"><a xlink:title=" ">
<path fill="none" stroke="#63b8ff" d="M838.21,-103.77C817.49,-107.38 794.28,-111.28 773,-114.5 689.13,-127.21 591.26,-139.46 533.08,-146.47"/>
<polygon fill="#63b8ff" stroke="#63b8ff" points="838.92,-107.2 848.16,-102.03 837.71,-100.31 838.92,-107.2"/>
</a>
</g>
</g>
<!-- Node32&#45;&gt;Node28 -->
<g id="edge54_Node000032_Node000028" class="edge">
<title>Node32&#45;&gt;Node28</title>
<g id="a_edge54_Node000032_Node000028"><a xlink:title=" ">
<path fill="none" stroke="#63b8ff" d="M846.03,-104.94C833.52,-108.78 820.51,-113.59 809,-119.5 790.96,-128.75 791.1,-138.37 773,-147.5 760.89,-153.61 747,-158.36 733.99,-161.96"/>
<polygon fill="#63b8ff" stroke="#63b8ff" points="847.3,-108.21 855.93,-102.06 845.35,-101.49 847.3,-108.21"/>
</a>
</g>
</g>
<!-- Node33 -->
<g id="Node000033" class="node">
<title>Node33</title>
<g id="a_Node000033"><a xlink:href="classGraphicClient.html#a1fa2cfd0c71b32b0b1f0e0675a2e1cb2" target="_top" xlink:title="Processes network events and updates game state.">
<polygon fill="white" stroke="#666666" points="770,-105.5 603,-105.5 603,-75.5 770,-75.5 770,-105.5"/>
<text text-anchor="start" x="611" y="-93.5" font-family="Helvetica,sans-Serif" font-size="10.00">GraphicClient::processNetwork</text>
<text text-anchor="middle" x="686.5" y="-82.5" font-family="Helvetica,sans-Serif" font-size="10.00">Events</text>
</a>
</g>
</g>
<!-- Node32&#45;&gt;Node33 -->
<g id="edge52_Node000032_Node000033" class="edge">
<title>Node32&#45;&gt;Node33</title>
<g id="a_edge52_Node000032_Node000033"><a xlink:title=" ">
<path fill="none" stroke="#63b8ff" d="M817.66,-91.72C802.05,-91.58 785.73,-91.42 770.13,-91.28"/>
<polygon fill="#63b8ff" stroke="#63b8ff" points="817.76,-95.22 827.79,-91.82 817.83,-88.22 817.76,-95.22"/>
</a>
</g>
</g>
<!-- Node33&#45;&gt;Node26 -->
<g id="edge53_Node000033_Node000026" class="edge">
<title>Node33&#45;&gt;Node26</title>
<g id="a_edge53_Node000033_Node000026"><a xlink:title=" ">
<path fill="none" stroke="#63b8ff" d="M592.6,-80.91C578.61,-79.47 564.4,-78 551.04,-76.62"/>
<polygon fill="#63b8ff" stroke="#63b8ff" points="592.42,-84.41 602.73,-81.96 593.14,-77.45 592.42,-84.41"/>
</a>
</g>
</g>
</g>
</svg>
