<?xml version="1.0" encoding="UTF-8" standalone="no"?>
<!DOCTYPE svg PUBLIC "-//W3C//DTD SVG 1.1//EN"
 "http://www.w3.org/Graphics/SVG/1.1/DTD/svg11.dtd">
<!-- Generated by graphviz version 2.43.0 (0)
 -->
<!-- Title: Protocol::extractFromBuffer Pages: 1 -->
<svg width="1526pt" height="190pt"
 viewBox="0.00 0.00 1526.00 189.50" xmlns="http://www.w3.org/2000/svg" xmlns:xlink="http://www.w3.org/1999/xlink">
<g id="graph0" class="graph" transform="scale(1 1) rotate(0) translate(4 185.5)">
<title>Protocol::extractFromBuffer</title>
<!-- Node1 -->
<g id="Node000001" class="node">
<title>Node1</title>
<g id="a_Node000001"><a xlink:title="Try to extract a complete packet from an accumulated stream buffer.">
<polygon fill="#999999" stroke="#666666" points="1518,-88.5 1367,-88.5 1367,-69.5 1518,-69.5 1518,-88.5"/>
<text text-anchor="middle" x="1442.5" y="-76.5" font-family="Helvetica,sans-Serif" font-size="10.00">Protocol::extractFromBuffer</text>
</a>
</g>
</g>
<!-- Node2 -->
<g id="Node000002" class="node">
<title>Node2</title>
<g id="a_Node000002"><a xlink:href="namespaceProtocol.html#ad768525ca5f0324a5f414440e67679b6" target="_top" xlink:title="Append newly read bytes then attempt extraction.">
<polygon fill="white" stroke="#666666" points="1331,-124.5 1194,-124.5 1194,-105.5 1331,-105.5 1331,-124.5"/>
<text text-anchor="middle" x="1262.5" y="-112.5" font-family="Helvetica,sans-Serif" font-size="10.00">Protocol::consumeChunk</text>
</a>
</g>
</g>
<!-- Node1&#45;&gt;Node2 -->
<g id="edge1_Node000001_Node000002" class="edge">
<title>Node1&#45;&gt;Node2</title>
<g id="a_edge1_Node000001_Node000002"><a xlink:title=" ">
<path fill="none" stroke="#63b8ff" d="M1384.31,-90.57C1360.53,-95.38 1333.25,-100.89 1310.65,-105.47"/>
<polygon fill="#63b8ff" stroke="#63b8ff" points="1385.16,-93.97 1394.27,-88.55 1383.77,-87.1 1385.16,-93.97"/>
</a>
</g>
</g>
<!-- Node13 -->
<g id="Node000013" class="node">
<title>Node13</title>
<g id="a_Node000013"><a xlink:href="classNetworkClient.html#a1f77ff0729755d9782b4542582cfe214" target="_top" xlink:title="Poll TCP/UDP sockets and handle any received packets.">
<polygon fill="white" stroke="#666666" points="762,-67.5 615,-67.5 615,-48.5 762,-48.5 762,-67.5"/>
<text text-anchor="middle" x="688.5" y="-55.5" font-family="Helvetica,sans-Serif" font-size="10.00">NetworkClient::pollPackets</text>
</a>
</g>
</g>
<!-- Node1&#45;&gt;Node13 -->
<g id="edge19_Node000001_Node000013" class="edge">
<title>Node1&#45;&gt;Node13</title>
<g id="a_edge19_Node000001_Node000013"><a xlink:title=" ">
<path fill="none" stroke="#63b8ff" d="M1356.99,-76.64C1208.23,-72.49 902.13,-63.94 762.2,-60.03"/>
<polygon fill="#63b8ff" stroke="#63b8ff" points="1356.9,-80.14 1366.99,-76.92 1357.09,-73.14 1356.9,-80.14"/>
</a>
</g>
</g>
<!-- Node3 -->
<g id="Node000003" class="node">
<title>Node3</title>
<g id="a_Node000003"><a xlink:href="classTCPServer.html#ae9543e5003c04975a7e06a9bb85c7723" target="_top" xlink:title="Receive and parse a packet from a client socket.">
<polygon fill="white" stroke="#666666" points="1156,-174.5 1016,-174.5 1016,-155.5 1156,-155.5 1156,-174.5"/>
<text text-anchor="middle" x="1086" y="-162.5" font-family="Helvetica,sans-Serif" font-size="10.00">TCPServer::receivePacket</text>
</a>
</g>
</g>
<!-- Node2&#45;&gt;Node3 -->
<g id="edge2_Node000002_Node000003" class="edge">
<title>Node2&#45;&gt;Node3</title>
<g id="a_edge2_Node000002_Node000003"><a xlink:title=" ">
<path fill="none" stroke="#63b8ff" d="M1218.41,-127.35C1188.15,-136.02 1148.26,-147.45 1120.41,-155.43"/>
<polygon fill="#63b8ff" stroke="#63b8ff" points="1219.62,-130.64 1228.27,-124.52 1217.69,-123.91 1219.62,-130.64"/>
</a>
</g>
</g>
<!-- Node7 -->
<g id="Node000007" class="node">
<title>Node7</title>
<g id="a_Node000007"><a xlink:href="classNetworkClient.html#ab8fe1bfbcfc0f363bce00cb1dc2a2f88" target="_top" xlink:title=" ">
<polygon fill="white" stroke="#666666" points="1158,-130 1014,-130 1014,-100 1158,-100 1158,-130"/>
<text text-anchor="start" x="1022" y="-118" font-family="Helvetica,sans-Serif" font-size="10.00">NetworkClient::receiveTcp</text>
<text text-anchor="middle" x="1086" y="-107" font-family="Helvetica,sans-Serif" font-size="10.00">Framed</text>
</a>
</g>
</g>
<!-- Node2&#45;&gt;Node7 -->
<g id="edge6_Node000002_Node000007" class="edge">
<title>Node2&#45;&gt;Node7</title>
<g id="a_edge6_Node000002_Node000007"><a xlink:title=" ">
<path fill="none" stroke="#63b8ff" d="M1183.39,-115C1175.02,-115 1166.53,-115 1158.24,-115"/>
<polygon fill="#63b8ff" stroke="#63b8ff" points="1183.53,-118.5 1193.53,-115 1183.53,-111.5 1183.53,-118.5"/>
</a>
</g>
</g>
<!-- Node4 -->
<g id="Node000004" class="node">
<title>Node4</title>
<g id="a_Node000004"><a xlink:href="classTCPServer.html#ada05a61182a782b4d3326fabd26a19bf" target="_top" xlink:title="Read and handle data for a single client.">
<polygon fill="white" stroke="#666666" points="978,-181.5 817,-181.5 817,-162.5 978,-162.5 978,-181.5"/>
<text text-anchor="middle" x="897.5" y="-169.5" font-family="Helvetica,sans-Serif" font-size="10.00">TCPServer::processClientData</text>
</a>
</g>
</g>
<!-- Node3&#45;&gt;Node4 -->
<g id="edge3_Node000003_Node000004" class="edge">
<title>Node3&#45;&gt;Node4</title>
<g id="a_edge3_Node000003_Node000004"><a xlink:title=" ">
<path fill="none" stroke="#63b8ff" d="M1005.67,-167.98C996.6,-168.32 987.34,-168.67 978.27,-169.01"/>
<polygon fill="#63b8ff" stroke="#63b8ff" points="1005.96,-171.47 1015.82,-167.6 1005.7,-164.47 1005.96,-171.47"/>
</a>
</g>
</g>
<!-- Node5 -->
<g id="Node000005" class="node">
<title>Node5</title>
<g id="a_Node000005"><a xlink:href="classTCPServer.html#a4e6d2ef05b71c4ecbd0518fc7215ece3" target="_top" xlink:title="Run the main accept/receive loop (blocking).">
<polygon fill="white" stroke="#666666" points="732.5,-181.5 644.5,-181.5 644.5,-162.5 732.5,-162.5 732.5,-181.5"/>
<text text-anchor="middle" x="688.5" y="-169.5" font-family="Helvetica,sans-Serif" font-size="10.00">TCPServer::run</text>
</a>
</g>
</g>
<!-- Node4&#45;&gt;Node5 -->
<g id="edge4_Node000004_Node000005" class="edge">
<title>Node4&#45;&gt;Node5</title>
<g id="a_edge4_Node000004_Node000005"><a xlink:title=" ">
<path fill="none" stroke="#63b8ff" d="M806.62,-172C780.97,-172 754.18,-172 732.71,-172"/>
<polygon fill="#63b8ff" stroke="#63b8ff" points="806.76,-175.5 816.76,-172 806.76,-168.5 806.76,-175.5"/>
</a>
</g>
</g>
<!-- Node6 -->
<g id="Node000006" class="node">
<title>Node6</title>
<g id="a_Node000006"><a xlink:href="server_8cpp.html#ae66f6b31b5ad750f1fe042a706a4e3d4" target="_top" xlink:title=" ">
<polygon fill="white" stroke="#666666" points="497,-181.5 456,-181.5 456,-162.5 497,-162.5 497,-181.5"/>
<text text-anchor="middle" x="476.5" y="-169.5" font-family="Helvetica,sans-Serif" font-size="10.00">main</text>
</a>
</g>
</g>
<!-- Node5&#45;&gt;Node6 -->
<g id="edge5_Node000005_Node000006" class="edge">
<title>Node5&#45;&gt;Node6</title>
<g id="a_edge5_Node000005_Node000006"><a xlink:title=" ">
<path fill="none" stroke="#63b8ff" d="M634.36,-172C589.6,-172 528.05,-172 497.04,-172"/>
<polygon fill="#63b8ff" stroke="#63b8ff" points="634.5,-175.5 644.5,-172 634.5,-168.5 634.5,-175.5"/>
</a>
</g>
</g>
<!-- Node8 -->
<g id="Node000008" class="node">
<title>Node8</title>
<g id="a_Node000008"><a xlink:href="classNetworkClient.html#a1773337e67c321eece590156e1a7b38a" target="_top" xlink:title="Perform the application handshake over TCP.">
<polygon fill="white" stroke="#666666" points="781,-143.5 596,-143.5 596,-124.5 781,-124.5 781,-143.5"/>
<text text-anchor="middle" x="688.5" y="-131.5" font-family="Helvetica,sans-Serif" font-size="10.00">NetworkClient::performHandshake</text>
</a>
</g>
</g>
<!-- Node7&#45;&gt;Node8 -->
<g id="edge7_Node000007_Node000008" class="edge">
<title>Node7&#45;&gt;Node8</title>
<g id="a_edge7_Node000007_Node000008"><a xlink:title=" ">
<path fill="none" stroke="#63b8ff" d="M1003.69,-118.91C939.04,-122.01 848.61,-126.36 781.35,-129.59"/>
<polygon fill="#63b8ff" stroke="#63b8ff" points="1004.02,-122.39 1013.84,-118.42 1003.68,-115.4 1004.02,-122.39"/>
</a>
</g>
</g>
<!-- Node12 -->
<g id="Node000012" class="node">
<title>Node12</title>
<g id="a_Node000012"><a xlink:href="classNetworkClient.html#ac0dca5641be17084ead40825063b944e" target="_top" xlink:title=" ">
<polygon fill="white" stroke="#666666" points="978,-105.5 817,-105.5 817,-86.5 978,-86.5 978,-105.5"/>
<text text-anchor="middle" x="897.5" y="-93.5" font-family="Helvetica,sans-Serif" font-size="10.00">NetworkClient::readTcpPacket</text>
</a>
</g>
</g>
<!-- Node7&#45;&gt;Node12 -->
<g id="edge11_Node000007_Node000012" class="edge">
<title>Node7&#45;&gt;Node12</title>
<g id="a_edge11_Node000007_Node000012"><a xlink:title=" ">
<path fill="none" stroke="#63b8ff" d="M1003.96,-106.74C995.37,-105.87 986.64,-104.98 978.06,-104.11"/>
<polygon fill="#63b8ff" stroke="#63b8ff" points="1003.66,-110.23 1013.96,-107.76 1004.37,-103.27 1003.66,-110.23"/>
</a>
</g>
</g>
<!-- Node9 -->
<g id="Node000009" class="node">
<title>Node9</title>
<g id="a_Node000009"><a xlink:href="classGraphicClient.html#a4b416d0d2b3f07134ce30afb0c60adbe" target="_top" xlink:title="Initializes the client (connects to server, shows menus).">
<polygon fill="white" stroke="#666666" points="339,-86.5 235,-86.5 235,-67.5 339,-67.5 339,-86.5"/>
<text text-anchor="middle" x="287" y="-74.5" font-family="Helvetica,sans-Serif" font-size="10.00">GraphicClient::init</text>
</a>
</g>
</g>
<!-- Node8&#45;&gt;Node9 -->
<g id="edge8_Node000008_Node000009" class="edge">
<title>Node8&#45;&gt;Node9</title>
<g id="a_edge8_Node000008_Node000009"><a xlink:title=" ">
<path fill="none" stroke="#63b8ff" d="M607.21,-123.11C547.98,-115 465.43,-103.56 393,-93 375.48,-90.45 356.34,-87.56 339.25,-84.94"/>
<polygon fill="#63b8ff" stroke="#63b8ff" points="606.87,-126.59 617.25,-124.48 607.82,-119.66 606.87,-126.59"/>
</a>
</g>
</g>
<!-- Node10 -->
<g id="Node000010" class="node">
<title>Node10</title>
<g id="a_Node000010"><a xlink:href="classGraphicClient.html#ad39a5f1d7ec30752f8d412d6925ef109" target="_top" xlink:title="Main application loop.">
<polygon fill="white" stroke="#666666" points="181,-64.5 77,-64.5 77,-45.5 181,-45.5 181,-64.5"/>
<text text-anchor="middle" x="129" y="-52.5" font-family="Helvetica,sans-Serif" font-size="10.00">GraphicClient::run</text>
</a>
</g>
</g>
<!-- Node9&#45;&gt;Node10 -->
<g id="edge9_Node000009_Node000010" class="edge">
<title>Node9&#45;&gt;Node10</title>
<g id="a_edge9_Node000009_Node000010"><a xlink:title=" ">
<path fill="none" stroke="#63b8ff" d="M224.62,-68.34C210.24,-66.32 195.07,-64.18 181.19,-62.22"/>
<polygon fill="#63b8ff" stroke="#63b8ff" points="224.53,-71.87 234.92,-69.8 225.51,-64.93 224.53,-71.87"/>
</a>
</g>
</g>
<!-- Node11 -->
<g id="Node000011" class="node">
<title>Node11</title>
<g id="a_Node000011"><a xlink:href="client_8cpp.html#ae66f6b31b5ad750f1fe042a706a4e3d4" target="_top" xlink:title=" ">
<polygon fill="white" stroke="#666666" points="41,-64.5 0,-64.5 0,-45.5 41,-45.5 41,-64.5"/>
<text text-anchor="middle" x="20.5" y="-52.5" font-family="Helvetica,sans-Serif" font-size="10.00">main</text>
</a>
</g>
</g>
<!-- Node10&#45;&gt;Node11 -->
<g id="edge10_Node000010_Node000011" class="edge">
<title>Node10&#45;&gt;Node11</title>
<g id="a_edge10_Node000010_Node000011"><a xlink:title=" ">
<path fill="none" stroke="#63b8ff" d="M66.83,-55C57.58,-55 48.66,-55 41.22,-55"/>
<polygon fill="#63b8ff" stroke="#63b8ff" points="66.93,-58.5 76.93,-55 66.93,-51.5 66.93,-58.5"/>
</a>
</g>
</g>
<!-- Node12&#45;&gt;Node13 -->
<g id="edge12_Node000012_Node000013" class="edge">
<title>Node12&#45;&gt;Node13</title>
<g id="a_edge12_Node000012_Node000013"><a xlink:title=" ">
<path fill="none" stroke="#63b8ff" d="M834.69,-84.65C804.99,-79.2 769.79,-72.74 741.49,-67.54"/>
<polygon fill="#63b8ff" stroke="#63b8ff" points="834.06,-88.1 844.53,-86.46 835.33,-81.21 834.06,-88.1"/>
</a>
</g>
</g>
<!-- Node13&#45;&gt;Node9 -->
<g id="edge13_Node000013_Node000009" class="edge">
<title>Node13&#45;&gt;Node9</title>
<g id="a_edge13_Node000013_Node000009"><a xlink:title=" ">
<path fill="none" stroke="#63b8ff" d="M621.68,-69.04C601.91,-71.88 580.13,-74.55 560,-76 483.23,-81.53 393.95,-80.43 339.21,-78.89"/>
<polygon fill="#63b8ff" stroke="#63b8ff" points="622.44,-72.47 631.82,-67.54 621.42,-65.54 622.44,-72.47"/>
</a>
</g>
</g>
<!-- Node14 -->
<g id="Node000014" class="node">
<title>Node14</title>
<g id="a_Node000014"><a xlink:href="classGraphicClient.html#a1fa2cfd0c71b32b0b1f0e0675a2e1cb2" target="_top" xlink:title="Processes network events and updates game state.">
<polygon fill="white" stroke="#666666" points="560,-30 393,-30 393,0 560,0 560,-30"/>
<text text-anchor="start" x="401" y="-18" font-family="Helvetica,sans-Serif" font-size="10.00">GraphicClient::processNetwork</text>
<text text-anchor="middle" x="476.5" y="-7" font-family="Helvetica,sans-Serif" font-size="10.00">Events</text>
</a>
</g>
</g>
<!-- Node13&#45;&gt;Node14 -->
<g id="edge14_Node000013_Node000014" class="edge">
<title>Node13&#45;&gt;Node14</title>
<g id="a_edge14_Node000013_Node000014"><a xlink:title=" ">
<path fill="none" stroke="#63b8ff" d="M630.98,-46.43C606.32,-41.38 577.09,-35.39 550.79,-30.01"/>
<polygon fill="#63b8ff" stroke="#63b8ff" points="630.4,-49.88 640.89,-48.46 631.8,-43.02 630.4,-49.88"/>
</a>
</g>
</g>
<!-- Node16 -->
<g id="Node000016" class="node">
<title>Node16</title>
<g id="a_Node000016"><a xlink:href="classGraphicClient.html#a70229e3e019e7b315f06c9ad74f23be5" target="_top" xlink:title="Shows lobby selection menu.">
<polygon fill="white" stroke="#666666" points="550,-67.5 403,-67.5 403,-48.5 550,-48.5 550,-67.5"/>
<text text-anchor="middle" x="476.5" y="-55.5" font-family="Helvetica,sans-Serif" font-size="10.00">GraphicClient::selectLobby</text>
</a>
</g>
</g>
<!-- Node13&#45;&gt;Node16 -->
<g id="edge17_Node000013_Node000016" class="edge">
<title>Node13&#45;&gt;Node16</title>
<g id="a_edge17_Node000013_Node000016"><a xlink:title=" ">
<path fill="none" stroke="#63b8ff" d="M604.72,-58C586.67,-58 567.69,-58 550.07,-58"/>
<polygon fill="#63b8ff" stroke="#63b8ff" points="604.94,-61.5 614.94,-58 604.94,-54.5 604.94,-61.5"/>
</a>
</g>
</g>
<!-- Node15 -->
<g id="Node000015" class="node">
<title>Node15</title>
<g id="a_Node000015"><a xlink:href="classGraphicClient.html#a5cb5c37142e62f04824cc6e21dd199b2" target="_top" xlink:title="Main game loop iteration.">
<polygon fill="white" stroke="#666666" points="357,-46.5 217,-46.5 217,-27.5 357,-27.5 357,-46.5"/>
<text text-anchor="middle" x="287" y="-34.5" font-family="Helvetica,sans-Serif" font-size="10.00">GraphicClient::gameLoop</text>
</a>
</g>
</g>
<!-- Node14&#45;&gt;Node15 -->
<g id="edge15_Node000014_Node000015" class="edge">
<title>Node14&#45;&gt;Node15</title>
<g id="a_edge15_Node000014_Node000015"><a xlink:title=" ">
<path fill="none" stroke="#63b8ff" d="M382.83,-25.87C374.16,-26.89 365.48,-27.91 357.08,-28.89"/>
<polygon fill="#63b8ff" stroke="#63b8ff" points="383.46,-29.32 392.99,-24.68 382.65,-22.37 383.46,-29.32"/>
</a>
</g>
</g>
<!-- Node15&#45;&gt;Node10 -->
<g id="edge16_Node000015_Node000010" class="edge">
<title>Node15&#45;&gt;Node10</title>
<g id="a_edge16_Node000015_Node000010"><a xlink:title=" ">
<path fill="none" stroke="#63b8ff" d="M206.6,-46.16C198.02,-47.15 189.46,-48.14 181.33,-49.08"/>
<polygon fill="#63b8ff" stroke="#63b8ff" points="207.13,-49.62 216.67,-45 206.33,-42.67 207.13,-49.62"/>
</a>
</g>
</g>
<!-- Node16&#45;&gt;Node9 -->
<g id="edge18_Node000016_Node000009" class="edge">
<title>Node16&#45;&gt;Node9</title>
<g id="a_edge18_Node000016_Node000009"><a xlink:title=" ">
<path fill="none" stroke="#63b8ff" d="M392.71,-66.39C374.51,-68.23 355.76,-70.13 339.24,-71.81"/>
<polygon fill="#63b8ff" stroke="#63b8ff" points="393.14,-69.86 402.74,-65.37 392.44,-62.9 393.14,-69.86"/>
</a>
</g>
</g>
</g>
</svg>
