<?xml version="1.0" encoding="UTF-8" standalone="no"?>
<!DOCTYPE svg PUBLIC "-//W3C//DTD SVG 1.1//EN"
 "http://www.w3.org/Graphics/SVG/1.1/DTD/svg11.dtd">
<!-- Generated by graphviz version 2.43.0 (0)
 -->
<!-- Title: Network/Client/NetworkClient.hpp Pages: 1 -->
<svg width="409pt" height="225pt"
 viewBox="0.00 0.00 409.00 225.00" xmlns="http://www.w3.org/2000/svg" xmlns:xlink="http://www.w3.org/1999/xlink">
<g id="graph0" class="graph" transform="scale(1 1) rotate(0) translate(4 221)">
<title>Network/Client/NetworkClient.hpp</title>
<!-- Node1 -->
<g id="Node000001" class="node">
<title>Node1</title>
<g id="a_Node000001"><a xlink:title=" ">
<polygon fill="#999999" stroke="#666666" points="301.5,-217 118.5,-217 118.5,-198 301.5,-198 301.5,-217"/>
<text text-anchor="middle" x="210" y="-205" font-family="Helvetica,sans-Serif" font-size="10.00">Network/Client/NetworkClient.hpp</text>
</a>
</g>
</g>
<!-- Node2 -->
<g id="Node000002" class="node">
<title>Node2</title>
<g id="a_Node000002"><a xlink:href="NetworkClient_8cpp.html" target="_top" xlink:title=" ">
<polygon fill="white" stroke="#666666" points="182,-156.5 0,-156.5 0,-137.5 182,-137.5 182,-156.5"/>
<text text-anchor="middle" x="91" y="-144.5" font-family="Helvetica,sans-Serif" font-size="10.00">Network/Client/NetworkClient.cpp</text>
</a>
</g>
</g>
<!-- Node1&#45;&gt;Node2 -->
<g id="edge1_Node000001_Node000002" class="edge">
<title>Node1&#45;&gt;Node2</title>
<g id="a_edge1_Node000001_Node000002"><a xlink:title=" ">
<path fill="none" stroke="#63b8ff" d="M183.52,-193.48C160.59,-182.21 128.07,-166.23 108.32,-156.52"/>
<polygon fill="#63b8ff" stroke="#63b8ff" points="182.18,-196.72 192.7,-197.99 185.27,-190.44 182.18,-196.72"/>
</a>
</g>
</g>
<!-- Node3 -->
<g id="Node000003" class="node">
<title>Node3</title>
<g id="a_Node000003"><a xlink:href="GraphicClient_8hpp.html" target="_top" xlink:title=" ">
<polygon fill="white" stroke="#666666" points="319.5,-96 184.5,-96 184.5,-66 319.5,-66 319.5,-96"/>
<text text-anchor="start" x="192.5" y="-84" font-family="Helvetica,sans-Serif" font-size="10.00">graphical&#45;client/Graphic</text>
<text text-anchor="middle" x="252" y="-73" font-family="Helvetica,sans-Serif" font-size="10.00">Client/GraphicClient.hpp</text>
</a>
</g>
</g>
<!-- Node1&#45;&gt;Node3 -->
<g id="edge2_Node000001_Node000003" class="edge">
<title>Node1&#45;&gt;Node3</title>
<g id="a_edge2_Node000001_Node000003"><a xlink:title=" ">
<path fill="none" stroke="#63b8ff" d="M213.86,-187.43C217.18,-172.2 222.47,-150.45 229,-132 233.4,-119.57 239.74,-106.01 244.65,-96.15"/>
<polygon fill="#63b8ff" stroke="#63b8ff" points="210.35,-187.12 211.72,-197.63 217.2,-188.56 210.35,-187.12"/>
</a>
</g>
</g>
<!-- Node6 -->
<g id="Node000006" class="node">
<title>Node6</title>
<g id="a_Node000006"><a xlink:href="System_8hpp.html" target="_top" xlink:title=" ">
<polygon fill="white" stroke="#666666" points="350,-162 238,-162 238,-132 350,-132 350,-162"/>
<text text-anchor="start" x="246" y="-150" font-family="Helvetica,sans-Serif" font-size="10.00">graphical&#45;client/ecs</text>
<text text-anchor="middle" x="294" y="-139" font-family="Helvetica,sans-Serif" font-size="10.00">/System.hpp</text>
</a>
</g>
</g>
<!-- Node1&#45;&gt;Node6 -->
<g id="edge5_Node000001_Node000006" class="edge">
<title>Node1&#45;&gt;Node6</title>
<g id="a_edge5_Node000001_Node000006"><a xlink:title=" ">
<path fill="none" stroke="#63b8ff" d="M230.78,-192.03C243.88,-182.9 260.73,-171.17 273.73,-162.11"/>
<polygon fill="#63b8ff" stroke="#63b8ff" points="228.6,-189.28 222.39,-197.87 232.6,-195.03 228.6,-189.28"/>
</a>
</g>
</g>
<!-- Node4 -->
<g id="Node000004" class="node">
<title>Node4</title>
<g id="a_Node000004"><a xlink:href="client_8cpp.html" target="_top" xlink:title=" ">
<polygon fill="white" stroke="#666666" points="249,-30 93,-30 93,0 249,0 249,-30"/>
<text text-anchor="start" x="101" y="-18" font-family="Helvetica,sans-Serif" font-size="10.00">/home/loic/EPITECH</text>
<text text-anchor="middle" x="171" y="-7" font-family="Helvetica,sans-Serif" font-size="10.00">/rtype/Mystic&#45;Type/client.cpp</text>
</a>
</g>
</g>
<!-- Node3&#45;&gt;Node4 -->
<g id="edge3_Node000003_Node000004" class="edge">
<title>Node3&#45;&gt;Node4</title>
<g id="a_edge3_Node000003_Node000004"><a xlink:title=" ">
<path fill="none" stroke="#63b8ff" d="M226.03,-59.48C213.92,-49.91 199.82,-38.77 188.93,-30.16"/>
<polygon fill="#63b8ff" stroke="#63b8ff" points="224.01,-62.34 234.02,-65.8 228.35,-56.85 224.01,-62.34"/>
</a>
</g>
</g>
<!-- Node5 -->
<g id="Node000005" class="node">
<title>Node5</title>
<g id="a_Node000005"><a xlink:href="GraphicClient_8cpp.html" target="_top" xlink:title=" ">
<polygon fill="white" stroke="#666666" points="401,-30 267,-30 267,0 401,0 401,-30"/>
<text text-anchor="start" x="275" y="-18" font-family="Helvetica,sans-Serif" font-size="10.00">graphical&#45;client/Graphic</text>
<text text-anchor="middle" x="334" y="-7" font-family="Helvetica,sans-Serif" font-size="10.00">Client/GraphicClient.cpp</text>
</a>
</g>
</g>
<!-- Node3&#45;&gt;Node5 -->
<g id="edge4_Node000003_Node000005" class="edge">
<title>Node3&#45;&gt;Node5</title>
<g id="a_edge4_Node000003_Node000005"><a xlink:title=" ">
<path fill="none" stroke="#63b8ff" d="M278.29,-59.48C290.55,-49.91 304.82,-38.77 315.85,-30.16"/>
<polygon fill="#63b8ff" stroke="#63b8ff" points="275.93,-56.88 270.2,-65.8 280.24,-62.4 275.93,-56.88"/>
</a>
</g>
</g>
<!-- Node6&#45;&gt;Node3 -->
<g id="edge6_Node000006_Node000003" class="edge">
<title>Node6&#45;&gt;Node3</title>
<g id="a_edge6_Node000006_Node000003"><a xlink:title=" ">
<path fill="none" stroke="#63b8ff" d="M279.07,-123.24C273.14,-114.21 266.51,-104.11 261.3,-96.16"/>
<polygon fill="#63b8ff" stroke="#63b8ff" points="276.27,-125.36 284.68,-131.8 282.12,-121.52 276.27,-125.36"/>
</a>
</g>
</g>
</g>
</svg>
