<?xml version="1.0" encoding="UTF-8" standalone="no"?>
<!DOCTYPE svg PUBLIC "-//W3C//DTD SVG 1.1//EN"
 "http://www.w3.org/Graphics/SVG/1.1/DTD/svg11.dtd">
<!-- Generated by graphviz version 2.43.0 (0)
 -->
<!-- Title: Network/Client/NetworkClient.cpp Pages: 1 -->
<svg width="1006pt" height="313pt"
 viewBox="0.00 0.00 1005.50 313.00" xmlns="http://www.w3.org/2000/svg" xmlns:xlink="http://www.w3.org/1999/xlink">
<g id="graph0" class="graph" transform="scale(1 1) rotate(0) translate(4 309)">
<title>Network/Client/NetworkClient.cpp</title>
<!-- Node1 -->
<g id="Node000001" class="node">
<title>Node1</title>
<g id="a_Node000001"><a xlink:title=" ">
<polygon fill="#999999" stroke="#666666" points="801,-305 619,-305 619,-286 801,-286 801,-305"/>
<text text-anchor="middle" x="710" y="-293" font-family="Helvetica,sans-Serif" font-size="10.00">Network/Client/NetworkClient.cpp</text>
</a>
</g>
</g>
<!-- Node2 -->
<g id="Node000002" class="node">
<title>Node2</title>
<g id="a_Node000002"><a xlink:href="NetworkClient_8hpp.html" target="_top" xlink:title=" ">
<polygon fill="white" stroke="#666666" points="547.5,-250 440.5,-250 440.5,-231 547.5,-231 547.5,-250"/>
<text text-anchor="middle" x="494" y="-238" font-family="Helvetica,sans-Serif" font-size="10.00">NetworkClient.hpp</text>
</a>
</g>
</g>
<!-- Node1&#45;&gt;Node2 -->
<g id="edge1_Node000001_Node000002" class="edge">
<title>Node1&#45;&gt;Node2</title>
<g id="a_edge1_Node000001_Node000002"><a xlink:title=" ">
<path fill="none" stroke="#63b8ff" d="M675.3,-285.98C638.25,-276.89 579.41,-262.46 538.87,-252.51"/>
<polygon fill="#63b8ff" stroke="#63b8ff" points="539.52,-249.07 528.98,-250.08 537.85,-255.86 539.52,-249.07"/>
</a>
</g>
</g>
<!-- Node3 -->
<g id="Node000003" class="node">
<title>Node3</title>
<g id="a_Node000003"><a xlink:title=" ">
<polygon fill="#e0e0e0" stroke="#999999" points="731,-19 681,-19 681,0 731,0 731,-19"/>
<text text-anchor="middle" x="706" y="-7" font-family="Helvetica,sans-Serif" font-size="10.00">cstdint</text>
</a>
</g>
</g>
<!-- Node1&#45;&gt;Node3 -->
<g id="edge29_Node000001_Node000003" class="edge">
<title>Node1&#45;&gt;Node3</title>
<g id="a_edge29_Node000001_Node000003"><a xlink:title=" ">
<path fill="none" stroke="#63b8ff" d="M618.89,-288.79C563.51,-283.16 492.12,-272.03 432,-250 387.63,-233.74 364.22,-236.16 341,-195 319.9,-157.59 352.21,-135.19 387,-110 492.06,-33.92 540.54,-50.07 670.82,-19.23"/>
<polygon fill="#63b8ff" stroke="#63b8ff" points="671.86,-22.58 680.75,-16.83 670.21,-15.78 671.86,-22.58"/>
</a>
</g>
</g>
<!-- Node15 -->
<g id="Node000015" class="node">
<title>Node15</title>
<g id="a_Node000015"><a xlink:title=" ">
<polygon fill="#e0e0e0" stroke="#999999" points="78,-19 0,-19 0,0 78,0 78,-19"/>
<text text-anchor="middle" x="39" y="-7" font-family="Helvetica,sans-Serif" font-size="10.00">netinet/tcp.h</text>
</a>
</g>
</g>
<!-- Node1&#45;&gt;Node15 -->
<g id="edge30_Node000001_Node000015" class="edge">
<title>Node1&#45;&gt;Node15</title>
<g id="a_edge30_Node000001_Node000015"><a xlink:title=" ">
<path fill="none" stroke="#63b8ff" d="M618.9,-294.81C458.62,-292.87 143,-276.87 143,-181 143,-181 143,-181 143,-118.5 143,-74.39 97.42,-41.35 66.61,-24.06"/>
<polygon fill="#63b8ff" stroke="#63b8ff" points="68.06,-20.86 57.59,-19.2 64.74,-27.02 68.06,-20.86"/>
</a>
</g>
</g>
<!-- Node19 -->
<g id="Node000019" class="node">
<title>Node19</title>
<g id="a_Node000019"><a xlink:href="GameState_8hpp.html" target="_top" xlink:title=" ">
<polygon fill="white" stroke="#666666" points="930,-189.5 838,-189.5 838,-170.5 930,-170.5 930,-189.5"/>
<text text-anchor="middle" x="884" y="-177.5" font-family="Helvetica,sans-Serif" font-size="10.00">GameState.hpp</text>
</a>
</g>
</g>
<!-- Node1&#45;&gt;Node19 -->
<g id="edge26_Node000001_Node000019" class="edge">
<title>Node1&#45;&gt;Node19</title>
<g id="a_edge26_Node000001_Node000019"><a xlink:title=" ">
<path fill="none" stroke="#63b8ff" d="M801.07,-290.6C865.22,-285.71 943.23,-274.72 964,-250 982.84,-227.57 947.03,-206.27 917.43,-193.42"/>
<polygon fill="#63b8ff" stroke="#63b8ff" points="918.7,-190.16 908.12,-189.56 916.01,-196.62 918.7,-190.16"/>
</a>
</g>
</g>
<!-- Node21 -->
<g id="Node000021" class="node">
<title>Node21</title>
<g id="a_Node000021"><a xlink:title=" ">
<polygon fill="#e0e0e0" stroke="#999999" points="805,-250 745,-250 745,-231 805,-231 805,-250"/>
<text text-anchor="middle" x="775" y="-238" font-family="Helvetica,sans-Serif" font-size="10.00">iostream</text>
</a>
</g>
</g>
<!-- Node1&#45;&gt;Node21 -->
<g id="edge27_Node000001_Node000021" class="edge">
<title>Node1&#45;&gt;Node21</title>
<g id="a_edge27_Node000001_Node000021"><a xlink:title=" ">
<path fill="none" stroke="#63b8ff" d="M720.44,-285.98C730.15,-278.07 744.82,-266.11 756.5,-256.58"/>
<polygon fill="#63b8ff" stroke="#63b8ff" points="758.83,-259.2 764.37,-250.17 754.4,-253.78 758.83,-259.2"/>
</a>
</g>
</g>
<!-- Node22 -->
<g id="Node000022" class="node">
<title>Node22</title>
<g id="a_Node000022"><a xlink:title=" ">
<polygon fill="#e0e0e0" stroke="#999999" points="887,-250 823,-250 823,-231 887,-231 887,-250"/>
<text text-anchor="middle" x="855" y="-238" font-family="Helvetica,sans-Serif" font-size="10.00">algorithm</text>
</a>
</g>
</g>
<!-- Node1&#45;&gt;Node22 -->
<g id="edge28_Node000001_Node000022" class="edge">
<title>Node1&#45;&gt;Node22</title>
<g id="a_edge28_Node000001_Node000022"><a xlink:title=" ">
<path fill="none" stroke="#63b8ff" d="M733.3,-285.98C757.25,-277.23 794.78,-263.51 821.83,-253.62"/>
<polygon fill="#63b8ff" stroke="#63b8ff" points="823.09,-256.89 831.28,-250.17 820.69,-250.32 823.09,-256.89"/>
</a>
</g>
</g>
<!-- Node23 -->
<g id="Node000023" class="node">
<title>Node23</title>
<g id="a_Node000023"><a xlink:title=" ">
<polygon fill="#e0e0e0" stroke="#999999" points="955,-250 905,-250 905,-231 955,-231 955,-250"/>
<text text-anchor="middle" x="930" y="-238" font-family="Helvetica,sans-Serif" font-size="10.00">chrono</text>
</a>
</g>
</g>
<!-- Node1&#45;&gt;Node23 -->
<g id="edge31_Node000001_Node000023" class="edge">
<title>Node1&#45;&gt;Node23</title>
<g id="a_edge31_Node000001_Node000023"><a xlink:title=" ">
<path fill="none" stroke="#63b8ff" d="M746.03,-285.99C781.47,-277.6 837.38,-264.3 894.78,-250.28"/>
<polygon fill="#63b8ff" stroke="#63b8ff" points="895.87,-253.62 904.76,-247.84 894.21,-246.82 895.87,-253.62"/>
</a>
</g>
</g>
<!-- Node24 -->
<g id="Node000024" class="node">
<title>Node24</title>
<g id="a_Node000024"><a xlink:href="Protocol_8hpp.html" target="_top" xlink:title=" ">
<polygon fill="white" stroke="#666666" points="726.5,-250 565.5,-250 565.5,-231 726.5,-231 726.5,-250"/>
<text text-anchor="middle" x="646" y="-238" font-family="Helvetica,sans-Serif" font-size="10.00">../TransportLayer/Protocol.hpp</text>
</a>
</g>
</g>
<!-- Node1&#45;&gt;Node24 -->
<g id="edge32_Node000001_Node000024" class="edge">
<title>Node1&#45;&gt;Node24</title>
<g id="a_edge32_Node000001_Node000024"><a xlink:title=" ">
<path fill="none" stroke="#63b8ff" d="M699.72,-285.98C690.16,-278.07 675.72,-266.11 664.22,-256.58"/>
<polygon fill="#63b8ff" stroke="#63b8ff" points="666.4,-253.85 656.47,-250.17 661.94,-259.24 666.4,-253.85"/>
</a>
</g>
</g>
<!-- Node2&#45;&gt;Node3 -->
<g id="edge2_Node000002_Node000003" class="edge">
<title>Node2&#45;&gt;Node3</title>
<g id="a_edge2_Node000002_Node000003"><a xlink:title=" ">
<path fill="none" stroke="#63b8ff" d="M504.06,-230.94C514.18,-222.2 530.09,-208.09 543,-195 601.41,-135.78 665.21,-59.98 692.45,-27.03"/>
<polygon fill="#63b8ff" stroke="#63b8ff" points="695.19,-29.2 698.85,-19.26 689.79,-24.75 695.19,-29.2"/>
</a>
</g>
</g>
<!-- Node4 -->
<g id="Node000004" class="node">
<title>Node4</title>
<g id="a_Node000004"><a xlink:title=" ">
<polygon fill="#e0e0e0" stroke="#999999" points="394,-189.5 350,-189.5 350,-170.5 394,-170.5 394,-189.5"/>
<text text-anchor="middle" x="372" y="-177.5" font-family="Helvetica,sans-Serif" font-size="10.00">string</text>
</a>
</g>
</g>
<!-- Node2&#45;&gt;Node4 -->
<g id="edge3_Node000002_Node000004" class="edge">
<title>Node2&#45;&gt;Node4</title>
<g id="a_edge3_Node000002_Node000004"><a xlink:title=" ">
<path fill="none" stroke="#63b8ff" d="M476.26,-230.99C455.93,-221.25 422.39,-205.16 398.86,-193.88"/>
<polygon fill="#63b8ff" stroke="#63b8ff" points="400.29,-190.68 389.76,-189.52 397.26,-197 400.29,-190.68"/>
</a>
</g>
</g>
<!-- Node5 -->
<g id="Node000005" class="node">
<title>Node5</title>
<g id="a_Node000005"><a xlink:title=" ">
<polygon fill="#e0e0e0" stroke="#999999" points="170,-19 96,-19 96,0 170,0 170,-19"/>
<text text-anchor="middle" x="133" y="-7" font-family="Helvetica,sans-Serif" font-size="10.00">sys/select.h</text>
</a>
</g>
</g>
<!-- Node2&#45;&gt;Node5 -->
<g id="edge4_Node000002_Node000005" class="edge">
<title>Node2&#45;&gt;Node5</title>
<g id="a_edge4_Node000002_Node000005"><a xlink:title=" ">
<path fill="none" stroke="#63b8ff" d="M444.64,-230.94C413.55,-224.18 373.33,-212.85 341,-195 256.88,-148.57 177.83,-62.81 146.82,-26.94"/>
<polygon fill="#63b8ff" stroke="#63b8ff" points="149.46,-24.65 140.3,-19.32 144.14,-29.2 149.46,-24.65"/>
</a>
</g>
</g>
<!-- Node6 -->
<g id="Node000006" class="node">
<title>Node6</title>
<g id="a_Node000006"><a xlink:href="Packet_8hpp.html" target="_top" xlink:title=" ">
<polygon fill="white" stroke="#666666" points="743.5,-189.5 590.5,-189.5 590.5,-170.5 743.5,-170.5 743.5,-189.5"/>
<text text-anchor="middle" x="667" y="-177.5" font-family="Helvetica,sans-Serif" font-size="10.00">../TransportLayer/Packet.hpp</text>
</a>
</g>
</g>
<!-- Node2&#45;&gt;Node6 -->
<g id="edge5_Node000002_Node000006" class="edge">
<title>Node2&#45;&gt;Node6</title>
<g id="a_edge5_Node000002_Node000006"><a xlink:title=" ">
<path fill="none" stroke="#63b8ff" d="M519.16,-230.99C548.88,-220.94 598.52,-204.16 631.99,-192.84"/>
<polygon fill="#63b8ff" stroke="#63b8ff" points="633.46,-196.04 641.81,-189.52 631.22,-189.4 633.46,-196.04"/>
</a>
</g>
</g>
<!-- Node9 -->
<g id="Node000009" class="node">
<title>Node9</title>
<g id="a_Node000009"><a xlink:href="UDPSocket_8hpp.html" target="_top" xlink:title=" ">
<polygon fill="white" stroke="#666666" points="534,-195 412,-195 412,-165 534,-165 534,-195"/>
<text text-anchor="start" x="420" y="-183" font-family="Helvetica,sans-Serif" font-size="10.00">../TransportLayer/UDP</text>
<text text-anchor="middle" x="473" y="-172" font-family="Helvetica,sans-Serif" font-size="10.00">/UDPSocket.hpp</text>
</a>
</g>
</g>
<!-- Node2&#45;&gt;Node9 -->
<g id="edge9_Node000002_Node000009" class="edge">
<title>Node2&#45;&gt;Node9</title>
<g id="a_edge9_Node000002_Node000009"><a xlink:title=" ">
<path fill="none" stroke="#63b8ff" d="M490.9,-230.87C488.42,-223.96 484.82,-213.93 481.5,-204.67"/>
<polygon fill="#63b8ff" stroke="#63b8ff" points="484.74,-203.34 478.07,-195.11 478.15,-205.71 484.74,-203.34"/>
</a>
</g>
</g>
<!-- Node2&#45;&gt;Node19 -->
<g id="edge22_Node000002_Node000019" class="edge">
<title>Node2&#45;&gt;Node19</title>
<g id="a_edge22_Node000002_Node000019"><a xlink:title=" ">
<path fill="none" stroke="#63b8ff" d="M547.82,-231.43C621.36,-220.4 752.65,-200.7 827.54,-189.47"/>
<polygon fill="#63b8ff" stroke="#63b8ff" points="828.35,-192.89 837.72,-187.94 827.32,-185.96 828.35,-192.89"/>
</a>
</g>
</g>
<!-- Node6&#45;&gt;Node3 -->
<g id="edge6_Node000006_Node000003" class="edge">
<title>Node6&#45;&gt;Node3</title>
<g id="a_edge6_Node000006_Node000003"><a xlink:title=" ">
<path fill="none" stroke="#63b8ff" d="M666.55,-170.4C666.04,-157.25 665.76,-131.41 670,-110 675.86,-80.37 689.05,-47.75 697.73,-28.21"/>
<polygon fill="#63b8ff" stroke="#63b8ff" points="700.95,-29.58 701.91,-19.03 694.58,-26.68 700.95,-29.58"/>
</a>
</g>
</g>
<!-- Node7 -->
<g id="Node000007" class="node">
<title>Node7</title>
<g id="a_Node000007"><a xlink:title=" ">
<polygon fill="#e0e0e0" stroke="#999999" points="743.5,-129 678.5,-129 678.5,-110 743.5,-110 743.5,-129"/>
<text text-anchor="middle" x="711" y="-117" font-family="Helvetica,sans-Serif" font-size="10.00">stdexcept</text>
</a>
</g>
</g>
<!-- Node6&#45;&gt;Node7 -->
<g id="edge7_Node000006_Node000007" class="edge">
<title>Node6&#45;&gt;Node7</title>
<g id="a_edge7_Node000006_Node000007"><a xlink:title=" ">
<path fill="none" stroke="#63b8ff" d="M673.49,-170.37C679.99,-161.73 690.16,-148.2 698.28,-137.42"/>
<polygon fill="#63b8ff" stroke="#63b8ff" points="701.27,-139.26 704.48,-129.17 695.67,-135.06 701.27,-139.26"/>
</a>
</g>
</g>
<!-- Node8 -->
<g id="Node000008" class="node">
<title>Node8</title>
<g id="a_Node000008"><a xlink:title=" ">
<polygon fill="#e0e0e0" stroke="#999999" points="847.5,-129 800.5,-129 800.5,-110 847.5,-110 847.5,-129"/>
<text text-anchor="middle" x="824" y="-117" font-family="Helvetica,sans-Serif" font-size="10.00">vector</text>
</a>
</g>
</g>
<!-- Node6&#45;&gt;Node8 -->
<g id="edge8_Node000006_Node000008" class="edge">
<title>Node6&#45;&gt;Node8</title>
<g id="a_edge8_Node000006_Node000008"><a xlink:title=" ">
<path fill="none" stroke="#63b8ff" d="M689.83,-170.49C716.57,-160.53 761.08,-143.95 791.44,-132.63"/>
<polygon fill="#63b8ff" stroke="#63b8ff" points="792.99,-135.79 801.14,-129.02 790.55,-129.23 792.99,-135.79"/>
</a>
</g>
</g>
<!-- Node9&#45;&gt;Node3 -->
<g id="edge21_Node000009_Node000003" class="edge">
<title>Node9&#45;&gt;Node3</title>
<g id="a_edge21_Node000009_Node000003"><a xlink:title=" ">
<path fill="none" stroke="#63b8ff" d="M477.66,-164.71C486.83,-138.81 509.76,-84.11 548,-55 553.01,-51.19 626.33,-31.45 671.31,-19.58"/>
<polygon fill="#63b8ff" stroke="#63b8ff" points="672.2,-22.96 680.98,-17.03 670.42,-16.19 672.2,-22.96"/>
</a>
</g>
</g>
<!-- Node10 -->
<g id="Node000010" class="node">
<title>Node10</title>
<g id="a_Node000010"><a xlink:href="ASocket_8hpp.html" target="_top" xlink:title=" ">
<polygon fill="white" stroke="#666666" points="482,-129 396,-129 396,-110 482,-110 482,-129"/>
<text text-anchor="middle" x="439" y="-117" font-family="Helvetica,sans-Serif" font-size="10.00">../ASocket.hpp</text>
</a>
</g>
</g>
<!-- Node9&#45;&gt;Node10 -->
<g id="edge10_Node000009_Node000010" class="edge">
<title>Node9&#45;&gt;Node10</title>
<g id="a_edge10_Node000009_Node000010"><a xlink:title=" ">
<path fill="none" stroke="#63b8ff" d="M464.77,-164.84C460.09,-156.78 454.18,-146.62 449.2,-138.06"/>
<polygon fill="#63b8ff" stroke="#63b8ff" points="452.15,-136.15 444.09,-129.27 446.09,-139.67 452.15,-136.15"/>
</a>
</g>
</g>
<!-- Node11 -->
<g id="Node000011" class="node">
<title>Node11</title>
<g id="a_Node000011"><a xlink:href="ISocket_8hpp.html" target="_top" xlink:title=" ">
<polygon fill="white" stroke="#666666" points="423.5,-74 350.5,-74 350.5,-55 423.5,-55 423.5,-74"/>
<text text-anchor="middle" x="387" y="-62" font-family="Helvetica,sans-Serif" font-size="10.00">ISocket.hpp</text>
</a>
</g>
</g>
<!-- Node10&#45;&gt;Node11 -->
<g id="edge11_Node000010_Node000011" class="edge">
<title>Node10&#45;&gt;Node11</title>
<g id="a_edge11_Node000010_Node000011"><a xlink:title=" ">
<path fill="none" stroke="#63b8ff" d="M430.41,-109.75C422.84,-102.03 411.62,-90.6 402.49,-81.28"/>
<polygon fill="#63b8ff" stroke="#63b8ff" points="404.93,-78.78 395.43,-74.09 399.93,-83.68 404.93,-78.78"/>
</a>
</g>
</g>
<!-- Node11&#45;&gt;Node3 -->
<g id="edge13_Node000011_Node000003" class="edge">
<title>Node11&#45;&gt;Node3</title>
<g id="a_edge13_Node000011_Node000003"><a xlink:title=" ">
<path fill="none" stroke="#63b8ff" d="M423.76,-57.32C428.55,-56.53 433.39,-55.74 438,-55 538.75,-38.85 567.15,-39.71 670.87,-19.07"/>
<polygon fill="#63b8ff" stroke="#63b8ff" points="671.69,-22.47 680.81,-17.07 670.31,-15.61 671.69,-22.47"/>
</a>
</g>
</g>
<!-- Node11&#45;&gt;Node5 -->
<g id="edge17_Node000011_Node000005" class="edge">
<title>Node11&#45;&gt;Node5</title>
<g id="a_edge17_Node000011_Node000005"><a xlink:title=" ">
<path fill="none" stroke="#63b8ff" d="M350.34,-55.85C305.45,-46.48 229.33,-30.6 180.13,-20.33"/>
<polygon fill="#63b8ff" stroke="#63b8ff" points="180.57,-16.85 170.06,-18.23 179.14,-23.7 180.57,-16.85"/>
</a>
</g>
</g>
<!-- Node12 -->
<g id="Node000012" class="node">
<title>Node12</title>
<g id="a_Node000012"><a xlink:title=" ">
<polygon fill="#e0e0e0" stroke="#999999" points="662.5,-19 593.5,-19 593.5,0 662.5,0 662.5,-19"/>
<text text-anchor="middle" x="628" y="-7" font-family="Helvetica,sans-Serif" font-size="10.00">arpa/inet.h</text>
</a>
</g>
</g>
<!-- Node11&#45;&gt;Node12 -->
<g id="edge12_Node000011_Node000012" class="edge">
<title>Node11&#45;&gt;Node12</title>
<g id="a_edge12_Node000011_Node000012"><a xlink:title=" ">
<path fill="none" stroke="#63b8ff" d="M423.6,-55.45C466.45,-46.03 537.39,-30.43 583.41,-20.31"/>
<polygon fill="#63b8ff" stroke="#63b8ff" points="584.39,-23.67 593.4,-18.11 582.88,-16.84 584.39,-23.67"/>
</a>
</g>
</g>
<!-- Node13 -->
<g id="Node000013" class="node">
<title>Node13</title>
<g id="a_Node000013"><a xlink:title=" ">
<polygon fill="#e0e0e0" stroke="#999999" points="239.5,-19 188.5,-19 188.5,0 239.5,0 239.5,-19"/>
<text text-anchor="middle" x="214" y="-7" font-family="Helvetica,sans-Serif" font-size="10.00">errno.h</text>
</a>
</g>
</g>
<!-- Node11&#45;&gt;Node13 -->
<g id="edge14_Node000011_Node000013" class="edge">
<title>Node11&#45;&gt;Node13</title>
<g id="a_edge14_Node000011_Node000013"><a xlink:title=" ">
<path fill="none" stroke="#63b8ff" d="M359.2,-54.98C329.34,-45.84 281.8,-31.27 249.31,-21.32"/>
<polygon fill="#63b8ff" stroke="#63b8ff" points="250.34,-17.97 239.75,-18.39 248.29,-24.66 250.34,-17.97"/>
</a>
</g>
</g>
<!-- Node14 -->
<g id="Node000014" class="node">
<title>Node14</title>
<g id="a_Node000014"><a xlink:title=" ">
<polygon fill="#e0e0e0" stroke="#999999" points="330,-19 258,-19 258,0 330,0 330,-19"/>
<text text-anchor="middle" x="294" y="-7" font-family="Helvetica,sans-Serif" font-size="10.00">netinet/in.h</text>
</a>
</g>
</g>
<!-- Node11&#45;&gt;Node14 -->
<g id="edge15_Node000011_Node000014" class="edge">
<title>Node11&#45;&gt;Node14</title>
<g id="a_edge15_Node000011_Node000014"><a xlink:title=" ">
<path fill="none" stroke="#63b8ff" d="M372.06,-54.98C357.5,-46.69 335.13,-33.94 318.07,-24.22"/>
<polygon fill="#63b8ff" stroke="#63b8ff" points="319.64,-21.08 309.21,-19.17 316.17,-27.16 319.64,-21.08"/>
</a>
</g>
</g>
<!-- Node11&#45;&gt;Node15 -->
<g id="edge16_Node000011_Node000015" class="edge">
<title>Node11&#45;&gt;Node15</title>
<g id="a_edge16_Node000011_Node000015"><a xlink:title=" ">
<path fill="none" stroke="#63b8ff" d="M350.47,-58.42C295.75,-50.73 189.01,-35.45 88.08,-19.14"/>
<polygon fill="#63b8ff" stroke="#63b8ff" points="88.45,-15.65 78.02,-17.5 87.33,-22.56 88.45,-15.65"/>
</a>
</g>
</g>
<!-- Node16 -->
<g id="Node000016" class="node">
<title>Node16</title>
<g id="a_Node000016"><a xlink:title=" ">
<polygon fill="#e0e0e0" stroke="#999999" points="425.5,-19 348.5,-19 348.5,0 425.5,0 425.5,-19"/>
<text text-anchor="middle" x="387" y="-7" font-family="Helvetica,sans-Serif" font-size="10.00">sys/socket.h</text>
</a>
</g>
</g>
<!-- Node11&#45;&gt;Node16 -->
<g id="edge18_Node000011_Node000016" class="edge">
<title>Node11&#45;&gt;Node16</title>
<g id="a_edge18_Node000011_Node000016"><a xlink:title=" ">
<path fill="none" stroke="#63b8ff" d="M387,-54.75C387,-47.8 387,-37.85 387,-29.13"/>
<polygon fill="#63b8ff" stroke="#63b8ff" points="390.5,-29.09 387,-19.09 383.5,-29.09 390.5,-29.09"/>
</a>
</g>
</g>
<!-- Node17 -->
<g id="Node000017" class="node">
<title>Node17</title>
<g id="a_Node000017"><a xlink:title=" ">
<polygon fill="#e0e0e0" stroke="#999999" points="500.5,-19 443.5,-19 443.5,0 500.5,0 500.5,-19"/>
<text text-anchor="middle" x="472" y="-7" font-family="Helvetica,sans-Serif" font-size="10.00">sys/un.h</text>
</a>
</g>
</g>
<!-- Node11&#45;&gt;Node17 -->
<g id="edge19_Node000011_Node000017" class="edge">
<title>Node11&#45;&gt;Node17</title>
<g id="a_edge19_Node000011_Node000017"><a xlink:title=" ">
<path fill="none" stroke="#63b8ff" d="M400.66,-54.98C413.84,-46.77 434.03,-34.18 449.57,-24.49"/>
<polygon fill="#63b8ff" stroke="#63b8ff" points="451.46,-27.43 458.09,-19.17 447.76,-21.49 451.46,-27.43"/>
</a>
</g>
</g>
<!-- Node18 -->
<g id="Node000018" class="node">
<title>Node18</title>
<g id="a_Node000018"><a xlink:title=" ">
<polygon fill="#e0e0e0" stroke="#999999" points="575,-19 519,-19 519,0 575,0 575,-19"/>
<text text-anchor="middle" x="547" y="-7" font-family="Helvetica,sans-Serif" font-size="10.00">unistd.h</text>
</a>
</g>
</g>
<!-- Node11&#45;&gt;Node18 -->
<g id="edge20_Node000011_Node000018" class="edge">
<title>Node11&#45;&gt;Node18</title>
<g id="a_edge20_Node000011_Node000018"><a xlink:title=" ">
<path fill="none" stroke="#63b8ff" d="M412.71,-54.98C439.45,-46.13 481.53,-32.19 511.45,-22.28"/>
<polygon fill="#63b8ff" stroke="#63b8ff" points="512.7,-25.55 521.09,-19.08 510.5,-18.9 512.7,-25.55"/>
</a>
</g>
</g>
<!-- Node19&#45;&gt;Node3 -->
<g id="edge25_Node000019_Node000003" class="edge">
<title>Node19&#45;&gt;Node3</title>
<g id="a_edge25_Node000019_Node000003"><a xlink:title=" ">
<path fill="none" stroke="#63b8ff" d="M882.16,-170.19C878.92,-156.31 871.18,-128.95 857,-110 825.76,-68.25 771.49,-38.79 737.23,-23.25"/>
<polygon fill="#63b8ff" stroke="#63b8ff" points="738.27,-19.88 727.71,-19.05 735.45,-26.29 738.27,-19.88"/>
</a>
</g>
</g>
<!-- Node19&#45;&gt;Node8 -->
<g id="edge24_Node000019_Node000008" class="edge">
<title>Node19&#45;&gt;Node8</title>
<g id="a_edge24_Node000019_Node000008"><a xlink:title=" ">
<path fill="none" stroke="#63b8ff" d="M875.15,-170.37C866.02,-161.47 851.58,-147.39 840.36,-136.45"/>
<polygon fill="#63b8ff" stroke="#63b8ff" points="842.49,-133.64 832.89,-129.17 837.61,-138.65 842.49,-133.64"/>
</a>
</g>
</g>
<!-- Node20 -->
<g id="Node000020" class="node">
<title>Node20</title>
<g id="a_Node000020"><a xlink:title=" ">
<polygon fill="#e0e0e0" stroke="#999999" points="997.5,-129 904.5,-129 904.5,-110 997.5,-110 997.5,-129"/>
<text text-anchor="middle" x="951" y="-117" font-family="Helvetica,sans-Serif" font-size="10.00">unordered_map</text>
</a>
</g>
</g>
<!-- Node19&#45;&gt;Node20 -->
<g id="edge23_Node000019_Node000020" class="edge">
<title>Node19&#45;&gt;Node20</title>
<g id="a_edge23_Node000019_Node000020"><a xlink:title=" ">
<path fill="none" stroke="#63b8ff" d="M893.89,-170.37C904.28,-161.3 920.84,-146.84 933.45,-135.82"/>
<polygon fill="#63b8ff" stroke="#63b8ff" points="935.84,-138.38 941.07,-129.17 931.24,-133.11 935.84,-138.38"/>
</a>
</g>
</g>
<!-- Node24&#45;&gt;Node3 -->
<g id="edge34_Node000024_Node000003" class="edge">
<title>Node24&#45;&gt;Node3</title>
<g id="a_edge34_Node000024_Node000003"><a xlink:title=" ">
<path fill="none" stroke="#63b8ff" d="M697.33,-230.98C718.25,-224.7 740.44,-213.83 753,-195 788.88,-141.21 742.49,-61.9 718.6,-27.48"/>
<polygon fill="#63b8ff" stroke="#63b8ff" points="721.22,-25.11 712.55,-19.02 715.52,-29.19 721.22,-25.11"/>
</a>
</g>
</g>
<!-- Node24&#45;&gt;Node6 -->
<g id="edge33_Node000024_Node000006" class="edge">
<title>Node24&#45;&gt;Node6</title>
<g id="a_edge33_Node000024_Node000006"><a xlink:title=" ">
<path fill="none" stroke="#63b8ff" d="M649.1,-230.87C652.08,-222.57 656.67,-209.78 660.46,-199.22"/>
<polygon fill="#63b8ff" stroke="#63b8ff" points="663.8,-200.26 663.89,-189.67 657.22,-197.9 663.8,-200.26"/>
</a>
</g>
</g>
<!-- Node24&#45;&gt;Node8 -->
<g id="edge35_Node000024_Node000008" class="edge">
<title>Node24&#45;&gt;Node8</title>
<g id="a_edge35_Node000024_Node000008"><a xlink:title=" ">
<path fill="none" stroke="#63b8ff" d="M706.97,-230.97C733.64,-224.69 763.83,-213.81 786,-195 803.26,-180.36 813.59,-155.93 819.03,-139.06"/>
<polygon fill="#63b8ff" stroke="#63b8ff" points="822.45,-139.83 821.92,-129.24 815.74,-137.85 822.45,-139.83"/>
</a>
</g>
</g>
</g>
</svg>
