<?xml version="1.0" encoding="UTF-8" standalone="no"?>
<!DOCTYPE svg PUBLIC "-//W3C//DTD SVG 1.1//EN"
 "http://www.w3.org/Graphics/SVG/1.1/DTD/svg11.dtd">
<!-- Generated by graphviz version 2.43.0 (0)
 -->
<!-- Title: Network/Client/NetworkClient.hpp Pages: 1 -->
<svg width="873pt" height="258pt"
 viewBox="0.00 0.00 872.50 258.00" xmlns="http://www.w3.org/2000/svg" xmlns:xlink="http://www.w3.org/1999/xlink">
<g id="graph0" class="graph" transform="scale(1 1) rotate(0) translate(4 254)">
<title>Network/Client/NetworkClient.hpp</title>
<!-- Node1 -->
<g id="Node000001" class="node">
<title>Node1</title>
<g id="a_Node000001"><a xlink:title=" ">
<polygon fill="#999999" stroke="#666666" points="408,-250 225,-250 225,-231 408,-231 408,-250"/>
<text text-anchor="middle" x="316.5" y="-238" font-family="Helvetica,sans-Serif" font-size="10.00">Network/Client/NetworkClient.hpp</text>
</a>
</g>
</g>
<!-- Node2 -->
<g id="Node000002" class="node">
<title>Node2</title>
<g id="a_Node000002"><a xlink:title=" ">
<polygon fill="#e0e0e0" stroke="#999999" points="184.5,-19 134.5,-19 134.5,0 184.5,0 184.5,-19"/>
<text text-anchor="middle" x="159.5" y="-7" font-family="Helvetica,sans-Serif" font-size="10.00">cstdint</text>
</a>
</g>
</g>
<!-- Node1&#45;&gt;Node2 -->
<g id="edge1_Node000001_Node000002" class="edge">
<title>Node1&#45;&gt;Node2</title>
<g id="a_edge1_Node000001_Node000002"><a xlink:title=" ">
<path fill="none" stroke="#63b8ff" d="M321.08,-230.89C332.04,-208.98 357.19,-150 333.5,-110 317.18,-82.45 234.43,-43.1 189.18,-23.15"/>
<polygon fill="#63b8ff" stroke="#63b8ff" points="190.43,-19.87 179.86,-19.08 187.63,-26.29 190.43,-19.87"/>
</a>
</g>
</g>
<!-- Node3 -->
<g id="Node000003" class="node">
<title>Node3</title>
<g id="a_Node000003"><a xlink:title=" ">
<polygon fill="#e0e0e0" stroke="#999999" points="215.5,-189.5 171.5,-189.5 171.5,-170.5 215.5,-170.5 215.5,-189.5"/>
<text text-anchor="middle" x="193.5" y="-177.5" font-family="Helvetica,sans-Serif" font-size="10.00">string</text>
</a>
</g>
</g>
<!-- Node1&#45;&gt;Node3 -->
<g id="edge2_Node000001_Node000003" class="edge">
<title>Node1&#45;&gt;Node3</title>
<g id="a_edge2_Node000001_Node000003"><a xlink:title=" ">
<path fill="none" stroke="#63b8ff" d="M298.61,-230.99C278.12,-221.25 244.31,-205.16 220.58,-193.88"/>
<polygon fill="#63b8ff" stroke="#63b8ff" points="221.94,-190.65 211.41,-189.52 218.93,-196.97 221.94,-190.65"/>
</a>
</g>
</g>
<!-- Node4 -->
<g id="Node000004" class="node">
<title>Node4</title>
<g id="a_Node000004"><a xlink:title=" ">
<polygon fill="#e0e0e0" stroke="#999999" points="864.5,-19 790.5,-19 790.5,0 864.5,0 864.5,-19"/>
<text text-anchor="middle" x="827.5" y="-7" font-family="Helvetica,sans-Serif" font-size="10.00">sys/select.h</text>
</a>
</g>
</g>
<!-- Node1&#45;&gt;Node4 -->
<g id="edge3_Node000001_Node000004" class="edge">
<title>Node1&#45;&gt;Node4</title>
<g id="a_edge3_Node000001_Node000004"><a xlink:title=" ">
<path fill="none" stroke="#63b8ff" d="M375.36,-230.99C415.04,-224.09 468.04,-212.58 512.5,-195 631.82,-147.82 759.42,-59.87 807.58,-25.15"/>
<polygon fill="#63b8ff" stroke="#63b8ff" points="809.84,-27.83 815.88,-19.12 805.73,-22.17 809.84,-27.83"/>
</a>
</g>
</g>
<!-- Node5 -->
<g id="Node000005" class="node">
<title>Node5</title>
<g id="a_Node000005"><a xlink:href="Packet_8hpp.html" target="_top" xlink:title=" ">
<polygon fill="white" stroke="#666666" points="153,-189.5 0,-189.5 0,-170.5 153,-170.5 153,-189.5"/>
<text text-anchor="middle" x="76.5" y="-177.5" font-family="Helvetica,sans-Serif" font-size="10.00">../TransportLayer/Packet.hpp</text>
</a>
</g>
</g>
<!-- Node1&#45;&gt;Node5 -->
<g id="edge4_Node000001_Node000005" class="edge">
<title>Node1&#45;&gt;Node5</title>
<g id="a_edge4_Node000001_Node000005"><a xlink:title=" ">
<path fill="none" stroke="#63b8ff" d="M281.6,-230.99C239.21,-220.66 167.63,-203.21 121.23,-191.9"/>
<polygon fill="#63b8ff" stroke="#63b8ff" points="121.98,-188.48 111.44,-189.52 120.33,-195.29 121.98,-188.48"/>
</a>
</g>
</g>
<!-- Node8 -->
<g id="Node000008" class="node">
<title>Node8</title>
<g id="a_Node000008"><a xlink:href="UDPSocket_8hpp.html" target="_top" xlink:title=" ">
<polygon fill="white" stroke="#666666" points="503.5,-195 381.5,-195 381.5,-165 503.5,-165 503.5,-195"/>
<text text-anchor="start" x="389.5" y="-183" font-family="Helvetica,sans-Serif" font-size="10.00">../TransportLayer/UDP</text>
<text text-anchor="middle" x="442.5" y="-172" font-family="Helvetica,sans-Serif" font-size="10.00">/UDPSocket.hpp</text>
</a>
</g>
</g>
<!-- Node1&#45;&gt;Node8 -->
<g id="edge8_Node000001_Node000008" class="edge">
<title>Node1&#45;&gt;Node8</title>
<g id="a_edge8_Node000001_Node000008"><a xlink:title=" ">
<path fill="none" stroke="#63b8ff" d="M334.82,-230.99C352.58,-222.75 380.09,-209.98 402.86,-199.4"/>
<polygon fill="#63b8ff" stroke="#63b8ff" points="404.37,-202.56 411.96,-195.18 401.42,-196.21 404.37,-202.56"/>
</a>
</g>
</g>
<!-- Node18 -->
<g id="Node000018" class="node">
<title>Node18</title>
<g id="a_Node000018"><a xlink:href="GameState_8hpp.html" target="_top" xlink:title=" ">
<polygon fill="white" stroke="#666666" points="325.5,-189.5 233.5,-189.5 233.5,-170.5 325.5,-170.5 325.5,-189.5"/>
<text text-anchor="middle" x="279.5" y="-177.5" font-family="Helvetica,sans-Serif" font-size="10.00">GameState.hpp</text>
</a>
</g>
</g>
<!-- Node1&#45;&gt;Node18 -->
<g id="edge21_Node000001_Node000018" class="edge">
<title>Node1&#45;&gt;Node18</title>
<g id="a_edge21_Node000001_Node000018"><a xlink:title=" ">
<path fill="none" stroke="#63b8ff" d="M311.04,-230.87C305.63,-222.31 297.19,-208.97 290.4,-198.24"/>
<polygon fill="#63b8ff" stroke="#63b8ff" points="293.29,-196.25 284.98,-189.67 287.37,-199.99 293.29,-196.25"/>
</a>
</g>
</g>
<!-- Node5&#45;&gt;Node2 -->
<g id="edge5_Node000005_Node000002" class="edge">
<title>Node5&#45;&gt;Node2</title>
<g id="a_edge5_Node000005_Node000002"><a xlink:title=" ">
<path fill="none" stroke="#63b8ff" d="M64.94,-170.35C49.33,-157.54 24.65,-132.61 35.5,-110 55.21,-68.91 101.09,-39.43 131.17,-23.68"/>
<polygon fill="#63b8ff" stroke="#63b8ff" points="132.98,-26.68 140.33,-19.05 129.83,-20.43 132.98,-26.68"/>
</a>
</g>
</g>
<!-- Node6 -->
<g id="Node000006" class="node">
<title>Node6</title>
<g id="a_Node000006"><a xlink:title=" ">
<polygon fill="#e0e0e0" stroke="#999999" points="110,-129 45,-129 45,-110 110,-110 110,-129"/>
<text text-anchor="middle" x="77.5" y="-117" font-family="Helvetica,sans-Serif" font-size="10.00">stdexcept</text>
</a>
</g>
</g>
<!-- Node5&#45;&gt;Node6 -->
<g id="edge6_Node000005_Node000006" class="edge">
<title>Node5&#45;&gt;Node6</title>
<g id="a_edge6_Node000005_Node000006"><a xlink:title=" ">
<path fill="none" stroke="#63b8ff" d="M76.65,-170.37C76.79,-162.25 77,-149.81 77.18,-139.39"/>
<polygon fill="#63b8ff" stroke="#63b8ff" points="80.68,-139.23 77.35,-129.17 73.68,-139.11 80.68,-139.23"/>
</a>
</g>
</g>
<!-- Node7 -->
<g id="Node000007" class="node">
<title>Node7</title>
<g id="a_Node000007"><a xlink:title=" ">
<polygon fill="#e0e0e0" stroke="#999999" points="175,-129 128,-129 128,-110 175,-110 175,-129"/>
<text text-anchor="middle" x="151.5" y="-117" font-family="Helvetica,sans-Serif" font-size="10.00">vector</text>
</a>
</g>
</g>
<!-- Node5&#45;&gt;Node7 -->
<g id="edge7_Node000005_Node000007" class="edge">
<title>Node5&#45;&gt;Node7</title>
<g id="a_edge7_Node000005_Node000007"><a xlink:title=" ">
<path fill="none" stroke="#63b8ff" d="M87.57,-170.37C99.31,-161.21 118.09,-146.56 132.26,-135.51"/>
<polygon fill="#63b8ff" stroke="#63b8ff" points="134.66,-138.08 140.39,-129.17 130.35,-132.56 134.66,-138.08"/>
</a>
</g>
</g>
<!-- Node8&#45;&gt;Node2 -->
<g id="edge20_Node000008_Node000002" class="edge">
<title>Node8&#45;&gt;Node2</title>
<g id="a_edge20_Node000008_Node000002"><a xlink:title=" ">
<path fill="none" stroke="#63b8ff" d="M434.78,-164.84C417.77,-133.86 377.77,-62.26 367.5,-55 305.54,-11.19 273.08,-34.57 194.54,-19.02"/>
<polygon fill="#63b8ff" stroke="#63b8ff" points="195.23,-15.59 184.72,-16.93 193.77,-22.44 195.23,-15.59"/>
</a>
</g>
</g>
<!-- Node9 -->
<g id="Node000009" class="node">
<title>Node9</title>
<g id="a_Node000009"><a xlink:href="ASocket_8hpp.html" target="_top" xlink:title=" ">
<polygon fill="white" stroke="#666666" points="511.5,-129 425.5,-129 425.5,-110 511.5,-110 511.5,-129"/>
<text text-anchor="middle" x="468.5" y="-117" font-family="Helvetica,sans-Serif" font-size="10.00">../ASocket.hpp</text>
</a>
</g>
</g>
<!-- Node8&#45;&gt;Node9 -->
<g id="edge9_Node000008_Node000009" class="edge">
<title>Node8&#45;&gt;Node9</title>
<g id="a_edge9_Node000008_Node000009"><a xlink:title=" ">
<path fill="none" stroke="#63b8ff" d="M448.79,-164.84C452.3,-156.95 456.7,-147.05 460.45,-138.61"/>
<polygon fill="#63b8ff" stroke="#63b8ff" points="463.74,-139.83 464.6,-129.27 457.34,-136.98 463.74,-139.83"/>
</a>
</g>
</g>
<!-- Node10 -->
<g id="Node000010" class="node">
<title>Node10</title>
<g id="a_Node000010"><a xlink:href="ISocket_8hpp.html" target="_top" xlink:title=" ">
<polygon fill="white" stroke="#666666" points="506,-74 433,-74 433,-55 506,-55 506,-74"/>
<text text-anchor="middle" x="469.5" y="-62" font-family="Helvetica,sans-Serif" font-size="10.00">ISocket.hpp</text>
</a>
</g>
</g>
<!-- Node9&#45;&gt;Node10 -->
<g id="edge10_Node000009_Node000010" class="edge">
<title>Node9&#45;&gt;Node10</title>
<g id="a_edge10_Node000009_Node000010"><a xlink:title=" ">
<path fill="none" stroke="#63b8ff" d="M468.67,-109.75C468.8,-102.8 468.98,-92.85 469.15,-84.13"/>
<polygon fill="#63b8ff" stroke="#63b8ff" points="472.65,-84.15 469.34,-74.09 465.65,-84.02 472.65,-84.15"/>
</a>
</g>
</g>
<!-- Node10&#45;&gt;Node2 -->
<g id="edge12_Node000010_Node000002" class="edge">
<title>Node10&#45;&gt;Node2</title>
<g id="a_edge12_Node000010_Node000002"><a xlink:title=" ">
<path fill="none" stroke="#63b8ff" d="M432.93,-58C372.45,-48.84 253.2,-30.5 194.57,-19.04"/>
<polygon fill="#63b8ff" stroke="#63b8ff" points="195.19,-15.59 184.7,-17.05 193.81,-22.46 195.19,-15.59"/>
</a>
</g>
</g>
<!-- Node10&#45;&gt;Node4 -->
<g id="edge16_Node000010_Node000004" class="edge">
<title>Node10&#45;&gt;Node4</title>
<g id="a_edge16_Node000010_Node000004"><a xlink:title=" ">
<path fill="none" stroke="#63b8ff" d="M506.08,-58.78C562.61,-51.37 674.85,-36.24 780.19,-19.16"/>
<polygon fill="#63b8ff" stroke="#63b8ff" points="781.06,-22.56 790.37,-17.5 779.93,-15.65 781.06,-22.56"/>
</a>
</g>
</g>
<!-- Node11 -->
<g id="Node000011" class="node">
<title>Node11</title>
<g id="a_Node000011"><a xlink:title=" ">
<polygon fill="#e0e0e0" stroke="#999999" points="703,-19 634,-19 634,0 703,0 703,-19"/>
<text text-anchor="middle" x="668.5" y="-7" font-family="Helvetica,sans-Serif" font-size="10.00">arpa/inet.h</text>
</a>
</g>
</g>
<!-- Node10&#45;&gt;Node11 -->
<g id="edge11_Node000010_Node000011" class="edge">
<title>Node10&#45;&gt;Node11</title>
<g id="a_edge11_Node000010_Node000011"><a xlink:title=" ">
<path fill="none" stroke="#63b8ff" d="M501.47,-54.98C535.32,-45.97 588.9,-31.7 626.21,-21.76"/>
<polygon fill="#63b8ff" stroke="#63b8ff" points="627.51,-25.04 636.28,-19.08 625.71,-18.27 627.51,-25.04"/>
</a>
</g>
</g>
<!-- Node12 -->
<g id="Node000012" class="node">
<title>Node12</title>
<g id="a_Node000012"><a xlink:title=" ">
<polygon fill="#e0e0e0" stroke="#999999" points="772,-19 721,-19 721,0 772,0 772,-19"/>
<text text-anchor="middle" x="746.5" y="-7" font-family="Helvetica,sans-Serif" font-size="10.00">errno.h</text>
</a>
</g>
</g>
<!-- Node10&#45;&gt;Node12 -->
<g id="edge13_Node000010_Node000012" class="edge">
<title>Node10&#45;&gt;Node12</title>
<g id="a_edge13_Node000010_Node000012"><a xlink:title=" ">
<path fill="none" stroke="#63b8ff" d="M506.28,-57.52C552.05,-49.91 632.8,-35.94 710.92,-19.24"/>
<polygon fill="#63b8ff" stroke="#63b8ff" points="711.88,-22.61 720.92,-17.08 710.41,-15.77 711.88,-22.61"/>
</a>
</g>
</g>
<!-- Node13 -->
<g id="Node000013" class="node">
<title>Node13</title>
<g id="a_Node000013"><a xlink:title=" ">
<polygon fill="#e0e0e0" stroke="#999999" points="274.5,-19 202.5,-19 202.5,0 274.5,0 274.5,-19"/>
<text text-anchor="middle" x="238.5" y="-7" font-family="Helvetica,sans-Serif" font-size="10.00">netinet/in.h</text>
</a>
</g>
</g>
<!-- Node10&#45;&gt;Node13 -->
<g id="edge14_Node000010_Node000013" class="edge">
<title>Node10&#45;&gt;Node13</title>
<g id="a_edge14_Node000010_Node000013"><a xlink:title=" ">
<path fill="none" stroke="#63b8ff" d="M432.9,-55.1C392.65,-45.87 327.92,-31.02 284.33,-21.02"/>
<polygon fill="#63b8ff" stroke="#63b8ff" points="285.08,-17.6 274.55,-18.77 283.52,-24.42 285.08,-17.6"/>
</a>
</g>
</g>
<!-- Node14 -->
<g id="Node000014" class="node">
<title>Node14</title>
<g id="a_Node000014"><a xlink:title=" ">
<polygon fill="#e0e0e0" stroke="#999999" points="370.5,-19 292.5,-19 292.5,0 370.5,0 370.5,-19"/>
<text text-anchor="middle" x="331.5" y="-7" font-family="Helvetica,sans-Serif" font-size="10.00">netinet/tcp.h</text>
</a>
</g>
</g>
<!-- Node10&#45;&gt;Node14 -->
<g id="edge15_Node000010_Node000014" class="edge">
<title>Node10&#45;&gt;Node14</title>
<g id="a_edge15_Node000010_Node000014"><a xlink:title=" ">
<path fill="none" stroke="#63b8ff" d="M447.33,-54.98C424.73,-46.3 389.44,-32.75 363.75,-22.88"/>
<polygon fill="#63b8ff" stroke="#63b8ff" points="364.67,-19.49 354.08,-19.17 362.16,-26.02 364.67,-19.49"/>
</a>
</g>
</g>
<!-- Node15 -->
<g id="Node000015" class="node">
<title>Node15</title>
<g id="a_Node000015"><a xlink:title=" ">
<polygon fill="#e0e0e0" stroke="#999999" points="466,-19 389,-19 389,0 466,0 466,-19"/>
<text text-anchor="middle" x="427.5" y="-7" font-family="Helvetica,sans-Serif" font-size="10.00">sys/socket.h</text>
</a>
</g>
</g>
<!-- Node10&#45;&gt;Node15 -->
<g id="edge17_Node000010_Node000015" class="edge">
<title>Node10&#45;&gt;Node15</title>
<g id="a_edge17_Node000010_Node000015"><a xlink:title=" ">
<path fill="none" stroke="#63b8ff" d="M462.56,-54.75C456.63,-47.26 447.93,-36.28 440.68,-27.13"/>
<polygon fill="#63b8ff" stroke="#63b8ff" points="443.26,-24.75 434.31,-19.09 437.77,-29.1 443.26,-24.75"/>
</a>
</g>
</g>
<!-- Node16 -->
<g id="Node000016" class="node">
<title>Node16</title>
<g id="a_Node000016"><a xlink:title=" ">
<polygon fill="#e0e0e0" stroke="#999999" points="541,-19 484,-19 484,0 541,0 541,-19"/>
<text text-anchor="middle" x="512.5" y="-7" font-family="Helvetica,sans-Serif" font-size="10.00">sys/un.h</text>
</a>
</g>
</g>
<!-- Node10&#45;&gt;Node16 -->
<g id="edge18_Node000010_Node000016" class="edge">
<title>Node10&#45;&gt;Node16</title>
<g id="a_edge18_Node000010_Node000016"><a xlink:title=" ">
<path fill="none" stroke="#63b8ff" d="M476.6,-54.75C482.67,-47.26 491.59,-36.28 499.01,-27.13"/>
<polygon fill="#63b8ff" stroke="#63b8ff" points="501.95,-29.06 505.53,-19.09 496.51,-24.65 501.95,-29.06"/>
</a>
</g>
</g>
<!-- Node17 -->
<g id="Node000017" class="node">
<title>Node17</title>
<g id="a_Node000017"><a xlink:title=" ">
<polygon fill="#e0e0e0" stroke="#999999" points="615.5,-19 559.5,-19 559.5,0 615.5,0 615.5,-19"/>
<text text-anchor="middle" x="587.5" y="-7" font-family="Helvetica,sans-Serif" font-size="10.00">unistd.h</text>
</a>
</g>
</g>
<!-- Node10&#45;&gt;Node17 -->
<g id="edge19_Node000010_Node000017" class="edge">
<title>Node10&#45;&gt;Node17</title>
<g id="a_edge19_Node000010_Node000017"><a xlink:title=" ">
<path fill="none" stroke="#63b8ff" d="M488.46,-54.98C507.53,-46.42 537.16,-33.11 559.05,-23.28"/>
<polygon fill="#63b8ff" stroke="#63b8ff" points="560.51,-26.46 568.2,-19.17 557.64,-20.07 560.51,-26.46"/>
</a>
</g>
</g>
<!-- Node18&#45;&gt;Node2 -->
<g id="edge24_Node000018_Node000002" class="edge">
<title>Node18&#45;&gt;Node2</title>
<g id="a_edge24_Node000018_Node000002"><a xlink:title=" ">
<path fill="none" stroke="#63b8ff" d="M267.44,-170.49C255.05,-161.3 235.74,-145.72 222.5,-129 197.05,-96.86 176.82,-52.92 166.66,-28.58"/>
<polygon fill="#63b8ff" stroke="#63b8ff" points="169.84,-27.11 162.83,-19.17 163.36,-29.75 169.84,-27.11"/>
</a>
</g>
</g>
<!-- Node18&#45;&gt;Node7 -->
<g id="edge23_Node000018_Node000007" class="edge">
<title>Node18&#45;&gt;Node7</title>
<g id="a_edge23_Node000018_Node000007"><a xlink:title=" ">
<path fill="none" stroke="#63b8ff" d="M260.89,-170.49C239.46,-160.7 204.06,-144.52 179.35,-133.23"/>
<polygon fill="#63b8ff" stroke="#63b8ff" points="180.68,-129.99 170.13,-129.02 177.78,-136.36 180.68,-129.99"/>
</a>
</g>
</g>
<!-- Node19 -->
<g id="Node000019" class="node">
<title>Node19</title>
<g id="a_Node000019"><a xlink:title=" ">
<polygon fill="#e0e0e0" stroke="#999999" points="325,-129 232,-129 232,-110 325,-110 325,-129"/>
<text text-anchor="middle" x="278.5" y="-117" font-family="Helvetica,sans-Serif" font-size="10.00">unordered_map</text>
</a>
</g>
</g>
<!-- Node18&#45;&gt;Node19 -->
<g id="edge22_Node000018_Node000019" class="edge">
<title>Node18&#45;&gt;Node19</title>
<g id="a_edge22_Node000018_Node000019"><a xlink:title=" ">
<path fill="none" stroke="#63b8ff" d="M279.35,-170.37C279.21,-162.25 279,-149.81 278.82,-139.39"/>
<polygon fill="#63b8ff" stroke="#63b8ff" points="282.32,-139.11 278.65,-129.17 275.32,-139.23 282.32,-139.11"/>
</a>
</g>
</g>
</g>
</svg>
