<?xml version="1.0" encoding="UTF-8" standalone="no"?>
<!DOCTYPE svg PUBLIC "-//W3C//DTD SVG 1.1//EN"
 "http://www.w3.org/Graphics/SVG/1.1/DTD/svg11.dtd">
<!-- Generated by graphviz version 2.43.0 (0)
 -->
<!-- Title: Network/TransportLayer/Packet.hpp Pages: 1 -->
<svg width="1271pt" height="302pt"
 viewBox="0.00 0.00 1270.50 302.00" xmlns="http://www.w3.org/2000/svg" xmlns:xlink="http://www.w3.org/1999/xlink">
<g id="graph0" class="graph" transform="scale(1 1) rotate(0) translate(4 298)">
<title>Network/TransportLayer/Packet.hpp</title>
<!-- Node1 -->
<g id="Node000001" class="node">
<title>Node1</title>
<g id="a_Node000001"><a xlink:title=" ">
<polygon fill="#999999" stroke="#666666" points="702.5,-294 569.5,-294 569.5,-264 702.5,-264 702.5,-294"/>
<text text-anchor="start" x="577.5" y="-282" font-family="Helvetica,sans-Serif" font-size="10.00">Network/TransportLayer</text>
<text text-anchor="middle" x="636" y="-271" font-family="Helvetica,sans-Serif" font-size="10.00">/Packet.hpp</text>
</a>
</g>
</g>
<!-- Node2 -->
<g id="Node000002" class="node">
<title>Node2</title>
<g id="a_Node000002"><a xlink:href="NetworkClient_8hpp.html" target="_top" xlink:title=" ">
<polygon fill="white" stroke="#666666" points="318.5,-222.5 135.5,-222.5 135.5,-203.5 318.5,-203.5 318.5,-222.5"/>
<text text-anchor="middle" x="227" y="-210.5" font-family="Helvetica,sans-Serif" font-size="10.00">Network/Client/NetworkClient.hpp</text>
</a>
</g>
</g>
<!-- Node1&#45;&gt;Node2 -->
<g id="edge1_Node000001_Node000002" class="edge">
<title>Node1&#45;&gt;Node2</title>
<g id="a_edge1_Node000001_Node000002"><a xlink:title=" ">
<path fill="none" stroke="#63b8ff" d="M559.24,-265.99C478.3,-253.32 352.82,-233.69 281.48,-222.53"/>
<polygon fill="#63b8ff" stroke="#63b8ff" points="558.96,-269.49 569.38,-267.57 560.04,-262.57 558.96,-269.49"/>
</a>
</g>
</g>
<!-- Node8 -->
<g id="Node000008" class="node">
<title>Node8</title>
<g id="a_Node000008"><a xlink:href="Packet_8cpp.html" target="_top" xlink:title=" ">
<polygon fill="white" stroke="#666666" points="476.5,-228 343.5,-228 343.5,-198 476.5,-198 476.5,-228"/>
<text text-anchor="start" x="351.5" y="-216" font-family="Helvetica,sans-Serif" font-size="10.00">Network/TransportLayer</text>
<text text-anchor="middle" x="410" y="-205" font-family="Helvetica,sans-Serif" font-size="10.00">/Packet.cpp</text>
</a>
</g>
</g>
<!-- Node1&#45;&gt;Node8 -->
<g id="edge8_Node000001_Node000008" class="edge">
<title>Node1&#45;&gt;Node8</title>
<g id="a_edge8_Node000001_Node000008"><a xlink:title=" ">
<path fill="none" stroke="#63b8ff" d="M576.4,-261.12C539.96,-250.8 493.9,-237.76 459.48,-228.01"/>
<polygon fill="#63b8ff" stroke="#63b8ff" points="575.83,-264.6 586.4,-263.95 577.74,-257.86 575.83,-264.6"/>
</a>
</g>
</g>
<!-- Node9 -->
<g id="Node000009" class="node">
<title>Node9</title>
<g id="a_Node000009"><a xlink:href="Protocol_8hpp.html" target="_top" xlink:title=" ">
<polygon fill="white" stroke="#666666" points="627.5,-228 494.5,-228 494.5,-198 627.5,-198 627.5,-228"/>
<text text-anchor="start" x="502.5" y="-216" font-family="Helvetica,sans-Serif" font-size="10.00">Network/TransportLayer</text>
<text text-anchor="middle" x="561" y="-205" font-family="Helvetica,sans-Serif" font-size="10.00">/Protocol.hpp</text>
</a>
</g>
</g>
<!-- Node1&#45;&gt;Node9 -->
<g id="edge9_Node000001_Node000009" class="edge">
<title>Node1&#45;&gt;Node9</title>
<g id="a_edge9_Node000001_Node000009"><a xlink:title=" ">
<path fill="none" stroke="#63b8ff" d="M611.63,-257.2C600.49,-247.7 587.59,-236.69 577.6,-228.16"/>
<polygon fill="#63b8ff" stroke="#63b8ff" points="609.48,-259.97 619.36,-263.8 614.02,-254.64 609.48,-259.97"/>
</a>
</g>
</g>
<!-- Node12 -->
<g id="Node000012" class="node">
<title>Node12</title>
<g id="a_Node000012"><a xlink:href="TCPServer_8hpp.html" target="_top" xlink:title=" ">
<polygon fill="white" stroke="#666666" points="778.5,-228 645.5,-228 645.5,-198 778.5,-198 778.5,-228"/>
<text text-anchor="start" x="653.5" y="-216" font-family="Helvetica,sans-Serif" font-size="10.00">Network/TransportLayer</text>
<text text-anchor="middle" x="712" y="-205" font-family="Helvetica,sans-Serif" font-size="10.00">/TCP/TCPServer.hpp</text>
</a>
</g>
</g>
<!-- Node1&#45;&gt;Node12 -->
<g id="edge13_Node000001_Node000012" class="edge">
<title>Node1&#45;&gt;Node12</title>
<g id="a_edge13_Node000001_Node000012"><a xlink:title=" ">
<path fill="none" stroke="#63b8ff" d="M660.7,-257.2C671.98,-247.7 685.05,-236.69 695.18,-228.16"/>
<polygon fill="#63b8ff" stroke="#63b8ff" points="658.26,-254.68 652.87,-263.8 662.77,-260.03 658.26,-254.68"/>
</a>
</g>
</g>
<!-- Node14 -->
<g id="Node000014" class="node">
<title>Node14</title>
<g id="a_Node000014"><a xlink:href="GameWorld_8hpp.html" target="_top" xlink:title=" ">
<polygon fill="white" stroke="#666666" points="949.5,-228 816.5,-228 816.5,-198 949.5,-198 949.5,-228"/>
<text text-anchor="start" x="824.5" y="-216" font-family="Helvetica,sans-Serif" font-size="10.00">Network/TransportLayer</text>
<text text-anchor="middle" x="883" y="-205" font-family="Helvetica,sans-Serif" font-size="10.00">/UDP/GameWorld.hpp</text>
</a>
</g>
</g>
<!-- Node1&#45;&gt;Node14 -->
<g id="edge16_Node000001_Node000014" class="edge">
<title>Node1&#45;&gt;Node14</title>
<g id="a_edge16_Node000001_Node000014"><a xlink:title=" ">
<path fill="none" stroke="#63b8ff" d="M700.12,-261.39C740.1,-251.03 790.98,-237.84 828.92,-228.01"/>
<polygon fill="#63b8ff" stroke="#63b8ff" points="699.01,-258.06 690.21,-263.95 700.76,-264.83 699.01,-258.06"/>
</a>
</g>
</g>
<!-- Node16 -->
<g id="Node000016" class="node">
<title>Node16</title>
<g id="a_Node000016"><a xlink:href="UDPGameServer_8hpp.html" target="_top" xlink:title=" ">
<polygon fill="white" stroke="#666666" points="1114,-162 968,-162 968,-132 1114,-132 1114,-162"/>
<text text-anchor="start" x="976" y="-150" font-family="Helvetica,sans-Serif" font-size="10.00">Network/TransportLayer</text>
<text text-anchor="middle" x="1041" y="-139" font-family="Helvetica,sans-Serif" font-size="10.00">/UDP/UDPGameServer.hpp</text>
</a>
</g>
</g>
<!-- Node1&#45;&gt;Node16 -->
<g id="edge22_Node000001_Node000016" class="edge">
<title>Node1&#45;&gt;Node16</title>
<g id="a_edge22_Node000001_Node000016"><a xlink:title=" ">
<path fill="none" stroke="#63b8ff" d="M712.92,-271.53C794.42,-263.72 917.01,-248.98 959,-228 990.14,-212.44 1017.02,-180.77 1030.92,-162.29"/>
<polygon fill="#63b8ff" stroke="#63b8ff" points="712.33,-268.07 702.7,-272.49 712.98,-275.04 712.33,-268.07"/>
</a>
</g>
</g>
<!-- Node3 -->
<g id="Node000003" class="node">
<title>Node3</title>
<g id="a_Node000003"><a xlink:href="NetworkClient_8cpp.html" target="_top" xlink:title=" ">
<polygon fill="white" stroke="#666666" points="457,-156.5 275,-156.5 275,-137.5 457,-137.5 457,-156.5"/>
<text text-anchor="middle" x="366" y="-144.5" font-family="Helvetica,sans-Serif" font-size="10.00">Network/Client/NetworkClient.cpp</text>
</a>
</g>
</g>
<!-- Node2&#45;&gt;Node3 -->
<g id="edge2_Node000002_Node000003" class="edge">
<title>Node2&#45;&gt;Node3</title>
<g id="a_edge2_Node000002_Node000003"><a xlink:title=" ">
<path fill="none" stroke="#63b8ff" d="M255.17,-199.03C282.57,-186.42 323.41,-167.61 347.11,-156.7"/>
<polygon fill="#63b8ff" stroke="#63b8ff" points="253.37,-196.01 245.75,-203.37 256.29,-202.37 253.37,-196.01"/>
</a>
</g>
</g>
<!-- Node4 -->
<g id="Node000004" class="node">
<title>Node4</title>
<g id="a_Node000004"><a xlink:href="GraphicClient_8hpp.html" target="_top" xlink:title=" ">
<polygon fill="white" stroke="#666666" points="226.5,-96 91.5,-96 91.5,-66 226.5,-66 226.5,-96"/>
<text text-anchor="start" x="99.5" y="-84" font-family="Helvetica,sans-Serif" font-size="10.00">graphical&#45;client/Graphic</text>
<text text-anchor="middle" x="159" y="-73" font-family="Helvetica,sans-Serif" font-size="10.00">Client/GraphicClient.hpp</text>
</a>
</g>
</g>
<!-- Node2&#45;&gt;Node4 -->
<g id="edge3_Node000002_Node000004" class="edge">
<title>Node2&#45;&gt;Node4</title>
<g id="a_edge3_Node000002_Node000004"><a xlink:title=" ">
<path fill="none" stroke="#63b8ff" d="M184.99,-199.77C166.55,-192.09 146.71,-180.1 136,-162 123.57,-140.98 137.57,-112.85 148.53,-96.16"/>
<polygon fill="#63b8ff" stroke="#63b8ff" points="183.85,-203.09 194.44,-203.41 186.37,-196.55 183.85,-203.09"/>
</a>
</g>
</g>
<!-- Node7 -->
<g id="Node000007" class="node">
<title>Node7</title>
<g id="a_Node000007"><a xlink:href="System_8hpp.html" target="_top" xlink:title=" ">
<polygon fill="white" stroke="#666666" points="257,-162 145,-162 145,-132 257,-132 257,-162"/>
<text text-anchor="start" x="153" y="-150" font-family="Helvetica,sans-Serif" font-size="10.00">graphical&#45;client/ecs</text>
<text text-anchor="middle" x="201" y="-139" font-family="Helvetica,sans-Serif" font-size="10.00">/System.hpp</text>
</a>
</g>
</g>
<!-- Node2&#45;&gt;Node7 -->
<g id="edge6_Node000002_Node000007" class="edge">
<title>Node2&#45;&gt;Node7</title>
<g id="a_edge6_Node000002_Node000007"><a xlink:title=" ">
<path fill="none" stroke="#63b8ff" d="M219.68,-193.98C215.62,-183.98 210.63,-171.71 206.83,-162.36"/>
<polygon fill="#63b8ff" stroke="#63b8ff" points="216.49,-195.42 223.49,-203.37 222.97,-192.79 216.49,-195.42"/>
</a>
</g>
</g>
<!-- Node5 -->
<g id="Node000005" class="node">
<title>Node5</title>
<g id="a_Node000005"><a xlink:href="client_8cpp.html" target="_top" xlink:title=" ">
<polygon fill="white" stroke="#666666" points="156,-30 0,-30 0,0 156,0 156,-30"/>
<text text-anchor="start" x="8" y="-18" font-family="Helvetica,sans-Serif" font-size="10.00">/home/loic/EPITECH</text>
<text text-anchor="middle" x="78" y="-7" font-family="Helvetica,sans-Serif" font-size="10.00">/rtype/Mystic&#45;Type/client.cpp</text>
</a>
</g>
</g>
<!-- Node4&#45;&gt;Node5 -->
<g id="edge4_Node000004_Node000005" class="edge">
<title>Node4&#45;&gt;Node5</title>
<g id="a_edge4_Node000004_Node000005"><a xlink:title=" ">
<path fill="none" stroke="#63b8ff" d="M133.03,-59.48C120.92,-49.91 106.82,-38.77 95.93,-30.16"/>
<polygon fill="#63b8ff" stroke="#63b8ff" points="131.01,-62.34 141.02,-65.8 135.35,-56.85 131.01,-62.34"/>
</a>
</g>
</g>
<!-- Node6 -->
<g id="Node000006" class="node">
<title>Node6</title>
<g id="a_Node000006"><a xlink:href="GraphicClient_8cpp.html" target="_top" xlink:title=" ">
<polygon fill="white" stroke="#666666" points="308,-30 174,-30 174,0 308,0 308,-30"/>
<text text-anchor="start" x="182" y="-18" font-family="Helvetica,sans-Serif" font-size="10.00">graphical&#45;client/Graphic</text>
<text text-anchor="middle" x="241" y="-7" font-family="Helvetica,sans-Serif" font-size="10.00">Client/GraphicClient.cpp</text>
</a>
</g>
</g>
<!-- Node4&#45;&gt;Node6 -->
<g id="edge5_Node000004_Node000006" class="edge">
<title>Node4&#45;&gt;Node6</title>
<g id="a_edge5_Node000004_Node000006"><a xlink:title=" ">
<path fill="none" stroke="#63b8ff" d="M185.29,-59.48C197.55,-49.91 211.82,-38.77 222.85,-30.16"/>
<polygon fill="#63b8ff" stroke="#63b8ff" points="182.93,-56.88 177.2,-65.8 187.24,-62.4 182.93,-56.88"/>
</a>
</g>
</g>
<!-- Node7&#45;&gt;Node4 -->
<g id="edge7_Node000007_Node000004" class="edge">
<title>Node7&#45;&gt;Node4</title>
<g id="a_edge7_Node000007_Node000004"><a xlink:title=" ">
<path fill="none" stroke="#63b8ff" d="M186.07,-123.24C180.14,-114.21 173.51,-104.11 168.3,-96.16"/>
<polygon fill="#63b8ff" stroke="#63b8ff" points="183.27,-125.36 191.68,-131.8 189.12,-121.52 183.27,-125.36"/>
</a>
</g>
</g>
<!-- Node9&#45;&gt;Node3 -->
<g id="edge10_Node000009_Node000003" class="edge">
<title>Node9&#45;&gt;Node3</title>
<g id="a_edge10_Node000009_Node000003"><a xlink:title=" ">
<path fill="none" stroke="#63b8ff" d="M508.4,-194.74C470.7,-182.36 421.54,-166.23 391.95,-156.52"/>
<polygon fill="#63b8ff" stroke="#63b8ff" points="507.61,-198.16 518.21,-197.95 509.8,-191.51 507.61,-198.16"/>
</a>
</g>
</g>
<!-- Node10 -->
<g id="Node000010" class="node">
<title>Node10</title>
<g id="a_Node000010"><a xlink:href="Protocol_8cpp.html" target="_top" xlink:title=" ">
<polygon fill="white" stroke="#666666" points="608.5,-162 475.5,-162 475.5,-132 608.5,-132 608.5,-162"/>
<text text-anchor="start" x="483.5" y="-150" font-family="Helvetica,sans-Serif" font-size="10.00">Network/TransportLayer</text>
<text text-anchor="middle" x="542" y="-139" font-family="Helvetica,sans-Serif" font-size="10.00">/Protocol.cpp</text>
</a>
</g>
</g>
<!-- Node9&#45;&gt;Node10 -->
<g id="edge11_Node000009_Node000010" class="edge">
<title>Node9&#45;&gt;Node10</title>
<g id="a_edge11_Node000009_Node000010"><a xlink:title=" ">
<path fill="none" stroke="#63b8ff" d="M553.91,-188.11C551.31,-179.38 548.47,-169.78 546.2,-162.16"/>
<polygon fill="#63b8ff" stroke="#63b8ff" points="550.58,-189.21 556.78,-197.8 557.29,-187.21 550.58,-189.21"/>
</a>
</g>
</g>
<!-- Node11 -->
<g id="Node000011" class="node">
<title>Node11</title>
<g id="a_Node000011"><a xlink:href="TCPServer_8cpp.html" target="_top" xlink:title=" ">
<polygon fill="white" stroke="#666666" points="759.5,-162 626.5,-162 626.5,-132 759.5,-132 759.5,-162"/>
<text text-anchor="start" x="634.5" y="-150" font-family="Helvetica,sans-Serif" font-size="10.00">Network/TransportLayer</text>
<text text-anchor="middle" x="693" y="-139" font-family="Helvetica,sans-Serif" font-size="10.00">/TCP/TCPServer.cpp</text>
</a>
</g>
</g>
<!-- Node9&#45;&gt;Node11 -->
<g id="edge12_Node000009_Node000011" class="edge">
<title>Node9&#45;&gt;Node11</title>
<g id="a_edge12_Node000009_Node000011"><a xlink:title=" ">
<path fill="none" stroke="#63b8ff" d="M599.13,-193.51C619.84,-183.47 645.03,-171.26 664.1,-162.01"/>
<polygon fill="#63b8ff" stroke="#63b8ff" points="597.44,-190.44 589.97,-197.95 600.49,-196.74 597.44,-190.44"/>
</a>
</g>
</g>
<!-- Node12&#45;&gt;Node11 -->
<g id="edge15_Node000012_Node000011" class="edge">
<title>Node12&#45;&gt;Node11</title>
<g id="a_edge15_Node000012_Node000011"><a xlink:title=" ">
<path fill="none" stroke="#63b8ff" d="M704.91,-188.11C702.31,-179.38 699.47,-169.78 697.2,-162.16"/>
<polygon fill="#63b8ff" stroke="#63b8ff" points="701.58,-189.21 707.78,-197.8 708.29,-187.21 701.58,-189.21"/>
</a>
</g>
</g>
<!-- Node13 -->
<g id="Node000013" class="node">
<title>Node13</title>
<g id="a_Node000013"><a xlink:href="server_8cpp.html" target="_top" xlink:title=" ">
<polygon fill="white" stroke="#666666" points="886.5,-96 727.5,-96 727.5,-66 886.5,-66 886.5,-96"/>
<text text-anchor="start" x="735.5" y="-84" font-family="Helvetica,sans-Serif" font-size="10.00">/home/loic/EPITECH</text>
<text text-anchor="middle" x="807" y="-73" font-family="Helvetica,sans-Serif" font-size="10.00">/rtype/Mystic&#45;Type/server.cpp</text>
</a>
</g>
</g>
<!-- Node12&#45;&gt;Node13 -->
<g id="edge14_Node000012_Node000013" class="edge">
<title>Node12&#45;&gt;Node13</title>
<g id="a_edge14_Node000012_Node000013"><a xlink:title=" ">
<path fill="none" stroke="#63b8ff" d="M739.38,-191.27C749.23,-182.91 759.89,-172.72 768,-162 783.76,-141.18 795.71,-112.98 802.01,-96.22"/>
<polygon fill="#63b8ff" stroke="#63b8ff" points="736.9,-188.78 731.38,-197.83 741.33,-194.2 736.9,-188.78"/>
</a>
</g>
</g>
<!-- Node15 -->
<g id="Node000015" class="node">
<title>Node15</title>
<g id="a_Node000015"><a xlink:href="GameWorld_8cpp.html" target="_top" xlink:title=" ">
<polygon fill="white" stroke="#666666" points="949.5,-162 816.5,-162 816.5,-132 949.5,-132 949.5,-162"/>
<text text-anchor="start" x="824.5" y="-150" font-family="Helvetica,sans-Serif" font-size="10.00">Network/TransportLayer</text>
<text text-anchor="middle" x="883" y="-139" font-family="Helvetica,sans-Serif" font-size="10.00">/UDP/GameWorld.cpp</text>
</a>
</g>
</g>
<!-- Node14&#45;&gt;Node15 -->
<g id="edge17_Node000014_Node000015" class="edge">
<title>Node14&#45;&gt;Node15</title>
<g id="a_edge17_Node000014_Node000015"><a xlink:title=" ">
<path fill="none" stroke="#63b8ff" d="M883,-187.54C883,-178.96 883,-169.61 883,-162.16"/>
<polygon fill="#63b8ff" stroke="#63b8ff" points="879.5,-187.8 883,-197.8 886.5,-187.8 879.5,-187.8"/>
</a>
</g>
</g>
<!-- Node14&#45;&gt;Node16 -->
<g id="edge18_Node000014_Node000016" class="edge">
<title>Node14&#45;&gt;Node16</title>
<g id="a_edge18_Node000014_Node000016"><a xlink:title=" ">
<path fill="none" stroke="#63b8ff" d="M926.97,-194.19C952.06,-184.02 983.07,-171.47 1006.41,-162.01"/>
<polygon fill="#63b8ff" stroke="#63b8ff" points="925.63,-190.96 917.67,-197.95 928.26,-197.44 925.63,-190.96"/>
</a>
</g>
</g>
<!-- Node16&#45;&gt;Node13 -->
<g id="edge20_Node000016_Node000013" class="edge">
<title>Node16&#45;&gt;Node13</title>
<g id="a_edge20_Node000016_Node000013"><a xlink:title=" ">
<path fill="none" stroke="#63b8ff" d="M979.77,-129.25C941.97,-118.91 894.02,-105.8 858.23,-96.01"/>
<polygon fill="#63b8ff" stroke="#63b8ff" points="979.08,-132.69 989.65,-131.95 980.93,-125.94 979.08,-132.69"/>
</a>
</g>
</g>
<!-- Node17 -->
<g id="Node000017" class="node">
<title>Node17</title>
<g id="a_Node000017"><a xlink:href="game_8cpp.html" target="_top" xlink:title=" ">
<polygon fill="white" stroke="#666666" points="1099.5,-96 942.5,-96 942.5,-66 1099.5,-66 1099.5,-96"/>
<text text-anchor="start" x="950.5" y="-84" font-family="Helvetica,sans-Serif" font-size="10.00">/home/loic/EPITECH</text>
<text text-anchor="middle" x="1021" y="-73" font-family="Helvetica,sans-Serif" font-size="10.00">/rtype/Mystic&#45;Type/game.cpp</text>
</a>
</g>
</g>
<!-- Node16&#45;&gt;Node17 -->
<g id="edge19_Node000016_Node000017" class="edge">
<title>Node16&#45;&gt;Node17</title>
<g id="a_edge19_Node000016_Node000017"><a xlink:title=" ">
<path fill="none" stroke="#63b8ff" d="M1033.53,-122.11C1030.81,-113.38 1027.81,-103.78 1025.43,-96.16"/>
<polygon fill="#63b8ff" stroke="#63b8ff" points="1030.24,-123.3 1036.56,-131.8 1036.92,-121.21 1030.24,-123.3"/>
</a>
</g>
</g>
<!-- Node18 -->
<g id="Node000018" class="node">
<title>Node18</title>
<g id="a_Node000018"><a xlink:href="UDPGameServer_8cpp.html" target="_top" xlink:title=" ">
<polygon fill="white" stroke="#666666" points="1262.5,-96 1117.5,-96 1117.5,-66 1262.5,-66 1262.5,-96"/>
<text text-anchor="start" x="1125.5" y="-84" font-family="Helvetica,sans-Serif" font-size="10.00">Network/TransportLayer</text>
<text text-anchor="middle" x="1190" y="-73" font-family="Helvetica,sans-Serif" font-size="10.00">/UDP/UDPGameServer.cpp</text>
</a>
</g>
</g>
<!-- Node16&#45;&gt;Node18 -->
<g id="edge21_Node000016_Node000018" class="edge">
<title>Node16&#45;&gt;Node18</title>
<g id="a_edge21_Node000016_Node000018"><a xlink:title=" ">
<path fill="none" stroke="#63b8ff" d="M1083.09,-127.92C1106.64,-117.8 1135.56,-105.38 1157.38,-96.01"/>
<polygon fill="#63b8ff" stroke="#63b8ff" points="1081.51,-124.79 1073.7,-131.95 1084.27,-131.22 1081.51,-124.79"/>
</a>
</g>
</g>
</g>
</svg>
