<?xml version="1.0" encoding="UTF-8" standalone="no"?>
<!DOCTYPE svg PUBLIC "-//W3C//DTD SVG 1.1//EN"
 "http://www.w3.org/Graphics/SVG/1.1/DTD/svg11.dtd">
<!-- Generated by graphviz version 2.43.0 (0)
 -->
<!-- Title: Network/TransportLayer/Protocol.cpp Pages: 1 -->
<svg width="216pt" height="203pt"
 viewBox="0.00 0.00 215.50 203.00" xmlns="http://www.w3.org/2000/svg" xmlns:xlink="http://www.w3.org/1999/xlink">
<g id="graph0" class="graph" transform="scale(1 1) rotate(0) translate(4 199)">
<title>Network/TransportLayer/Protocol.cpp</title>
<!-- Node1 -->
<g id="Node000001" class="node">
<title>Node1</title>
<g id="a_Node000001"><a xlink:title=" ">
<polygon fill="#999999" stroke="#666666" points="193.5,-195 60.5,-195 60.5,-165 193.5,-165 193.5,-195"/>
<text text-anchor="start" x="68.5" y="-183" font-family="Helvetica,sans-Serif" font-size="10.00">Network/TransportLayer</text>
<text text-anchor="middle" x="127" y="-172" font-family="Helvetica,sans-Serif" font-size="10.00">/Protocol.cpp</text>
</a>
</g>
</g>
<!-- Node2 -->
<g id="Node000002" class="node">
<title>Node2</title>
<g id="a_Node000002"><a xlink:href="Protocol_8hpp.html" target="_top" xlink:title=" ">
<polygon fill="white" stroke="#666666" points="132.5,-129 55.5,-129 55.5,-110 132.5,-110 132.5,-129"/>
<text text-anchor="middle" x="94" y="-117" font-family="Helvetica,sans-Serif" font-size="10.00">Protocol.hpp</text>
</a>
</g>
</g>
<!-- Node1&#45;&gt;Node2 -->
<g id="edge1_Node000001_Node000002" class="edge">
<title>Node1&#45;&gt;Node2</title>
<g id="a_edge1_Node000001_Node000002"><a xlink:title=" ">
<path fill="none" stroke="#63b8ff" d="M119.01,-164.84C114.47,-156.78 108.73,-146.62 103.9,-138.06"/>
<polygon fill="#63b8ff" stroke="#63b8ff" points="106.91,-136.26 98.94,-129.27 100.81,-139.7 106.91,-136.26"/>
</a>
</g>
</g>
<!-- Node5 -->
<g id="Node000005" class="node">
<title>Node5</title>
<g id="a_Node000005"><a xlink:title=" ">
<polygon fill="#e0e0e0" stroke="#999999" points="207.5,-19 142.5,-19 142.5,0 207.5,0 207.5,-19"/>
<text text-anchor="middle" x="175" y="-7" font-family="Helvetica,sans-Serif" font-size="10.00">stdexcept</text>
</a>
</g>
</g>
<!-- Node1&#45;&gt;Node5 -->
<g id="edge8_Node000001_Node000005" class="edge">
<title>Node1&#45;&gt;Node5</title>
<g id="a_edge8_Node000001_Node000005"><a xlink:title=" ">
<path fill="none" stroke="#63b8ff" d="M131.41,-164.58C134.44,-154.61 138.53,-141.01 142,-129 152.2,-93.74 163.58,-52.41 169.95,-29.06"/>
<polygon fill="#63b8ff" stroke="#63b8ff" points="173.4,-29.71 172.66,-19.14 166.65,-27.87 173.4,-29.71"/>
</a>
</g>
</g>
<!-- Node3 -->
<g id="Node000003" class="node">
<title>Node3</title>
<g id="a_Node000003"><a xlink:href="Packet_8hpp.html" target="_top" xlink:title=" ">
<polygon fill="white" stroke="#666666" points="111.5,-74 42.5,-74 42.5,-55 111.5,-55 111.5,-74"/>
<text text-anchor="middle" x="77" y="-62" font-family="Helvetica,sans-Serif" font-size="10.00">Packet.hpp</text>
</a>
</g>
</g>
<!-- Node2&#45;&gt;Node3 -->
<g id="edge2_Node000002_Node000003" class="edge">
<title>Node2&#45;&gt;Node3</title>
<g id="a_edge2_Node000002_Node000003"><a xlink:title=" ">
<path fill="none" stroke="#63b8ff" d="M91.19,-109.75C88.94,-102.72 85.7,-92.62 82.88,-83.84"/>
<polygon fill="#63b8ff" stroke="#63b8ff" points="86.14,-82.54 79.75,-74.09 79.48,-84.68 86.14,-82.54"/>
</a>
</g>
</g>
<!-- Node4 -->
<g id="Node000004" class="node">
<title>Node4</title>
<g id="a_Node000004"><a xlink:title=" ">
<polygon fill="#e0e0e0" stroke="#999999" points="50,-19 0,-19 0,0 50,0 50,-19"/>
<text text-anchor="middle" x="25" y="-7" font-family="Helvetica,sans-Serif" font-size="10.00">cstdint</text>
</a>
</g>
</g>
<!-- Node2&#45;&gt;Node4 -->
<g id="edge6_Node000002_Node000004" class="edge">
<title>Node2&#45;&gt;Node4</title>
<g id="a_edge6_Node000002_Node000004"><a xlink:title=" ">
<path fill="none" stroke="#63b8ff" d="M74.99,-109.89C60.94,-102.47 42.66,-90.37 33,-74 25.14,-60.68 23.46,-43.06 23.57,-29.77"/>
<polygon fill="#63b8ff" stroke="#63b8ff" points="27.08,-29.55 24.01,-19.41 20.09,-29.25 27.08,-29.55"/>
</a>
</g>
</g>
<!-- Node6 -->
<g id="Node000006" class="node">
<title>Node6</title>
<g id="a_Node000006"><a xlink:title=" ">
<polygon fill="#e0e0e0" stroke="#999999" points="121.5,-19 74.5,-19 74.5,0 121.5,0 121.5,-19"/>
<text text-anchor="middle" x="98" y="-7" font-family="Helvetica,sans-Serif" font-size="10.00">vector</text>
</a>
</g>
</g>
<!-- Node2&#45;&gt;Node6 -->
<g id="edge7_Node000002_Node000006" class="edge">
<title>Node2&#45;&gt;Node6</title>
<g id="a_edge7_Node000002_Node000006"><a xlink:title=" ">
<path fill="none" stroke="#63b8ff" d="M101.15,-109.97C107.77,-101.48 117.15,-87.75 121,-74 125.43,-58.16 118.1,-40.62 110.57,-27.99"/>
<polygon fill="#63b8ff" stroke="#63b8ff" points="113.36,-25.86 104.96,-19.41 107.5,-29.69 113.36,-25.86"/>
</a>
</g>
</g>
<!-- Node3&#45;&gt;Node4 -->
<g id="edge3_Node000003_Node000004" class="edge">
<title>Node3&#45;&gt;Node4</title>
<g id="a_edge3_Node000003_Node000004"><a xlink:title=" ">
<path fill="none" stroke="#63b8ff" d="M68.41,-54.75C60.84,-47.03 49.62,-35.6 40.49,-26.28"/>
<polygon fill="#63b8ff" stroke="#63b8ff" points="42.93,-23.78 33.43,-19.09 37.93,-28.68 42.93,-23.78"/>
</a>
</g>
</g>
<!-- Node3&#45;&gt;Node5 -->
<g id="edge4_Node000003_Node000005" class="edge">
<title>Node3&#45;&gt;Node5</title>
<g id="a_edge4_Node000003_Node000005"><a xlink:title=" ">
<path fill="none" stroke="#63b8ff" d="M92.75,-54.98C108.23,-46.61 132.09,-33.7 150.14,-23.95"/>
<polygon fill="#63b8ff" stroke="#63b8ff" points="151.84,-27.01 158.97,-19.17 148.51,-20.85 151.84,-27.01"/>
</a>
</g>
</g>
<!-- Node3&#45;&gt;Node6 -->
<g id="edge5_Node000003_Node000006" class="edge">
<title>Node3&#45;&gt;Node6</title>
<g id="a_edge5_Node000003_Node000006"><a xlink:title=" ">
<path fill="none" stroke="#63b8ff" d="M80.47,-54.75C83.28,-47.65 87.34,-37.4 90.85,-28.56"/>
<polygon fill="#63b8ff" stroke="#63b8ff" points="94.17,-29.68 94.6,-19.09 87.66,-27.1 94.17,-29.68"/>
</a>
</g>
</g>
</g>
</svg>
