<?xml version="1.0" encoding="UTF-8" standalone="no"?>
<!DOCTYPE svg PUBLIC "-//W3C//DTD SVG 1.1//EN"
 "http://www.w3.org/Graphics/SVG/1.1/DTD/svg11.dtd">
<!-- Generated by graphviz version 2.43.0 (0)
 -->
<!-- Title: graphical&#45;client/Raylib/Raylib.hpp Pages: 1 -->
<svg width="397pt" height="368pt"
 viewBox="0.00 0.00 397.00 368.00" xmlns="http://www.w3.org/2000/svg" xmlns:xlink="http://www.w3.org/1999/xlink">
<g id="graph0" class="graph" transform="scale(1 1) rotate(0) translate(4 364)">
<title>graphical&#45;client/Raylib/Raylib.hpp</title>
<!-- Node1 -->
<g id="Node000001" class="node">
<title>Node1</title>
<g id="a_Node000001"><a xlink:title=" ">
<polygon fill="#999999" stroke="#666666" points="279,-360 153,-360 153,-330 279,-330 279,-360"/>
<text text-anchor="start" x="161" y="-348" font-family="Helvetica,sans-Serif" font-size="10.00">graphical&#45;client/Raylib</text>
<text text-anchor="middle" x="216" y="-337" font-family="Helvetica,sans-Serif" font-size="10.00">/Raylib.hpp</text>
</a>
</g>
</g>
<!-- Node2 -->
<g id="Node000002" class="node">
<title>Node2</title>
<g id="a_Node000002"><a xlink:href="Graphic_8hpp.html" target="_top" xlink:title=" ">
<polygon fill="white" stroke="#666666" points="168.5,-294 35.5,-294 35.5,-264 168.5,-264 168.5,-294"/>
<text text-anchor="start" x="43.5" y="-282" font-family="Helvetica,sans-Serif" font-size="10.00">graphical&#45;client/Graphic</text>
<text text-anchor="middle" x="102" y="-271" font-family="Helvetica,sans-Serif" font-size="10.00">/Graphic.hpp</text>
</a>
</g>
</g>
<!-- Node1&#45;&gt;Node2 -->
<g id="edge1_Node000001_Node000002" class="edge">
<title>Node1&#45;&gt;Node2</title>
<g id="a_edge1_Node000001_Node000002"><a xlink:title=" ">
<path fill="none" stroke="#63b8ff" d="M182.1,-324.97C164.4,-315.03 143.13,-303.09 126.96,-294.01"/>
<polygon fill="#63b8ff" stroke="#63b8ff" points="180.55,-328.11 190.98,-329.95 183.98,-322.01 180.55,-328.11"/>
</a>
</g>
</g>
<!-- Node5 -->
<g id="Node000005" class="node">
<title>Node5</title>
<g id="a_Node000005"><a xlink:href="System_8hpp.html" target="_top" xlink:title=" ">
<polygon fill="white" stroke="#666666" points="207,-162 95,-162 95,-132 207,-132 207,-162"/>
<text text-anchor="start" x="103" y="-150" font-family="Helvetica,sans-Serif" font-size="10.00">graphical&#45;client/ecs</text>
<text text-anchor="middle" x="151" y="-139" font-family="Helvetica,sans-Serif" font-size="10.00">/System.hpp</text>
</a>
</g>
</g>
<!-- Node1&#45;&gt;Node5 -->
<g id="edge10_Node000001_Node000005" class="edge">
<title>Node1&#45;&gt;Node5</title>
<g id="a_edge10_Node000001_Node000005"><a xlink:title=" ">
<path fill="none" stroke="#63b8ff" d="M208.09,-320.16C194.42,-278.93 166.77,-195.55 155.72,-162.23"/>
<polygon fill="#63b8ff" stroke="#63b8ff" points="204.86,-321.51 211.33,-329.9 211.5,-319.31 204.86,-321.51"/>
</a>
</g>
</g>
<!-- Node6 -->
<g id="Node000006" class="node">
<title>Node6</title>
<g id="a_Node000006"><a xlink:href="GraphicClient_8hpp.html" target="_top" xlink:title=" ">
<polygon fill="white" stroke="#666666" points="263.5,-96 128.5,-96 128.5,-66 263.5,-66 263.5,-96"/>
<text text-anchor="start" x="136.5" y="-84" font-family="Helvetica,sans-Serif" font-size="10.00">graphical&#45;client/Graphic</text>
<text text-anchor="middle" x="196" y="-73" font-family="Helvetica,sans-Serif" font-size="10.00">Client/GraphicClient.hpp</text>
</a>
</g>
</g>
<!-- Node1&#45;&gt;Node6 -->
<g id="edge8_Node000001_Node000006" class="edge">
<title>Node1&#45;&gt;Node6</title>
<g id="a_edge8_Node000001_Node000006"><a xlink:title=" ">
<path fill="none" stroke="#63b8ff" d="M218.93,-319.91C223.11,-280.29 228.91,-199.06 216,-132 213.56,-119.33 207.94,-105.79 203.28,-96"/>
<polygon fill="#63b8ff" stroke="#63b8ff" points="215.45,-319.61 217.82,-329.94 222.4,-320.39 215.45,-319.61"/>
</a>
</g>
</g>
<!-- Node8 -->
<g id="Node000008" class="node">
<title>Node8</title>
<g id="a_Node000008"><a xlink:href="Raylib_8cpp.html" target="_top" xlink:title=" ">
<polygon fill="white" stroke="#666666" points="389,-294 263,-294 263,-264 389,-264 389,-294"/>
<text text-anchor="start" x="271" y="-282" font-family="Helvetica,sans-Serif" font-size="10.00">graphical&#45;client/Raylib</text>
<text text-anchor="middle" x="326" y="-271" font-family="Helvetica,sans-Serif" font-size="10.00">/Raylib.cpp</text>
</a>
</g>
</g>
<!-- Node1&#45;&gt;Node8 -->
<g id="edge9_Node000001_Node000008" class="edge">
<title>Node1&#45;&gt;Node8</title>
<g id="a_edge9_Node000001_Node000008"><a xlink:title=" ">
<path fill="none" stroke="#63b8ff" d="M249.18,-324.69C266.16,-314.82 286.45,-303.01 301.92,-294.01"/>
<polygon fill="#63b8ff" stroke="#63b8ff" points="247.02,-321.9 240.14,-329.95 250.54,-327.95 247.02,-321.9"/>
</a>
</g>
</g>
<!-- Node3 -->
<g id="Node000003" class="node">
<title>Node3</title>
<g id="a_Node000003"><a xlink:href="Components_8hpp.html" target="_top" xlink:title=" ">
<polygon fill="white" stroke="#666666" points="158,-228 46,-228 46,-198 158,-198 158,-228"/>
<text text-anchor="start" x="54" y="-216" font-family="Helvetica,sans-Serif" font-size="10.00">graphical&#45;client/ecs</text>
<text text-anchor="middle" x="102" y="-205" font-family="Helvetica,sans-Serif" font-size="10.00">/Components.hpp</text>
</a>
</g>
</g>
<!-- Node2&#45;&gt;Node3 -->
<g id="edge2_Node000002_Node000003" class="edge">
<title>Node2&#45;&gt;Node3</title>
<g id="a_edge2_Node000002_Node000003"><a xlink:title=" ">
<path fill="none" stroke="#63b8ff" d="M102,-253.54C102,-244.96 102,-235.61 102,-228.16"/>
<polygon fill="#63b8ff" stroke="#63b8ff" points="98.5,-253.8 102,-263.8 105.5,-253.8 98.5,-253.8"/>
</a>
</g>
</g>
<!-- Node4 -->
<g id="Node000004" class="node">
<title>Node4</title>
<g id="a_Node000004"><a xlink:href="GraphicClient_8cpp.html" target="_top" xlink:title=" ">
<polygon fill="white" stroke="#666666" points="134,-30 0,-30 0,0 134,0 134,-30"/>
<text text-anchor="start" x="8" y="-18" font-family="Helvetica,sans-Serif" font-size="10.00">graphical&#45;client/Graphic</text>
<text text-anchor="middle" x="67" y="-7" font-family="Helvetica,sans-Serif" font-size="10.00">Client/GraphicClient.cpp</text>
</a>
</g>
</g>
<!-- Node3&#45;&gt;Node4 -->
<g id="edge3_Node000003_Node000004" class="edge">
<title>Node3&#45;&gt;Node4</title>
<g id="a_edge3_Node000003_Node000004"><a xlink:title=" ">
<path fill="none" stroke="#63b8ff" d="M93.38,-188.09C90.69,-179.9 87.93,-170.63 86,-162 75.37,-114.35 70.02,-56.53 68,-30.24"/>
<polygon fill="#63b8ff" stroke="#63b8ff" points="90.14,-189.42 96.68,-197.75 96.76,-187.15 90.14,-189.42"/>
</a>
</g>
</g>
<!-- Node3&#45;&gt;Node5 -->
<g id="edge4_Node000003_Node000005" class="edge">
<title>Node3&#45;&gt;Node5</title>
<g id="a_edge4_Node000003_Node000005"><a xlink:title=" ">
<path fill="none" stroke="#63b8ff" d="M118.99,-189.81C126.01,-180.64 133.94,-170.28 140.16,-162.16"/>
<polygon fill="#63b8ff" stroke="#63b8ff" points="116.17,-187.73 112.87,-197.8 121.73,-191.98 116.17,-187.73"/>
</a>
</g>
</g>
<!-- Node5&#45;&gt;Node6 -->
<g id="edge5_Node000005_Node000006" class="edge">
<title>Node5&#45;&gt;Node6</title>
<g id="a_edge5_Node000005_Node000006"><a xlink:title=" ">
<path fill="none" stroke="#63b8ff" d="M166.8,-123.53C173.2,-114.43 180.39,-104.19 186.04,-96.16"/>
<polygon fill="#63b8ff" stroke="#63b8ff" points="163.88,-121.6 160.99,-131.8 169.6,-125.63 163.88,-121.6"/>
</a>
</g>
</g>
<!-- Node6&#45;&gt;Node4 -->
<g id="edge7_Node000006_Node000004" class="edge">
<title>Node6&#45;&gt;Node4</title>
<g id="a_edge7_Node000006_Node000004"><a xlink:title=" ">
<path fill="none" stroke="#63b8ff" d="M158.46,-61.38C138.28,-51.36 113.8,-39.22 95.24,-30.01"/>
<polygon fill="#63b8ff" stroke="#63b8ff" points="157.18,-64.65 167.69,-65.95 160.29,-58.38 157.18,-64.65"/>
</a>
</g>
</g>
<!-- Node7 -->
<g id="Node000007" class="node">
<title>Node7</title>
<g id="a_Node000007"><a xlink:href="client_8cpp.html" target="_top" xlink:title=" ">
<polygon fill="white" stroke="#666666" points="308,-30 152,-30 152,0 308,0 308,-30"/>
<text text-anchor="start" x="160" y="-18" font-family="Helvetica,sans-Serif" font-size="10.00">/home/loic/EPITECH</text>
<text text-anchor="middle" x="230" y="-7" font-family="Helvetica,sans-Serif" font-size="10.00">/rtype/Mystic&#45;Type/client.cpp</text>
</a>
</g>
</g>
<!-- Node6&#45;&gt;Node7 -->
<g id="edge6_Node000006_Node000007" class="edge">
<title>Node6&#45;&gt;Node7</title>
<g id="a_edge6_Node000006_Node000007"><a xlink:title=" ">
<path fill="none" stroke="#63b8ff" d="M208.24,-56.96C213,-48 218.3,-38.03 222.48,-30.16"/>
<polygon fill="#63b8ff" stroke="#63b8ff" points="205.15,-55.32 203.55,-65.8 211.33,-58.61 205.15,-55.32"/>
</a>
</g>
</g>
</g>
</svg>
