<?xml version="1.0" encoding="UTF-8" standalone="no"?>
<!DOCTYPE svg PUBLIC "-//W3C//DTD SVG 1.1//EN"
 "http://www.w3.org/Graphics/SVG/1.1/DTD/svg11.dtd">
<!-- Generated by graphviz version 2.43.0 (0)
 -->
<!-- Title: graphical&#45;client/Raylib/Raylib.cpp Pages: 1 -->
<svg width="134pt" height="148pt"
 viewBox="0.00 0.00 134.00 148.00" xmlns="http://www.w3.org/2000/svg" xmlns:xlink="http://www.w3.org/1999/xlink">
<g id="graph0" class="graph" transform="scale(1 1) rotate(0) translate(4 144)">
<title>graphical&#45;client/Raylib/Raylib.cpp</title>
<!-- Node1 -->
<g id="Node000001" class="node">
<title>Node1</title>
<g id="a_Node000001"><a xlink:title=" ">
<polygon fill="#999999" stroke="#666666" points="126,-140 0,-140 0,-110 126,-110 126,-140"/>
<text text-anchor="start" x="8" y="-128" font-family="Helvetica,sans-Serif" font-size="10.00">graphical&#45;client/Raylib</text>
<text text-anchor="middle" x="63" y="-117" font-family="Helvetica,sans-Serif" font-size="10.00">/Raylib.cpp</text>
</a>
</g>
</g>
<!-- Node2 -->
<g id="Node000002" class="node">
<title>Node2</title>
<g id="a_Node000002"><a xlink:href="Raylib_8hpp.html" target="_top" xlink:title=" ">
<polygon fill="white" stroke="#666666" points="97,-74 29,-74 29,-55 97,-55 97,-74"/>
<text text-anchor="middle" x="63" y="-62" font-family="Helvetica,sans-Serif" font-size="10.00">Raylib.hpp</text>
</a>
</g>
</g>
<!-- Node1&#45;&gt;Node2 -->
<g id="edge1_Node000001_Node000002" class="edge">
<title>Node1&#45;&gt;Node2</title>
<g id="a_edge1_Node000001_Node000002"><a xlink:title=" ">
<path fill="none" stroke="#63b8ff" d="M63,-109.84C63,-102.21 63,-92.7 63,-84.45"/>
<polygon fill="#63b8ff" stroke="#63b8ff" points="66.5,-84.27 63,-74.27 59.5,-84.27 66.5,-84.27"/>
</a>
</g>
</g>
<!-- Node3 -->
<g id="Node000003" class="node">
<title>Node3</title>
<g id="a_Node000003"><a xlink:title=" ">
<polygon fill="#e0e0e0" stroke="#999999" points="56.5,-19 3.5,-19 3.5,0 56.5,0 56.5,-19"/>
<text text-anchor="middle" x="30" y="-7" font-family="Helvetica,sans-Serif" font-size="10.00">raylib.h</text>
</a>
</g>
</g>
<!-- Node2&#45;&gt;Node3 -->
<g id="edge2_Node000002_Node000003" class="edge">
<title>Node2&#45;&gt;Node3</title>
<g id="a_edge2_Node000002_Node000003"><a xlink:title=" ">
<path fill="none" stroke="#63b8ff" d="M57.55,-54.75C52.99,-47.42 46.33,-36.73 40.71,-27.7"/>
<polygon fill="#63b8ff" stroke="#63b8ff" points="43.6,-25.73 35.35,-19.09 37.66,-29.43 43.6,-25.73"/>
</a>
</g>
</g>
<!-- Node4 -->
<g id="Node000004" class="node">
<title>Node4</title>
<g id="a_Node000004"><a xlink:title=" ">
<polygon fill="#e0e0e0" stroke="#999999" points="119,-19 75,-19 75,0 119,0 119,-19"/>
<text text-anchor="middle" x="97" y="-7" font-family="Helvetica,sans-Serif" font-size="10.00">string</text>
</a>
</g>
</g>
<!-- Node2&#45;&gt;Node4 -->
<g id="edge3_Node000002_Node000004" class="edge">
<title>Node2&#45;&gt;Node4</title>
<g id="a_edge3_Node000002_Node000004"><a xlink:title=" ">
<path fill="none" stroke="#63b8ff" d="M68.61,-54.75C73.32,-47.42 80.17,-36.73 85.97,-27.7"/>
<polygon fill="#63b8ff" stroke="#63b8ff" points="89.04,-29.4 91.49,-19.09 83.14,-25.62 89.04,-29.4"/>
</a>
</g>
</g>
</g>
</svg>
