<?xml version="1.0" encoding="UTF-8" standalone="no"?>
<!DOCTYPE svg PUBLIC "-//W3C//DTD SVG 1.1//EN"
 "http://www.w3.org/Graphics/SVG/1.1/DTD/svg11.dtd">
<!-- Generated by graphviz version 2.43.0 (0)
 -->
<!-- Title: /home/loic/EPITECH/rtype/Mystic&#45;Type/server.cpp Pages: 1 -->
<svg width="1745pt" height="390pt"
 viewBox="0.00 0.00 1744.50 390.00" xmlns="http://www.w3.org/2000/svg" xmlns:xlink="http://www.w3.org/1999/xlink">
<g id="graph0" class="graph" transform="scale(1 1) rotate(0) translate(4 386)">
<title>/home/loic/EPITECH/rtype/Mystic&#45;Type/server.cpp</title>
<!-- Node1 -->
<g id="Node000001" class="node">
<title>Node1</title>
<g id="a_Node000001"><a xlink:title=" ">
<polygon fill="#999999" stroke="#666666" points="953,-382 794,-382 794,-352 953,-352 953,-382"/>
<text text-anchor="start" x="802" y="-370" font-family="Helvetica,sans-Serif" font-size="10.00">/home/loic/EPITECH</text>
<text text-anchor="middle" x="873.5" y="-359" font-family="Helvetica,sans-Serif" font-size="10.00">/rtype/Mystic&#45;Type/server.cpp</text>
</a>
</g>
</g>
<!-- Node2 -->
<g id="Node000002" class="node">
<title>Node2</title>
<g id="a_Node000002"><a xlink:href="SessionManager_8hpp.html" target="_top" xlink:title=" ">
<polygon fill="white" stroke="#666666" points="963,-250 784,-250 784,-231 963,-231 963,-250"/>
<text text-anchor="middle" x="873.5" y="-238" font-family="Helvetica,sans-Serif" font-size="10.00">src/Network/SessionManager.hpp</text>
</a>
</g>
</g>
<!-- Node1&#45;&gt;Node2 -->
<g id="edge1_Node000001_Node000002" class="edge">
<title>Node1&#45;&gt;Node2</title>
<g id="a_edge1_Node000001_Node000002"><a xlink:title=" ">
<path fill="none" stroke="#63b8ff" d="M873.5,-351.72C873.5,-329.12 873.5,-285.12 873.5,-260.09"/>
<polygon fill="#63b8ff" stroke="#63b8ff" points="877,-260.07 873.5,-250.07 870,-260.07 877,-260.07"/>
</a>
</g>
</g>
<!-- Node11 -->
<g id="Node000011" class="node">
<title>Node11</title>
<g id="a_Node000011"><a xlink:href="TCPServer_8hpp.html" target="_top" xlink:title=" ">
<polygon fill="white" stroke="#666666" points="752.5,-316 602.5,-316 602.5,-286 752.5,-286 752.5,-316"/>
<text text-anchor="start" x="610.5" y="-304" font-family="Helvetica,sans-Serif" font-size="10.00">src/Network/TransportLayer</text>
<text text-anchor="middle" x="677.5" y="-293" font-family="Helvetica,sans-Serif" font-size="10.00">/TCP/TCPServer.hpp</text>
</a>
</g>
</g>
<!-- Node1&#45;&gt;Node11 -->
<g id="edge10_Node000001_Node000011" class="edge">
<title>Node1&#45;&gt;Node11</title>
<g id="a_edge10_Node000001_Node000011"><a xlink:title=" ">
<path fill="none" stroke="#63b8ff" d="M830.49,-351.95C801,-342.33 761.69,-329.49 730.3,-319.24"/>
<polygon fill="#63b8ff" stroke="#63b8ff" points="731.01,-315.79 720.41,-316.01 728.83,-322.44 731.01,-315.79"/>
</a>
</g>
</g>
<!-- Node26 -->
<g id="Node000026" class="node">
<title>Node26</title>
<g id="a_Node000026"><a xlink:href="ChildProcessManager_8hpp.html" target="_top" xlink:title=" ">
<polygon fill="white" stroke="#666666" points="765.5,-250 589.5,-250 589.5,-231 765.5,-231 765.5,-250"/>
<text text-anchor="middle" x="677.5" y="-238" font-family="Helvetica,sans-Serif" font-size="10.00">server/ChildProcessManager.hpp</text>
</a>
</g>
</g>
<!-- Node1&#45;&gt;Node26 -->
<g id="edge66_Node000001_Node000026" class="edge">
<title>Node1&#45;&gt;Node26</title>
<g id="a_edge66_Node000001_Node000026"><a xlink:title=" ">
<path fill="none" stroke="#63b8ff" d="M855.39,-351.92C833.66,-335.3 795.85,-307.24 761.5,-286 742.96,-274.54 721.19,-263.06 704.46,-254.63"/>
<polygon fill="#63b8ff" stroke="#63b8ff" points="705.77,-251.37 695.25,-250.04 702.64,-257.64 705.77,-251.37"/>
</a>
</g>
</g>
<!-- Node27 -->
<g id="Node000027" class="node">
<title>Node27</title>
<g id="a_Node000027"><a xlink:href="IpcChannel_8hpp.html" target="_top" xlink:title=" ">
<polygon fill="white" stroke="#666666" points="495,-250 370,-250 370,-231 495,-231 495,-250"/>
<text text-anchor="middle" x="432.5" y="-238" font-family="Helvetica,sans-Serif" font-size="10.00">server/IpcChannel.hpp</text>
</a>
</g>
</g>
<!-- Node1&#45;&gt;Node27 -->
<g id="edge67_Node000001_Node000027" class="edge">
<title>Node1&#45;&gt;Node27</title>
<g id="a_edge67_Node000001_Node000027"><a xlink:title=" ">
<path fill="none" stroke="#63b8ff" d="M793.75,-357.29C737,-349.77 659.44,-336.76 593.5,-316 542.87,-300.06 487.44,-271.81 456.62,-255.06"/>
<polygon fill="#63b8ff" stroke="#63b8ff" points="457.96,-251.8 447.52,-250.05 454.59,-257.94 457.96,-251.8"/>
</a>
</g>
</g>
<!-- Node29 -->
<g id="Node000029" class="node">
<title>Node29</title>
<g id="a_Node000029"><a xlink:href="UDPGameServer_8hpp.html" target="_top" xlink:title=" ">
<polygon fill="white" stroke="#666666" points="1218.5,-316 1068.5,-316 1068.5,-286 1218.5,-286 1218.5,-316"/>
<text text-anchor="start" x="1076.5" y="-304" font-family="Helvetica,sans-Serif" font-size="10.00">src/Network/TransportLayer</text>
<text text-anchor="middle" x="1143.5" y="-293" font-family="Helvetica,sans-Serif" font-size="10.00">/UDP/UDPGameServer.hpp</text>
</a>
</g>
</g>
<!-- Node1&#45;&gt;Node29 -->
<g id="edge46_Node000001_Node000029" class="edge">
<title>Node1&#45;&gt;Node29</title>
<g id="a_edge46_Node000001_Node000029"><a xlink:title=" ">
<path fill="none" stroke="#63b8ff" d="M932.75,-351.95C974.52,-342.06 1030.58,-328.77 1074.39,-318.38"/>
<polygon fill="#63b8ff" stroke="#63b8ff" points="1075.46,-321.72 1084.39,-316.01 1073.85,-314.91 1075.46,-321.72"/>
</a>
</g>
</g>
<!-- Node34 -->
<g id="Node000034" class="node">
<title>Node34</title>
<g id="a_Node000034"><a xlink:title=" ">
<polygon fill="#e0e0e0" stroke="#999999" points="1736.5,-250 1688.5,-250 1688.5,-231 1736.5,-231 1736.5,-250"/>
<text text-anchor="middle" x="1712.5" y="-238" font-family="Helvetica,sans-Serif" font-size="10.00">thread</text>
</a>
</g>
</g>
<!-- Node1&#45;&gt;Node34 -->
<g id="edge69_Node000001_Node000034" class="edge">
<title>Node1&#45;&gt;Node34</title>
<g id="a_edge69_Node000001_Node000034"><a xlink:title=" ">
<path fill="none" stroke="#63b8ff" d="M953.24,-359.61C1042.09,-351.63 1179.57,-336.51 1227.5,-316 1247.28,-307.54 1245.5,-293.93 1265.5,-286 1434.17,-219.12 1495.3,-278.96 1678.5,-249.84"/>
<polygon fill="#63b8ff" stroke="#63b8ff" points="1679.16,-253.27 1688.45,-248.19 1678.01,-246.37 1679.16,-253.27"/>
</a>
</g>
</g>
<!-- Node36 -->
<g id="Node000036" class="node">
<title>Node36</title>
<g id="a_Node000036"><a xlink:title=" ">
<polygon fill="#e0e0e0" stroke="#999999" points="1334.5,-310.5 1274.5,-310.5 1274.5,-291.5 1334.5,-291.5 1334.5,-310.5"/>
<text text-anchor="middle" x="1304.5" y="-298.5" font-family="Helvetica,sans-Serif" font-size="10.00">iostream</text>
</a>
</g>
</g>
<!-- Node1&#45;&gt;Node36 -->
<g id="edge68_Node000001_Node000036" class="edge">
<title>Node1&#45;&gt;Node36</title>
<g id="a_edge68_Node000001_Node000036"><a xlink:title=" ">
<path fill="none" stroke="#63b8ff" d="M953.16,-359.92C1031.91,-352.92 1155.51,-339.29 1260.5,-316 1263.71,-315.29 1267.02,-314.45 1270.31,-313.53"/>
<polygon fill="#63b8ff" stroke="#63b8ff" points="1271.46,-316.84 1280.05,-310.64 1269.46,-310.13 1271.46,-316.84"/>
</a>
</g>
</g>
<!-- Node3 -->
<g id="Node000003" class="node">
<title>Node3</title>
<g id="a_Node000003"><a xlink:title=" ">
<polygon fill="#e0e0e0" stroke="#999999" points="1023.5,-19 951.5,-19 951.5,0 1023.5,0 1023.5,-19"/>
<text text-anchor="middle" x="987.5" y="-7" font-family="Helvetica,sans-Serif" font-size="10.00">netinet/in.h</text>
</a>
</g>
</g>
<!-- Node2&#45;&gt;Node3 -->
<g id="edge2_Node000002_Node000003" class="edge">
<title>Node2&#45;&gt;Node3</title>
<g id="a_edge2_Node000002_Node000003"><a xlink:title=" ">
<path fill="none" stroke="#63b8ff" d="M875.28,-230.99C878.39,-216.9 885.45,-187.98 895.5,-165 918.54,-112.29 956.08,-55.41 975.31,-27.68"/>
<polygon fill="#63b8ff" stroke="#63b8ff" points="978.42,-29.33 981.29,-19.14 972.69,-25.32 978.42,-29.33"/>
</a>
</g>
</g>
<!-- Node4 -->
<g id="Node000004" class="node">
<title>Node4</title>
<g id="a_Node000004"><a xlink:title=" ">
<polygon fill="#e0e0e0" stroke="#999999" points="1033,-189.5 940,-189.5 940,-170.5 1033,-170.5 1033,-189.5"/>
<text text-anchor="middle" x="986.5" y="-177.5" font-family="Helvetica,sans-Serif" font-size="10.00">unordered_map</text>
</a>
</g>
</g>
<!-- Node2&#45;&gt;Node4 -->
<g id="edge3_Node000002_Node000004" class="edge">
<title>Node2&#45;&gt;Node4</title>
<g id="a_edge3_Node000002_Node000004"><a xlink:title=" ">
<path fill="none" stroke="#63b8ff" d="M890.17,-230.87C908.78,-221.23 939.12,-205.53 960.78,-194.31"/>
<polygon fill="#63b8ff" stroke="#63b8ff" points="962.49,-197.37 969.76,-189.67 959.27,-191.16 962.49,-197.37"/>
</a>
</g>
</g>
<!-- Node5 -->
<g id="Node000005" class="node">
<title>Node5</title>
<g id="a_Node000005"><a xlink:title=" ">
<polygon fill="#e0e0e0" stroke="#999999" points="1137.5,-189.5 1089.5,-189.5 1089.5,-170.5 1137.5,-170.5 1137.5,-189.5"/>
<text text-anchor="middle" x="1113.5" y="-177.5" font-family="Helvetica,sans-Serif" font-size="10.00">mutex</text>
</a>
</g>
</g>
<!-- Node2&#45;&gt;Node5 -->
<g id="edge4_Node000002_Node000005" class="edge">
<title>Node2&#45;&gt;Node5</title>
<g id="a_edge4_Node000002_Node000005"><a xlink:title=" ">
<path fill="none" stroke="#63b8ff" d="M908.4,-230.99C954.23,-219.82 1034.19,-200.33 1079.55,-189.28"/>
<polygon fill="#63b8ff" stroke="#63b8ff" points="1080.6,-192.62 1089.48,-186.85 1078.94,-185.82 1080.6,-192.62"/>
</a>
</g>
</g>
<!-- Node6 -->
<g id="Node000006" class="node">
<title>Node6</title>
<g id="a_Node000006"><a xlink:title=" ">
<polygon fill="#e0e0e0" stroke="#999999" points="667.5,-189.5 611.5,-189.5 611.5,-170.5 667.5,-170.5 667.5,-189.5"/>
<text text-anchor="middle" x="639.5" y="-177.5" font-family="Helvetica,sans-Serif" font-size="10.00">optional</text>
</a>
</g>
</g>
<!-- Node2&#45;&gt;Node6 -->
<g id="edge5_Node000002_Node000006" class="edge">
<title>Node2&#45;&gt;Node6</title>
<g id="a_edge5_Node000002_Node000006"><a xlink:title=" ">
<path fill="none" stroke="#63b8ff" d="M839.47,-230.99C796.43,-220.23 722.53,-201.76 677.63,-190.53"/>
<polygon fill="#63b8ff" stroke="#63b8ff" points="678.24,-187.08 667.69,-188.05 676.54,-193.87 678.24,-187.08"/>
</a>
</g>
</g>
<!-- Node7 -->
<g id="Node000007" class="node">
<title>Node7</title>
<g id="a_Node000007"><a xlink:title=" ">
<polygon fill="#e0e0e0" stroke="#999999" points="845,-189.5 780,-189.5 780,-170.5 845,-170.5 845,-189.5"/>
<text text-anchor="middle" x="812.5" y="-177.5" font-family="Helvetica,sans-Serif" font-size="10.00">functional</text>
</a>
</g>
</g>
<!-- Node2&#45;&gt;Node7 -->
<g id="edge6_Node000002_Node000007" class="edge">
<title>Node2&#45;&gt;Node7</title>
<g id="a_edge6_Node000002_Node000007"><a xlink:title=" ">
<path fill="none" stroke="#63b8ff" d="M864.5,-230.87C855.13,-221.88 840.25,-207.61 828.8,-196.64"/>
<polygon fill="#63b8ff" stroke="#63b8ff" points="831.18,-194.06 821.54,-189.67 826.33,-199.12 831.18,-194.06"/>
</a>
</g>
</g>
<!-- Node8 -->
<g id="Node000008" class="node">
<title>Node8</title>
<g id="a_Node000008"><a xlink:title=" ">
<polygon fill="#e0e0e0" stroke="#999999" points="720.5,-19 670.5,-19 670.5,0 720.5,0 720.5,-19"/>
<text text-anchor="middle" x="695.5" y="-7" font-family="Helvetica,sans-Serif" font-size="10.00">cstdint</text>
</a>
</g>
</g>
<!-- Node2&#45;&gt;Node8 -->
<g id="edge7_Node000002_Node000008" class="edge">
<title>Node2&#45;&gt;Node8</title>
<g id="a_edge7_Node000002_Node000008"><a xlink:title=" ">
<path fill="none" stroke="#63b8ff" d="M836.96,-230.96C815.51,-224.31 789.21,-213.08 771.5,-195 747.13,-170.12 714.17,-70.54 701.14,-28.92"/>
<polygon fill="#63b8ff" stroke="#63b8ff" points="704.44,-27.77 698.14,-19.25 697.76,-29.84 704.44,-27.77"/>
</a>
</g>
</g>
<!-- Node9 -->
<g id="Node000009" class="node">
<title>Node9</title>
<g id="a_Node000009"><a xlink:title=" ">
<polygon fill="#e0e0e0" stroke="#999999" points="1241,-129 1194,-129 1194,-110 1241,-110 1241,-129"/>
<text text-anchor="middle" x="1217.5" y="-117" font-family="Helvetica,sans-Serif" font-size="10.00">vector</text>
</a>
</g>
</g>
<!-- Node2&#45;&gt;Node9 -->
<g id="edge8_Node000002_Node000009" class="edge">
<title>Node2&#45;&gt;Node9</title>
<g id="a_edge8_Node000002_Node000009"><a xlink:title=" ">
<path fill="none" stroke="#63b8ff" d="M877.46,-230.82C885.26,-214.79 904.27,-180.78 931.5,-165 1027.37,-109.47 1071.25,-149.27 1183.79,-129.05"/>
<polygon fill="#63b8ff" stroke="#63b8ff" points="1184.65,-132.45 1193.81,-127.13 1183.33,-125.58 1184.65,-132.45"/>
</a>
</g>
</g>
<!-- Node10 -->
<g id="Node000010" class="node">
<title>Node10</title>
<g id="a_Node000010"><a xlink:title=" ">
<polygon fill="#e0e0e0" stroke="#999999" points="586.5,-189.5 542.5,-189.5 542.5,-170.5 586.5,-170.5 586.5,-189.5"/>
<text text-anchor="middle" x="564.5" y="-177.5" font-family="Helvetica,sans-Serif" font-size="10.00">string</text>
</a>
</g>
</g>
<!-- Node2&#45;&gt;Node10 -->
<g id="edge9_Node000002_Node000010" class="edge">
<title>Node2&#45;&gt;Node10</title>
<g id="a_edge9_Node000002_Node000010"><a xlink:title=" ">
<path fill="none" stroke="#63b8ff" d="M797.63,-230.97C742.84,-223.86 667.39,-212.11 602.5,-195 600.06,-194.36 597.56,-193.62 595.06,-192.83"/>
<polygon fill="#63b8ff" stroke="#63b8ff" points="596.17,-189.51 585.58,-189.57 593.9,-196.13 596.17,-189.51"/>
</a>
</g>
</g>
<!-- Node11&#45;&gt;Node2 -->
<g id="edge34_Node000011_Node000002" class="edge">
<title>Node11&#45;&gt;Node2</title>
<g id="a_edge34_Node000011_Node000002"><a xlink:title=" ">
<path fill="none" stroke="#63b8ff" d="M724.45,-285.99C758.27,-275.89 803.36,-262.44 835.05,-252.98"/>
<polygon fill="#63b8ff" stroke="#63b8ff" points="836.26,-256.27 844.84,-250.05 834.26,-249.56 836.26,-256.27"/>
</a>
</g>
</g>
<!-- Node11&#45;&gt;Node4 -->
<g id="edge14_Node000011_Node000004" class="edge">
<title>Node11&#45;&gt;Node4</title>
<g id="a_edge14_Node000011_Node000004"><a xlink:title=" ">
<path fill="none" stroke="#63b8ff" d="M752.56,-296.75C829.44,-291.82 941.9,-279.63 972.5,-250 985.78,-237.14 988.26,-215.38 988.06,-199.73"/>
<polygon fill="#63b8ff" stroke="#63b8ff" points="991.55,-199.45 987.56,-189.64 984.56,-199.8 991.55,-199.45"/>
</a>
</g>
</g>
<!-- Node11&#45;&gt;Node9 -->
<g id="edge12_Node000011_Node000009" class="edge">
<title>Node11&#45;&gt;Node9</title>
<g id="a_edge12_Node000011_Node000009"><a xlink:title=" ">
<path fill="none" stroke="#63b8ff" d="M752.85,-293.2C832.05,-285.15 950.7,-270.22 991.5,-250 1040.51,-225.71 1033.54,-193.04 1080.5,-165 1098.14,-154.47 1149.56,-139.13 1184.14,-129.49"/>
<polygon fill="#63b8ff" stroke="#63b8ff" points="1185.13,-132.85 1193.84,-126.81 1183.27,-126.1 1185.13,-132.85"/>
</a>
</g>
</g>
<!-- Node11&#45;&gt;Node10 -->
<g id="edge13_Node000011_Node000010" class="edge">
<title>Node11&#45;&gt;Node10</title>
<g id="a_edge13_Node000011_Node000010"><a xlink:title=" ">
<path fill="none" stroke="#63b8ff" d="M602.29,-295.27C498.01,-287.94 320.05,-272.32 300.5,-250 294.94,-243.65 295,-237.41 300.5,-231 334.6,-191.23 483.28,-209.92 533.5,-195 535.13,-194.51 536.79,-193.96 538.45,-193.36"/>
<polygon fill="#63b8ff" stroke="#63b8ff" points="539.83,-196.58 547.76,-189.55 537.18,-190.1 539.83,-196.58"/>
</a>
</g>
</g>
<!-- Node12 -->
<g id="Node000012" class="node">
<title>Node12</title>
<g id="a_Node000012"><a xlink:title=" ">
<polygon fill="#e0e0e0" stroke="#999999" points="351.5,-250 309.5,-250 309.5,-231 351.5,-231 351.5,-250"/>
<text text-anchor="middle" x="330.5" y="-238" font-family="Helvetica,sans-Serif" font-size="10.00">array</text>
</a>
</g>
</g>
<!-- Node11&#45;&gt;Node12 -->
<g id="edge11_Node000011_Node000012" class="edge">
<title>Node11&#45;&gt;Node12</title>
<g id="a_edge11_Node000011_Node000012"><a xlink:title=" ">
<path fill="none" stroke="#63b8ff" d="M602.41,-290.73C540.21,-282.47 449.38,-269.04 361.59,-250.02"/>
<polygon fill="#63b8ff" stroke="#63b8ff" points="362.24,-246.58 351.73,-247.85 360.74,-253.41 362.24,-246.58"/>
</a>
</g>
</g>
<!-- Node13 -->
<g id="Node000013" class="node">
<title>Node13</title>
<g id="a_Node000013"><a xlink:title=" ">
<polygon fill="#e0e0e0" stroke="#999999" points="147.5,-250 89.5,-250 89.5,-231 147.5,-231 147.5,-250"/>
<text text-anchor="middle" x="118.5" y="-238" font-family="Helvetica,sans-Serif" font-size="10.00">memory</text>
</a>
</g>
</g>
<!-- Node11&#45;&gt;Node13 -->
<g id="edge15_Node000011_Node000013" class="edge">
<title>Node11&#45;&gt;Node13</title>
<g id="a_edge15_Node000011_Node000013"><a xlink:title=" ">
<path fill="none" stroke="#63b8ff" d="M602.07,-295.71C502.49,-289.4 321.6,-275.65 158.13,-250.07"/>
<polygon fill="#63b8ff" stroke="#63b8ff" points="158.31,-246.56 147.89,-248.45 157.22,-253.47 158.31,-246.56"/>
</a>
</g>
</g>
<!-- Node14 -->
<g id="Node000014" class="node">
<title>Node14</title>
<g id="a_Node000014"><a xlink:href="TCPSocket_8hpp.html" target="_top" xlink:title=" ">
<polygon fill="white" stroke="#666666" points="253.5,-250 165.5,-250 165.5,-231 253.5,-231 253.5,-250"/>
<text text-anchor="middle" x="209.5" y="-238" font-family="Helvetica,sans-Serif" font-size="10.00">TCPSocket.hpp</text>
</a>
</g>
</g>
<!-- Node11&#45;&gt;Node14 -->
<g id="edge16_Node000011_Node000014" class="edge">
<title>Node11&#45;&gt;Node14</title>
<g id="a_edge16_Node000011_Node000014"><a xlink:title=" ">
<path fill="none" stroke="#63b8ff" d="M602.24,-291.37C519.95,-281.81 384.23,-265.67 267.5,-250 266.22,-249.83 264.93,-249.65 263.63,-249.48"/>
<polygon fill="#63b8ff" stroke="#63b8ff" points="263.89,-245.98 253.5,-248.06 262.92,-252.91 263.89,-245.98"/>
</a>
</g>
</g>
<!-- Node24 -->
<g id="Node000024" class="node">
<title>Node24</title>
<g id="a_Node000024"><a xlink:href="Packet_8hpp.html" target="_top" xlink:title=" ">
<polygon fill="white" stroke="#666666" points="1233.5,-189.5 1155.5,-189.5 1155.5,-170.5 1233.5,-170.5 1233.5,-189.5"/>
<text text-anchor="middle" x="1194.5" y="-177.5" font-family="Helvetica,sans-Serif" font-size="10.00">../Packet.hpp</text>
</a>
</g>
</g>
<!-- Node11&#45;&gt;Node24 -->
<g id="edge30_Node000011_Node000024" class="edge">
<title>Node11&#45;&gt;Node24</title>
<g id="a_edge30_Node000011_Node000024"><a xlink:title=" ">
<path fill="none" stroke="#63b8ff" d="M752.62,-300.1C835.39,-298.08 971.4,-288.41 1081.5,-250 1117.58,-237.41 1154.46,-212.07 1175.88,-195.85"/>
<polygon fill="#63b8ff" stroke="#63b8ff" points="1178.29,-198.41 1184.06,-189.53 1174.01,-192.87 1178.29,-198.41"/>
</a>
</g>
</g>
<!-- Node11&#45;&gt;Node26 -->
<g id="edge35_Node000011_Node000026" class="edge">
<title>Node11&#45;&gt;Node26</title>
<g id="a_edge35_Node000011_Node000026"><a xlink:title=" ">
<path fill="none" stroke="#63b8ff" d="M677.5,-285.84C677.5,-278.21 677.5,-268.7 677.5,-260.45"/>
<polygon fill="#63b8ff" stroke="#63b8ff" points="681,-260.27 677.5,-250.27 674,-260.27 681,-260.27"/>
</a>
</g>
</g>
<!-- Node11&#45;&gt;Node27 -->
<g id="edge40_Node000011_Node000027" class="edge">
<title>Node11&#45;&gt;Node27</title>
<g id="a_edge40_Node000011_Node000027"><a xlink:title=" ">
<path fill="none" stroke="#63b8ff" d="M618.82,-285.99C575.71,-275.7 517.98,-261.91 478.26,-252.43"/>
<polygon fill="#63b8ff" stroke="#63b8ff" points="478.86,-248.97 468.32,-250.05 477.24,-255.78 478.86,-248.97"/>
</a>
</g>
</g>
<!-- Node14&#45;&gt;Node8 -->
<g id="edge18_Node000014_Node000008" class="edge">
<title>Node14&#45;&gt;Node8</title>
<g id="a_edge18_Node000014_Node000008"><a xlink:title=" ">
<path fill="none" stroke="#63b8ff" d="M227.66,-230.94C301.49,-196.15 579.35,-65.23 668.08,-23.42"/>
<polygon fill="#63b8ff" stroke="#63b8ff" points="669.69,-26.53 677.24,-19.1 666.71,-20.2 669.69,-26.53"/>
</a>
</g>
</g>
<!-- Node14&#45;&gt;Node10 -->
<g id="edge17_Node000014_Node000010" class="edge">
<title>Node14&#45;&gt;Node10</title>
<g id="a_edge17_Node000014_Node000010"><a xlink:title=" ">
<path fill="none" stroke="#63b8ff" d="M253.51,-233C258.23,-232.32 262.97,-231.64 267.5,-231 385.63,-214.35 418.82,-227.9 533.5,-195 535.14,-194.53 536.8,-193.99 538.46,-193.4"/>
<polygon fill="#63b8ff" stroke="#63b8ff" points="539.83,-196.62 547.78,-189.61 537.2,-190.13 539.83,-196.62"/>
</a>
</g>
</g>
<!-- Node15 -->
<g id="Node000015" class="node">
<title>Node15</title>
<g id="a_Node000015"><a xlink:href="ASocket_8hpp.html" target="_top" xlink:title=" ">
<polygon fill="white" stroke="#666666" points="326.5,-129 240.5,-129 240.5,-110 326.5,-110 326.5,-129"/>
<text text-anchor="middle" x="283.5" y="-117" font-family="Helvetica,sans-Serif" font-size="10.00">../ASocket.hpp</text>
</a>
</g>
</g>
<!-- Node14&#45;&gt;Node15 -->
<g id="edge19_Node000014_Node000015" class="edge">
<title>Node14&#45;&gt;Node15</title>
<g id="a_edge19_Node000014_Node000015"><a xlink:title=" ">
<path fill="none" stroke="#63b8ff" d="M214.82,-230.94C226.87,-211.57 256.44,-164.02 272.57,-138.08"/>
<polygon fill="#63b8ff" stroke="#63b8ff" points="275.72,-139.64 278.03,-129.3 269.77,-135.95 275.72,-139.64"/>
</a>
</g>
</g>
<!-- Node16 -->
<g id="Node000016" class="node">
<title>Node16</title>
<g id="a_Node000016"><a xlink:href="ISocket_8hpp.html" target="_top" xlink:title=" ">
<polygon fill="white" stroke="#666666" points="326,-74 253,-74 253,-55 326,-55 326,-74"/>
<text text-anchor="middle" x="289.5" y="-62" font-family="Helvetica,sans-Serif" font-size="10.00">ISocket.hpp</text>
</a>
</g>
</g>
<!-- Node15&#45;&gt;Node16 -->
<g id="edge20_Node000015_Node000016" class="edge">
<title>Node15&#45;&gt;Node16</title>
<g id="a_edge20_Node000015_Node000016"><a xlink:title=" ">
<path fill="none" stroke="#63b8ff" d="M284.49,-109.75C285.28,-102.8 286.4,-92.85 287.39,-84.13"/>
<polygon fill="#63b8ff" stroke="#63b8ff" points="290.88,-84.42 288.53,-74.09 283.92,-83.63 290.88,-84.42"/>
</a>
</g>
</g>
<!-- Node16&#45;&gt;Node3 -->
<g id="edge24_Node000016_Node000003" class="edge">
<title>Node16&#45;&gt;Node3</title>
<g id="a_edge24_Node000016_Node000003"><a xlink:title=" ">
<path fill="none" stroke="#63b8ff" d="M326.04,-60.73C443.48,-51.81 811.13,-23.89 941.28,-14.01"/>
<polygon fill="#63b8ff" stroke="#63b8ff" points="941.61,-17.49 951.32,-13.25 941.08,-10.51 941.61,-17.49"/>
</a>
</g>
</g>
<!-- Node16&#45;&gt;Node8 -->
<g id="edge22_Node000016_Node000008" class="edge">
<title>Node16&#45;&gt;Node8</title>
<g id="a_edge22_Node000016_Node000008"><a xlink:title=" ">
<path fill="none" stroke="#63b8ff" d="M326.24,-57.19C331.03,-56.43 335.88,-55.67 340.5,-55 457.28,-37.96 596.28,-21.7 660.17,-14.45"/>
<polygon fill="#63b8ff" stroke="#63b8ff" points="660.95,-17.88 670.49,-13.28 660.16,-10.93 660.95,-17.88"/>
</a>
</g>
</g>
<!-- Node17 -->
<g id="Node000017" class="node">
<title>Node17</title>
<g id="a_Node000017"><a xlink:title=" ">
<polygon fill="#e0e0e0" stroke="#999999" points="69,-19 0,-19 0,0 69,0 69,-19"/>
<text text-anchor="middle" x="34.5" y="-7" font-family="Helvetica,sans-Serif" font-size="10.00">arpa/inet.h</text>
</a>
</g>
</g>
<!-- Node16&#45;&gt;Node17 -->
<g id="edge21_Node000016_Node000017" class="edge">
<title>Node16&#45;&gt;Node17</title>
<g id="a_edge21_Node000016_Node000017"><a xlink:title=" ">
<path fill="none" stroke="#63b8ff" d="M252.96,-55.91C207.19,-46.39 128.79,-30.1 79.41,-19.83"/>
<polygon fill="#63b8ff" stroke="#63b8ff" points="79.83,-16.35 69.33,-17.74 78.41,-23.2 79.83,-16.35"/>
</a>
</g>
</g>
<!-- Node18 -->
<g id="Node000018" class="node">
<title>Node18</title>
<g id="a_Node000018"><a xlink:title=" ">
<polygon fill="#e0e0e0" stroke="#999999" points="138,-19 87,-19 87,0 138,0 138,-19"/>
<text text-anchor="middle" x="112.5" y="-7" font-family="Helvetica,sans-Serif" font-size="10.00">errno.h</text>
</a>
</g>
</g>
<!-- Node16&#45;&gt;Node18 -->
<g id="edge23_Node000016_Node000018" class="edge">
<title>Node16&#45;&gt;Node18</title>
<g id="a_edge23_Node000016_Node000018"><a xlink:title=" ">
<path fill="none" stroke="#63b8ff" d="M261.06,-54.98C230.33,-45.78 181.31,-31.1 148.05,-21.15"/>
<polygon fill="#63b8ff" stroke="#63b8ff" points="148.86,-17.73 138.28,-18.22 146.85,-24.44 148.86,-17.73"/>
</a>
</g>
</g>
<!-- Node19 -->
<g id="Node000019" class="node">
<title>Node19</title>
<g id="a_Node000019"><a xlink:title=" ">
<polygon fill="#e0e0e0" stroke="#999999" points="234.5,-19 156.5,-19 156.5,0 234.5,0 234.5,-19"/>
<text text-anchor="middle" x="195.5" y="-7" font-family="Helvetica,sans-Serif" font-size="10.00">netinet/tcp.h</text>
</a>
</g>
</g>
<!-- Node16&#45;&gt;Node19 -->
<g id="edge25_Node000016_Node000019" class="edge">
<title>Node16&#45;&gt;Node19</title>
<g id="a_edge25_Node000016_Node000019"><a xlink:title=" ">
<path fill="none" stroke="#63b8ff" d="M274.4,-54.98C259.68,-46.69 237.08,-33.94 219.83,-24.22"/>
<polygon fill="#63b8ff" stroke="#63b8ff" points="221.31,-21.03 210.88,-19.17 217.87,-27.13 221.31,-21.03"/>
</a>
</g>
</g>
<!-- Node20 -->
<g id="Node000020" class="node">
<title>Node20</title>
<g id="a_Node000020"><a xlink:title=" ">
<polygon fill="#e0e0e0" stroke="#999999" points="326.5,-19 252.5,-19 252.5,0 326.5,0 326.5,-19"/>
<text text-anchor="middle" x="289.5" y="-7" font-family="Helvetica,sans-Serif" font-size="10.00">sys/select.h</text>
</a>
</g>
</g>
<!-- Node16&#45;&gt;Node20 -->
<g id="edge26_Node000016_Node000020" class="edge">
<title>Node16&#45;&gt;Node20</title>
<g id="a_edge26_Node000016_Node000020"><a xlink:title=" ">
<path fill="none" stroke="#63b8ff" d="M289.5,-54.75C289.5,-47.8 289.5,-37.85 289.5,-29.13"/>
<polygon fill="#63b8ff" stroke="#63b8ff" points="293,-29.09 289.5,-19.09 286,-29.09 293,-29.09"/>
</a>
</g>
</g>
<!-- Node21 -->
<g id="Node000021" class="node">
<title>Node21</title>
<g id="a_Node000021"><a xlink:title=" ">
<polygon fill="#e0e0e0" stroke="#999999" points="422,-19 345,-19 345,0 422,0 422,-19"/>
<text text-anchor="middle" x="383.5" y="-7" font-family="Helvetica,sans-Serif" font-size="10.00">sys/socket.h</text>
</a>
</g>
</g>
<!-- Node16&#45;&gt;Node21 -->
<g id="edge27_Node000016_Node000021" class="edge">
<title>Node16&#45;&gt;Node21</title>
<g id="a_edge27_Node000016_Node000021"><a xlink:title=" ">
<path fill="none" stroke="#63b8ff" d="M304.6,-54.98C319.32,-46.69 341.92,-33.94 359.17,-24.22"/>
<polygon fill="#63b8ff" stroke="#63b8ff" points="361.13,-27.13 368.12,-19.17 357.69,-21.03 361.13,-27.13"/>
</a>
</g>
</g>
<!-- Node22 -->
<g id="Node000022" class="node">
<title>Node22</title>
<g id="a_Node000022"><a xlink:title=" ">
<polygon fill="#e0e0e0" stroke="#999999" points="497,-19 440,-19 440,0 497,0 497,-19"/>
<text text-anchor="middle" x="468.5" y="-7" font-family="Helvetica,sans-Serif" font-size="10.00">sys/un.h</text>
</a>
</g>
</g>
<!-- Node16&#45;&gt;Node22 -->
<g id="edge28_Node000016_Node000022" class="edge">
<title>Node16&#45;&gt;Node22</title>
<g id="a_edge28_Node000016_Node000022"><a xlink:title=" ">
<path fill="none" stroke="#63b8ff" d="M318.26,-54.98C348.53,-46.02 396.36,-31.86 429.9,-21.93"/>
<polygon fill="#63b8ff" stroke="#63b8ff" points="431.22,-25.19 439.81,-18.99 429.23,-18.48 431.22,-25.19"/>
</a>
</g>
</g>
<!-- Node23 -->
<g id="Node000023" class="node">
<title>Node23</title>
<g id="a_Node000023"><a xlink:title=" ">
<polygon fill="#e0e0e0" stroke="#999999" points="571.5,-19 515.5,-19 515.5,0 571.5,0 571.5,-19"/>
<text text-anchor="middle" x="543.5" y="-7" font-family="Helvetica,sans-Serif" font-size="10.00">unistd.h</text>
</a>
</g>
</g>
<!-- Node16&#45;&gt;Node23 -->
<g id="edge29_Node000016_Node000023" class="edge">
<title>Node16&#45;&gt;Node23</title>
<g id="a_edge29_Node000016_Node000023"><a xlink:title=" ">
<path fill="none" stroke="#63b8ff" d="M326.23,-56.13C369.24,-47.45 442.61,-32.51 505.5,-19 505.6,-18.98 505.7,-18.96 505.8,-18.94"/>
<polygon fill="#63b8ff" stroke="#63b8ff" points="506.27,-22.42 515.29,-16.87 504.77,-15.58 506.27,-22.42"/>
</a>
</g>
</g>
<!-- Node24&#45;&gt;Node8 -->
<g id="edge31_Node000024_Node000008" class="edge">
<title>Node24&#45;&gt;Node8</title>
<g id="a_edge31_Node000024_Node000008"><a xlink:title=" ">
<path fill="none" stroke="#63b8ff" d="M1169.07,-170.41C1086.38,-142.49 825.04,-54.24 730.26,-22.24"/>
<polygon fill="#63b8ff" stroke="#63b8ff" points="731.18,-18.85 720.58,-18.97 728.94,-25.49 731.18,-18.85"/>
</a>
</g>
</g>
<!-- Node24&#45;&gt;Node9 -->
<g id="edge33_Node000024_Node000009" class="edge">
<title>Node24&#45;&gt;Node9</title>
<g id="a_edge33_Node000024_Node000009"><a xlink:title=" ">
<path fill="none" stroke="#63b8ff" d="M1197.89,-170.37C1201.16,-162.07 1206.19,-149.28 1210.34,-138.72"/>
<polygon fill="#63b8ff" stroke="#63b8ff" points="1213.69,-139.75 1214.09,-129.17 1207.18,-137.19 1213.69,-139.75"/>
</a>
</g>
</g>
<!-- Node25 -->
<g id="Node000025" class="node">
<title>Node25</title>
<g id="a_Node000025"><a xlink:title=" ">
<polygon fill="#e0e0e0" stroke="#999999" points="1176,-129 1111,-129 1111,-110 1176,-110 1176,-129"/>
<text text-anchor="middle" x="1143.5" y="-117" font-family="Helvetica,sans-Serif" font-size="10.00">stdexcept</text>
</a>
</g>
</g>
<!-- Node24&#45;&gt;Node25 -->
<g id="edge32_Node000024_Node000025" class="edge">
<title>Node24&#45;&gt;Node25</title>
<g id="a_edge32_Node000024_Node000025"><a xlink:title=" ">
<path fill="none" stroke="#63b8ff" d="M1186.97,-170.37C1179.29,-161.55 1167.18,-147.66 1157.69,-136.77"/>
<polygon fill="#63b8ff" stroke="#63b8ff" points="1160.27,-134.41 1151.06,-129.17 1154.99,-139.01 1160.27,-134.41"/>
</a>
</g>
</g>
<!-- Node26&#45;&gt;Node4 -->
<g id="edge37_Node000026_Node000004" class="edge">
<title>Node26&#45;&gt;Node4</title>
<g id="a_edge37_Node000026_Node000004"><a xlink:title=" ">
<path fill="none" stroke="#63b8ff" d="M722.43,-230.99C777.81,-220.51 871.89,-202.7 931.52,-191.41"/>
<polygon fill="#63b8ff" stroke="#63b8ff" points="932.34,-194.82 941.51,-189.52 931.04,-187.94 932.34,-194.82"/>
</a>
</g>
</g>
<!-- Node26&#45;&gt;Node6 -->
<g id="edge38_Node000026_Node000006" class="edge">
<title>Node26&#45;&gt;Node6</title>
<g id="a_edge38_Node000026_Node000006"><a xlink:title=" ">
<path fill="none" stroke="#63b8ff" d="M671.89,-230.87C666.34,-222.31 657.67,-208.97 650.7,-198.24"/>
<polygon fill="#63b8ff" stroke="#63b8ff" points="653.51,-196.15 645.13,-189.67 647.64,-199.96 653.51,-196.15"/>
</a>
</g>
</g>
<!-- Node26&#45;&gt;Node8 -->
<g id="edge39_Node000026_Node000008" class="edge">
<title>Node26&#45;&gt;Node8</title>
<g id="a_edge39_Node000026_Node000008"><a xlink:title=" ">
<path fill="none" stroke="#63b8ff" d="M678.18,-230.8C680.82,-197.29 690.35,-76.08 694.03,-29.2"/>
<polygon fill="#63b8ff" stroke="#63b8ff" points="697.52,-29.45 694.82,-19.21 690.54,-28.9 697.52,-29.45"/>
</a>
</g>
</g>
<!-- Node26&#45;&gt;Node10 -->
<g id="edge36_Node000026_Node000010" class="edge">
<title>Node26&#45;&gt;Node10</title>
<g id="a_edge36_Node000026_Node000010"><a xlink:title=" ">
<path fill="none" stroke="#63b8ff" d="M660.83,-230.87C642.22,-221.23 611.88,-205.53 590.22,-194.31"/>
<polygon fill="#63b8ff" stroke="#63b8ff" points="591.73,-191.16 581.24,-189.67 588.51,-197.37 591.73,-191.16"/>
</a>
</g>
</g>
<!-- Node27&#45;&gt;Node6 -->
<g id="edge42_Node000027_Node000006" class="edge">
<title>Node27&#45;&gt;Node6</title>
<g id="a_edge42_Node000027_Node000006"><a xlink:title=" ">
<path fill="none" stroke="#63b8ff" d="M465.39,-230.95C498.4,-222.27 550.63,-208.26 595.5,-195 598.08,-194.24 600.74,-193.44 603.41,-192.62"/>
<polygon fill="#63b8ff" stroke="#63b8ff" points="604.52,-195.93 613.03,-189.62 602.44,-189.25 604.52,-195.93"/>
</a>
</g>
</g>
<!-- Node27&#45;&gt;Node10 -->
<g id="edge41_Node000027_Node000010" class="edge">
<title>Node27&#45;&gt;Node10</title>
<g id="a_edge41_Node000027_Node000010"><a xlink:title=" ">
<path fill="none" stroke="#63b8ff" d="M452.26,-230.86C472.64,-221.93 505.33,-207.57 533.5,-195 534.35,-194.62 535.21,-194.24 536.08,-193.85"/>
<polygon fill="#63b8ff" stroke="#63b8ff" points="537.81,-196.91 545.5,-189.62 534.94,-190.52 537.81,-196.91"/>
</a>
</g>
</g>
<!-- Node28 -->
<g id="Node000028" class="node">
<title>Node28</title>
<g id="a_Node000028"><a xlink:href="UDPSocket_8hpp.html" target="_top" xlink:title=" ">
<polygon fill="white" stroke="#666666" points="524.5,-195 382.5,-195 382.5,-165 524.5,-165 524.5,-195"/>
<text text-anchor="start" x="390.5" y="-183" font-family="Helvetica,sans-Serif" font-size="10.00">../Network/TransportLayer</text>
<text text-anchor="middle" x="453.5" y="-172" font-family="Helvetica,sans-Serif" font-size="10.00">/UDP/UDPSocket.hpp</text>
</a>
</g>
</g>
<!-- Node27&#45;&gt;Node28 -->
<g id="edge43_Node000027_Node000028" class="edge">
<title>Node27&#45;&gt;Node28</title>
<g id="a_edge43_Node000027_Node000028"><a xlink:title=" ">
<path fill="none" stroke="#63b8ff" d="M435.6,-230.87C438.08,-223.96 441.68,-213.93 445,-204.67"/>
<polygon fill="#63b8ff" stroke="#63b8ff" points="448.35,-205.71 448.43,-195.11 441.76,-203.34 448.35,-205.71"/>
</a>
</g>
</g>
<!-- Node28&#45;&gt;Node8 -->
<g id="edge45_Node000028_Node000008" class="edge">
<title>Node28&#45;&gt;Node8</title>
<g id="a_edge45_Node000028_Node000008"><a xlink:title=" ">
<path fill="none" stroke="#63b8ff" d="M473.72,-164.92C519.19,-133.26 629.13,-56.71 674.94,-24.82"/>
<polygon fill="#63b8ff" stroke="#63b8ff" points="677,-27.65 683.2,-19.06 673,-21.9 677,-27.65"/>
</a>
</g>
</g>
<!-- Node28&#45;&gt;Node15 -->
<g id="edge44_Node000028_Node000015" class="edge">
<title>Node28&#45;&gt;Node15</title>
<g id="a_edge44_Node000028_Node000015"><a xlink:title=" ">
<path fill="none" stroke="#63b8ff" d="M412.78,-164.99C383.91,-155.05 345.59,-141.86 318.17,-132.43"/>
<polygon fill="#63b8ff" stroke="#63b8ff" points="319.2,-129.08 308.61,-129.14 316.92,-135.7 319.2,-129.08"/>
</a>
</g>
</g>
<!-- Node29&#45;&gt;Node2 -->
<g id="edge64_Node000029_Node000002" class="edge">
<title>Node29&#45;&gt;Node2</title>
<g id="a_edge64_Node000029_Node000002"><a xlink:title=" ">
<path fill="none" stroke="#63b8ff" d="M1078.83,-285.99C1030.92,-275.61 966.62,-261.68 922.82,-252.19"/>
<polygon fill="#63b8ff" stroke="#63b8ff" points="923.49,-248.75 912.98,-250.05 922.01,-255.59 923.49,-248.75"/>
</a>
</g>
</g>
<!-- Node29&#45;&gt;Node4 -->
<g id="edge47_Node000029_Node000004" class="edge">
<title>Node29&#45;&gt;Node4</title>
<g id="a_edge47_Node000029_Node000004"><a xlink:title=" ">
<path fill="none" stroke="#63b8ff" d="M1124.87,-285.88C1095.01,-263.24 1036.67,-219.03 1006.16,-195.9"/>
<polygon fill="#63b8ff" stroke="#63b8ff" points="1008.08,-192.96 997.99,-189.71 1003.85,-198.54 1008.08,-192.96"/>
</a>
</g>
</g>
<!-- Node29&#45;&gt;Node5 -->
<g id="edge52_Node000029_Node000005" class="edge">
<title>Node29&#45;&gt;Node5</title>
<g id="a_edge52_Node000029_Node000005"><a xlink:title=" ">
<path fill="none" stroke="#63b8ff" d="M1139.94,-285.88C1134.53,-264.41 1124.22,-223.52 1118.2,-199.64"/>
<polygon fill="#63b8ff" stroke="#63b8ff" points="1121.53,-198.55 1115.7,-189.71 1114.75,-200.26 1121.53,-198.55"/>
</a>
</g>
</g>
<!-- Node29&#45;&gt;Node9 -->
<g id="edge48_Node000029_Node000009" class="edge">
<title>Node29&#45;&gt;Node9</title>
<g id="a_edge48_Node000029_Node000009"><a xlink:title=" ">
<path fill="none" stroke="#63b8ff" d="M1204.53,-285.93C1250.8,-274.65 1307.59,-259.22 1314.5,-250 1345.95,-208.04 1279.95,-158.41 1241.9,-134.61"/>
<polygon fill="#63b8ff" stroke="#63b8ff" points="1243.27,-131.35 1232.91,-129.14 1239.63,-137.33 1243.27,-131.35"/>
</a>
</g>
</g>
<!-- Node29&#45;&gt;Node10 -->
<g id="edge50_Node000029_Node000010" class="edge">
<title>Node29&#45;&gt;Node10</title>
<g id="a_edge50_Node000029_Node000010"><a xlink:title=" ">
<path fill="none" stroke="#63b8ff" d="M1068.43,-298.17C923.58,-293.94 616.55,-281.35 580.5,-250 566.46,-237.79 563.43,-215.92 563.29,-200.06"/>
<polygon fill="#63b8ff" stroke="#63b8ff" points="566.8,-199.91 563.59,-189.81 559.8,-199.7 566.8,-199.91"/>
</a>
</g>
</g>
<!-- Node29&#45;&gt;Node24 -->
<g id="edge57_Node000029_Node000024" class="edge">
<title>Node29&#45;&gt;Node24</title>
<g id="a_edge57_Node000029_Node000024"><a xlink:title=" ">
<path fill="none" stroke="#63b8ff" d="M1149.55,-285.88C1158.84,-264.22 1176.59,-222.78 1186.79,-198.99"/>
<polygon fill="#63b8ff" stroke="#63b8ff" points="1190.04,-200.28 1190.77,-189.71 1183.61,-197.52 1190.04,-200.28"/>
</a>
</g>
</g>
<!-- Node29&#45;&gt;Node27 -->
<g id="edge65_Node000029_Node000027" class="edge">
<title>Node29&#45;&gt;Node27</title>
<g id="a_edge65_Node000029_Node000027"><a xlink:title=" ">
<path fill="none" stroke="#63b8ff" d="M1068.29,-294.83C949.49,-286.5 711.2,-269.08 509.5,-250 508.04,-249.86 506.56,-249.72 505.06,-249.57"/>
<polygon fill="#63b8ff" stroke="#63b8ff" points="505.4,-246.09 495.1,-248.58 504.7,-253.05 505.4,-246.09"/>
</a>
</g>
</g>
<!-- Node29&#45;&gt;Node28 -->
<g id="edge56_Node000029_Node000028" class="edge">
<title>Node29&#45;&gt;Node28</title>
<g id="a_edge56_Node000029_Node000028"><a xlink:title=" ">
<path fill="none" stroke="#63b8ff" d="M1068.42,-297.86C933.6,-293.29 655.99,-280.44 564.5,-250 532.19,-239.25 499.61,-217.39 478.19,-201.14"/>
<polygon fill="#63b8ff" stroke="#63b8ff" points="480.32,-198.37 470.27,-195.01 476.03,-203.9 480.32,-198.37"/>
</a>
</g>
</g>
<!-- Node30 -->
<g id="Node000030" class="node">
<title>Node30</title>
<g id="a_Node000030"><a xlink:title=" ">
<polygon fill="#e0e0e0" stroke="#999999" points="1411.5,-250 1361.5,-250 1361.5,-231 1411.5,-231 1411.5,-250"/>
<text text-anchor="middle" x="1386.5" y="-238" font-family="Helvetica,sans-Serif" font-size="10.00">chrono</text>
</a>
</g>
</g>
<!-- Node29&#45;&gt;Node30 -->
<g id="edge49_Node000029_Node000030" class="edge">
<title>Node29&#45;&gt;Node30</title>
<g id="a_edge49_Node000029_Node000030"><a xlink:title=" ">
<path fill="none" stroke="#63b8ff" d="M1201.7,-285.99C1248.36,-274.76 1312.3,-259.36 1351.43,-249.94"/>
<polygon fill="#63b8ff" stroke="#63b8ff" points="1352.4,-253.31 1361.3,-247.57 1350.76,-246.5 1352.4,-253.31"/>
</a>
</g>
</g>
<!-- Node31 -->
<g id="Node000031" class="node">
<title>Node31</title>
<g id="a_Node000031"><a xlink:title=" ">
<polygon fill="#e0e0e0" stroke="#999999" points="1477,-250 1430,-250 1430,-231 1477,-231 1477,-250"/>
<text text-anchor="middle" x="1453.5" y="-238" font-family="Helvetica,sans-Serif" font-size="10.00">queue</text>
</a>
</g>
</g>
<!-- Node29&#45;&gt;Node31 -->
<g id="edge51_Node000029_Node000031" class="edge">
<title>Node29&#45;&gt;Node31</title>
<g id="a_edge51_Node000029_Node000031"><a xlink:title=" ">
<path fill="none" stroke="#63b8ff" d="M1218.74,-287.96C1272.22,-279.04 1345.93,-266.03 1419.81,-250.01"/>
<polygon fill="#63b8ff" stroke="#63b8ff" points="1420.74,-253.39 1429.76,-247.84 1419.24,-246.55 1420.74,-253.39"/>
</a>
</g>
</g>
<!-- Node32 -->
<g id="Node000032" class="node">
<title>Node32</title>
<g id="a_Node000032"><a xlink:title=" ">
<polygon fill="#e0e0e0" stroke="#999999" points="1602,-250 1495,-250 1495,-231 1602,-231 1602,-250"/>
<text text-anchor="middle" x="1548.5" y="-238" font-family="Helvetica,sans-Serif" font-size="10.00">condition_variable</text>
</a>
</g>
</g>
<!-- Node29&#45;&gt;Node32 -->
<g id="edge53_Node000029_Node000032" class="edge">
<title>Node29&#45;&gt;Node32</title>
<g id="a_edge53_Node000029_Node000032"><a xlink:title=" ">
<path fill="none" stroke="#63b8ff" d="M1218.75,-288.08C1223.4,-287.37 1228.01,-286.67 1232.5,-286 1279.76,-278.96 1406.82,-261.2 1484.67,-250.37"/>
<polygon fill="#63b8ff" stroke="#63b8ff" points="1485.42,-253.79 1494.84,-248.95 1484.46,-246.86 1485.42,-253.79"/>
</a>
</g>
</g>
<!-- Node33 -->
<g id="Node000033" class="node">
<title>Node33</title>
<g id="a_Node000033"><a xlink:title=" ">
<polygon fill="#e0e0e0" stroke="#999999" points="1670.5,-250 1620.5,-250 1620.5,-231 1670.5,-231 1670.5,-250"/>
<text text-anchor="middle" x="1645.5" y="-238" font-family="Helvetica,sans-Serif" font-size="10.00">atomic</text>
</a>
</g>
</g>
<!-- Node29&#45;&gt;Node33 -->
<g id="edge54_Node000029_Node000033" class="edge">
<title>Node29&#45;&gt;Node33</title>
<g id="a_edge54_Node000029_Node000033"><a xlink:title=" ">
<path fill="none" stroke="#63b8ff" d="M1218.72,-287.84C1223.38,-287.19 1228,-286.57 1232.5,-286 1397.18,-265.25 1443,-278.09 1610.45,-249.93"/>
<polygon fill="#63b8ff" stroke="#63b8ff" points="1611.07,-253.37 1620.34,-248.24 1609.89,-246.47 1611.07,-253.37"/>
</a>
</g>
</g>
<!-- Node29&#45;&gt;Node34 -->
<g id="edge55_Node000029_Node000034" class="edge">
<title>Node29&#45;&gt;Node34</title>
<g id="a_edge55_Node000029_Node000034"><a xlink:title=" ">
<path fill="none" stroke="#63b8ff" d="M1218.71,-287.76C1223.37,-287.13 1228,-286.53 1232.5,-286 1427.13,-262.89 1481.15,-282.31 1678.34,-249.89"/>
<polygon fill="#63b8ff" stroke="#63b8ff" points="1679.16,-253.3 1688.45,-248.2 1678.01,-246.4 1679.16,-253.3"/>
</a>
</g>
</g>
<!-- Node35 -->
<g id="Node000035" class="node">
<title>Node35</title>
<g id="a_Node000035"><a xlink:href="GameWorld_8hpp.html" target="_top" xlink:title=" ">
<polygon fill="white" stroke="#666666" points="1305,-250 1210,-250 1210,-231 1305,-231 1305,-250"/>
<text text-anchor="middle" x="1257.5" y="-238" font-family="Helvetica,sans-Serif" font-size="10.00">GameWorld.hpp</text>
</a>
</g>
</g>
<!-- Node29&#45;&gt;Node35 -->
<g id="edge58_Node000029_Node000035" class="edge">
<title>Node29&#45;&gt;Node35</title>
<g id="a_edge58_Node000029_Node000035"><a xlink:title=" ">
<path fill="none" stroke="#63b8ff" d="M1170.81,-285.99C1189.15,-276.58 1213.18,-264.24 1231.29,-254.95"/>
<polygon fill="#63b8ff" stroke="#63b8ff" points="1233.37,-257.82 1240.66,-250.14 1230.17,-251.59 1233.37,-257.82"/>
</a>
</g>
</g>
<!-- Node35&#45;&gt;Node3 -->
<g id="edge60_Node000035_Node000003" class="edge">
<title>Node35&#45;&gt;Node3</title>
<g id="a_edge60_Node000035_Node000003"><a xlink:title=" ">
<path fill="none" stroke="#63b8ff" d="M1298.12,-230.99C1317.82,-224.59 1339.72,-213.61 1351.5,-195 1374.36,-158.88 1341.93,-133.91 1306.5,-110 1220.69,-52.08 1099.5,-26.56 1033.96,-16.42"/>
<polygon fill="#63b8ff" stroke="#63b8ff" points="1034.34,-12.93 1023.93,-14.92 1033.3,-19.86 1034.34,-12.93"/>
</a>
</g>
</g>
<!-- Node35&#45;&gt;Node4 -->
<g id="edge61_Node000035_Node000004" class="edge">
<title>Node35&#45;&gt;Node4</title>
<g id="a_edge61_Node000035_Node000004"><a xlink:title=" ">
<path fill="none" stroke="#63b8ff" d="M1218.09,-230.99C1169.93,-220.6 1088.38,-202.99 1036.02,-191.69"/>
<polygon fill="#63b8ff" stroke="#63b8ff" points="1036.47,-188.21 1025.95,-189.52 1034.99,-195.05 1036.47,-188.21"/>
</a>
</g>
</g>
<!-- Node35&#45;&gt;Node8 -->
<g id="edge63_Node000035_Node000008" class="edge">
<title>Node35&#45;&gt;Node8</title>
<g id="a_edge63_Node000035_Node000008"><a xlink:title=" ">
<path fill="none" stroke="#63b8ff" d="M1260.42,-230.73C1267.6,-207.38 1283.2,-143.21 1250.5,-110 1177.29,-35.67 841.23,-16.14 730.79,-11.68"/>
<polygon fill="#63b8ff" stroke="#63b8ff" points="730.65,-8.17 720.52,-11.29 730.38,-15.17 730.65,-8.17"/>
</a>
</g>
</g>
<!-- Node35&#45;&gt;Node9 -->
<g id="edge62_Node000035_Node000009" class="edge">
<title>Node35&#45;&gt;Node9</title>
<g id="a_edge62_Node000035_Node000009"><a xlink:title=" ">
<path fill="none" stroke="#63b8ff" d="M1256.66,-231C1255.09,-216.91 1251.04,-188.01 1242.5,-165 1239.04,-155.67 1233.8,-145.96 1229.01,-138"/>
<polygon fill="#63b8ff" stroke="#63b8ff" points="1231.83,-135.9 1223.54,-129.3 1225.9,-139.63 1231.83,-135.9"/>
</a>
</g>
</g>
<!-- Node35&#45;&gt;Node24 -->
<g id="edge59_Node000035_Node000024" class="edge">
<title>Node35&#45;&gt;Node24</title>
<g id="a_edge59_Node000035_Node000024"><a xlink:title=" ">
<path fill="none" stroke="#63b8ff" d="M1248.2,-230.87C1238.53,-221.88 1223.16,-207.61 1211.34,-196.64"/>
<polygon fill="#63b8ff" stroke="#63b8ff" points="1213.54,-193.91 1203.83,-189.67 1208.78,-199.04 1213.54,-193.91"/>
</a>
</g>
</g>
</g>
</svg>
