<?xml version="1.0" encoding="UTF-8" standalone="no"?>
<!DOCTYPE svg PUBLIC "-//W3C//DTD SVG 1.1//EN"
 "http://www.w3.org/Graphics/SVG/1.1/DTD/svg11.dtd">
<!-- Generated by graphviz version 2.43.0 (0)
 -->
<!-- Title: graphical&#45;client/ecs/System.hpp Pages: 1 -->
<svg width="1479pt" height="335pt"
 viewBox="0.00 0.00 1479.00 335.00" xmlns="http://www.w3.org/2000/svg" xmlns:xlink="http://www.w3.org/1999/xlink">
<g id="graph0" class="graph" transform="scale(1 1) rotate(0) translate(4 331)">
<title>graphical&#45;client/ecs/System.hpp</title>
<!-- Node1 -->
<g id="Node000001" class="node">
<title>Node1</title>
<g id="a_Node000001"><a xlink:title=" ">
<polygon fill="#999999" stroke="#666666" points="1159,-327 1047,-327 1047,-297 1159,-297 1159,-327"/>
<text text-anchor="start" x="1055" y="-315" font-family="Helvetica,sans-Serif" font-size="10.00">graphical&#45;client/ecs</text>
<text text-anchor="middle" x="1103" y="-304" font-family="Helvetica,sans-Serif" font-size="10.00">/System.hpp</text>
</a>
</g>
</g>
<!-- Node2 -->
<g id="Node000002" class="node">
<title>Node2</title>
<g id="a_Node000002"><a xlink:href="NetworkClient_8hpp.html" target="_top" xlink:title=" ">
<polygon fill="white" stroke="#666666" points="737,-261 627,-261 627,-231 737,-231 737,-261"/>
<text text-anchor="start" x="635" y="-249" font-family="Helvetica,sans-Serif" font-size="10.00">../../Network/Client</text>
<text text-anchor="middle" x="682" y="-238" font-family="Helvetica,sans-Serif" font-size="10.00">/NetworkClient.hpp</text>
</a>
</g>
</g>
<!-- Node1&#45;&gt;Node2 -->
<g id="edge1_Node000001_Node000002" class="edge">
<title>Node1&#45;&gt;Node2</title>
<g id="a_edge1_Node000001_Node000002"><a xlink:title=" ">
<path fill="none" stroke="#63b8ff" d="M1046.66,-302.44C968.9,-290.61 829.03,-269.35 746.96,-256.88"/>
<polygon fill="#63b8ff" stroke="#63b8ff" points="747.42,-253.4 737.01,-255.36 746.37,-260.33 747.42,-253.4"/>
</a>
</g>
</g>
<!-- Node20 -->
<g id="Node000020" class="node">
<title>Node20</title>
<g id="a_Node000020"><a xlink:title=" ">
<polygon fill="#e0e0e0" stroke="#999999" points="915.5,-129 822.5,-129 822.5,-110 915.5,-110 915.5,-129"/>
<text text-anchor="middle" x="869" y="-117" font-family="Helvetica,sans-Serif" font-size="10.00">unordered_map</text>
</a>
</g>
</g>
<!-- Node1&#45;&gt;Node20 -->
<g id="edge44_Node000001_Node000020" class="edge">
<title>Node1&#45;&gt;Node20</title>
<g id="a_edge44_Node000001_Node000020"><a xlink:title=" ">
<path fill="none" stroke="#63b8ff" d="M1082.51,-296.93C1068.41,-287.1 1049.34,-273.56 1033,-261 977.25,-218.18 915.19,-162.72 885.97,-136.1"/>
<polygon fill="#63b8ff" stroke="#63b8ff" points="888.06,-133.26 878.32,-129.1 883.33,-138.43 888.06,-133.26"/>
</a>
</g>
</g>
<!-- Node21 -->
<g id="Node000021" class="node">
<title>Node21</title>
<g id="a_Node000021"><a xlink:href="Raylib_8hpp.html" target="_top" xlink:title=" ">
<polygon fill="white" stroke="#666666" points="1343.5,-129 1232.5,-129 1232.5,-110 1343.5,-110 1343.5,-129"/>
<text text-anchor="middle" x="1288" y="-117" font-family="Helvetica,sans-Serif" font-size="10.00">../Raylib/Raylib.hpp</text>
</a>
</g>
</g>
<!-- Node1&#45;&gt;Node21 -->
<g id="edge26_Node000001_Node000021" class="edge">
<title>Node1&#45;&gt;Node21</title>
<g id="a_edge26_Node000001_Node000021"><a xlink:title=" ">
<path fill="none" stroke="#63b8ff" d="M1150.01,-296.98C1195.39,-280.64 1261.44,-248.77 1291,-195 1300.42,-177.86 1297.68,-154.99 1293.84,-139.13"/>
<polygon fill="#63b8ff" stroke="#63b8ff" points="1297.2,-138.13 1291.15,-129.43 1290.45,-140 1297.2,-138.13"/>
</a>
</g>
</g>
<!-- Node23 -->
<g id="Node000023" class="node">
<title>Node23</title>
<g id="a_Node000023"><a xlink:href="Components_8hpp.html" target="_top" xlink:title=" ">
<polygon fill="white" stroke="#666666" points="1177.5,-255.5 1078.5,-255.5 1078.5,-236.5 1177.5,-236.5 1177.5,-255.5"/>
<text text-anchor="middle" x="1128" y="-243.5" font-family="Helvetica,sans-Serif" font-size="10.00">Components.hpp</text>
</a>
</g>
</g>
<!-- Node1&#45;&gt;Node23 -->
<g id="edge29_Node000001_Node000023" class="edge">
<title>Node1&#45;&gt;Node23</title>
<g id="a_edge29_Node000001_Node000023"><a xlink:title=" ">
<path fill="none" stroke="#63b8ff" d="M1108.55,-296.8C1112.18,-287.5 1116.96,-275.27 1120.87,-265.26"/>
<polygon fill="#63b8ff" stroke="#63b8ff" points="1124.17,-266.43 1124.55,-255.84 1117.65,-263.89 1124.17,-266.43"/>
</a>
</g>
</g>
<!-- Node26 -->
<g id="Node000026" class="node">
<title>Node26</title>
<g id="a_Node000026"><a xlink:href="Core_8hpp.html" target="_top" xlink:title=" ">
<polygon fill="white" stroke="#666666" points="1022,-189.5 962,-189.5 962,-170.5 1022,-170.5 1022,-189.5"/>
<text text-anchor="middle" x="992" y="-177.5" font-family="Helvetica,sans-Serif" font-size="10.00">Core.hpp</text>
</a>
</g>
</g>
<!-- Node1&#45;&gt;Node26 -->
<g id="edge37_Node000001_Node000026" class="edge">
<title>Node1&#45;&gt;Node26</title>
<g id="a_edge37_Node000001_Node000026"><a xlink:title=" ">
<path fill="none" stroke="#63b8ff" d="M1090.91,-296.84C1070.21,-272.6 1028.1,-223.28 1006.1,-197.51"/>
<polygon fill="#63b8ff" stroke="#63b8ff" points="1008.62,-195.08 999.47,-189.75 1003.3,-199.63 1008.62,-195.08"/>
</a>
</g>
</g>
<!-- Node29 -->
<g id="Node000029" class="node">
<title>Node29</title>
<g id="a_Node000029"><a xlink:title=" ">
<polygon fill="#e0e0e0" stroke="#999999" points="1471,-255.5 1407,-255.5 1407,-236.5 1471,-236.5 1471,-255.5"/>
<text text-anchor="middle" x="1439" y="-243.5" font-family="Helvetica,sans-Serif" font-size="10.00">algorithm</text>
</a>
</g>
</g>
<!-- Node1&#45;&gt;Node29 -->
<g id="edge43_Node000001_Node000029" class="edge">
<title>Node1&#45;&gt;Node29</title>
<g id="a_edge43_Node000001_Node000029"><a xlink:title=" ">
<path fill="none" stroke="#63b8ff" d="M1159.01,-303.46C1217.73,-295.06 1312.47,-280.12 1393,-261 1396.35,-260.2 1399.82,-259.3 1403.27,-258.35"/>
<polygon fill="#63b8ff" stroke="#63b8ff" points="1404.25,-261.71 1412.88,-255.57 1402.3,-254.98 1404.25,-261.71"/>
</a>
</g>
</g>
<!-- Node3 -->
<g id="Node000003" class="node">
<title>Node3</title>
<g id="a_Node000003"><a xlink:title=" ">
<polygon fill="#e0e0e0" stroke="#999999" points="730,-19 680,-19 680,0 730,0 730,-19"/>
<text text-anchor="middle" x="705" y="-7" font-family="Helvetica,sans-Serif" font-size="10.00">cstdint</text>
</a>
</g>
</g>
<!-- Node2&#45;&gt;Node3 -->
<g id="edge2_Node000002_Node000003" class="edge">
<title>Node2&#45;&gt;Node3</title>
<g id="a_edge2_Node000002_Node000003"><a xlink:title=" ">
<path fill="none" stroke="#63b8ff" d="M705.06,-230.92C717,-222.21 730.42,-209.87 737,-195 762.39,-137.61 731.3,-61.87 714.46,-28.08"/>
<polygon fill="#63b8ff" stroke="#63b8ff" points="717.48,-26.29 709.78,-19.01 711.26,-29.5 717.48,-26.29"/>
</a>
</g>
</g>
<!-- Node4 -->
<g id="Node000004" class="node">
<title>Node4</title>
<g id="a_Node000004"><a xlink:title=" ">
<polygon fill="#e0e0e0" stroke="#999999" points="1169,-74 1125,-74 1125,-55 1169,-55 1169,-74"/>
<text text-anchor="middle" x="1147" y="-62" font-family="Helvetica,sans-Serif" font-size="10.00">string</text>
</a>
</g>
</g>
<!-- Node2&#45;&gt;Node4 -->
<g id="edge3_Node000002_Node000004" class="edge">
<title>Node2&#45;&gt;Node4</title>
<g id="a_edge3_Node000002_Node000004"><a xlink:title=" ">
<path fill="none" stroke="#63b8ff" d="M716.88,-230.94C734.46,-222.53 755.14,-210.45 770,-195 799.49,-164.34 779.21,-134.47 814,-110 862.09,-76.18 1040.92,-68.03 1114.78,-66.09"/>
<polygon fill="#63b8ff" stroke="#63b8ff" points="1114.97,-69.59 1124.89,-65.85 1114.8,-62.59 1114.97,-69.59"/>
</a>
</g>
</g>
<!-- Node5 -->
<g id="Node000005" class="node">
<title>Node5</title>
<g id="a_Node000005"><a xlink:title=" ">
<polygon fill="#e0e0e0" stroke="#999999" points="74,-19 0,-19 0,0 74,0 74,-19"/>
<text text-anchor="middle" x="37" y="-7" font-family="Helvetica,sans-Serif" font-size="10.00">sys/select.h</text>
</a>
</g>
</g>
<!-- Node2&#45;&gt;Node5 -->
<g id="edge4_Node000002_Node000005" class="edge">
<title>Node2&#45;&gt;Node5</title>
<g id="a_edge4_Node000002_Node000005"><a xlink:title=" ">
<path fill="none" stroke="#63b8ff" d="M626.96,-245.08C553.51,-243.52 420.44,-234.77 315,-195 205.48,-153.69 95.64,-62.64 54.23,-26.11"/>
<polygon fill="#63b8ff" stroke="#63b8ff" points="56.46,-23.41 46.67,-19.37 51.8,-28.64 56.46,-23.41"/>
</a>
</g>
</g>
<!-- Node6 -->
<g id="Node000006" class="node">
<title>Node6</title>
<g id="a_Node000006"><a xlink:href="Packet_8hpp.html" target="_top" xlink:title=" ">
<polygon fill="white" stroke="#666666" points="617.5,-189.5 464.5,-189.5 464.5,-170.5 617.5,-170.5 617.5,-189.5"/>
<text text-anchor="middle" x="541" y="-177.5" font-family="Helvetica,sans-Serif" font-size="10.00">../TransportLayer/Packet.hpp</text>
</a>
</g>
</g>
<!-- Node2&#45;&gt;Node6 -->
<g id="edge5_Node000002_Node000006" class="edge">
<title>Node2&#45;&gt;Node6</title>
<g id="a_edge5_Node000002_Node000006"><a xlink:title=" ">
<path fill="none" stroke="#63b8ff" d="M651.06,-230.95C626.55,-219.83 592.61,-204.42 568.92,-193.67"/>
<polygon fill="#63b8ff" stroke="#63b8ff" points="570.32,-190.46 559.76,-189.52 567.42,-196.84 570.32,-190.46"/>
</a>
</g>
</g>
<!-- Node9 -->
<g id="Node000009" class="node">
<title>Node9</title>
<g id="a_Node000009"><a xlink:href="UDPSocket_8hpp.html" target="_top" xlink:title=" ">
<polygon fill="white" stroke="#666666" points="446,-195 324,-195 324,-165 446,-165 446,-195"/>
<text text-anchor="start" x="332" y="-183" font-family="Helvetica,sans-Serif" font-size="10.00">../TransportLayer/UDP</text>
<text text-anchor="middle" x="385" y="-172" font-family="Helvetica,sans-Serif" font-size="10.00">/UDPSocket.hpp</text>
</a>
</g>
</g>
<!-- Node2&#45;&gt;Node9 -->
<g id="edge9_Node000002_Node000009" class="edge">
<title>Node2&#45;&gt;Node9</title>
<g id="a_edge9_Node000002_Node000009"><a xlink:title=" ">
<path fill="none" stroke="#63b8ff" d="M626.83,-233.11C578.61,-222.72 508.3,-207.57 455.91,-196.28"/>
<polygon fill="#63b8ff" stroke="#63b8ff" points="456.53,-192.83 446.01,-194.15 455.05,-199.68 456.53,-192.83"/>
</a>
</g>
</g>
<!-- Node19 -->
<g id="Node000019" class="node">
<title>Node19</title>
<g id="a_Node000019"><a xlink:href="GameState_8hpp.html" target="_top" xlink:title=" ">
<polygon fill="white" stroke="#666666" points="728,-189.5 636,-189.5 636,-170.5 728,-170.5 728,-189.5"/>
<text text-anchor="middle" x="682" y="-177.5" font-family="Helvetica,sans-Serif" font-size="10.00">GameState.hpp</text>
</a>
</g>
</g>
<!-- Node2&#45;&gt;Node19 -->
<g id="edge22_Node000002_Node000019" class="edge">
<title>Node2&#45;&gt;Node19</title>
<g id="a_edge22_Node000002_Node000019"><a xlink:title=" ">
<path fill="none" stroke="#63b8ff" d="M682,-230.8C682,-221.7 682,-209.79 682,-199.9"/>
<polygon fill="#63b8ff" stroke="#63b8ff" points="685.5,-199.84 682,-189.84 678.5,-199.84 685.5,-199.84"/>
</a>
</g>
</g>
<!-- Node6&#45;&gt;Node3 -->
<g id="edge6_Node000006_Node000003" class="edge">
<title>Node6&#45;&gt;Node3</title>
<g id="a_edge6_Node000006_Node000003"><a xlink:title=" ">
<path fill="none" stroke="#63b8ff" d="M549.36,-170.41C575.34,-143.71 655.01,-61.86 689.17,-26.76"/>
<polygon fill="#63b8ff" stroke="#63b8ff" points="692,-28.88 696.46,-19.27 686.98,-24 692,-28.88"/>
</a>
</g>
</g>
<!-- Node7 -->
<g id="Node000007" class="node">
<title>Node7</title>
<g id="a_Node000007"><a xlink:title=" ">
<polygon fill="#e0e0e0" stroke="#999999" points="572.5,-129 507.5,-129 507.5,-110 572.5,-110 572.5,-129"/>
<text text-anchor="middle" x="540" y="-117" font-family="Helvetica,sans-Serif" font-size="10.00">stdexcept</text>
</a>
</g>
</g>
<!-- Node6&#45;&gt;Node7 -->
<g id="edge7_Node000006_Node000007" class="edge">
<title>Node6&#45;&gt;Node7</title>
<g id="a_edge7_Node000006_Node000007"><a xlink:title=" ">
<path fill="none" stroke="#63b8ff" d="M540.85,-170.37C540.71,-162.25 540.5,-149.81 540.32,-139.39"/>
<polygon fill="#63b8ff" stroke="#63b8ff" points="543.82,-139.11 540.15,-129.17 536.82,-139.23 543.82,-139.11"/>
</a>
</g>
</g>
<!-- Node8 -->
<g id="Node000008" class="node">
<title>Node8</title>
<g id="a_Node000008"><a xlink:title=" ">
<polygon fill="#e0e0e0" stroke="#999999" points="676.5,-129 629.5,-129 629.5,-110 676.5,-110 676.5,-129"/>
<text text-anchor="middle" x="653" y="-117" font-family="Helvetica,sans-Serif" font-size="10.00">vector</text>
</a>
</g>
</g>
<!-- Node6&#45;&gt;Node8 -->
<g id="edge8_Node000006_Node000008" class="edge">
<title>Node6&#45;&gt;Node8</title>
<g id="a_edge8_Node000006_Node000008"><a xlink:title=" ">
<path fill="none" stroke="#63b8ff" d="M557.53,-170.37C575.97,-160.73 606.04,-145.03 627.51,-133.81"/>
<polygon fill="#63b8ff" stroke="#63b8ff" points="629.16,-136.9 636.41,-129.17 625.92,-130.69 629.16,-136.9"/>
</a>
</g>
</g>
<!-- Node9&#45;&gt;Node3 -->
<g id="edge21_Node000009_Node000003" class="edge">
<title>Node9&#45;&gt;Node3</title>
<g id="a_edge21_Node000009_Node000003"><a xlink:title=" ">
<path fill="none" stroke="#63b8ff" d="M406.92,-164.88C429.61,-150.47 466.26,-127.76 499,-110 561.08,-76.32 636.32,-41.41 676.48,-23.24"/>
<polygon fill="#63b8ff" stroke="#63b8ff" points="677.99,-26.4 685.67,-19.1 675.11,-20.02 677.99,-26.4"/>
</a>
</g>
</g>
<!-- Node10 -->
<g id="Node000010" class="node">
<title>Node10</title>
<g id="a_Node000010"><a xlink:href="ASocket_8hpp.html" target="_top" xlink:title=" ">
<polygon fill="white" stroke="#666666" points="428,-129 342,-129 342,-110 428,-110 428,-129"/>
<text text-anchor="middle" x="385" y="-117" font-family="Helvetica,sans-Serif" font-size="10.00">../ASocket.hpp</text>
</a>
</g>
</g>
<!-- Node9&#45;&gt;Node10 -->
<g id="edge10_Node000009_Node000010" class="edge">
<title>Node9&#45;&gt;Node10</title>
<g id="a_edge10_Node000009_Node000010"><a xlink:title=" ">
<path fill="none" stroke="#63b8ff" d="M385,-164.84C385,-157.21 385,-147.7 385,-139.45"/>
<polygon fill="#63b8ff" stroke="#63b8ff" points="388.5,-139.27 385,-129.27 381.5,-139.27 388.5,-139.27"/>
</a>
</g>
</g>
<!-- Node11 -->
<g id="Node000011" class="node">
<title>Node11</title>
<g id="a_Node000011"><a xlink:href="ISocket_8hpp.html" target="_top" xlink:title=" ">
<polygon fill="white" stroke="#666666" points="422.5,-74 349.5,-74 349.5,-55 422.5,-55 422.5,-74"/>
<text text-anchor="middle" x="386" y="-62" font-family="Helvetica,sans-Serif" font-size="10.00">ISocket.hpp</text>
</a>
</g>
</g>
<!-- Node10&#45;&gt;Node11 -->
<g id="edge11_Node000010_Node000011" class="edge">
<title>Node10&#45;&gt;Node11</title>
<g id="a_edge11_Node000010_Node000011"><a xlink:title=" ">
<path fill="none" stroke="#63b8ff" d="M385.17,-109.75C385.3,-102.8 385.48,-92.85 385.65,-84.13"/>
<polygon fill="#63b8ff" stroke="#63b8ff" points="389.15,-84.15 385.84,-74.09 382.15,-84.02 389.15,-84.15"/>
</a>
</g>
</g>
<!-- Node11&#45;&gt;Node3 -->
<g id="edge13_Node000011_Node000003" class="edge">
<title>Node11&#45;&gt;Node3</title>
<g id="a_edge13_Node000011_Node000003"><a xlink:title=" ">
<path fill="none" stroke="#63b8ff" d="M422.63,-58.86C475.2,-51.96 575.27,-37.95 669.79,-19.09"/>
<polygon fill="#63b8ff" stroke="#63b8ff" points="670.7,-22.48 679.81,-17.07 669.31,-15.61 670.7,-22.48"/>
</a>
</g>
</g>
<!-- Node11&#45;&gt;Node5 -->
<g id="edge17_Node000011_Node000005" class="edge">
<title>Node11&#45;&gt;Node5</title>
<g id="a_edge17_Node000011_Node000005"><a xlink:title=" ">
<path fill="none" stroke="#63b8ff" d="M349.08,-58.53C293.8,-50.98 185.97,-35.88 84.27,-19.16"/>
<polygon fill="#63b8ff" stroke="#63b8ff" points="84.57,-15.66 74.14,-17.48 83.43,-22.57 84.57,-15.66"/>
</a>
</g>
</g>
<!-- Node12 -->
<g id="Node000012" class="node">
<title>Node12</title>
<g id="a_Node000012"><a xlink:title=" ">
<polygon fill="#e0e0e0" stroke="#999999" points="502.5,-19 433.5,-19 433.5,0 502.5,0 502.5,-19"/>
<text text-anchor="middle" x="468" y="-7" font-family="Helvetica,sans-Serif" font-size="10.00">arpa/inet.h</text>
</a>
</g>
</g>
<!-- Node11&#45;&gt;Node12 -->
<g id="edge12_Node000011_Node000012" class="edge">
<title>Node11&#45;&gt;Node12</title>
<g id="a_edge12_Node000011_Node000012"><a xlink:title=" ">
<path fill="none" stroke="#63b8ff" d="M399.17,-54.98C411.77,-46.84 431,-34.41 445.94,-24.76"/>
<polygon fill="#63b8ff" stroke="#63b8ff" points="448.09,-27.54 454.59,-19.17 444.29,-21.66 448.09,-27.54"/>
</a>
</g>
</g>
<!-- Node13 -->
<g id="Node000013" class="node">
<title>Node13</title>
<g id="a_Node000013"><a xlink:title=" ">
<polygon fill="#e0e0e0" stroke="#999999" points="571.5,-19 520.5,-19 520.5,0 571.5,0 571.5,-19"/>
<text text-anchor="middle" x="546" y="-7" font-family="Helvetica,sans-Serif" font-size="10.00">errno.h</text>
</a>
</g>
</g>
<!-- Node11&#45;&gt;Node13 -->
<g id="edge14_Node000011_Node000013" class="edge">
<title>Node11&#45;&gt;Node13</title>
<g id="a_edge14_Node000011_Node000013"><a xlink:title=" ">
<path fill="none" stroke="#63b8ff" d="M411.71,-54.98C438.53,-46.1 480.78,-32.1 510.72,-22.19"/>
<polygon fill="#63b8ff" stroke="#63b8ff" points="511.96,-25.46 520.36,-18.99 509.76,-18.82 511.96,-25.46"/>
</a>
</g>
</g>
<!-- Node14 -->
<g id="Node000014" class="node">
<title>Node14</title>
<g id="a_Node000014"><a xlink:title=" ">
<polygon fill="#e0e0e0" stroke="#999999" points="662,-19 590,-19 590,0 662,0 662,-19"/>
<text text-anchor="middle" x="626" y="-7" font-family="Helvetica,sans-Serif" font-size="10.00">netinet/in.h</text>
</a>
</g>
</g>
<!-- Node11&#45;&gt;Node14 -->
<g id="edge15_Node000011_Node000014" class="edge">
<title>Node11&#45;&gt;Node14</title>
<g id="a_edge15_Node000011_Node000014"><a xlink:title=" ">
<path fill="none" stroke="#63b8ff" d="M422.71,-55.39C464.83,-46.09 533.96,-30.83 579.72,-20.72"/>
<polygon fill="#63b8ff" stroke="#63b8ff" points="580.68,-24.09 589.69,-18.52 579.17,-17.26 580.68,-24.09"/>
</a>
</g>
</g>
<!-- Node15 -->
<g id="Node000015" class="node">
<title>Node15</title>
<g id="a_Node000015"><a xlink:title=" ">
<polygon fill="#e0e0e0" stroke="#999999" points="170,-19 92,-19 92,0 170,0 170,-19"/>
<text text-anchor="middle" x="131" y="-7" font-family="Helvetica,sans-Serif" font-size="10.00">netinet/tcp.h</text>
</a>
</g>
</g>
<!-- Node11&#45;&gt;Node15 -->
<g id="edge16_Node000011_Node000015" class="edge">
<title>Node11&#45;&gt;Node15</title>
<g id="a_edge16_Node000011_Node000015"><a xlink:title=" ">
<path fill="none" stroke="#63b8ff" d="M349.46,-55.91C305.02,-46.67 229.79,-31.03 180.25,-20.74"/>
<polygon fill="#63b8ff" stroke="#63b8ff" points="180.9,-17.3 170.4,-18.69 179.48,-24.15 180.9,-17.3"/>
</a>
</g>
</g>
<!-- Node16 -->
<g id="Node000016" class="node">
<title>Node16</title>
<g id="a_Node000016"><a xlink:title=" ">
<polygon fill="#e0e0e0" stroke="#999999" points="265.5,-19 188.5,-19 188.5,0 265.5,0 265.5,-19"/>
<text text-anchor="middle" x="227" y="-7" font-family="Helvetica,sans-Serif" font-size="10.00">sys/socket.h</text>
</a>
</g>
</g>
<!-- Node11&#45;&gt;Node16 -->
<g id="edge18_Node000011_Node000016" class="edge">
<title>Node11&#45;&gt;Node16</title>
<g id="a_edge18_Node000011_Node000016"><a xlink:title=" ">
<path fill="none" stroke="#63b8ff" d="M360.45,-54.98C333.88,-46.13 292.06,-32.19 262.33,-22.28"/>
<polygon fill="#63b8ff" stroke="#63b8ff" points="263.34,-18.92 252.75,-19.08 261.13,-25.56 263.34,-18.92"/>
</a>
</g>
</g>
<!-- Node17 -->
<g id="Node000017" class="node">
<title>Node17</title>
<g id="a_Node000017"><a xlink:title=" ">
<polygon fill="#e0e0e0" stroke="#999999" points="340.5,-19 283.5,-19 283.5,0 340.5,0 340.5,-19"/>
<text text-anchor="middle" x="312" y="-7" font-family="Helvetica,sans-Serif" font-size="10.00">sys/un.h</text>
</a>
</g>
</g>
<!-- Node11&#45;&gt;Node17 -->
<g id="edge19_Node000011_Node000017" class="edge">
<title>Node11&#45;&gt;Node17</title>
<g id="a_edge19_Node000011_Node000017"><a xlink:title=" ">
<path fill="none" stroke="#63b8ff" d="M374.11,-54.98C362.85,-46.92 345.71,-34.65 332.29,-25.03"/>
<polygon fill="#63b8ff" stroke="#63b8ff" points="334.27,-22.15 324.11,-19.17 330.2,-27.84 334.27,-22.15"/>
</a>
</g>
</g>
<!-- Node18 -->
<g id="Node000018" class="node">
<title>Node18</title>
<g id="a_Node000018"><a xlink:title=" ">
<polygon fill="#e0e0e0" stroke="#999999" points="415,-19 359,-19 359,0 415,0 415,-19"/>
<text text-anchor="middle" x="387" y="-7" font-family="Helvetica,sans-Serif" font-size="10.00">unistd.h</text>
</a>
</g>
</g>
<!-- Node11&#45;&gt;Node18 -->
<g id="edge20_Node000011_Node000018" class="edge">
<title>Node11&#45;&gt;Node18</title>
<g id="a_edge20_Node000011_Node000018"><a xlink:title=" ">
<path fill="none" stroke="#63b8ff" d="M386.17,-54.75C386.3,-47.8 386.48,-37.85 386.65,-29.13"/>
<polygon fill="#63b8ff" stroke="#63b8ff" points="390.15,-29.15 386.84,-19.09 383.15,-29.02 390.15,-29.15"/>
</a>
</g>
</g>
<!-- Node19&#45;&gt;Node3 -->
<g id="edge25_Node000019_Node000003" class="edge">
<title>Node19&#45;&gt;Node3</title>
<g id="a_edge25_Node000019_Node000003"><a xlink:title=" ">
<path fill="none" stroke="#63b8ff" d="M683.17,-170.41C686.72,-144.39 697.43,-65.97 702.4,-29.51"/>
<polygon fill="#63b8ff" stroke="#63b8ff" points="705.92,-29.65 703.8,-19.27 698.98,-28.71 705.92,-29.65"/>
</a>
</g>
</g>
<!-- Node19&#45;&gt;Node8 -->
<g id="edge24_Node000019_Node000008" class="edge">
<title>Node19&#45;&gt;Node8</title>
<g id="a_edge24_Node000019_Node000008"><a xlink:title=" ">
<path fill="none" stroke="#63b8ff" d="M677.72,-170.37C673.57,-161.99 667.13,-149.01 661.87,-138.39"/>
<polygon fill="#63b8ff" stroke="#63b8ff" points="664.87,-136.57 657.3,-129.17 658.6,-139.68 664.87,-136.57"/>
</a>
</g>
</g>
<!-- Node19&#45;&gt;Node20 -->
<g id="edge23_Node000019_Node000020" class="edge">
<title>Node19&#45;&gt;Node20</title>
<g id="a_edge23_Node000019_Node000020"><a xlink:title=" ">
<path fill="none" stroke="#63b8ff" d="M709.19,-170.49C741.6,-160.36 795.9,-143.37 832.08,-132.05"/>
<polygon fill="#63b8ff" stroke="#63b8ff" points="833.28,-135.34 841.78,-129.02 831.19,-128.66 833.28,-135.34"/>
</a>
</g>
</g>
<!-- Node21&#45;&gt;Node4 -->
<g id="edge28_Node000021_Node000004" class="edge">
<title>Node21&#45;&gt;Node4</title>
<g id="a_edge28_Node000021_Node000004"><a xlink:title=" ">
<path fill="none" stroke="#63b8ff" d="M1265.35,-109.98C1241.88,-101.16 1205.01,-87.31 1178.67,-77.4"/>
<polygon fill="#63b8ff" stroke="#63b8ff" points="1179.73,-74.06 1169.13,-73.82 1177.26,-80.61 1179.73,-74.06"/>
</a>
</g>
</g>
<!-- Node22 -->
<g id="Node000022" class="node">
<title>Node22</title>
<g id="a_Node000022"><a xlink:title=" ">
<polygon fill="#e0e0e0" stroke="#999999" points="1356.5,-74 1303.5,-74 1303.5,-55 1356.5,-55 1356.5,-74"/>
<text text-anchor="middle" x="1330" y="-62" font-family="Helvetica,sans-Serif" font-size="10.00">raylib.h</text>
</a>
</g>
</g>
<!-- Node21&#45;&gt;Node22 -->
<g id="edge27_Node000021_Node000022" class="edge">
<title>Node21&#45;&gt;Node22</title>
<g id="a_edge27_Node000021_Node000022"><a xlink:title=" ">
<path fill="none" stroke="#63b8ff" d="M1294.94,-109.75C1300.87,-102.26 1309.57,-91.28 1316.82,-82.13"/>
<polygon fill="#63b8ff" stroke="#63b8ff" points="1319.73,-84.1 1323.19,-74.09 1314.24,-79.75 1319.73,-84.1"/>
</a>
</g>
</g>
<!-- Node23&#45;&gt;Node4 -->
<g id="edge36_Node000023_Node000004" class="edge">
<title>Node23&#45;&gt;Node4</title>
<g id="a_edge36_Node000023_Node000004"><a xlink:title=" ">
<path fill="none" stroke="#63b8ff" d="M1124.04,-236.48C1114.49,-214.71 1092.21,-155.52 1109,-110 1113.06,-98.99 1121.19,-88.86 1128.9,-81.05"/>
<polygon fill="#63b8ff" stroke="#63b8ff" points="1131.42,-83.48 1136.29,-74.07 1126.61,-78.39 1131.42,-83.48"/>
</a>
</g>
</g>
<!-- Node23&#45;&gt;Node22 -->
<g id="edge34_Node000023_Node000022" class="edge">
<title>Node23&#45;&gt;Node22</title>
<g id="a_edge34_Node000023_Node000022"><a xlink:title=" ">
<path fill="none" stroke="#63b8ff" d="M1177.5,-236.77C1211.35,-229.53 1256.2,-216.68 1291,-195 1325.16,-173.72 1338.18,-166.42 1353,-129 1359.18,-113.39 1351.25,-95.37 1343.06,-82.52"/>
<polygon fill="#63b8ff" stroke="#63b8ff" points="1345.84,-80.39 1337.24,-74.19 1340.1,-84.39 1345.84,-80.39"/>
</a>
</g>
</g>
<!-- Node24 -->
<g id="Node000024" class="node">
<title>Node24</title>
<g id="a_Node000024"><a xlink:href="Graphic_8hpp.html" target="_top" xlink:title=" ">
<polygon fill="white" stroke="#666666" points="1281.5,-189.5 1156.5,-189.5 1156.5,-170.5 1281.5,-170.5 1281.5,-189.5"/>
<text text-anchor="middle" x="1219" y="-177.5" font-family="Helvetica,sans-Serif" font-size="10.00">../Graphic/Graphic.hpp</text>
</a>
</g>
</g>
<!-- Node23&#45;&gt;Node24 -->
<g id="edge30_Node000023_Node000024" class="edge">
<title>Node23&#45;&gt;Node24</title>
<g id="a_edge30_Node000023_Node000024"><a xlink:title=" ">
<path fill="none" stroke="#63b8ff" d="M1140.27,-236.37C1155.06,-225.97 1180.15,-208.32 1198.03,-195.75"/>
<polygon fill="#63b8ff" stroke="#63b8ff" points="1200.46,-198.31 1206.63,-189.7 1196.44,-192.59 1200.46,-198.31"/>
</a>
</g>
</g>
<!-- Node25 -->
<g id="Node000025" class="node">
<title>Node25</title>
<g id="a_Node000025"><a xlink:title=" ">
<polygon fill="#e0e0e0" stroke="#999999" points="1176,-129 1118,-129 1118,-110 1176,-110 1176,-129"/>
<text text-anchor="middle" x="1147" y="-117" font-family="Helvetica,sans-Serif" font-size="10.00">memory</text>
</a>
</g>
</g>
<!-- Node23&#45;&gt;Node25 -->
<g id="edge35_Node000023_Node000025" class="edge">
<title>Node23&#45;&gt;Node25</title>
<g id="a_edge35_Node000023_Node000025"><a xlink:title=" ">
<path fill="none" stroke="#63b8ff" d="M1129.31,-236.44C1132.34,-216.54 1139.94,-166.76 1144.12,-139.35"/>
<polygon fill="#63b8ff" stroke="#63b8ff" points="1147.64,-139.53 1145.68,-129.12 1140.72,-138.47 1147.64,-139.53"/>
</a>
</g>
</g>
<!-- Node24&#45;&gt;Node4 -->
<g id="edge33_Node000024_Node000004" class="edge">
<title>Node24&#45;&gt;Node4</title>
<g id="a_edge33_Node000024_Node000004"><a xlink:title=" ">
<path fill="none" stroke="#63b8ff" d="M1215.47,-170.13C1209.91,-156.61 1198.37,-130.3 1185,-110 1178.38,-99.95 1169.75,-89.66 1162.38,-81.52"/>
<polygon fill="#63b8ff" stroke="#63b8ff" points="1164.93,-79.12 1155.56,-74.18 1159.8,-83.89 1164.93,-79.12"/>
</a>
</g>
</g>
<!-- Node24&#45;&gt;Node21 -->
<g id="edge31_Node000024_Node000021" class="edge">
<title>Node24&#45;&gt;Node21</title>
<g id="a_edge31_Node000024_Node000021"><a xlink:title=" ">
<path fill="none" stroke="#63b8ff" d="M1229.18,-170.37C1239.88,-161.3 1256.94,-146.84 1269.93,-135.82"/>
<polygon fill="#63b8ff" stroke="#63b8ff" points="1272.41,-138.3 1277.78,-129.17 1267.89,-132.96 1272.41,-138.3"/>
</a>
</g>
</g>
<!-- Node24&#45;&gt;Node25 -->
<g id="edge32_Node000024_Node000025" class="edge">
<title>Node24&#45;&gt;Node25</title>
<g id="a_edge32_Node000024_Node000025"><a xlink:title=" ">
<path fill="none" stroke="#63b8ff" d="M1208.38,-170.37C1197.1,-161.21 1179.08,-146.56 1165.47,-135.51"/>
<polygon fill="#63b8ff" stroke="#63b8ff" points="1167.64,-132.76 1157.67,-129.17 1163.22,-138.19 1167.64,-132.76"/>
</a>
</g>
</g>
<!-- Node26&#45;&gt;Node8 -->
<g id="edge39_Node000026_Node000008" class="edge">
<title>Node26&#45;&gt;Node8</title>
<g id="a_edge39_Node000026_Node000008"><a xlink:title=" ">
<path fill="none" stroke="#63b8ff" d="M961.92,-173.81C898.7,-162.9 752.46,-137.66 686.43,-126.27"/>
<polygon fill="#63b8ff" stroke="#63b8ff" points="687,-122.81 676.55,-124.56 685.8,-129.71 687,-122.81"/>
</a>
</g>
</g>
<!-- Node26&#45;&gt;Node20 -->
<g id="edge40_Node000026_Node000020" class="edge">
<title>Node26&#45;&gt;Node20</title>
<g id="a_edge40_Node000026_Node000020"><a xlink:title=" ">
<path fill="none" stroke="#63b8ff" d="M974.11,-170.49C953.62,-160.75 919.81,-144.66 896.08,-133.38"/>
<polygon fill="#63b8ff" stroke="#63b8ff" points="897.44,-130.15 886.91,-129.02 894.43,-136.47 897.44,-130.15"/>
</a>
</g>
</g>
<!-- Node26&#45;&gt;Node25 -->
<g id="edge42_Node000026_Node000025" class="edge">
<title>Node26&#45;&gt;Node25</title>
<g id="a_edge42_Node000026_Node000025"><a xlink:title=" ">
<path fill="none" stroke="#63b8ff" d="M1014.54,-170.49C1040.94,-160.53 1084.88,-143.95 1114.85,-132.63"/>
<polygon fill="#63b8ff" stroke="#63b8ff" points="1116.31,-135.82 1124.43,-129.02 1113.84,-129.27 1116.31,-135.82"/>
</a>
</g>
</g>
<!-- Node27 -->
<g id="Node000027" class="node">
<title>Node27</title>
<g id="a_Node000027"><a xlink:title=" ">
<polygon fill="#e0e0e0" stroke="#999999" points="978,-129 934,-129 934,-110 978,-110 978,-129"/>
<text text-anchor="middle" x="956" y="-117" font-family="Helvetica,sans-Serif" font-size="10.00">bitset</text>
</a>
</g>
</g>
<!-- Node26&#45;&gt;Node27 -->
<g id="edge38_Node000026_Node000027" class="edge">
<title>Node26&#45;&gt;Node27</title>
<g id="a_edge38_Node000026_Node000027"><a xlink:title=" ">
<path fill="none" stroke="#63b8ff" d="M986.69,-170.37C981.42,-161.81 973.21,-148.47 966.61,-137.74"/>
<polygon fill="#63b8ff" stroke="#63b8ff" points="969.56,-135.85 961.33,-129.17 963.59,-139.52 969.56,-135.85"/>
</a>
</g>
</g>
<!-- Node28 -->
<g id="Node000028" class="node">
<title>Node28</title>
<g id="a_Node000028"><a xlink:title=" ">
<polygon fill="#e0e0e0" stroke="#999999" points="1061.5,-129 996.5,-129 996.5,-110 1061.5,-110 1061.5,-129"/>
<text text-anchor="middle" x="1029" y="-117" font-family="Helvetica,sans-Serif" font-size="10.00">typeindex</text>
</a>
</g>
</g>
<!-- Node26&#45;&gt;Node28 -->
<g id="edge41_Node000026_Node000028" class="edge">
<title>Node26&#45;&gt;Node28</title>
<g id="a_edge41_Node000026_Node000028"><a xlink:title=" ">
<path fill="none" stroke="#63b8ff" d="M997.46,-170.37C1002.87,-161.81 1011.31,-148.47 1018.1,-137.74"/>
<polygon fill="#63b8ff" stroke="#63b8ff" points="1021.13,-139.49 1023.52,-129.17 1015.21,-135.75 1021.13,-139.49"/>
</a>
</g>
</g>
</g>
</svg>
