<?xml version="1.0" encoding="UTF-8" standalone="no"?>
<!DOCTYPE svg PUBLIC "-//W3C//DTD SVG 1.1//EN"
 "http://www.w3.org/Graphics/SVG/1.1/DTD/svg11.dtd">
<!-- Generated by graphviz version 2.43.0 (0)
 -->
<!-- Title: graphical&#45;client/ecs/System.hpp Pages: 1 -->
<svg width="316pt" height="170pt"
 viewBox="0.00 0.00 316.00 170.00" xmlns="http://www.w3.org/2000/svg" xmlns:xlink="http://www.w3.org/1999/xlink">
<g id="graph0" class="graph" transform="scale(1 1) rotate(0) translate(4 166)">
<title>graphical&#45;client/ecs/System.hpp</title>
<!-- Node1 -->
<g id="Node000001" class="node">
<title>Node1</title>
<g id="a_Node000001"><a xlink:title=" ">
<polygon fill="#999999" stroke="#666666" points="215,-162 103,-162 103,-132 215,-132 215,-162"/>
<text text-anchor="start" x="111" y="-150" font-family="Helvetica,sans-Serif" font-size="10.00">graphical&#45;client/ecs</text>
<text text-anchor="middle" x="159" y="-139" font-family="Helvetica,sans-Serif" font-size="10.00">/System.hpp</text>
</a>
</g>
</g>
<!-- Node2 -->
<g id="Node000002" class="node">
<title>Node2</title>
<g id="a_Node000002"><a xlink:href="GraphicClient_8hpp.html" target="_top" xlink:title=" ">
<polygon fill="white" stroke="#666666" points="226.5,-96 91.5,-96 91.5,-66 226.5,-66 226.5,-96"/>
<text text-anchor="start" x="99.5" y="-84" font-family="Helvetica,sans-Serif" font-size="10.00">graphical&#45;client/Graphic</text>
<text text-anchor="middle" x="159" y="-73" font-family="Helvetica,sans-Serif" font-size="10.00">Client/GraphicClient.hpp</text>
</a>
</g>
</g>
<!-- Node1&#45;&gt;Node2 -->
<g id="edge1_Node000001_Node000002" class="edge">
<title>Node1&#45;&gt;Node2</title>
<g id="a_edge1_Node000001_Node000002"><a xlink:title=" ">
<path fill="none" stroke="#63b8ff" d="M159,-121.54C159,-112.96 159,-103.61 159,-96.16"/>
<polygon fill="#63b8ff" stroke="#63b8ff" points="155.5,-121.8 159,-131.8 162.5,-121.8 155.5,-121.8"/>
</a>
</g>
</g>
<!-- Node3 -->
<g id="Node000003" class="node">
<title>Node3</title>
<g id="a_Node000003"><a xlink:href="client_8cpp.html" target="_top" xlink:title=" ">
<polygon fill="white" stroke="#666666" points="156,-30 0,-30 0,0 156,0 156,-30"/>
<text text-anchor="start" x="8" y="-18" font-family="Helvetica,sans-Serif" font-size="10.00">/home/loic/EPITECH</text>
<text text-anchor="middle" x="78" y="-7" font-family="Helvetica,sans-Serif" font-size="10.00">/rtype/Mystic&#45;Type/client.cpp</text>
</a>
</g>
</g>
<!-- Node2&#45;&gt;Node3 -->
<g id="edge2_Node000002_Node000003" class="edge">
<title>Node2&#45;&gt;Node3</title>
<g id="a_edge2_Node000002_Node000003"><a xlink:title=" ">
<path fill="none" stroke="#63b8ff" d="M133.03,-59.48C120.92,-49.91 106.82,-38.77 95.93,-30.16"/>
<polygon fill="#63b8ff" stroke="#63b8ff" points="131.01,-62.34 141.02,-65.8 135.35,-56.85 131.01,-62.34"/>
</a>
</g>
</g>
<!-- Node4 -->
<g id="Node000004" class="node">
<title>Node4</title>
<g id="a_Node000004"><a xlink:href="GraphicClient_8cpp.html" target="_top" xlink:title=" ">
<polygon fill="white" stroke="#666666" points="308,-30 174,-30 174,0 308,0 308,-30"/>
<text text-anchor="start" x="182" y="-18" font-family="Helvetica,sans-Serif" font-size="10.00">graphical&#45;client/Graphic</text>
<text text-anchor="middle" x="241" y="-7" font-family="Helvetica,sans-Serif" font-size="10.00">Client/GraphicClient.cpp</text>
</a>
</g>
</g>
<!-- Node2&#45;&gt;Node4 -->
<g id="edge3_Node000002_Node000004" class="edge">
<title>Node2&#45;&gt;Node4</title>
<g id="a_edge3_Node000002_Node000004"><a xlink:title=" ">
<path fill="none" stroke="#63b8ff" d="M185.29,-59.48C197.55,-49.91 211.82,-38.77 222.85,-30.16"/>
<polygon fill="#63b8ff" stroke="#63b8ff" points="182.93,-56.88 177.2,-65.8 187.24,-62.4 182.93,-56.88"/>
</a>
</g>
</g>
</g>
</svg>
