<?xml version="1.0" encoding="UTF-8" standalone="no"?>
<!DOCTYPE svg PUBLIC "-//W3C//DTD SVG 1.1//EN"
 "http://www.w3.org/Graphics/SVG/1.1/DTD/svg11.dtd">
<!-- Generated by graphviz version 2.43.0 (0)
 -->
<!-- Title: Network/TransportLayer/TCP/TCPSocket.hpp Pages: 1 -->
<svg width="387pt" height="170pt"
 viewBox="0.00 0.00 387.00 170.00" xmlns="http://www.w3.org/2000/svg" xmlns:xlink="http://www.w3.org/1999/xlink">
<g id="graph0" class="graph" transform="scale(1 1) rotate(0) translate(4 166)">
<title>Network/TransportLayer/TCP/TCPSocket.hpp</title>
<!-- Node1 -->
<g id="Node000001" class="node">
<title>Node1</title>
<g id="a_Node000001"><a xlink:title=" ">
<polygon fill="#999999" stroke="#666666" points="303,-162 170,-162 170,-132 303,-132 303,-162"/>
<text text-anchor="start" x="178" y="-150" font-family="Helvetica,sans-Serif" font-size="10.00">Network/TransportLayer</text>
<text text-anchor="middle" x="236.5" y="-139" font-family="Helvetica,sans-Serif" font-size="10.00">/TCP/TCPSocket.hpp</text>
</a>
</g>
</g>
<!-- Node2 -->
<g id="Node000002" class="node">
<title>Node2</title>
<g id="a_Node000002"><a xlink:href="TCPServer_8hpp.html" target="_top" xlink:title=" ">
<polygon fill="white" stroke="#666666" points="228,-96 95,-96 95,-66 228,-66 228,-96"/>
<text text-anchor="start" x="103" y="-84" font-family="Helvetica,sans-Serif" font-size="10.00">Network/TransportLayer</text>
<text text-anchor="middle" x="161.5" y="-73" font-family="Helvetica,sans-Serif" font-size="10.00">/TCP/TCPServer.hpp</text>
</a>
</g>
</g>
<!-- Node1&#45;&gt;Node2 -->
<g id="edge1_Node000001_Node000002" class="edge">
<title>Node1&#45;&gt;Node2</title>
<g id="a_edge1_Node000001_Node000002"><a xlink:title=" ">
<path fill="none" stroke="#63b8ff" d="M212.13,-125.2C200.99,-115.7 188.09,-104.69 178.1,-96.16"/>
<polygon fill="#63b8ff" stroke="#63b8ff" points="209.98,-127.97 219.86,-131.8 214.52,-122.64 209.98,-127.97"/>
</a>
</g>
</g>
<!-- Node5 -->
<g id="Node000005" class="node">
<title>Node5</title>
<g id="a_Node000005"><a xlink:href="TCPSocket_8cpp.html" target="_top" xlink:title=" ">
<polygon fill="white" stroke="#666666" points="379,-96 246,-96 246,-66 379,-66 379,-96"/>
<text text-anchor="start" x="254" y="-84" font-family="Helvetica,sans-Serif" font-size="10.00">Network/TransportLayer</text>
<text text-anchor="middle" x="312.5" y="-73" font-family="Helvetica,sans-Serif" font-size="10.00">/TCP/TCPSocket.cpp</text>
</a>
</g>
</g>
<!-- Node1&#45;&gt;Node5 -->
<g id="edge4_Node000001_Node000005" class="edge">
<title>Node1&#45;&gt;Node5</title>
<g id="a_edge4_Node000001_Node000005"><a xlink:title=" ">
<path fill="none" stroke="#63b8ff" d="M261.2,-125.2C272.48,-115.7 285.55,-104.69 295.68,-96.16"/>
<polygon fill="#63b8ff" stroke="#63b8ff" points="258.76,-122.68 253.37,-131.8 263.27,-128.03 258.76,-122.68"/>
</a>
</g>
</g>
<!-- Node3 -->
<g id="Node000003" class="node">
<title>Node3</title>
<g id="a_Node000003"><a xlink:href="server_8cpp.html" target="_top" xlink:title=" ">
<polygon fill="white" stroke="#666666" points="159,-30 0,-30 0,0 159,0 159,-30"/>
<text text-anchor="start" x="8" y="-18" font-family="Helvetica,sans-Serif" font-size="10.00">/home/loic/EPITECH</text>
<text text-anchor="middle" x="79.5" y="-7" font-family="Helvetica,sans-Serif" font-size="10.00">/rtype/Mystic&#45;Type/server.cpp</text>
</a>
</g>
</g>
<!-- Node2&#45;&gt;Node3 -->
<g id="edge2_Node000002_Node000003" class="edge">
<title>Node2&#45;&gt;Node3</title>
<g id="a_edge2_Node000002_Node000003"><a xlink:title=" ">
<path fill="none" stroke="#63b8ff" d="M135.21,-59.48C122.95,-49.91 108.68,-38.77 97.65,-30.16"/>
<polygon fill="#63b8ff" stroke="#63b8ff" points="133.26,-62.4 143.3,-65.8 137.57,-56.88 133.26,-62.4"/>
</a>
</g>
</g>
<!-- Node4 -->
<g id="Node000004" class="node">
<title>Node4</title>
<g id="a_Node000004"><a xlink:href="TCPServer_8cpp.html" target="_top" xlink:title=" ">
<polygon fill="white" stroke="#666666" points="310,-30 177,-30 177,0 310,0 310,-30"/>
<text text-anchor="start" x="185" y="-18" font-family="Helvetica,sans-Serif" font-size="10.00">Network/TransportLayer</text>
<text text-anchor="middle" x="243.5" y="-7" font-family="Helvetica,sans-Serif" font-size="10.00">/TCP/TCPServer.cpp</text>
</a>
</g>
</g>
<!-- Node2&#45;&gt;Node4 -->
<g id="edge3_Node000002_Node000004" class="edge">
<title>Node2&#45;&gt;Node4</title>
<g id="a_edge3_Node000002_Node000004"><a xlink:title=" ">
<path fill="none" stroke="#63b8ff" d="M187.79,-59.48C200.05,-49.91 214.32,-38.77 225.35,-30.16"/>
<polygon fill="#63b8ff" stroke="#63b8ff" points="185.43,-56.88 179.7,-65.8 189.74,-62.4 185.43,-56.88"/>
</a>
</g>
</g>
</g>
</svg>
