<?xml version="1.0" encoding="UTF-8" standalone="no"?>
<!DOCTYPE svg PUBLIC "-//W3C//DTD SVG 1.1//EN"
 "http://www.w3.org/Graphics/SVG/1.1/DTD/svg11.dtd">
<!-- Generated by graphviz version 2.43.0 (0)
 -->
<!-- Title: Network/TransportLayer/TCP/TCPServer.hpp Pages: 1 -->
<svg width="1322pt" height="324pt"
 viewBox="0.00 0.00 1322.00 324.00" xmlns="http://www.w3.org/2000/svg" xmlns:xlink="http://www.w3.org/1999/xlink">
<g id="graph0" class="graph" transform="scale(1 1) rotate(0) translate(4 320)">
<title>Network/TransportLayer/TCP/TCPServer.hpp</title>
<!-- Node1 -->
<g id="Node000001" class="node">
<title>Node1</title>
<g id="a_Node000001"><a xlink:title=" ">
<polygon fill="#999999" stroke="#666666" points="477,-316 344,-316 344,-286 477,-286 477,-316"/>
<text text-anchor="start" x="352" y="-304" font-family="Helvetica,sans-Serif" font-size="10.00">Network/TransportLayer</text>
<text text-anchor="middle" x="410.5" y="-293" font-family="Helvetica,sans-Serif" font-size="10.00">/TCP/TCPServer.hpp</text>
</a>
</g>
</g>
<!-- Node2 -->
<g id="Node000002" class="node">
<title>Node2</title>
<g id="a_Node000002"><a xlink:title=" ">
<polygon fill="#e0e0e0" stroke="#999999" points="47.5,-250 5.5,-250 5.5,-231 47.5,-231 47.5,-250"/>
<text text-anchor="middle" x="26.5" y="-238" font-family="Helvetica,sans-Serif" font-size="10.00">array</text>
</a>
</g>
</g>
<!-- Node1&#45;&gt;Node2 -->
<g id="edge1_Node000001_Node000002" class="edge">
<title>Node1&#45;&gt;Node2</title>
<g id="a_edge1_Node000001_Node000002"><a xlink:title=" ">
<path fill="none" stroke="#63b8ff" d="M343.81,-293.31C274.46,-285.75 162.66,-271.82 57.54,-249.97"/>
<polygon fill="#63b8ff" stroke="#63b8ff" points="58.22,-246.53 47.72,-247.9 56.78,-253.38 58.22,-246.53"/>
</a>
</g>
</g>
<!-- Node3 -->
<g id="Node000003" class="node">
<title>Node3</title>
<g id="a_Node000003"><a xlink:title=" ">
<polygon fill="#e0e0e0" stroke="#999999" points="169,-189.5 122,-189.5 122,-170.5 169,-170.5 169,-189.5"/>
<text text-anchor="middle" x="145.5" y="-177.5" font-family="Helvetica,sans-Serif" font-size="10.00">vector</text>
</a>
</g>
</g>
<!-- Node1&#45;&gt;Node3 -->
<g id="edge2_Node000001_Node000003" class="edge">
<title>Node1&#45;&gt;Node3</title>
<g id="a_edge2_Node000001_Node000003"><a xlink:title=" ">
<path fill="none" stroke="#63b8ff" d="M343.64,-297.8C297.08,-293.35 235.5,-281.33 190.5,-250 172.4,-237.4 159.78,-214.94 152.6,-199.07"/>
<polygon fill="#63b8ff" stroke="#63b8ff" points="155.78,-197.62 148.67,-189.77 149.34,-200.34 155.78,-197.62"/>
</a>
</g>
</g>
<!-- Node4 -->
<g id="Node000004" class="node">
<title>Node4</title>
<g id="a_Node000004"><a xlink:title=" ">
<polygon fill="#e0e0e0" stroke="#999999" points="840.5,-189.5 796.5,-189.5 796.5,-170.5 840.5,-170.5 840.5,-189.5"/>
<text text-anchor="middle" x="818.5" y="-177.5" font-family="Helvetica,sans-Serif" font-size="10.00">string</text>
</a>
</g>
</g>
<!-- Node1&#45;&gt;Node4 -->
<g id="edge3_Node000001_Node000004" class="edge">
<title>Node1&#45;&gt;Node4</title>
<g id="a_edge3_Node000001_Node000004"><a xlink:title=" ">
<path fill="none" stroke="#63b8ff" d="M477.34,-299.64C574.5,-297.77 748.29,-288.89 795.5,-250 810.24,-237.85 815.59,-215.97 817.5,-200.09"/>
<polygon fill="#63b8ff" stroke="#63b8ff" points="821.02,-200.08 818.37,-189.82 814.04,-199.49 821.02,-200.08"/>
</a>
</g>
</g>
<!-- Node5 -->
<g id="Node000005" class="node">
<title>Node5</title>
<g id="a_Node000005"><a xlink:title=" ">
<polygon fill="#e0e0e0" stroke="#999999" points="506,-189.5 413,-189.5 413,-170.5 506,-170.5 506,-189.5"/>
<text text-anchor="middle" x="459.5" y="-177.5" font-family="Helvetica,sans-Serif" font-size="10.00">unordered_map</text>
</a>
</g>
</g>
<!-- Node1&#45;&gt;Node5 -->
<g id="edge4_Node000001_Node000005" class="edge">
<title>Node1&#45;&gt;Node5</title>
<g id="a_edge4_Node000001_Node000005"><a xlink:title=" ">
<path fill="none" stroke="#63b8ff" d="M416.31,-285.88C425.23,-264.22 442.3,-222.78 452.09,-198.99"/>
<polygon fill="#63b8ff" stroke="#63b8ff" points="455.34,-200.29 455.91,-189.71 448.87,-197.63 455.34,-200.29"/>
</a>
</g>
</g>
<!-- Node6 -->
<g id="Node000006" class="node">
<title>Node6</title>
<g id="a_Node000006"><a xlink:title=" ">
<polygon fill="#e0e0e0" stroke="#999999" points="411.5,-250 353.5,-250 353.5,-231 411.5,-231 411.5,-250"/>
<text text-anchor="middle" x="382.5" y="-238" font-family="Helvetica,sans-Serif" font-size="10.00">memory</text>
</a>
</g>
</g>
<!-- Node1&#45;&gt;Node6 -->
<g id="edge5_Node000001_Node000006" class="edge">
<title>Node1&#45;&gt;Node6</title>
<g id="a_edge5_Node000001_Node000006"><a xlink:title=" ">
<path fill="none" stroke="#63b8ff" d="M403.72,-285.84C399.91,-277.87 395.11,-267.84 391.04,-259.33"/>
<polygon fill="#63b8ff" stroke="#63b8ff" points="394.17,-257.77 386.7,-250.27 387.86,-260.8 394.17,-257.77"/>
</a>
</g>
</g>
<!-- Node7 -->
<g id="Node000007" class="node">
<title>Node7</title>
<g id="a_Node000007"><a xlink:href="TCPSocket_8hpp.html" target="_top" xlink:title=" ">
<polygon fill="white" stroke="#666666" points="930.5,-250 842.5,-250 842.5,-231 930.5,-231 930.5,-250"/>
<text text-anchor="middle" x="886.5" y="-238" font-family="Helvetica,sans-Serif" font-size="10.00">TCPSocket.hpp</text>
</a>
</g>
</g>
<!-- Node1&#45;&gt;Node7 -->
<g id="edge6_Node000001_Node000007" class="edge">
<title>Node1&#45;&gt;Node7</title>
<g id="a_edge6_Node000001_Node000007"><a xlink:title=" ">
<path fill="none" stroke="#63b8ff" d="M477.17,-292.58C559.73,-283.26 704.61,-266.48 828.5,-250 829.78,-249.83 831.07,-249.66 832.37,-249.48"/>
<polygon fill="#63b8ff" stroke="#63b8ff" points="833.07,-252.92 842.5,-248.07 832.11,-245.98 833.07,-252.92"/>
</a>
</g>
</g>
<!-- Node19 -->
<g id="Node000019" class="node">
<title>Node19</title>
<g id="a_Node000019"><a xlink:href="Packet_8hpp.html" target="_top" xlink:title=" ">
<polygon fill="white" stroke="#666666" points="143.5,-250 65.5,-250 65.5,-231 143.5,-231 143.5,-250"/>
<text text-anchor="middle" x="104.5" y="-238" font-family="Helvetica,sans-Serif" font-size="10.00">../Packet.hpp</text>
</a>
</g>
</g>
<!-- Node1&#45;&gt;Node19 -->
<g id="edge20_Node000001_Node000019" class="edge">
<title>Node1&#45;&gt;Node19</title>
<g id="a_edge20_Node000001_Node000019"><a xlink:title=" ">
<path fill="none" stroke="#63b8ff" d="M343.73,-287.23C286.35,-276.27 204.96,-260.71 153.46,-250.86"/>
<polygon fill="#63b8ff" stroke="#63b8ff" points="154.05,-247.41 143.57,-248.97 152.74,-254.29 154.05,-247.41"/>
</a>
</g>
</g>
<!-- Node21 -->
<g id="Node000021" class="node">
<title>Node21</title>
<g id="a_Node000021"><a xlink:href="SessionManager_8hpp.html" target="_top" xlink:title=" ">
<polygon fill="white" stroke="#666666" points="335,-250 200,-250 200,-231 335,-231 335,-250"/>
<text text-anchor="middle" x="267.5" y="-238" font-family="Helvetica,sans-Serif" font-size="10.00">../../SessionManager.hpp</text>
</a>
</g>
</g>
<!-- Node1&#45;&gt;Node21 -->
<g id="edge24_Node000001_Node000021" class="edge">
<title>Node1&#45;&gt;Node21</title>
<g id="a_edge24_Node000001_Node000021"><a xlink:title=" ">
<path fill="none" stroke="#63b8ff" d="M376.25,-285.99C352.39,-276.23 320.85,-263.33 297.89,-253.93"/>
<polygon fill="#63b8ff" stroke="#63b8ff" points="299.2,-250.69 288.62,-250.14 296.55,-257.17 299.2,-250.69"/>
</a>
</g>
</g>
<!-- Node25 -->
<g id="Node000025" class="node">
<title>Node25</title>
<g id="a_Node000025"><a xlink:href="ChildProcessManager_8hpp.html" target="_top" xlink:title=" ">
<polygon fill="white" stroke="#666666" points="643.5,-250 467.5,-250 467.5,-231 643.5,-231 643.5,-250"/>
<text text-anchor="middle" x="555.5" y="-238" font-family="Helvetica,sans-Serif" font-size="10.00">server/ChildProcessManager.hpp</text>
</a>
</g>
</g>
<!-- Node1&#45;&gt;Node25 -->
<g id="edge33_Node000001_Node000025" class="edge">
<title>Node1&#45;&gt;Node25</title>
<g id="a_edge33_Node000001_Node000025"><a xlink:title=" ">
<path fill="none" stroke="#63b8ff" d="M445.23,-285.99C469.42,-276.23 501.4,-263.33 524.69,-253.93"/>
<polygon fill="#63b8ff" stroke="#63b8ff" points="526.12,-257.13 534.09,-250.14 523.5,-250.63 526.12,-257.13"/>
</a>
</g>
</g>
<!-- Node26 -->
<g id="Node000026" class="node">
<title>Node26</title>
<g id="a_Node000026"><a xlink:href="IpcChannel_8hpp.html" target="_top" xlink:title=" ">
<polygon fill="white" stroke="#666666" points="786,-250 661,-250 661,-231 786,-231 786,-250"/>
<text text-anchor="middle" x="723.5" y="-238" font-family="Helvetica,sans-Serif" font-size="10.00">server/IpcChannel.hpp</text>
</a>
</g>
</g>
<!-- Node1&#45;&gt;Node26 -->
<g id="edge38_Node000001_Node000026" class="edge">
<title>Node1&#45;&gt;Node26</title>
<g id="a_edge38_Node000001_Node000026"><a xlink:title=" ">
<path fill="none" stroke="#63b8ff" d="M477.26,-287.52C533.94,-276.93 614.32,-261.91 667.64,-251.94"/>
<polygon fill="#63b8ff" stroke="#63b8ff" points="668.41,-255.36 677.6,-250.08 667.13,-248.48 668.41,-255.36"/>
</a>
</g>
</g>
<!-- Node7&#45;&gt;Node4 -->
<g id="edge7_Node000007_Node000004" class="edge">
<title>Node7&#45;&gt;Node4</title>
<g id="a_edge7_Node000007_Node000004"><a xlink:title=" ">
<path fill="none" stroke="#63b8ff" d="M876.47,-230.87C865.92,-221.8 849.11,-207.34 836.31,-196.32"/>
<polygon fill="#63b8ff" stroke="#63b8ff" points="838.44,-193.54 828.57,-189.67 833.87,-198.84 838.44,-193.54"/>
</a>
</g>
</g>
<!-- Node8 -->
<g id="Node000008" class="node">
<title>Node8</title>
<g id="a_Node000008"><a xlink:title=" ">
<polygon fill="#e0e0e0" stroke="#999999" points="633.5,-19 583.5,-19 583.5,0 633.5,0 633.5,-19"/>
<text text-anchor="middle" x="608.5" y="-7" font-family="Helvetica,sans-Serif" font-size="10.00">cstdint</text>
</a>
</g>
</g>
<!-- Node7&#45;&gt;Node8 -->
<g id="edge8_Node000007_Node000008" class="edge">
<title>Node7&#45;&gt;Node8</title>
<g id="a_edge8_Node000007_Node000008"><a xlink:title=" ">
<path fill="none" stroke="#63b8ff" d="M889.65,-230.94C897.28,-208.64 914.19,-147.85 887.5,-110 872.88,-89.27 715.08,-41.39 643.48,-20.53"/>
<polygon fill="#63b8ff" stroke="#63b8ff" points="644.15,-17.08 633.57,-17.65 642.19,-23.8 644.15,-17.08"/>
</a>
</g>
</g>
<!-- Node9 -->
<g id="Node000009" class="node">
<title>Node9</title>
<g id="a_Node000009"><a xlink:href="ASocket_8hpp.html" target="_top" xlink:title=" ">
<polygon fill="white" stroke="#666666" points="878.5,-129 792.5,-129 792.5,-110 878.5,-110 878.5,-129"/>
<text text-anchor="middle" x="835.5" y="-117" font-family="Helvetica,sans-Serif" font-size="10.00">../ASocket.hpp</text>
</a>
</g>
</g>
<!-- Node7&#45;&gt;Node9 -->
<g id="edge9_Node000007_Node000009" class="edge">
<title>Node7&#45;&gt;Node9</title>
<g id="a_edge9_Node000007_Node000009"><a xlink:title=" ">
<path fill="none" stroke="#63b8ff" d="M882.83,-230.94C874.6,-211.74 854.51,-164.86 843.33,-138.77"/>
<polygon fill="#63b8ff" stroke="#63b8ff" points="846.43,-137.11 839.27,-129.3 839.99,-139.87 846.43,-137.11"/>
</a>
</g>
</g>
<!-- Node10 -->
<g id="Node000010" class="node">
<title>Node10</title>
<g id="a_Node000010"><a xlink:href="ISocket_8hpp.html" target="_top" xlink:title=" ">
<polygon fill="white" stroke="#666666" points="1008,-74 935,-74 935,-55 1008,-55 1008,-74"/>
<text text-anchor="middle" x="971.5" y="-62" font-family="Helvetica,sans-Serif" font-size="10.00">ISocket.hpp</text>
</a>
</g>
</g>
<!-- Node9&#45;&gt;Node10 -->
<g id="edge10_Node000009_Node000010" class="edge">
<title>Node9&#45;&gt;Node10</title>
<g id="a_edge10_Node000009_Node000010"><a xlink:title=" ">
<path fill="none" stroke="#63b8ff" d="M857.35,-109.98C879.62,-101.3 914.4,-87.75 939.72,-77.88"/>
<polygon fill="#63b8ff" stroke="#63b8ff" points="941.21,-81.06 949.25,-74.17 938.66,-74.54 941.21,-81.06"/>
</a>
</g>
</g>
<!-- Node10&#45;&gt;Node8 -->
<g id="edge12_Node000010_Node000008" class="edge">
<title>Node10&#45;&gt;Node8</title>
<g id="a_edge12_Node000010_Node000008"><a xlink:title=" ">
<path fill="none" stroke="#63b8ff" d="M934.75,-57.21C929.96,-56.44 925.12,-55.68 920.5,-55 800.51,-37.24 766.69,-41.88 643.86,-19.06"/>
<polygon fill="#63b8ff" stroke="#63b8ff" points="644.15,-15.55 633.68,-17.14 642.86,-22.43 644.15,-15.55"/>
</a>
</g>
</g>
<!-- Node11 -->
<g id="Node000011" class="node">
<title>Node11</title>
<g id="a_Node000011"><a xlink:title=" ">
<polygon fill="#e0e0e0" stroke="#999999" points="1314,-19 1245,-19 1245,0 1314,0 1314,-19"/>
<text text-anchor="middle" x="1279.5" y="-7" font-family="Helvetica,sans-Serif" font-size="10.00">arpa/inet.h</text>
</a>
</g>
</g>
<!-- Node10&#45;&gt;Node11 -->
<g id="edge11_Node000010_Node000011" class="edge">
<title>Node10&#45;&gt;Node11</title>
<g id="a_edge11_Node000010_Node000011"><a xlink:title=" ">
<path fill="none" stroke="#63b8ff" d="M1008.28,-57.58C1057.44,-49.62 1147.54,-34.79 1234.85,-19.08"/>
<polygon fill="#63b8ff" stroke="#63b8ff" points="1235.71,-22.48 1244.93,-17.26 1234.46,-15.59 1235.71,-22.48"/>
</a>
</g>
</g>
<!-- Node12 -->
<g id="Node000012" class="node">
<title>Node12</title>
<g id="a_Node000012"><a xlink:title=" ">
<polygon fill="#e0e0e0" stroke="#999999" points="793,-19 742,-19 742,0 793,0 793,-19"/>
<text text-anchor="middle" x="767.5" y="-7" font-family="Helvetica,sans-Serif" font-size="10.00">errno.h</text>
</a>
</g>
</g>
<!-- Node10&#45;&gt;Node12 -->
<g id="edge13_Node000010_Node000012" class="edge">
<title>Node10&#45;&gt;Node12</title>
<g id="a_edge13_Node000010_Node000012"><a xlink:title=" ">
<path fill="none" stroke="#63b8ff" d="M938.72,-54.98C901.5,-45.31 841,-29.6 802.77,-19.66"/>
<polygon fill="#63b8ff" stroke="#63b8ff" points="803.65,-16.28 793.09,-17.15 801.89,-23.05 803.65,-16.28"/>
</a>
</g>
</g>
<!-- Node13 -->
<g id="Node000013" class="node">
<title>Node13</title>
<g id="a_Node000013"><a xlink:title=" ">
<polygon fill="#e0e0e0" stroke="#999999" points="723.5,-19 651.5,-19 651.5,0 723.5,0 723.5,-19"/>
<text text-anchor="middle" x="687.5" y="-7" font-family="Helvetica,sans-Serif" font-size="10.00">netinet/in.h</text>
</a>
</g>
</g>
<!-- Node10&#45;&gt;Node13 -->
<g id="edge14_Node000010_Node000013" class="edge">
<title>Node10&#45;&gt;Node13</title>
<g id="a_edge14_Node000010_Node000013"><a xlink:title=" ">
<path fill="none" stroke="#63b8ff" d="M934.95,-56.68C883.62,-47.1 790.15,-29.66 733.95,-19.17"/>
<polygon fill="#63b8ff" stroke="#63b8ff" points="734.38,-15.69 723.91,-17.29 733.09,-22.57 734.38,-15.69"/>
</a>
</g>
</g>
<!-- Node14 -->
<g id="Node000014" class="node">
<title>Node14</title>
<g id="a_Node000014"><a xlink:title=" ">
<polygon fill="#e0e0e0" stroke="#999999" points="889.5,-19 811.5,-19 811.5,0 889.5,0 889.5,-19"/>
<text text-anchor="middle" x="850.5" y="-7" font-family="Helvetica,sans-Serif" font-size="10.00">netinet/tcp.h</text>
</a>
</g>
</g>
<!-- Node10&#45;&gt;Node14 -->
<g id="edge15_Node000010_Node000014" class="edge">
<title>Node10&#45;&gt;Node14</title>
<g id="a_edge15_Node000010_Node000014"><a xlink:title=" ">
<path fill="none" stroke="#63b8ff" d="M952.06,-54.98C932.51,-46.42 902.12,-33.11 879.68,-23.28"/>
<polygon fill="#63b8ff" stroke="#63b8ff" points="880.86,-19.98 870.29,-19.17 878.05,-26.39 880.86,-19.98"/>
</a>
</g>
</g>
<!-- Node15 -->
<g id="Node000015" class="node">
<title>Node15</title>
<g id="a_Node000015"><a xlink:title=" ">
<polygon fill="#e0e0e0" stroke="#999999" points="981.5,-19 907.5,-19 907.5,0 981.5,0 981.5,-19"/>
<text text-anchor="middle" x="944.5" y="-7" font-family="Helvetica,sans-Serif" font-size="10.00">sys/select.h</text>
</a>
</g>
</g>
<!-- Node10&#45;&gt;Node15 -->
<g id="edge16_Node000010_Node000015" class="edge">
<title>Node10&#45;&gt;Node15</title>
<g id="a_edge16_Node000010_Node000015"><a xlink:title=" ">
<path fill="none" stroke="#63b8ff" d="M967.04,-54.75C963.38,-47.57 958.09,-37.18 953.55,-28.27"/>
<polygon fill="#63b8ff" stroke="#63b8ff" points="956.53,-26.41 948.88,-19.09 950.3,-29.59 956.53,-26.41"/>
</a>
</g>
</g>
<!-- Node16 -->
<g id="Node000016" class="node">
<title>Node16</title>
<g id="a_Node000016"><a xlink:title=" ">
<polygon fill="#e0e0e0" stroke="#999999" points="1077,-19 1000,-19 1000,0 1077,0 1077,-19"/>
<text text-anchor="middle" x="1038.5" y="-7" font-family="Helvetica,sans-Serif" font-size="10.00">sys/socket.h</text>
</a>
</g>
</g>
<!-- Node10&#45;&gt;Node16 -->
<g id="edge17_Node000010_Node000016" class="edge">
<title>Node10&#45;&gt;Node16</title>
<g id="a_edge17_Node000010_Node000016"><a xlink:title=" ">
<path fill="none" stroke="#63b8ff" d="M982.26,-54.98C992.27,-47.07 1007.39,-35.11 1019.43,-25.58"/>
<polygon fill="#63b8ff" stroke="#63b8ff" points="1021.87,-28.12 1027.54,-19.17 1017.53,-22.63 1021.87,-28.12"/>
</a>
</g>
</g>
<!-- Node17 -->
<g id="Node000017" class="node">
<title>Node17</title>
<g id="a_Node000017"><a xlink:title=" ">
<polygon fill="#e0e0e0" stroke="#999999" points="1152,-19 1095,-19 1095,0 1152,0 1152,-19"/>
<text text-anchor="middle" x="1123.5" y="-7" font-family="Helvetica,sans-Serif" font-size="10.00">sys/un.h</text>
</a>
</g>
</g>
<!-- Node10&#45;&gt;Node17 -->
<g id="edge18_Node000010_Node000017" class="edge">
<title>Node10&#45;&gt;Node17</title>
<g id="a_edge18_Node000010_Node000017"><a xlink:title=" ">
<path fill="none" stroke="#63b8ff" d="M995.92,-54.98C1021.22,-46.16 1060.95,-32.31 1089.36,-22.41"/>
<polygon fill="#63b8ff" stroke="#63b8ff" points="1090.6,-25.68 1098.89,-19.08 1088.29,-19.07 1090.6,-25.68"/>
</a>
</g>
</g>
<!-- Node18 -->
<g id="Node000018" class="node">
<title>Node18</title>
<g id="a_Node000018"><a xlink:title=" ">
<polygon fill="#e0e0e0" stroke="#999999" points="1226.5,-19 1170.5,-19 1170.5,0 1226.5,0 1226.5,-19"/>
<text text-anchor="middle" x="1198.5" y="-7" font-family="Helvetica,sans-Serif" font-size="10.00">unistd.h</text>
</a>
</g>
</g>
<!-- Node10&#45;&gt;Node18 -->
<g id="edge19_Node000010_Node000018" class="edge">
<title>Node10&#45;&gt;Node18</title>
<g id="a_edge19_Node000010_Node000018"><a xlink:title=" ">
<path fill="none" stroke="#63b8ff" d="M1007.97,-54.98C1049.77,-45.23 1117.95,-29.31 1160.42,-19.39"/>
<polygon fill="#63b8ff" stroke="#63b8ff" points="1161.42,-22.75 1170.36,-17.07 1159.83,-15.93 1161.42,-22.75"/>
</a>
</g>
</g>
<!-- Node19&#45;&gt;Node3 -->
<g id="edge23_Node000019_Node000003" class="edge">
<title>Node19&#45;&gt;Node3</title>
<g id="a_edge23_Node000019_Node000003"><a xlink:title=" ">
<path fill="none" stroke="#63b8ff" d="M110.55,-230.87C116.61,-222.23 126.09,-208.7 133.64,-197.92"/>
<polygon fill="#63b8ff" stroke="#63b8ff" points="136.55,-199.87 139.43,-189.67 130.82,-195.85 136.55,-199.87"/>
</a>
</g>
</g>
<!-- Node19&#45;&gt;Node8 -->
<g id="edge21_Node000019_Node000008" class="edge">
<title>Node19&#45;&gt;Node8</title>
<g id="a_edge21_Node000019_Node000008"><a xlink:title=" ">
<path fill="none" stroke="#63b8ff" d="M103.26,-230.98C101.56,-216.36 100.04,-186.04 112.5,-165 156.11,-91.38 190.71,-85.9 270.5,-55 375.11,-14.48 510.09,-9.57 573.13,-9.75"/>
<polygon fill="#63b8ff" stroke="#63b8ff" points="573.31,-13.25 583.33,-9.82 573.36,-6.25 573.31,-13.25"/>
</a>
</g>
</g>
<!-- Node20 -->
<g id="Node000020" class="node">
<title>Node20</title>
<g id="a_Node000020"><a xlink:title=" ">
<polygon fill="#e0e0e0" stroke="#999999" points="65,-189.5 0,-189.5 0,-170.5 65,-170.5 65,-189.5"/>
<text text-anchor="middle" x="32.5" y="-177.5" font-family="Helvetica,sans-Serif" font-size="10.00">stdexcept</text>
</a>
</g>
</g>
<!-- Node19&#45;&gt;Node20 -->
<g id="edge22_Node000019_Node000020" class="edge">
<title>Node19&#45;&gt;Node20</title>
<g id="a_edge22_Node000019_Node000020"><a xlink:title=" ">
<path fill="none" stroke="#63b8ff" d="M93.88,-230.87C82.6,-221.71 64.58,-207.06 50.97,-196.01"/>
<polygon fill="#63b8ff" stroke="#63b8ff" points="53.14,-193.26 43.17,-189.67 48.72,-198.69 53.14,-193.26"/>
</a>
</g>
</g>
<!-- Node21&#45;&gt;Node3 -->
<g id="edge31_Node000021_Node000003" class="edge">
<title>Node21&#45;&gt;Node3</title>
<g id="a_edge31_Node000021_Node000003"><a xlink:title=" ">
<path fill="none" stroke="#63b8ff" d="M249.76,-230.99C229.43,-221.25 195.89,-205.16 172.36,-193.88"/>
<polygon fill="#63b8ff" stroke="#63b8ff" points="173.79,-190.68 163.26,-189.52 170.76,-197 173.79,-190.68"/>
</a>
</g>
</g>
<!-- Node21&#45;&gt;Node4 -->
<g id="edge32_Node000021_Node000004" class="edge">
<title>Node21&#45;&gt;Node4</title>
<g id="a_edge32_Node000021_Node000004"><a xlink:title=" ">
<path fill="none" stroke="#63b8ff" d="M335.09,-231.93C338.27,-231.61 341.42,-231.3 344.5,-231 541.14,-212.16 596.23,-244.38 787.5,-195 789.19,-194.56 790.9,-194.04 792.61,-193.46"/>
<polygon fill="#63b8ff" stroke="#63b8ff" points="794.17,-196.61 802.15,-189.64 791.57,-190.11 794.17,-196.61"/>
</a>
</g>
</g>
<!-- Node21&#45;&gt;Node5 -->
<g id="edge26_Node000021_Node000005" class="edge">
<title>Node21&#45;&gt;Node5</title>
<g id="a_edge26_Node000021_Node000005"><a xlink:title=" ">
<path fill="none" stroke="#63b8ff" d="M295.42,-230.99C328.69,-220.86 384.45,-203.87 421.6,-192.55"/>
<polygon fill="#63b8ff" stroke="#63b8ff" points="423,-195.78 431.55,-189.52 420.96,-189.08 423,-195.78"/>
</a>
</g>
</g>
<!-- Node21&#45;&gt;Node8 -->
<g id="edge30_Node000021_Node000008" class="edge">
<title>Node21&#45;&gt;Node8</title>
<g id="a_edge30_Node000021_Node000008"><a xlink:title=" ">
<path fill="none" stroke="#63b8ff" d="M265.16,-230.64C257.94,-201.06 239.25,-104.71 287.5,-55 326.34,-14.98 497.53,-10.26 572.79,-10.16"/>
<polygon fill="#63b8ff" stroke="#63b8ff" points="573.17,-13.66 583.17,-10.18 573.18,-6.66 573.17,-13.66"/>
</a>
</g>
</g>
<!-- Node21&#45;&gt;Node13 -->
<g id="edge25_Node000021_Node000013" class="edge">
<title>Node21&#45;&gt;Node13</title>
<g id="a_edge25_Node000021_Node000013"><a xlink:title=" ">
<path fill="none" stroke="#63b8ff" d="M271.68,-230.96C279.5,-215.77 297.74,-183.88 321.5,-165 421.29,-85.7 567.74,-40.37 641.48,-21.3"/>
<polygon fill="#63b8ff" stroke="#63b8ff" points="642.56,-24.64 651.39,-18.78 640.83,-17.85 642.56,-24.64"/>
</a>
</g>
</g>
<!-- Node22 -->
<g id="Node000022" class="node">
<title>Node22</title>
<g id="a_Node000022"><a xlink:title=" ">
<polygon fill="#e0e0e0" stroke="#999999" points="235.5,-189.5 187.5,-189.5 187.5,-170.5 235.5,-170.5 235.5,-189.5"/>
<text text-anchor="middle" x="211.5" y="-177.5" font-family="Helvetica,sans-Serif" font-size="10.00">mutex</text>
</a>
</g>
</g>
<!-- Node21&#45;&gt;Node22 -->
<g id="edge27_Node000021_Node000022" class="edge">
<title>Node21&#45;&gt;Node22</title>
<g id="a_edge27_Node000021_Node000022"><a xlink:title=" ">
<path fill="none" stroke="#63b8ff" d="M259.24,-230.87C250.72,-221.97 237.24,-207.89 226.77,-196.95"/>
<polygon fill="#63b8ff" stroke="#63b8ff" points="229.24,-194.47 219.8,-189.67 224.18,-199.31 229.24,-194.47"/>
</a>
</g>
</g>
<!-- Node23 -->
<g id="Node000023" class="node">
<title>Node23</title>
<g id="a_Node000023"><a xlink:title=" ">
<polygon fill="#e0e0e0" stroke="#999999" points="580.5,-189.5 524.5,-189.5 524.5,-170.5 580.5,-170.5 580.5,-189.5"/>
<text text-anchor="middle" x="552.5" y="-177.5" font-family="Helvetica,sans-Serif" font-size="10.00">optional</text>
</a>
</g>
</g>
<!-- Node21&#45;&gt;Node23 -->
<g id="edge28_Node000021_Node000023" class="edge">
<title>Node21&#45;&gt;Node23</title>
<g id="a_edge28_Node000021_Node000023"><a xlink:title=" ">
<path fill="none" stroke="#63b8ff" d="M333.77,-231C384.15,-223.72 454.89,-211.75 515.5,-195 517.79,-194.37 520.14,-193.65 522.48,-192.88"/>
<polygon fill="#63b8ff" stroke="#63b8ff" points="523.71,-196.16 531.98,-189.53 521.39,-189.56 523.71,-196.16"/>
</a>
</g>
</g>
<!-- Node24 -->
<g id="Node000024" class="node">
<title>Node24</title>
<g id="a_Node000024"><a xlink:title=" ">
<polygon fill="#e0e0e0" stroke="#999999" points="395,-189.5 330,-189.5 330,-170.5 395,-170.5 395,-189.5"/>
<text text-anchor="middle" x="362.5" y="-177.5" font-family="Helvetica,sans-Serif" font-size="10.00">functional</text>
</a>
</g>
</g>
<!-- Node21&#45;&gt;Node24 -->
<g id="edge29_Node000021_Node000024" class="edge">
<title>Node21&#45;&gt;Node24</title>
<g id="a_edge29_Node000021_Node000024"><a xlink:title=" ">
<path fill="none" stroke="#63b8ff" d="M281.52,-230.87C296.81,-221.45 321.53,-206.23 339.64,-195.08"/>
<polygon fill="#63b8ff" stroke="#63b8ff" points="341.75,-197.89 348.42,-189.67 338.07,-191.93 341.75,-197.89"/>
</a>
</g>
</g>
<!-- Node25&#45;&gt;Node4 -->
<g id="edge34_Node000025_Node000004" class="edge">
<title>Node25&#45;&gt;Node4</title>
<g id="a_edge34_Node000025_Node000004"><a xlink:title=" ">
<path fill="none" stroke="#63b8ff" d="M622.02,-230.98C668.97,-223.94 732.96,-212.28 787.5,-195 788.94,-194.54 790.41,-194.04 791.87,-193.5"/>
<polygon fill="#63b8ff" stroke="#63b8ff" points="793.48,-196.62 801.4,-189.58 790.82,-190.15 793.48,-196.62"/>
</a>
</g>
</g>
<!-- Node25&#45;&gt;Node5 -->
<g id="edge35_Node000025_Node000005" class="edge">
<title>Node25&#45;&gt;Node5</title>
<g id="a_edge35_Node000025_Node000005"><a xlink:title=" ">
<path fill="none" stroke="#63b8ff" d="M541.33,-230.87C525.81,-221.41 500.67,-206.09 482.35,-194.92"/>
<polygon fill="#63b8ff" stroke="#63b8ff" points="484.08,-191.88 473.72,-189.67 480.44,-197.86 484.08,-191.88"/>
</a>
</g>
</g>
<!-- Node25&#45;&gt;Node8 -->
<g id="edge37_Node000025_Node000008" class="edge">
<title>Node25&#45;&gt;Node8</title>
<g id="a_edge37_Node000025_Node000008"><a xlink:title=" ">
<path fill="none" stroke="#63b8ff" d="M564.45,-230.89C572.51,-222.54 583.91,-209.1 589.5,-195 612.11,-137.99 611.59,-63.68 609.85,-29.37"/>
<polygon fill="#63b8ff" stroke="#63b8ff" points="613.34,-29.12 609.24,-19.35 606.35,-29.55 613.34,-29.12"/>
</a>
</g>
</g>
<!-- Node25&#45;&gt;Node23 -->
<g id="edge36_Node000025_Node000023" class="edge">
<title>Node25&#45;&gt;Node23</title>
<g id="a_edge36_Node000025_Node000023"><a xlink:title=" ">
<path fill="none" stroke="#63b8ff" d="M555.06,-230.87C554.64,-222.75 554,-210.31 553.47,-199.89"/>
<polygon fill="#63b8ff" stroke="#63b8ff" points="556.95,-199.47 552.94,-189.67 549.96,-199.83 556.95,-199.47"/>
</a>
</g>
</g>
<!-- Node26&#45;&gt;Node4 -->
<g id="edge39_Node000026_Node000004" class="edge">
<title>Node26&#45;&gt;Node4</title>
<g id="a_edge39_Node000026_Node000004"><a xlink:title=" ">
<path fill="none" stroke="#63b8ff" d="M737.52,-230.87C752.81,-221.45 777.53,-206.23 795.64,-195.08"/>
<polygon fill="#63b8ff" stroke="#63b8ff" points="797.75,-197.89 804.42,-189.67 794.07,-191.93 797.75,-197.89"/>
</a>
</g>
</g>
<!-- Node26&#45;&gt;Node23 -->
<g id="edge40_Node000026_Node000023" class="edge">
<title>Node26&#45;&gt;Node23</title>
<g id="a_edge40_Node000026_Node000023"><a xlink:title=" ">
<path fill="none" stroke="#63b8ff" d="M698.64,-230.99C669.25,-220.94 620.19,-204.16 587.11,-192.84"/>
<polygon fill="#63b8ff" stroke="#63b8ff" points="587.99,-189.44 577.39,-189.52 585.72,-196.07 587.99,-189.44"/>
</a>
</g>
</g>
<!-- Node27 -->
<g id="Node000027" class="node">
<title>Node27</title>
<g id="a_Node000027"><a xlink:href="UDPSocket_8hpp.html" target="_top" xlink:title=" ">
<polygon fill="white" stroke="#666666" points="778.5,-195 636.5,-195 636.5,-165 778.5,-165 778.5,-195"/>
<text text-anchor="start" x="644.5" y="-183" font-family="Helvetica,sans-Serif" font-size="10.00">../Network/TransportLayer</text>
<text text-anchor="middle" x="707.5" y="-172" font-family="Helvetica,sans-Serif" font-size="10.00">/UDP/UDPSocket.hpp</text>
</a>
</g>
</g>
<!-- Node26&#45;&gt;Node27 -->
<g id="edge41_Node000026_Node000027" class="edge">
<title>Node26&#45;&gt;Node27</title>
<g id="a_edge41_Node000026_Node000027"><a xlink:title=" ">
<path fill="none" stroke="#63b8ff" d="M721.14,-230.87C719.27,-224.03 716.56,-214.14 714.06,-204.97"/>
<polygon fill="#63b8ff" stroke="#63b8ff" points="717.37,-203.84 711.36,-195.11 710.62,-205.68 717.37,-203.84"/>
</a>
</g>
</g>
<!-- Node27&#45;&gt;Node8 -->
<g id="edge43_Node000027_Node000008" class="edge">
<title>Node27&#45;&gt;Node8</title>
<g id="a_edge43_Node000027_Node000008"><a xlink:title=" ">
<path fill="none" stroke="#63b8ff" d="M699.23,-164.92C681.21,-134.26 638.45,-61.48 618.76,-27.96"/>
<polygon fill="#63b8ff" stroke="#63b8ff" points="621.73,-26.1 613.64,-19.25 615.69,-29.65 621.73,-26.1"/>
</a>
</g>
</g>
<!-- Node27&#45;&gt;Node9 -->
<g id="edge42_Node000027_Node000009" class="edge">
<title>Node27&#45;&gt;Node9</title>
<g id="a_edge42_Node000027_Node000009"><a xlink:title=" ">
<path fill="none" stroke="#63b8ff" d="M738.16,-164.99C759.23,-155.36 786.99,-142.67 807.47,-133.31"/>
<polygon fill="#63b8ff" stroke="#63b8ff" points="808.96,-136.48 816.6,-129.14 806.05,-130.11 808.96,-136.48"/>
</a>
</g>
</g>
</g>
</svg>
