<?xml version="1.0" encoding="UTF-8" standalone="no"?>
<!DOCTYPE svg PUBLIC "-//W3C//DTD SVG 1.1//EN"
 "http://www.w3.org/Graphics/SVG/1.1/DTD/svg11.dtd">
<!-- Generated by graphviz version 2.43.0 (0)
 -->
<!-- Title: Network/TransportLayer/TCP/TCPServer.cpp Pages: 1 -->
<svg width="1495pt" height="379pt"
 viewBox="0.00 0.00 1494.50 379.00" xmlns="http://www.w3.org/2000/svg" xmlns:xlink="http://www.w3.org/1999/xlink">
<g id="graph0" class="graph" transform="scale(1 1) rotate(0) translate(4 375)">
<title>Network/TransportLayer/TCP/TCPServer.cpp</title>
<!-- Node1 -->
<g id="Node000001" class="node">
<title>Node1</title>
<g id="a_Node000001"><a xlink:title=" ">
<polygon fill="#999999" stroke="#666666" points="1152.5,-371 1019.5,-371 1019.5,-341 1152.5,-341 1152.5,-371"/>
<text text-anchor="start" x="1027.5" y="-359" font-family="Helvetica,sans-Serif" font-size="10.00">Network/TransportLayer</text>
<text text-anchor="middle" x="1086" y="-348" font-family="Helvetica,sans-Serif" font-size="10.00">/TCP/TCPServer.cpp</text>
</a>
</g>
</g>
<!-- Node2 -->
<g id="Node000002" class="node">
<title>Node2</title>
<g id="a_Node000002"><a xlink:href="TCPServer_8hpp.html" target="_top" xlink:title=" ">
<polygon fill="white" stroke="#666666" points="581,-305 495,-305 495,-286 581,-286 581,-305"/>
<text text-anchor="middle" x="538" y="-293" font-family="Helvetica,sans-Serif" font-size="10.00">TCPServer.hpp</text>
</a>
</g>
</g>
<!-- Node1&#45;&gt;Node2 -->
<g id="edge1_Node000001_Node000002" class="edge">
<title>Node1&#45;&gt;Node2</title>
<g id="a_edge1_Node000001_Node000002"><a xlink:title=" ">
<path fill="none" stroke="#63b8ff" d="M1019.35,-347.89C909.29,-336.14 691.75,-312.91 591.22,-302.18"/>
<polygon fill="#63b8ff" stroke="#63b8ff" points="591.32,-298.67 581,-301.09 590.57,-305.63 591.32,-298.67"/>
</a>
</g>
</g>
<!-- Node5 -->
<g id="Node000005" class="node">
<title>Node5</title>
<g id="a_Node000005"><a xlink:title=" ">
<polygon fill="#e0e0e0" stroke="#999999" points="935,-189.5 891,-189.5 891,-170.5 935,-170.5 935,-189.5"/>
<text text-anchor="middle" x="913" y="-177.5" font-family="Helvetica,sans-Serif" font-size="10.00">string</text>
</a>
</g>
</g>
<!-- Node1&#45;&gt;Node5 -->
<g id="edge50_Node000001_Node000005" class="edge">
<title>Node1&#45;&gt;Node5</title>
<g id="a_edge50_Node000001_Node000005"><a xlink:title=" ">
<path fill="none" stroke="#63b8ff" d="M1032.1,-340.99C1010.67,-333.24 987.1,-321.7 970,-305 939.59,-275.31 923.81,-226.35 917.09,-199.7"/>
<polygon fill="#63b8ff" stroke="#63b8ff" points="920.45,-198.69 914.75,-189.76 913.64,-200.3 920.45,-198.69"/>
</a>
</g>
</g>
<!-- Node9 -->
<g id="Node000009" class="node">
<title>Node9</title>
<g id="a_Node000009"><a xlink:title=" ">
<polygon fill="#e0e0e0" stroke="#999999" points="420,-19 370,-19 370,0 420,0 420,-19"/>
<text text-anchor="middle" x="395" y="-7" font-family="Helvetica,sans-Serif" font-size="10.00">cstdint</text>
</a>
</g>
</g>
<!-- Node1&#45;&gt;Node9 -->
<g id="edge47_Node000001_Node000009" class="edge">
<title>Node1&#45;&gt;Node9</title>
<g id="a_edge47_Node000001_Node000009"><a xlink:title=" ">
<path fill="none" stroke="#63b8ff" d="M1019.32,-353.9C809.8,-350.12 173.33,-336.18 86,-305 41.25,-289.02 0,-289.01 0,-241.5 0,-241.5 0,-241.5 0,-118.5 0,-73.8 37.03,-72.87 78,-55 128.03,-33.18 287.9,-18.64 359.61,-13.06"/>
<polygon fill="#63b8ff" stroke="#63b8ff" points="360.22,-16.53 369.93,-12.27 359.69,-9.55 360.22,-16.53"/>
</a>
</g>
</g>
<!-- Node29 -->
<g id="Node000029" class="node">
<title>Node29</title>
<g id="a_Node000029"><a xlink:title=" ">
<polygon fill="#e0e0e0" stroke="#999999" points="1043,-305 979,-305 979,-286 1043,-286 1043,-305"/>
<text text-anchor="middle" x="1011" y="-293" font-family="Helvetica,sans-Serif" font-size="10.00">algorithm</text>
</a>
</g>
</g>
<!-- Node1&#45;&gt;Node29 -->
<g id="edge45_Node000001_Node000029" class="edge">
<title>Node1&#45;&gt;Node29</title>
<g id="a_edge45_Node000001_Node000029"><a xlink:title=" ">
<path fill="none" stroke="#63b8ff" d="M1067.84,-340.84C1056.51,-332 1041.94,-320.63 1030.38,-311.62"/>
<polygon fill="#63b8ff" stroke="#63b8ff" points="1032.28,-308.66 1022.24,-305.27 1027.97,-314.18 1032.28,-308.66"/>
</a>
</g>
</g>
<!-- Node30 -->
<g id="Node000030" class="node">
<title>Node30</title>
<g id="a_Node000030"><a xlink:title=" ">
<polygon fill="#e0e0e0" stroke="#999999" points="1111,-305 1061,-305 1061,-286 1111,-286 1111,-305"/>
<text text-anchor="middle" x="1086" y="-293" font-family="Helvetica,sans-Serif" font-size="10.00">chrono</text>
</a>
</g>
</g>
<!-- Node1&#45;&gt;Node30 -->
<g id="edge46_Node000001_Node000030" class="edge">
<title>Node1&#45;&gt;Node30</title>
<g id="a_edge46_Node000001_Node000030"><a xlink:title=" ">
<path fill="none" stroke="#63b8ff" d="M1086,-340.84C1086,-333.21 1086,-323.7 1086,-315.45"/>
<polygon fill="#63b8ff" stroke="#63b8ff" points="1089.5,-315.27 1086,-305.27 1082.5,-315.27 1089.5,-315.27"/>
</a>
</g>
</g>
<!-- Node31 -->
<g id="Node000031" class="node">
<title>Node31</title>
<g id="a_Node000031"><a xlink:title=" ">
<polygon fill="#e0e0e0" stroke="#999999" points="1197,-305 1129,-305 1129,-286 1197,-286 1197,-305"/>
<text text-anchor="middle" x="1163" y="-293" font-family="Helvetica,sans-Serif" font-size="10.00">filesystem</text>
</a>
</g>
</g>
<!-- Node1&#45;&gt;Node31 -->
<g id="edge48_Node000001_Node000031" class="edge">
<title>Node1&#45;&gt;Node31</title>
<g id="a_edge48_Node000001_Node000031"><a xlink:title=" ">
<path fill="none" stroke="#63b8ff" d="M1104.64,-340.84C1116.39,-331.91 1131.53,-320.41 1143.45,-311.35"/>
<polygon fill="#63b8ff" stroke="#63b8ff" points="1145.62,-314.1 1151.46,-305.27 1141.38,-308.53 1145.62,-314.1"/>
</a>
</g>
</g>
<!-- Node32 -->
<g id="Node000032" class="node">
<title>Node32</title>
<g id="a_Node000032"><a xlink:title=" ">
<polygon fill="#e0e0e0" stroke="#999999" points="1275,-305 1215,-305 1215,-286 1275,-286 1275,-305"/>
<text text-anchor="middle" x="1245" y="-293" font-family="Helvetica,sans-Serif" font-size="10.00">iostream</text>
</a>
</g>
</g>
<!-- Node1&#45;&gt;Node32 -->
<g id="edge49_Node000001_Node000032" class="edge">
<title>Node1&#45;&gt;Node32</title>
<g id="a_edge49_Node000001_Node000032"><a xlink:title=" ">
<path fill="none" stroke="#63b8ff" d="M1124.08,-340.99C1150.85,-331.14 1186.3,-318.1 1211.89,-308.68"/>
<polygon fill="#63b8ff" stroke="#63b8ff" points="1213.34,-311.88 1221.52,-305.14 1210.93,-305.31 1213.34,-311.88"/>
</a>
</g>
</g>
<!-- Node33 -->
<g id="Node000033" class="node">
<title>Node33</title>
<g id="a_Node000033"><a xlink:title=" ">
<polygon fill="#e0e0e0" stroke="#999999" points="1347,-305 1293,-305 1293,-286 1347,-286 1347,-305"/>
<text text-anchor="middle" x="1320" y="-293" font-family="Helvetica,sans-Serif" font-size="10.00">random</text>
</a>
</g>
</g>
<!-- Node1&#45;&gt;Node33 -->
<g id="edge51_Node000001_Node000033" class="edge">
<title>Node1&#45;&gt;Node33</title>
<g id="a_edge51_Node000001_Node000033"><a xlink:title=" ">
<path fill="none" stroke="#63b8ff" d="M1142.05,-340.99C1185.68,-330.08 1244.99,-315.25 1282.89,-305.78"/>
<polygon fill="#63b8ff" stroke="#63b8ff" points="1284.13,-309.08 1292.98,-303.25 1282.43,-302.28 1284.13,-309.08"/>
</a>
</g>
</g>
<!-- Node34 -->
<g id="Node000034" class="node">
<title>Node34</title>
<g id="a_Node000034"><a xlink:title=" ">
<polygon fill="#e0e0e0" stroke="#999999" points="1413,-305 1365,-305 1365,-286 1413,-286 1413,-305"/>
<text text-anchor="middle" x="1389" y="-293" font-family="Helvetica,sans-Serif" font-size="10.00">thread</text>
</a>
</g>
</g>
<!-- Node1&#45;&gt;Node34 -->
<g id="edge52_Node000001_Node000034" class="edge">
<title>Node1&#45;&gt;Node34</title>
<g id="a_edge52_Node000001_Node000034"><a xlink:title=" ">
<path fill="none" stroke="#63b8ff" d="M1152.56,-343.99C1205.01,-335.01 1280.2,-321.48 1354.85,-305.13"/>
<polygon fill="#63b8ff" stroke="#63b8ff" points="1355.89,-308.49 1364.9,-302.91 1354.38,-301.65 1355.89,-308.49"/>
</a>
</g>
</g>
<!-- Node35 -->
<g id="Node000035" class="node">
<title>Node35</title>
<g id="a_Node000035"><a xlink:title=" ">
<polygon fill="#e0e0e0" stroke="#999999" points="1486.5,-305 1431.5,-305 1431.5,-286 1486.5,-286 1486.5,-305"/>
<text text-anchor="middle" x="1459" y="-293" font-family="Helvetica,sans-Serif" font-size="10.00">fstream</text>
</a>
</g>
</g>
<!-- Node1&#45;&gt;Node35 -->
<g id="edge53_Node000001_Node000035" class="edge">
<title>Node1&#45;&gt;Node35</title>
<g id="a_edge53_Node000001_Node000035"><a xlink:title=" ">
<path fill="none" stroke="#63b8ff" d="M1152.56,-346.65C1218.34,-338.05 1322.04,-323.55 1421.27,-305"/>
<polygon fill="#63b8ff" stroke="#63b8ff" points="1421.99,-308.43 1431.17,-303.14 1420.69,-301.55 1421.99,-308.43"/>
</a>
</g>
</g>
<!-- Node36 -->
<g id="Node000036" class="node">
<title>Node36</title>
<g id="a_Node000036"><a xlink:href="Protocol_8hpp.html" target="_top" xlink:title=" ">
<polygon fill="white" stroke="#666666" points="181,-305 95,-305 95,-286 181,-286 181,-305"/>
<text text-anchor="middle" x="138" y="-293" font-family="Helvetica,sans-Serif" font-size="10.00">../Protocol.hpp</text>
</a>
</g>
</g>
<!-- Node1&#45;&gt;Node36 -->
<g id="edge54_Node000001_Node000036" class="edge">
<title>Node1&#45;&gt;Node36</title>
<g id="a_edge54_Node000001_Node000036"><a xlink:title=" ">
<path fill="none" stroke="#63b8ff" d="M1019.34,-350.89C840.67,-339.86 353.63,-309.81 191.39,-299.79"/>
<polygon fill="#63b8ff" stroke="#63b8ff" points="191.37,-296.29 181.18,-299.16 190.94,-303.27 191.37,-296.29"/>
</a>
</g>
</g>
<!-- Node3 -->
<g id="Node000003" class="node">
<title>Node3</title>
<g id="a_Node000003"><a xlink:title=" ">
<polygon fill="#e0e0e0" stroke="#999999" points="280,-250 238,-250 238,-231 280,-231 280,-250"/>
<text text-anchor="middle" x="259" y="-238" font-family="Helvetica,sans-Serif" font-size="10.00">array</text>
</a>
</g>
</g>
<!-- Node2&#45;&gt;Node3 -->
<g id="edge2_Node000002_Node000003" class="edge">
<title>Node2&#45;&gt;Node3</title>
<g id="a_edge2_Node000002_Node000003"><a xlink:title=" ">
<path fill="none" stroke="#63b8ff" d="M495,-288.14C447.2,-280.78 367.55,-267.65 290.15,-250.08"/>
<polygon fill="#63b8ff" stroke="#63b8ff" points="290.77,-246.63 280.24,-247.8 289.2,-253.45 290.77,-246.63"/>
</a>
</g>
</g>
<!-- Node4 -->
<g id="Node000004" class="node">
<title>Node4</title>
<g id="a_Node000004"><a xlink:title=" ">
<polygon fill="#e0e0e0" stroke="#999999" points="234.5,-189.5 187.5,-189.5 187.5,-170.5 234.5,-170.5 234.5,-189.5"/>
<text text-anchor="middle" x="211" y="-177.5" font-family="Helvetica,sans-Serif" font-size="10.00">vector</text>
</a>
</g>
</g>
<!-- Node2&#45;&gt;Node4 -->
<g id="edge3_Node000002_Node000004" class="edge">
<title>Node2&#45;&gt;Node4</title>
<g id="a_edge3_Node000002_Node000004"><a xlink:title=" ">
<path fill="none" stroke="#63b8ff" d="M494.93,-294C419.41,-292.22 267.44,-284.36 229,-250 215.04,-237.52 211.29,-215.69 210.56,-199.93"/>
<polygon fill="#63b8ff" stroke="#63b8ff" points="214.06,-199.7 210.46,-189.74 207.06,-199.77 214.06,-199.7"/>
</a>
</g>
</g>
<!-- Node2&#45;&gt;Node5 -->
<g id="edge4_Node000002_Node000005" class="edge">
<title>Node2&#45;&gt;Node5</title>
<g id="a_edge4_Node000002_Node000005"><a xlink:title=" ">
<path fill="none" stroke="#63b8ff" d="M581.18,-294.89C665.56,-294.76 848.07,-289.73 894,-250 908.22,-237.7 912.26,-215.84 913.2,-200.02"/>
<polygon fill="#63b8ff" stroke="#63b8ff" points="916.7,-199.86 913.43,-189.78 909.71,-199.7 916.7,-199.86"/>
</a>
</g>
</g>
<!-- Node6 -->
<g id="Node000006" class="node">
<title>Node6</title>
<g id="a_Node000006"><a xlink:title=" ">
<polygon fill="#e0e0e0" stroke="#999999" points="600.5,-189.5 507.5,-189.5 507.5,-170.5 600.5,-170.5 600.5,-189.5"/>
<text text-anchor="middle" x="554" y="-177.5" font-family="Helvetica,sans-Serif" font-size="10.00">unordered_map</text>
</a>
</g>
</g>
<!-- Node2&#45;&gt;Node6 -->
<g id="edge5_Node000002_Node000006" class="edge">
<title>Node2&#45;&gt;Node6</title>
<g id="a_edge5_Node000002_Node000006"><a xlink:title=" ">
<path fill="none" stroke="#63b8ff" d="M539.2,-285.97C541.77,-267.73 547.86,-224.57 551.37,-199.64"/>
<polygon fill="#63b8ff" stroke="#63b8ff" points="554.85,-200.02 552.78,-189.63 547.92,-199.04 554.85,-200.02"/>
</a>
</g>
</g>
<!-- Node7 -->
<g id="Node000007" class="node">
<title>Node7</title>
<g id="a_Node000007"><a xlink:title=" ">
<polygon fill="#e0e0e0" stroke="#999999" points="356,-250 298,-250 298,-231 356,-231 356,-250"/>
<text text-anchor="middle" x="327" y="-238" font-family="Helvetica,sans-Serif" font-size="10.00">memory</text>
</a>
</g>
</g>
<!-- Node2&#45;&gt;Node7 -->
<g id="edge6_Node000002_Node000007" class="edge">
<title>Node2&#45;&gt;Node7</title>
<g id="a_edge6_Node000002_Node000007"><a xlink:title=" ">
<path fill="none" stroke="#63b8ff" d="M504.1,-285.98C466.38,-276.51 405.53,-261.23 365.9,-251.27"/>
<polygon fill="#63b8ff" stroke="#63b8ff" points="366.61,-247.84 356.06,-248.8 364.91,-254.63 366.61,-247.84"/>
</a>
</g>
</g>
<!-- Node8 -->
<g id="Node000008" class="node">
<title>Node8</title>
<g id="a_Node000008"><a xlink:href="TCPSocket_8hpp.html" target="_top" xlink:title=" ">
<polygon fill="white" stroke="#666666" points="1067,-250 979,-250 979,-231 1067,-231 1067,-250"/>
<text text-anchor="middle" x="1023" y="-238" font-family="Helvetica,sans-Serif" font-size="10.00">TCPSocket.hpp</text>
</a>
</g>
</g>
<!-- Node2&#45;&gt;Node8 -->
<g id="edge7_Node000002_Node000008" class="edge">
<title>Node2&#45;&gt;Node8</title>
<g id="a_edge7_Node000002_Node000008"><a xlink:title=" ">
<path fill="none" stroke="#63b8ff" d="M581.04,-289.8C669.39,-280.14 871.09,-258.1 968.44,-247.46"/>
<polygon fill="#63b8ff" stroke="#63b8ff" points="969.1,-250.91 978.66,-246.35 968.34,-243.95 969.1,-250.91"/>
</a>
</g>
</g>
<!-- Node20 -->
<g id="Node000020" class="node">
<title>Node20</title>
<g id="a_Node000020"><a xlink:href="Packet_8hpp.html" target="_top" xlink:title=" ">
<polygon fill="white" stroke="#666666" points="144,-250 66,-250 66,-231 144,-231 144,-250"/>
<text text-anchor="middle" x="105" y="-238" font-family="Helvetica,sans-Serif" font-size="10.00">../Packet.hpp</text>
</a>
</g>
</g>
<!-- Node2&#45;&gt;Node20 -->
<g id="edge21_Node000002_Node000020" class="edge">
<title>Node2&#45;&gt;Node20</title>
<g id="a_edge21_Node000002_Node000020"><a xlink:title=" ">
<path fill="none" stroke="#63b8ff" d="M494.9,-289.22C413.91,-279.31 239.5,-257.96 154.11,-247.51"/>
<polygon fill="#63b8ff" stroke="#63b8ff" points="154.5,-244.03 144.15,-246.29 153.65,-250.98 154.5,-244.03"/>
</a>
</g>
</g>
<!-- Node22 -->
<g id="Node000022" class="node">
<title>Node22</title>
<g id="a_Node000022"><a xlink:href="SessionManager_8hpp.html" target="_top" xlink:title=" ">
<polygon fill="white" stroke="#666666" points="509.5,-250 374.5,-250 374.5,-231 509.5,-231 509.5,-250"/>
<text text-anchor="middle" x="442" y="-238" font-family="Helvetica,sans-Serif" font-size="10.00">../../SessionManager.hpp</text>
</a>
</g>
</g>
<!-- Node2&#45;&gt;Node22 -->
<g id="edge25_Node000002_Node000022" class="edge">
<title>Node2&#45;&gt;Node22</title>
<g id="a_edge25_Node000002_Node000022"><a xlink:title=" ">
<path fill="none" stroke="#63b8ff" d="M522.58,-285.98C507.55,-277.69 484.46,-264.94 466.84,-255.22"/>
<polygon fill="#63b8ff" stroke="#63b8ff" points="468.15,-251.94 457.7,-250.17 464.77,-258.07 468.15,-251.94"/>
</a>
</g>
</g>
<!-- Node26 -->
<g id="Node000026" class="node">
<title>Node26</title>
<g id="a_Node000026"><a xlink:href="ChildProcessManager_8hpp.html" target="_top" xlink:title=" ">
<polygon fill="white" stroke="#666666" points="742,-250 566,-250 566,-231 742,-231 742,-250"/>
<text text-anchor="middle" x="654" y="-238" font-family="Helvetica,sans-Serif" font-size="10.00">server/ChildProcessManager.hpp</text>
</a>
</g>
</g>
<!-- Node2&#45;&gt;Node26 -->
<g id="edge34_Node000002_Node000026" class="edge">
<title>Node2&#45;&gt;Node26</title>
<g id="a_edge34_Node000002_Node000026"><a xlink:title=" ">
<path fill="none" stroke="#63b8ff" d="M556.64,-285.98C575.3,-277.46 604.25,-264.23 625.74,-254.41"/>
<polygon fill="#63b8ff" stroke="#63b8ff" points="627.38,-257.51 635.02,-250.17 624.47,-251.14 627.38,-257.51"/>
</a>
</g>
</g>
<!-- Node27 -->
<g id="Node000027" class="node">
<title>Node27</title>
<g id="a_Node000027"><a xlink:href="IpcChannel_8hpp.html" target="_top" xlink:title=" ">
<polygon fill="white" stroke="#666666" points="884.5,-250 759.5,-250 759.5,-231 884.5,-231 884.5,-250"/>
<text text-anchor="middle" x="822" y="-238" font-family="Helvetica,sans-Serif" font-size="10.00">server/IpcChannel.hpp</text>
</a>
</g>
</g>
<!-- Node2&#45;&gt;Node27 -->
<g id="edge39_Node000002_Node000027" class="edge">
<title>Node2&#45;&gt;Node27</title>
<g id="a_edge39_Node000002_Node000027"><a xlink:title=" ">
<path fill="none" stroke="#63b8ff" d="M581.13,-286.45C630.55,-277.23 711.69,-262.09 765.96,-251.96"/>
<polygon fill="#63b8ff" stroke="#63b8ff" points="766.91,-255.34 776.1,-250.07 765.63,-248.46 766.91,-255.34"/>
</a>
</g>
</g>
<!-- Node8&#45;&gt;Node5 -->
<g id="edge8_Node000008_Node000005" class="edge">
<title>Node8&#45;&gt;Node5</title>
<g id="a_edge8_Node000008_Node000005"><a xlink:title=" ">
<path fill="none" stroke="#63b8ff" d="M1006.77,-230.87C988.73,-221.28 959.38,-205.67 938.32,-194.47"/>
<polygon fill="#63b8ff" stroke="#63b8ff" points="939.77,-191.27 929.3,-189.67 936.48,-197.45 939.77,-191.27"/>
</a>
</g>
</g>
<!-- Node8&#45;&gt;Node9 -->
<g id="edge9_Node000008_Node000009" class="edge">
<title>Node8&#45;&gt;Node9</title>
<g id="a_edge9_Node000008_Node000009"><a xlink:title=" ">
<path fill="none" stroke="#63b8ff" d="M1019.29,-230.65C1012.57,-215.54 997.13,-184.5 976,-165 937.28,-129.27 919.97,-129.41 871,-110 713.64,-47.63 510.79,-21.92 430.23,-13.71"/>
<polygon fill="#63b8ff" stroke="#63b8ff" points="430.43,-10.21 420.13,-12.7 429.74,-17.18 430.43,-10.21"/>
</a>
</g>
</g>
<!-- Node10 -->
<g id="Node000010" class="node">
<title>Node10</title>
<g id="a_Node000010"><a xlink:href="ASocket_8hpp.html" target="_top" xlink:title=" ">
<polygon fill="white" stroke="#666666" points="862,-129 776,-129 776,-110 862,-110 862,-129"/>
<text text-anchor="middle" x="819" y="-117" font-family="Helvetica,sans-Serif" font-size="10.00">../ASocket.hpp</text>
</a>
</g>
</g>
<!-- Node8&#45;&gt;Node10 -->
<g id="edge10_Node000008_Node000010" class="edge">
<title>Node8&#45;&gt;Node10</title>
<g id="a_edge10_Node000008_Node000010"><a xlink:title=" ">
<path fill="none" stroke="#63b8ff" d="M1016.05,-230.93C1003.27,-215.68 974.55,-183.69 944,-165 919.56,-150.05 889.37,-139.12 864.78,-131.84"/>
<polygon fill="#63b8ff" stroke="#63b8ff" points="865.54,-128.42 854.96,-129.03 863.62,-135.15 865.54,-128.42"/>
</a>
</g>
</g>
<!-- Node11 -->
<g id="Node000011" class="node">
<title>Node11</title>
<g id="a_Node000011"><a xlink:href="ISocket_8hpp.html" target="_top" xlink:title=" ">
<polygon fill="white" stroke="#666666" points="855.5,-74 782.5,-74 782.5,-55 855.5,-55 855.5,-74"/>
<text text-anchor="middle" x="819" y="-62" font-family="Helvetica,sans-Serif" font-size="10.00">ISocket.hpp</text>
</a>
</g>
</g>
<!-- Node10&#45;&gt;Node11 -->
<g id="edge11_Node000010_Node000011" class="edge">
<title>Node10&#45;&gt;Node11</title>
<g id="a_edge11_Node000010_Node000011"><a xlink:title=" ">
<path fill="none" stroke="#63b8ff" d="M819,-109.75C819,-102.8 819,-92.85 819,-84.13"/>
<polygon fill="#63b8ff" stroke="#63b8ff" points="822.5,-84.09 819,-74.09 815.5,-84.09 822.5,-84.09"/>
</a>
</g>
</g>
<!-- Node11&#45;&gt;Node9 -->
<g id="edge13_Node000011_Node000009" class="edge">
<title>Node11&#45;&gt;Node9</title>
<g id="a_edge13_Node000011_Node000009"><a xlink:title=" ">
<path fill="none" stroke="#63b8ff" d="M782.48,-58.94C701.84,-48.85 509.42,-24.8 430.1,-14.89"/>
<polygon fill="#63b8ff" stroke="#63b8ff" points="430.48,-11.41 420.12,-13.64 429.61,-18.35 430.48,-11.41"/>
</a>
</g>
</g>
<!-- Node12 -->
<g id="Node000012" class="node">
<title>Node12</title>
<g id="a_Node000012"><a xlink:title=" ">
<polygon fill="#e0e0e0" stroke="#999999" points="775.5,-19 706.5,-19 706.5,0 775.5,0 775.5,-19"/>
<text text-anchor="middle" x="741" y="-7" font-family="Helvetica,sans-Serif" font-size="10.00">arpa/inet.h</text>
</a>
</g>
</g>
<!-- Node11&#45;&gt;Node12 -->
<g id="edge12_Node000011_Node000012" class="edge">
<title>Node11&#45;&gt;Node12</title>
<g id="a_edge12_Node000011_Node000012"><a xlink:title=" ">
<path fill="none" stroke="#63b8ff" d="M806.47,-54.98C794.6,-46.92 776.54,-34.65 762.39,-25.03"/>
<polygon fill="#63b8ff" stroke="#63b8ff" points="764,-21.9 753.76,-19.17 760.06,-27.69 764,-21.9"/>
</a>
</g>
</g>
<!-- Node13 -->
<g id="Node000013" class="node">
<title>Node13</title>
<g id="a_Node000013"><a xlink:title=" ">
<polygon fill="#e0e0e0" stroke="#999999" points="844.5,-19 793.5,-19 793.5,0 844.5,0 844.5,-19"/>
<text text-anchor="middle" x="819" y="-7" font-family="Helvetica,sans-Serif" font-size="10.00">errno.h</text>
</a>
</g>
</g>
<!-- Node11&#45;&gt;Node13 -->
<g id="edge14_Node000011_Node000013" class="edge">
<title>Node11&#45;&gt;Node13</title>
<g id="a_edge14_Node000011_Node000013"><a xlink:title=" ">
<path fill="none" stroke="#63b8ff" d="M819,-54.75C819,-47.8 819,-37.85 819,-29.13"/>
<polygon fill="#63b8ff" stroke="#63b8ff" points="822.5,-29.09 819,-19.09 815.5,-29.09 822.5,-29.09"/>
</a>
</g>
</g>
<!-- Node14 -->
<g id="Node000014" class="node">
<title>Node14</title>
<g id="a_Node000014"><a xlink:title=" ">
<polygon fill="#e0e0e0" stroke="#999999" points="614,-19 542,-19 542,0 614,0 614,-19"/>
<text text-anchor="middle" x="578" y="-7" font-family="Helvetica,sans-Serif" font-size="10.00">netinet/in.h</text>
</a>
</g>
</g>
<!-- Node11&#45;&gt;Node14 -->
<g id="edge15_Node000011_Node000014" class="edge">
<title>Node11&#45;&gt;Node14</title>
<g id="a_edge15_Node000011_Node000014"><a xlink:title=" ">
<path fill="none" stroke="#63b8ff" d="M782.4,-55.45C740.04,-46.14 670.23,-30.78 624.18,-20.65"/>
<polygon fill="#63b8ff" stroke="#63b8ff" points="624.68,-17.18 614.16,-18.45 623.17,-24.02 624.68,-17.18"/>
</a>
</g>
</g>
<!-- Node15 -->
<g id="Node000015" class="node">
<title>Node15</title>
<g id="a_Node000015"><a xlink:title=" ">
<polygon fill="#e0e0e0" stroke="#999999" points="941,-19 863,-19 863,0 941,0 941,-19"/>
<text text-anchor="middle" x="902" y="-7" font-family="Helvetica,sans-Serif" font-size="10.00">netinet/tcp.h</text>
</a>
</g>
</g>
<!-- Node11&#45;&gt;Node15 -->
<g id="edge16_Node000011_Node000015" class="edge">
<title>Node11&#45;&gt;Node15</title>
<g id="a_edge16_Node000011_Node000015"><a xlink:title=" ">
<path fill="none" stroke="#63b8ff" d="M832.34,-54.98C845.09,-46.84 864.55,-34.41 879.67,-24.76"/>
<polygon fill="#63b8ff" stroke="#63b8ff" points="881.88,-27.5 888.42,-19.17 878.11,-21.6 881.88,-27.5"/>
</a>
</g>
</g>
<!-- Node16 -->
<g id="Node000016" class="node">
<title>Node16</title>
<g id="a_Node000016"><a xlink:title=" ">
<polygon fill="#e0e0e0" stroke="#999999" points="1033,-19 959,-19 959,0 1033,0 1033,-19"/>
<text text-anchor="middle" x="996" y="-7" font-family="Helvetica,sans-Serif" font-size="10.00">sys/select.h</text>
</a>
</g>
</g>
<!-- Node11&#45;&gt;Node16 -->
<g id="edge17_Node000011_Node000016" class="edge">
<title>Node11&#45;&gt;Node16</title>
<g id="a_edge17_Node000011_Node000016"><a xlink:title=" ">
<path fill="none" stroke="#63b8ff" d="M847.44,-54.98C877.28,-46.05 924.38,-31.94 957.53,-22.02"/>
<polygon fill="#63b8ff" stroke="#63b8ff" points="958.76,-25.3 967.34,-19.08 956.76,-18.6 958.76,-25.3"/>
</a>
</g>
</g>
<!-- Node17 -->
<g id="Node000017" class="node">
<title>Node17</title>
<g id="a_Node000017"><a xlink:title=" ">
<polygon fill="#e0e0e0" stroke="#999999" points="1128.5,-19 1051.5,-19 1051.5,0 1128.5,0 1128.5,-19"/>
<text text-anchor="middle" x="1090" y="-7" font-family="Helvetica,sans-Serif" font-size="10.00">sys/socket.h</text>
</a>
</g>
</g>
<!-- Node11&#45;&gt;Node17 -->
<g id="edge18_Node000011_Node000017" class="edge">
<title>Node11&#45;&gt;Node17</title>
<g id="a_edge18_Node000011_Node000017"><a xlink:title=" ">
<path fill="none" stroke="#63b8ff" d="M855.55,-56.35C903.6,-46.96 988.14,-30.42 1041.5,-19.99"/>
<polygon fill="#63b8ff" stroke="#63b8ff" points="1042.27,-23.4 1051.41,-18.05 1040.92,-16.53 1042.27,-23.4"/>
</a>
</g>
</g>
<!-- Node18 -->
<g id="Node000018" class="node">
<title>Node18</title>
<g id="a_Node000018"><a xlink:title=" ">
<polygon fill="#e0e0e0" stroke="#999999" points="1203.5,-19 1146.5,-19 1146.5,0 1203.5,0 1203.5,-19"/>
<text text-anchor="middle" x="1175" y="-7" font-family="Helvetica,sans-Serif" font-size="10.00">sys/un.h</text>
</a>
</g>
</g>
<!-- Node11&#45;&gt;Node18 -->
<g id="edge19_Node000011_Node000018" class="edge">
<title>Node11&#45;&gt;Node18</title>
<g id="a_edge19_Node000011_Node000018"><a xlink:title=" ">
<path fill="none" stroke="#63b8ff" d="M855.52,-59.46C913.18,-52.84 1028.98,-38.64 1136.34,-19.18"/>
<polygon fill="#63b8ff" stroke="#63b8ff" points="1137.16,-22.58 1146.37,-17.34 1135.9,-15.7 1137.16,-22.58"/>
</a>
</g>
</g>
<!-- Node19 -->
<g id="Node000019" class="node">
<title>Node19</title>
<g id="a_Node000019"><a xlink:title=" ">
<polygon fill="#e0e0e0" stroke="#999999" points="688,-19 632,-19 632,0 688,0 688,-19"/>
<text text-anchor="middle" x="660" y="-7" font-family="Helvetica,sans-Serif" font-size="10.00">unistd.h</text>
</a>
</g>
</g>
<!-- Node11&#45;&gt;Node19 -->
<g id="edge20_Node000011_Node000019" class="edge">
<title>Node11&#45;&gt;Node19</title>
<g id="a_edge20_Node000011_Node000019"><a xlink:title=" ">
<path fill="none" stroke="#63b8ff" d="M793.45,-54.98C766.88,-46.13 725.06,-32.19 695.33,-22.28"/>
<polygon fill="#63b8ff" stroke="#63b8ff" points="696.34,-18.92 685.75,-19.08 694.13,-25.56 696.34,-18.92"/>
</a>
</g>
</g>
<!-- Node20&#45;&gt;Node4 -->
<g id="edge24_Node000020_Node000004" class="edge">
<title>Node20&#45;&gt;Node4</title>
<g id="a_edge24_Node000020_Node000004"><a xlink:title=" ">
<path fill="none" stroke="#63b8ff" d="M120.64,-230.87C137.94,-221.32 166.05,-205.81 186.33,-194.62"/>
<polygon fill="#63b8ff" stroke="#63b8ff" points="188.23,-197.56 195.3,-189.67 184.85,-191.43 188.23,-197.56"/>
</a>
</g>
</g>
<!-- Node20&#45;&gt;Node9 -->
<g id="edge22_Node000020_Node000009" class="edge">
<title>Node20&#45;&gt;Node9</title>
<g id="a_edge22_Node000020_Node000009"><a xlink:title=" ">
<path fill="none" stroke="#63b8ff" d="M100.74,-230.95C94.09,-216.29 83.26,-185.92 96,-165 154.55,-68.83 294.36,-29.9 359.93,-16.53"/>
<polygon fill="#63b8ff" stroke="#63b8ff" points="360.65,-19.95 369.79,-14.6 359.31,-13.09 360.65,-19.95"/>
</a>
</g>
</g>
<!-- Node21 -->
<g id="Node000021" class="node">
<title>Node21</title>
<g id="a_Node000021"><a xlink:title=" ">
<polygon fill="#e0e0e0" stroke="#999999" points="169.5,-189.5 104.5,-189.5 104.5,-170.5 169.5,-170.5 169.5,-189.5"/>
<text text-anchor="middle" x="137" y="-177.5" font-family="Helvetica,sans-Serif" font-size="10.00">stdexcept</text>
</a>
</g>
</g>
<!-- Node20&#45;&gt;Node21 -->
<g id="edge23_Node000020_Node000021" class="edge">
<title>Node20&#45;&gt;Node21</title>
<g id="a_edge23_Node000020_Node000021"><a xlink:title=" ">
<path fill="none" stroke="#63b8ff" d="M109.72,-230.87C114.35,-222.4 121.55,-209.24 127.39,-198.57"/>
<polygon fill="#63b8ff" stroke="#63b8ff" points="130.53,-200.12 132.26,-189.67 124.39,-196.76 130.53,-200.12"/>
</a>
</g>
</g>
<!-- Node22&#45;&gt;Node4 -->
<g id="edge32_Node000022_Node000004" class="edge">
<title>Node22&#45;&gt;Node4</title>
<g id="a_edge32_Node000022_Node000004"><a xlink:title=" ">
<path fill="none" stroke="#63b8ff" d="M408.41,-230.99C364.62,-219.9 288.47,-200.62 244.65,-189.52"/>
<polygon fill="#63b8ff" stroke="#63b8ff" points="245.32,-186.08 234.77,-187.02 243.6,-192.87 245.32,-186.08"/>
</a>
</g>
</g>
<!-- Node22&#45;&gt;Node5 -->
<g id="edge33_Node000022_Node000005" class="edge">
<title>Node22&#45;&gt;Node5</title>
<g id="a_edge33_Node000022_Node000005"><a xlink:title=" ">
<path fill="none" stroke="#63b8ff" d="M509.9,-233.85C624.43,-224.13 847.01,-204.4 882,-195 883.69,-194.55 885.4,-194.01 887.1,-193.42"/>
<polygon fill="#63b8ff" stroke="#63b8ff" points="888.67,-196.56 896.63,-189.58 886.05,-190.07 888.67,-196.56"/>
</a>
</g>
</g>
<!-- Node22&#45;&gt;Node6 -->
<g id="edge27_Node000022_Node000006" class="edge">
<title>Node22&#45;&gt;Node6</title>
<g id="a_edge27_Node000022_Node000006"><a xlink:title=" ">
<path fill="none" stroke="#63b8ff" d="M458.53,-230.87C476.97,-221.23 507.04,-205.53 528.51,-194.31"/>
<polygon fill="#63b8ff" stroke="#63b8ff" points="530.16,-197.4 537.41,-189.67 526.92,-191.19 530.16,-197.4"/>
</a>
</g>
</g>
<!-- Node22&#45;&gt;Node9 -->
<g id="edge31_Node000022_Node000009" class="edge">
<title>Node22&#45;&gt;Node9</title>
<g id="a_edge31_Node000022_Node000009"><a xlink:title=" ">
<path fill="none" stroke="#63b8ff" d="M374.21,-232.93C349.92,-226.92 324.88,-215.72 310,-195 269.43,-138.51 341.79,-59.58 377.18,-26.29"/>
<polygon fill="#63b8ff" stroke="#63b8ff" points="379.9,-28.55 384.9,-19.2 375.17,-23.39 379.9,-28.55"/>
</a>
</g>
</g>
<!-- Node22&#45;&gt;Node14 -->
<g id="edge26_Node000022_Node000014" class="edge">
<title>Node22&#45;&gt;Node14</title>
<g id="a_edge26_Node000022_Node000014"><a xlink:title=" ">
<path fill="none" stroke="#63b8ff" d="M447.17,-230.8C467.24,-197.01 540.27,-74.02 567.59,-28.02"/>
<polygon fill="#63b8ff" stroke="#63b8ff" points="570.73,-29.59 572.83,-19.21 564.71,-26.02 570.73,-29.59"/>
</a>
</g>
</g>
<!-- Node23 -->
<g id="Node000023" class="node">
<title>Node23</title>
<g id="a_Node000023"><a xlink:title=" ">
<polygon fill="#e0e0e0" stroke="#999999" points="367,-189.5 319,-189.5 319,-170.5 367,-170.5 367,-189.5"/>
<text text-anchor="middle" x="343" y="-177.5" font-family="Helvetica,sans-Serif" font-size="10.00">mutex</text>
</a>
</g>
</g>
<!-- Node22&#45;&gt;Node23 -->
<g id="edge28_Node000022_Node000023" class="edge">
<title>Node22&#45;&gt;Node23</title>
<g id="a_edge28_Node000022_Node000023"><a xlink:title=" ">
<path fill="none" stroke="#63b8ff" d="M427.39,-230.87C411.31,-221.36 385.22,-205.95 366.3,-194.77"/>
<polygon fill="#63b8ff" stroke="#63b8ff" points="368.06,-191.74 357.67,-189.67 364.5,-197.77 368.06,-191.74"/>
</a>
</g>
</g>
<!-- Node24 -->
<g id="Node000024" class="node">
<title>Node24</title>
<g id="a_Node000024"><a xlink:title=" ">
<polygon fill="#e0e0e0" stroke="#999999" points="713,-189.5 657,-189.5 657,-170.5 713,-170.5 713,-189.5"/>
<text text-anchor="middle" x="685" y="-177.5" font-family="Helvetica,sans-Serif" font-size="10.00">optional</text>
</a>
</g>
</g>
<!-- Node22&#45;&gt;Node24 -->
<g id="edge29_Node000022_Node000024" class="edge">
<title>Node22&#45;&gt;Node24</title>
<g id="a_edge29_Node000022_Node000024"><a xlink:title=" ">
<path fill="none" stroke="#63b8ff" d="M477.33,-230.99C522.49,-220.12 600.36,-201.38 646.84,-190.19"/>
<polygon fill="#63b8ff" stroke="#63b8ff" points="647.91,-193.53 656.82,-187.78 646.28,-186.72 647.91,-193.53"/>
</a>
</g>
</g>
<!-- Node25 -->
<g id="Node000025" class="node">
<title>Node25</title>
<g id="a_Node000025"><a xlink:title=" ">
<polygon fill="#e0e0e0" stroke="#999999" points="450.5,-189.5 385.5,-189.5 385.5,-170.5 450.5,-170.5 450.5,-189.5"/>
<text text-anchor="middle" x="418" y="-177.5" font-family="Helvetica,sans-Serif" font-size="10.00">functional</text>
</a>
</g>
</g>
<!-- Node22&#45;&gt;Node25 -->
<g id="edge30_Node000022_Node000025" class="edge">
<title>Node22&#45;&gt;Node25</title>
<g id="a_edge30_Node000022_Node000025"><a xlink:title=" ">
<path fill="none" stroke="#63b8ff" d="M438.46,-230.87C435.06,-222.57 429.81,-209.78 425.48,-199.22"/>
<polygon fill="#63b8ff" stroke="#63b8ff" points="428.59,-197.59 421.56,-189.67 422.11,-200.25 428.59,-197.59"/>
</a>
</g>
</g>
<!-- Node26&#45;&gt;Node5 -->
<g id="edge35_Node000026_Node000005" class="edge">
<title>Node26&#45;&gt;Node5</title>
<g id="a_edge35_Node000026_Node000005"><a xlink:title=" ">
<path fill="none" stroke="#63b8ff" d="M718.88,-230.93C765.06,-223.84 828.2,-212.14 882,-195 883.44,-194.54 884.91,-194.03 886.37,-193.49"/>
<polygon fill="#63b8ff" stroke="#63b8ff" points="887.98,-196.61 895.9,-189.57 885.32,-190.14 887.98,-196.61"/>
</a>
</g>
</g>
<!-- Node26&#45;&gt;Node6 -->
<g id="edge36_Node000026_Node000006" class="edge">
<title>Node26&#45;&gt;Node6</title>
<g id="a_edge36_Node000026_Node000006"><a xlink:title=" ">
<path fill="none" stroke="#63b8ff" d="M639.24,-230.87C623,-221.36 596.65,-205.95 577.54,-194.77"/>
<polygon fill="#63b8ff" stroke="#63b8ff" points="579.21,-191.7 568.82,-189.67 575.68,-197.74 579.21,-191.7"/>
</a>
</g>
</g>
<!-- Node26&#45;&gt;Node9 -->
<g id="edge38_Node000026_Node000009" class="edge">
<title>Node26&#45;&gt;Node9</title>
<g id="a_edge38_Node000026_Node000009"><a xlink:title=" ">
<path fill="none" stroke="#63b8ff" d="M650.37,-230.93C643.85,-216.25 629.05,-185.84 610,-165 551.76,-101.29 463.27,-47.91 420.25,-23.99"/>
<polygon fill="#63b8ff" stroke="#63b8ff" points="421.75,-20.82 411.3,-19.08 418.38,-26.96 421.75,-20.82"/>
</a>
</g>
</g>
<!-- Node26&#45;&gt;Node24 -->
<g id="edge37_Node000026_Node000024" class="edge">
<title>Node26&#45;&gt;Node24</title>
<g id="a_edge37_Node000026_Node000024"><a xlink:title=" ">
<path fill="none" stroke="#63b8ff" d="M658.57,-230.87C663.06,-222.4 670.03,-209.24 675.69,-198.57"/>
<polygon fill="#63b8ff" stroke="#63b8ff" points="678.82,-200.14 680.41,-189.67 672.63,-196.86 678.82,-200.14"/>
</a>
</g>
</g>
<!-- Node27&#45;&gt;Node5 -->
<g id="edge40_Node000027_Node000005" class="edge">
<title>Node27&#45;&gt;Node5</title>
<g id="a_edge40_Node000027_Node000005"><a xlink:title=" ">
<path fill="none" stroke="#63b8ff" d="M835.43,-230.87C850.08,-221.45 873.76,-206.23 891.1,-195.08"/>
<polygon fill="#63b8ff" stroke="#63b8ff" points="893,-198.02 899.52,-189.67 889.21,-192.13 893,-198.02"/>
</a>
</g>
</g>
<!-- Node27&#45;&gt;Node24 -->
<g id="edge41_Node000027_Node000024" class="edge">
<title>Node27&#45;&gt;Node24</title>
<g id="a_edge41_Node000027_Node000024"><a xlink:title=" ">
<path fill="none" stroke="#63b8ff" d="M802.08,-230.99C779.05,-221.16 740.92,-204.88 714.46,-193.58"/>
<polygon fill="#63b8ff" stroke="#63b8ff" points="715.52,-190.22 704.95,-189.52 712.77,-196.66 715.52,-190.22"/>
</a>
</g>
</g>
<!-- Node28 -->
<g id="Node000028" class="node">
<title>Node28</title>
<g id="a_Node000028"><a xlink:href="UDPSocket_8hpp.html" target="_top" xlink:title=" ">
<polygon fill="white" stroke="#666666" points="873,-195 731,-195 731,-165 873,-165 873,-195"/>
<text text-anchor="start" x="739" y="-183" font-family="Helvetica,sans-Serif" font-size="10.00">../Network/TransportLayer</text>
<text text-anchor="middle" x="802" y="-172" font-family="Helvetica,sans-Serif" font-size="10.00">/UDP/UDPSocket.hpp</text>
</a>
</g>
</g>
<!-- Node27&#45;&gt;Node28 -->
<g id="edge42_Node000027_Node000028" class="edge">
<title>Node27&#45;&gt;Node28</title>
<g id="a_edge42_Node000027_Node000028"><a xlink:title=" ">
<path fill="none" stroke="#63b8ff" d="M819.05,-230.87C816.69,-223.96 813.26,-213.93 810.09,-204.67"/>
<polygon fill="#63b8ff" stroke="#63b8ff" points="813.37,-203.44 806.83,-195.11 806.75,-205.71 813.37,-203.44"/>
</a>
</g>
</g>
<!-- Node28&#45;&gt;Node9 -->
<g id="edge44_Node000028_Node000009" class="edge">
<title>Node28&#45;&gt;Node9</title>
<g id="a_edge44_Node000028_Node000009"><a xlink:title=" ">
<path fill="none" stroke="#63b8ff" d="M788.66,-164.76C763.12,-138.45 704.37,-82.4 643,-55 571.93,-23.26 479.84,-14.15 430.29,-11.54"/>
<polygon fill="#63b8ff" stroke="#63b8ff" points="430.24,-8.03 420.09,-11.06 429.92,-15.02 430.24,-8.03"/>
</a>
</g>
</g>
<!-- Node28&#45;&gt;Node10 -->
<g id="edge43_Node000028_Node000010" class="edge">
<title>Node28&#45;&gt;Node10</title>
<g id="a_edge43_Node000028_Node000010"><a xlink:title=" ">
<path fill="none" stroke="#63b8ff" d="M806.12,-164.84C808.38,-157.04 811.22,-147.27 813.66,-138.89"/>
<polygon fill="#63b8ff" stroke="#63b8ff" points="817.02,-139.85 816.45,-129.27 810.3,-137.89 817.02,-139.85"/>
</a>
</g>
</g>
<!-- Node36&#45;&gt;Node4 -->
<g id="edge57_Node000036_Node000004" class="edge">
<title>Node36&#45;&gt;Node4</title>
<g id="a_edge57_Node000036_Node000004"><a xlink:title=" ">
<path fill="none" stroke="#63b8ff" d="M143.49,-285.97C155.43,-267.4 183.98,-223.01 199.86,-198.32"/>
<polygon fill="#63b8ff" stroke="#63b8ff" points="202.98,-199.93 205.45,-189.63 197.1,-196.15 202.98,-199.93"/>
</a>
</g>
</g>
<!-- Node36&#45;&gt;Node9 -->
<g id="edge56_Node000036_Node000009" class="edge">
<title>Node36&#45;&gt;Node9</title>
<g id="a_edge56_Node000036_Node000009"><a xlink:title=" ">
<path fill="none" stroke="#63b8ff" d="M110.98,-285.93C93.19,-278.95 70.72,-267.38 57,-250 37.28,-225.04 38,-212.81 38,-181 38,-181 38,-181 38,-118.5 38,-51.7 269.91,-22.42 359.9,-13.57"/>
<polygon fill="#63b8ff" stroke="#63b8ff" points="360.27,-17.05 369.9,-12.62 359.61,-10.09 360.27,-17.05"/>
</a>
</g>
</g>
<!-- Node36&#45;&gt;Node20 -->
<g id="edge55_Node000036_Node000020" class="edge">
<title>Node36&#45;&gt;Node20</title>
<g id="a_edge55_Node000036_Node000020"><a xlink:title=" ">
<path fill="none" stroke="#63b8ff" d="M132.55,-285.75C127.99,-278.42 121.33,-267.73 115.71,-258.7"/>
<polygon fill="#63b8ff" stroke="#63b8ff" points="118.6,-256.73 110.35,-250.09 112.66,-260.43 118.6,-256.73"/>
</a>
</g>
</g>
</g>
</svg>
