<?xml version="1.0" encoding="UTF-8" standalone="no"?>
<!DOCTYPE svg PUBLIC "-//W3C//DTD SVG 1.1//EN"
 "http://www.w3.org/Graphics/SVG/1.1/DTD/svg11.dtd">
<!-- Generated by graphviz version 2.43.0 (0)
 -->
<!-- Title: Network/TransportLayer/UDP/UDPGameServer.cpp Pages: 1 -->
<svg width="1105pt" height="368pt"
 viewBox="0.00 0.00 1104.54 368.00" xmlns="http://www.w3.org/2000/svg" xmlns:xlink="http://www.w3.org/1999/xlink">
<g id="graph0" class="graph" transform="scale(1 1) rotate(0) translate(4 364)">
<title>Network/TransportLayer/UDP/UDPGameServer.cpp</title>
<!-- Node1 -->
<g id="Node000001" class="node">
<title>Node1</title>
<g id="a_Node000001"><a xlink:title=" ">
<polygon fill="#999999" stroke="#666666" points="978.04,-360 833.04,-360 833.04,-330 978.04,-330 978.04,-360"/>
<text text-anchor="start" x="841.04" y="-348" font-family="Helvetica,sans-Serif" font-size="10.00">Network/TransportLayer</text>
<text text-anchor="middle" x="905.54" y="-337" font-family="Helvetica,sans-Serif" font-size="10.00">/UDP/UDPGameServer.cpp</text>
</a>
</g>
</g>
<!-- Node2 -->
<g id="Node000002" class="node">
<title>Node2</title>
<g id="a_Node000002"><a xlink:href="UDPGameServer_8hpp.html" target="_top" xlink:title=" ">
<polygon fill="white" stroke="#666666" points="653.04,-294 534.04,-294 534.04,-275 653.04,-275 653.04,-294"/>
<text text-anchor="middle" x="593.54" y="-282" font-family="Helvetica,sans-Serif" font-size="10.00">UDPGameServer.hpp</text>
</a>
</g>
</g>
<!-- Node1&#45;&gt;Node2 -->
<g id="edge1_Node000001_Node000002" class="edge">
<title>Node1&#45;&gt;Node2</title>
<g id="a_edge1_Node000001_Node000002"><a xlink:title=" ">
<path fill="none" stroke="#63b8ff" d="M832.79,-330.36C776.74,-319.85 700.42,-305.54 649.19,-295.93"/>
<polygon fill="#63b8ff" stroke="#63b8ff" points="649.77,-292.48 639.29,-294.08 648.48,-299.36 649.77,-292.48"/>
</a>
</g>
</g>
<!-- Node11 -->
<g id="Node000011" class="node">
<title>Node11</title>
<g id="a_Node000011"><a xlink:title=" ">
<polygon fill="#e0e0e0" stroke="#999999" points="1096.54,-239 1048.54,-239 1048.54,-220 1096.54,-220 1096.54,-239"/>
<text text-anchor="middle" x="1072.54" y="-227" font-family="Helvetica,sans-Serif" font-size="10.00">thread</text>
</a>
</g>
</g>
<!-- Node1&#45;&gt;Node11 -->
<g id="edge48_Node000001_Node000011" class="edge">
<title>Node1&#45;&gt;Node11</title>
<g id="a_edge48_Node000001_Node000011"><a xlink:title=" ">
<path fill="none" stroke="#63b8ff" d="M897.87,-329.74C890.87,-314.57 883.34,-290.65 895.54,-275 897.78,-272.14 987.62,-250.54 1038.42,-238.52"/>
<polygon fill="#63b8ff" stroke="#63b8ff" points="1039.4,-241.89 1048.33,-236.18 1037.79,-235.08 1039.4,-241.89"/>
</a>
</g>
</g>
<!-- Node31 -->
<g id="Node000031" class="node">
<title>Node31</title>
<g id="a_Node000031"><a xlink:title=" ">
<polygon fill="#e0e0e0" stroke="#999999" points="964.54,-294 904.54,-294 904.54,-275 964.54,-275 964.54,-294"/>
<text text-anchor="middle" x="934.54" y="-282" font-family="Helvetica,sans-Serif" font-size="10.00">iostream</text>
</a>
</g>
</g>
<!-- Node1&#45;&gt;Node31 -->
<g id="edge47_Node000001_Node000031" class="edge">
<title>Node1&#45;&gt;Node31</title>
<g id="a_edge47_Node000001_Node000031"><a xlink:title=" ">
<path fill="none" stroke="#63b8ff" d="M912.56,-329.84C916.52,-321.87 921.49,-311.84 925.7,-303.33"/>
<polygon fill="#63b8ff" stroke="#63b8ff" points="928.89,-304.78 930.2,-294.27 922.62,-301.67 928.89,-304.78"/>
</a>
</g>
</g>
<!-- Node32 -->
<g id="Node000032" class="node">
<title>Node32</title>
<g id="a_Node000032"><a xlink:title=" ">
<polygon fill="#e0e0e0" stroke="#999999" points="1038.54,-294 982.54,-294 982.54,-275 1038.54,-275 1038.54,-294"/>
<text text-anchor="middle" x="1010.54" y="-282" font-family="Helvetica,sans-Serif" font-size="10.00">sstream</text>
</a>
</g>
</g>
<!-- Node1&#45;&gt;Node32 -->
<g id="edge49_Node000001_Node000032" class="edge">
<title>Node1&#45;&gt;Node32</title>
<g id="a_edge49_Node000001_Node000032"><a xlink:title=" ">
<path fill="none" stroke="#63b8ff" d="M930.69,-329.99C947.43,-320.66 969.31,-308.47 985.94,-299.21"/>
<polygon fill="#63b8ff" stroke="#63b8ff" points="988,-302.06 995.04,-294.14 984.6,-295.95 988,-302.06"/>
</a>
</g>
</g>
<!-- Node3 -->
<g id="Node000003" class="node">
<title>Node3</title>
<g id="a_Node000003"><a xlink:title=" ">
<polygon fill="#e0e0e0" stroke="#999999" points="273.04,-184 180.04,-184 180.04,-165 273.04,-165 273.04,-184"/>
<text text-anchor="middle" x="226.54" y="-172" font-family="Helvetica,sans-Serif" font-size="10.00">unordered_map</text>
</a>
</g>
</g>
<!-- Node2&#45;&gt;Node3 -->
<g id="edge2_Node000002_Node000003" class="edge">
<title>Node2&#45;&gt;Node3</title>
<g id="a_edge2_Node000002_Node000003"><a xlink:title=" ">
<path fill="none" stroke="#63b8ff" d="M533.83,-281.26C452.08,-277.2 310.56,-266.36 267.54,-239 250.97,-228.46 239.76,-208.54 233.31,-193.81"/>
<polygon fill="#63b8ff" stroke="#63b8ff" points="236.43,-192.18 229.44,-184.21 229.93,-194.79 236.43,-192.18"/>
</a>
</g>
</g>
<!-- Node4 -->
<g id="Node000004" class="node">
<title>Node4</title>
<g id="a_Node000004"><a xlink:title=" ">
<polygon fill="#e0e0e0" stroke="#999999" points="325.04,-129 278.04,-129 278.04,-110 325.04,-110 325.04,-129"/>
<text text-anchor="middle" x="301.54" y="-117" font-family="Helvetica,sans-Serif" font-size="10.00">vector</text>
</a>
</g>
</g>
<!-- Node2&#45;&gt;Node4 -->
<g id="edge3_Node000002_Node000004" class="edge">
<title>Node2&#45;&gt;Node4</title>
<g id="a_edge3_Node000002_Node000004"><a xlink:title=" ">
<path fill="none" stroke="#63b8ff" d="M533.91,-283.23C457.12,-281.47 330.02,-273.29 300.54,-239 276.6,-211.15 286.54,-164.53 294.74,-138.85"/>
<polygon fill="#63b8ff" stroke="#63b8ff" points="298.1,-139.84 298.05,-129.24 291.48,-137.56 298.1,-139.84"/>
</a>
</g>
</g>
<!-- Node5 -->
<g id="Node000005" class="node">
<title>Node5</title>
<g id="a_Node000005"><a xlink:title=" ">
<polygon fill="#e0e0e0" stroke="#999999" points="551.54,-239 501.54,-239 501.54,-220 551.54,-220 551.54,-239"/>
<text text-anchor="middle" x="526.54" y="-227" font-family="Helvetica,sans-Serif" font-size="10.00">chrono</text>
</a>
</g>
</g>
<!-- Node2&#45;&gt;Node5 -->
<g id="edge4_Node000002_Node000005" class="edge">
<title>Node2&#45;&gt;Node5</title>
<g id="a_edge4_Node000002_Node000005"><a xlink:title=" ">
<path fill="none" stroke="#63b8ff" d="M582.78,-274.98C572.78,-267.07 557.66,-255.11 545.61,-245.58"/>
<polygon fill="#63b8ff" stroke="#63b8ff" points="547.52,-242.63 537.5,-239.17 543.18,-248.12 547.52,-242.63"/>
</a>
</g>
</g>
<!-- Node6 -->
<g id="Node000006" class="node">
<title>Node6</title>
<g id="a_Node000006"><a xlink:title=" ">
<polygon fill="#e0e0e0" stroke="#999999" points="645.54,-184 601.54,-184 601.54,-165 645.54,-165 645.54,-184"/>
<text text-anchor="middle" x="623.54" y="-172" font-family="Helvetica,sans-Serif" font-size="10.00">string</text>
</a>
</g>
</g>
<!-- Node2&#45;&gt;Node6 -->
<g id="edge5_Node000002_Node000006" class="edge">
<title>Node2&#45;&gt;Node6</title>
<g id="a_edge5_Node000002_Node000006"><a xlink:title=" ">
<path fill="none" stroke="#63b8ff" d="M554.12,-274.96C518.08,-265.23 473.12,-247.11 492.54,-220 495.56,-215.79 554.04,-197.03 591.84,-185.25"/>
<polygon fill="#63b8ff" stroke="#63b8ff" points="592.91,-188.59 601.42,-182.28 590.83,-181.9 592.91,-188.59"/>
</a>
</g>
</g>
<!-- Node7 -->
<g id="Node000007" class="node">
<title>Node7</title>
<g id="a_Node000007"><a xlink:title=" ">
<polygon fill="#e0e0e0" stroke="#999999" points="617.04,-239 570.04,-239 570.04,-220 617.04,-220 617.04,-239"/>
<text text-anchor="middle" x="593.54" y="-227" font-family="Helvetica,sans-Serif" font-size="10.00">queue</text>
</a>
</g>
</g>
<!-- Node2&#45;&gt;Node7 -->
<g id="edge6_Node000002_Node000007" class="edge">
<title>Node2&#45;&gt;Node7</title>
<g id="a_edge6_Node000002_Node000007"><a xlink:title=" ">
<path fill="none" stroke="#63b8ff" d="M593.54,-274.75C593.54,-267.8 593.54,-257.85 593.54,-249.13"/>
<polygon fill="#63b8ff" stroke="#63b8ff" points="597.04,-249.09 593.54,-239.09 590.04,-249.09 597.04,-249.09"/>
</a>
</g>
</g>
<!-- Node8 -->
<g id="Node000008" class="node">
<title>Node8</title>
<g id="a_Node000008"><a xlink:title=" ">
<polygon fill="#e0e0e0" stroke="#999999" points="740.54,-184 692.54,-184 692.54,-165 740.54,-165 740.54,-184"/>
<text text-anchor="middle" x="716.54" y="-172" font-family="Helvetica,sans-Serif" font-size="10.00">mutex</text>
</a>
</g>
</g>
<!-- Node2&#45;&gt;Node8 -->
<g id="edge7_Node000002_Node000008" class="edge">
<title>Node2&#45;&gt;Node8</title>
<g id="a_edge7_Node000002_Node000008"><a xlink:title=" ">
<path fill="none" stroke="#63b8ff" d="M653.32,-280.59C752.77,-275.12 943.34,-261.78 963.54,-239 969.15,-232.68 968.96,-226.48 963.54,-220 950.01,-203.81 815.53,-186.64 750.89,-179.25"/>
<polygon fill="#63b8ff" stroke="#63b8ff" points="751.1,-175.75 740.77,-178.1 750.32,-182.7 751.1,-175.75"/>
</a>
</g>
</g>
<!-- Node9 -->
<g id="Node000009" class="node">
<title>Node9</title>
<g id="a_Node000009"><a xlink:title=" ">
<polygon fill="#e0e0e0" stroke="#999999" points="742.04,-239 635.04,-239 635.04,-220 742.04,-220 742.04,-239"/>
<text text-anchor="middle" x="688.54" y="-227" font-family="Helvetica,sans-Serif" font-size="10.00">condition_variable</text>
</a>
</g>
</g>
<!-- Node2&#45;&gt;Node9 -->
<g id="edge8_Node000002_Node000009" class="edge">
<title>Node2&#45;&gt;Node9</title>
<g id="a_edge8_Node000002_Node000009"><a xlink:title=" ">
<path fill="none" stroke="#63b8ff" d="M608.81,-274.98C623.68,-266.69 646.53,-253.94 663.96,-244.22"/>
<polygon fill="#63b8ff" stroke="#63b8ff" points="665.97,-247.1 673,-239.17 662.56,-240.99 665.97,-247.1"/>
</a>
</g>
</g>
<!-- Node10 -->
<g id="Node000010" class="node">
<title>Node10</title>
<g id="a_Node000010"><a xlink:title=" ">
<polygon fill="#e0e0e0" stroke="#999999" points="810.54,-239 760.54,-239 760.54,-220 810.54,-220 810.54,-239"/>
<text text-anchor="middle" x="785.54" y="-227" font-family="Helvetica,sans-Serif" font-size="10.00">atomic</text>
</a>
</g>
</g>
<!-- Node2&#45;&gt;Node10 -->
<g id="edge9_Node000002_Node000010" class="edge">
<title>Node2&#45;&gt;Node10</title>
<g id="a_edge9_Node000002_Node000010"><a xlink:title=" ">
<path fill="none" stroke="#63b8ff" d="M624.39,-274.98C658.74,-265.5 714.15,-250.21 750.21,-240.25"/>
<polygon fill="#63b8ff" stroke="#63b8ff" points="751.58,-243.51 760.29,-237.47 749.72,-236.76 751.58,-243.51"/>
</a>
</g>
</g>
<!-- Node2&#45;&gt;Node11 -->
<g id="edge10_Node000002_Node000011" class="edge">
<title>Node2&#45;&gt;Node11</title>
<g id="a_edge10_Node000002_Node000011"><a xlink:title=" ">
<path fill="none" stroke="#63b8ff" d="M653.4,-279.74C738.49,-273.87 899.14,-260.9 1034.54,-239 1035.82,-238.79 1037.12,-238.57 1038.43,-238.33"/>
<polygon fill="#63b8ff" stroke="#63b8ff" points="1039.38,-241.71 1048.5,-236.33 1038.01,-234.85 1039.38,-241.71"/>
</a>
</g>
</g>
<!-- Node12 -->
<g id="Node000012" class="node">
<title>Node12</title>
<g id="a_Node000012"><a xlink:href="UDPSocket_8hpp.html" target="_top" xlink:title=" ">
<polygon fill="white" stroke="#666666" points="908.04,-184 817.04,-184 817.04,-165 908.04,-165 908.04,-184"/>
<text text-anchor="middle" x="862.54" y="-172" font-family="Helvetica,sans-Serif" font-size="10.00">UDPSocket.hpp</text>
</a>
</g>
</g>
<!-- Node2&#45;&gt;Node12 -->
<g id="edge11_Node000002_Node000012" class="edge">
<title>Node2&#45;&gt;Node12</title>
<g id="a_edge11_Node000002_Node000012"><a xlink:title=" ">
<path fill="none" stroke="#63b8ff" d="M653.44,-280.9C756.46,-275.81 958.25,-262.89 979.54,-239 1002.56,-213.18 958.68,-195.85 918.25,-185.9"/>
<polygon fill="#63b8ff" stroke="#63b8ff" points="918.89,-182.46 908.36,-183.59 917.3,-189.27 918.89,-182.46"/>
</a>
</g>
</g>
<!-- Node24 -->
<g id="Node000024" class="node">
<title>Node24</title>
<g id="a_Node000024"><a xlink:href="Packet_8hpp.html" target="_top" xlink:title=" ">
<polygon fill="white" stroke="#666666" points="123.54,-184 45.54,-184 45.54,-165 123.54,-165 123.54,-184"/>
<text text-anchor="middle" x="84.54" y="-172" font-family="Helvetica,sans-Serif" font-size="10.00">../Packet.hpp</text>
</a>
</g>
</g>
<!-- Node2&#45;&gt;Node24 -->
<g id="edge24_Node000002_Node000024" class="edge">
<title>Node2&#45;&gt;Node24</title>
<g id="a_edge24_Node000002_Node000024"><a xlink:title=" ">
<path fill="none" stroke="#63b8ff" d="M533.77,-282.03C409.18,-278.41 130.6,-267.22 98.54,-239 86.11,-228.05 83.33,-208.79 83.22,-194.34"/>
<polygon fill="#63b8ff" stroke="#63b8ff" points="86.73,-194.15 83.58,-184.04 79.73,-193.91 86.73,-194.15"/>
</a>
</g>
</g>
<!-- Node26 -->
<g id="Node000026" class="node">
<title>Node26</title>
<g id="a_Node000026"><a xlink:href="GameWorld_8hpp.html" target="_top" xlink:title=" ">
<polygon fill="white" stroke="#666666" points="203.04,-239 108.04,-239 108.04,-220 203.04,-220 203.04,-239"/>
<text text-anchor="middle" x="155.54" y="-227" font-family="Helvetica,sans-Serif" font-size="10.00">GameWorld.hpp</text>
</a>
</g>
</g>
<!-- Node2&#45;&gt;Node26 -->
<g id="edge28_Node000002_Node000026" class="edge">
<title>Node2&#45;&gt;Node26</title>
<g id="a_edge28_Node000002_Node000026"><a xlink:title=" ">
<path fill="none" stroke="#63b8ff" d="M533.93,-276.54C460.44,-267.91 331.76,-252.69 221.54,-239 218.84,-238.66 216.08,-238.32 213.29,-237.97"/>
<polygon fill="#63b8ff" stroke="#63b8ff" points="213.48,-234.46 203.12,-236.68 212.6,-241.41 213.48,-234.46"/>
</a>
</g>
</g>
<!-- Node27 -->
<g id="Node000027" class="node">
<title>Node27</title>
<g id="a_Node000027"><a xlink:href="SessionManager_8hpp.html" target="_top" xlink:title=" ">
<polygon fill="white" stroke="#666666" points="445.04,-239 310.04,-239 310.04,-220 445.04,-220 445.04,-239"/>
<text text-anchor="middle" x="377.54" y="-227" font-family="Helvetica,sans-Serif" font-size="10.00">../../SessionManager.hpp</text>
</a>
</g>
</g>
<!-- Node2&#45;&gt;Node27 -->
<g id="edge34_Node000002_Node000027" class="edge">
<title>Node2&#45;&gt;Node27</title>
<g id="a_edge34_Node000002_Node000027"><a xlink:title=" ">
<path fill="none" stroke="#63b8ff" d="M558.84,-274.98C521.79,-265.89 462.95,-251.46 422.41,-241.51"/>
<polygon fill="#63b8ff" stroke="#63b8ff" points="423.07,-238.07 412.52,-239.08 421.4,-244.86 423.07,-238.07"/>
</a>
</g>
</g>
<!-- Node30 -->
<g id="Node000030" class="node">
<title>Node30</title>
<g id="a_Node000030"><a xlink:href="IpcChannel_8hpp.html" target="_top" xlink:title=" ">
<polygon fill="white" stroke="#666666" points="954.04,-239 829.04,-239 829.04,-220 954.04,-220 954.04,-239"/>
<text text-anchor="middle" x="891.54" y="-227" font-family="Helvetica,sans-Serif" font-size="10.00">server/IpcChannel.hpp</text>
</a>
</g>
</g>
<!-- Node2&#45;&gt;Node30 -->
<g id="edge43_Node000002_Node000030" class="edge">
<title>Node2&#45;&gt;Node30</title>
<g id="a_edge43_Node000002_Node000030"><a xlink:title=" ">
<path fill="none" stroke="#63b8ff" d="M641.42,-274.98C693.62,-265.7 777.16,-250.84 833.17,-240.88"/>
<polygon fill="#63b8ff" stroke="#63b8ff" points="834.06,-244.28 843.29,-239.08 832.83,-237.39 834.06,-244.28"/>
</a>
</g>
</g>
<!-- Node13 -->
<g id="Node000013" class="node">
<title>Node13</title>
<g id="a_Node000013"><a xlink:href="ASocket_8hpp.html" target="_top" xlink:title=" ">
<polygon fill="white" stroke="#666666" points="827.54,-129 741.54,-129 741.54,-110 827.54,-110 827.54,-129"/>
<text text-anchor="middle" x="784.54" y="-117" font-family="Helvetica,sans-Serif" font-size="10.00">../ASocket.hpp</text>
</a>
</g>
</g>
<!-- Node12&#45;&gt;Node13 -->
<g id="edge12_Node000012_Node000013" class="edge">
<title>Node12&#45;&gt;Node13</title>
<g id="a_edge12_Node000012_Node000013"><a xlink:title=" ">
<path fill="none" stroke="#63b8ff" d="M850.01,-164.98C838.14,-156.92 820.08,-144.65 805.93,-135.03"/>
<polygon fill="#63b8ff" stroke="#63b8ff" points="807.54,-131.9 797.3,-129.17 803.61,-137.69 807.54,-131.9"/>
</a>
</g>
</g>
<!-- Node16 -->
<g id="Node000016" class="node">
<title>Node16</title>
<g id="a_Node000016"><a xlink:title=" ">
<polygon fill="#e0e0e0" stroke="#999999" points="449.54,-19 399.54,-19 399.54,0 449.54,0 449.54,-19"/>
<text text-anchor="middle" x="424.54" y="-7" font-family="Helvetica,sans-Serif" font-size="10.00">cstdint</text>
</a>
</g>
</g>
<!-- Node12&#45;&gt;Node16 -->
<g id="edge23_Node000012_Node000016" class="edge">
<title>Node12&#45;&gt;Node16</title>
<g id="a_edge23_Node000012_Node000016"><a xlink:title=" ">
<path fill="none" stroke="#63b8ff" d="M836.54,-164.92C810.23,-156.16 768.42,-142.04 732.54,-129 630.65,-91.97 511.11,-44.94 455.68,-22.92"/>
<polygon fill="#63b8ff" stroke="#63b8ff" points="456.68,-19.56 446.1,-19.11 454.1,-26.06 456.68,-19.56"/>
</a>
</g>
</g>
<!-- Node14 -->
<g id="Node000014" class="node">
<title>Node14</title>
<g id="a_Node000014"><a xlink:href="ISocket_8hpp.html" target="_top" xlink:title=" ">
<polygon fill="white" stroke="#666666" points="743.04,-74 670.04,-74 670.04,-55 743.04,-55 743.04,-74"/>
<text text-anchor="middle" x="706.54" y="-62" font-family="Helvetica,sans-Serif" font-size="10.00">ISocket.hpp</text>
</a>
</g>
</g>
<!-- Node13&#45;&gt;Node14 -->
<g id="edge13_Node000013_Node000014" class="edge">
<title>Node13&#45;&gt;Node14</title>
<g id="a_edge13_Node000013_Node000014"><a xlink:title=" ">
<path fill="none" stroke="#63b8ff" d="M772.01,-109.98C760.14,-101.92 742.08,-89.65 727.93,-80.03"/>
<polygon fill="#63b8ff" stroke="#63b8ff" points="729.54,-76.9 719.3,-74.17 725.61,-82.69 729.54,-76.9"/>
</a>
</g>
</g>
<!-- Node15 -->
<g id="Node000015" class="node">
<title>Node15</title>
<g id="a_Node000015"><a xlink:title=" ">
<polygon fill="#e0e0e0" stroke="#999999" points="782.04,-19 713.04,-19 713.04,0 782.04,0 782.04,-19"/>
<text text-anchor="middle" x="747.54" y="-7" font-family="Helvetica,sans-Serif" font-size="10.00">arpa/inet.h</text>
</a>
</g>
</g>
<!-- Node14&#45;&gt;Node15 -->
<g id="edge14_Node000014_Node000015" class="edge">
<title>Node14&#45;&gt;Node15</title>
<g id="a_edge14_Node000014_Node000015"><a xlink:title=" ">
<path fill="none" stroke="#63b8ff" d="M713.31,-54.75C719.1,-47.26 727.6,-36.28 734.68,-27.13"/>
<polygon fill="#63b8ff" stroke="#63b8ff" points="737.55,-29.14 740.9,-19.09 732.01,-24.86 737.55,-29.14"/>
</a>
</g>
</g>
<!-- Node14&#45;&gt;Node16 -->
<g id="edge15_Node000014_Node000016" class="edge">
<title>Node14&#45;&gt;Node16</title>
<g id="a_edge15_Node000014_Node000016"><a xlink:title=" ">
<path fill="none" stroke="#63b8ff" d="M669.83,-57.71C623.19,-50.17 540,-36.16 459.55,-19.1"/>
<polygon fill="#63b8ff" stroke="#63b8ff" points="460.26,-15.67 449.75,-17 458.8,-22.52 460.26,-15.67"/>
</a>
</g>
</g>
<!-- Node17 -->
<g id="Node000017" class="node">
<title>Node17</title>
<g id="a_Node000017"><a xlink:title=" ">
<polygon fill="#e0e0e0" stroke="#999999" points="851.04,-19 800.04,-19 800.04,0 851.04,0 851.04,-19"/>
<text text-anchor="middle" x="825.54" y="-7" font-family="Helvetica,sans-Serif" font-size="10.00">errno.h</text>
</a>
</g>
</g>
<!-- Node14&#45;&gt;Node17 -->
<g id="edge16_Node000014_Node000017" class="edge">
<title>Node14&#45;&gt;Node17</title>
<g id="a_edge16_Node000014_Node000017"><a xlink:title=" ">
<path fill="none" stroke="#63b8ff" d="M725.66,-54.98C744.89,-46.42 774.78,-33.11 796.85,-23.28"/>
<polygon fill="#63b8ff" stroke="#63b8ff" points="798.36,-26.44 806.08,-19.17 795.52,-20.04 798.36,-26.44"/>
</a>
</g>
</g>
<!-- Node18 -->
<g id="Node000018" class="node">
<title>Node18</title>
<g id="a_Node000018"><a xlink:title=" ">
<polygon fill="#e0e0e0" stroke="#999999" points="209.54,-19 137.54,-19 137.54,0 209.54,0 209.54,-19"/>
<text text-anchor="middle" x="173.54" y="-7" font-family="Helvetica,sans-Serif" font-size="10.00">netinet/in.h</text>
</a>
</g>
</g>
<!-- Node14&#45;&gt;Node18 -->
<g id="edge17_Node000014_Node000018" class="edge">
<title>Node14&#45;&gt;Node18</title>
<g id="a_edge17_Node000014_Node000018"><a xlink:title=" ">
<path fill="none" stroke="#63b8ff" d="M669.91,-59.86C575.54,-50.47 324.26,-25.49 219.95,-15.11"/>
<polygon fill="#63b8ff" stroke="#63b8ff" points="220.03,-11.61 209.73,-14.1 219.33,-18.57 220.03,-11.61"/>
</a>
</g>
</g>
<!-- Node19 -->
<g id="Node000019" class="node">
<title>Node19</title>
<g id="a_Node000019"><a xlink:title=" ">
<polygon fill="#e0e0e0" stroke="#999999" points="947.54,-19 869.54,-19 869.54,0 947.54,0 947.54,-19"/>
<text text-anchor="middle" x="908.54" y="-7" font-family="Helvetica,sans-Serif" font-size="10.00">netinet/tcp.h</text>
</a>
</g>
</g>
<!-- Node14&#45;&gt;Node19 -->
<g id="edge18_Node000014_Node000019" class="edge">
<title>Node14&#45;&gt;Node19</title>
<g id="a_edge18_Node000014_Node000019"><a xlink:title=" ">
<path fill="none" stroke="#63b8ff" d="M739,-54.98C773.5,-45.93 828.2,-31.58 866.1,-21.64"/>
<polygon fill="#63b8ff" stroke="#63b8ff" points="867.05,-25.01 875.83,-19.08 865.27,-18.23 867.05,-25.01"/>
</a>
</g>
</g>
<!-- Node20 -->
<g id="Node000020" class="node">
<title>Node20</title>
<g id="a_Node000020"><a xlink:title=" ">
<polygon fill="#e0e0e0" stroke="#999999" points="1039.54,-19 965.54,-19 965.54,0 1039.54,0 1039.54,-19"/>
<text text-anchor="middle" x="1002.54" y="-7" font-family="Helvetica,sans-Serif" font-size="10.00">sys/select.h</text>
</a>
</g>
</g>
<!-- Node14&#45;&gt;Node20 -->
<g id="edge19_Node000014_Node000020" class="edge">
<title>Node14&#45;&gt;Node20</title>
<g id="a_edge19_Node000014_Node000020"><a xlink:title=" ">
<path fill="none" stroke="#63b8ff" d="M743.41,-57.02C790.28,-48.75 873.98,-33.94 955.47,-19.19"/>
<polygon fill="#63b8ff" stroke="#63b8ff" points="956.17,-22.61 965.39,-17.39 954.93,-15.73 956.17,-22.61"/>
</a>
</g>
</g>
<!-- Node21 -->
<g id="Node000021" class="node">
<title>Node21</title>
<g id="a_Node000021"><a xlink:title=" ">
<polygon fill="#e0e0e0" stroke="#999999" points="545.04,-19 468.04,-19 468.04,0 545.04,0 545.04,-19"/>
<text text-anchor="middle" x="506.54" y="-7" font-family="Helvetica,sans-Serif" font-size="10.00">sys/socket.h</text>
</a>
</g>
</g>
<!-- Node14&#45;&gt;Node21 -->
<g id="edge20_Node000014_Node000021" class="edge">
<title>Node14&#45;&gt;Node21</title>
<g id="a_edge20_Node000014_Node000021"><a xlink:title=" ">
<path fill="none" stroke="#63b8ff" d="M674.41,-54.98C640.4,-45.97 586.55,-31.7 549.04,-21.76"/>
<polygon fill="#63b8ff" stroke="#63b8ff" points="549.49,-18.26 538.93,-19.08 547.7,-25.03 549.49,-18.26"/>
</a>
</g>
</g>
<!-- Node22 -->
<g id="Node000022" class="node">
<title>Node22</title>
<g id="a_Node000022"><a xlink:title=" ">
<polygon fill="#e0e0e0" stroke="#999999" points="620.04,-19 563.04,-19 563.04,0 620.04,0 620.04,-19"/>
<text text-anchor="middle" x="591.54" y="-7" font-family="Helvetica,sans-Serif" font-size="10.00">sys/un.h</text>
</a>
</g>
</g>
<!-- Node14&#45;&gt;Node22 -->
<g id="edge21_Node000014_Node000022" class="edge">
<title>Node14&#45;&gt;Node22</title>
<g id="a_edge21_Node000014_Node000022"><a xlink:title=" ">
<path fill="none" stroke="#63b8ff" d="M688.07,-54.98C669.57,-46.46 640.86,-33.23 619.56,-23.41"/>
<polygon fill="#63b8ff" stroke="#63b8ff" points="620.9,-20.18 610.36,-19.17 617.97,-26.53 620.9,-20.18"/>
</a>
</g>
</g>
<!-- Node23 -->
<g id="Node000023" class="node">
<title>Node23</title>
<g id="a_Node000023"><a xlink:title=" ">
<polygon fill="#e0e0e0" stroke="#999999" points="694.54,-19 638.54,-19 638.54,0 694.54,0 694.54,-19"/>
<text text-anchor="middle" x="666.54" y="-7" font-family="Helvetica,sans-Serif" font-size="10.00">unistd.h</text>
</a>
</g>
</g>
<!-- Node14&#45;&gt;Node23 -->
<g id="edge22_Node000014_Node000023" class="edge">
<title>Node14&#45;&gt;Node23</title>
<g id="a_edge22_Node000014_Node000023"><a xlink:title=" ">
<path fill="none" stroke="#63b8ff" d="M699.94,-54.75C694.29,-47.26 686,-36.28 679.09,-27.13"/>
<polygon fill="#63b8ff" stroke="#63b8ff" points="681.84,-24.96 673.03,-19.09 676.26,-29.18 681.84,-24.96"/>
</a>
</g>
</g>
<!-- Node24&#45;&gt;Node4 -->
<g id="edge27_Node000024_Node000004" class="edge">
<title>Node24&#45;&gt;Node4</title>
<g id="a_edge27_Node000024_Node000004"><a xlink:title=" ">
<path fill="none" stroke="#63b8ff" d="M119.41,-164.98C160.3,-155 227.6,-138.56 267.94,-128.71"/>
<polygon fill="#63b8ff" stroke="#63b8ff" points="268.94,-132.07 277.82,-126.29 267.28,-125.27 268.94,-132.07"/>
</a>
</g>
</g>
<!-- Node24&#45;&gt;Node16 -->
<g id="edge25_Node000024_Node000016" class="edge">
<title>Node24&#45;&gt;Node16</title>
<g id="a_edge25_Node000024_Node000016"><a xlink:title=" ">
<path fill="none" stroke="#63b8ff" d="M102.34,-164.97C158.21,-138.18 330.34,-55.66 397.4,-23.51"/>
<polygon fill="#63b8ff" stroke="#63b8ff" points="399,-26.63 406.51,-19.15 395.98,-20.31 399,-26.63"/>
</a>
</g>
</g>
<!-- Node25 -->
<g id="Node000025" class="node">
<title>Node25</title>
<g id="a_Node000025"><a xlink:title=" ">
<polygon fill="#e0e0e0" stroke="#999999" points="117.04,-129 52.04,-129 52.04,-110 117.04,-110 117.04,-129"/>
<text text-anchor="middle" x="84.54" y="-117" font-family="Helvetica,sans-Serif" font-size="10.00">stdexcept</text>
</a>
</g>
</g>
<!-- Node24&#45;&gt;Node25 -->
<g id="edge26_Node000024_Node000025" class="edge">
<title>Node24&#45;&gt;Node25</title>
<g id="a_edge26_Node000024_Node000025"><a xlink:title=" ">
<path fill="none" stroke="#63b8ff" d="M84.54,-164.75C84.54,-157.8 84.54,-147.85 84.54,-139.13"/>
<polygon fill="#63b8ff" stroke="#63b8ff" points="88.04,-139.09 84.54,-129.09 81.04,-139.09 88.04,-139.09"/>
</a>
</g>
</g>
<!-- Node26&#45;&gt;Node3 -->
<g id="edge31_Node000026_Node000003" class="edge">
<title>Node26&#45;&gt;Node3</title>
<g id="a_edge31_Node000026_Node000003"><a xlink:title=" ">
<path fill="none" stroke="#63b8ff" d="M166.95,-219.98C177.65,-212 193.88,-199.88 206.71,-190.31"/>
<polygon fill="#63b8ff" stroke="#63b8ff" points="209.01,-192.96 214.93,-184.17 204.82,-187.35 209.01,-192.96"/>
</a>
</g>
</g>
<!-- Node26&#45;&gt;Node4 -->
<g id="edge32_Node000026_Node000004" class="edge">
<title>Node26&#45;&gt;Node4</title>
<g id="a_edge32_Node000026_Node000004"><a xlink:title=" ">
<path fill="none" stroke="#63b8ff" d="M155.11,-219.92C154.91,-206.48 156.53,-180.42 170.54,-165 183.76,-150.46 233.57,-136.33 267.82,-128.03"/>
<polygon fill="#63b8ff" stroke="#63b8ff" points="268.96,-131.35 277.89,-125.64 267.35,-124.54 268.96,-131.35"/>
</a>
</g>
</g>
<!-- Node26&#45;&gt;Node16 -->
<g id="edge33_Node000026_Node000016" class="edge">
<title>Node26&#45;&gt;Node16</title>
<g id="a_edge33_Node000026_Node000016"><a xlink:title=" ">
<path fill="none" stroke="#63b8ff" d="M107.81,-223.59C82.15,-218.24 52.57,-207.11 36.54,-184 26.77,-169.91 23.01,-132.62 42.54,-110 88.23,-57.1 303.66,-25.33 389.31,-14.6"/>
<polygon fill="#63b8ff" stroke="#63b8ff" points="389.83,-18.06 399.32,-13.37 388.97,-11.12 389.83,-18.06"/>
</a>
</g>
</g>
<!-- Node26&#45;&gt;Node18 -->
<g id="edge30_Node000026_Node000018" class="edge">
<title>Node26&#45;&gt;Node18</title>
<g id="a_edge30_Node000026_Node000018"><a xlink:title=" ">
<path fill="none" stroke="#63b8ff" d="M108.04,-220.93C68.32,-213.52 16.2,-200.89 3.54,-184 -1.52,-177.24 3.31,-173.44 3.54,-165 4.21,-140.53 -6.13,-130.95 6.54,-110 34.64,-63.55 93.37,-36.18 133.14,-22.26"/>
<polygon fill="#63b8ff" stroke="#63b8ff" points="134.45,-25.52 142.81,-19.01 132.22,-18.88 134.45,-25.52"/>
</a>
</g>
</g>
<!-- Node26&#45;&gt;Node24 -->
<g id="edge29_Node000026_Node000024" class="edge">
<title>Node26&#45;&gt;Node24</title>
<g id="a_edge29_Node000026_Node000024"><a xlink:title=" ">
<path fill="none" stroke="#63b8ff" d="M144.14,-219.98C133.43,-212 117.2,-199.88 104.38,-190.31"/>
<polygon fill="#63b8ff" stroke="#63b8ff" points="106.27,-187.35 96.16,-184.17 102.08,-192.96 106.27,-187.35"/>
</a>
</g>
</g>
<!-- Node27&#45;&gt;Node3 -->
<g id="edge36_Node000027_Node000003" class="edge">
<title>Node27&#45;&gt;Node3</title>
<g id="a_edge36_Node000027_Node000003"><a xlink:title=" ">
<path fill="none" stroke="#63b8ff" d="M353.28,-219.98C328.23,-211.19 288.91,-197.39 260.71,-187.49"/>
<polygon fill="#63b8ff" stroke="#63b8ff" points="261.84,-184.18 251.25,-184.17 259.52,-190.78 261.84,-184.18"/>
</a>
</g>
</g>
<!-- Node27&#45;&gt;Node4 -->
<g id="edge41_Node000027_Node000004" class="edge">
<title>Node27&#45;&gt;Node4</title>
<g id="a_edge41_Node000027_Node000004"><a xlink:title=" ">
<path fill="none" stroke="#63b8ff" d="M371.32,-219.66C358.68,-201.69 329.79,-160.64 313.42,-137.38"/>
<polygon fill="#63b8ff" stroke="#63b8ff" points="316.25,-135.32 307.64,-129.16 310.53,-139.35 316.25,-135.32"/>
</a>
</g>
</g>
<!-- Node27&#45;&gt;Node6 -->
<g id="edge42_Node000027_Node000006" class="edge">
<title>Node27&#45;&gt;Node6</title>
<g id="a_edge42_Node000027_Node000006"><a xlink:title=" ">
<path fill="none" stroke="#63b8ff" d="M423.03,-219.96C464.54,-211.96 527.8,-199.3 591.44,-184.15"/>
<polygon fill="#63b8ff" stroke="#63b8ff" points="592.33,-187.54 601.24,-181.8 590.7,-180.73 592.33,-187.54"/>
</a>
</g>
</g>
<!-- Node27&#45;&gt;Node8 -->
<g id="edge37_Node000027_Node000008" class="edge">
<title>Node27&#45;&gt;Node8</title>
<g id="a_edge37_Node000027_Node000008"><a xlink:title=" ">
<path fill="none" stroke="#63b8ff" d="M432.01,-219.98C502.63,-208.94 623.71,-190.01 682.51,-180.82"/>
<polygon fill="#63b8ff" stroke="#63b8ff" points="683.06,-184.28 692.4,-179.27 681.98,-177.36 683.06,-184.28"/>
</a>
</g>
</g>
<!-- Node27&#45;&gt;Node16 -->
<g id="edge40_Node000027_Node000016" class="edge">
<title>Node27&#45;&gt;Node16</title>
<g id="a_edge40_Node000027_Node000016"><a xlink:title=" ">
<path fill="none" stroke="#63b8ff" d="M424.68,-219.95C445.17,-213.64 467.27,-202.75 479.54,-184 513.09,-132.77 464.33,-59.69 438.65,-27.19"/>
<polygon fill="#63b8ff" stroke="#63b8ff" points="441.14,-24.69 432.11,-19.15 435.71,-29.11 441.14,-24.69"/>
</a>
</g>
</g>
<!-- Node27&#45;&gt;Node18 -->
<g id="edge35_Node000027_Node000018" class="edge">
<title>Node27&#45;&gt;Node18</title>
<g id="a_edge35_Node000027_Node000018"><a xlink:title=" ">
<path fill="none" stroke="#63b8ff" d="M376.29,-219.8C372.88,-198.8 361.73,-144.5 333.54,-110 299.11,-67.86 241.87,-38.47 205.99,-23.05"/>
<polygon fill="#63b8ff" stroke="#63b8ff" points="207.06,-19.7 196.48,-19.08 204.36,-26.16 207.06,-19.7"/>
</a>
</g>
</g>
<!-- Node28 -->
<g id="Node000028" class="node">
<title>Node28</title>
<g id="a_Node000028"><a xlink:title=" ">
<polygon fill="#e0e0e0" stroke="#999999" points="583.54,-184 527.54,-184 527.54,-165 583.54,-165 583.54,-184"/>
<text text-anchor="middle" x="555.54" y="-172" font-family="Helvetica,sans-Serif" font-size="10.00">optional</text>
</a>
</g>
</g>
<!-- Node27&#45;&gt;Node28 -->
<g id="edge38_Node000027_Node000028" class="edge">
<title>Node27&#45;&gt;Node28</title>
<g id="a_edge38_Node000027_Node000028"><a xlink:title=" ">
<path fill="none" stroke="#63b8ff" d="M406.14,-219.98C436.33,-210.99 484.08,-196.78 517.45,-186.84"/>
<polygon fill="#63b8ff" stroke="#63b8ff" points="518.72,-190.11 527.31,-183.91 516.73,-183.41 518.72,-190.11"/>
</a>
</g>
</g>
<!-- Node29 -->
<g id="Node000029" class="node">
<title>Node29</title>
<g id="a_Node000029"><a xlink:title=" ">
<polygon fill="#e0e0e0" stroke="#999999" points="471.04,-184 406.04,-184 406.04,-165 471.04,-165 471.04,-184"/>
<text text-anchor="middle" x="438.54" y="-172" font-family="Helvetica,sans-Serif" font-size="10.00">functional</text>
</a>
</g>
</g>
<!-- Node27&#45;&gt;Node29 -->
<g id="edge39_Node000027_Node000029" class="edge">
<title>Node27&#45;&gt;Node29</title>
<g id="a_edge39_Node000027_Node000029"><a xlink:title=" ">
<path fill="none" stroke="#63b8ff" d="M387.34,-219.98C396.36,-212.15 409.95,-200.34 420.86,-190.86"/>
<polygon fill="#63b8ff" stroke="#63b8ff" points="423.31,-193.37 428.56,-184.17 418.72,-188.09 423.31,-193.37"/>
</a>
</g>
</g>
<!-- Node30&#45;&gt;Node6 -->
<g id="edge44_Node000030_Node000006" class="edge">
<title>Node30&#45;&gt;Node6</title>
<g id="a_edge44_Node000030_Node000006"><a xlink:title=" ">
<path fill="none" stroke="#63b8ff" d="M848.48,-219.98C794.59,-209.33 703.52,-191.32 655.45,-181.81"/>
<polygon fill="#63b8ff" stroke="#63b8ff" points="656.09,-178.37 645.6,-179.86 654.73,-185.24 656.09,-178.37"/>
</a>
</g>
</g>
<!-- Node30&#45;&gt;Node12 -->
<g id="edge46_Node000030_Node000012" class="edge">
<title>Node30&#45;&gt;Node12</title>
<g id="a_edge46_Node000030_Node000012"><a xlink:title=" ">
<path fill="none" stroke="#63b8ff" d="M886.75,-219.75C882.78,-212.49 877.02,-201.95 872.11,-192.98"/>
<polygon fill="#63b8ff" stroke="#63b8ff" points="875.11,-191.18 867.24,-184.09 868.97,-194.54 875.11,-191.18"/>
</a>
</g>
</g>
<!-- Node30&#45;&gt;Node28 -->
<g id="edge45_Node000030_Node000028" class="edge">
<title>Node30&#45;&gt;Node28</title>
<g id="a_edge45_Node000030_Node000028"><a xlink:title=" ">
<path fill="none" stroke="#63b8ff" d="M828.88,-220.62C770.47,-212.95 680.73,-200.33 593.81,-184.12"/>
<polygon fill="#63b8ff" stroke="#63b8ff" points="594.25,-180.64 583.78,-182.23 592.96,-187.52 594.25,-180.64"/>
</a>
</g>
</g>
</g>
</svg>
