<?xml version="1.0" encoding="UTF-8" standalone="no"?>
<!DOCTYPE svg PUBLIC "-//W3C//DTD SVG 1.1//EN"
 "http://www.w3.org/Graphics/SVG/1.1/DTD/svg11.dtd">
<!-- Generated by graphviz version 2.43.0 (0)
 -->
<!-- Title: Network/TransportLayer/UDP/UDPGameServer.hpp Pages: 1 -->
<svg width="1193pt" height="313pt"
 viewBox="0.00 0.00 1192.50 313.00" xmlns="http://www.w3.org/2000/svg" xmlns:xlink="http://www.w3.org/1999/xlink">
<g id="graph0" class="graph" transform="scale(1 1) rotate(0) translate(4 309)">
<title>Network/TransportLayer/UDP/UDPGameServer.hpp</title>
<!-- Node1 -->
<g id="Node000001" class="node">
<title>Node1</title>
<g id="a_Node000001"><a xlink:title=" ">
<polygon fill="#999999" stroke="#666666" points="770.5,-305 624.5,-305 624.5,-275 770.5,-275 770.5,-305"/>
<text text-anchor="start" x="632.5" y="-293" font-family="Helvetica,sans-Serif" font-size="10.00">Network/TransportLayer</text>
<text text-anchor="middle" x="697.5" y="-282" font-family="Helvetica,sans-Serif" font-size="10.00">/UDP/UDPGameServer.hpp</text>
</a>
</g>
</g>
<!-- Node2 -->
<g id="Node000002" class="node">
<title>Node2</title>
<g id="a_Node000002"><a xlink:title=" ">
<polygon fill="#e0e0e0" stroke="#999999" points="357,-184 264,-184 264,-165 357,-165 357,-184"/>
<text text-anchor="middle" x="310.5" y="-172" font-family="Helvetica,sans-Serif" font-size="10.00">unordered_map</text>
</a>
</g>
</g>
<!-- Node1&#45;&gt;Node2 -->
<g id="edge1_Node000001_Node000002" class="edge">
<title>Node1&#45;&gt;Node2</title>
<g id="a_edge1_Node000001_Node000002"><a xlink:title=" ">
<path fill="none" stroke="#63b8ff" d="M624.5,-287.59C560.13,-283.96 465.09,-272.67 389.5,-239 364.27,-227.76 340.29,-206.44 325.5,-191.62"/>
<polygon fill="#63b8ff" stroke="#63b8ff" points="327.75,-188.91 318.28,-184.16 322.72,-193.78 327.75,-188.91"/>
</a>
</g>
</g>
<!-- Node3 -->
<g id="Node000003" class="node">
<title>Node3</title>
<g id="a_Node000003"><a xlink:title=" ">
<polygon fill="#e0e0e0" stroke="#999999" points="169,-129 122,-129 122,-110 169,-110 169,-129"/>
<text text-anchor="middle" x="145.5" y="-117" font-family="Helvetica,sans-Serif" font-size="10.00">vector</text>
</a>
</g>
</g>
<!-- Node1&#45;&gt;Node3 -->
<g id="edge2_Node000001_Node000003" class="edge">
<title>Node1&#45;&gt;Node3</title>
<g id="a_edge2_Node000001_Node000003"><a xlink:title=" ">
<path fill="none" stroke="#63b8ff" d="M624.48,-286.88C487.24,-282.22 201.58,-269 168.5,-239 140.78,-213.86 140.54,-166.13 142.93,-139.56"/>
<polygon fill="#63b8ff" stroke="#63b8ff" points="146.45,-139.63 144.09,-129.3 139.49,-138.85 146.45,-139.63"/>
</a>
</g>
</g>
<!-- Node4 -->
<g id="Node000004" class="node">
<title>Node4</title>
<g id="a_Node000004"><a xlink:title=" ">
<polygon fill="#e0e0e0" stroke="#999999" points="859.5,-239 809.5,-239 809.5,-220 859.5,-220 859.5,-239"/>
<text text-anchor="middle" x="834.5" y="-227" font-family="Helvetica,sans-Serif" font-size="10.00">chrono</text>
</a>
</g>
</g>
<!-- Node1&#45;&gt;Node4 -->
<g id="edge3_Node000001_Node000004" class="edge">
<title>Node1&#45;&gt;Node4</title>
<g id="a_edge3_Node000001_Node000004"><a xlink:title=" ">
<path fill="none" stroke="#63b8ff" d="M730.31,-274.99C752.97,-265.31 782.85,-252.56 804.8,-243.18"/>
<polygon fill="#63b8ff" stroke="#63b8ff" points="806.45,-246.29 814.27,-239.14 803.7,-239.85 806.45,-246.29"/>
</a>
</g>
</g>
<!-- Node5 -->
<g id="Node000005" class="node">
<title>Node5</title>
<g id="a_Node000005"><a xlink:title=" ">
<polygon fill="#e0e0e0" stroke="#999999" points="617.5,-184 573.5,-184 573.5,-165 617.5,-165 617.5,-184"/>
<text text-anchor="middle" x="595.5" y="-172" font-family="Helvetica,sans-Serif" font-size="10.00">string</text>
</a>
</g>
</g>
<!-- Node1&#45;&gt;Node5 -->
<g id="edge4_Node000001_Node000005" class="edge">
<title>Node1&#45;&gt;Node5</title>
<g id="a_edge4_Node000001_Node000005"><a xlink:title=" ">
<path fill="none" stroke="#63b8ff" d="M630.55,-274.96C611.48,-267.54 592.83,-256.22 581.5,-239 572.41,-225.19 578.3,-206.4 585.01,-192.84"/>
<polygon fill="#63b8ff" stroke="#63b8ff" points="588.1,-194.5 589.84,-184.05 581.96,-191.13 588.1,-194.5"/>
</a>
</g>
</g>
<!-- Node6 -->
<g id="Node000006" class="node">
<title>Node6</title>
<g id="a_Node000006"><a xlink:title=" ">
<polygon fill="#e0e0e0" stroke="#999999" points="925,-239 878,-239 878,-220 925,-220 925,-239"/>
<text text-anchor="middle" x="901.5" y="-227" font-family="Helvetica,sans-Serif" font-size="10.00">queue</text>
</a>
</g>
</g>
<!-- Node1&#45;&gt;Node6 -->
<g id="edge5_Node000001_Node000006" class="edge">
<title>Node1&#45;&gt;Node6</title>
<g id="a_edge5_Node000001_Node000006"><a xlink:title=" ">
<path fill="none" stroke="#63b8ff" d="M746.36,-274.99C784.07,-264.17 835.22,-249.51 868.3,-240.02"/>
<polygon fill="#63b8ff" stroke="#63b8ff" points="869.3,-243.38 877.95,-237.25 867.37,-236.65 869.3,-243.38"/>
</a>
</g>
</g>
<!-- Node7 -->
<g id="Node000007" class="node">
<title>Node7</title>
<g id="a_Node000007"><a xlink:title=" ">
<polygon fill="#e0e0e0" stroke="#999999" points="757.5,-184 709.5,-184 709.5,-165 757.5,-165 757.5,-184"/>
<text text-anchor="middle" x="733.5" y="-172" font-family="Helvetica,sans-Serif" font-size="10.00">mutex</text>
</a>
</g>
</g>
<!-- Node1&#45;&gt;Node7 -->
<g id="edge6_Node000001_Node000007" class="edge">
<title>Node1&#45;&gt;Node7</title>
<g id="a_edge6_Node000001_Node000007"><a xlink:title=" ">
<path fill="none" stroke="#63b8ff" d="M706.97,-274.74C712.95,-265.06 720.31,-251.74 724.5,-239 729.24,-224.59 731.49,-207.52 732.55,-194.72"/>
<polygon fill="#63b8ff" stroke="#63b8ff" points="736.07,-194.56 733.23,-184.35 729.08,-194.1 736.07,-194.56"/>
</a>
</g>
</g>
<!-- Node8 -->
<g id="Node000008" class="node">
<title>Node8</title>
<g id="a_Node000008"><a xlink:title=" ">
<polygon fill="#e0e0e0" stroke="#999999" points="1050,-239 943,-239 943,-220 1050,-220 1050,-239"/>
<text text-anchor="middle" x="996.5" y="-227" font-family="Helvetica,sans-Serif" font-size="10.00">condition_variable</text>
</a>
</g>
</g>
<!-- Node1&#45;&gt;Node8 -->
<g id="edge7_Node000001_Node000008" class="edge">
<title>Node1&#45;&gt;Node8</title>
<g id="a_edge7_Node000001_Node000008"><a xlink:title=" ">
<path fill="none" stroke="#63b8ff" d="M769.12,-274.99C822.51,-264.54 894.28,-250.5 942.8,-241.01"/>
<polygon fill="#63b8ff" stroke="#63b8ff" points="943.64,-244.41 952.78,-239.05 942.3,-237.54 943.64,-244.41"/>
</a>
</g>
</g>
<!-- Node9 -->
<g id="Node000009" class="node">
<title>Node9</title>
<g id="a_Node000009"><a xlink:title=" ">
<polygon fill="#e0e0e0" stroke="#999999" points="1118.5,-239 1068.5,-239 1068.5,-220 1118.5,-220 1118.5,-239"/>
<text text-anchor="middle" x="1093.5" y="-227" font-family="Helvetica,sans-Serif" font-size="10.00">atomic</text>
</a>
</g>
</g>
<!-- Node1&#45;&gt;Node9 -->
<g id="edge8_Node000001_Node000009" class="edge">
<title>Node1&#45;&gt;Node9</title>
<g id="a_edge8_Node000001_Node000009"><a xlink:title=" ">
<path fill="none" stroke="#63b8ff" d="M770.68,-281.24C841.85,-273.15 953.16,-259.11 1058.47,-239.02"/>
<polygon fill="#63b8ff" stroke="#63b8ff" points="1059.16,-242.45 1068.32,-237.12 1057.83,-235.57 1059.16,-242.45"/>
</a>
</g>
</g>
<!-- Node10 -->
<g id="Node000010" class="node">
<title>Node10</title>
<g id="a_Node000010"><a xlink:title=" ">
<polygon fill="#e0e0e0" stroke="#999999" points="1184.5,-239 1136.5,-239 1136.5,-220 1184.5,-220 1184.5,-239"/>
<text text-anchor="middle" x="1160.5" y="-227" font-family="Helvetica,sans-Serif" font-size="10.00">thread</text>
</a>
</g>
</g>
<!-- Node1&#45;&gt;Node10 -->
<g id="edge9_Node000001_Node000010" class="edge">
<title>Node1&#45;&gt;Node10</title>
<g id="a_edge9_Node000001_Node000010"><a xlink:title=" ">
<path fill="none" stroke="#63b8ff" d="M770.61,-283.56C854.36,-276.63 995.78,-262.85 1126.26,-238.99"/>
<polygon fill="#63b8ff" stroke="#63b8ff" points="1127.24,-242.37 1136.43,-237.1 1125.96,-235.48 1127.24,-242.37"/>
</a>
</g>
</g>
<!-- Node11 -->
<g id="Node000011" class="node">
<title>Node11</title>
<g id="a_Node000011"><a xlink:href="UDPSocket_8hpp.html" target="_top" xlink:title=" ">
<polygon fill="white" stroke="#666666" points="867,-184 776,-184 776,-165 867,-165 867,-184"/>
<text text-anchor="middle" x="821.5" y="-172" font-family="Helvetica,sans-Serif" font-size="10.00">UDPSocket.hpp</text>
</a>
</g>
</g>
<!-- Node1&#45;&gt;Node11 -->
<g id="edge10_Node000001_Node000011" class="edge">
<title>Node1&#45;&gt;Node11</title>
<g id="a_edge10_Node000001_Node000011"><a xlink:title=" ">
<path fill="none" stroke="#63b8ff" d="M712.95,-274.85C736.29,-253.5 780.34,-213.17 804.53,-191.03"/>
<polygon fill="#63b8ff" stroke="#63b8ff" points="806.9,-193.6 811.92,-184.27 802.18,-188.44 806.9,-193.6"/>
</a>
</g>
</g>
<!-- Node23 -->
<g id="Node000023" class="node">
<title>Node23</title>
<g id="a_Node000023"><a xlink:href="Packet_8hpp.html" target="_top" xlink:title=" ">
<polygon fill="white" stroke="#666666" points="93.5,-184 15.5,-184 15.5,-165 93.5,-165 93.5,-184"/>
<text text-anchor="middle" x="54.5" y="-172" font-family="Helvetica,sans-Serif" font-size="10.00">../Packet.hpp</text>
</a>
</g>
</g>
<!-- Node1&#45;&gt;Node23 -->
<g id="edge23_Node000001_Node000023" class="edge">
<title>Node1&#45;&gt;Node23</title>
<g id="a_edge23_Node000001_Node000023"><a xlink:title=" ">
<path fill="none" stroke="#63b8ff" d="M624.41,-289.73C486.9,-289.97 195.61,-284.86 107.5,-239 88.07,-228.88 72.97,-208.27 63.95,-193.26"/>
<polygon fill="#63b8ff" stroke="#63b8ff" points="66.88,-191.35 58.91,-184.38 60.8,-194.81 66.88,-191.35"/>
</a>
</g>
</g>
<!-- Node25 -->
<g id="Node000025" class="node">
<title>Node25</title>
<g id="a_Node000025"><a xlink:href="GameWorld_8hpp.html" target="_top" xlink:title=" ">
<polygon fill="white" stroke="#666666" points="273,-239 178,-239 178,-220 273,-220 273,-239"/>
<text text-anchor="middle" x="225.5" y="-227" font-family="Helvetica,sans-Serif" font-size="10.00">GameWorld.hpp</text>
</a>
</g>
</g>
<!-- Node1&#45;&gt;Node25 -->
<g id="edge27_Node000001_Node000025" class="edge">
<title>Node1&#45;&gt;Node25</title>
<g id="a_edge27_Node000001_Node000025"><a xlink:title=" ">
<path fill="none" stroke="#63b8ff" d="M624.27,-279.92C530.21,-268.27 368.91,-248.27 283.11,-237.64"/>
<polygon fill="#63b8ff" stroke="#63b8ff" points="283.39,-234.15 273.03,-236.39 282.53,-241.09 283.39,-234.15"/>
</a>
</g>
</g>
<!-- Node26 -->
<g id="Node000026" class="node">
<title>Node26</title>
<g id="a_Node000026"><a xlink:href="SessionManager_8hpp.html" target="_top" xlink:title=" ">
<polygon fill="white" stroke="#666666" points="533,-239 398,-239 398,-220 533,-220 533,-239"/>
<text text-anchor="middle" x="465.5" y="-227" font-family="Helvetica,sans-Serif" font-size="10.00">../../SessionManager.hpp</text>
</a>
</g>
</g>
<!-- Node1&#45;&gt;Node26 -->
<g id="edge33_Node000001_Node000026" class="edge">
<title>Node1&#45;&gt;Node26</title>
<g id="a_edge33_Node000001_Node000026"><a xlink:title=" ">
<path fill="none" stroke="#63b8ff" d="M641.93,-274.99C601.37,-264.76 547.14,-251.09 509.56,-241.61"/>
<polygon fill="#63b8ff" stroke="#63b8ff" points="509.97,-238.1 499.42,-239.05 508.26,-244.89 509.97,-238.1"/>
</a>
</g>
</g>
<!-- Node29 -->
<g id="Node000029" class="node">
<title>Node29</title>
<g id="a_Node000029"><a xlink:href="IpcChannel_8hpp.html" target="_top" xlink:title=" ">
<polygon fill="white" stroke="#666666" points="715,-239 590,-239 590,-220 715,-220 715,-239"/>
<text text-anchor="middle" x="652.5" y="-227" font-family="Helvetica,sans-Serif" font-size="10.00">server/IpcChannel.hpp</text>
</a>
</g>
</g>
<!-- Node1&#45;&gt;Node29 -->
<g id="edge42_Node000001_Node000029" class="edge">
<title>Node1&#45;&gt;Node29</title>
<g id="a_edge42_Node000001_Node000029"><a xlink:title=" ">
<path fill="none" stroke="#63b8ff" d="M686.61,-274.84C680.21,-266.52 672.08,-255.96 665.37,-247.23"/>
<polygon fill="#63b8ff" stroke="#63b8ff" points="668.11,-245.06 659.24,-239.27 662.57,-249.33 668.11,-245.06"/>
</a>
</g>
</g>
<!-- Node12 -->
<g id="Node000012" class="node">
<title>Node12</title>
<g id="a_Node000012"><a xlink:href="ASocket_8hpp.html" target="_top" xlink:title=" ">
<polygon fill="white" stroke="#666666" points="854.5,-129 768.5,-129 768.5,-110 854.5,-110 854.5,-129"/>
<text text-anchor="middle" x="811.5" y="-117" font-family="Helvetica,sans-Serif" font-size="10.00">../ASocket.hpp</text>
</a>
</g>
</g>
<!-- Node11&#45;&gt;Node12 -->
<g id="edge11_Node000011_Node000012" class="edge">
<title>Node11&#45;&gt;Node12</title>
<g id="a_edge11_Node000011_Node000012"><a xlink:title=" ">
<path fill="none" stroke="#63b8ff" d="M819.85,-164.75C818.54,-157.8 816.66,-147.85 815.02,-139.13"/>
<polygon fill="#63b8ff" stroke="#63b8ff" points="818.41,-138.27 813.12,-129.09 811.54,-139.56 818.41,-138.27"/>
</a>
</g>
</g>
<!-- Node15 -->
<g id="Node000015" class="node">
<title>Node15</title>
<g id="a_Node000015"><a xlink:title=" ">
<polygon fill="#e0e0e0" stroke="#999999" points="448.5,-19 398.5,-19 398.5,0 448.5,0 448.5,-19"/>
<text text-anchor="middle" x="423.5" y="-7" font-family="Helvetica,sans-Serif" font-size="10.00">cstdint</text>
</a>
</g>
</g>
<!-- Node11&#45;&gt;Node15 -->
<g id="edge22_Node000011_Node000015" class="edge">
<title>Node11&#45;&gt;Node15</title>
<g id="a_edge22_Node000011_Node000015"><a xlink:title=" ">
<path fill="none" stroke="#63b8ff" d="M800.66,-164.97C734.99,-138.07 532.12,-54.98 454.31,-23.12"/>
<polygon fill="#63b8ff" stroke="#63b8ff" points="455.19,-19.7 444.61,-19.15 452.54,-26.18 455.19,-19.7"/>
</a>
</g>
</g>
<!-- Node13 -->
<g id="Node000013" class="node">
<title>Node13</title>
<g id="a_Node000013"><a xlink:href="ISocket_8hpp.html" target="_top" xlink:title=" ">
<polygon fill="white" stroke="#666666" points="809,-74 736,-74 736,-55 809,-55 809,-74"/>
<text text-anchor="middle" x="772.5" y="-62" font-family="Helvetica,sans-Serif" font-size="10.00">ISocket.hpp</text>
</a>
</g>
</g>
<!-- Node12&#45;&gt;Node13 -->
<g id="edge12_Node000012_Node000013" class="edge">
<title>Node12&#45;&gt;Node13</title>
<g id="a_edge12_Node000012_Node000013"><a xlink:title=" ">
<path fill="none" stroke="#63b8ff" d="M805.06,-109.75C799.61,-102.34 791.64,-91.5 784.94,-82.41"/>
<polygon fill="#63b8ff" stroke="#63b8ff" points="787.57,-80.07 778.82,-74.09 781.93,-84.22 787.57,-80.07"/>
</a>
</g>
</g>
<!-- Node14 -->
<g id="Node000014" class="node">
<title>Node14</title>
<g id="a_Node000014"><a xlink:title=" ">
<polygon fill="#e0e0e0" stroke="#999999" points="719,-19 650,-19 650,0 719,0 719,-19"/>
<text text-anchor="middle" x="684.5" y="-7" font-family="Helvetica,sans-Serif" font-size="10.00">arpa/inet.h</text>
</a>
</g>
</g>
<!-- Node13&#45;&gt;Node14 -->
<g id="edge13_Node000013_Node000014" class="edge">
<title>Node13&#45;&gt;Node14</title>
<g id="a_edge13_Node000013_Node000014"><a xlink:title=" ">
<path fill="none" stroke="#63b8ff" d="M758.36,-54.98C744.71,-46.77 723.81,-34.18 707.72,-24.49"/>
<polygon fill="#63b8ff" stroke="#63b8ff" points="709.27,-21.33 698.9,-19.17 705.66,-27.33 709.27,-21.33"/>
</a>
</g>
</g>
<!-- Node13&#45;&gt;Node15 -->
<g id="edge14_Node000013_Node000015" class="edge">
<title>Node13&#45;&gt;Node15</title>
<g id="a_edge14_Node000013_Node000015"><a xlink:title=" ">
<path fill="none" stroke="#63b8ff" d="M735.57,-58.07C679.53,-49.8 569.7,-33.48 476.5,-19 470.8,-18.11 464.76,-17.16 458.88,-16.22"/>
<polygon fill="#63b8ff" stroke="#63b8ff" points="458.99,-12.7 448.57,-14.57 457.89,-19.61 458.99,-12.7"/>
</a>
</g>
</g>
<!-- Node16 -->
<g id="Node000016" class="node">
<title>Node16</title>
<g id="a_Node000016"><a xlink:title=" ">
<polygon fill="#e0e0e0" stroke="#999999" points="788,-19 737,-19 737,0 788,0 788,-19"/>
<text text-anchor="middle" x="762.5" y="-7" font-family="Helvetica,sans-Serif" font-size="10.00">errno.h</text>
</a>
</g>
</g>
<!-- Node13&#45;&gt;Node16 -->
<g id="edge15_Node000013_Node000016" class="edge">
<title>Node13&#45;&gt;Node16</title>
<g id="a_edge15_Node000013_Node000016"><a xlink:title=" ">
<path fill="none" stroke="#63b8ff" d="M770.85,-54.75C769.54,-47.8 767.66,-37.85 766.02,-29.13"/>
<polygon fill="#63b8ff" stroke="#63b8ff" points="769.41,-28.27 764.12,-19.09 762.54,-29.56 769.41,-28.27"/>
</a>
</g>
</g>
<!-- Node17 -->
<g id="Node000017" class="node">
<title>Node17</title>
<g id="a_Node000017"><a xlink:title=" ">
<polygon fill="#e0e0e0" stroke="#999999" points="557.5,-19 485.5,-19 485.5,0 557.5,0 557.5,-19"/>
<text text-anchor="middle" x="521.5" y="-7" font-family="Helvetica,sans-Serif" font-size="10.00">netinet/in.h</text>
</a>
</g>
</g>
<!-- Node13&#45;&gt;Node17 -->
<g id="edge16_Node000013_Node000017" class="edge">
<title>Node13&#45;&gt;Node17</title>
<g id="a_edge16_Node000013_Node000017"><a xlink:title=" ">
<path fill="none" stroke="#63b8ff" d="M735.73,-55.74C691.11,-46.31 615.85,-30.42 567.45,-20.2"/>
<polygon fill="#63b8ff" stroke="#63b8ff" points="568.06,-16.75 557.55,-18.11 566.61,-23.6 568.06,-16.75"/>
</a>
</g>
</g>
<!-- Node18 -->
<g id="Node000018" class="node">
<title>Node18</title>
<g id="a_Node000018"><a xlink:title=" ">
<polygon fill="#e0e0e0" stroke="#999999" points="884.5,-19 806.5,-19 806.5,0 884.5,0 884.5,-19"/>
<text text-anchor="middle" x="845.5" y="-7" font-family="Helvetica,sans-Serif" font-size="10.00">netinet/tcp.h</text>
</a>
</g>
</g>
<!-- Node13&#45;&gt;Node18 -->
<g id="edge17_Node000013_Node000018" class="edge">
<title>Node13&#45;&gt;Node18</title>
<g id="a_edge17_Node000013_Node000018"><a xlink:title=" ">
<path fill="none" stroke="#63b8ff" d="M784.23,-54.98C795.23,-47 811.92,-34.88 825.1,-25.31"/>
<polygon fill="#63b8ff" stroke="#63b8ff" points="827.52,-27.88 833.56,-19.17 823.41,-22.21 827.52,-27.88"/>
</a>
</g>
</g>
<!-- Node19 -->
<g id="Node000019" class="node">
<title>Node19</title>
<g id="a_Node000019"><a xlink:title=" ">
<polygon fill="#e0e0e0" stroke="#999999" points="976.5,-19 902.5,-19 902.5,0 976.5,0 976.5,-19"/>
<text text-anchor="middle" x="939.5" y="-7" font-family="Helvetica,sans-Serif" font-size="10.00">sys/select.h</text>
</a>
</g>
</g>
<!-- Node13&#45;&gt;Node19 -->
<g id="edge18_Node000013_Node000019" class="edge">
<title>Node13&#45;&gt;Node19</title>
<g id="a_edge18_Node000013_Node000019"><a xlink:title=" ">
<path fill="none" stroke="#63b8ff" d="M799.33,-54.98C827.37,-46.09 871.55,-32.07 902.8,-22.15"/>
<polygon fill="#63b8ff" stroke="#63b8ff" points="903.99,-25.44 912.46,-19.08 901.87,-18.77 903.99,-25.44"/>
</a>
</g>
</g>
<!-- Node20 -->
<g id="Node000020" class="node">
<title>Node20</title>
<g id="a_Node000020"><a xlink:title=" ">
<polygon fill="#e0e0e0" stroke="#999999" points="1072,-19 995,-19 995,0 1072,0 1072,-19"/>
<text text-anchor="middle" x="1033.5" y="-7" font-family="Helvetica,sans-Serif" font-size="10.00">sys/socket.h</text>
</a>
</g>
</g>
<!-- Node13&#45;&gt;Node20 -->
<g id="edge19_Node000013_Node000020" class="edge">
<title>Node13&#45;&gt;Node20</title>
<g id="a_edge19_Node000013_Node000020"><a xlink:title=" ">
<path fill="none" stroke="#63b8ff" d="M809.07,-56.07C854.97,-46.75 933.86,-30.73 984.83,-20.38"/>
<polygon fill="#63b8ff" stroke="#63b8ff" points="985.53,-23.81 994.63,-18.39 984.13,-16.95 985.53,-23.81"/>
</a>
</g>
</g>
<!-- Node21 -->
<g id="Node000021" class="node">
<title>Node21</title>
<g id="a_Node000021"><a xlink:title=" ">
<polygon fill="#e0e0e0" stroke="#999999" points="1147,-19 1090,-19 1090,0 1147,0 1147,-19"/>
<text text-anchor="middle" x="1118.5" y="-7" font-family="Helvetica,sans-Serif" font-size="10.00">sys/un.h</text>
</a>
</g>
</g>
<!-- Node13&#45;&gt;Node21 -->
<g id="edge20_Node000013_Node000021" class="edge">
<title>Node13&#45;&gt;Node21</title>
<g id="a_edge20_Node000013_Node000021"><a xlink:title=" ">
<path fill="none" stroke="#63b8ff" d="M809.29,-59.2C865.54,-52.41 976.51,-38.16 1079.89,-19.18"/>
<polygon fill="#63b8ff" stroke="#63b8ff" points="1080.67,-22.59 1089.87,-17.32 1079.39,-15.71 1080.67,-22.59"/>
</a>
</g>
</g>
<!-- Node22 -->
<g id="Node000022" class="node">
<title>Node22</title>
<g id="a_Node000022"><a xlink:title=" ">
<polygon fill="#e0e0e0" stroke="#999999" points="631.5,-19 575.5,-19 575.5,0 631.5,0 631.5,-19"/>
<text text-anchor="middle" x="603.5" y="-7" font-family="Helvetica,sans-Serif" font-size="10.00">unistd.h</text>
</a>
</g>
</g>
<!-- Node13&#45;&gt;Node22 -->
<g id="edge21_Node000013_Node000022" class="edge">
<title>Node13&#45;&gt;Node22</title>
<g id="a_edge21_Node000013_Node000022"><a xlink:title=" ">
<path fill="none" stroke="#63b8ff" d="M745.35,-54.98C716.97,-46.09 672.27,-32.07 640.64,-22.15"/>
<polygon fill="#63b8ff" stroke="#63b8ff" points="641.45,-18.73 630.87,-19.08 639.36,-25.41 641.45,-18.73"/>
</a>
</g>
</g>
<!-- Node23&#45;&gt;Node3 -->
<g id="edge26_Node000023_Node000003" class="edge">
<title>Node23&#45;&gt;Node3</title>
<g id="a_edge26_Node000023_Node000003"><a xlink:title=" ">
<path fill="none" stroke="#63b8ff" d="M69.12,-164.98C83.36,-156.69 105.25,-143.94 121.95,-134.22"/>
<polygon fill="#63b8ff" stroke="#63b8ff" points="123.73,-137.23 130.61,-129.17 120.21,-131.18 123.73,-137.23"/>
</a>
</g>
</g>
<!-- Node23&#45;&gt;Node15 -->
<g id="edge24_Node000023_Node000015" class="edge">
<title>Node23&#45;&gt;Node15</title>
<g id="a_edge24_Node000023_Node000015"><a xlink:title=" ">
<path fill="none" stroke="#63b8ff" d="M60.55,-164.97C77.16,-142.33 126.05,-80.74 183.5,-55 251.63,-24.47 339.65,-14.89 387.92,-11.88"/>
<polygon fill="#63b8ff" stroke="#63b8ff" points="388.38,-15.36 398.16,-11.3 387.98,-8.37 388.38,-15.36"/>
</a>
</g>
</g>
<!-- Node24 -->
<g id="Node000024" class="node">
<title>Node24</title>
<g id="a_Node000024"><a xlink:title=" ">
<polygon fill="#e0e0e0" stroke="#999999" points="65,-129 0,-129 0,-110 65,-110 65,-129"/>
<text text-anchor="middle" x="32.5" y="-117" font-family="Helvetica,sans-Serif" font-size="10.00">stdexcept</text>
</a>
</g>
</g>
<!-- Node23&#45;&gt;Node24 -->
<g id="edge25_Node000023_Node000024" class="edge">
<title>Node23&#45;&gt;Node24</title>
<g id="a_edge25_Node000023_Node000024"><a xlink:title=" ">
<path fill="none" stroke="#63b8ff" d="M50.87,-164.75C47.92,-157.65 43.67,-147.4 39.99,-138.56"/>
<polygon fill="#63b8ff" stroke="#63b8ff" points="43.13,-136.98 36.07,-129.09 36.67,-139.67 43.13,-136.98"/>
</a>
</g>
</g>
<!-- Node25&#45;&gt;Node2 -->
<g id="edge30_Node000025_Node000002" class="edge">
<title>Node25&#45;&gt;Node2</title>
<g id="a_edge30_Node000025_Node000002"><a xlink:title=" ">
<path fill="none" stroke="#63b8ff" d="M239.16,-219.98C252.34,-211.77 272.53,-199.18 288.07,-189.49"/>
<polygon fill="#63b8ff" stroke="#63b8ff" points="289.96,-192.43 296.59,-184.17 286.26,-186.49 289.96,-192.43"/>
</a>
</g>
</g>
<!-- Node25&#45;&gt;Node3 -->
<g id="edge31_Node000025_Node000003" class="edge">
<title>Node25&#45;&gt;Node3</title>
<g id="a_edge31_Node000025_Node000003"><a xlink:title=" ">
<path fill="none" stroke="#63b8ff" d="M216.2,-219.81C207.25,-211.2 193.63,-197.38 183.5,-184 172.38,-169.31 161.79,-151.14 154.63,-138.01"/>
<polygon fill="#63b8ff" stroke="#63b8ff" points="157.66,-136.27 149.87,-129.09 151.49,-139.56 157.66,-136.27"/>
</a>
</g>
</g>
<!-- Node25&#45;&gt;Node15 -->
<g id="edge32_Node000025_Node000015" class="edge">
<title>Node25&#45;&gt;Node15</title>
<g id="a_edge32_Node000025_Node000015"><a xlink:title=" ">
<path fill="none" stroke="#63b8ff" d="M222.32,-219.75C218.25,-206.98 212.69,-182.83 221.5,-165 257.38,-92.38 345.57,-44.5 392.67,-23.2"/>
<polygon fill="#63b8ff" stroke="#63b8ff" points="394.33,-26.29 402.06,-19.05 391.5,-19.89 394.33,-26.29"/>
</a>
</g>
</g>
<!-- Node25&#45;&gt;Node17 -->
<g id="edge29_Node000025_Node000017" class="edge">
<title>Node25&#45;&gt;Node17</title>
<g id="a_edge29_Node000025_Node000017"><a xlink:title=" ">
<path fill="none" stroke="#63b8ff" d="M227.81,-219.75C231.66,-206.54 240.49,-181.34 255.5,-165 322.33,-92.24 431.47,-43.96 486.88,-22.77"/>
<polygon fill="#63b8ff" stroke="#63b8ff" points="488.44,-25.93 496.58,-19.13 485.98,-19.37 488.44,-25.93"/>
</a>
</g>
</g>
<!-- Node25&#45;&gt;Node23 -->
<g id="edge28_Node000025_Node000023" class="edge">
<title>Node25&#45;&gt;Node23</title>
<g id="a_edge28_Node000025_Node000023"><a xlink:title=" ">
<path fill="none" stroke="#63b8ff" d="M198.03,-219.98C169.32,-211.09 124.08,-197.07 92.08,-187.15"/>
<polygon fill="#63b8ff" stroke="#63b8ff" points="92.78,-183.7 82.19,-184.08 90.7,-190.39 92.78,-183.7"/>
</a>
</g>
</g>
<!-- Node26&#45;&gt;Node2 -->
<g id="edge35_Node000026_Node000002" class="edge">
<title>Node26&#45;&gt;Node2</title>
<g id="a_edge35_Node000026_Node000002"><a xlink:title=" ">
<path fill="none" stroke="#63b8ff" d="M440.6,-219.98C414.8,-211.16 374.28,-197.31 345.32,-187.41"/>
<polygon fill="#63b8ff" stroke="#63b8ff" points="346.19,-184.01 335.6,-184.08 343.93,-190.63 346.19,-184.01"/>
</a>
</g>
</g>
<!-- Node26&#45;&gt;Node3 -->
<g id="edge40_Node000026_Node000003" class="edge">
<title>Node26&#45;&gt;Node3</title>
<g id="a_edge40_Node000026_Node000003"><a xlink:title=" ">
<path fill="none" stroke="#63b8ff" d="M454.96,-219.83C437.62,-206.02 401.52,-179.17 366.5,-165 303.32,-139.43 223.83,-128.06 179.46,-123.4"/>
<polygon fill="#63b8ff" stroke="#63b8ff" points="179.53,-119.89 169.23,-122.38 178.83,-126.85 179.53,-119.89"/>
</a>
</g>
</g>
<!-- Node26&#45;&gt;Node5 -->
<g id="edge41_Node000026_Node000005" class="edge">
<title>Node26&#45;&gt;Node5</title>
<g id="a_edge41_Node000026_Node000005"><a xlink:title=" ">
<path fill="none" stroke="#63b8ff" d="M486.39,-219.98C507.58,-211.34 540.63,-197.87 564.8,-188.02"/>
<polygon fill="#63b8ff" stroke="#63b8ff" points="566.29,-191.19 574.23,-184.17 563.65,-184.7 566.29,-191.19"/>
</a>
</g>
</g>
<!-- Node26&#45;&gt;Node7 -->
<g id="edge36_Node000026_Node000007" class="edge">
<title>Node26&#45;&gt;Node7</title>
<g id="a_edge36_Node000026_Node000007"><a xlink:title=" ">
<path fill="none" stroke="#63b8ff" d="M515.66,-219.97C561.14,-212.03 630.22,-199.41 699.22,-184.17"/>
<polygon fill="#63b8ff" stroke="#63b8ff" points="700.39,-187.49 709.39,-181.9 698.87,-180.66 700.39,-187.49"/>
</a>
</g>
</g>
<!-- Node26&#45;&gt;Node15 -->
<g id="edge39_Node000026_Node000015" class="edge">
<title>Node26&#45;&gt;Node15</title>
<g id="a_edge39_Node000026_Node000015"><a xlink:title=" ">
<path fill="none" stroke="#63b8ff" d="M460.19,-220C455.02,-211.3 447.4,-197.23 443.5,-184 427.37,-129.35 424.15,-61.44 423.57,-29.19"/>
<polygon fill="#63b8ff" stroke="#63b8ff" points="427.07,-28.97 423.46,-19.01 420.07,-29.05 427.07,-28.97"/>
</a>
</g>
</g>
<!-- Node26&#45;&gt;Node17 -->
<g id="edge34_Node000026_Node000017" class="edge">
<title>Node26&#45;&gt;Node17</title>
<g id="a_edge34_Node000026_Node000017"><a xlink:title=" ">
<path fill="none" stroke="#63b8ff" d="M485.7,-219.91C499.97,-212.64 518.01,-200.71 526.5,-184 552.51,-132.83 537.05,-61.76 527.43,-28.73"/>
<polygon fill="#63b8ff" stroke="#63b8ff" points="530.74,-27.6 524.46,-19.07 524.05,-29.65 530.74,-27.6"/>
</a>
</g>
</g>
<!-- Node27 -->
<g id="Node000027" class="node">
<title>Node27</title>
<g id="a_Node000027"><a xlink:title=" ">
<polygon fill="#e0e0e0" stroke="#999999" points="691.5,-184 635.5,-184 635.5,-165 691.5,-165 691.5,-184"/>
<text text-anchor="middle" x="663.5" y="-172" font-family="Helvetica,sans-Serif" font-size="10.00">optional</text>
</a>
</g>
</g>
<!-- Node26&#45;&gt;Node27 -->
<g id="edge37_Node000026_Node000027" class="edge">
<title>Node26&#45;&gt;Node27</title>
<g id="a_edge37_Node000026_Node000027"><a xlink:title=" ">
<path fill="none" stroke="#63b8ff" d="M497.31,-219.98C532.18,-210.65 588.12,-195.68 625.33,-185.72"/>
<polygon fill="#63b8ff" stroke="#63b8ff" points="626.54,-189.02 635.29,-183.05 624.73,-182.25 626.54,-189.02"/>
</a>
</g>
</g>
<!-- Node28 -->
<g id="Node000028" class="node">
<title>Node28</title>
<g id="a_Node000028"><a xlink:title=" ">
<polygon fill="#e0e0e0" stroke="#999999" points="517,-184 452,-184 452,-165 517,-165 517,-184"/>
<text text-anchor="middle" x="484.5" y="-172" font-family="Helvetica,sans-Serif" font-size="10.00">functional</text>
</a>
</g>
</g>
<!-- Node26&#45;&gt;Node28 -->
<g id="edge38_Node000026_Node000028" class="edge">
<title>Node26&#45;&gt;Node28</title>
<g id="a_edge38_Node000026_Node000028"><a xlink:title=" ">
<path fill="none" stroke="#63b8ff" d="M468.64,-219.75C471.18,-212.65 474.86,-202.4 478.03,-193.56"/>
<polygon fill="#63b8ff" stroke="#63b8ff" points="481.34,-194.68 481.42,-184.09 474.75,-192.32 481.34,-194.68"/>
</a>
</g>
</g>
<!-- Node29&#45;&gt;Node5 -->
<g id="edge43_Node000029_Node000005" class="edge">
<title>Node29&#45;&gt;Node5</title>
<g id="a_edge43_Node000029_Node000005"><a xlink:title=" ">
<path fill="none" stroke="#63b8ff" d="M643.34,-219.98C635,-212.23 622.47,-200.58 612.32,-191.14"/>
<polygon fill="#63b8ff" stroke="#63b8ff" points="614.53,-188.42 604.82,-184.17 609.76,-193.54 614.53,-188.42"/>
</a>
</g>
</g>
<!-- Node29&#45;&gt;Node11 -->
<g id="edge45_Node000029_Node000011" class="edge">
<title>Node29&#45;&gt;Node11</title>
<g id="a_edge45_Node000029_Node000011"><a xlink:title=" ">
<path fill="none" stroke="#63b8ff" d="M679.65,-219.98C708.03,-211.09 752.73,-197.07 784.36,-187.15"/>
<polygon fill="#63b8ff" stroke="#63b8ff" points="785.64,-190.41 794.13,-184.08 783.55,-183.73 785.64,-190.41"/>
</a>
</g>
</g>
<!-- Node29&#45;&gt;Node27 -->
<g id="edge44_Node000029_Node000027" class="edge">
<title>Node29&#45;&gt;Node27</title>
<g id="a_edge44_Node000029_Node000027"><a xlink:title=" ">
<path fill="none" stroke="#63b8ff" d="M654.32,-219.75C655.76,-212.8 657.82,-202.85 659.63,-194.13"/>
<polygon fill="#63b8ff" stroke="#63b8ff" points="663.11,-194.59 661.72,-184.09 656.26,-193.17 663.11,-194.59"/>
</a>
</g>
</g>
</g>
</svg>
