<?xml version="1.0" encoding="UTF-8" standalone="no"?>
<!DOCTYPE svg PUBLIC "-//W3C//DTD SVG 1.1//EN"
 "http://www.w3.org/Graphics/SVG/1.1/DTD/svg11.dtd">
<!-- Generated by graphviz version 2.43.0 (0)
 -->
<!-- Title: Network/TransportLayer/UDP/UDPSocket.hpp Pages: 1 -->
<svg width="960pt" height="302pt"
 viewBox="0.00 0.00 959.50 302.00" xmlns="http://www.w3.org/2000/svg" xmlns:xlink="http://www.w3.org/1999/xlink">
<g id="graph0" class="graph" transform="scale(1 1) rotate(0) translate(4 298)">
<title>Network/TransportLayer/UDP/UDPSocket.hpp</title>
<!-- Node1 -->
<g id="Node000001" class="node">
<title>Node1</title>
<g id="a_Node000001"><a xlink:title=" ">
<polygon fill="#999999" stroke="#666666" points="629.5,-294 496.5,-294 496.5,-264 629.5,-264 629.5,-294"/>
<text text-anchor="start" x="504.5" y="-282" font-family="Helvetica,sans-Serif" font-size="10.00">Network/TransportLayer</text>
<text text-anchor="middle" x="563" y="-271" font-family="Helvetica,sans-Serif" font-size="10.00">/UDP/UDPSocket.hpp</text>
</a>
</g>
</g>
<!-- Node2 -->
<g id="Node000002" class="node">
<title>Node2</title>
<g id="a_Node000002"><a xlink:href="NetworkClient_8hpp.html" target="_top" xlink:title=" ">
<polygon fill="white" stroke="#666666" points="343.5,-222.5 160.5,-222.5 160.5,-203.5 343.5,-203.5 343.5,-222.5"/>
<text text-anchor="middle" x="252" y="-210.5" font-family="Helvetica,sans-Serif" font-size="10.00">Network/Client/NetworkClient.hpp</text>
</a>
</g>
</g>
<!-- Node1&#45;&gt;Node2 -->
<g id="edge1_Node000001_Node000002" class="edge">
<title>Node1&#45;&gt;Node2</title>
<g id="a_edge1_Node000001_Node000002"><a xlink:title=" ">
<path fill="none" stroke="#63b8ff" d="M486.32,-262.22C425.37,-249.68 342.47,-232.62 293.36,-222.51"/>
<polygon fill="#63b8ff" stroke="#63b8ff" points="485.78,-265.68 496.28,-264.27 487.19,-258.83 485.78,-265.68"/>
</a>
</g>
</g>
<!-- Node8 -->
<g id="Node000008" class="node">
<title>Node8</title>
<g id="a_Node000008"><a xlink:href="UDPGameServer_8hpp.html" target="_top" xlink:title=" ">
<polygon fill="white" stroke="#666666" points="581,-162 435,-162 435,-132 581,-132 581,-162"/>
<text text-anchor="start" x="443" y="-150" font-family="Helvetica,sans-Serif" font-size="10.00">Network/TransportLayer</text>
<text text-anchor="middle" x="508" y="-139" font-family="Helvetica,sans-Serif" font-size="10.00">/UDP/UDPGameServer.hpp</text>
</a>
</g>
</g>
<!-- Node1&#45;&gt;Node8 -->
<g id="edge8_Node000001_Node000008" class="edge">
<title>Node1&#45;&gt;Node8</title>
<g id="a_edge8_Node000001_Node000008"><a xlink:title=" ">
<path fill="none" stroke="#63b8ff" d="M550.68,-254.63C546.47,-246.32 541.85,-236.82 538,-228 528.1,-205.29 518.35,-178.17 512.77,-162.05"/>
<polygon fill="#63b8ff" stroke="#63b8ff" points="547.69,-256.46 555.37,-263.75 553.91,-253.26 547.69,-256.46"/>
</a>
</g>
</g>
<!-- Node12 -->
<g id="Node000012" class="node">
<title>Node12</title>
<g id="a_Node000012"><a xlink:href="UDPSocket_8cpp.html" target="_top" xlink:title=" ">
<polygon fill="white" stroke="#666666" points="822.5,-228 689.5,-228 689.5,-198 822.5,-198 822.5,-228"/>
<text text-anchor="start" x="697.5" y="-216" font-family="Helvetica,sans-Serif" font-size="10.00">Network/TransportLayer</text>
<text text-anchor="middle" x="756" y="-205" font-family="Helvetica,sans-Serif" font-size="10.00">/UDP/UDPSocket.cpp</text>
</a>
</g>
</g>
<!-- Node1&#45;&gt;Node12 -->
<g id="edge12_Node000001_Node000012" class="edge">
<title>Node1&#45;&gt;Node12</title>
<g id="a_edge12_Node000001_Node000012"><a xlink:title=" ">
<path fill="none" stroke="#63b8ff" d="M615.1,-260.72C646.02,-250.47 684.73,-237.63 713.74,-228.01"/>
<polygon fill="#63b8ff" stroke="#63b8ff" points="613.74,-257.49 605.35,-263.95 615.95,-264.13 613.74,-257.49"/>
</a>
</g>
</g>
<!-- Node13 -->
<g id="Node000013" class="node">
<title>Node13</title>
<g id="a_Node000013"><a xlink:href="IpcChannel_8hpp.html" target="_top" xlink:title=" ">
<polygon fill="white" stroke="#666666" points="671.5,-222.5 546.5,-222.5 546.5,-203.5 671.5,-203.5 671.5,-222.5"/>
<text text-anchor="middle" x="609" y="-210.5" font-family="Helvetica,sans-Serif" font-size="10.00">server/IpcChannel.hpp</text>
</a>
</g>
</g>
<!-- Node1&#45;&gt;Node13 -->
<g id="edge13_Node000001_Node000013" class="edge">
<title>Node1&#45;&gt;Node13</title>
<g id="a_edge13_Node000001_Node000013"><a xlink:title=" ">
<path fill="none" stroke="#63b8ff" d="M579.09,-255.61C587.2,-244.32 596.58,-231.28 602.64,-222.84"/>
<polygon fill="#63b8ff" stroke="#63b8ff" points="576.2,-253.63 573.21,-263.8 581.89,-257.72 576.2,-253.63"/>
</a>
</g>
</g>
<!-- Node3 -->
<g id="Node000003" class="node">
<title>Node3</title>
<g id="a_Node000003"><a xlink:href="NetworkClient_8cpp.html" target="_top" xlink:title=" ">
<polygon fill="white" stroke="#666666" points="182,-156.5 0,-156.5 0,-137.5 182,-137.5 182,-156.5"/>
<text text-anchor="middle" x="91" y="-144.5" font-family="Helvetica,sans-Serif" font-size="10.00">Network/Client/NetworkClient.cpp</text>
</a>
</g>
</g>
<!-- Node2&#45;&gt;Node3 -->
<g id="edge2_Node000002_Node000003" class="edge">
<title>Node2&#45;&gt;Node3</title>
<g id="a_edge2_Node000002_Node000003"><a xlink:title=" ">
<path fill="none" stroke="#63b8ff" d="M220.58,-199.51C188.76,-186.86 140.39,-167.63 112.63,-156.6"/>
<polygon fill="#63b8ff" stroke="#63b8ff" points="219.7,-202.93 230.29,-203.37 222.29,-196.42 219.7,-202.93"/>
</a>
</g>
</g>
<!-- Node4 -->
<g id="Node000004" class="node">
<title>Node4</title>
<g id="a_Node000004"><a xlink:href="GraphicClient_8hpp.html" target="_top" xlink:title=" ">
<polygon fill="white" stroke="#666666" points="277.5,-96 142.5,-96 142.5,-66 277.5,-66 277.5,-96"/>
<text text-anchor="start" x="150.5" y="-84" font-family="Helvetica,sans-Serif" font-size="10.00">graphical&#45;client/Graphic</text>
<text text-anchor="middle" x="210" y="-73" font-family="Helvetica,sans-Serif" font-size="10.00">Client/GraphicClient.hpp</text>
</a>
</g>
</g>
<!-- Node2&#45;&gt;Node4 -->
<g id="edge3_Node000002_Node000004" class="edge">
<title>Node2&#45;&gt;Node4</title>
<g id="a_edge3_Node000002_Node000004"><a xlink:title=" ">
<path fill="none" stroke="#63b8ff" d="M242.81,-194.28C238.19,-184.87 232.8,-173.01 229,-162 221.23,-139.46 215.51,-112.29 212.47,-96.11"/>
<polygon fill="#63b8ff" stroke="#63b8ff" points="239.76,-196.01 247.39,-203.37 246.01,-192.86 239.76,-196.01"/>
</a>
</g>
</g>
<!-- Node7 -->
<g id="Node000007" class="node">
<title>Node7</title>
<g id="a_Node000007"><a xlink:href="System_8hpp.html" target="_top" xlink:title=" ">
<polygon fill="white" stroke="#666666" points="350,-162 238,-162 238,-132 350,-132 350,-162"/>
<text text-anchor="start" x="246" y="-150" font-family="Helvetica,sans-Serif" font-size="10.00">graphical&#45;client/ecs</text>
<text text-anchor="middle" x="294" y="-139" font-family="Helvetica,sans-Serif" font-size="10.00">/System.hpp</text>
</a>
</g>
</g>
<!-- Node2&#45;&gt;Node7 -->
<g id="edge6_Node000002_Node000007" class="edge">
<title>Node2&#45;&gt;Node7</title>
<g id="a_edge6_Node000002_Node000007"><a xlink:title=" ">
<path fill="none" stroke="#63b8ff" d="M263.21,-194.92C269.88,-184.76 278.25,-172.01 284.58,-162.36"/>
<polygon fill="#63b8ff" stroke="#63b8ff" points="260.22,-193.09 257.66,-203.37 266.08,-196.93 260.22,-193.09"/>
</a>
</g>
</g>
<!-- Node5 -->
<g id="Node000005" class="node">
<title>Node5</title>
<g id="a_Node000005"><a xlink:href="client_8cpp.html" target="_top" xlink:title=" ">
<polygon fill="white" stroke="#666666" points="207,-30 51,-30 51,0 207,0 207,-30"/>
<text text-anchor="start" x="59" y="-18" font-family="Helvetica,sans-Serif" font-size="10.00">/home/loic/EPITECH</text>
<text text-anchor="middle" x="129" y="-7" font-family="Helvetica,sans-Serif" font-size="10.00">/rtype/Mystic&#45;Type/client.cpp</text>
</a>
</g>
</g>
<!-- Node4&#45;&gt;Node5 -->
<g id="edge4_Node000004_Node000005" class="edge">
<title>Node4&#45;&gt;Node5</title>
<g id="a_edge4_Node000004_Node000005"><a xlink:title=" ">
<path fill="none" stroke="#63b8ff" d="M184.03,-59.48C171.92,-49.91 157.82,-38.77 146.93,-30.16"/>
<polygon fill="#63b8ff" stroke="#63b8ff" points="182.01,-62.34 192.02,-65.8 186.35,-56.85 182.01,-62.34"/>
</a>
</g>
</g>
<!-- Node6 -->
<g id="Node000006" class="node">
<title>Node6</title>
<g id="a_Node000006"><a xlink:href="GraphicClient_8cpp.html" target="_top" xlink:title=" ">
<polygon fill="white" stroke="#666666" points="359,-30 225,-30 225,0 359,0 359,-30"/>
<text text-anchor="start" x="233" y="-18" font-family="Helvetica,sans-Serif" font-size="10.00">graphical&#45;client/Graphic</text>
<text text-anchor="middle" x="292" y="-7" font-family="Helvetica,sans-Serif" font-size="10.00">Client/GraphicClient.cpp</text>
</a>
</g>
</g>
<!-- Node4&#45;&gt;Node6 -->
<g id="edge5_Node000004_Node000006" class="edge">
<title>Node4&#45;&gt;Node6</title>
<g id="a_edge5_Node000004_Node000006"><a xlink:title=" ">
<path fill="none" stroke="#63b8ff" d="M236.29,-59.48C248.55,-49.91 262.82,-38.77 273.85,-30.16"/>
<polygon fill="#63b8ff" stroke="#63b8ff" points="233.93,-56.88 228.2,-65.8 238.24,-62.4 233.93,-56.88"/>
</a>
</g>
</g>
<!-- Node7&#45;&gt;Node4 -->
<g id="edge7_Node000007_Node000004" class="edge">
<title>Node7&#45;&gt;Node4</title>
<g id="a_edge7_Node000007_Node000004"><a xlink:title=" ">
<path fill="none" stroke="#63b8ff" d="M267.06,-125.48C254.51,-115.91 239.89,-104.77 228.59,-96.16"/>
<polygon fill="#63b8ff" stroke="#63b8ff" points="265.28,-128.52 275.36,-131.8 269.52,-122.95 265.28,-128.52"/>
</a>
</g>
</g>
<!-- Node9 -->
<g id="Node000009" class="node">
<title>Node9</title>
<g id="a_Node000009"><a xlink:href="game_8cpp.html" target="_top" xlink:title=" ">
<polygon fill="white" stroke="#666666" points="615.5,-96 458.5,-96 458.5,-66 615.5,-66 615.5,-96"/>
<text text-anchor="start" x="466.5" y="-84" font-family="Helvetica,sans-Serif" font-size="10.00">/home/loic/EPITECH</text>
<text text-anchor="middle" x="537" y="-73" font-family="Helvetica,sans-Serif" font-size="10.00">/rtype/Mystic&#45;Type/game.cpp</text>
</a>
</g>
</g>
<!-- Node8&#45;&gt;Node9 -->
<g id="edge9_Node000008_Node000009" class="edge">
<title>Node8&#45;&gt;Node9</title>
<g id="a_edge9_Node000008_Node000009"><a xlink:title=" ">
<path fill="none" stroke="#63b8ff" d="M518.57,-122.68C522.59,-113.79 527.06,-103.95 530.58,-96.16"/>
<polygon fill="#63b8ff" stroke="#63b8ff" points="515.38,-121.24 514.44,-131.8 521.75,-124.13 515.38,-121.24"/>
</a>
</g>
</g>
<!-- Node10 -->
<g id="Node000010" class="node">
<title>Node10</title>
<g id="a_Node000010"><a xlink:href="server_8cpp.html" target="_top" xlink:title=" ">
<polygon fill="white" stroke="#666666" points="792.5,-96 633.5,-96 633.5,-66 792.5,-66 792.5,-96"/>
<text text-anchor="start" x="641.5" y="-84" font-family="Helvetica,sans-Serif" font-size="10.00">/home/loic/EPITECH</text>
<text text-anchor="middle" x="713" y="-73" font-family="Helvetica,sans-Serif" font-size="10.00">/rtype/Mystic&#45;Type/server.cpp</text>
</a>
</g>
</g>
<!-- Node8&#45;&gt;Node10 -->
<g id="edge10_Node000008_Node000010" class="edge">
<title>Node8&#45;&gt;Node10</title>
<g id="a_edge10_Node000008_Node000010"><a xlink:title=" ">
<path fill="none" stroke="#63b8ff" d="M562.91,-128.86C595.83,-118.58 637.16,-105.68 668.12,-96.01"/>
<polygon fill="#63b8ff" stroke="#63b8ff" points="561.49,-125.63 552.99,-131.95 563.58,-132.32 561.49,-125.63"/>
</a>
</g>
</g>
<!-- Node11 -->
<g id="Node000011" class="node">
<title>Node11</title>
<g id="a_Node000011"><a xlink:href="UDPGameServer_8cpp.html" target="_top" xlink:title=" ">
<polygon fill="white" stroke="#666666" points="440.5,-96 295.5,-96 295.5,-66 440.5,-66 440.5,-96"/>
<text text-anchor="start" x="303.5" y="-84" font-family="Helvetica,sans-Serif" font-size="10.00">Network/TransportLayer</text>
<text text-anchor="middle" x="368" y="-73" font-family="Helvetica,sans-Serif" font-size="10.00">/UDP/UDPGameServer.cpp</text>
</a>
</g>
</g>
<!-- Node8&#45;&gt;Node11 -->
<g id="edge11_Node000008_Node000011" class="edge">
<title>Node8&#45;&gt;Node11</title>
<g id="a_edge11_Node000008_Node000011"><a xlink:title=" ">
<path fill="none" stroke="#63b8ff" d="M468.15,-127.78C446.08,-117.69 419.06,-105.34 398.65,-96.01"/>
<polygon fill="#63b8ff" stroke="#63b8ff" points="466.73,-130.98 477.28,-131.95 469.64,-124.61 466.73,-130.98"/>
</a>
</g>
</g>
<!-- Node13&#45;&gt;Node8 -->
<g id="edge19_Node000013_Node000008" class="edge">
<title>Node13&#45;&gt;Node8</title>
<g id="a_edge19_Node000013_Node000008"><a xlink:title=" ">
<path fill="none" stroke="#63b8ff" d="M586.77,-197.91C569.99,-187.28 547.07,-172.75 530.28,-162.12"/>
<polygon fill="#63b8ff" stroke="#63b8ff" points="585.06,-200.97 595.38,-203.37 588.81,-195.06 585.06,-200.97"/>
</a>
</g>
</g>
<!-- Node13&#45;&gt;Node9 -->
<g id="edge14_Node000013_Node000009" class="edge">
<title>Node13&#45;&gt;Node9</title>
<g id="a_edge14_Node000013_Node000009"><a xlink:title=" ">
<path fill="none" stroke="#63b8ff" d="M607.61,-193.21C605.66,-176.24 601.02,-151.08 590,-132 581.77,-117.76 568.24,-105.09 556.9,-96.07"/>
<polygon fill="#63b8ff" stroke="#63b8ff" points="604.15,-193.84 608.57,-203.47 611.12,-193.19 604.15,-193.84"/>
</a>
</g>
</g>
<!-- Node13&#45;&gt;Node10 -->
<g id="edge15_Node000013_Node000010" class="edge">
<title>Node13&#45;&gt;Node10</title>
<g id="a_edge15_Node000013_Node000010"><a xlink:title=" ">
<path fill="none" stroke="#63b8ff" d="M620.63,-194.76C631.96,-178.26 649.93,-152.87 667,-132 677.31,-119.4 689.87,-105.85 699.26,-96.05"/>
<polygon fill="#63b8ff" stroke="#63b8ff" points="617.52,-193.11 614.78,-203.35 623.3,-197.06 617.52,-193.11"/>
</a>
</g>
</g>
<!-- Node14 -->
<g id="Node000014" class="node">
<title>Node14</title>
<g id="a_Node000014"><a xlink:href="TCPServer_8hpp.html" target="_top" xlink:title=" ">
<polygon fill="white" stroke="#666666" points="808.5,-162 675.5,-162 675.5,-132 808.5,-132 808.5,-162"/>
<text text-anchor="start" x="683.5" y="-150" font-family="Helvetica,sans-Serif" font-size="10.00">Network/TransportLayer</text>
<text text-anchor="middle" x="742" y="-139" font-family="Helvetica,sans-Serif" font-size="10.00">/TCP/TCPServer.hpp</text>
</a>
</g>
</g>
<!-- Node13&#45;&gt;Node14 -->
<g id="edge16_Node000013_Node000014" class="edge">
<title>Node13&#45;&gt;Node14</title>
<g id="a_edge16_Node000013_Node000014"><a xlink:title=" ">
<path fill="none" stroke="#63b8ff" d="M636.16,-198.93C658.41,-188.22 689.84,-173.1 712.67,-162.12"/>
<polygon fill="#63b8ff" stroke="#63b8ff" points="634.43,-195.88 626.94,-203.37 637.47,-202.19 634.43,-195.88"/>
</a>
</g>
</g>
<!-- Node16 -->
<g id="Node000016" class="node">
<title>Node16</title>
<g id="a_Node000016"><a xlink:href="IpcChannel_8cpp.html" target="_top" xlink:title=" ">
<polygon fill="white" stroke="#666666" points="951.5,-156.5 826.5,-156.5 826.5,-137.5 951.5,-137.5 951.5,-156.5"/>
<text text-anchor="middle" x="889" y="-144.5" font-family="Helvetica,sans-Serif" font-size="10.00">server/IpcChannel.cpp</text>
</a>
</g>
</g>
<!-- Node13&#45;&gt;Node16 -->
<g id="edge20_Node000013_Node000016" class="edge">
<title>Node13&#45;&gt;Node16</title>
<g id="a_edge20_Node000013_Node000016"><a xlink:title=" ">
<path fill="none" stroke="#63b8ff" d="M656.34,-201.18C711.46,-188.58 801.36,-168.03 851.75,-156.51"/>
<polygon fill="#63b8ff" stroke="#63b8ff" points="655.44,-197.79 646.47,-203.44 657,-204.62 655.44,-197.79"/>
</a>
</g>
</g>
<!-- Node14&#45;&gt;Node10 -->
<g id="edge17_Node000014_Node000010" class="edge">
<title>Node14&#45;&gt;Node10</title>
<g id="a_edge17_Node000014_Node000010"><a xlink:title=" ">
<path fill="none" stroke="#63b8ff" d="M731.43,-122.68C727.41,-113.79 722.94,-103.95 719.42,-96.16"/>
<polygon fill="#63b8ff" stroke="#63b8ff" points="728.25,-124.13 735.56,-131.8 734.62,-121.24 728.25,-124.13"/>
</a>
</g>
</g>
<!-- Node15 -->
<g id="Node000015" class="node">
<title>Node15</title>
<g id="a_Node000015"><a xlink:href="TCPServer_8cpp.html" target="_top" xlink:title=" ">
<polygon fill="white" stroke="#666666" points="943.5,-96 810.5,-96 810.5,-66 943.5,-66 943.5,-96"/>
<text text-anchor="start" x="818.5" y="-84" font-family="Helvetica,sans-Serif" font-size="10.00">Network/TransportLayer</text>
<text text-anchor="middle" x="877" y="-73" font-family="Helvetica,sans-Serif" font-size="10.00">/TCP/TCPServer.cpp</text>
</a>
</g>
</g>
<!-- Node14&#45;&gt;Node15 -->
<g id="edge18_Node000014_Node000015" class="edge">
<title>Node14&#45;&gt;Node15</title>
<g id="a_edge18_Node000014_Node000015"><a xlink:title=" ">
<path fill="none" stroke="#63b8ff" d="M780.71,-127.65C801.94,-117.58 827.85,-105.3 847.44,-96.01"/>
<polygon fill="#63b8ff" stroke="#63b8ff" points="779.16,-124.51 771.63,-131.95 782.16,-130.83 779.16,-124.51"/>
</a>
</g>
</g>
</g>
</svg>
